<svg xmlns="http://www.w3.org/2000/svg" xmlns:xlink="http://www.w3.org/1999/xlink" width="1183.537" height="717.093" viewBox="0 0 1183.537 717.093">
  <defs>
    <filter id="Rectángulo_301865" x="743.355" y="267.569" width="368.323" height="81.62" filterUnits="userSpaceOnUse">
      <feOffset dx="3" dy="3" input="SourceAlpha"/>
      <feGaussianBlur stdDeviation="1.5" result="blur"/>
      <feFlood flood-opacity="0.149"/>
      <feComposite operator="in" in2="blur"/>
      <feComposite in="SourceGraphic"/>
    </filter>
    <filter id="Rectángulo_301866" x="608.855" y="590.798" width="574.683" height="88.5" filterUnits="userSpaceOnUse">
      <feOffset dx="3" dy="3" input="SourceAlpha"/>
      <feGaussianBlur stdDeviation="1.5" result="blur-2"/>
      <feFlood flood-opacity="0.149"/>
      <feComposite operator="in" in2="blur-2"/>
      <feComposite in="SourceGraphic"/>
    </filter>
    <filter id="Rectángulo_301856" x="139.352" y="0" width="323.323" height="57.62" filterUnits="userSpaceOnUse">
      <feOffset dx="3" dy="3" input="SourceAlpha"/>
      <feGaussianBlur stdDeviation="1.5" result="blur-3"/>
      <feFlood flood-opacity="0.149"/>
      <feComposite operator="in" in2="blur-3"/>
      <feComposite in="SourceGraphic"/>
    </filter>
    <filter id="Rectángulo_301861" x="139.353" y="211" width="323" height="69.12" filterUnits="userSpaceOnUse">
      <feOffset dx="3" dy="3" input="SourceAlpha"/>
      <feGaussianBlur stdDeviation="1.5" result="blur-4"/>
      <feFlood flood-opacity="0.149"/>
      <feComposite operator="in" in2="blur-4"/>
      <feComposite in="SourceGraphic"/>
    </filter>
    <filter id="Rectángulo_301857" x="139.352" y="57" width="323.323" height="57.62" filterUnits="userSpaceOnUse">
      <feOffset dx="3" dy="3" input="SourceAlpha"/>
      <feGaussianBlur stdDeviation="1.5" result="blur-5"/>
      <feFlood flood-opacity="0.149"/>
      <feComposite operator="in" in2="blur-5"/>
      <feComposite in="SourceGraphic"/>
    </filter>
    <filter id="Rectángulo_301860" x="139.353" y="282" width="323" height="72.704" filterUnits="userSpaceOnUse">
      <feOffset dx="3" dy="3" input="SourceAlpha"/>
      <feGaussianBlur stdDeviation="1.5" result="blur-6"/>
      <feFlood flood-opacity="0.149"/>
      <feComposite operator="in" in2="blur-6"/>
      <feComposite in="SourceGraphic"/>
    </filter>
    <filter id="Rectángulo_301858" x="139.352" y="114" width="323.323" height="57.62" filterUnits="userSpaceOnUse">
      <feOffset dx="3" dy="3" input="SourceAlpha"/>
      <feGaussianBlur stdDeviation="1.5" result="blur-7"/>
      <feFlood flood-opacity="0.149"/>
      <feComposite operator="in" in2="blur-7"/>
      <feComposite in="SourceGraphic"/>
    </filter>
    <filter id="Rectángulo_301859" x="139.353" y="356" width="323" height="70.5" filterUnits="userSpaceOnUse">
      <feOffset dx="3" dy="3" input="SourceAlpha"/>
      <feGaussianBlur stdDeviation="1.5" result="blur-8"/>
      <feFlood flood-opacity="0.149"/>
      <feComposite operator="in" in2="blur-8"/>
      <feComposite in="SourceGraphic"/>
    </filter>
    <filter id="Rectángulo_301864" x="806.855" y="386.569" width="222" height="112" filterUnits="userSpaceOnUse">
      <feOffset dy="3" input="SourceAlpha"/>
      <feGaussianBlur stdDeviation="3" result="blur-9"/>
      <feFlood flood-opacity="0.161"/>
      <feComposite operator="in" in2="blur-9"/>
    </filter>
    <filter id="Rectángulo_301864-2" x="806.855" y="386.569" width="222" height="112" filterUnits="userSpaceOnUse">
      <feOffset dx="6" dy="6" input="SourceAlpha"/>
      <feGaussianBlur stdDeviation="3" result="blur-10"/>
      <feFlood flood-opacity="0.161" result="color"/>
      <feComposite operator="out" in="SourceGraphic" in2="blur-10"/>
      <feComposite operator="in" in="color"/>
      <feComposite operator="in" in2="SourceGraphic"/>
    </filter>
    <filter id="Rectángulo_301863" x="92.855" y="605.093" width="222" height="112" filterUnits="userSpaceOnUse">
      <feOffset dy="3" input="SourceAlpha"/>
      <feGaussianBlur stdDeviation="3" result="blur-11"/>
      <feFlood flood-opacity="0.161"/>
      <feComposite operator="in" in2="blur-11"/>
    </filter>
    <filter id="Rectángulo_301863-2" x="92.855" y="605.093" width="222" height="112" filterUnits="userSpaceOnUse">
      <feOffset dx="6" dy="6" input="SourceAlpha"/>
      <feGaussianBlur stdDeviation="3" result="blur-12"/>
      <feFlood flood-opacity="0.161" result="color-2"/>
      <feComposite operator="out" in="SourceGraphic" in2="blur-12"/>
      <feComposite operator="in" in="color-2"/>
      <feComposite operator="in" in2="SourceGraphic"/>
    </filter>
    <filter id="Rectángulo_301862" x="186.853" y="479" width="222" height="112" filterUnits="userSpaceOnUse">
      <feOffset dy="3" input="SourceAlpha"/>
      <feGaussianBlur stdDeviation="3" result="blur-13"/>
      <feFlood flood-opacity="0.161"/>
      <feComposite operator="in" in2="blur-13"/>
    </filter>
    <filter id="Rectángulo_301862-2" x="186.853" y="479" width="222" height="112" filterUnits="userSpaceOnUse">
      <feOffset dx="6" dy="6" input="SourceAlpha"/>
      <feGaussianBlur stdDeviation="3" result="blur-14"/>
      <feFlood flood-opacity="0.161" result="color-3"/>
      <feComposite operator="out" in="SourceGraphic" in2="blur-14"/>
      <feComposite operator="in" in="color-3"/>
      <feComposite operator="in" in2="SourceGraphic"/>
    </filter>
  </defs>
  <g id="Grupo_1000268" data-name="Grupo 1000268" transform="translate(-212 -9989.407)">
    <g id="Grupo_1000160" data-name="Grupo 1000160" transform="translate(0 -199)">
      <g id="Grupo_1000159" data-name="Grupo 1000159" transform="translate(-0.481)">
        <g transform="matrix(1, 0, 0, 1, 212.48, 10188.41)" filter="url(#Rectángulo_301865)">
          <path id="Rectángulo_301865-2" data-name="Rectángulo 301865" d="M.994,0H41.475A27.146,27.146,0,0,1,68.62,27.146V354.329a.993.993,0,0,1-.993.993H.993A.993.993,0,0,1,0,354.33V.994A.994.994,0,0,1,.994,0Z" transform="translate(1102.18 271.07) rotate(90)" fill="#eb7a85" stroke="#fff" stroke-width="4"/>
        </g>
        <text id="Cálculo_de_la_función_de_distribución_de_probabilidad_de_la_pérdida_para_el_evento_" data-name="Cálculo de la función de distribución de probabilidad de la pérdida para el evento     " transform="translate(961.836 10471.977)" fill="#12263f" font-size="16" font-family="Roboto-Black, Roboto" font-weight="800"><tspan x="25.116" y="17">Cálculo de la función de distribución de </tspan><tspan x="21.1" y="35" xml:space="preserve">probabilidad de la pérdida para el evento     </tspan></text>
        <path id="Trazado_183774" data-name="Trazado 183774" d="M0,0V467.19" transform="translate(510.175 10214.218)" fill="none" stroke="#707070" stroke-width="2"/>
        <g transform="matrix(1, 0, 0, 1, 212.48, 10188.41)" filter="url(#Rectángulo_301866)">
          <path id="Rectángulo_301866-2" data-name="Rectángulo 301866" d="M.994,0H48.354A27.146,27.146,0,0,1,75.5,27.146V560.689a.993.993,0,0,1-.993.993H.993A.993.993,0,0,1,0,560.689V.994A.994.994,0,0,1,.994,0Z" transform="translate(1174.04 594.3) rotate(90)" fill="#eb7a85" stroke="#fff" stroke-width="4"/>
        </g>
        <text id="Cálculo_de_la_tasa_de_excedencia_usando_la_PDF_de_la_pérdida_asociada_a_cada_evento_y_su_frecuencia_de_ocurrencia" data-name="Cálculo de la tasa de excedencia usando la PDF de la pérdida asociada a cada evento y su frecuencia de ocurrencia" transform="translate(844.336 10799.205)" fill="#12263f" font-size="16" font-family="Roboto-Black, Roboto" font-weight="800"><tspan x="1.8" y="17">Cálculo de la tasa de excedencia usando la PDF de la pérdida asociada a </tspan><tspan x="109.495" y="35">cada evento y su frecuencia de ocurrencia</tspan></text>
        <g transform="matrix(1, 0, 0, 1, 212.48, 10188.41)" filter="url(#Rectángulo_301856)">
          <path id="Rectángulo_301856-2" data-name="Rectángulo 301856" d="M.994,0H17.475A27.146,27.146,0,0,1,44.62,27.146V309.329a.993.993,0,0,1-.993.993H.993A.993.993,0,0,1,0,309.33V.994A.994.994,0,0,1,.994,0Z" transform="translate(453.17 3.5) rotate(90)" fill="#eb7a85" stroke="#fff" stroke-width="4"/>
        </g>
        <g transform="matrix(1, 0, 0, 1, 212.48, 10188.41)" filter="url(#Rectángulo_301861)">
          <path id="Rectángulo_301861-2" data-name="Rectángulo 301861" d="M.994,0H28.975A27.146,27.146,0,0,1,56.12,27.146V309.007a.993.993,0,0,1-.993.993H.993A.993.993,0,0,1,0,309.007V.994A.994.994,0,0,1,.994,0Z" transform="translate(452.85 214.5) rotate(90)" fill="#54aca2" stroke="#fff" stroke-width="4"/>
        </g>
        <g transform="matrix(1, 0, 0, 1, 212.48, 10188.41)" filter="url(#Rectángulo_301857)">
          <path id="Rectángulo_301857-2" data-name="Rectángulo 301857" d="M.994,0H17.475A27.146,27.146,0,0,1,44.62,27.146V309.329a.993.993,0,0,1-.993.993H.993A.993.993,0,0,1,0,309.33V.994A.994.994,0,0,1,.994,0Z" transform="translate(453.17 60.5) rotate(90)" fill="#eb7a85" stroke="#fff" stroke-width="4"/>
        </g>
        <g transform="matrix(1, 0, 0, 1, 212.48, 10188.41)" filter="url(#Rectángulo_301860)">
          <path id="Rectángulo_301860-2" data-name="Rectángulo 301860" d="M.994,0H32.559A27.146,27.146,0,0,1,59.7,27.146V309.007a.993.993,0,0,1-.993.993H.993A.993.993,0,0,1,0,309.007V.994A.994.994,0,0,1,.994,0Z" transform="translate(452.85 285.5) rotate(90)" fill="#54aca2" stroke="#fff" stroke-width="4"/>
        </g>
        <g transform="matrix(1, 0, 0, 1, 212.48, 10188.41)" filter="url(#Rectángulo_301858)">
          <path id="Rectángulo_301858-2" data-name="Rectángulo 301858" d="M.994,0H17.475A27.146,27.146,0,0,1,44.62,27.146V309.329a.993.993,0,0,1-.993.993H.993A.993.993,0,0,1,0,309.33V.994A.994.994,0,0,1,.994,0Z" transform="translate(453.17 117.5) rotate(90)" fill="#eb7a85" stroke="#fff" stroke-width="4"/>
        </g>
        <g transform="matrix(1, 0, 0, 1, 212.48, 10188.41)" filter="url(#Rectángulo_301859)">
          <path id="Rectángulo_301859-2" data-name="Rectángulo 301859" d="M.994,0H30.354A27.146,27.146,0,0,1,57.5,27.146V309.007a.993.993,0,0,1-.993.993H.993A.993.993,0,0,1,0,309.007V.994A.994.994,0,0,1,.994,0Z" transform="translate(452.85 359.5) rotate(90)" fill="#54aca2" stroke="#fff" stroke-width="4"/>
        </g>
        <text id="Evento_del_catálogo_estocástico" data-name="Evento del catálogo estocástico" transform="translate(374.834 10202.407)" fill="#12263f" font-size="16" font-family="Roboto-Black, Roboto" font-weight="800"><tspan x="21.19" y="17">Evento del catálogo estocástico</tspan></text>
        <text id="Sí" transform="translate(597.206 10820)" fill="#179587" font-size="18" font-family="Roboto-Black, Roboto" font-weight="800"><tspan x="17.865" y="19">Sí</tspan></text>
        <text id="Sí-2" data-name="Sí" transform="translate(964.558 10611.455)" fill="#179587" font-size="18" font-family="Roboto-Black, Roboto" font-weight="800"><tspan x="17.865" y="19">Sí</tspan></text>
        <text id="Sí-3" data-name="Sí" transform="translate(303.204 10681.407)" fill="#179587" font-size="18" font-family="Roboto-Black, Roboto" font-weight="800"><tspan x="17.865" y="19">Sí</tspan></text>
        <text id="No" transform="translate(362.502 10720.01)" fill="#ee4e5d" font-size="18" font-family="Roboto-Black, Roboto" font-weight="800"><tspan x="14.692" y="19">No</tspan></text>
        <text id="No-2" data-name="No" transform="translate(1270.901 10627.579)" fill="#ee4e5d" font-size="18" font-family="Roboto-Black, Roboto" font-weight="800"><tspan x="14.692" y="19">No</tspan></text>
        <text id="Selección_de_la_función_o_modelo_de_vulnerabilidad" data-name="Selección de la función o modelo de vulnerabilidad" transform="translate(374.834 10415.407)" fill="#12263f" font-size="16" font-family="Roboto-Black, Roboto" font-weight="800"><tspan x="5.319" y="17">Selección de la función o modelo de </tspan><tspan x="84.346" y="35">vulnerabilidad</tspan></text>
        <text id="Evento_del_catálogo_estocástico-2" data-name="Evento del catálogo estocástico" transform="translate(374.834 10259.407)" fill="#12263f" font-size="16" font-family="Roboto-Black, Roboto" font-weight="800"><tspan x="21.19" y="17">Evento del catálogo estocástico</tspan></text>
        <text id="Intensidad_de_la_amenaza_en_el_área_de_estudio" data-name="Intensidad de la amenaza en el área de estudio" transform="translate(374.834 10485.407)" fill="#12263f" font-size="16" font-family="Roboto-Black, Roboto" font-weight="800"><tspan x="6.315" y="17">Intensidad de la amenaza en el área </tspan><tspan x="97.815" y="35">de estudio</tspan></text>
        <text id="Evento_del_catálogo_estocástico-3" data-name="Evento del catálogo estocástico" transform="translate(374.834 10316.407)" fill="#12263f" font-size="16" font-family="Roboto-Black, Roboto" font-weight="800"><tspan x="21.19" y="17">Evento del catálogo estocástico</tspan></text>
        <text id="Cálculo_de_pérdidas_y_varianza" data-name="Cálculo de pérdidas y varianza" transform="translate(374.834 10568.407)" fill="#12263f" font-size="16" font-family="Roboto-Black, Roboto" font-weight="800"><tspan x="25.436" y="17">Cálculo de pérdidas y varianza</tspan></text>
        <g id="Polígono_26" data-name="Polígono 26" transform="translate(518.268 10674.646) rotate(180)" fill="#707070">
          <path d="M 15.3069896697998 13.12977981567383 L 0.8783723711967468 13.12977981567383 L 8.092680931091309 0.9793622493743896 L 15.3069896697998 13.12977981567383 Z" stroke="none"/>
          <path d="M 8.092680931091309 1.958707809448242 L 1.756733894348145 12.62977981567383 L 14.42862796783447 12.62977981567383 L 8.092680931091309 1.958707809448242 M 8.092680931091309 -9.5367431640625e-07 L 16.18536186218262 13.62977981567383 L 0 13.62977981567383 L 8.092680931091309 -9.5367431640625e-07 Z" stroke="none" fill="#707070"/>
        </g>
        <g id="Polígono_28" data-name="Polígono 28" transform="translate(518.709 10402.146) rotate(180)" fill="#707070">
          <path d="M 15.3069896697998 13.12977981567383 L 0.8783723711967468 13.12977981567383 L 8.092680931091309 0.9793622493743896 L 15.3069896697998 13.12977981567383 Z" stroke="none"/>
          <path d="M 8.092680931091309 1.958707809448242 L 1.756733894348145 12.62977981567383 L 14.42862796783447 12.62977981567383 L 8.092680931091309 1.958707809448242 M 8.092680931091309 -9.5367431640625e-07 L 16.18536186218262 13.62977981567383 L 0 13.62977981567383 L 8.092680931091309 -9.5367431640625e-07 Z" stroke="none" fill="#707070"/>
        </g>
        <g id="Grupo_898759" data-name="Grupo 898759" transform="translate(1027.284 10332.965)">
          <g id="Grupo_897588" data-name="Grupo 897588" transform="translate(-355.115 -135.298)">
            <path id="Trazado_183765" data-name="Trazado 183765" d="M.76,660.836V0h444.47V276.979" transform="translate(675.667 7.334) rotate(90)" fill="none" stroke="#ee4e5d" stroke-width="2"/>
            <g id="Polígono_26-2" data-name="Polígono 26" transform="translate(-3.333 15.425) rotate(-90)" fill="#ee4e5d">
              <path d="M 14.68270301818848 18.33349800109863 L 1.502656698226929 18.33349800109863 L 8.092679977416992 2.589861154556274 L 14.68270301818848 18.33349800109863 Z" stroke="none"/>
              <path d="M 8.092679977416992 5.179723739624023 L 3.005312919616699 17.33349800109863 L 13.18004608154297 17.33349800109863 L 8.092679977416992 5.179723739624023 M 8.092679977416992 -1.9073486328125e-06 L 16.18535995483398 19.33349800109863 L 0 19.33349800109863 L 8.092679977416992 -1.9073486328125e-06 Z" stroke="none" fill="#ee4e5d"/>
            </g>
          </g>
        </g>
        <g id="Grupo_898760" data-name="Grupo 898760" transform="translate(213.481 10261.667)">
          <g id="Grupo_897588-2" data-name="Grupo 897588" transform="translate(0 -1)">
            <path id="Trazado_183765-2" data-name="Trazado 183765" d="M0,0V132.13H578.256V-13.891" transform="translate(132.13 6.077) rotate(90)" fill="none" stroke="#ee4e5d" stroke-width="2"/>
            <g id="Polígono_26-3" data-name="Polígono 26" transform="translate(141.852) rotate(90)" fill="#ee4e5d">
              <path d="M 10.39820098876953 9.235681533813477 L 1.756737112998962 9.235681533813477 L 6.077468872070312 1.958701372146606 L 10.39820098876953 9.235681533813477 Z" stroke="none"/>
              <path d="M 6.077468872070312 3.917418479919434 L 3.513485908508301 8.235681533813477 L 8.641452789306641 8.235681533813477 L 6.077468872070312 3.917418479919434 M 6.077468872070312 9.5367431640625e-07 L 12.15493869781494 10.23568153381348 L -9.5367431640625e-07 10.23568153381348 L 6.077468872070312 9.5367431640625e-07 Z" stroke="none" fill="#ee4e5d"/>
            </g>
          </g>
        </g>
        <g id="Grupo_898761" data-name="Grupo 898761" transform="translate(252.4 10315.43)">
          <g id="Grupo_897588-3" data-name="Grupo 897588" transform="translate(0 -1)">
            <path id="Trazado_183765-3" data-name="Trazado 183765" d="M0,0V88.437H388.1V-63" transform="translate(88.437 6.077) rotate(90)" fill="none" stroke="#179587" stroke-width="3"/>
            <g id="Polígono_26-4" data-name="Polígono 26" transform="translate(98.159) rotate(90)" fill="#179587">
              <path d="M 9.519826889038086 8.735681533813477 L 2.635111808776855 8.735681533813477 L 6.077469348907471 2.93805980682373 L 9.519826889038086 8.735681533813477 Z" stroke="none"/>
              <path d="M 6.077469348907471 5.876118183135986 L 5.270224094390869 7.235681533813477 L 6.884714603424072 7.235681533813477 L 6.077469348907471 5.876118183135986 M 6.077469348907471 9.5367431640625e-07 L 12.15493965148926 10.23568153381348 L -9.5367431640625e-07 10.23568153381348 L 6.077469348907471 9.5367431640625e-07 Z" stroke="none" fill="#179587"/>
            </g>
          </g>
        </g>
        <g id="Grupo_1000156" data-name="Grupo 1000156" transform="translate(767.836 10486.407)">
          <g id="Grupo_897588-4" data-name="Grupo 897588" transform="translate(0 -1)">
            <path id="Trazado_183765-4" data-name="Trazado 183765" d="M0,120.256v184.5H357.516l2,256.836" transform="translate(304.756 6.077) rotate(90)" fill="none" stroke="#179587" stroke-width="3"/>
            <g id="Polígono_26-5" data-name="Polígono 26" transform="translate(193.63) rotate(90)" fill="#179587">
              <path d="M 9.725686073303223 10.63037586212158 L 2.429253101348877 10.63037586212158 L 6.077469348907471 3.34868597984314 L 9.725686073303223 10.63037586212158 Z" stroke="none"/>
              <path d="M 6.077469348907471 6.697346210479736 L 4.858491897583008 9.130375862121582 L 7.296446800231934 9.130375862121582 L 6.077469348907471 6.697346210479736 M 6.077469348907471 -4.76837158203125e-06 L 12.15493965148926 12.13037586212158 L -9.5367431640625e-07 12.13037586212158 L 6.077469348907471 -4.76837158203125e-06 Z" stroke="none" fill="#179587"/>
            </g>
          </g>
        </g>
        <g id="Grupo_898762" data-name="Grupo 898762" transform="translate(1097.301 10619.828) rotate(90)">
          <g id="Grupo_897588-5" data-name="Grupo 897588" transform="translate(-19.852 8.095)">
            <path id="Trazado_183765-5" data-name="Trazado 183765" d="M0,166.023V124.375H136.16V0" transform="translate(166.023 0) rotate(90)" fill="none" stroke="#179587" stroke-width="3"/>
            <g id="Polígono_27" data-name="Polígono 27" transform="translate(179.69 128.851) rotate(90)" fill="#179587">
              <path d="M 13.55025672912598 12.12977981567383 L 2.63510537147522 12.12977981567383 L 8.092680931091309 2.938071012496948 L 13.55025672912598 12.12977981567383 Z" stroke="none"/>
              <path d="M 8.092680931091309 5.876142501831055 L 5.270209312438965 10.62977981567383 L 10.91515159606934 10.62977981567383 L 8.092680931091309 5.876142501831055 M 8.092680931091309 -9.5367431640625e-07 L 16.18536186218262 13.62977981567383 L 0 13.62977981567383 L 8.092680931091309 -9.5367431640625e-07 Z" stroke="none" fill="#179587"/>
            </g>
          </g>
        </g>
        <g id="Grupo_898763" data-name="Grupo 898763" transform="translate(7477.845 11916.419)">
          <g id="Polígono_29" data-name="Polígono 29" transform="translate(-6347.509 -1339.762) rotate(180)" fill="#707070">
            <path d="M 15.3069896697998 13.12977981567383 L 0.8783723711967468 13.12977981567383 L 8.092680931091309 0.9793622493743896 L 15.3069896697998 13.12977981567383 Z" stroke="none"/>
            <path d="M 8.092680931091309 1.958707809448242 L 1.756733894348145 12.62977981567383 L 14.42862796783447 12.62977981567383 L 8.092680931091309 1.958707809448242 M 8.092680931091309 -9.5367431640625e-07 L 16.18536186218262 13.62977981567383 L 0 13.62977981567383 L 8.092680931091309 -9.5367431640625e-07 Z" stroke="none" fill="#707070"/>
          </g>
          <path id="Trazado_183774-2" data-name="Trazado 183774" d="M0,0V37.423" transform="translate(-6355.602 -1384)" fill="none" stroke="#707070" stroke-width="1"/>
        </g>
        <g data-type="innerShadowGroup">
          <g transform="matrix(1, 0, 0, 1, 212.48, 10188.41)" filter="url(#Rectángulo_301864)">
            <path id="Rectángulo_301864-3" data-name="Rectángulo 301864" d="M5.532,0H178.874A21.126,21.126,0,0,1,200,21.126V84.468A5.532,5.532,0,0,1,194.468,90H21.126A21.126,21.126,0,0,1,0,68.874V5.532A5.532,5.532,0,0,1,5.532,0Z" transform="translate(817.85 394.57)" fill="#f1b62b" stroke="#fff" stroke-width="4"/>
          </g>
          <path id="Rectángulo_301864-4" data-name="Rectángulo 301864" d="M5.532,0H178.874A21.126,21.126,0,0,1,200,21.126V84.468A5.532,5.532,0,0,1,194.468,90H21.126A21.126,21.126,0,0,1,0,68.874V5.532A5.532,5.532,0,0,1,5.532,0Z" transform="translate(1030.336 10582.977)" fill="#f1b62b"/>
          <g transform="matrix(1, 0, 0, 1, 212.48, 10188.41)" filter="url(#Rectángulo_301864-2)">
            <path id="Rectángulo_301864-5" data-name="Rectángulo 301864" d="M5.532,0H178.874A21.126,21.126,0,0,1,200,21.126V84.468A5.532,5.532,0,0,1,194.468,90H21.126A21.126,21.126,0,0,1,0,68.874V5.532A5.532,5.532,0,0,1,5.532,0Z" transform="translate(817.85 394.57)" fill="#fff"/>
          </g>
          <path id="Rectángulo_301864-6" data-name="Rectángulo 301864" d="M5.532,0H178.874A21.126,21.126,0,0,1,200,21.126V84.468A5.532,5.532,0,0,1,194.468,90H21.126A21.126,21.126,0,0,1,0,68.874V5.532A5.532,5.532,0,0,1,5.532,0Z" transform="translate(1030.336 10582.977)" fill="none" stroke="#fff" stroke-width="4"/>
        </g>
        <text id="Se_han_considerado_todos_los_eventos_" data-name="Se han considerado todos los eventos?" transform="translate(1051.836 10599.977)" fill="#12263f" font-size="16" font-family="Roboto-Black, Roboto" font-weight="800"><tspan x="6.696" y="17">Se han considerado </tspan><tspan x="10.2" y="42">todos los eventos?</tspan></text>
        <g id="Grupo_1000157" data-name="Grupo 1000157" transform="translate(6788.938 12139.407)">
          <g id="Trazado_653871" data-name="Trazado 653871" transform="translate(-6347.509 -1339.762) rotate(180)" fill="#ee4e5d">
            <path d="M16.185,13.63h0Z" stroke="none"/>
            <path d="M 0 13.62977886199951 L 16.18536186218262 13.62977886199951 L 0 13.62977886199951 Z" stroke="none" fill="#ee4e5d"/>
          </g>
          <path id="Trazado_183774-3" data-name="Trazado 183774" d="M0,0V52.876" transform="translate(-6373.438 -1396.288) rotate(90)" fill="none" stroke="#ee4e5d" stroke-width="2"/>
        </g>
        <g id="Grupo_1000158" data-name="Grupo 1000158" transform="translate(6718.529 12127)">
          <g id="Polígono_29-2" data-name="Polígono 29" transform="translate(-6347.509 -1327.355) rotate(180)" fill="#ee4e5d">
            <path d="M 14.61938858032227 16.45245933532715 L 1.565973520278931 16.45245933532715 L 8.092680931091309 2.377133846282959 L 14.61938858032227 16.45245933532715 Z" stroke="none"/>
            <path d="M 8.092680931091309 4.754279136657715 L 3.131950378417969 15.45245838165283 L 13.05341148376465 15.45245838165283 L 8.092680931091309 4.754279136657715 M 8.092680931091309 -1.9073486328125e-06 L 16.18536186218262 17.45245933532715 L 0 17.45245933532715 L 8.092680931091309 -1.9073486328125e-06 Z" stroke="none" fill="#ee4e5d"/>
          </g>
          <path id="Trazado_183774-4" data-name="Trazado 183774" d="M0,0V47.919" transform="translate(-6355.602 -1384)" fill="none" stroke="#ee4e5d" stroke-width="2"/>
        </g>
        <g data-type="innerShadowGroup">
          <g transform="matrix(1, 0, 0, 1, 212.48, 10188.41)" filter="url(#Rectángulo_301863)">
            <path id="Rectángulo_301863-3" data-name="Rectángulo 301863" d="M5.532,0H178.874A21.126,21.126,0,0,1,200,21.126V84.468A5.532,5.532,0,0,1,194.468,90H21.126A21.126,21.126,0,0,1,0,68.874V5.532A5.532,5.532,0,0,1,5.532,0Z" transform="translate(103.85 613.09)" fill="#f1b62b" stroke="#fff" stroke-width="4"/>
          </g>
          <path id="Rectángulo_301863-4" data-name="Rectángulo 301863" d="M5.532,0H178.874A21.126,21.126,0,0,1,200,21.126V84.468A5.532,5.532,0,0,1,194.468,90H21.126A21.126,21.126,0,0,1,0,68.874V5.532A5.532,5.532,0,0,1,5.532,0Z" transform="translate(316.336 10801.5)" fill="#f1b62b"/>
          <g transform="matrix(1, 0, 0, 1, 212.48, 10188.41)" filter="url(#Rectángulo_301863-2)">
            <path id="Rectángulo_301863-5" data-name="Rectángulo 301863" d="M5.532,0H178.874A21.126,21.126,0,0,1,200,21.126V84.468A5.532,5.532,0,0,1,194.468,90H21.126A21.126,21.126,0,0,1,0,68.874V5.532A5.532,5.532,0,0,1,5.532,0Z" transform="translate(103.85 613.09)" fill="#fff"/>
          </g>
          <path id="Rectángulo_301863-6" data-name="Rectángulo 301863" d="M5.532,0H178.874A21.126,21.126,0,0,1,200,21.126V84.468A5.532,5.532,0,0,1,194.468,90H21.126A21.126,21.126,0,0,1,0,68.874V5.532A5.532,5.532,0,0,1,5.532,0Z" transform="translate(316.336 10801.5)" fill="none" stroke="#fff" stroke-width="4"/>
        </g>
        <text id="Se_ha_analizado_toda_el_área_" data-name="Se ha analizado toda el área?" transform="translate(337.836 10818)" fill="#12263f" font-size="16" font-family="Roboto-Black, Roboto" font-weight="800"><tspan x="3.056" y="17">Se ha analizado toda </tspan><tspan x="49.282" y="42">el área?</tspan></text>
        <g data-type="innerShadowGroup">
          <g transform="matrix(1, 0, 0, 1, 212.48, 10188.41)" filter="url(#Rectángulo_301862)">
            <path id="Rectángulo_301862-3" data-name="Rectángulo 301862" d="M5.532,0H178.874A21.126,21.126,0,0,1,200,21.126V84.468A5.532,5.532,0,0,1,194.468,90H21.126A21.126,21.126,0,0,1,0,68.874V5.532A5.532,5.532,0,0,1,5.532,0Z" transform="translate(197.85 487)" fill="#f1b62b" stroke="#fff" stroke-width="4"/>
          </g>
          <path id="Rectángulo_301862-4" data-name="Rectángulo 301862" d="M5.532,0H178.874A21.126,21.126,0,0,1,200,21.126V84.468A5.532,5.532,0,0,1,194.468,90H21.126A21.126,21.126,0,0,1,0,68.874V5.532A5.532,5.532,0,0,1,5.532,0Z" transform="translate(410.334 10675.407)" fill="#f1b62b"/>
          <g transform="matrix(1, 0, 0, 1, 212.48, 10188.41)" filter="url(#Rectángulo_301862-2)">
            <path id="Rectángulo_301862-5" data-name="Rectángulo 301862" d="M5.532,0H178.874A21.126,21.126,0,0,1,200,21.126V84.468A5.532,5.532,0,0,1,194.468,90H21.126A21.126,21.126,0,0,1,0,68.874V5.532A5.532,5.532,0,0,1,5.532,0Z" transform="translate(197.85 487)" fill="#fff"/>
          </g>
          <path id="Rectángulo_301862-6" data-name="Rectángulo 301862" d="M5.532,0H178.874A21.126,21.126,0,0,1,200,21.126V84.468A5.532,5.532,0,0,1,194.468,90H21.126A21.126,21.126,0,0,1,0,68.874V5.532A5.532,5.532,0,0,1,5.532,0Z" transform="translate(410.334 10675.407)" fill="none" stroke="#fff" stroke-width="4"/>
        </g>
        <text id="Hay_otros_elementos_en_el_sitio_" data-name="Hay otros elementos en el sitio?" transform="translate(432.834 10692.407)" fill="#12263f" font-size="16" font-family="Roboto-Black, Roboto" font-weight="800"><tspan x="3.181" y="17">Hay otros elementos </tspan><tspan x="38.567" y="42">en el sitio?</tspan></text>
      </g>
    </g>
  </g>
</svg>
