<svg xmlns="http://www.w3.org/2000/svg" width="169.912" height="169.912" viewBox="0 0 169.912 169.912">
  <g id="Grupo_1000275" data-name="Grupo 1000275" transform="translate(-1093 -4368)">
    <g id="Grupo_897622" data-name="Grupo 897622" transform="translate(18.334 -0.578)">
      <g id="Grupo_1000274" data-name="Grupo 1000274">
        <ellipse id="Elipse_5475" data-name="Elipse 5475" cx="84.956" cy="84.956" rx="84.956" ry="84.956" transform="translate(1074.666 4368.578)" fill="#179587"/>
      </g>
    </g>
    <g id="Grupo_897662" data-name="Grupo 897662" transform="translate(477 -4.699)">
      <g id="Elipse_5580" data-name="Elipse 5580" transform="translate(715 4420.7)" fill="#f1b62b" stroke="#707070" stroke-width="1">
        <ellipse cx="9" cy="9.5" rx="9" ry="9.5" stroke="none"/>
        <ellipse cx="9" cy="9.5" rx="8.5" ry="9" fill="none"/>
      </g>
      <path id="Trazado_647356" data-name="Trazado 647356" d="M-7535.373-7178l-3.96,4.169,1.459,2.71-1.459,2.5v5.211h10.631s.417-3.335,0-3.96,0-5,0-5l-1.459-2.5-2.918-3.126Z" transform="translate(8247.157 11643.802)" fill="#f1b62b" stroke="#707070" stroke-width="1"/>
      <path id="Trazado_647357" data-name="Trazado 647357" d="M-7535.373-7178l-3.96,4.169,1.459,2.71-1.459,2.5v5.211h10.631s.417-3.335,0-3.96,0-5,0-5l-1.459-2.5-2.918-3.126Z" transform="translate(8265.315 11643.802)" fill="#ee4e5d" stroke="#707070" stroke-width="1"/>
      <rect id="Rectángulo_301482" data-name="Rectángulo 301482" width="35" height="67" transform="translate(663 4418.7)" fill="#b0c0d2"/>
      <path id="Trazado_647358" data-name="Trazado 647358" d="M-7620.7-7175.513h-10.63v-45.025l12.3-6.461v51.486Z" transform="translate(8281.626 11662.159)" fill="#ee4e5d"/>
      <g id="Rectángulo_301483" data-name="Rectángulo 301483" transform="translate(651 4493.7)" fill="#afafaf" stroke="#707070" stroke-width="1">
        <rect width="109" height="12" stroke="none"/>
        <rect x="0.5" y="0.5" width="108" height="11" fill="none"/>
      </g>
      <g id="Rectángulo_301484" data-name="Rectángulo 301484" transform="translate(669 4403.7)" fill="#222b5a" stroke="#707070" stroke-width="1">
        <rect width="24" height="14" stroke="none"/>
        <rect x="0.5" y="0.5" width="23" height="13" fill="none"/>
      </g>
      <g id="Grupo_897661" data-name="Grupo 897661" transform="translate(648 4393.7)">
        <g id="Grupo_897660" data-name="Grupo 897660" transform="translate(0)">
          <g id="Grupo_897659" data-name="Grupo 897659">
            <g id="Grupo_897658" data-name="Grupo 897658">
              <path id="Trazado_647345" data-name="Trazado 647345" d="M3205.423,1670.826l15.2-15.055a1.67,1.67,0,1,0-2.35-2.373l-9.852,9.756a11.2,11.2,0,0,0-.438-3.185l5.92-5.862a1.67,1.67,0,1,0-2.35-2.373l-5.072,5.022a11.4,11.4,0,0,0-2.04-2.272l18.258-18.08a1.67,1.67,0,1,0-2.35-2.374l-18.828,18.644a11.226,11.226,0,0,0-4.118-.883l10.525-10.423a1.67,1.67,0,1,0-2.35-2.373c-17.052,16.886-14.76,14.655-15.631,15.37a11.319,11.319,0,1,0,15.473,16.459Zm-11.02-15.219a7.957,7.957,0,1,1-5.022,9.275A5.917,5.917,0,0,0,3194.4,1655.608Zm-2.831,1.788a2.576,2.576,0,0,1-2.249,4.144A7.941,7.941,0,0,1,3191.572,1657.4Z" transform="translate(-3121.707 -1627.39)"/>
              <path id="Trazado_647346" data-name="Trazado 647346" d="M3227.368,1729.738a2.355,2.355,0,1,1-2.355,2.355A2.355,2.355,0,0,1,3227.368,1729.738Z" transform="translate(-3149.413 -1695.413)"/>
              <path id="Trazado_647347" data-name="Trazado 647347" d="M3061.787,1728.7h-19.334a1.67,1.67,0,0,0,0,3.34h19.334a1.67,1.67,0,0,0,0-3.34Z" transform="translate(-3019.132 -1694.681)"/>
              <path id="Trazado_647348" data-name="Trazado 647348" d="M3061.787,1753.619h-19.334a1.67,1.67,0,0,0,0,3.34h19.334a1.67,1.67,0,0,0,0-3.34Z" transform="translate(-3019.132 -1712.301)"/>
              <path id="Trazado_647349" data-name="Trazado 647349" d="M3061.787,1778.534h-19.334a1.67,1.67,0,0,0,0,3.34h19.334a1.67,1.67,0,0,0,0-3.34Z" transform="translate(-3019.132 -1729.92)"/>
              <path id="Trazado_647350" data-name="Trazado 647350" d="M3061.787,1803.449h-19.334a1.67,1.67,0,0,0,0,3.34h19.334a1.67,1.67,0,0,0,0-3.34Z" transform="translate(-3019.132 -1747.538)"/>
              <path id="Trazado_647351" data-name="Trazado 647351" d="M3061.787,1828.364h-19.334a1.67,1.67,0,0,0,0,3.339h19.334a1.67,1.67,0,0,0,0-3.339Z" transform="translate(-3019.132 -1765.157)"/>
              <path id="Trazado_647352" data-name="Trazado 647352" d="M3061.787,1853.279h-19.334a1.67,1.67,0,0,0,0,3.34h19.334a1.67,1.67,0,0,0,0-3.34Z" transform="translate(-3019.132 -1782.777)"/>
              <path id="Trazado_647353" data-name="Trazado 647353" d="M3061.787,1878.195h-19.334a1.67,1.67,0,0,0,0,3.34h19.334a1.67,1.67,0,0,0,0-3.34Z" transform="translate(-3019.132 -1800.396)"/>
              <path id="Trazado_647354" data-name="Trazado 647354" d="M3076.506,1703.961h-24.173v-3.123h3.479a2.313,2.313,0,0,0,2.024-1.2c.761-1.384-.1-2.394-.812-3.52a2.309,2.309,0,0,0,.473-3.113l-1.307-2.067a2.309,2.309,0,0,0,.283-2.947l-3.162-5a3.057,3.057,0,0,0-5.3,0l-3.207,5.07a2.312,2.312,0,0,0,.328,2.875l-1.352,2.138a2.311,2.311,0,0,0,.518,3.042l-.74,1.17a2.313,2.313,0,0,0,1.952,3.547h3.48v3.123h-15.251v-3.123h3.479a2.312,2.312,0,0,0,1.953-3.545l-.74-1.171a2.308,2.308,0,0,0,.472-3.113l-1.307-2.067a2.308,2.308,0,0,0,.283-2.947l-3.161-5a3.057,3.057,0,0,0-5.3,0l-3.207,5.07a2.312,2.312,0,0,0,.328,2.876l-1.352,2.138a2.311,2.311,0,0,0,.518,3.042l-.74,1.17a2.313,2.313,0,0,0,1.952,3.547h3.479v3.123H3019.46v-50.613a1.67,1.67,0,1,0-3.34,0v50.611h-32.836v-63.92a1.862,1.862,0,0,1,1.859-1.86h29.115a1.861,1.861,0,0,1,1.859,1.86v7.594a1.67,1.67,0,1,0,3.34,0v-7.594a5.2,5.2,0,0,0-4.989-5.194v-8.522a5.418,5.418,0,0,0-5.412-5.412h-7.685v-6.723a1.67,1.67,0,1,0-3.34,0v6.723h-7.685a5.418,5.418,0,0,0-5.412,5.412v8.521a5.2,5.2,0,0,0-4.99,5.194V1652.3l-12.124,5.565a1.672,1.672,0,0,0-.974,1.518v62.8a4.347,4.347,0,0,0,4.342,4.342h105.316a4.347,4.347,0,0,0,4.342-4.342V1708.3A4.347,4.347,0,0,0,3076.506,1703.961Zm-88.231-77.636a2.074,2.074,0,0,1,2.072-2.072h18.71a2.075,2.075,0,0,1,2.072,2.072v8.516h-22.854Zm59.108,71.173,1.045-1.653a1.671,1.671,0,0,0-.876-2.475l1.6-2.538a1.671,1.671,0,0,0-.644-2.376l2.149-3.4,2.15,3.4a1.671,1.671,0,0,0-.644,2.376l1.605,2.538a1.671,1.671,0,0,0-.877,2.475l1.046,1.653Zm-18.591,0,1.046-1.653a1.671,1.671,0,0,0-.876-2.475l1.6-2.538a1.671,1.671,0,0,0-.644-2.376l2.15-3.4,2.15,3.4a1.671,1.671,0,0,0-.644,2.376l1.6,2.538a1.671,1.671,0,0,0-.876,2.475l1.046,1.653Zm-58.6-37.046,9.757-4.478v47.988h-9.757Zm107.32,49.695H3017.73a1.67,1.67,0,0,0,0,3.34h59.778v8.691a1,1,0,0,1-1,1H2971.19a1,1,0,0,1-1-1v-8.691h41.53a1.67,1.67,0,1,0,0-3.34h-41.53V1707.3h106.318a1,1,0,0,1,1,1v1.843Z" transform="translate(-2966.848 -1612.52)"/>
              <path id="Trazado_647355" data-name="Trazado 647355" d="M3309.056,1684.875c.885,0,1.041-.351,3.605-2.89a1.67,1.67,0,1,0-2.35-2.373l-2.43,2.407A1.672,1.672,0,0,0,3309.056,1684.875Z" transform="translate(-3207.664 -1659.623)"/>
            </g>
          </g>
        </g>
      </g>
    </g>
  </g>
</svg>
