<svg xmlns="http://www.w3.org/2000/svg" width="110" height="110" viewBox="0 0 110 110">
  <g id="Grupo_1000273" data-name="Grupo 1000273" transform="translate(-226.22 -7427)">
    <g id="Grupo_1000165" data-name="Grupo 1000165" transform="translate(226.22 7427)">
      <g id="Elipse_5479" data-name="Elipse 5479" transform="translate(0 0)" fill="#fff" stroke="#222b5a" stroke-width="3">
        <ellipse cx="55" cy="55" rx="55" ry="55" stroke="none"/>
        <ellipse cx="55" cy="55" rx="53.5" ry="53.5" fill="none"/>
      </g>
      <g id="Layer_5" data-name="Layer 5" transform="translate(17.634 13.911)">
        <path id="Trazado_126037" data-name="Trazado 126037" d="M59.422,8.468l7.707,43.7-27.6,4.867-6.083-34.5,6.292-4.671,8.252-.269-.817-4.6,2.639-5.208,6.9-1.217a2.342,2.342,0,0,1,2.711,1.9Z" transform="translate(5.609 1.096)" fill="#179587"/>
        <path id="Trazado_126038" data-name="Trazado 126038" d="M54.214,11.709a1.168,1.168,0,0,1-1.148-.965l-.325-1.837a1.168,1.168,0,1,1,2.3-.406l.323,1.838a1.168,1.168,0,0,1-.946,1.352,1.218,1.218,0,0,1-.2.018Z" transform="translate(8.841 1.264)" fill="#fff"/>
        <path id="Trazado_126039" data-name="Trazado 126039" d="M38.215,28.513,36.421,18.346l-2.975,2.207,6.083,34.5,27.6-4.867L66.2,44.922l-3.636.641A21.018,21.018,0,0,1,38.215,28.513Z" transform="translate(5.609 3.076)" fill="#40b9ac"/>
        <path id="Trazado_126040" data-name="Trazado 126040" d="M0,0H7.006V7.006H0Z" transform="matrix(0.985, -0.174, 0.174, 0.985, 54.299, 49.394)" fill="#a7d0e1"/>
        <path id="Trazado_126041" data-name="Trazado 126041" d="M54.592,48.131l-1.128-6.393c-.487-.077-.975-.151-1.453-.262l-5.535.976,1.217,6.9,3.449-.608Z" transform="translate(7.794 6.955)" fill="#80bbce"/>
        <g id="Grupo_881619" data-name="Grupo 881619" transform="translate(44.483 24.155)">
          <path id="Trazado_126042" data-name="Trazado 126042" d="M0,0H7.006V7.006H0Z" transform="matrix(0.985, -0.174, 0.174, 0.985, 0, 3.253)" fill="#a7d0e1"/>
          <path id="Trazado_126043" data-name="Trazado 126043" d="M0,0H7.006V7.006H0Z" transform="matrix(0.985, -0.174, 0.174, 0.985, 11.502, 1.219)" fill="#a7d0e1"/>
          <path id="Trazado_126044" data-name="Trazado 126044" d="M0,0H7.006V7.006H0Z" transform="matrix(0.985, -0.174, 0.174, 0.985, 2.032, 14.753)" fill="#a7d0e1"/>
        </g>
        <path id="Trazado_126045" data-name="Trazado 126045" d="M45.6,39.425a21,21,0,0,1-5.675-6.113l-.11.019,1.217,6.9Z" transform="translate(6.677 5.586)" fill="#80bbce"/>
        <path id="Trazado_126046" data-name="Trazado 126046" d="M0,0H7.006V7.006H0Z" transform="matrix(0.985, -0.174, 0.174, 0.985, 58.017, 36.876)" fill="#a7d0e1"/>
        <path id="Trazado_126047" data-name="Trazado 126047" d="M31.4,18.784l-6.9,39.1-23-4.055,8.117-46a2.342,2.342,0,0,1,2.706-1.894l5.75,1.014,1.489,5.006,3.789,5.41Z" transform="translate(0.252 0.989)" fill="#222b5a"/>
        <path id="Trazado_126048" data-name="Trazado 126048" d="M9.3,32.047,13.852,6.2l-1.531-.27A2.342,2.342,0,0,0,9.616,7.829l-8.111,46,23,4.055.716-4.057-.767-.134A18.683,18.683,0,0,1,9.3,32.047Z" transform="translate(0.252 0.989)" fill="#71758f"/>
        <path id="Trazado_126049" data-name="Trazado 126049" d="M0,0H7.006V7.006H0Z" transform="matrix(0.985, 0.174, -0.174, 0.985, 11.008, 49.35)" fill="#a7d0e1"/>
        <path id="Trazado_126050" data-name="Trazado 126050" d="M16.28,44.807A18.573,18.573,0,0,1,14,43.025l-4.388-.774L8.4,49.151l3.449.608,3.451.608Z" transform="translate(1.409 7.085)" fill="#80bbce"/>
        <path id="Trazado_126051" data-name="Trazado 126051" d="M0,0H14.012V4.671H0Z" transform="matrix(0.985, 0.174, -0.174, 0.985, 9.183, 39.539)" fill="#a7d0e1"/>
        <path id="Trazado_126052" data-name="Trazado 126052" d="M8.378,33.92l-.384-.068-.817,4.6,2.876.507A18.629,18.629,0,0,1,8.378,33.92Z" transform="translate(1.203 5.677)" fill="#80bbce"/>
        <path id="Trazado_126053" data-name="Trazado 126053" d="M0,0H14.012V4.671H0Z" transform="matrix(0.985, 0.174, -0.174, 0.985, 10.808, 30.339)" fill="#a7d0e1"/>
        <path id="Trazado_126054" data-name="Trazado 126054" d="M0,0H14.012V4.671H0Z" transform="matrix(0.985, 0.174, -0.174, 0.985, 12.435, 21.138)" fill="#a7d0e1"/>
        <path id="Trazado_126055" data-name="Trazado 126055" d="M73.4,45V66.018H1V47.335l24.522,2.335,1.168,1.168v2.335l3.5,3.5v4.671l3.5-3.5v-3.5l-1.168-1.168v-3.5Z" transform="translate(0.168 7.546)" fill="#f1b62b"/>
        <path id="Trazado_126056" data-name="Trazado 126056" d="M4.5,48.168v-.834L1,47V65.683H73.4v-3.5H18.515A14.012,14.012,0,0,1,4.5,48.168Z" transform="translate(0.168 7.882)" fill="#ea8e49"/>
        <path id="Trazado_126057" data-name="Trazado 126057" d="M30.322,20.652l-7.076-4.087-1.712-6.384.311-5.213,11.123,6.422a2.335,2.335,0,0,1,.857,3.189Z" transform="translate(3.611 0.833)" fill="#222b5a"/>
        <path id="Trazado_126058" data-name="Trazado 126058" d="M24.078,8.625l-.11-.408a2.319,2.319,0,0,1-.075-.744L23.969,6.2,21.845,4.969l-.313,5.213,1.714,6.384,7.079,4.087,1.6-2.763L30.6,17.128a14.012,14.012,0,0,1-6.525-8.5Z" transform="translate(3.611 0.833)" fill="#71758f"/>
        <path id="Trazado_126059" data-name="Trazado 126059" d="M45.817,21.649a1.158,1.158,0,0,0-.873-.193l-6.9,1.221A1.168,1.168,0,0,0,37.1,24.03l1.216,6.9a1.168,1.168,0,0,0,1.149.966,1.088,1.088,0,0,0,.2-.019l6.9-1.221a1.168,1.168,0,0,0,.947-1.352l-1.217-6.9a1.168,1.168,0,0,0-.475-.754ZM40.411,29.37l-.817-4.6,4.6-.817.817,4.6Z" transform="translate(6.218 3.595)"/>
        <path id="Trazado_126060" data-name="Trazado 126060" d="M54.792,19.721l-6.9,1.217a1.168,1.168,0,0,0-.947,1.352l1.217,6.9a1.168,1.168,0,0,0,1.149.965,1.228,1.228,0,0,0,.2-.018l6.9-1.211a1.166,1.166,0,0,0,.946-1.352l-1.217-6.9a1.168,1.168,0,0,0-1.352-.952Zm-4.533,7.912-.817-4.6,4.6-.817.817,4.6Z" transform="translate(7.869 3.304)"/>
        <path id="Trazado_126061" data-name="Trazado 126061" d="M47.555,31.5a1.153,1.153,0,0,0-.872-.193l-6.9,1.217a1.168,1.168,0,0,0-.947,1.352l1.217,6.9a1.168,1.168,0,0,0,1.149.965,1.185,1.185,0,0,0,.2-.018L48.3,40.5a1.168,1.168,0,0,0,.947-1.353l-1.217-6.9a1.168,1.168,0,0,0-.478-.753Zm-5.406,7.721-.817-4.6,4.6-.817.817,4.6Z" transform="translate(6.51 5.246)"/>
        <path id="Trazado_126062" data-name="Trazado 126062" d="M49.628,30.784a1.168,1.168,0,0,0-.946,1.353l1.217,6.9A1.168,1.168,0,0,0,51.047,40a1.108,1.108,0,0,0,.2-.019l6.9-1.217a1.168,1.168,0,0,0,.947-1.352l-1.217-6.9a1.168,1.168,0,0,0-1.353-.947ZM52,37.482l-.817-4.6,4.6-.817.817,4.6Z" transform="translate(8.161 4.955)"/>
        <path id="Trazado_126063" data-name="Trazado 126063" d="M8.364,32.87a1.168,1.168,0,0,0-1.352.947l-.817,4.6a1.168,1.168,0,0,0,.947,1.352l13.8,2.433a1.087,1.087,0,0,0,.2.019,1.168,1.168,0,0,0,1.149-.965l.817-4.6a1.168,1.168,0,0,0-.947-1.352ZM20.2,39.7,8.7,37.671l.406-2.3,11.5,2.028Z" transform="translate(1.036 5.509)"/>
        <path id="Trazado_126064" data-name="Trazado 126064" d="M23.686,33.377l.81-4.6a1.168,1.168,0,0,0-.946-1.352l-13.8-2.432a1.168,1.168,0,0,0-1.352.947l-.81,4.6a1.168,1.168,0,0,0,.951,1.357l13.8,2.429a1.077,1.077,0,0,0,.2.019A1.168,1.168,0,0,0,23.686,33.377Zm-2.1-1.555L10.091,29.792l.405-2.3L22,29.52Z" transform="translate(1.269 4.188)"/>
        <path id="Trazado_126065" data-name="Trazado 126065" d="M25.077,25.5l.81-4.6a1.168,1.168,0,0,0-.946-1.353l-13.8-2.433a1.168,1.168,0,0,0-1.352.947l-.817,4.6a1.168,1.168,0,0,0,.946,1.353l13.8,2.43a1.168,1.168,0,0,0,1.352-.947Zm-2.1-1.555-11.5-2.028.406-2.3,11.5,2.028Z" transform="translate(1.502 2.867)"/>
        <path id="Trazado_126066" data-name="Trazado 126066" d="M74.342,50.853a1.142,1.142,0,0,0-.748-.273L66.181,8.543A3.51,3.51,0,0,0,62.121,5.7l-6.9,1.217a1.168,1.168,0,0,0-.838.621l-2.639,5.208a1.168,1.168,0,0,0-.107.731l.817,4.6a1.168,1.168,0,1,0,2.3-.406l-.744-4.216,2.2-4.339L62.535,8a1.168,1.168,0,0,1,1.353.947l7.376,41.869-8.138.934-.807-4.58a1.168,1.168,0,0,0-.48-.754,1.156,1.156,0,0,0-.872-.193l-6.9,1.212a1.168,1.168,0,0,0-.947,1.352l.71,4.02-8.138.934L40.33,23.315,45.749,19.3l3.333-.11a1.168,1.168,0,0,0-.036-2.335h-.039l-3.7.117a1.148,1.148,0,0,0-.659.234l-6.29,4.671a1.168,1.168,0,0,0-.454,1.14L43.369,54,32.563,55.238A1.168,1.168,0,0,0,31.528,56.4v3.5a1.168,1.168,0,0,0,.342.825l.826.826v2.536l-1.168,1.168V63.4a1.168,1.168,0,0,0-.342-.825l-3.161-3.161V57.563a1.168,1.168,0,0,0-.342-.825L26.515,55.57a1.057,1.057,0,0,0-.117-.084L32.17,22.753a1.168,1.168,0,0,0-2.3-.405L24.1,55.071l-5.831-.556.808-4.581a1.168,1.168,0,0,0-.947-1.352l-6.9-1.217a1.168,1.168,0,0,0-1.352.946L8.94,53.628l-5.833-.556L11.018,8.2a1.182,1.182,0,0,1,1.359-.948l5.039.89L18.7,12.455a1.2,1.2,0,0,0,.162.336l3.79,5.411a1.168,1.168,0,1,0,1.913-1.338L20.885,11.61,19.443,6.784a1.168,1.168,0,0,0-.917-.817L12.776,4.951A3.512,3.512,0,0,0,8.719,7.794L.751,52.981a1.15,1.15,0,0,0-.369.215A1.168,1.168,0,0,0,0,54.06V72.743a1.168,1.168,0,0,0,1.168,1.168h72.4a1.168,1.168,0,0,0,1.168-1.168V51.725a1.168,1.168,0,0,0-.39-.871Zm-14.12-2.136.584,3.291-4.65.531-.53-3.01ZM11.971,49.867l4.6.817-.636,3.62-4.671-.444Zm60.426,7.7H67.726a1.168,1.168,0,0,0-.825.342L64.907,59.9h-3.02a1.168,1.168,0,0,0,0,2.335h3.5a1.168,1.168,0,0,0,.825-.342L68.21,59.9H72.4V71.575H57.217V69.723L59.21,67.73a1.168,1.168,0,1,0-1.651-1.651l-1.51,1.51-1.168-1.168V63.4a1.168,1.168,0,1,0-2.335,0v2.335H51.378a1.168,1.168,0,1,0,0,2.335H53.23l1.651,1.651v1.852H2.335V55.344l7.341.7.007.011L13.529,59.9,5.013,68.414a1.168,1.168,0,1,0,1.651,1.651l1.894-1.894,5.225,1.045a1.107,1.107,0,0,0,.229.023,1.168,1.168,0,0,0,.234-2.312l-3.7-.74,5.464-5.464a1.168,1.168,0,0,0,0-1.651L13.323,56.4,25.16,57.522l.529.529V59.9a1.168,1.168,0,0,0,.342.825l3.161,3.161v4.187a1.168,1.168,0,0,0,1.993.826l3.5-3.5a1.168,1.168,0,0,0,.342-.826v-3.5a1.168,1.168,0,0,0-.342-.825l-.826-.826V57.438l38.534-4.4Z" transform="translate(0 0.822)"/>
        <path id="Trazado_126067" data-name="Trazado 126067" d="M22.284,17.031a1.176,1.176,0,0,0,.544.71l7.08,4.087a1.171,1.171,0,0,0,1.6-.429l3.5-6.072a3.5,3.5,0,0,0-1.284-4.788L22.6,4.123a1.168,1.168,0,0,0-1.752.941l-.313,5.213a1.136,1.136,0,0,0,.037.371Zm.78-9.938,9.489,5.478a1.168,1.168,0,0,1,.426,1.594L30.06,19.221,24.41,15.96l-1.531-5.73Z" transform="translate(3.443 0.665)"/>
        <path id="Trazado_126068" data-name="Trazado 126068" d="M16.51,4.161A1.168,1.168,0,1,0,18.161,2.51L16.993,1.342a1.168,1.168,0,1,0-1.651,1.651Z" transform="translate(2.515 0.168)"/>
        <path id="Trazado_126069" data-name="Trazado 126069" d="M23.168,3.5a1.168,1.168,0,0,0,.825-.342l1.168-1.168A1.168,1.168,0,1,0,23.51.342L22.342,1.51A1.168,1.168,0,0,0,23.168,3.5Z" transform="translate(3.689 0)"/>
        <path id="Trazado_126070" data-name="Trazado 126070" d="M41.51,11.161A1.168,1.168,0,1,0,43.161,9.51L41.993,8.342a1.168,1.168,0,1,0-1.651,1.651Z" transform="translate(6.708 1.342)"/>
        <path id="Trazado_126071" data-name="Trazado 126071" d="M36.168,14.335h1.168a1.168,1.168,0,0,0,0-2.335H36.168a1.168,1.168,0,0,0,0,2.335Z" transform="translate(5.869 2.012)"/>
        <path id="Trazado_126072" data-name="Trazado 126072" d="M31.51,35.161a1.168,1.168,0,1,0,1.651-1.651l-1.168-1.168a1.168,1.168,0,1,0-1.651,1.651Z" transform="translate(5.031 5.366)"/>
        <path id="Trazado_126073" data-name="Trazado 126073" d="M31.161,27.342a1.168,1.168,0,0,0-1.651,0L28.342,28.51a1.168,1.168,0,1,0,1.651,1.651l1.168-1.168A1.168,1.168,0,0,0,31.161,27.342Z" transform="translate(4.695 4.528)"/>
      </g>
    </g>
  </g>
</svg>
