<svg xmlns="http://www.w3.org/2000/svg" xmlns:xlink="http://www.w3.org/1999/xlink" width="1240" height="306" viewBox="0 0 1240 306">
  <defs>
    <clipPath id="clip-path">
      <rect id="Rectángulo_293760" data-name="Rectángulo 293760" width="1240" height="306" rx="23" transform="translate(180 402)" fill="#fff" stroke="#707070" stroke-width="1"/>
    </clipPath>
    <clipPath id="clip-path-2">
      <rect id="Rectángulo_293887" data-name="Rectángulo 293887" width="598" height="296" rx="12" transform="translate(864.333 70)" fill="#fff" stroke="#707070" stroke-width="1"/>
    </clipPath>
  </defs>
  <g id="Grupo_1000268" data-name="Grupo 1000268" transform="translate(-180 -408)">
    <g id="Grupo_881727" data-name="Grupo 881727">
      <g id="Enmascarar_grupo_56" data-name="Enmascarar grupo 56" transform="translate(0 6)" clip-path="url(#clip-path)">
        <g id="Grupo_108521" data-name="Grupo 108521" transform="translate(41 -1490.551)">
          <g id="Grupo_108486" data-name="Grupo 108486" transform="translate(139 1888.651)">
            <path id="Trazado_121011" data-name="Trazado 121011" d="M0,0H1240V310H0Z" transform="translate(1240 309.997) rotate(180)" fill="#222b5a"/>
          </g>
        </g>
      </g>
      <g id="Enmascarar_grupo_61" data-name="Enmascarar grupo 61" transform="translate(-344.333 338)" opacity="0.124" clip-path="url(#clip-path-2)">
        <g id="Grupo_876759" data-name="Grupo 876759" transform="translate(770.757 69.257)">
          <path id="Trazado_126012" data-name="Trazado 126012" d="M249.243-4.548,271.88,18.089a40.192,40.192,0,0,0,56.841,0L341.689,5.118a7.007,7.007,0,0,1,9.911,0l.129.129a7.225,7.225,0,0,1,.029,10.236l-41.153,41.15a36.661,36.661,0,0,0,0,51.845h0a36.66,36.66,0,0,0,51.845,0L488.043-17.117,515.7-13.349l-45.72,45.72a51.1,51.1,0,0,0,0,72.268h0a51.1,51.1,0,0,0,72.269,0l69.912-69.912a7.778,7.778,0,0,1,11,0h0a7.776,7.776,0,0,1,0,11L519.622,149.258a28.883,28.883,0,0,0,0,40.847h0a28.883,28.883,0,0,0,40.847,0l71.719-71.718a8.33,8.33,0,0,1,11.783,0h0a8.331,8.331,0,0,1,0,11.782l-1.256,1.256a60.989,60.989,0,0,0,0,86.253l53.493,53.493V-39.083" transform="translate(0 -0.186)" fill="#b8e3db"/>
          <circle id="Elipse_5005" data-name="Elipse 5005" cx="16.475" cy="16.475" r="16.475" transform="translate(363.221 74.725)" fill="#31346b"/>
          <g id="Grupo_876758" data-name="Grupo 876758" transform="translate(458.787 134.744)">
            <circle id="Elipse_5006" data-name="Elipse 5006" cx="2.724" cy="2.724" r="2.724" fill="#31346b"/>
            <circle id="Elipse_5007" data-name="Elipse 5007" cx="2.724" cy="2.724" r="2.724" transform="translate(0 14.234)" fill="#31346b"/>
            <circle id="Elipse_5008" data-name="Elipse 5008" cx="2.724" cy="2.724" r="2.724" transform="translate(13.863)" fill="#31346b"/>
            <circle id="Elipse_5009" data-name="Elipse 5009" cx="2.724" cy="2.724" r="2.724" transform="translate(13.863 14.234)" fill="#31346b"/>
          </g>
          <circle id="Elipse_5010" data-name="Elipse 5010" cx="6.729" cy="6.729" r="6.729" transform="translate(590.586 146.912)" fill="#31346b"/>
          <line id="Línea_166" data-name="Línea 166" y1="109.796" x2="109.796" transform="translate(591.677 1.76)" fill="none" stroke="#fff" stroke-linecap="round" stroke-miterlimit="10" stroke-width="3"/>
          <line id="Línea_167" data-name="Línea 167" y1="57.49" x2="57.49" transform="translate(395.475 -13.271)" fill="none" stroke="#fff" stroke-linecap="round" stroke-miterlimit="10" stroke-width="3"/>
          <circle id="Elipse_5011" data-name="Elipse 5011" cx="7.186" cy="7.186" r="7.186" transform="translate(420.628 91.043)" fill="#b8e3db"/>
          <circle id="Elipse_5012" data-name="Elipse 5012" cx="7.186" cy="7.186" r="7.186" transform="translate(649.127 95.38)" fill="#f7f3ea"/>
          <path id="Trazado_126013" data-name="Trazado 126013" d="M622.006-10.442l-52.57,52.571a12.494,12.494,0,0,0,0,17.668h0a12.493,12.493,0,0,0,17.668,0l28.1-28.1a4.3,4.3,0,0,1,6.083,0h0a4.3,4.3,0,0,1,0,6.083l-9.558,9.558a6.758,6.758,0,0,0,0,9.558h0a6.758,6.758,0,0,0,9.558,0l25.76-25.76a18.233,18.233,0,0,1,25.814,0l.706.706,50.109-50.109S622.006-11.022,622.006-10.442Z" transform="translate(-43.271 -3.032)" fill="#cef0e6"/>
          <line id="Línea_168" data-name="Línea 168" x1="101.164" y2="101.164" transform="translate(334.35 -40.444)" fill="none" stroke="#31346b" stroke-linecap="round" stroke-miterlimit="10" stroke-width="3"/>
        </g>
      </g>
    </g>
    <g id="Grupo_876775" data-name="Grupo 876775" transform="translate(-380.736 9.673)">
      <g id="Grupo_876760" data-name="Grupo 876760">
        <path id="Trazado_126014" data-name="Trazado 126014" d="M585.055,409.486h0a4.5,4.5,0,0,1,6.371,0L604.99,423.05a4.505,4.505,0,0,1,0,6.371h0a4.505,4.505,0,0,1-6.371,0l-13.564-13.564A4.506,4.506,0,0,1,585.055,409.486Z" fill="#727997"/>
        <path id="Trazado_126015" data-name="Trazado 126015" d="M604.99,409.486h0a4.505,4.505,0,0,1,0,6.371l-13.564,13.564a4.506,4.506,0,0,1-6.371,0h0a4.506,4.506,0,0,1,0-6.371l13.564-13.564A4.5,4.5,0,0,1,604.99,409.486Z" fill="#727997"/>
      </g>
      <g id="Grupo_876767" data-name="Grupo 876767">
        <g id="Grupo_876763" data-name="Grupo 876763">
          <g id="Grupo_876761" data-name="Grupo 876761">
            <circle id="Elipse_5013" data-name="Elipse 5013" cx="3.156" cy="3.156" r="3.156" transform="translate(653.207 407.914)" fill="#727997"/>
            <path id="Trazado_126016" data-name="Trazado 126016" d="M659.519,427.559a3.156,3.156,0,1,1-3.156-3.156A3.156,3.156,0,0,1,659.519,427.559Z" fill="#727997"/>
            <circle id="Elipse_5014" data-name="Elipse 5014" cx="3.156" cy="3.156" r="3.156" transform="translate(669.266 407.914)" fill="#727997"/>
            <path id="Trazado_126017" data-name="Trazado 126017" d="M675.577,427.559a3.156,3.156,0,1,1-3.156-3.156A3.156,3.156,0,0,1,675.577,427.559Z" fill="#727997"/>
          </g>
          <g id="Grupo_876762" data-name="Grupo 876762">
            <circle id="Elipse_5015" data-name="Elipse 5015" cx="3.156" cy="3.156" r="3.156" transform="translate(620.7 407.914)" fill="#727997"/>
            <path id="Trazado_126018" data-name="Trazado 126018" d="M627.012,427.559a3.156,3.156,0,1,1-3.156-3.156A3.156,3.156,0,0,1,627.012,427.559Z" fill="#727997"/>
            <circle id="Elipse_5016" data-name="Elipse 5016" cx="3.156" cy="3.156" r="3.156" transform="translate(636.759 407.914)" fill="#727997"/>
            <path id="Trazado_126019" data-name="Trazado 126019" d="M643.071,427.559a3.156,3.156,0,1,1-3.156-3.156A3.156,3.156,0,0,1,643.071,427.559Z" fill="#727997"/>
          </g>
        </g>
        <g id="Grupo_876766" data-name="Grupo 876766">
          <g id="Grupo_876764" data-name="Grupo 876764">
            <circle id="Elipse_5017" data-name="Elipse 5017" cx="3.156" cy="3.156" r="3.156" transform="translate(718.158 407.914)" fill="#727997"/>
            <path id="Trazado_126020" data-name="Trazado 126020" d="M724.47,427.559a3.156,3.156,0,1,1-3.156-3.156A3.156,3.156,0,0,1,724.47,427.559Z" fill="#727997"/>
            <path id="Trazado_126021" data-name="Trazado 126021" d="M740.529,411.07a3.156,3.156,0,1,1-3.156-3.156A3.156,3.156,0,0,1,740.529,411.07Z" fill="#727997"/>
            <path id="Trazado_126022" data-name="Trazado 126022" d="M740.529,427.559a3.156,3.156,0,1,1-3.156-3.156A3.156,3.156,0,0,1,740.529,427.559Z" fill="#727997"/>
          </g>
          <g id="Grupo_876765" data-name="Grupo 876765">
            <circle id="Elipse_5018" data-name="Elipse 5018" cx="3.156" cy="3.156" r="3.156" transform="translate(685.652 407.914)" fill="#727997"/>
            <path id="Trazado_126023" data-name="Trazado 126023" d="M691.964,427.559a3.156,3.156,0,1,1-3.156-3.156A3.156,3.156,0,0,1,691.964,427.559Z" fill="#727997"/>
            <circle id="Elipse_5019" data-name="Elipse 5019" cx="3.156" cy="3.156" r="3.156" transform="translate(701.71 407.914)" fill="#727997"/>
            <path id="Trazado_126024" data-name="Trazado 126024" d="M708.022,427.559a3.156,3.156,0,1,1-3.156-3.156A3.156,3.156,0,0,1,708.022,427.559Z" fill="#727997"/>
          </g>
        </g>
      </g>
    </g>
  </g>
</svg>
