<svg xmlns="http://www.w3.org/2000/svg" width="110" height="110" viewBox="0 0 110 110">
  <g id="Grupo_1000271" data-name="Grupo 1000271" transform="translate(-231 -7167)">
    <g id="Grupo_1000166" data-name="Grupo 1000166" transform="translate(231 7167)">
      <g id="Elipse_5477" data-name="Elipse 5477" transform="translate(0 0)" fill="#fff" stroke="#222b5a" stroke-width="3">
        <ellipse cx="55" cy="55" rx="55" ry="55" stroke="none"/>
        <ellipse cx="55" cy="55" rx="53.5" ry="53.5" fill="none"/>
      </g>
      <g id="paciente" transform="translate(18.348 17.991)">
        <path id="Trazado_126122" data-name="Trazado 126122" d="M228.969,33.234V71.472h-7.4v-.814a4.945,4.945,0,0,0-4.046-4.86L208,64.071v-3.7a20.882,20.882,0,0,0,9.35-2.208l.518-.259,1.7,1.7a2.615,2.615,0,0,0,4.465-1.85V32h3.7a1.237,1.237,0,0,1,1.233,1.233Zm0,0" transform="translate(-175.929 -27.066)" fill="#f1b62b"/>
        <path id="Trazado_126123" data-name="Trazado 126123" d="M28.969,60.37v3.7L19.446,65.8a4.945,4.945,0,0,0-4.046,4.86v.814H8V33.233A1.237,1.237,0,0,1,9.233,32h3.7V57.755a2.617,2.617,0,0,0,4.465,1.85l1.7-1.7.518.259a20.882,20.882,0,0,0,9.35,2.208Zm0,0" transform="translate(-6.767 -27.066)" fill="#f1b62b"/>
        <path id="Trazado_126124" data-name="Trazado 126124" d="M52.405,288v11.1a2.474,2.474,0,0,1-2.467,2.467H39.454a3.084,3.084,0,1,1,0-6.167h6.784V288H21.568v7.4h6.784a3.084,3.084,0,1,1,0,6.167H17.868A2.474,2.474,0,0,1,15.4,299.1V288H8v30.837H59.806V288Zm0,0" transform="translate(-6.767 -243.595)" fill="#222b5a"/>
        <path id="Trazado_126125" data-name="Trazado 126125" d="M198.167,336v6.167h-3.084a3.084,3.084,0,1,1,0-6.167Zm0,0" transform="translate(-162.396 -284.194)" fill="#5cd6b3"/>
        <path id="Trazado_126126" data-name="Trazado 126126" d="M93,247.4v11.1a2.474,2.474,0,0,1-2.467,2.467h-7.4V254.8h3.7v-7.4H62.167v7.4h6.784a3.084,3.084,0,1,1,0,6.167H58.467A2.474,2.474,0,0,1,56,258.5V246.587a4.945,4.945,0,0,1,4.046-4.86L69.568,240s1.233,2.467,4.934,2.467S79.436,240,79.436,240l9.523,1.727A4.945,4.945,0,0,1,93,246.587Zm0,0" transform="translate(-47.366 -202.996)" fill="#179587"/>
        <path id="Trazado_126127" data-name="Trazado 126127" d="M144,219.294v-3.7l.037-.074a9.685,9.685,0,0,0,4.9,1.308,9.814,9.814,0,0,0,4.9-1.308l.037.074v3.7s-1.233,2.467-4.934,2.467S144,219.294,144,219.294Zm0,0" transform="translate(-121.797 -182.29)" fill="#f0d0b4"/>
        <path id="Trazado_126128" data-name="Trazado 126128" d="M70.763,32.67a10.185,10.185,0,0,0,.074-1.233V21.1a3.221,3.221,0,0,0-1.789-2.887,3.388,3.388,0,0,1-1.135-.95l-.53-.715A9.048,9.048,0,0,0,51.1,21.976v9.461a10.185,10.185,0,0,0,.074,1.233A9.839,9.839,0,0,0,56.072,40l-.037.074a20.882,20.882,0,0,1-9.35-2.208l-.518-.259-1.7,1.7A2.617,2.617,0,0,1,40,37.456V10.615a2.617,2.617,0,0,1,4.465-1.85l1.7,1.7A23.283,23.283,0,0,1,56.616,8h8.708a23.283,23.283,0,0,1,10.448,2.467l1.7-1.7a2.617,2.617,0,0,1,4.465,1.85v26.84a2.617,2.617,0,0,1-4.465,1.85l-1.7-1.7-.518.259a20.882,20.882,0,0,1-9.35,2.208L65.867,40a9.839,9.839,0,0,0,4.9-7.327Zm0,0" transform="translate(-33.833 -6.767)" fill="#eecb7a"/>
        <path id="Trazado_126129" data-name="Trazado 126129" d="M131.736,48.166v1.7H112v-.826A9.038,9.038,0,0,1,121.042,40a9.125,9.125,0,0,1,7.241,3.614l.53.715a3.389,3.389,0,0,0,1.135.95,3.221,3.221,0,0,1,1.789,2.887Zm0,0" transform="translate(-94.731 -33.833)" fill="#b27946"/>
        <path id="Trazado_126130" data-name="Trazado 126130" d="M112.48,168h19.588a9.892,9.892,0,0,1-9.794,8.634,9.686,9.686,0,0,1-4.9-1.308A9.839,9.839,0,0,1,112.48,168Zm0,0" transform="translate(-95.137 -142.097)" fill="#e6e9ed"/>
        <path id="Trazado_126131" data-name="Trazado 126131" d="M131.736,104v8.634a10.181,10.181,0,0,1-.074,1.233H112.074a10.184,10.184,0,0,1-.074-1.233V104Zm0,0" transform="translate(-94.731 -87.965)" fill="#f0d0b4"/>
        <path id="Trazado_126132" data-name="Trazado 126132" d="M390.8,8H378.467A2.474,2.474,0,0,0,376,10.467V28.883a2.428,2.428,0,0,0,.382,1.32,2.5,2.5,0,0,0,.716.728l5.069,4.206V40.07H387.1V35.137l5.069-4.206a2.5,2.5,0,0,0,.716-.728,2.428,2.428,0,0,0,.382-1.32V10.467A2.474,2.474,0,0,0,390.8,8Zm0,0" transform="translate(-318.026 -6.767)" fill="#ee4e5d"/>
        <path id="Trazado_126133" data-name="Trazado 126133" d="M200,128h2.467v2.467H200Zm0,0" transform="translate(-169.163 -108.264)"/>
        <path id="Trazado_126134" data-name="Trazado 126134" d="M136,128h2.467v2.467H136Zm0,0" transform="translate(-115.031 -108.264)"/>
        <path id="Trazado_126135" data-name="Trazado 126135" d="M424,264h2.467v2.467H424Zm0,0" transform="translate(-358.625 -223.295)"/>
        <path id="Trazado_126136" data-name="Trazado 126136" d="M424,296h2.467v2.467H424Zm0,0" transform="translate(-358.625 -250.361)"/>
        <path id="Trazado_126137" data-name="Trazado 126137" d="M65.374,60.441a1.235,1.235,0,0,1-1.233,1.233H54.273V6.167A2.469,2.469,0,0,0,51.806,3.7H49.324a3.841,3.841,0,0,0-6.557-2.573L41.683,2.212A24.748,24.748,0,0,0,31.488,0h-8.7A24.748,24.748,0,0,0,12.589,2.212L11.5,1.127A3.84,3.84,0,0,0,4.949,3.7H2.467A2.469,2.469,0,0,0,0,6.167V76.476H54.273V64.141h9.868a3.705,3.705,0,0,0,3.7-3.7V50.573H65.374ZM51.806,61.674H38.238A1.235,1.235,0,0,1,37,60.441V59.207h6.167a3.705,3.705,0,0,0,3.7-3.7V45.639h4.934ZM37,53.04h3.7V43.172H13.568V53.04h8.018a1.85,1.85,0,1,1,0,3.7H11.1a1.235,1.235,0,0,1-1.233-1.233V43.589a3.7,3.7,0,0,1,3.038-3.641l8.747-1.59A6.869,6.869,0,0,0,27.137,40.7a6.869,6.869,0,0,0,5.484-2.347l8.747,1.59a3.7,3.7,0,0,1,3.038,3.641V55.507a1.235,1.235,0,0,1-1.233,1.233H37Zm-2.467,3.7h-1.85a1.85,1.85,0,1,1,0-3.7h1.85ZM35.771,14.8H18.523a7.8,7.8,0,0,1,14.039-4.276l.531.706a4.5,4.5,0,0,0,1.574,1.314,1.984,1.984,0,0,1,1.1,1.785ZM18.5,17.269H35.771v7.4H18.5Zm16.905,9.868a8.629,8.629,0,0,1-16.541,0ZM23.436,35.123a10.9,10.9,0,0,0,7.4,0v1.518a4.348,4.348,0,0,1-3.7,1.6,4.348,4.348,0,0,1-3.7-1.6Zm28.37,8.048H46.836a6.149,6.149,0,0,0-5.027-5.651l-8.5-1.545V34.5a22.279,22.279,0,0,0,8.389-2.166l1.074,1.074a3.851,3.851,0,0,0,6.572-2.724V6.167h2.467ZM7.4,3.85a1.383,1.383,0,0,1,2.361-.978l2.33,2.33.8-.4a22.224,22.224,0,0,1,9.9-2.337h8.7a22.228,22.228,0,0,1,9.9,2.337l.8.4,2.33-2.33a1.382,1.382,0,0,1,2.36.978V30.688a1.383,1.383,0,0,1-2.361.978l-2.33-2.33-1.315.657a19.672,19.672,0,0,1-5.141,1.7,11.044,11.044,0,0,0,2.513-7.023V14.331a4.441,4.441,0,0,0-2.467-3.992,1.98,1.98,0,0,1-.7-.587l-.531-.706a10.279,10.279,0,0,0-18.5,6.167V24.67a11.044,11.044,0,0,0,2.514,7.024,19.658,19.658,0,0,1-5.141-1.7l-1.315-.657-2.33,2.33a1.407,1.407,0,0,1-.979.4A1.384,1.384,0,0,1,7.4,30.688ZM2.467,6.167H4.934v24.52a3.85,3.85,0,0,0,6.572,2.722l1.074-1.074A22.279,22.279,0,0,0,20.969,34.5v1.473l-8.5,1.545a6.152,6.152,0,0,0-5.027,5.652H2.467ZM51.806,74.009H2.467V45.639H7.4v9.868a3.705,3.705,0,0,0,3.7,3.7H21.586a4.317,4.317,0,0,0,0-8.634H16.035V45.639h22.2v4.934H32.687a4.317,4.317,0,1,0,0,8.634h1.85v1.233a3.705,3.705,0,0,0,3.7,3.7H51.806Zm0,0" transform="translate(0 0)"/>
        <path id="Trazado_126138" data-name="Trazado 126138" d="M384.035,0H371.7A3.705,3.705,0,0,0,368,3.7V22.116a3.69,3.69,0,0,0,1.59,3.039l4.577,3.794v5.587h2.467v3.7H379.1v-3.7h2.467V28.95l4.577-3.794a3.69,3.69,0,0,0,1.59-3.039V3.7a3.705,3.705,0,0,0-3.7-3.7ZM370.467,3.7A1.235,1.235,0,0,1,371.7,2.467h12.335A1.235,1.235,0,0,1,385.269,3.7V22.116c0,.03-.008.058-.011.086H379.1V24.67h3.772l-2.983,2.467h-4.046l-2.977-2.467h3.766V22.2h-6.157c0-.03-.011-.057-.011-.086Zm6.167,28.37V29.6H379.1v2.467Zm0,0" transform="translate(-311.26 0)"/>
        <path id="Trazado_126139" data-name="Trazado 126139" d="M410.467,71.4h2.467V68.934H415.4V66.467h-2.467V64h-2.467v2.467H408v2.467h2.467Zm0,0" transform="translate(-345.092 -54.132)"/>
      </g>
    </g>
  </g>
</svg>
