<svg xmlns="http://www.w3.org/2000/svg" width="115.771" height="115.771" viewBox="0 0 115.771 115.771">
  <g id="Grupo_1000270" data-name="Grupo 1000270" transform="translate(-813.724 -9367.5)">
    <g id="Elipse_5589" data-name="Elipse 5589" transform="translate(813.724 9367.5)" fill="#fff" stroke="#ee4e5d" stroke-width="3">
      <circle cx="57.885" cy="57.885" r="57.885" stroke="none"/>
      <circle cx="57.885" cy="57.885" r="56.385" fill="none"/>
    </g>
    <g id="capacidad" transform="translate(837.706 9390.528)">
      <g id="Grupo_881727" data-name="Grupo 881727" transform="translate(1.089 1.089)">
        <g id="Grupo_881721" data-name="Grupo 881721" transform="translate(39.06 58.65)">
          <path id="Trazado_126631" data-name="Trazado 126631" d="M317.753,438.75h20.181a1.2,1.2,0,0,1,1.193,1.193v6.5a1.2,1.2,0,0,1-1.193,1.193H317.753a1.2,1.2,0,0,1-1.193-1.193v-6.5A1.2,1.2,0,0,1,317.753,438.75Z" transform="translate(-316.56 -438.75)" fill="#afafaf" fill-rule="evenodd"/>
          <path id="Trazado_126632" data-name="Trazado 126632" d="M337.766,438.75h.168a1.2,1.2,0,0,1,1.193,1.193v6.5a1.2,1.2,0,0,1-1.193,1.193H317.753a1.2,1.2,0,0,1-1.193-1.193v-.168h20.013a1.2,1.2,0,0,0,1.193-1.193Z" transform="translate(-316.56 -438.75)" fill="#afafaf" fill-rule="evenodd"/>
        </g>
        <g id="Grupo_881722" data-name="Grupo 881722" transform="translate(39.06 43.988)">
          <path id="Trazado_126633" data-name="Trazado 126633" d="M317.753,331.063h20.181a1.2,1.2,0,0,1,1.193,1.193v6.5a1.2,1.2,0,0,1-1.193,1.193H317.753a1.2,1.2,0,0,1-1.193-1.193v-6.5A1.2,1.2,0,0,1,317.753,331.063Z" transform="translate(-316.56 -331.063)" fill="#ee4e5d" fill-rule="evenodd"/>
          <path id="Trazado_126634" data-name="Trazado 126634" d="M337.766,331.063h.168a1.2,1.2,0,0,1,1.193,1.193v6.5a1.2,1.2,0,0,1-1.193,1.193H317.753a1.2,1.2,0,0,1-1.193-1.193v-.168h20.013a1.2,1.2,0,0,0,1.193-1.193Z" transform="translate(-316.56 -331.063)" fill="#ee4e5d" fill-rule="evenodd"/>
        </g>
        <g id="Grupo_881723" data-name="Grupo 881723" transform="translate(39.06 29.325)">
          <path id="Trazado_126635" data-name="Trazado 126635" d="M317.753,223.376h20.181a1.2,1.2,0,0,1,1.193,1.193v6.5a1.2,1.2,0,0,1-1.193,1.193H317.753a1.2,1.2,0,0,1-1.193-1.193v-6.5A1.2,1.2,0,0,1,317.753,223.376Z" transform="translate(-316.56 -223.376)" fill="#222b5a" fill-rule="evenodd"/>
          <path id="Trazado_126636" data-name="Trazado 126636" d="M337.766,223.376h.168a1.2,1.2,0,0,1,1.193,1.193v6.5a1.2,1.2,0,0,1-1.193,1.193H317.753a1.2,1.2,0,0,1-1.193-1.193V230.9h20.013a1.2,1.2,0,0,0,1.193-1.193Z" transform="translate(-316.56 -223.376)" fill="#222b5a" fill-rule="evenodd"/>
        </g>
        <g id="Grupo_881724" data-name="Grupo 881724" transform="translate(39.06 14.663)">
          <path id="Trazado_126637" data-name="Trazado 126637" d="M317.753,115.688h20.181a1.2,1.2,0,0,1,1.193,1.193v6.5a1.2,1.2,0,0,1-1.193,1.193H317.753a1.2,1.2,0,0,1-1.193-1.193v-6.5A1.2,1.2,0,0,1,317.753,115.688Z" transform="translate(-316.56 -115.688)" fill="#f1b62b" fill-rule="evenodd"/>
          <path id="Trazado_126638" data-name="Trazado 126638" d="M337.766,115.688h.168a1.2,1.2,0,0,1,1.193,1.193v6.5a1.2,1.2,0,0,1-1.193,1.193H317.753a1.2,1.2,0,0,1-1.193-1.193v-.168h20.013a1.2,1.2,0,0,0,1.193-1.193Z" transform="translate(-316.56 -115.688)" fill="#f1b62b" fill-rule="evenodd"/>
        </g>
        <g id="Grupo_881725" data-name="Grupo 881725" transform="translate(39.06)">
          <path id="Trazado_126639" data-name="Trazado 126639" d="M317.753,8h20.181a1.2,1.2,0,0,1,1.193,1.193v6.5a1.2,1.2,0,0,1-1.193,1.193H317.753a1.2,1.2,0,0,1-1.193-1.193v-6.5A1.2,1.2,0,0,1,317.753,8Z" transform="translate(-316.56 -8)" fill="#179587" fill-rule="evenodd"/>
          <path id="Trazado_126640" data-name="Trazado 126640" d="M337.766,8h.168a1.2,1.2,0,0,1,1.193,1.193v6.5a1.2,1.2,0,0,1-1.193,1.193H317.753a1.2,1.2,0,0,1-1.193-1.193v-.168h20.013a1.2,1.2,0,0,0,1.193-1.193Z" transform="translate(-316.56 -8)" fill="#179587" fill-rule="evenodd"/>
        </g>
        <g id="Grupo_881726" data-name="Grupo 881726" transform="translate(0 20.767)">
          <path id="Trazado_126641" data-name="Trazado 126641" d="M75.535,160.52c2.538,0,4.6,1.446,4.6,4.782s-2.057,6.04-4.6,6.04-4.6-2.7-4.6-6.04S73,160.52,75.535,160.52Z" transform="translate(-65.323 -160.52)" fill="#ffece3" fill-rule="evenodd"/>
          <path id="Trazado_126642" data-name="Trazado 126642" d="M100.371,160.52c2.538,0,4.6,1.446,4.6,4.782s-2.057,6.04-4.6,6.04a3.554,3.554,0,0,1-.681-.066c2.215-.432,3.915-2.942,3.915-5.974s-1.7-4.5-3.915-4.746A6.246,6.246,0,0,1,100.371,160.52Z" transform="translate(-90.159 -160.52)" fill="#ffddce" fill-rule="evenodd"/>
          <path id="Trazado_126643" data-name="Trazado 126643" d="M31.153,261.678h17.5a1.466,1.466,0,0,0,1.463-1.463V252.4c0-2.272-2.024-3.563-4.327-4.134a23.652,23.652,0,0,0-11.77,0c-2.3.591-4.327,1.86-4.327,4.134v7.814a1.466,1.466,0,0,0,1.463,1.463Z" transform="translate(-29.69 -235.677)" fill="#179587" fill-rule="evenodd"/>
          <path id="Trazado_126644" data-name="Trazado 126644" d="M107.431,261.679h1.362a1.466,1.466,0,0,0,1.463-1.463V252.4c0-2.272-2.024-3.563-4.327-4.134a24.4,24.4,0,0,0-6.617-.734,24.8,24.8,0,0,1,5.256.734c2.3.571,4.327,1.862,4.327,4.134v7.814A1.466,1.466,0,0,1,107.431,261.679Z" transform="translate(-89.832 -235.678)" fill="#61a2f9" fill-rule="evenodd"/>
        </g>
      </g>
      <path id="Trazado_126645" data-name="Trazado 126645" d="M23.87,46.394V38.579c0-1.8,1.909-2.668,3.509-3.079a22.262,22.262,0,0,1,5.562-.705,23.545,23.545,0,0,1,5.674.707c1.307.324,3.5,1.156,3.5,3.077v7.814a.379.379,0,0,1-.373.373H39.654V40.712a1.089,1.089,0,1,0-2.179,0v6.055H28.511V40.712a1.089,1.089,0,1,0-2.179,0v6.055H24.243a.379.379,0,0,1-.373-.373Zm9.123-23.449c1.31,0,3.506.479,3.506,3.692,0,2.683-1.605,4.951-3.506,4.951s-3.507-2.268-3.507-4.951C29.486,23.424,31.683,22.945,32.993,22.945Zm8.749,26a2.556,2.556,0,0,0,2.552-2.551V38.579c0-2.487-1.879-4.378-5.154-5.192a26.62,26.62,0,0,0-3.282-.6,7.616,7.616,0,0,0,2.819-6.153c0-3.621-2.178-5.871-5.684-5.871s-5.685,2.25-5.685,5.871a7.623,7.623,0,0,0,2.808,6.146,24.489,24.489,0,0,0-3.279.608c-3.318.853-5.145,2.7-5.145,5.189v7.814a2.555,2.555,0,0,0,2.551,2.551ZM80.035,64.182a1.091,1.091,0,0,1-1.089,1.089H67.3a1.089,1.089,0,0,1,0-2.179H78.946A1.09,1.09,0,0,1,80.035,64.182Zm0-14.663a1.09,1.09,0,0,1-1.089,1.089H67.3a1.089,1.089,0,0,1,0-2.178H78.946A1.09,1.09,0,0,1,80.035,49.518Zm0-14.663a1.09,1.09,0,0,1-1.089,1.089H67.3a1.089,1.089,0,0,1,0-2.179H78.946A1.09,1.09,0,0,1,80.035,34.856Zm0-14.663a1.09,1.09,0,0,1-1.089,1.089H67.3a1.089,1.089,0,0,1,0-2.178H78.946A1.09,1.09,0,0,1,80.035,20.193Zm0-14.663A1.09,1.09,0,0,1,78.946,6.62H67.3a1.089,1.089,0,0,1,0-2.178H78.946A1.09,1.09,0,0,1,80.035,5.53Zm3.284,61.9v-6.5a.109.109,0,0,0-.105-.105H63.035a.108.108,0,0,0-.1.105v6.5a.108.108,0,0,0,.1.1h20.18A.109.109,0,0,0,83.32,67.429Zm-.105-8.779H63.034a2.286,2.286,0,0,0-2.284,2.284v2.159H34.082V51.956a1.089,1.089,0,1,0-2.178,0V64.182a1.09,1.09,0,0,0,1.089,1.089H60.751v2.158a2.286,2.286,0,0,0,2.284,2.284h20.18A2.286,2.286,0,0,0,85.5,67.429v-6.5a2.286,2.286,0,0,0-2.284-2.284Zm.105-5.882v-6.5a.11.11,0,0,0-.105-.1H63.035a.109.109,0,0,0-.1.1v6.5a.108.108,0,0,0,.1.1h20.18A.109.109,0,0,0,83.32,52.767Zm-.105-8.781H63.034a2.286,2.286,0,0,0-2.284,2.284v2.16H46.871a1.089,1.089,0,1,0,0,2.178h13.88v2.16a2.286,2.286,0,0,0,2.284,2.282h20.18A2.286,2.286,0,0,0,85.5,52.767v-6.5A2.286,2.286,0,0,0,83.214,43.986ZM83.32,38.1v-6.5a.109.109,0,0,0-.105-.1H63.035a.109.109,0,0,0-.1.1v6.5a.109.109,0,0,0,.1.1h20.18A.11.11,0,0,0,83.32,38.1Zm-.105-8.781H63.034a2.286,2.286,0,0,0-2.284,2.283v2.159H46.871a1.089,1.089,0,0,0,0,2.179h13.88V38.1a2.287,2.287,0,0,0,2.284,2.283h20.18A2.286,2.286,0,0,0,85.5,38.1v-6.5a2.286,2.286,0,0,0-2.284-2.283Zm.105-5.882v-6.5a.109.109,0,0,0-.105-.1H63.035a.109.109,0,0,0-.1.1v6.5a.109.109,0,0,0,.1.1h20.18A.109.109,0,0,0,83.32,23.442Zm-.105-8.78A2.286,2.286,0,0,1,85.5,16.945v6.5a2.285,2.285,0,0,1-2.284,2.282H63.034a2.286,2.286,0,0,1-2.284-2.282v-2.16H47.286l-3.373,2.986a1.09,1.09,0,0,1-1.445-1.632l3.682-3.259a1.086,1.086,0,0,1,.721-.274h13.88v-2.16a2.286,2.286,0,0,1,2.284-2.283h20.18Zm.105-5.882v-6.5a.109.109,0,0,0-.105-.1H63.035a.109.109,0,0,0-.1.1v6.5a.109.109,0,0,0,.1.1h20.18A.109.109,0,0,0,83.32,8.779ZM83.214,0H63.034a2.286,2.286,0,0,0-2.284,2.283v2.16H32.993A1.089,1.089,0,0,0,31.9,5.53V17.443a1.089,1.089,0,0,0,2.178,0V6.62H60.751v2.16a2.286,2.286,0,0,0,2.284,2.283h20.18A2.286,2.286,0,0,0,85.5,8.779v-6.5A2.286,2.286,0,0,0,83.214,0Z" transform="translate(-21.692 0.001)" fill-rule="evenodd"/>
    </g>
  </g>
</svg>
