<svg xmlns="http://www.w3.org/2000/svg" width="169.912" height="169.912" viewBox="0 0 169.912 169.912">
  <g id="Grupo_1000278" data-name="Grupo 1000278" transform="translate(-1093 -3888)">
    <g id="Grupo_897620" data-name="Grupo 897620" transform="translate(5 -0.553)">
      <path id="Trazado_647344" data-name="Trazado 647344" d="M84.956,0A84.956,84.956,0,1,1,0,84.956,84.956,84.956,0,0,1,84.956,0Z" transform="translate(1088 3888.553)" fill="#179587"/>
    </g>
    <g id="Grupo_897657" data-name="Grupo 897657" transform="translate(0 4.165)">
      <g id="Grupo_897656" data-name="Grupo 897656" transform="translate(1125 3916.25)">
        <path id="Trazado_647335" data-name="Trazado 647335" d="M1601.317-368.488v22.534s-3.132,1.062,4.8,1.479,95.493,0,95.493,0,2.231-2.529,1.814-11.914.052-16.592.052-16.592-23.648-3.86-29.077-4.278c-1.573-.121-28.193.366-41.62,4.278-3.687,1.074,5.382,4.611,1.856,5.9-5.605,2.055-3.786,5.034-8.969,6.8-1.96.67,2.082,6.056,0,6.495-2.012.424-6.4-9.268-8.351-8.969-1.605.247,4.42-4.518,2.784-4.33-1.464.168-1.352-4.617-2.784-4.451-3.892.451-4.06-.2-4.716,0C1609.461-370.576,1601.317-368.488,1601.317-368.488Z" transform="translate(-1599.689 447.876)" fill="#f1b62b"/>
        <path id="Trazado_647336" data-name="Trazado 647336" d="M1671.978-464.468s1.636,25.107,3.165,25.006,7.109,2.19,7.6,0a10.955,10.955,0,0,0,0-4.3,4.029,4.029,0,0,1,2.816-1.647c1.638,0,23.049-1.487,23.41-2.206s2.837-.557,1.913-3.874-1.133-15.627-2.8-16.676S1671.978-464.468,1671.978-464.468Z" transform="translate(-1651.737 514.358)" fill="#b0c0d2"/>
        <path id="Trazado_647337" data-name="Trazado 647337" d="M1654.454-486.259s-5.586,2.766,1.749,2.971,38.478-4.607,38.478-4.607,5.9-5.416,0-4.789S1654.454-486.259,1654.454-486.259Z" transform="translate(-1637.453 532.19)" fill="#222b5a"/>
        <path id="Trazado_647338" data-name="Trazado 647338" d="M1650.753-604.083l4.324-4.594,19.42,15.452,2.923,14.527-1.13,1.293-34.994,4.84-2.715-14.864Z" transform="translate(-1627.347 616.861)" fill="#f3f9ff"/>
        <path id="Trazado_647339" data-name="Trazado 647339" d="M1866.136-546.988l-11.067,10.173,2.358,3.167-7.026,6.019,2.789,3.66-4.8,4.658,20.255,5.143,3.071-.174-2.445-7.578,3.967-.982-3.132-9.453,3.132-1.293-3.132-11.8Z" transform="translate(-1780.565 571.81)" fill="#ee4e5d"/>
        <path id="Trazado_647340" data-name="Trazado 647340" d="M1875.519-428.351l-2.358,9.532,4.9.39,1.083-9.1Z" transform="translate(-1798.657 485.171)" fill="#937272"/>
        <g id="Grupo_897655" data-name="Grupo 897655" transform="translate(0 0)">
          <g id="Grupo_897654" data-name="Grupo 897654">
            <g id="Grupo_897653" data-name="Grupo 897653">
              <g id="Grupo_897652" data-name="Grupo 897652">
                <path id="Trazado_647341" data-name="Trazado 647341" d="M1690.241-556.682a2.313,2.313,0,0,0-.879-1.547,2.316,2.316,0,0,0-1.72-.473l-13.628,1.718a2.325,2.325,0,0,0-2.017,2.6l1.276,10.127a2.331,2.331,0,0,0,2.306,2.038c.222,0-.695.107,13.921-1.736a2.326,2.326,0,0,0,2.017-2.6Zm-14.009,11.3-1.089-8.643,4.544-.573,1.089,8.643Zm7.6-.957-1.089-8.643,4.543-.573,1.089,8.643Z" transform="translate(-1651.737 580.377)"/>
                <path id="Trazado_647342" data-name="Trazado 647342" d="M1724.115-452.245a2.328,2.328,0,0,0-2.556-1.782l-13.63,1.718a2.329,2.329,0,0,0-2.017,2.6l1.272,10.093a2.329,2.329,0,0,0,2.306,2.035c.24,0,7.33-.905,13.921-1.737a2.324,2.324,0,0,0,2.017-2.6C1724.075-452.664,1724.156-452.065,1724.115-452.245Zm-13.972,11.5-1.084-8.6,4.544-.573,1.084,8.6Zm7.6-.958-1.084-8.6,4.544-.573,1.084,8.6Z" transform="translate(-1676.505 503.936)"/>
                <path id="Trazado_647343" data-name="Trazado 647343" d="M1700.536-572l-22.7-2.116,1.5-6.539,6.75,1.547a2.852,2.852,0,0,0,3.315-3.713l-1.66-4.714a2.845,2.845,0,0,0,3.088-3.871l-2.289-6.5a2.841,2.841,0,0,0,2.673-2.206,2.819,2.819,0,0,0-.135-1.7l-4.011-11.389a4.519,4.519,0,0,0-3.217-3.045,4.521,4.521,0,0,0-4.222,1.34l-8.663,8.6a2.844,2.844,0,0,0-.731,2.8,2.846,2.846,0,0,0,1.406,1.732l-4.985,4.947a2.839,2.839,0,0,0-.73,2.8,2.841,2.841,0,0,0,1.917,1.943l-3.548,3.521a2.843,2.843,0,0,0,1.366,4.786l6.75,1.547-1.71,7.46-6.2-.578c-.237-.022.2-.062-7.294.88l-2.362-18.737.769-.1a4.041,4.041,0,0,0,1.97-7.192,4.013,4.013,0,0,0-2.979-.816l-6.5.819-1.472-11.673a4.028,4.028,0,0,0,4.222-1.411,4.056,4.056,0,0,0-.684-5.674l-9.637-7.59a1.538,1.538,0,0,0-2.16.257,1.538,1.538,0,0,0,.257,2.16l9.637,7.59a.974.974,0,0,1,.163,1.363.953.953,0,0,1-1.342.161c-23.635-18.614-22.24-17.766-23.153-17.652a1.538,1.538,0,0,0-1.029.592c-18.406,24.067-17.093,22.547-17.653,22.621a.97.97,0,0,1-.886-1.551l18.555-24.262a.953.953,0,0,1,1.349-.17l10.2,8.03a1.537,1.537,0,0,0,2.16-.256,1.538,1.538,0,0,0-.257-2.16l-10.2-8.03a4.061,4.061,0,0,0-3-.833,4.057,4.057,0,0,0-2.7,1.551l-18.555,24.262a4.05,4.05,0,0,0,3.731,6.471,4.015,4.015,0,0,0,1.453-.485c1.788,14.185,1.548,13.68,2.247,14.223a1.532,1.532,0,0,0,.69.3,4.034,4.034,0,0,0,4.5,4.532l.769-.1c.014.115,2.882,22.9,2.907,23.008.477,2.111,2.157,3.47,4.871,3.168l4.841-.61,1.141,4.317-7.136,6.066a1.538,1.538,0,0,0-.536,1.3l.3,3.5-5.4-6.643,2.044-3.893a1.538,1.538,0,0,0-.043-1.506l-5.1-8.5a1.538,1.538,0,0,0-1.511-.735l-13.426,1.688a1.539,1.539,0,0,0-1.346,1.527v27.52a4,4,0,0,0,4,4h97a4,4,0,0,0,4-4v-32.446A1.538,1.538,0,0,0,1700.536-572Zm-33.77-14.693,4.619-4.585c10.4,2.383,9.718,2.244,9.967,2.244a1.54,1.54,0,0,0,.342-3.038l-12.567-2.88,5.982-5.937c7.208,1.652,6.715,1.555,6.961,1.555a1.54,1.54,0,0,0,.342-3.038l-8.055-1.846h0l-.917-.21,8.359-8.3a1.523,1.523,0,0,1,1.368-.525,1.523,1.523,0,0,1,1,1.068l3.912,11.109c-1.425-.327-2.283-.709-3.026.123a1.538,1.538,0,0,0-.3,1.535l3.081,8.749-2.12-.486a1.54,1.54,0,0,0-1.795,2.01l2.444,6.939Zm9.572,5.351-1.59,6.938-.956-.089,1.619-7.061Zm-66.5-28.823,14.573-19.056,18.846,14.843,1.8,14.262-33.42,4.213Zm4.329,18.976a.958.958,0,0,1-1.072-.832.958.958,0,0,1,.831-1.072l41.062-5.175a.95.95,0,0,1,.708.194.96.96,0,0,1-.468,1.709l-2.3.289Zm13.437,20.432a1.539,1.539,0,0,0-1.3,1.919l.838,3.17c-4.968.626-5.625.954-5.9-.169l-2.872-22.781,33.42-4.212,2.362,18.736Zm-27.6,6.571,11.085-1.394.85,1.418-11.936,1.488v-1.512Zm98.847-3.4-14.519-1.286a1.536,1.536,0,0,0-1.668,1.4,1.538,1.538,0,0,0,1.4,1.668l14.791,1.311v26.475a.923.923,0,0,1-.922.923h-97a.924.924,0,0,1-.923-.923V-559.57l13.665-1.7,1.556,2.595-2.114,4.026a1.538,1.538,0,0,0,.168,1.685l7.287,8.961c.447.563,1.631,2.057,3.129,1.47.665-.261,1.427-.967,1.279-2.857l-.432-5.056,7.271-6.181a1.539,1.539,0,0,0,.491-1.565l-1.331-5.034,33.5-4.311,14.277,1.265a1.54,1.54,0,0,0,1.668-1.4,1.538,1.538,0,0,0-1.4-1.668l-14.443-1.28c-.249-.022,1.9-.281-34.4,4.391l-.447-1.692,34.65-4.357,34.468,3.213v1.481Z" transform="translate(-1596.931 639.019)"/>
              </g>
            </g>
          </g>
        </g>
      </g>
    </g>
  </g>
</svg>
