<svg xmlns="http://www.w3.org/2000/svg" width="110" height="110" viewBox="0 0 110 110">
  <g id="Grupo_1000275" data-name="Grupo 1000275" transform="translate(-231 -7687)">
    <g id="Grupo_1000168" data-name="Grupo 1000168" transform="translate(231 7687)">
      <g id="Elipse_5481" data-name="Elipse 5481" transform="translate(0 0)" fill="#fff" stroke="#222b5a" stroke-width="3">
        <ellipse cx="55" cy="55" rx="55" ry="55" stroke="none"/>
        <ellipse cx="55" cy="55" rx="53.5" ry="53.5" fill="none"/>
      </g>
      <g id="Grupo_881748" data-name="Grupo 881748" transform="translate(20.611 16.005)">
        <path id="Trazado_126753" data-name="Trazado 126753" d="M1578.09-1009.017h8.309a1.085,1.085,0,0,0,1.082-1.089v-20.328a.406.406,0,0,0-.193-.346l-9.668-5.91a.4.4,0,0,0-.611.346v26.238a1.085,1.085,0,0,0,1.082,1.089Z" transform="translate(-1537.693 1070.823)" fill="#222b5a"/>
        <g id="Grupo_881735" data-name="Grupo 881735" transform="translate(38.487 33.246)">
          <path id="Trazado_126754" data-name="Trazado 126754" d="M1584.322-1010.263h-8.309a1.916,1.916,0,0,1-1.91-1.917v-26.238a1.234,1.234,0,0,1,.629-1.076,1.231,1.231,0,0,1,1.241.023l9.669,5.91a1.242,1.242,0,0,1,.589,1.053v20.328A1.916,1.916,0,0,1,1584.322-1010.263Zm-8.563-27.4v25.481a.258.258,0,0,0,.254.261h8.309a.258.258,0,0,0,.254-.261v-20.092Z" transform="translate(-1574.103 1039.65)"/>
        </g>
        <path id="Trazado_126755" data-name="Trazado 126755" d="M1526.592-1031.521h8.711a.682.682,0,0,0,.68-.684l-.371-29.938a.4.4,0,0,0-.193-.341l-9.3-5.683a.4.4,0,0,0-.611.345v35.212a1.085,1.085,0,0,0,1.082,1.089Z" transform="translate(-1500.875 1093.327)" fill="#ee4e5d"/>
        <g id="Grupo_881736" data-name="Grupo 881736" transform="translate(23.806 24.273)">
          <path id="Trazado_126756" data-name="Trazado 126756" d="M1533.225-1032.768h-8.711a1.916,1.916,0,0,1-1.91-1.917V-1069.9a1.234,1.234,0,0,1,.63-1.076,1.23,1.23,0,0,1,1.242.024l9.3,5.682a1.224,1.224,0,0,1,.589,1.038l.372,29.938A1.514,1.514,0,0,1,1533.225-1032.768Zm-8.965-36.371v34.454a.258.258,0,0,0,.254.261h8.561l-.367-29.551Zm8.648,5.286h0Z" transform="translate(-1522.604 1071.128)"/>
        </g>
        <path id="Trazado_126757" data-name="Trazado 126757" d="M1475.093-1055.143h8.308a1.085,1.085,0,0,0,1.082-1.089v-38.284a.407.407,0,0,0-.182-.339l-9.668-6.346a.4.4,0,0,0-.622.339v44.63a1.085,1.085,0,0,0,1.082,1.089Z" transform="translate(-1464.057 1116.949)" fill="#179587"/>
        <g id="Grupo_881737" data-name="Grupo 881737" transform="translate(9.126 14.854)">
          <path id="Trazado_126758" data-name="Trazado 126758" d="M1481.324-1056.391h-8.308a1.916,1.916,0,0,1-1.91-1.917v-44.63a1.231,1.231,0,0,1,.646-1.085,1.228,1.228,0,0,1,1.258.054l9.668,6.346a1.232,1.232,0,0,1,.556,1.032v38.284A1.916,1.916,0,0,1,1481.324-1056.391Zm-8.562-45.76v43.844a.258.258,0,0,0,.254.26h8.308a.257.257,0,0,0,.254-.26v-38.056Z" transform="translate(-1471.106 1104.171)"/>
        </g>
        <path id="Trazado_126759" data-name="Trazado 126759" d="M1628.507-1004.865V-987.6a1.085,1.085,0,0,0,1.082,1.089h8.308a1.086,1.086,0,0,0,1.083-1.089v-11.355a.407.407,0,0,0-.193-.346l-9.668-5.909a.4.4,0,0,0-.611.345Z" transform="translate(-1574.511 1048.317)" fill="#ee4e5d"/>
        <g id="Grupo_881738" data-name="Grupo 881738" transform="translate(53.168 42.22)">
          <path id="Trazado_126760" data-name="Trazado 126760" d="M1635.821-987.758h-8.308a1.916,1.916,0,0,1-1.91-1.917v-17.265a1.234,1.234,0,0,1,.63-1.076,1.23,1.23,0,0,1,1.242.024l9.668,5.909a1.242,1.242,0,0,1,.589,1.053v11.355A1.916,1.916,0,0,1,1635.821-987.758Zm-8.562-18.424v16.507a.258.258,0,0,0,.254.26h8.308a.258.258,0,0,0,.254-.26v-11.119Z" transform="translate(-1625.602 1008.172)"/>
        </g>
        <g id="Grupo_881747" data-name="Grupo 881747" transform="translate(0.259 42.22)">
          <path id="Trazado_126761" data-name="Trazado 126761" d="M15,2.312a8.981,8.981,0,1,1-12.684.654A8.982,8.982,0,0,1,15,2.312Z" transform="translate(14.304 1.171) rotate(47)" fill="#f1b62b"/>
          <g id="Grupo_881739" data-name="Grupo 881739" transform="translate(14.345 0) rotate(47)">
            <path id="Trazado_126762" data-name="Trazado 126762" d="M9.8,19.615A9.806,9.806,0,0,1,2.526,3.24,9.809,9.809,0,0,1,16.38,2.526h0A9.805,9.805,0,0,1,9.8,19.615ZM9.82,1.656q-.214,0-.429.011a8.137,8.137,0,1,0,.429-.011Z" transform="translate(0 0)"/>
          </g>
          <path id="Trazado_126763" data-name="Trazado 126763" d="M9.367,3.743a3.365,3.365,0,0,0-4.408.25L2.334,1.626a1.914,1.914,0,0,1,2.381-.1.579.579,0,0,0,.776-.86A3.117,3.117,0,0,0,1.456.833L1.2.6a.579.579,0,0,0-.776.86l.248.224A3.134,3.134,0,0,0,.861,5.8a3.157,3.157,0,0,0,4.118-.226L7.927,8.23A2.177,2.177,0,0,1,5.162,8.4a.579.579,0,1,0-.776.859A3.366,3.366,0,0,0,8.8,9.014l.186.168a.579.579,0,1,0,.776-.86l-.187-.168a3.365,3.365,0,0,0-.2-4.41ZM1.636,4.937a1.943,1.943,0,0,1-.1-2.467L4.107,4.785a1.992,1.992,0,0,1-2.47.152ZM8.7,7.37,5.827,4.776A2.177,2.177,0,0,1,8.591,4.6,2.177,2.177,0,0,1,8.7,7.37Z" transform="translate(13.966 6.738) rotate(47)" fill="#ee4e5d"/>
          <g id="Grupo_881740" data-name="Grupo 881740" transform="translate(13.984 6.351) rotate(47)">
            <path id="Trazado_126764" data-name="Trazado 126764" d="M6.584,10.534a3.113,3.113,0,0,1-2.112-.788A.855.855,0,1,1,5.618,8.476a1.815,1.815,0,0,0,2.134,0L5.238,6.21a3.368,3.368,0,0,1-4.292.07,3.384,3.384,0,0,1-.365-4.27L.507,1.942A.855.855,0,0,1,1.653.672L1.74.751A3.341,3.341,0,0,1,5.946.736.855.855,0,1,1,4.8,2.006a1.536,1.536,0,0,0-1.737-.061L5.239,3.907a3.569,3.569,0,0,1,4.583-.092h0A3.569,3.569,0,0,1,10.2,8.383l.012.011a.855.855,0,1,1-1.146,1.27l-.011-.01A4.1,4.1,0,0,1,6.584,10.534ZM5.045,8.808H5.029a.3.3,0,0,0-.188.527A3.11,3.11,0,0,0,8.886,9.08l.184-.156.365.33a.3.3,0,1,0,.406-.45l-.366-.33.137-.2a3.11,3.11,0,0,0-.161-4.049h0a3.11,3.11,0,0,0-4.045.255l-.184.156L2.164,1.877l.28-.2A2.19,2.19,0,0,1,5.17,1.6.3.3,0,0,0,5.6,1.574a.3.3,0,0,0-.021-.428A2.838,2.838,0,0,0,1.9,1.324l-.183.149-.433-.391a.3.3,0,0,0-.406.45l.428.387-.137.2a2.876,2.876,0,0,0,.148,3.751,2.87,2.87,0,0,0,3.757-.233l.184-.154L8.627,8.524l-.261.2a2.429,2.429,0,0,1-3.118.16A.3.3,0,0,0,5.045,8.808Zm3.988-.735L5.667,5.037l.261-.2a2.429,2.429,0,0,1,3.117-.161,2.43,2.43,0,0,1,.162,3.118Zm-2.49-2.99L8.9,7.207a1.815,1.815,0,0,0-.221-2.123A1.816,1.816,0,0,0,6.542,5.083Zm-3.616.766a1.773,1.773,0,0,1-1.2-.43A2.2,2.2,0,0,1,1.576,2.6l.174-.282L4.812,5.083l-.271.2A2.757,2.757,0,0,1,2.926,5.849ZM1.889,3.189a1.579,1.579,0,0,0,.2,1.82h0a1.607,1.607,0,0,0,1.833.016Z" transform="translate(0 0)"/>
          </g>
        </g>
        <rect id="Rectángulo_294073" data-name="Rectángulo 294073" width="3.994" height="67.898" transform="translate(0 0)"/>
        <rect id="Rectángulo_294074" data-name="Rectángulo 294074" width="3.423" height="68.468" transform="translate(68.468 66.186) rotate(90)"/>
        <path id="Trazado_126765" data-name="Trazado 126765" d="M-260.167-144.5s15.647,13.735,29.208,21.732c12.691,7.824,28.86,13.039,28.86,13.039" transform="translate(270.77 149.965)" fill="none" stroke="#000" stroke-width="3" opacity="0.8"/>
        <path id="Polígono_1" data-name="Polígono 1" d="M2.347,0,4.694,6.128H0Z" transform="translate(72.805 40.251) rotate(114)"/>
      </g>
    </g>
  </g>
</svg>
