<svg xmlns="http://www.w3.org/2000/svg" width="529.672" height="658.848" viewBox="0 0 529.672 658.848">
  <g id="Grupo_1000270" data-name="Grupo 1000270" transform="translate(-915.173 -7072.501)">
    <g id="Grupo_1000178" data-name="Grupo 1000178">
      <g id="Grupo_899409" data-name="Grupo 899409" transform="matrix(0.995, -0.105, 0.105, 0.995, 1273.091, 7432.588)">
        <g id="Grupo_899400" data-name="Grupo 899400" transform="translate(0)">
          <g id="Grupo_899398" data-name="Grupo 899398">
            <path id="Trazado_649205" data-name="Trazado 649205" d="M225.016,397.641l30.744,111.42-37.678,26.867-84.728,20.639-33.59-125.8Z" transform="translate(-99.765 -397.641)" fill="#f5f5f5"/>
          </g>
          <g id="Grupo_899399" data-name="Grupo 899399" transform="translate(118.316 106.43)">
            <path id="Trazado_649206" data-name="Trazado 649206" d="M121.079,424.1l16.365,4.989s-5.161,9.784-13.232,15.424a71.955,71.955,0,0,1-24.448,11.445S117.876,445.427,121.079,424.1Z" transform="translate(-99.765 -424.097)" fill="#ebebeb"/>
          </g>
        </g>
        <g id="Grupo_899402" data-name="Grupo 899402" transform="translate(24.48 44.068)">
          <g id="Grupo_899401" data-name="Grupo 899401">
            <path id="Trazado_649207" data-name="Trazado 649207" d="M108.783,433.745c.052.205,21.418-5.254,47.713-12.2s47.58-12.737,47.524-12.946-21.414,5.25-47.721,12.2S108.727,433.536,108.783,433.745Z" transform="translate(-108.783 -408.596)" fill="#e0e0e0"/>
          </g>
        </g>
        <g id="Grupo_899404" data-name="Grupo 899404" transform="translate(29.433 61.134)">
          <g id="Grupo_899403" data-name="Grupo 899403">
            <path id="Trazado_649208" data-name="Trazado 649208" d="M107.551,437.987c.056.205,21.422-5.254,47.717-12.2s47.576-12.737,47.523-12.946-21.418,5.25-47.721,12.194S107.5,437.778,107.551,437.987Z" transform="translate(-107.551 -412.837)" fill="#e0e0e0"/>
          </g>
        </g>
        <g id="Grupo_899406" data-name="Grupo 899406" transform="translate(32.92 76.501)">
          <g id="Grupo_899405" data-name="Grupo 899405">
            <path id="Trazado_649209" data-name="Trazado 649209" d="M106.685,441.8c.052.209,21.418-5.25,47.717-12.194s47.576-12.741,47.52-12.946-21.414,5.25-47.721,12.194S106.629,441.6,106.685,441.8Z" transform="translate(-106.685 -416.658)" fill="#e0e0e0"/>
          </g>
        </g>
        <g id="Grupo_899408" data-name="Grupo 899408" transform="translate(36.891 91.133)">
          <g id="Grupo_899407" data-name="Grupo 899407">
            <path id="Trazado_649210" data-name="Trazado 649210" d="M105.7,445.444c.056.205,21.418-5.254,47.717-12.194s47.576-12.741,47.52-12.95-21.414,5.254-47.721,12.2S105.642,445.235,105.7,445.444Z" transform="translate(-105.698 -420.295)" fill="#e0e0e0"/>
          </g>
        </g>
      </g>
      <g id="Grupo_1000177" data-name="Grupo 1000177" transform="translate(952.086 7103.82) rotate(-20)">
        <g id="Grupo_899425" data-name="Grupo 899425" transform="translate(0 0)">
          <rect id="Rectángulo_302074" data-name="Rectángulo 302074" width="96.823" height="88.114" rx="8.925" transform="translate(2.582 0) rotate(1.679)" fill="#ebebeb"/>
        </g>
        <g id="Grupo_899426" data-name="Grupo 899426" transform="translate(0.256 28.833)">
          <path id="Trazado_649218" data-name="Trazado 649218" d="M338.446,368.466l32.685-21.931a6.557,6.557,0,0,1,8.57.324l16.1,8.268,22.974-22.463a6.75,6.75,0,0,1,9.777.831l7.505,9.419-.361,38.61a11.051,11.051,0,0,1-11.4,10.941l-75.53-2.387a11.055,11.055,0,0,1-10.695-11.451Z" transform="translate(-338.066 -330.948)" fill="#e0e0e0"/>
        </g>
        <g id="Grupo_899427" data-name="Grupo 899427" transform="translate(28.039 14.873)">
          <circle id="Elipse_5627" data-name="Elipse 5627" cx="9.678" cy="9.678" r="9.678" fill="#e0e0e0"/>
        </g>
      </g>
      <g id="Grupo_899397" data-name="Grupo 899397" transform="translate(1138.302 7164.444)">
        <g id="Grupo_899396" data-name="Grupo 899396" transform="translate(0)">
          <g id="Grupo_899390" data-name="Grupo 899390" transform="translate(128.909 0)">
            <g id="Grupo_899387" data-name="Grupo 899387" transform="translate(0.426 0)">
              <path id="Trazado_649199" data-name="Trazado 649199" d="M179.127,255.093l4.324,118.915-29.239,13.3-6.469,16.76-52.4-21.332,7.174-16.905L92.505,334.616Z" transform="translate(-92.505 -255.093)" fill="#f5f5f5"/>
            </g>
            <g id="Grupo_899389" data-name="Grupo 899389">
              <g id="Grupo_899388" data-name="Grupo 899388">
                <path id="Trazado_649200" data-name="Trazado 649200" d="M179.46,255.093c-2.429,2.217-35.79,32.649-86.877,79.258l-.172.156.07.221c3.174,9.918,6.523,20.38,9.992,31.218l.012-.266c-2.274,5.35-4.707,11.084-7.182,16.9l-.155.364.372.155c8.581,3.493,17.586,7.161,26.748,10.891q13.061,5.313,25.652,10.437l.384.16.147-.384q3.288-8.528,6.462-16.765l-.2.217q15.171-6.908,29.23-13.313l.229-.106-.012-.245c-2.748-69.614-4.564-115.6-4.7-118.9.11,3.292,1.636,49.3,3.947,118.93l.221-.348q-14.036,6.368-29.247,13.276l-.147.065-.061.151q-3.178,8.233-6.474,16.756l.532-.225q-12.558-5.116-25.648-10.45c-9.165-3.726-18.171-7.39-26.752-10.883l.217.519c2.466-5.824,4.9-11.554,7.165-16.908l.057-.135-.045-.135c-3.48-10.834-6.846-21.292-10.032-31.206l-.1.38Z" transform="translate(-92.411 -255.093)" fill="#e0e0e0"/>
              </g>
            </g>
          </g>
          <g id="Grupo_899391" data-name="Grupo 899391" transform="translate(162.904 63.028)">
            <path id="Trazado_649201" data-name="Trazado 649201" d="M99.381,281.11a16.962,16.962,0,0,0,9.321,22.368,17.574,17.574,0,0,0,22.764-9.309,16.957,16.957,0,0,0-9.321-22.368A17.574,17.574,0,0,0,99.381,281.11Z" transform="translate(-98.026 -270.504)" fill="#e0e0e0"/>
          </g>
          <g id="Grupo_899393" data-name="Grupo 899393" transform="translate(180.299)">
            <g id="Grupo_899392" data-name="Grupo 899392" transform="translate(0)">
              <path id="Trazado_649202" data-name="Trazado 649202" d="M129.221,255.093c-.209-.086-8.356,17.787-18.2,39.921s-17.664,40.155-17.456,40.24,8.351-17.783,18.2-39.921S129.425,255.183,129.221,255.093Z" transform="translate(-93.561 -255.093)" fill="#e0e0e0"/>
            </g>
          </g>
          <g id="Grupo_899394" data-name="Grupo 899394" transform="translate(0 145.616)">
            <path id="Trazado_649203" data-name="Trazado 649203" d="M120.224,612.2h0a28.011,28.011,0,0,0,36.22-14.695L279.725,311.515,228.585,290.7,105.427,576.4A27.029,27.029,0,0,0,120.224,612.2Z" transform="translate(-103.205 -290.697)" fill="#e0e0e0"/>
          </g>
          <g id="Grupo_899395" data-name="Grupo 899395" transform="translate(120.467 122.986)">
            <path id="Trazado_649204" data-name="Trazado 649204" d="M100.065,305.794,160.2,330.276l8.755-20.63L108.82,285.164Z" transform="translate(-100.065 -285.164)" fill="#e0e0e0"/>
          </g>
        </g>
      </g>
    </g>
    <g id="Grupo_1000176" data-name="Grupo 1000176">
      <g id="Grupo_898745" data-name="Grupo 898745" transform="translate(576.78 7053.517)">
        <g id="Layer_3" data-name="Layer 3" transform="translate(339.35 103.484)">
          <path id="Trazado_648244" data-name="Trazado 648244" d="M710.564,1102.14c-.2-6.412-.413-12.828-.7-19.24-.583-12.97-1.489-25.939-3.311-38.8-3.051-21.53-11.071-40.691-16.683-61.478a239.8,239.8,0,0,1-5.3-25.029,286.925,286.925,0,0,1-3.344-47.4c.134-15.56,1.261-31.268,6.724-45.976,2.967-8,6.26-18.019,12.759-23.888,1.029-.927,2.855-1.949,3.7-2.818,0-.007,0-.015,0-.022.321-.246.635-.5.932-.768.223-1.439.493-2.872.708-4.328.018-.109.032-.222.047-.331-3.358-.271-7.065,2.156-10.018,3.439-7.036,3.061-14.26,5.675-21.272,8.8-3.227,1.44-6.5,2.95-9.655,4.482-3.077,1.5-5.494,4.016-8.585,5.521-3.455,1.683-6.919,3.347-10.432,4.92-2.655,1.19-5.322,2.366-7.969,3.583a73.718,73.718,0,0,0,7.325,14.56c-.094.329-.188.658-.291.985-2.608,8.293-7.694,15.455-11.165,23.367-.852,1.942-1.565,3.923-2.271,5.891l.007,0c1.59.866,1.656,2.8,2.2,4.478,4.481,13.882-2.866,21.9-4.883,34.891-1.619,10.4,2.271,19.806,1.84,29.96-.279,6.554-3.916,12.165-5.6,18.353a68.172,68.172,0,0,0-1.677,8.437c-3.764,27.105-9.861,54.07-15.168,80.958-1.272,6.441-2.373,13.4-4.036,20.2l.014,0c1.71,20.8,1.931,42.071,1.771,63.09H710.441c.456-9.394.8-18.8.829-28.2C711.314,1127.141,710.966,1114.755,710.564,1102.14Zm-23.016-36.394c-1.5-3.362.475-7.854,4.384-8.126a5.445,5.445,0,0,1,4.42,1.112c3.217,2.514,1.866,6.626-.384,9.292C693.74,1070.673,688.737,1068.4,687.549,1065.746Zm12.093,62.786c-2.231,2.644-7.231.377-8.419-2.279-1.5-3.365.474-7.854,4.38-8.126a5.44,5.44,0,0,1,4.42,1.112C703.242,1121.754,701.888,1125.866,699.641,1128.532Z" transform="translate(-518.992 -597.208)" fill="#179587" stroke="#141936" stroke-width="2"/>
          <path id="Trazado_648245" data-name="Trazado 648245" d="M647.875,399.841a1.734,1.734,0,0,1,.191,2.787,4.3,4.3,0,0,1-3.48.795c-1.732-.236-3.537-.35-5.273-.436-2.05-.1-4.107-.114-6.161-.183-1.491-.053-4.119.228-5.318-.864-1.52-1.389-.22-2.746,1.381-3.081a18.273,18.273,0,0,1,4.425.069c1.056.041,2.131.094,3.2.131,2.278.077,4.56.041,6.837.061C645.076,399.132,646.645,399.063,647.875,399.841Z" transform="translate(-534.391 -303.565)" fill="#f1b62b" stroke="#12263f" stroke-width="1"/>
          <path id="Trazado_648246" data-name="Trazado 648246" d="M617.851,299.628c1.939.122,1.8,2.253.615,3.215-.163.648-1.182.827-1.7,1.218-.783.583-5.053,3.891-5.717,4.6a12.252,12.252,0,0,1-2.017,1.463c-.929.664-4.014,3.015-5,1.19a1.849,1.849,0,0,1,.2-1.736,7.344,7.344,0,0,1,2.918-2.408,9.218,9.218,0,0,0,2.852-2.151c.681-.848,5.02-3.859,5.847-4.527A3.017,3.017,0,0,1,617.851,299.628Z" transform="translate(-518.616 -236.403)" fill="#f1b62b" stroke="#12263f" stroke-width="1"/>
          <path id="Trazado_648247" data-name="Trazado 648247" d="M614.163,481.085a1.735,1.735,0,0,1-1.825,2.115,4.3,4.3,0,0,1-3.036-1.882c-1.064-1.385-2.262-2.738-3.435-4.022-1.385-1.516-2.84-2.971-4.246-4.466-1.023-1.088-3.089-2.734-3.17-4.356-.106-2.058,1.777-2.107,3.146-1.215a18.185,18.185,0,0,1,3.1,3.158c.721.778,1.451,1.569,2.18,2.347,1.565,1.658,3.211,3.235,4.816,4.857A7.92,7.92,0,0,1,614.163,481.085Z" transform="translate(-514.933 -349.631)" fill="#f1b62b" stroke="#12263f" stroke-width="1"/>
          <path id="Trazado_648248" data-name="Trazado 648248" d="M569.437,407.1c.472,2.966-2.946,2.865-5.11,2.738a10.836,10.836,0,0,1,2.563-3.423C567.953,405.492,569.176,405.452,569.437,407.1Z" transform="translate(-491.811 -308.34)" fill="#ffbc3b"/>
          <path id="Trazado_648249" data-name="Trazado 648249" d="M533.448,512.588c0,.09-.306-.045-.473-.1-.318-.1-.652-.224-.958-.35a12.863,12.863,0,0,0-2-.7c-3.517-.831-7.017-2.09-10.456-3.187h-.1c0-.982.049-1.98-.016-2.95-.041-.624-.273-1.329-.3-2l.053,0c0,.326,6.328,2.486,6.919,2.665a40.269,40.269,0,0,1,6.8,2.237c.273.138.636.5.909.4h.118a24.5,24.5,0,0,1-.306,4.018Z" transform="translate(-461.192 -374.426)" fill="#dedede" stroke="#12263f" stroke-width="1"/>
          <path id="Trazado_648250" data-name="Trazado 648250" d="M533.635,522.9c.167.057.473.191.473.1l.191.033c-.057.347-.126.693-.208,1.035a11.251,11.251,0,0,1-.941,3,8.15,8.15,0,0,1-.489.766l-.037-.024c-.929-.375-1.879-.913-2.86-1.235-3.064-1-6.157-2.347-9.123-3.606l-.322,0a21.776,21.776,0,0,0-.1-2.681,12.749,12.749,0,0,1-.1-1.63h.1c3.439,1.1,6.939,2.355,10.456,3.187a12.848,12.848,0,0,1,2,.7C532.982,522.671,533.316,522.793,533.635,522.9Z" transform="translate(-461.852 -384.835)" fill="#dedede" stroke="#12263f" stroke-width="1"/>
          <path id="Trazado_648251" data-name="Trazado 648251" d="M521.244,434.994H521.2c-.245-3.533-1.353-6.952-1.891-10.464-.672-4.409-1.076-9.091-2.616-13.3a19.635,19.635,0,0,0-.848-1.98c.261-.016.505-.028.721-.041a9.4,9.4,0,0,0,2.518-.632,7.182,7.182,0,0,0,2.335-1.552,10.646,10.646,0,0,0,1.939-1.862c.053-.082.106-.167.159-.252a9.5,9.5,0,0,0,4.719,3.667,9.328,9.328,0,0,0,2.518.632c.216.012.456.025.717.041a18.815,18.815,0,0,0-.844,1.98c-1.544,4.214-1.948,8.9-2.62,13.3-.485,3.178-1.626,6.426-1.65,9.653,0,.3.045.6.049.9C524.679,435.092,522.944,435.043,521.244,434.994Z" transform="translate(-458.956 -307.749)" fill="#ffbc3b"/>
          <path id="Trazado_648252" data-name="Trazado 648252" d="M533.044,536.861l.037.025a7.617,7.617,0,0,1-1.426,1.52,6.96,6.96,0,0,1-5.041,1.01,6.654,6.654,0,0,1-4.682-3.093,7.519,7.519,0,0,1-1.076-2.755,10.3,10.3,0,0,1-.118-1.545l.322,0c2.966,1.259,6.059,2.6,9.124,3.606C531.165,535.948,532.115,536.486,533.044,536.861Z" transform="translate(-462.272 -393.891)" fill="#dedede" stroke="#12263f" stroke-width="1"/>
          <path id="Trazado_648253" data-name="Trazado 648253" d="M537.122,382.367a9.889,9.889,0,0,1-1.178,5.224,10.651,10.651,0,0,1-1.654-4.083c-.216-1.182-.216-3.353,1.039-4.046C536.6,378.765,537.11,381.7,537.122,382.367Z" transform="translate(-471.383 -290.434)" fill="#ffbc3b"/>
          <path id="Trazado_648254" data-name="Trazado 648254" d="M534.733,254.482c.407.526-.077,1.439-.094,2.091-.02.978-.049,6.377.1,7.335a12.18,12.18,0,0,1-.09,2.494c-.049,1.141-.1,5.016-2.147,4.674a1.838,1.838,0,0,1-1.243-1.226,7.3,7.3,0,0,1-.1-3.782,9.32,9.32,0,0,0,.061-3.569c-.248-1.059.057-6.336.041-7.4a3.021,3.021,0,0,1,.554-2.119C533.115,251.532,534.7,252.958,534.733,254.482Z" transform="translate(-469.201 -204.385)" fill="#f1b62b" stroke="#12263f" stroke-width="1"/>
          <path id="Trazado_648255" data-name="Trazado 648255" d="M532.5,498.253c-.012.045.008.069-.037.114,0-.037,0-.077-.008-.114Z" transform="translate(-470.213 -371.008)" fill="#8cc295"/>
          <path id="Trazado_648256" data-name="Trazado 648256" d="M479.818,379.919l-.379.191-.094-.285a17.631,17.631,0,0,0-1.8-3.671c-1.862-2.857-4.975-4.177-7.514-6.259a29.327,29.327,0,0,1-10.309-20.847c-.66-12.84,9.136-24.975,22.3-25.272,5.75-.13,12.2,1.1,16.878,4.544a26.093,26.093,0,0,1,9.237,30.174,27.947,27.947,0,0,1-4.115,7.555c-1.883,2.461-4.678,3.957-6.6,6.3-1.748,2.123-4.189,4.262-4.429,7.18l-.033.31-.175.069c-1.455.13-2.938.179-4.434.188,0-.3-.049-.6-.049-.9.024-3.227,1.165-6.475,1.65-9.653.672-4.409,1.076-9.091,2.62-13.3a18.781,18.781,0,0,1,.843-1.98c2.164.126,5.582.228,5.11-2.738-.261-1.646-1.483-1.605-2.547-.685a10.839,10.839,0,0,0-2.563,3.423c-.261-.016-.5-.028-.717-.041a9.334,9.334,0,0,1-2.518-.632,9.5,9.5,0,0,1-4.719-3.667,9.89,9.89,0,0,0,1.178-5.224c-.012-.669-.522-3.6-1.793-2.905-1.255.693-1.255,2.865-1.039,4.046a10.652,10.652,0,0,0,1.654,4.083c-.053.085-.106.171-.159.252a10.641,10.641,0,0,1-1.94,1.862,7.182,7.182,0,0,1-2.335,1.552,9.406,9.406,0,0,1-2.518.632c-.216.012-.46.024-.721.041a10.837,10.837,0,0,0-2.563-3.423c-1.064-.921-2.282-.962-2.547.685-.473,2.966,2.946,2.865,5.11,2.738a19.641,19.641,0,0,1,.848,1.98c1.54,4.214,1.944,8.9,2.616,13.3.538,3.512,1.646,6.931,1.891,10.464C482.018,379.976,480.906,379.939,479.818,379.919Z" transform="translate(-420.904 -252.763)" fill="#f1b62b" stroke="#12263f" stroke-width="1"/>
          <path id="Trazado_648257" data-name="Trazado 648257" d="M519.192,499.519l-.053,0a1.8,1.8,0,0,1,.583-1.528l.379-.191c1.088.02,2.2.057,3.329.09,0,.037,0,.077.008.114.045-.045.025-.069.037-.114,1.7.049,3.435.1,5.163.086,1.5-.008,2.979-.057,4.434-.188l.175-.069c.668.428.7,1.406.7,2.115,0,.966-.053,1.919-.033,2.893.016.7.028,1.4.024,2.095h-.118c-.273.094-.635-.265-.909-.4a40.255,40.255,0,0,0-6.8-2.237C525.52,502,519.192,499.845,519.192,499.519Z" transform="translate(-461.186 -370.648)" fill="#dedede" stroke="#12263f" stroke-width="1"/>
          <path id="Trazado_648258" data-name="Trazado 648258" d="M502.447,406.413a10.836,10.836,0,0,1,2.563,3.423c-2.163.126-5.582.228-5.109-2.738C500.164,405.452,501.383,405.492,502.447,406.413Z" transform="translate(-448.12 -308.34)" fill="#ffbc3b"/>
          <path id="Trazado_648259" data-name="Trazado 648259" d="M438.763,467.259c1.373-.892,3.252-.844,3.15,1.215-.082,1.622-2.147,3.268-3.17,4.356-1.41,1.5-2.861,2.95-4.25,4.466-1.169,1.284-2.371,2.637-3.435,4.022a4.3,4.3,0,0,1-3.031,1.882,1.738,1.738,0,0,1-1.83-2.115c.33-1.414,1.5-2.473,2.478-3.463,1.605-1.622,3.252-3.2,4.816-4.857.729-.778,1.459-1.569,2.18-2.347A18.139,18.139,0,0,1,438.763,467.259Z" transform="translate(-398.173 -349.631)" fill="#f1b62b" stroke="#12263f" stroke-width="1"/>
          <path id="Trazado_648260" data-name="Trazado 648260" d="M419.091,313.84c1.129,1.186,1.418,3.044-.619,3.317-1.61.212-3.606-1.516-4.861-2.323-1.728-1.112-3.423-2.274-5.167-3.362-1.475-.921-3.023-1.854-4.58-2.645a4.317,4.317,0,0,1-2.408-2.641,1.739,1.739,0,0,1,1.748-2.18,7.9,7.9,0,0,1,3.859,1.8c1.887,1.284,3.737,2.612,5.656,3.847.9.579,1.809,1.149,2.7,1.716A18.4,18.4,0,0,1,419.091,313.84Z" transform="translate(-381.394 -239.372)" fill="#f1b62b" stroke="#12263f" stroke-width="1"/>
          <path id="Trazado_648261" data-name="Trazado 648261" d="M399.042,398.859c1.605.334,2.905,1.691,1.382,3.081-1.2,1.092-3.822.811-5.314.864-2.054.069-4.112.081-6.165.183-1.736.086-3.537.2-5.269.436a4.306,4.306,0,0,1-3.484-.795,1.739,1.739,0,0,1,.191-2.787c1.231-.778,2.8-.709,4.2-.721,2.278-.02,4.56.016,6.837-.061,1.068-.037,2.139-.09,3.2-.131A18.243,18.243,0,0,1,399.042,398.859Z" transform="translate(-366.614 -303.565)" fill="#f1b62b" stroke="#12263f" stroke-width="1"/>
          <path id="Trazado_648262" data-name="Trazado 648262" d="M947.578,760.4l.007-.21c9.412-.311,20.4-5.786,28.493-12.082l.17.214c-.344,2.721-.181,5.709-.384,8.151a92.079,92.079,0,0,0-.286,14.556c-5.59.337-11,1.772-16.784,1.308a70.675,70.675,0,0,1-19.4-4.539c-5.318-2.069-10.046-5.5-14.571-8.916a67.8,67.8,0,0,1-8.162-7.9c-.471-.5-.967-1.156-1.493-1.826,3.072,1.724,6.2,3.362,9.383,5.028a60.685,60.685,0,0,0,12.332,4.557A46.64,46.64,0,0,0,947.578,760.4Z" transform="translate(-729.567 -540.329)" fill="#e39476"/>
          <path id="Trazado_648263" data-name="Trazado 648263" d="M870.032,1532.9c3.217,2.514,1.866,6.626-.384,9.292-2.228,2.648-7.231.377-8.419-2.279-1.5-3.362.475-7.854,4.384-8.126A5.446,5.446,0,0,1,870.032,1532.9Z" transform="translate(-692.672 -1071.375)" fill="#222b5a"/>
          <path id="Trazado_648264" data-name="Trazado 648264" d="M1198.56,1168.119H1113.28c.12-13.068.29-26.229-.873-39.184a282.221,282.221,0,0,1-1.271-32.775c.243-8.988-.471-18.1-.167-27.153.337-10.126,2.514-20.2,2.931-30.366a130.383,130.383,0,0,1,3.221-22.334c1.84-8.506,1.724-17.27,4.05-25.754,2.351-8.568,4.844-17.085,6.543-25.859,1.547-7.981,2.5-16.031,4.134-23.972a149.3,149.3,0,0,0,.859-54.352c-.855-5.293-1.224-10.557-2.536-15.788-2.569-10.234-7.235-20.215-15.23-27.33-2.956-2.63-7-3.9-9.89-6.347-.268-1.431-.583-2.855-.844-4.3-.022-.109-.04-.221-.058-.33,3.348-.377,7.13,1.931,10.122,3.119,7.13,2.837,14.433,5.22,21.541,8.126,3.271,1.337,6.594,2.742,9.792,4.173,3.123,1.4,5.619,3.84,8.756,5.246,3.506,1.572,7.021,3.126,10.582,4.587,7.572,3.108,15.227,6.1,22.323,10.223,9.419,5.463,18.273,10.926,25.772,19.027,7.006,7.572,12.582,17.563,17.425,26.609,5.369,10.013,9.419,21.207,13.049,31.953.877,2.6,2.167,5.227,2.674,7.926.953,5.079,1.3,10.379,2.065,15.516q1.3,8.711,2.38,17.458c1.467,11.854,2.659,23.74,3.688,35.637,1.312,15.172,1.148,30.438,2.775,45.585,1.59,14.839,7.379,28.152,9.879,42.712,1.619,9.445-.268,18.918-.884,28.359-.333,5.086,1.54,10,1.478,15.063-.058,4.873-1.366,9.636-1.5,14.527Z" transform="translate(-857.632 -597.336)" fill="#179587" stroke="#141936" stroke-width="2"/>
          <path id="Trazado_648265" data-name="Trazado 648265" d="M527.737,737.77c-.511-2.409-.822-4.836-1.275-7.289-.478-2.59-1.062-5.162-1.645-7.731-2.438-10.731-4.275-20.74-.891-31.492,3.039-9.655,8.31-18.509,10.618-28.41,1.583-6.789,1.206-13.611.985-20.53-.276-8.481.167-16.991.217-25.472.036-5.937-.659-14.567,5.227-18.172a3.99,3.99,0,0,1,4.467-.235c5.09,2.3,6.047,9.825,6.267,14.643.616,13.5.109,26.946.054,40.455,0,.732.134,1.184.163,1.851a16.729,16.729,0,0,1,5.488.67c7.872,2.373,13.223,9.368,18.056,15.687,1.1-4.615,3.659-10.2,8.485-11.825a5.924,5.924,0,0,1,4.181-.3,9.167,9.167,0,0,1,5.311,4.362c2.282,4.666-.076,10.48-1.1,15.172-.71,3.239-1.576,6.419-1.558,9.792.015,3.677.627,7.318.717,10.991.073,2.985.058,6-.167,8.988a47.492,47.492,0,0,1-1.953,10.741c-2.608,8.293-7.695,15.455-11.165,23.367-.852,1.942-1.565,3.923-2.272,5.89-2.051,5.7-4.05,11.26-9.26,15.252-6.861,5.264-16.042,3.536-23.012-.554a35.373,35.373,0,0,1-9.9-8.651,11.154,11.154,0,0,1-2.467-5.634c-.569-3.05-2.047-5.97-2.916-8.945C528.135,739.519,527.922,738.646,527.737,737.77Z" transform="translate(-463.178 -438.515)" fill="#f5b49b"/>
          <path id="Trazado_648266" data-name="Trazado 648266" d="M990.028,609.283c1.616,3.977-1.895,8.452-4.521,11.154-4.362,4.482-10.061,7.079-16.4,6.26a20.813,20.813,0,0,1-9.445-3.257,28.275,28.275,0,0,1-7.307-6.626c-1.536-2.079-2.75-5.861-1.025-8.194,1.427-1.935,4.166-2.6,6.463-2.366,2.116.218,4.289.25,6.412.4a50.982,50.982,0,0,0,5.952-.029c2.6-.12,5.213.011,7.8-.326,2.358-.308,4.666-1.286,7.068-.765A6.424,6.424,0,0,1,990.028,609.283Z" transform="translate(-753.5 -443.609)" fill="#fff"/>
          <path id="Trazado_648267" data-name="Trazado 648267" d="M737.44,238.012c-.366-2.569-.656-5.144-.96-7.7a44.809,44.809,0,0,0-1.435-8.376c-1.743-5.452-5.112-10.2-6.967-15.61a21.482,21.482,0,0,1-1.33-7.55c.044-2.931.431-5.843.685-8.763a98.446,98.446,0,0,1,2.583-14.455c1.5-6.267,3.761-12.745,3.083-19.255-.08-.754-.178-1.5-.272-2.257-.623-4.913,1.036-8.553,3.282-12.774,3.467-6.525,8.636-12.575,15.266-16.053,7.285-3.822,16.183-5.111,23.794-8.415a65.913,65.913,0,0,0,9.416-5.058c1.228-.793,2.163-1.815,3.456-2.485,1.949-1.011,4.014-1.833,6.018-2.692a34.937,34.937,0,0,1,7.535-2.293,54.115,54.115,0,0,1,24.012,1.279c7.51,2.156,15.31,6.753,17.168,14.926.478,2.1,2.051,1.9,3.96,1.9a24.2,24.2,0,0,1,16.712,2.753c7.3,4,9.77,10.944,13.7,17.719,3.489,6.017,8.372,11.046,12.647,16.487,5.438,6.926,9.578,14.748,8.231,23.819a68.97,68.97,0,0,0-1.145,12.437c.13,4.315-1.927,9.2-3,13.339-.7,2.677-.956,5.583-2,8.108-2.511,6.039-2.92,12.4-2.634,18.831.018.467.04.935.069,1.406a42.351,42.351,0,0,1-.145,5.155,13.217,13.217,0,0,1-.634,3.59c-.366,1.011-1.214,2.565-2.445,2.75-4.025.594-3.253-11.1-3.315-13.248-.2-7.1-1.46-15.049-5.55-21.063a32.908,32.908,0,0,1-4.3-10.738,50.265,50.265,0,0,1-1.217-12.038c.007-6.452.474-12.966-2.982-18.831-3.159-5.362-9.648-7.731-15.571-8.173-1.42-.109-2.322-.018-3.713-.1-9.579-.576-19.012.083-27.921,3.826a21.964,21.964,0,0,1-8.919,1.6c-7.807-.142-15.194-3.261-22.754-4.847a39.135,39.135,0,0,0-11.017-.71c-3.9.268-7.807.511-11.046,3a18.353,18.353,0,0,0-6.046,8.956,35.216,35.216,0,0,0-1.475,7.416c-.315,3.148.594,6.144.333,9.263-.453,5.434-1.453,10.647-4.083,15.473-.681,1.257-1.148,2.6-1.724,3.905a21.8,21.8,0,0,1-2.011,3.116,43.588,43.588,0,0,0-4.318,7.235c-2.435,5.967-.9,12.5-.812,18.711.036,2.539.014,5.3-1.656,7.387-1.724,2.152-4.029,1.558-5.673-.377-1.717-2.011-1.906-4.572-2.34-7.061C737.777,240.327,737.6,239.172,737.44,238.012Z" transform="translate(-601.879 -103.484)" fill="#222b5a"/>
          <path id="Trazado_648268" data-name="Trazado 648268" d="M1103.728,832.359c.018.109.036.221.058.33-.112-.069-.22-.054-.257-.3C1103.594,832.374,1103.663,832.366,1103.728,832.359Z" transform="translate(-857.214 -597.423)" fill="#8cc295"/>
          <path id="Trazado_648269" data-name="Trazado 648269" d="M1085.552,481.222a9.087,9.087,0,0,1-1.543,6.564c-1.388,2.094-4.448,2.366-6.724,1.739a6.683,6.683,0,0,1-3.022-11.194c1.9-2.018,5.115-3.453,7.771-2.047A8.023,8.023,0,0,1,1085.552,481.222Z" transform="translate(-836.063 -355.739)" fill="#2b1a0f"/>
          <path id="Trazado_648270" data-name="Trazado 648270" d="M881.425,1720.619c3.221,2.514,1.866,6.626-.38,9.292-2.231,2.645-7.231.377-8.419-2.279-1.5-3.365.474-7.854,4.38-8.126A5.441,5.441,0,0,1,881.425,1720.619Z" transform="translate(-700.395 -1198.587)" fill="#222b5a"/>
          <path id="Trazado_648271" data-name="Trazado 648271" d="M454.32,1047.534c4.481,13.882-2.865,21.9-4.883,34.891-1.619,10.4,2.271,19.806,1.84,29.96-.279,6.554-3.916,12.166-5.6,18.353a68.167,68.167,0,0,0-1.677,8.438c-3.764,27.105-9.861,54.069-15.168,80.957-1.272,6.441-2.373,13.4-4.035,20.2-2.1,8.629-5.108,17.009-10.484,23.769-12.763,16.045-43.451,22.272-59.656,7.488-9.673-8.828-13.393-22.877-14.712-35.455-2.927-27.885,5.467-57.75,14.806-83.7,3.268-9.079,7.677-17.7,11-26.754a105.447,105.447,0,0,0,6.133-26.091,48.6,48.6,0,0,1,5.231-18.335c3.594-6.666,9.807-11.459,12-18.915,2.985-10.14,1.065-21.892,11.4-28.435,1.156-.732,2.485-1.1,3.391-2,.185.877.4,1.75.652,2.619.869,2.974,2.348,5.895,2.916,8.945a11.153,11.153,0,0,0,2.467,5.634,35.368,35.368,0,0,0,9.9,8.651c6.97,4.09,16.15,5.818,23.012.554,5.209-3.992,7.209-9.55,9.26-15.252l.007,0C453.715,1043.923,453.78,1045.861,454.32,1047.534Z" transform="translate(-339.35 -732.647)" fill="#179587" stroke="#141936" stroke-width="2"/>
          <path id="Trazado_648272" data-name="Trazado 648272" d="M910.564,776.031c0-.228.007-.453.018-.677a131.551,131.551,0,0,0,.018-13.68c-.134-2.279-.355-4.55-.692-6.8-.145-.956-.453-1.909-.623-2.818-.156-.851.08-2.163-.511-2.866l.42-.728q.815.472,1.641.938c.525.67,1.022,1.33,1.493,1.826a67.783,67.783,0,0,0,8.162,7.9c4.525,3.416,9.252,6.847,14.571,8.915a70.683,70.683,0,0,0,19.4,4.539c5.786.464,11.194-.971,16.784-1.308q.087,1.25.239,2.485c.073.591.163,1.17.264,1.75-.065.007-.134.015-.2.026.036.25.145.235.257.3.261,1.449.576,2.873.844,4.3a25.188,25.188,0,0,1,.522,5.981,27.858,27.858,0,0,1-2.942,10.9,31.02,31.02,0,0,1-16.215,15.02c-1.384.54-2.753,1.159-4.155,1.648a21.542,21.542,0,0,1-8.042,1.083,40.69,40.69,0,0,1-8.126-1.366c-4.318-1.148-7.923-2.329-11.589-5.021a30.542,30.542,0,0,1-11.549-16.676,14.69,14.69,0,0,1-.21-7.2,18.433,18.433,0,0,0,.3-3.641C910.647,779.255,910.535,777.625,910.564,776.031Z" transform="translate(-725.233 -540.565)" fill="#f5b49b"/>
          <path id="Trazado_648273" data-name="Trazado 648273" d="M1082.51,403.643a2.506,2.506,0,0,1-1.862,3.93c-1.811.272-3.579-.518-5.249-1.1-.761-.268-1.58-.583-2.352-.772a13.285,13.285,0,0,0-2.862.036c-2.779-.087-5.235.982-7.829,1.808a2.91,2.91,0,0,1-2.268-.1c-2.376-1.369-.518-3.692.913-4.967a9.347,9.347,0,0,1,3.144-1.913,27.053,27.053,0,0,1,5.155-1.536,17.145,17.145,0,0,1,4.474-.17C1076.814,399.194,1080.847,400.947,1082.51,403.643Z" transform="translate(-827.003 -303.599)" fill="#1e244a"/>
          <path id="Trazado_648274" data-name="Trazado 648274" d="M892.033,403.643a2.505,2.505,0,0,1-1.862,3.93c-1.811.272-3.576-.518-5.246-1.1-.761-.268-1.58-.583-2.351-.772a13.32,13.32,0,0,0-2.865.036c-2.779-.087-5.231.982-7.829,1.808a2.9,2.9,0,0,1-2.264-.1c-2.377-1.369-.518-3.692.913-4.967a9.311,9.311,0,0,1,3.144-1.913,27.1,27.1,0,0,1,5.152-1.536,17.158,17.158,0,0,1,4.474-.17C886.338,399.194,890.374,400.947,892.033,403.643Z" transform="translate(-697.925 -303.599)" fill="#1e244a"/>
          <path id="Trazado_648275" data-name="Trazado 648275" d="M898.022,481.222a9.091,9.091,0,0,1-1.547,6.564c-1.388,2.094-4.449,2.366-6.724,1.739a6.686,6.686,0,0,1-3.021-11.194c1.9-2.018,5.115-3.453,7.771-2.047A8.029,8.029,0,0,1,898.022,481.222Z" transform="translate(-708.978 -355.739)" fill="#2b1a0f"/>
          <path id="Trazado_648276" data-name="Trazado 648276" d="M778.482,440.276q-.825-.467-1.641-.938c-3.145-1.8-6.231-3.724-9.256-5.865-5.959-4.22-12.343-9.046-16.74-14.944-2.6-3.489-5.3-6.829-8.025-10.242-2.424-3.036-3.988-6.651-6.336-9.738-2.5-3.289-5.307-3.811-8.774-5.774a28.919,28.919,0,0,1-9.22-8.053,20.606,20.606,0,0,1-2.55-3.724,31.835,31.835,0,0,1-1.837-4.818,16.1,16.1,0,0,1,.42-10.252,8.451,8.451,0,0,1,6.749-4.985c3.847-.384,5.169,2.4,7.169,5.032.159,1.159.337,2.315.54,3.471.435,2.489.623,5.05,2.341,7.061,1.644,1.935,3.949,2.529,5.673.377,1.67-2.087,1.692-4.847,1.656-7.387-.087-6.21-1.623-12.745.812-18.711a43.615,43.615,0,0,1,4.318-7.235,21.8,21.8,0,0,0,2.011-3.116c.576-1.3,1.043-2.648,1.724-3.905,2.63-4.826,3.63-10.039,4.083-15.473.261-3.119-.649-6.115-.333-9.263a35.208,35.208,0,0,1,1.475-7.416,18.352,18.352,0,0,1,6.046-8.956c3.239-2.493,7.148-2.735,11.046-3a39.133,39.133,0,0,1,11.017.71c7.561,1.586,14.947,4.706,22.754,4.847a21.966,21.966,0,0,0,8.919-1.6c8.909-3.743,18.342-4.4,27.921-3.826,1.391.083,2.293-.007,3.713.1,5.923.442,12.412,2.811,15.571,8.173,3.456,5.865,2.989,12.379,2.982,18.831a50.265,50.265,0,0,0,1.217,12.038,32.911,32.911,0,0,0,4.3,10.738c4.09,6.014,5.347,13.959,5.55,21.063.062,2.152-.71,13.842,3.315,13.248,1.232-.185,2.079-1.739,2.445-2.75a13.227,13.227,0,0,0,.634-3.59,42.351,42.351,0,0,0,.145-5.155c-.029-.471-.051-.938-.069-1.406l.188-.007c3.413-5.1,10.767-2.463,12.8,2.416a16.615,16.615,0,0,1,.431,10.582,33,33,0,0,1-1.895,4.974,21.507,21.507,0,0,1-2.63,3.847,29.862,29.862,0,0,1-9.524,8.31c-2.688,1.525-5.528,2.753-8.281,4.152l-.2-.087c-3.489,7.963-7.8,16.216-13.14,22.664a183.55,183.55,0,0,1-14.013,14.585,58.457,58.457,0,0,1-4.586,3.952c-8.09,6.3-19.081,11.77-28.493,12.082l-.007.21a46.632,46.632,0,0,1-10.694-1.656,60.7,60.7,0,0,1-12.332-4.557C784.684,443.638,781.554,442,778.482,440.276Zm68.042-104.857a2.506,2.506,0,0,0,1.862-3.93c-1.663-2.7-5.695-4.449-8.735-4.782a17.144,17.144,0,0,0-4.474.17,27.052,27.052,0,0,0-5.155,1.536,9.347,9.347,0,0,0-3.144,1.913c-1.431,1.275-3.29,3.6-.913,4.967a2.909,2.909,0,0,0,2.268.1c2.594-.826,5.05-1.895,7.829-1.808a13.286,13.286,0,0,1,2.862-.036c.771.188,1.591.5,2.351.772C842.945,334.9,844.713,335.691,846.525,335.419Zm-5.7,28.073a9.087,9.087,0,0,0,1.543-6.565,8.024,8.024,0,0,0-3.518-4.938c-2.656-1.406-5.872.029-7.771,2.047a6.683,6.683,0,0,0,3.021,11.195C836.377,365.857,839.438,365.586,840.826,363.492Zm-15.94,44.781c2.626-2.7,6.137-7.177,4.521-11.154a6.424,6.424,0,0,0-5.007-3.746c-2.4-.522-4.71.456-7.068.764-2.583.337-5.2.206-7.8.326a50.977,50.977,0,0,1-5.952.029c-2.123-.152-4.3-.185-6.412-.4-2.3-.239-5.036.431-6.463,2.366-1.724,2.333-.511,6.115,1.026,8.194a28.276,28.276,0,0,0,7.307,6.626,20.812,20.812,0,0,0,9.445,3.257C814.826,415.351,820.524,412.754,824.886,408.272Zm-39.76-72.853a2.505,2.505,0,0,0,1.862-3.93c-1.659-2.7-5.695-4.449-8.734-4.782a17.155,17.155,0,0,0-4.474.17,27.09,27.09,0,0,0-5.152,1.536,9.309,9.309,0,0,0-3.144,1.913c-1.431,1.275-3.29,3.6-.913,4.967a2.9,2.9,0,0,0,2.264.1c2.6-.826,5.05-1.895,7.828-1.808a13.322,13.322,0,0,1,2.865-.036c.772.188,1.59.5,2.351.772C781.551,334.9,783.315,335.691,785.126,335.419Zm-4.749,28.073a9.09,9.09,0,0,0,1.547-6.565,8.03,8.03,0,0,0-3.521-4.938c-2.655-1.406-5.869.029-7.771,2.047a6.686,6.686,0,0,0,3.021,11.195C775.928,365.857,778.99,365.586,780.377,363.492Z" transform="translate(-592.88 -231.445)" fill="#f5b49b"/>
          <path id="Trazado_648277" data-name="Trazado 648277" d="M491.019,356.777c-1.66.7-3.454,2.031-3.772,3.487-.172.786.069,1.624-.139,2.4-.347,1.3-1.753,1.944-2.758,2.837a5.759,5.759,0,0,0-1.517,6.2c.645,1.689,2.1,3.076,2.293,4.874.16,1.525-.569,3.319.46,4.455.873.963,2.424.742,3.643,1.191,1.568.578,2.505,2.245,4.028,2.935,2.206,1,4.721-.343,7.141-.451a26.777,26.777,0,0,1,4.367.509,5.787,5.787,0,0,0,4.219-.794c1.28-.974,1.748-2.664,2.7-3.96a19.387,19.387,0,0,1,3.532-3.138,5.979,5.979,0,0,0,2.472-3.892c.161-2.14-1.558-3.927-2.172-5.983a23.012,23.012,0,0,1-.471-4.178c-.14-1.309-.572-3.03-1.93-3.543a21.476,21.476,0,0,0-2.317-.487c-2.427-.62-4.049-2.95-6.36-3.916a8.228,8.228,0,0,0-4.749-.319c-1.488.295-3,1.262-4.5,1.286A10.2,10.2,0,0,0,491.019,356.777Z" transform="translate(-436.349 -273.796)" fill="#fff"/>
          <path id="Trazado_648278" data-name="Trazado 648278" d="M1137.468,1270.507c-.626,11.691-11.081,20.153-16.264,30.652-4.528,9.171-4.922,19.759-5.229,29.983" transform="translate(-865.648 -894.344)" fill="none"/>
          <path id="Trazado_648279" data-name="Trazado 648279" d="M934.889,1585.574c-1.142-3.425-1.062-6.893-1.668-10.466-1.458-8.586-2.418-17.248-3.183-25.921-.365-4.139-.143-8.761-1.068-12.806a56.5,56.5,0,0,1-1.144-9.583,211.774,211.774,0,0,0-8.193-47.211c.184,1.107.359,2.218.518,3.337,1.75,12.352,2.654,24.8,3.24,37.261q.036.769.071,1.538c.29,6.412.5,12.828.7,19.24.4,12.615.75,25,.706,37.651-.029,9.4-.373,18.805-.829,28.2h13.731c-.211-2.827-.6-5.656-.985-8.452C936.216,1594.268,936.2,1589.5,934.889,1585.574Z" transform="translate(-732.591 -1036.031)" fill="#ededed"/>
          <path id="Trazado_648280" data-name="Trazado 648280" d="M955.473,896.2c-.855-5.292-1.224-10.557-2.536-15.788-2.569-10.234-7.234-20.215-15.23-27.33-2.956-2.63-7-3.9-9.89-6.347a25.193,25.193,0,0,1,.522,5.981,27.862,27.862,0,0,1-2.942,10.9,31.021,31.021,0,0,1-16.215,15.02c-1.384.54-2.754,1.159-4.156,1.648a21.549,21.549,0,0,1-8.042,1.083A40.69,40.69,0,0,1,888.858,880c-4.318-1.148-7.923-2.329-11.589-5.021a30.544,30.544,0,0,1-11.549-16.676,14.7,14.7,0,0,1-.21-7.2,18.433,18.433,0,0,0,.3-3.641c-.848.869-2.674,1.891-3.7,2.818-6.5,5.869-9.792,15.893-12.76,23.888-5.463,14.708-6.59,30.417-6.724,45.976a286.925,286.925,0,0,0,3.344,47.4,239.829,239.829,0,0,0,5.3,25.03c5.32,19.707,12.8,37.953,16.165,58.141a211.769,211.769,0,0,1,8.193,47.21,56.533,56.533,0,0,0,1.144,9.583c.925,4.045.7,8.667,1.068,12.806.765,8.673,1.725,17.335,3.183,25.922.607,3.573.526,7.041,1.668,10.466,1.308,3.92,1.327,8.693,1.9,12.788.389,2.8.774,5.625.985,8.452h50.468c.12-13.068.29-26.229-.873-39.184a282.191,282.191,0,0,1-1.271-32.775c.243-8.988-.471-18.1-.167-27.153.337-10.126,2.514-20.2,2.931-30.366a130.383,130.383,0,0,1,3.22-22.334c1.84-8.506,1.724-17.269,4.05-25.754,2.351-8.568,4.844-17.085,6.543-25.859,1.547-7.981,2.5-16.031,4.134-23.972A149.3,149.3,0,0,0,955.473,896.2Z" transform="translate(-680.4 -607.164)" fill="#fffbf2"/>
        </g>
        <g id="Layer_2" data-name="Layer 2" transform="translate(390.068 130.467)">
          <g id="Grupo_898722" data-name="Grupo 898722" transform="translate(173.943 5.076)">
            <path id="Trazado_648281" data-name="Trazado 648281" d="M1037.25,228.322a.906.906,0,0,1-.645-1.542c6.59-6.678,9.625-15.458,11.724-23.167a.906.906,0,1,1,1.748.476c-3.852,14.141-8.32,20.049-12.183,23.963A.9.9,0,0,1,1037.25,228.322Z" transform="translate(-1036.345 -202.946)"/>
          </g>
          <g id="Grupo_898723" data-name="Grupo 898723" transform="translate(188.493 21.372)">
            <path id="Trazado_648282" data-name="Trazado 648282" d="M1082.392,262.932a.906.906,0,0,1-.3-1.761,38.788,38.788,0,0,0,12.842-7.443.906.906,0,1,1,1.195,1.362,40.59,40.59,0,0,1-13.438,7.791A.9.9,0,0,1,1082.392,262.932Z" transform="translate(-1081.486 -253.503)"/>
          </g>
          <g id="Grupo_898724" data-name="Grupo 898724" transform="translate(131.88 0)">
            <path id="Trazado_648283" data-name="Trazado 648283" d="M921.8,209.223a.906.906,0,0,1-.884-.715c-2.035-9.428-7.323-16.561-14.506-19.57a.906.906,0,1,1,.7-1.671c7.737,3.241,13.414,10.843,15.576,20.858a.906.906,0,0,1-.886,1.1Z" transform="translate(-905.849 -187.197)"/>
          </g>
          <g id="Grupo_898725" data-name="Grupo 898725" transform="translate(100.276 15.932)">
            <path id="Trazado_648284" data-name="Trazado 648284" d="M824.858,242.289a.9.9,0,0,1-.44-.114c-5.467-3.041-10.712-4.235-15.588-3.549a.906.906,0,0,1-.252-1.794c5.276-.741,10.9.523,16.72,3.761a.906.906,0,0,1-.441,1.7Z" transform="translate(-807.799 -236.626)"/>
          </g>
          <g id="Grupo_898726" data-name="Grupo 898726" transform="translate(160.145 88.664)">
            <path id="Trazado_648285" data-name="Trazado 648285" d="M1000.976,497.413a7.531,7.531,0,0,1-3.009-.687,13.632,13.632,0,0,1-4.155-2.631.906.906,0,0,1,1.261-1.3,11.923,11.923,0,0,0,3.62,2.272,5.205,5.205,0,0,0,2.892.488,7.514,7.514,0,0,0,1.981-.616c.858-.4,3.465-1.6,1.753-7.226-.566-1.857-1.233-3.722-1.878-5.525-.59-1.647-1.2-3.351-1.735-5.058a13.057,13.057,0,0,1-.474-2.875c-.039-.445-.075-.864-.135-1.292a38.708,38.708,0,0,1,.2-9.892.906.906,0,1,1,1.8.214,37.13,37.13,0,0,0-.21,9.426c.067.474.107.939.146,1.387a11.508,11.508,0,0,0,.4,2.488c.525,1.673,1.129,3.359,1.713,4.99.652,1.823,1.327,3.709,1.906,5.608,1.8,5.9-.491,8.365-2.724,9.4a9.359,9.359,0,0,1-2.458.761A5.7,5.7,0,0,1,1000.976,497.413Z" transform="translate(-993.537 -462.272)" fill="#ab684d"/>
          </g>
          <g id="Grupo_898727" data-name="Grupo 898727" transform="translate(73.983 110.314)">
            <path id="Trazado_648286" data-name="Trazado 648286" d="M739.825,548.462a.9.9,0,0,1-.81-.5,6.263,6.263,0,0,0-2.3-2.173,6.969,6.969,0,0,1-2.92-3.047,5.692,5.692,0,0,1,.177-4.038,9.863,9.863,0,0,0,.38-1.48,2.985,2.985,0,0,0-.289-1.467c-.1-.264-.2-.537-.278-.839a3.5,3.5,0,0,0-1.064-2.007c-1.443-1.183-2.733-1.767-3.631-1.646a1.767,1.767,0,0,0-1.216.821.906.906,0,1,1-1.48-1.044,3.526,3.526,0,0,1,2.453-1.572c1.444-.194,3.133.49,5.023,2.04a5.254,5.254,0,0,1,1.663,2.929c.063.23.145.457.233.7a4.594,4.594,0,0,1,.38,2.35,11.434,11.434,0,0,1-.443,1.756,4.039,4.039,0,0,0-.225,2.829,5.364,5.364,0,0,0,2.252,2.217,7.835,7.835,0,0,1,2.906,2.862.906.906,0,0,1-.809,1.312Z" transform="translate(-726.227 -529.439)" fill="#ab684d"/>
          </g>
          <g id="Grupo_898728" data-name="Grupo 898728" transform="translate(233.028 110.835)">
            <path id="Trazado_648287" data-name="Trazado 648287" d="M1220.559,550.636a.906.906,0,0,1-.809-1.312,8.068,8.068,0,0,1,2.99-2.943,5.559,5.559,0,0,0,2.336-2.3,4.254,4.254,0,0,0-.232-2.94,11.8,11.8,0,0,1-.456-1.808,4.71,4.71,0,0,1,.39-2.411c.09-.248.176-.483.241-.722a5.4,5.4,0,0,1,1.708-3.009c1.943-1.594,3.681-2.3,5.162-2.1a3.609,3.609,0,0,1,2.511,1.611.906.906,0,1,1-1.48,1.044,1.851,1.851,0,0,0-1.275-.86c-.934-.125-2.275.479-3.771,1.705a3.63,3.63,0,0,0-1.108,2.086c-.085.311-.187.593-.287.865a3.1,3.1,0,0,0-.3,1.528,10.3,10.3,0,0,0,.393,1.533,5.852,5.852,0,0,1,.184,4.149,7.07,7.07,0,0,1-3,3.132,6.487,6.487,0,0,0-2.385,2.255A.906.906,0,0,1,1220.559,550.636Z" transform="translate(-1219.654 -531.055)" fill="#ab684d"/>
          </g>
          <g id="Grupo_898729" data-name="Grupo 898729" transform="translate(57.102 205.63)">
            <path id="Trazado_648288" data-name="Trazado 648288" d="M675.3,855.134a1.437,1.437,0,0,1-.5-.094.312.312,0,0,0-.107-.024.906.906,0,1,1,.142-1.806,2.027,2.027,0,0,1,.5.1.919.919,0,0,1,.264-.02c2.4.18,4.5-2.818,5.254-4.744a21.828,21.828,0,0,0,1.045-11.021c-.477-3.479-1.1-7.08-2.99-9.524q-.532-.687-1.07-1.391a.906.906,0,0,1,1.438-1.1q.536.7,1.064,1.384c2.164,2.8,2.843,6.665,3.352,10.387a23.61,23.61,0,0,1-1.153,11.929,11.815,11.815,0,0,1-2.562,3.926,5.926,5.926,0,0,1-4.367,1.97A1.617,1.617,0,0,1,675.3,855.134Z" transform="translate(-673.853 -825.151)" fill="#ab684d"/>
          </g>
          <g id="Grupo_898730" data-name="Grupo 898730" transform="translate(26.25 189.038)">
            <path id="Trazado_648289" data-name="Trazado 648289" d="M579.044,779.275a.906.906,0,0,1-.545-1.629,20.542,20.542,0,0,1,10.449-3.965.906.906,0,0,1,.157,1.8,18.7,18.7,0,0,0-9.516,3.608A.9.9,0,0,1,579.044,779.275Z" transform="translate(-578.138 -773.677)" fill="#ab684d"/>
          </g>
          <g id="Grupo_898731" data-name="Grupo 898731" transform="translate(29.75 210.412)">
            <path id="Trazado_648290" data-name="Trazado 648290" d="M604.843,878.951a4.217,4.217,0,0,1-3.2-1.211,2.288,2.288,0,0,0-.426-.229,1.98,1.98,0,0,1-1.392-1.555.906.906,0,0,1,1.787-.274,3.738,3.738,0,0,0,.366.185,3,3,0,0,1,.989.636c1.359,1.455,5.189.134,6.862-.982,4.676-3.12,8.054-10.865,5.1-19.072a12.869,12.869,0,0,0-1.708-2.888c-.261-.367-.531-.747-.779-1.124-3.936-6-7.825-9.441-11.558-10.235a28.072,28.072,0,0,0-10.8.307.906.906,0,0,1-.369-1.773,29.891,29.891,0,0,1,11.544-.305c4.276.91,8.429,4.512,12.7,11.012.229.35.478.7.74,1.069a14.161,14.161,0,0,1,1.936,3.324c2.434,6.772,1.227,16.5-5.8,21.192A12.177,12.177,0,0,1,604.843,878.951Z" transform="translate(-588.996 -839.986)" fill="#ab684d"/>
          </g>
          <g id="Grupo_898732" data-name="Grupo 898732" transform="translate(23.053 227.725)">
            <path id="Trazado_648291" data-name="Trazado 648291" d="M578.592,924.968a5.428,5.428,0,0,1-4.345-2.26,7.964,7.964,0,0,1-1.634-4.039,10.311,10.311,0,0,1,.06-1.693,4.639,4.639,0,0,0-.141-2.29,11.367,11.367,0,0,0-3.507-3.821l-.474-.384a.906.906,0,0,1,1.146-1.4l.467.378a12.908,12.908,0,0,1,4.012,4.467,6.105,6.105,0,0,1,.3,3.217,8.915,8.915,0,0,0-.058,1.4,6.182,6.182,0,0,0,1.266,3.071,3.649,3.649,0,0,0,5.267.77c3.324-2.215,4.665-6.852,4.812-10.453a17.756,17.756,0,0,0-.845-5.91c-.665-2.165-2.441-3.966-4.16-5.707l-.413-.419a18.285,18.285,0,0,0-6.619-4.436.906.906,0,1,1,.634-1.7,20.082,20.082,0,0,1,7.278,4.864l.409.415c1.784,1.809,3.807,3.858,4.6,6.448a19.558,19.558,0,0,1,.923,6.515c-.214,5.241-2.314,9.685-5.617,11.887A6.07,6.07,0,0,1,578.592,924.968Z" transform="translate(-568.219 -893.698)" fill="#ab684d"/>
          </g>
          <g id="Grupo_898733" data-name="Grupo 898733" transform="translate(43.398 245.132)">
            <path id="Trazado_648292" data-name="Trazado 648292" d="M632.246,963.419a.906.906,0,0,1-.867-1.169,32.768,32.768,0,0,1,5.11-10.586c.394-.527.751-1.012,1.1-1.49.513-.7,1-1.36,1.575-2.115a.906.906,0,1,1,1.439,1.1c-.567.741-1.046,1.394-1.554,2.086-.354.483-.714.973-1.112,1.5a31.044,31.044,0,0,0-4.826,10.027A.906.906,0,0,1,632.246,963.419Z" transform="translate(-631.339 -947.703)" fill="#ab684d"/>
          </g>
          <g id="Grupo_898734" data-name="Grupo 898734" transform="translate(33.987 282.519)">
            <path id="Trazado_648293" data-name="Trazado 648293" d="M603.047,1262.105a.906.906,0,0,1-.882-1.116c1.062-4.454,1.9-8.983,2.707-13.363.392-2.122.762-4.126,1.157-6.126,1.313-6.653,2.7-13.423,4.036-19.971,4.077-19.942,8.293-40.562,11.125-60.936a68.142,68.142,0,0,1,1.7-8.552,61.763,61.763,0,0,1,2.428-6.791c1.528-3.8,2.971-7.381,3.139-11.359a68.155,68.155,0,0,0-1.092-12.925c-.82-5.49-1.668-11.168-.74-17.136a70.346,70.346,0,0,1,3.232-11.989c2.451-7.276,4.568-13.56,1.686-22.484-.135-.418-.24-.842-.342-1.252-.3-1.2-.555-2.237-1.427-2.711a.906.906,0,0,1,.866-1.591c1.571.855,1.968,2.455,2.318,3.866.1.4.192.772.308,1.131,3.066,9.493.754,16.354-1.693,23.619a68.883,68.883,0,0,0-3.159,11.689c-.886,5.695-.059,11.234.741,16.59a69.539,69.539,0,0,1,1.11,13.27c-.182,4.289-1.751,8.188-3.268,11.958a60.4,60.4,0,0,0-2.361,6.59,66.407,66.407,0,0,0-1.654,8.326c-2.839,20.431-7.061,41.08-11.144,61.049-1.338,6.545-2.721,13.312-4.033,19.958-.393,1.99-.762,3.988-1.152,6.1-.813,4.4-1.654,8.955-2.727,13.453A.906.906,0,0,1,603.047,1262.105Z" transform="translate(-602.141 -1063.694)" fill="#222b5a"/>
          </g>
          <g id="Grupo_898735" data-name="Grupo 898735" transform="translate(9.909 315.91)">
            <path id="Trazado_648294" data-name="Trazado 648294" d="M550.792,1195.742a.9.9,0,0,1-.641-.266c-7.708-7.735-14.579-16.281-22.526-26.734a.906.906,0,1,1,1.442-1.1c7.9,10.395,14.73,18.888,22.366,26.552a.905.905,0,0,1-.641,1.545Z" transform="translate(-527.44 -1167.287)" fill="#222b5a"/>
          </g>
          <g id="Grupo_898736" data-name="Grupo 898736" transform="translate(4.174 360.685)">
            <path id="Trazado_648295" data-name="Trazado 648295" d="M524.08,1310.392a44.85,44.85,0,0,1-13.8-2.423.906.906,0,1,1,.556-1.724c7.661,2.472,14.062,2.965,20.144,1.552a.906.906,0,0,1,.41,1.765A32.063,32.063,0,0,1,524.08,1310.392Z" transform="translate(-509.648 -1306.201)" fill="#222b5a"/>
          </g>
          <g id="Grupo_898737" data-name="Grupo 898737" transform="translate(278.084 292.931)">
            <path id="Trazado_648296" data-name="Trazado 648296" d="M1371.564,1348.1h-.008a.905.905,0,0,1-.9-.914c.056-6.223-.491-12.647-1.02-18.859-.459-5.4-.934-10.975-1.011-16.393-.141-9.98-.646-20.13-1.134-29.946-.176-3.535-.358-7.191-.52-10.786-.961-21.284-2.415-41.528-4.446-61.887-2.14-21.46-3.954-42.453-2.656-63.352.939-15.121,4.27-31.261,10.183-49.343a.906.906,0,0,1,1.722.563c-5.865,17.933-9.167,33.926-10.1,48.892-1.289,20.764.518,41.677,2.651,63.06,2.034,20.393,3.49,40.668,4.453,61.986.162,3.591.344,7.245.52,10.778.489,9.831.995,20,1.136,30.009.076,5.354.548,10.9,1,16.265.533,6.254,1.083,12.721,1.026,19.029A.906.906,0,0,1,1371.564,1348.1Z" transform="translate(-1359.436 -1095.997)" fill="#222b5a"/>
          </g>
          <g id="Grupo_898738" data-name="Grupo 898738" transform="translate(316.961 483.938)">
            <path id="Trazado_648297" data-name="Trazado 648297" d="M1480.957,1714.692a.905.905,0,0,1-.584-1.6c9.595-8.086,16.318-16.156,19.98-23.987a.906.906,0,0,1,1.641.768c-3.775,8.07-10.656,16.349-20.454,24.6A.9.9,0,0,1,1480.957,1714.692Z" transform="translate(-1480.051 -1688.584)" fill="#222b5a"/>
          </g>
          <g id="Grupo_898739" data-name="Grupo 898739" transform="translate(7.05 110.128)">
            <path id="Trazado_648298" data-name="Trazado 648298" d="M531.572,535.741a1.017,1.017,0,0,1-.38-.074c-.4-.161-.8-.347-1.179-.527a14.634,14.634,0,0,0-1.617-.685c-2.832-.929-5.669-2.134-8.412-3.3l-.793-.336a1.019,1.019,0,0,1,.795-1.876l.794.337c2.7,1.149,5.5,2.336,8.251,3.239a16.249,16.249,0,0,1,1.848.776c.375.176.728.342,1.074.481a1.019,1.019,0,0,1-.381,1.964Z" transform="translate(-518.57 -528.862)" fill="#a19086"/>
          </g>
          <g id="Grupo_898740" data-name="Grupo 898740" transform="translate(6.627 105.818)">
            <path id="Trazado_648299" data-name="Trazado 648299" d="M532.142,521.9a1.982,1.982,0,0,1-.681-.15l-.084-.03c-.395-.131-.73-.254-1.024-.374l-.23-.095a9.953,9.953,0,0,0-1.622-.561c-2.692-.635-5.381-1.52-7.982-2.377-.853-.281-1.7-.561-2.55-.831a1.019,1.019,0,0,1,.619-1.941c.852.272,1.709.554,2.568.837,2.56.843,5.207,1.715,7.813,2.329a11.869,11.869,0,0,1,1.929.66l.226.093c.253.1.547.21.9.328l.087.03a1.024,1.024,0,0,1,1.021.683,1.047,1.047,0,0,1-.252,1.1A1.012,1.012,0,0,1,532.142,521.9Zm-.94-.733h0Z" transform="translate(-517.257 -515.492)" fill="#a19086"/>
          </g>
          <g id="Grupo_898741" data-name="Grupo 898741" transform="translate(6.987 101.28)">
            <path id="Trazado_648300" data-name="Trazado 648300" d="M533.212,508.359a2.058,2.058,0,0,1-1.129-.433,1.676,1.676,0,0,0-.147-.1,24.5,24.5,0,0,0-4.74-1.637c-.62-.168-1.26-.343-1.894-.534-.445-.134-4.565-1.531-6.315-2.3a1.019,1.019,0,0,1,.815-1.867c1.647.719,5.676,2.087,6.089,2.212.607.183,1.234.354,1.84.518a26.427,26.427,0,0,1,5.128,1.787,3.432,3.432,0,0,1,.363.222l.1.069a1.019,1.019,0,0,1,.31,1.983A1.307,1.307,0,0,1,533.212,508.359Z" transform="translate(-518.376 -501.412)" fill="#a19086"/>
          </g>
          <g id="Grupo_898742" data-name="Grupo 898742" transform="translate(0 61.959)">
            <path id="Trazado_648301" data-name="Trazado 648301" d="M513.385,418.969h-.008a1.019,1.019,0,0,1-1.011-1.026,30.058,30.058,0,0,1,.967-6.365c.268-1.187.522-2.308.694-3.432.137-.9.263-1.808.39-2.722a52.024,52.024,0,0,1,2.28-10.78q.14-.382.286-.742a13.75,13.75,0,0,1-2.059-.6,10.439,10.439,0,0,1-4.4-2.97c-.293.289-.6.546-.893.786-.173.144-.345.286-.507.431a8.177,8.177,0,0,1-2.679,1.753,13.742,13.742,0,0,1-2.059.6q.146.361.286.743a52.009,52.009,0,0,1,2.28,10.78c.127.914.252,1.824.39,2.722.21,1.372.517,2.768.815,4.118a50.885,50.885,0,0,1,1.009,5.564,1.019,1.019,0,1,1-2.026.214,49.313,49.313,0,0,0-.972-5.34c-.3-1.382-.619-2.811-.838-4.249-.139-.907-.266-1.826-.394-2.75a50.51,50.51,0,0,0-2.175-10.359q-.248-.679-.516-1.278c-1.665.066-3.7-.023-4.812-1.247a3.107,3.107,0,0,1-.676-2.7,2.379,2.379,0,0,1,1.458-2.058,2.81,2.81,0,0,1,2.761.759,11.3,11.3,0,0,1,2.494,3.141l.071,0a8.7,8.7,0,0,0,2.232-.576,6.351,6.351,0,0,0,2-1.35c.18-.161.371-.32.563-.479a8.791,8.791,0,0,0,.981-.9,11.812,11.812,0,0,1-1.426-3.878c-.329-1.787-.12-4.2,1.552-5.122a1.693,1.693,0,0,1,1.7-.006c1.456.842,1.6,3.757,1.6,3.786a11.47,11.47,0,0,1-1,5.169,8.434,8.434,0,0,0,3.858,2.779,8.706,8.706,0,0,0,2.232.576l.071,0a11.3,11.3,0,0,1,2.493-3.141,2.81,2.81,0,0,1,2.762-.759,2.379,2.379,0,0,1,1.458,2.058,3.107,3.107,0,0,1-.676,2.7c-1.109,1.224-3.147,1.313-4.812,1.247q-.268.6-.516,1.277a50.505,50.505,0,0,0-2.174,10.359c-.128.924-.255,1.843-.394,2.75-.182,1.2-.456,2.4-.72,3.574a28.582,28.582,0,0,0-.917,5.931A1.018,1.018,0,0,1,513.385,418.969Zm9.05-29.007a1.552,1.552,0,0,0-.71.4,8.646,8.646,0,0,0-1.482,1.676,3.327,3.327,0,0,0,2.185-.586c.071-.078.285-.314.173-1.013a.893.893,0,0,0-.165-.476Zm-23.525.012a1.34,1.34,0,0,0-.143.464c-.112.7.1.935.173,1.013a3.328,3.328,0,0,0,2.185.586,8.653,8.653,0,0,0-1.482-1.677A1.3,1.3,0,0,0,498.91,389.975Zm11.325-8.381a4,4,0,0,0-.345,2.814,10.064,10.064,0,0,0,.529,1.87,10.937,10.937,0,0,0,.283-2.8A5.623,5.623,0,0,0,510.235,381.594Z" transform="translate(-496.699 -379.422)" fill="#ee4e5d"/>
          </g>
          <g id="Grupo_898743" data-name="Grupo 898743" transform="translate(107.915 368.334)">
            <path id="Trazado_648302" data-name="Trazado 648302" d="M847.373,1383.556a.906.906,0,0,1-.9-.774,158.218,158.218,0,0,0-6.691-26.271c-.874-2.65-1.929-5.376-2.949-8.013-2.2-5.679-4.471-11.552-5.328-17.534a.906.906,0,0,1,1.793-.257c.828,5.777,3.063,11.552,5.225,17.137,1.028,2.658,2.092,5.405,2.98,8.1a159.91,159.91,0,0,1,6.763,26.575.907.907,0,0,1-.764,1.028A.985.985,0,0,1,847.373,1383.556Z" transform="translate(-831.499 -1329.93)" fill="#222b5a"/>
          </g>
          <g id="Grupo_898744" data-name="Grupo 898744" transform="translate(292.921 269.087)">
            <path id="Trazado_648303" data-name="Trazado 648303" d="M1406.374,1040.465a.906.906,0,0,1-.838-1.248,64.567,64.567,0,0,1,5.579-10.065c1.367-2.151,2.78-4.375,3.959-6.639a.906.906,0,0,1,1.607.836c-1.215,2.334-2.65,4.592-4.037,6.775a63.2,63.2,0,0,0-5.43,9.779A.905.905,0,0,1,1406.374,1040.465Z" transform="translate(-1405.468 -1022.024)" fill="#222b5a"/>
          </g>
        </g>
      </g>
      <g id="Floor" transform="translate(932.284 7729.019)">
        <g id="Grupo_899462" data-name="Grupo 899462">
          <g id="Grupo_899461" data-name="Grupo 899461">
            <path id="Trazado_649230" data-name="Trazado 649230" d="M449.17,465.127s.466-.013,1.42-.019l4.359-.019v.074l-207.819.129-151.058-.049L50.3,465.191l-12.445-.031-3.236-.016c-.729,0-1.1-.016-1.1-.016s.374-.011,1.1-.018l3.236-.016,12.445-.031,45.776-.053,151.058-.048,207.819.128v.074l-4.359-.018C449.636,465.14,449.17,465.127,449.17,465.127Z" transform="translate(-33.511 -464.962)" fill="#12263f" stroke="#12263f" stroke-width="4"/>
          </g>
        </g>
      </g>
    </g>
  </g>
</svg>
