<svg xmlns="http://www.w3.org/2000/svg" width="685.213" height="441" viewBox="0 0 685.213 441">
  <g id="Grupo_1000269" data-name="Grupo 1000269" transform="translate(-707.427 -603)">
    <g id="Rectángulo_295080" data-name="Rectángulo 295080" transform="translate(707.427 603)" fill="none" stroke="#ee4e5d" stroke-width="3" opacity="0.47">
      <rect width="685.213" height="441" stroke="none"/>
      <rect x="1.5" y="1.5" width="682.213" height="438" fill="none"/>
    </g>
    <g id="Grupo_898985" data-name="Grupo 898985" transform="translate(431.521 467.581)">
      <path id="Trazado_648695" data-name="Trazado 648695" d="M884.166,618.6c-36.838,0-534.878-1.075-534.878-1.135-.205-.483-63.224-77.721,16.129-158.475,39.319-40.013-36.107-91.851,0-136.359,61.85-76.241,123.048-33.3,174.03-54.746,9.008-3.785,18.047-9.877,27.1-19.226a100.742,100.742,0,0,1,16.651-13.824q1.375-.916,2.777-1.787a110.9,110.9,0,0,1,11.11-6.03q3.85-1.816,7.846-3.358h0a128.349,128.349,0,0,1,13-4.234,147.112,147.112,0,0,1,19.395-3.8q4.326-.563,8.722-.889c56.965-4.282,121.073,19.805,154.156,55.012,6.661,7.089,36.948,43.772,13.073,94.192C798.2,395.77,861.355,426.173,883.8,462.525,940.848,554.947,884.684,617.395,884.166,618.6Z" transform="translate(0 -45.457)" fill="#e8e8e8"/>
      <g id="Grupo_898969" data-name="Grupo 898969" transform="translate(614.785 261.088)" opacity="0.8">
        <path id="Trazado_648696" data-name="Trazado 648696" d="M1630.109,682.732a72.923,72.923,0,0,1-5.556,11.859,72.434,72.434,0,0,1-134.76-31.673,71.16,71.16,0,0,1,.092-11.047,72.934,72.934,0,0,1,10.921-32.538c.03-.051.062-.1.092-.147a72.608,72.608,0,0,1,41.281-30.83c1.768-.506,3.561-.946,5.367-1.315a72.022,72.022,0,0,1,39.249,2.9q2.6.944,5.073,2.063a71.93,71.93,0,0,1,29.352,24.233h0a72.7,72.7,0,0,1,11.582,26.279q.665,3.038,1.074,6.136a72.091,72.091,0,0,1-3.769,34.085Z" transform="translate(-1489.621 -585.559)" fill="#d2e1f1"/>
        <g id="Grupo_898968" data-name="Grupo 898968" transform="translate(11.184 1.481)">
          <path id="Trazado_648697" data-name="Trazado 648697" d="M1583.811,623.6c-4.279,3.314-3.145,12.182-10.552,7.183s-12.057-7.715-14.154-3.354,4.464,6.75,2.737,11.5-5.243,5.255-8.947,1.352-3.815-7.659-9.817-7.535-8.564-2.344-8.271-6.85a6.346,6.346,0,0,0-.2-2.09c.03-.051.062-.1.092-.147a72.609,72.609,0,0,1,41.281-30.83c1.768-.506,3.561-.946,5.367-1.316a9.524,9.524,0,0,1,5.526,6.037c2.613,7.614,6.85,5.822,3.251,12.2s-2.118,7.943,1.811,9.113,8.458,2.817,7.839,5.925S1588.091,620.287,1583.811,623.6Z" transform="translate(-1534.61 -591.518)" fill="#c5d8d6"/>
          <path id="Trazado_648698" data-name="Trazado 648698" d="M1900.474,855.825a72.938,72.938,0,0,1-5.556,11.859,72.012,72.012,0,0,1-20.232,22.2,8.265,8.265,0,0,1-5.388-2.124c-7.253-6.48,2.359-13.363,7.42-16.711s-4.336-4.459-9.074-10.985,6.356-15.369-.773-15.847-15.8-.939-17.251-8.577,6.048-6.065,4.735-12.5,4.89-7.638,11.526-5.8,7.452-3.056,15.677-.835,4.353,12.344,13.426,14.873,7.936,4.422,7.936,4.422a4.374,4.374,0,0,1,1.7,1.057A72.545,72.545,0,0,1,1900.474,855.825Z" transform="translate(-1771.171 -760.133)" fill="#c5d8d6"/>
          <path id="Trazado_648699" data-name="Trazado 648699" d="M1957.75,735.924c-8.637.9-8.054-9.88-15.389-9.241-7.394.644-4.23-4.613-7.89-10.044s-16.006-2.487-13.5-7.981,9.4-1.195,12.631-5.144,10.06-.186,10.06-.186a5.217,5.217,0,0,1,1.426.18s0,0,0,0a72.688,72.688,0,0,1,11.582,26.279Q1957.342,732.826,1957.75,735.924Z" transform="translate(-1824.677 -674.317)" fill="#c5d8d6"/>
          <path id="Trazado_648700" data-name="Trazado 648700" d="M1799.155,632.129s5.865-4.153.35-8.011-6.181-1.674-10.75-3.908-7.773.765-5.669,6.078,2.188,14.071,6.906,11.134S1795.221,631.147,1799.155,632.129Z" transform="translate(-1720.822 -612.516)" fill="#c5d8d6"/>
        </g>
      </g>
      <path id="Trazado_648701" data-name="Trazado 648701" d="M483.977,1752.405h25.256c1.353-1.148-.937-3.755-3.329-3.931a14.751,14.751,0,0,0-3.855.456c-.348-4.616-2.332-25.367-9.812-24.534-8.41.934,0,9.138,2.378,14a115.487,115.487,0,0,1,4.468,11.193c-.683.148-1.39.293-2.112.426-1.115-3.423-5.263-14.936-10.537-14.265-6.193.785-3.7,5.4.686,8.141,3.22,2.015,7.175,4.879,9.054,6.263a26.839,26.839,0,0,1-4.939.4C486.907,1750.444,484.8,1751.719,483.977,1752.405Z" transform="translate(-118.239 -1180.189)" fill="#179587"/>
      <path id="Trazado_648702" data-name="Trazado 648702" d="M2032.633,1758.433h-23.458c-1.257-1.066.87-3.488,3.092-3.651a13.722,13.722,0,0,1,3.58.423c.323-4.287,2.166-23.562,9.114-22.788,7.812.867,0,8.489-2.208,13a107.4,107.4,0,0,0-4.15,10.4c.635.138,1.291.272,1.962.4,1.036-3.179,4.888-13.873,9.788-13.25,5.752.729,3.44,5.017-.637,7.562-2.991,1.872-6.664,4.532-8.41,5.817a24.875,24.875,0,0,0,4.588.367C2029.911,1756.612,2031.872,1757.8,2032.633,1758.433Z" transform="translate(-1264.953 -1186.218)" fill="#179587"/>
      <g id="Grupo_898970" data-name="Grupo 898970" transform="translate(761.628 381.301)">
        <path id="Trazado_648703" data-name="Trazado 648703" d="M2154.648,1202.333s.559-5.553-2.345-5.363-3.673,1.522-3.349,2.589,3.149,4.6,3.149,4.6Z" transform="translate(-2131.844 -1165.189)" fill="#ffb27d"/>
        <path id="Trazado_648704" data-name="Trazado 648704" d="M2206.648,1227.028a47.4,47.4,0,0,1-10.128,8.137c-.655.414-1.339.831-2.062,1.25a76.628,76.628,0,0,1-9.471,4.66c-.4.165-.871.347-1.4.536-4.143,1.5-11.765,3.618-16.49,3.807-.411.016-.8.016-1.164,0-7.189-.29-8.066-28.2-8.066-28.2s.8-2.793,4.494-2.089c0,0,5.61,15.76,7.62,17.045,1.786,1.142,12.049-14.416,20.884-15.5C2196.813,1215.943,2206.648,1227.028,2206.648,1227.028Z" transform="translate(-2138.593 -1178.758)" fill="#179587"/>
        <path id="Trazado_648705" data-name="Trazado 648705" d="M2223.841,1803.554s.531,6.143-.768,6.782l-16.618-.034s0-1.918,2.669-2.344,7.358-1.989,8.152-5.469S2223.841,1803.554,2223.841,1803.554Z" transform="translate(-2175.102 -1619.202)" fill="#1c3154"/>
        <path id="Trazado_648706" data-name="Trazado 648706" d="M2227.162,1453.492c.082,4.017.274,8.16.652,11.884,1.795,17.669,2.426,39.018,2.684,43.134.447,7.145,1.859,18.56,1.859,18.56s2.8,2.657,8.256,1.389a185.835,185.835,0,0,0,5.532-33.751c.016-.284.031-.57.046-.855.117-2.289.239-4.906.365-7.727.832-18.9,1.734-46.979,1.734-46.979l-20.854-4.9S2226.957,1443.479,2227.162,1453.492Z" transform="translate(-2190.623 -1343.488)" fill="#222b5a"/>
        <path id="Trazado_648707" data-name="Trazado 648707" d="M2227.162,1453.492c5.285,9.118,15.358,25.917,19.394,32.633.832-18.9,1.734-46.979,1.734-46.979l-20.854-4.9S2226.957,1443.479,2227.162,1453.492Z" transform="translate(-2190.623 -1343.488)" fill="#233862"/>
        <path id="Trazado_648708" data-name="Trazado 648708" d="M2211.488,1300.938c-4.143,1.5-11.765,3.618-16.49,3.807.722-.135,5.983-1.177,7.928-3.526,2.089-2.525,5.606-9.381,8.4-6.583C2212.648,1295.954,2212.261,1298.557,2211.488,1300.938Z" transform="translate(-2166.493 -1238.085)" fill="#6385db"/>
        <path id="Trazado_648709" data-name="Trazado 648709" d="M2388.2,1498.768s1.294,5.076,1.082,6.2-1.476,4.948-2.264,5.9-.82-4.12-1.344-4.916-.24,1.892-.66,2.112-1.12-2.036-1.432-2.836,1.12-3.584,1.252-5.58S2388.2,1498.768,2388.2,1498.768Z" transform="translate(-2308.163 -1391.734)" fill="#ffb27d"/>
        <path id="Trazado_648710" data-name="Trazado 648710" d="M2410.534,1778.791s2.958,2.7,2.381,4.617-3.246,3.2-3.607,5.541-1.8,3.623-3.1,3.623h-6.191s-.956-1.65,1.352-2.147,3.179-3.252,3.035-5.808a45.083,45.083,0,0,1,.216-5.967l4.906-1.136Z" transform="translate(-2320.398 -1601.42)" fill="#1c3154"/>
        <path id="Trazado_648711" data-name="Trazado 648711" d="M2241.641,1436.484s19.521,41.768,29.909,60.094,13.635,23.441,13.635,23.441,5.951-2.344,6.492-3.942c0,0-3.973-35.381-10.929-44.006-3.931-4.873-8.549-19.5-8.765-24.613s-4.777-17.321-4.777-17.321Z" transform="translate(-2201.542 -1340.399)" fill="#222b5a"/>
        <path id="Trazado_648712" data-name="Trazado 648712" d="M2226.919,1274.2a33.83,33.83,0,0,0,17.158,8.907c4.741.908,14.363,1.784,16.749-1.591.561-.792.565-1.966.441-3.8-.322-4.761-1.519-13.965,3.887-32.462a31.567,31.567,0,0,0,1.04-4.944c1.18-9.463,1.052-16.606-7.158-20.422-12.3-5.718-17.351-1.013-17.351-1.013s-6.542,3.057-9.532,11.967C2226.176,1248.661,2226.919,1274.2,2226.919,1274.2Z" transform="translate(-2190.457 -1180.283)" fill="#179587"/>
        <path id="Trazado_648713" data-name="Trazado 648713" d="M2298.077,1184.961a9.132,9.132,0,0,1-9.189.6c-.267-.134-.234-1.971-.167-3.776.067-1.771.234-3.509.234-3.509l4.377-2.873,4.177-2.74C2297.008,1182.088,2299.013,1184.293,2298.077,1184.961Z" transform="translate(-2236.883 -1146.93)" fill="#ffb27d"/>
        <path id="Trazado_648714" data-name="Trazado 648714" d="M2296.916,1184.839a13.451,13.451,0,0,1-8.053,5.232c.067-1.771.256-3.722.256-3.722l4.355-2.66Z" transform="translate(-2237.025 -1155.214)" fill="#ed985f"/>
        <path id="Trazado_648715" data-name="Trazado 648715" d="M2270.591,1138.93s10.59,3.952,12.946-2.573,5.31-10.409-1.352-13.208-8.882-.78-10.207,1.206S2267.9,1137.733,2270.591,1138.93Z" transform="translate(-2222.439 -1108.689)" fill="#ffb27d"/>
        <path id="Trazado_648716" data-name="Trazado 648716" d="M2286.143,1110.886c.122-.094.369-.141.885-.068a2.113,2.113,0,0,0-.9-.457,2.614,2.614,0,0,0-1.256-2.606,1.56,1.56,0,0,1,.524,1.25c-1.127-1.731-3.947-3.386-12.464-4.381-11.225-1.311-8.981,6.486-7.716,7.612s5.323-.475,7.947.263,2.37,4.691,3.17,5.4.629-.3,1.962-.609,1.049,1.74.435,2.988.724,3.32.724,3.32l2.061-1.495c2.061-1.494,5.193-8.929,4.747-10.734C2286.222,1111.209,2286.184,1111.048,2286.143,1110.886Z" transform="translate(-2218.448 -1095.693)" fill="#2c3a64"/>
        <path id="Trazado_648717" data-name="Trazado 648717" d="M2345.345,1346.975c-.321-4.761-1.519-13.965,3.888-32.462a31.556,31.556,0,0,0,1.039-4.944h0c-4.017-1.325-11.336,1.622-11.336,1.622S2337.215,1335.641,2345.345,1346.975Z" transform="translate(-2274.535 -1249.544)" fill="#0a7a6d"/>
        <path id="Trazado_648718" data-name="Trazado 648718" d="M2311.811,1233.426s4.943,1.8,8.1,14.885c2.083,8.647,5.918,21.357,6.351,25.35s-4.384,27.377-4.384,27.377a3.137,3.137,0,0,1-2.344.162,3.873,3.873,0,0,1-2.335-1.4s-1.151-15.585-.854-22.943c.124-3.057-14.153-22.39-21.858-24.881C2291.457,1251,2311.811,1233.426,2311.811,1233.426Z" transform="translate(-2241.017 -1192.587)" fill="#179587"/>
        <path id="Trazado_648719" data-name="Trazado 648719" d="M2086.991,1094.2a164.427,164.427,0,0,1,30.773,2.629l1.723-4.34,1.889-4.755s-16.552-7.125-26.5-17.048Z" transform="translate(-2085.336 -1070.299)" fill="#222b5a"/>
        <path id="Trazado_648720" data-name="Trazado 648720" d="M2090.1,1069.294l-8.2,24.213h0a2.182,2.182,0,0,1-1.437-2.822l7.219-20.344a1.8,1.8,0,0,1,2.42-1.047Z" transform="translate(-2080.332 -1069.142)" fill="#f99746"/>
        <path id="Trazado_648721" data-name="Trazado 648721" d="M2143.93,1177.355h0a2.966,2.966,0,0,0,3.479-2.32l2.825-14.131a2.966,2.966,0,0,0-2.321-3.479h0a2.966,2.966,0,0,0-3.479,2.32l-2.825,14.131A2.966,2.966,0,0,0,2143.93,1177.355Z" transform="translate(-2126.333 -1135.435)" fill="#f99746"/>
        <path id="Trazado_648722" data-name="Trazado 648722" d="M2086.991,1156.876a164.415,164.415,0,0,1,30.773,2.629l1.723-4.34C2104,1152,2086.991,1156.876,2086.991,1156.876Z" transform="translate(-2085.336 -1132.978)" fill="#505d9f"/>
        <path id="Trazado_648723" data-name="Trazado 648723" d="M2192.449,1140.029l4.464.785c-.068,0,4.147.82,5.528-2.916a3.017,3.017,0,0,0,.265-.806c1.074-4.656-1.483-5.514-1.483-5.514l-5.745-2.239-1.825,6.46v.023Z" transform="translate(-2164.578 -1114.375)" fill="#f99746"/>
        <path id="Trazado_648724" data-name="Trazado 648724" d="M2192.449,1159.556l4.464.785c-.068,0,4.147.82,5.528-2.915-2.525-1.837-8.788-2.1-8.788-2.1v.023Z" transform="translate(-2164.578 -1133.902)" fill="#ed7d2b"/>
        <path id="Trazado_648725" data-name="Trazado 648725" d="M2146.773,1182.352s2.184.87,1.783,1.832-3.177,2.284-3.616,1.525S2145.4,1181.541,2146.773,1182.352Z" transform="translate(-2128.796 -1154.116)" fill="#ffb27d"/>
        <path id="Trazado_648726" data-name="Trazado 648726" d="M2170.272,1199.449a30.514,30.514,0,0,0,.438-3.26c.026-1.026.147-1.865-.095-1.894s-.417.16-.516.49-.477,2.377-.477,2.377l.191,1.975Z" transform="translate(-2147.426 -1163.181)" fill="#ffb27d"/>
      </g>
      <g id="Grupo_898972" data-name="Grupo 898972" transform="translate(434.118 336.056)">
        <path id="Trazado_648727" data-name="Trazado 648727" d="M1265.6,1204.963l-12.373,147.115s-1.3,8.918,5.337,8.933c10.906.026,54.286,0,54.286,0s-8.209-1.856-8.109-6.033c.117-4.923,14.461-151.408,14.461-151.408Z" transform="translate(-1131.251 -1124.909)" fill="#7599ea"/>
        <path id="Trazado_648728" data-name="Trazado 648728" d="M1327.715,1350.333c-2.145.006-44.142.077-54.763-.059-4.629-.058-5.441-4.116-5.479-6.742a13.152,13.152,0,0,1,.14-2.19l.322-3.824.82-9.746.724-8.61.931-11.064.784-9.339,8.792-104.535,53.6-1.391s-6.041,61.3-10.314,105.926c-.477,4.972-.931,9.739-1.35,14.189q-.2,2.131-.394,4.162c-.4,4.222-.759,8.1-1.074,11.522-.166,1.8-.32,3.481-.458,5.017-.545,6.018-.865,9.861-.869,10.591a6.191,6.191,0,0,0,.1,1.191C1320.112,1350.121,1326.909,1350.333,1327.715,1350.333Z" transform="translate(-1142.029 -1116.84)" fill="#727997"/>
        <path id="Trazado_648729" data-name="Trazado 648729" d="M779.653,887.135l30.138,121.057,4.126,16.579,14.037,56.385h260.78L1037,887.135Z" transform="translate(-775.475 -887.135)" fill="#12263f"/>
        <path id="Trazado_648730" data-name="Trazado 648730" d="M767.026,887.134l-4.177,1.392,46.926,196.841,5.553-4.211Z" transform="translate(-762.849 -887.134)" fill="#222b5a"/>
        <path id="Trazado_648731" data-name="Trazado 648731" d="M951.617,1671.845h259.175l7.157-4.211H957.17Z" transform="translate(-904.692 -1473.611)" fill="#222b5a"/>
        <rect id="Rectángulo_301916" data-name="Rectángulo 301916" width="56.115" height="2.667" transform="translate(194.055 236.16) rotate(180)" fill="#aec3ff"/>
        <path id="Trazado_648732" data-name="Trazado 648732" d="M1325.7,1684.568l-.29,2.039-52.773,10.662.724-8.61.345-4.09Z" transform="translate(-1145.91 -1486.336)" fill="#222b5a"/>
        <path id="Trazado_648733" data-name="Trazado 648733" d="M1327.72,1775.984c-2.145.006-44.142.078-54.763-.059-4.629-.058-5.441-4.116-5.479-6.742L1320,1759.3c-.545,6.018-.865,9.861-.869,10.591a6.183,6.183,0,0,0,.1,1.191C1320.117,1775.772,1326.914,1775.984,1327.72,1775.984Z" transform="translate(-1142.033 -1542.491)" fill="#222b5a" opacity="0.4"/>
        <path id="Trazado_648734" data-name="Trazado 648734" d="M779.651,887.134H1037l41.755,155.932H818.47Z" transform="translate(-775.474 -887.134)" fill="#12263f"/>
        <path id="Trazado_648735" data-name="Trazado 648735" d="M1098.832,1061.558H857.879l-8.61-34.3-3.331-13.272-1.358-5.412-8.85-35.25-.459-1.835-4.678-18.633-2.092-8.337-1.786-7.112-4.185-16.671h237.479l4.6,16.671,1.959,7.112,2.3,8.337L1084,1007.78v0l1.284,4.653.6,2.16,10.454,37.919Z" transform="translate(-807.694 -912.383)" fill="#e8e8e8"/>
        <path id="Trazado_648736" data-name="Trazado 648736" d="M1064.609,937.406H826.718l-4.185-16.673h237.479Z" transform="translate(-807.697 -912.381)" fill="#afafaf"/>
        <g id="Grupo_898971" data-name="Grupo 898971" transform="translate(24.597 13.803)">
          <path id="Trazado_648737" data-name="Trazado 648737" d="M861.859,944.744a1.575,1.575,0,0,1,1.565-2.084,2.847,2.847,0,0,1,2.6,2.084,1.575,1.575,0,0,1-1.564,2.084A2.847,2.847,0,0,1,861.859,944.744Z" transform="translate(-861.795 -942.66)" fill="#e9f3fe"/>
          <path id="Trazado_648738" data-name="Trazado 648738" d="M889.717,944.744a1.575,1.575,0,0,1,1.565-2.084,2.847,2.847,0,0,1,2.6,2.084,1.575,1.575,0,0,1-1.565,2.084A2.847,2.847,0,0,1,889.717,944.744Z" transform="translate(-882.728 -942.66)" fill="#e9f3fe"/>
          <path id="Trazado_648739" data-name="Trazado 648739" d="M919.714,944.744a1.575,1.575,0,0,1,1.565-2.084,2.847,2.847,0,0,1,2.6,2.084,1.575,1.575,0,0,1-1.565,2.084A2.847,2.847,0,0,1,919.714,944.744Z" transform="translate(-905.268 -942.66)" fill="#e9f3fe"/>
        </g>
      </g>
      <path id="Trazado_648740" data-name="Trazado 648740" d="M1545.233,247.482c9.739-11.435,24.757-34.4,34.867-46.166a3.73,3.73,0,0,0-2.841-6.157h-18.4l17.354-39.241a1.538,1.538,0,0,0-2.639-1.543l-41.961,56.162a2.322,2.322,0,0,0,2.144,3.695l20.829-2.565L1542.2,245.707A1.787,1.787,0,0,0,1545.233,247.482Z" transform="translate(-906.039 0)" fill="#f1b62b"/>
      <path id="Trazado_648741" data-name="Trazado 648741" d="M1170.195,588.932c2.191-11.237,3.574-32.111,5.89-43.7a2.843,2.843,0,0,0-4.19-3.027l-12.22,6.882-3.152-32.555a1.173,1.173,0,0,0-2.33-.037l-6.862,53a1.77,1.77,0,0,0,2.806,1.652l12.875-9.495,4.5,27.244A1.362,1.362,0,0,0,1170.195,588.932Z" transform="translate(-617.623 -271.804)" fill="#f1b62b"/>
      <g id="Grupo_898976" data-name="Grupo 898976" transform="translate(495.711 257.88)">
        <path id="Trazado_648742" data-name="Trazado 648742" d="M1274.735,827.359,1065.366,845a20.958,20.958,0,0,1-20.894-29.433l88.7-198.515a20.958,20.958,0,0,1,36.568-3.081l120.667,180.875A20.958,20.958,0,0,1,1274.735,827.359Z" transform="translate(-1034.665 -596.689)" fill="#e6efff"/>
        <g id="Grupo_898973" data-name="Grupo 898973">
          <path id="Trazado_648743" data-name="Trazado 648743" d="M1251.359,811.244l-209.368,17.64a28.9,28.9,0,0,1-28.817-40.595l88.7-198.516a28.9,28.9,0,0,1,50.436-4.249L1272.977,766.4a28.9,28.9,0,0,1-21.618,44.844ZM1127.174,588.6a12.845,12.845,0,0,0-10.786,7.657l-88.7,198.516a13.009,13.009,0,0,0,12.97,18.271l209.369-17.64a13.01,13.01,0,0,0,9.731-20.184L1139.089,594.345A12.844,12.844,0,0,0,1127.174,588.6Z" transform="translate(-1010.622 -572.655)" fill="#ee4e5d"/>
        </g>
        <g id="Grupo_898975" data-name="Grupo 898975" transform="translate(100.903 59.017)">
          <g id="Grupo_898974" data-name="Grupo 898974">
            <path id="Trazado_648744" data-name="Trazado 648744" d="M1427.271,951.346a19.147,19.147,0,0,1,.815-7.6,17.551,17.551,0,0,1,3.583-6.293,18.819,18.819,0,0,1,6.015-4.46,23.458,23.458,0,0,1,8.237-2.115,24,24,0,0,1,8.537.7,18.713,18.713,0,0,1,6.74,3.385,17.572,17.572,0,0,1,4.585,5.6,19.182,19.182,0,0,1,2.076,7.36,18.734,18.734,0,0,1-.82,7.542,17.682,17.682,0,0,1-3.588,6.231,18.65,18.65,0,0,1-6.078,4.465,23.993,23.993,0,0,1-8.3,2.12,23.458,23.458,0,0,1-8.475-.707,18.759,18.759,0,0,1-6.677-3.39,17.667,17.667,0,0,1-4.58-5.543A18.7,18.7,0,0,1,1427.271,951.346Zm32.369-37.876-30.158,2.541-12.954-102.685,38.7-3.261Z" transform="translate(-1416.528 -810.065)" fill="#f1b62b"/>
          </g>
        </g>
      </g>
      <g id="Grupo_898980" data-name="Grupo 898980" transform="translate(411.149 381.932)">
        <path id="Trazado_648745" data-name="Trazado 648745" d="M936.749,1237.681s.657-1.477,1.082-2.176,2.242-2.747,2.551-2.284,1.546,3.585.889,4.459.043,2.395-3.225,3.315Z" transform="translate(-870.551 -1193.014)" fill="#ffb27d"/>
        <path id="Trazado_648746" data-name="Trazado 648746" d="M790.676,1213.861s16.727,13.963,23.249,12.67c5.1-1.011,13.163-3.568,13.163-3.568s2.128,2.024,1.526,4.45c0,0-10.272,9.666-17.591,9.728-11.439.1-16.835-5.669-16.835-5.669Z" transform="translate(-760.79 -1178.517)" fill="#f1b62b"/>
        <path id="Trazado_648747" data-name="Trazado 648747" d="M672.668,1798.69s.486,7.833,2,7.945c.2.015,7.686.015,7.686.015l9.555-.055a3.1,3.1,0,0,0-2.856-2.789c-2.793-.487-7.467-2.45-9.159-6.141C678.115,1793.781,672.668,1798.69,672.668,1798.69Z" transform="translate(-672.117 -1616.071)" fill="#113c68"/>
        <path id="Trazado_648748" data-name="Trazado 648748" d="M670.453,1516.185a19.924,19.924,0,0,0,5.172.971,19,19,0,0,0,4.829-.689s.547-5.288,3.556-16.94c1.578-6.107,3.831-13.959,7.036-23.717,8.862-26.967,11.558-42.742,11.8-44.236.013-.078.018-.118.018-.118l-.029-.013-27.247-11.963s3.368,37.166-.929,51.432a60.054,60.054,0,0,0-1.56,6.834C670.39,1493.243,670.453,1516.185,670.453,1516.185Z" transform="translate(-670.452 -1333.022)" fill="#222b5a"/>
        <path id="Trazado_648749" data-name="Trazado 648749" d="M696.657,1499.528c1.578-6.107,3.83-13.959,7.036-23.717,8.862-26.967,11.558-42.742,11.8-44.236,0-.045-.005-.087-.01-.131l-27.246-11.963s3.368,37.166-.929,51.432C686.708,1472.906,696.657,1499.528,696.657,1499.528Z" transform="translate(-683.1 -1333.022)" fill="#233862"/>
        <path id="Trazado_648750" data-name="Trazado 648750" d="M758.276,1798.69s.486,7.833,2,7.945c.2.015,7.686.015,7.686.015l9.555-.055a3.1,3.1,0,0,0-2.855-2.789c-2.793-.487-7.468-2.45-9.159-6.141C763.723,1793.781,758.276,1798.69,758.276,1798.69Z" transform="translate(-736.444 -1616.071)" fill="#15447c"/>
        <path id="Trazado_648751" data-name="Trazado 648751" d="M732.852,1423.005a387.87,387.87,0,0,1-3.813,53.655c-4.167,29.571-2.755,42.123-2.755,42.123a28.352,28.352,0,0,1-4.018,1.022,18.234,18.234,0,0,1-5.962-.69s-5.964-29.582-4.254-44.383-8.167-50.788-8.167-50.788Z" transform="translate(-695.573 -1335.671)" fill="#222b5a"/>
        <path id="Trazado_648752" data-name="Trazado 648752" d="M742.7,1160.3l5.318,3.488,4.845-1.37c.885-1.263,1.12-3.7,1.133-5.808a36.139,36.139,0,0,0-.19-3.868l-7.175-3.167-2.678-1.18c.008.042.208,2.2.237,2.514A18.316,18.316,0,0,1,742.7,1160.3Z" transform="translate(-724.739 -1129.323)" fill="#ffb27d"/>
        <path id="Trazado_648753" data-name="Trazado 648753" d="M719.411,1253.233c-6.62,6.391-31.674,5.316-33.218-1.726s1.684-59.948,12.992-63.271c2.347-.69,14.892,3.365,14.892,3.365a79.537,79.537,0,0,1,3.259,11.706c.251,1.276.982,14.8,1.529,27.444.255,5.916.471,11.642.582,15.835A45.679,45.679,0,0,1,719.411,1253.233Z" transform="translate(-682.009 -1159.203)" fill="#f1b62b"/>
        <path id="Trazado_648754" data-name="Trazado 648754" d="M750.233,1154.569c1.456,2.461,6.564,4.615,9.27,5.6a36.143,36.143,0,0,0-.19-3.868l-7.175-3.167C750.551,1153.116,749.585,1153.47,750.233,1154.569Z" transform="translate(-730.247 -1132.887)" fill="#fca56b"/>
        <path id="Trazado_648755" data-name="Trazado 648755" d="M749.526,1106.6s-11.562,3.607-13.7-3.628-5.065-11.641,2.226-14.25,9.547-.273,10.847,1.968S752.478,1105.477,749.526,1106.6Z" transform="translate(-717.754 -1083.623)" fill="#ffb27d"/>
        <path id="Trazado_648756" data-name="Trazado 648756" d="M733.244,1078.055s-.737,8.419-2.478,8.053-3.658-1.147-3.4,1.391-1.693,6.888-4.2,6.878c-5.384-.022-11.234-13.839-9.76-16.458C717.652,1070.358,739.391,1068.833,733.244,1078.055Z" transform="translate(-702.549 -1071.683)" fill="#163560"/>
        <path id="Trazado_648757" data-name="Trazado 648757" d="M751.363,1178.478c-.149-.063-8.607-3.857-9.6-3.53s-2.222,3.348-2.222,3.348l14.893,3.367A7.4,7.4,0,0,0,751.363,1178.478Z" transform="translate(-722.369 -1149.262)" fill="#ed7d2b"/>
        <g id="Grupo_898978" data-name="Grupo 898978" transform="translate(29.803 5.332)">
          <path id="Trazado_648758" data-name="Trazado 648758" d="M842.188,1340.328l-47.411,44.638c-.93.875-2.1,1.154-2.6.62l-1.6-1.7c-.5-.535-.154-1.687.775-2.562l47.411-44.638c.929-.875,2.1-1.154,2.6-.62l1.6,1.7C843.466,1338.3,843.117,1339.453,842.188,1340.328Z" transform="translate(-790.342 -1275.471)" fill="#1f4d84"/>
          <path id="Trazado_648759" data-name="Trazado 648759" d="M815.581,1443.79l-20.8,19.588c-.93.875-2.1,1.154-2.6.62l-1.6-1.7c-.5-.535-.154-1.687.775-2.562l20.805-19.588Z" transform="translate(-790.342 -1353.884)" fill="#739af0"/>
          <path id="Trazado_648760" data-name="Trazado 648760" d="M950.2,1141.134a37.161,37.161,0,1,0,61.593-37.344c-.19-.19-.385-.378-.583-.563a37.163,37.163,0,0,0-61.009,37.907Zm10.621-34.3a34.229,34.229,0,1,1,1.474,48.383A34.187,34.187,0,0,1,960.817,1106.837Z" transform="translate(-909.247 -1093.13)" fill="#1f4d84"/>
          <g id="Grupo_898977" data-name="Grupo 898977" transform="translate(42.27 2.934)" opacity="0.5">
            <path id="Trazado_648761" data-name="Trazado 648761" d="M1019.537,1162.611a34.229,34.229,0,1,1-1.475-48.38A34.087,34.087,0,0,1,1019.537,1162.611Z" transform="translate(-960.382 -1104.933)" fill="#b3cff9"/>
          </g>
        </g>
        <path id="Trazado_648762" data-name="Trazado 648762" d="M748.524,1291.846c-26.124-18.615-23.952-43.455-23.952-43.455,9.548,5.385,19.023,17.292,23.37,27.621C748.2,1281.927,748.414,1287.654,748.524,1291.846Z" transform="translate(-711.086 -1204.463)" fill="#ed7d2b"/>
        <g id="Grupo_898979" data-name="Grupo 898979" transform="translate(12.942 32.4)">
          <path id="Trazado_648763" data-name="Trazado 648763" d="M915.321,1382.868a7.132,7.132,0,0,0,3.337-2.061s.786.053-.129,1.729c-.077.14-.247.5-.375.755a.162.162,0,0,0,.137.234c1.063.081,2.132-.34,4.18.087.283.059.365.736.354,1.024a2.614,2.614,0,0,1-.551,1.784c-.33.435-1.251.9-3.3,1.729-.781.314-3.014.077-5.108-.642l-1.672-.775.519-3.108.42.088C913.8,1383.853,914.625,1383.038,915.321,1382.868Z" transform="translate(-865.042 -1336.363)" fill="#f1b62b"/>
          <path id="Trazado_648764" data-name="Trazado 648764" d="M731.168,1202.019s-23.473,4.469,6.906,38.461c4.858,5.436,31.108,12.515,31.108,12.515s2.662-2.265,1.32-4.1c0,0-18.074-13.125-22.05-15.211-1.789-.939-6.943-20.948-9.859-25.767A13.146,13.146,0,0,0,731.168,1202.019Z" transform="translate(-722.516 -1202.019)" fill="#f1b62b"/>
        </g>
        <path id="Trazado_648765" data-name="Trazado 648765" d="M939.31,1235.729a11.958,11.958,0,0,0,.917-2.241,12.4,12.4,0,0,1,1.515-3.429c.16-.159.685.047.747.731a3.979,3.979,0,0,1-.377,1.485,16.729,16.729,0,0,0-.5,2.95C941.252,1236.408,939.31,1235.729,939.31,1235.729Z" transform="translate(-872.475 -1190.651)" fill="#ffb27d"/>
      </g>
      <g id="Grupo_898982" data-name="Grupo 898982" transform="translate(450.68 257.496)">
        <g id="Grupo_898981" data-name="Grupo 898981" transform="translate(0 0)">
          <path id="Trazado_648766" data-name="Trazado 648766" d="M975.785,980.354a1.415,1.415,0,0,0-.253,1.514.011.011,0,0,0,0,.007,9.409,9.409,0,0,0,2.973,3.263c.179.145.338.276.477.4.037.032.073.064.107.1l.083.074c1.307,1.206.815,1.481,3.162,3.927,2.677,2.787,4.52,2.838,5.045,2.584.444-.216-.457-1.694-1.456-3.355-.048-.08-.1-.161-.145-.242-.133-.221-.265-.445-.4-.667-1.17-2-.869-2.937-.59-5.912.227-2.417,3.765-13.5,3.765-13.5l-5.131-.886s-1.548,8.828-3.251,10.187c-.911.724-1.93.733-2.805,1.27q-.093.056-.182.115A6.728,6.728,0,0,0,975.785,980.354Z" transform="translate(-939.139 -869.077)" fill="#ffb27d"/>
          <path id="Trazado_648767" data-name="Trazado 648767" d="M975.785,1015.334a1.415,1.415,0,0,0-.253,1.514.011.011,0,0,0,0,.007,10.9,10.9,0,0,0,2.978,3.253c.177.147.333.282.472.408.037.032.073.064.107.1s.055.051.083.074c1.307,1.206.815,1.481,3.162,3.927,2.677,2.787,4.52,2.838,5.045,2.584.444-.216-.457-1.694-1.456-3.355a11.41,11.41,0,0,1-4.772-3.519c-1.553-1.983-2.607-4.51-3.664-6.062l-.3-.057A6.742,6.742,0,0,0,975.785,1015.334Z" transform="translate(-939.139 -904.057)" fill="#233862"/>
          <path id="Trazado_648768" data-name="Trazado 648768" d="M1130.946,972.479c.316,1.584,2.574,1.321,5.1.7s1.923.117,5.513-.279,4.678-1.734,4.788-2.268c.1-.474-1.676-.641-3.578-.861-.239-.027-.48-.057-.72-.086-2.148-.27-3.721-1.657-5.672-2.8-1.848-1.079-4.6-5.474-4.6-5.474l-4.923.388s2.582,3.925,3.581,5.632a5.948,5.948,0,0,1,.482,3.355A6.331,6.331,0,0,0,1130.946,972.479Z" transform="translate(-1052.923 -864.393)" fill="#ffb27d"/>
          <path id="Trazado_648769" data-name="Trazado 648769" d="M1148.211,998.442c2.523-.615,1.923.117,5.513-.279s4.678-1.734,4.788-2.268c.1-.474-1.676-.641-3.578-.861l-.018.036a10.121,10.121,0,0,1-5.142,1.6c-2.436.058-5.015-.64-6.7-.614a6.331,6.331,0,0,0,.038,1.684C1143.43,999.321,1145.688,999.058,1148.211,998.442Z" transform="translate(-1065.09 -889.651)" fill="#233862"/>
          <path id="Trazado_648770" data-name="Trazado 648770" d="M1016.4,855.377l-4.607,12.383-6.014,16.169a9.734,9.734,0,0,1-3.192-.293,13.827,13.827,0,0,1-3.087-1.5s1.674-17.363,4.791-27.329a17.744,17.744,0,0,1,2.68-5.792C1011.8,843.312,1016.4,855.377,1016.4,855.377Z" transform="translate(-957.233 -778.779)" fill="#233862"/>
          <path id="Trazado_648771" data-name="Trazado 648771" d="M914.1,792.592c-2.62-.846-9.456-.016-16.871,1.323a5.029,5.029,0,0,1-5.192-2.347h0L873.383,790.1s-6.162,13.653-2.794,22.355a3.274,3.274,0,0,0,3.26,2.105h0s11.276.02,14.882.021c9.28,0,19.642-6.372,20.982-6.64,2.193-.438,3.069,3.949,5.261,8.556s20.612,20.407,20.612,20.407a16.2,16.2,0,0,0,4-.409,3.939,3.939,0,0,0,1.719-1.084S920.9,794.788,914.1,792.592Z" transform="translate(-859.611 -735.665)" fill="#2a4e96"/>
          <path id="Trazado_648772" data-name="Trazado 648772" d="M860.168,572.216a6.62,6.62,0,0,0-3.564-.928,9.93,9.93,0,0,1-1.721-.105c-7.121-1.047-11.414,9.3-11.666,12.422-.463,5.738-3.5,6.612-7.774,10.2-8.57,7.2-6.061,15.578-1.377,18.691,2.81,1.868,7.766,0,7.766,0,.07.049,13.552-7.531,20.2-11.187C871.992,599.9,864.169,574.6,860.168,572.216Z" transform="translate(-829.701 -571.108)" fill="#233862"/>
          <path id="Trazado_648773" data-name="Trazado 648773" d="M909.651,648.5c.029.019-3.27,1.144-5.475.167-2.075-.918-3.646-4.332-3.615-4.334.944-.043,1.98-.868,2.781-6.283l.4.144,6.757,2.434s-.49,2.168-.808,4.233C909.426,646.589,909.282,648.25,909.651,648.5Z" transform="translate(-882.889 -621.405)" fill="#ffb27d"/>
          <path id="Trazado_648774" data-name="Trazado 648774" d="M920.122,641.06s-.27,1.17-.664,3.355a7.631,7.631,0,0,1-6.093-5.789Z" transform="translate(-892.51 -621.842)" fill="#ed975d"/>
          <path id="Trazado_648775" data-name="Trazado 648775" d="M919.083,607.911s-9.246-1.244-8.382-6.99.252-9.776,6.191-9.225,6.755,2.916,6.933,4.9S921.51,608.087,919.083,607.911Z" transform="translate(-890.466 -586.541)" fill="#ffb27d"/>
          <path id="Trazado_648776" data-name="Trazado 648776" d="M915.474,591.916s-5.921,5.1-9.947,5.509-5.55-.883-5.55-.883a15.719,15.719,0,0,0,3.8-5.149,2.833,2.833,0,0,1,2.334-1.668C908.989,589.477,914.439,589.366,915.474,591.916Z" transform="translate(-882.451 -585.006)" fill="#233862"/>
          <path id="Trazado_648777" data-name="Trazado 648777" d="M947.434,593.72a14.579,14.579,0,0,1,2.6,3.336,11.2,11.2,0,0,1,.3,5.95s3.087-6,1.341-8.913C949.828,591,947.434,593.72,947.434,593.72Z" transform="translate(-918.11 -587.268)" fill="#233862"/>
          <path id="Trazado_648778" data-name="Trazado 648778" d="M893.43,680.451c-.286,18.717-.082,14.806-2.13,16.581-.493.427-1.88.682-3.706.8-5.739.379-15.828-.57-16.211-1.63-1.323-3.671-.388-4.81-1.49-10.429-.115-.6-.257-1.244-.424-1.949-.919-3.859-1.815-5.172,1.454-11.371,2.965-5.615,6.044-10.172,6.321-10.007,7.815,4.643,8.447.743,8.447.743S893.571,671.322,893.43,680.451Z" transform="translate(-858.887 -639.738)" fill="#ee4e5d"/>
          <path id="Trazado_648779" data-name="Trazado 648779" d="M1011.792,889.891l-6.014,16.169a9.733,9.733,0,0,1-3.192-.293,13.831,13.831,0,0,1-3.087-1.5s1.674-17.363,4.791-27.329Z" transform="translate(-957.233 -800.91)" fill="#2a4e96"/>
          <path id="Trazado_648780" data-name="Trazado 648780" d="M937.3,665.444s8.043,1.366,8.986,4.83,4.045,24.484,4.045,24.484-2.269,2.214-4.157.325-5.938-19.668-5.938-19.668Z" transform="translate(-910.494 -641.993)" fill="#ee4e5d"/>
          <path id="Trazado_648781" data-name="Trazado 648781" d="M891.449,744.8c-5.739.379-15.828-.57-16.211-1.631-1.322-3.671-.388-4.81-1.49-10.429l2.771-7.794s-.461,8.68,2.1,10.964,10.479,4.411,11.723,6.319A6.984,6.984,0,0,1,891.449,744.8Z" transform="translate(-862.742 -686.703)" fill="#e33848"/>
          <path id="Trazado_648782" data-name="Trazado 648782" d="M918.508,787.473s5.663-1.259,6.576-.756a13.3,13.3,0,0,1,3.425,2.97c.279.637-2.034-.484-2.786-.686a6.7,6.7,0,0,0-2.405.526,7.994,7.994,0,0,1-4.31.431Z" transform="translate(-896.375 -733.03)" fill="#ffb27d"/>
          <path id="Trazado_648783" data-name="Trazado 648783" d="M847.825,662.444s-7.6.466-10.236,4.135c-3.707,5.166-11.064,27.185-6.853,30.123,4.742,3.309,21.588.873,21.588.873s.562-2.62-.218-3.888-13.453-3.319-14.038-3.9,7.316-11.4,7.317-13.159S847.825,662.444,847.825,662.444Z" transform="translate(-829.473 -639.739)" fill="#ee4e5d"/>
          <path id="Trazado_648784" data-name="Trazado 648784" d="M946.061,793.416a10.961,10.961,0,0,0,1.575,1.714,1.161,1.161,0,0,0,.64.137l-.8-1.439Z" transform="translate(-917.079 -738.153)" fill="#ffb27d"/>
          <path id="Trazado_648785" data-name="Trazado 648785" d="M944.961,787.076l3.449,1.676a.615.615,0,0,1-.572.221,8.231,8.231,0,0,1-1.5-.412Z" transform="translate(-916.252 -733.389)" fill="#ffb27d"/>
        </g>
        <path id="Trazado_648786" data-name="Trazado 648786" d="M954.532,802.919l-36.029-.012v.8l35.71.012Z" transform="translate(-896.371 -745.284)" fill="#233862"/>
        <path id="Trazado_648787" data-name="Trazado 648787" d="M952.394,744.431l27.285.009,8.215-20.407-27.242-.009Z" transform="translate(-921.837 -686.011)" fill="#233862"/>
        <path id="Trazado_648788" data-name="Trazado 648788" d="M1026.446,761.165a.945.945,0,0,0-.926-1.3,1.862,1.862,0,0,0-1.672,1.3.945.945,0,0,0,.926,1.3A1.861,1.861,0,0,0,1026.446,761.165Z" transform="translate(-975.489 -712.943)" fill="#fff"/>
      </g>
      <g id="Grupo_898984" data-name="Grupo 898984" transform="translate(654.262 392.413)">
        <path id="Trazado_648789" data-name="Trazado 648789" d="M1726.341,1114.315a7.833,7.833,0,0,0-6.22.32c-10.583.435-10.976,11.282-9.734,15.319,1.745,5.67-4.429,10.141,2.418,12.435,7.945,2.663,14.611-.5,14.156.875C1752.086,1145.244,1734.7,1117.091,1726.341,1114.315Z" transform="translate(-1694.311 -1113.845)" fill="#163560"/>
        <path id="Trazado_648790" data-name="Trazado 648790" d="M1685.864,1260a27.74,27.74,0,0,1-2.83,4.279c-2.2,2.754-13.737-3.782-12.743-4.279s6.792-17.2,8.172-19.3,6.087-3.189,6.087-3.189Z" transform="translate(-1664.811 -1206.768)" fill="#222b5a"/>
        <path id="Trazado_648791" data-name="Trazado 648791" d="M1854.883,1777.022s3.184,2.906,2.563,4.971-3.5,3.442-3.884,5.966-1.942,3.9-3.34,3.9h-6.666s-1.029-1.776,1.457-2.312,3.423-3.5,3.267-6.255a48.475,48.475,0,0,1,.233-6.425l5.282-1.224Z" transform="translate(-1794.89 -1611.13)" fill="#1f447f"/>
        <path id="Trazado_648792" data-name="Trazado 648792" d="M1726.473,1786.147s1.146,12.313-.252,13l-17.894-.037s0-2.065,2.874-2.524,7.923-2.142,8.777-5.889S1726.473,1786.147,1726.473,1786.147Z" transform="translate(-1693.437 -1619.021)" fill="#1c3154"/>
        <path id="Trazado_648793" data-name="Trazado 648793" d="M1738.974,1248.749a71.18,71.18,0,0,1,0,8.27c-.177,2.99-3.2,7-3.631,7.986-1.077,2.485-2.291,2.889-2.291,2.889l-9.395,2.3-3.3.808-10.417-3.111s-4.745-13.243-2.84-20.7a57.291,57.291,0,0,1,4.816-12.632s7.079-1.592,19.568-.706Z" transform="translate(-1692.172 -1203.823)" fill="#222b5a"/>
        <path id="Trazado_648794" data-name="Trazado 648794" d="M1786.161,1303.777c-.177,2.99-4.1,6.891-4.526,7.882-1.077,2.485-2.292,2.889-2.292,2.889l-9.395,2.3-1.7-4.862s13.728-3.606,11.519-16.311Z" transform="translate(-1738.465 -1250.476)" fill="#2a4e96"/>
        <path id="Trazado_648795" data-name="Trazado 648795" d="M1705.929,1379.674s-5.159,16.058-5.49,21.524,9.861,77.664,10.271,80.183c.387,2.374,3.335,3.888,3.335,3.888a4.46,4.46,0,0,0,3.292.254,8.135,8.135,0,0,0,3.534-1.666s4.016-51.49,1.531-69.884a291.324,291.324,0,0,1-2.514-34.3Z" transform="translate(-1687.503 -1313.592)" fill="#0b7064"/>
        <path id="Trazado_648796" data-name="Trazado 648796" d="M1749.538,1377.748s7.869,10.558,8.6,17.7,1.151,32.208,2.714,39.166,7.305,20.348,7.305,42.05a4.329,4.329,0,0,1-2.44,1.906,20.114,20.114,0,0,1-2.146.593,3.373,3.373,0,0,1-3.773-1.791c-3.882-7.817-16.249-33.027-16.883-38.26-.449-3.7-4.353-28.214-12.871-42.6-2.045-3.453,1.255-17.184,1.255-17.184Z" transform="translate(-1709.255 -1312.145)" fill="#179587"/>
        <path id="Trazado_648797" data-name="Trazado 648797" d="M1718.348,1369.7a10.813,10.813,0,0,0,6.185,1.721c4.914.1,17.091-1.253,17.091-1.253a10.067,10.067,0,0,1,.519,3.108s-14.872,3.751-23.489.548A5.446,5.446,0,0,1,1718.348,1369.7Z" transform="translate(-1700.746 -1306.099)" fill="#233862"/>
        <g id="Grupo_898983" data-name="Grupo 898983" transform="translate(20.366 64.483)">
          <path id="Trazado_648798" data-name="Trazado 648798" d="M1732.594,1378.318a2.557,2.557,0,1,1,2.242-2.538A2.407,2.407,0,0,1,1732.594,1378.318Zm0-4.333a1.824,1.824,0,1,0,1.5,1.795A1.669,1.669,0,0,0,1732.594,1373.985Z" transform="translate(-1730.352 -1373.242)" fill="#fff"/>
        </g>
        <path id="Trazado_648799" data-name="Trazado 648799" d="M1681.778,1334.1l-22.353.209-11-25.85,22.353-.209Z" transform="translate(-1648.426 -1259.922)" fill="#ee4e5d"/>
        <path id="Trazado_648800" data-name="Trazado 648800" d="M1736.171,1352.875l-1.638-2.013a5.762,5.762,0,0,0-1.913-1.157c-.8-.168-2.5-1.148-2.669-.872s1.306,2.246,1.306,2.246l.075.011c-1.688,1.269-5.948.148-6.474.666-.637.628.877,1.985,1.69,2.746s3.137,2.032,4.949,1.468c1.325-.412,3.409-.832,3.409-.832Z" transform="translate(-1705.742 -1290.381)" fill="#ffb27d"/>
        <path id="Trazado_648801" data-name="Trazado 648801" d="M1654.756,1324.242s1.4-1.6,2.3-.83-.234,4.533-1.086,4.15S1654.266,1324.71,1654.756,1324.242Z" transform="translate(-1653.074 -1271.16)" fill="#ffb27d"/>
        <path id="Trazado_648802" data-name="Trazado 648802" d="M1772.248,1234.67s6.4.706,10.991,9.049c3.621,6.58,9.812,18.709,7.476,22.135-1.025,1.5-10.855,6.857-29.816,3.8a5.736,5.736,0,0,1,1.828-3.5s15.956-5.123,15.929-6.142c-.052-1.928-2.156-3.593-11.069-12.509C1765.164,1245.072,1772.248,1234.67,1772.248,1234.67Z" transform="translate(-1732.939 -1204.634)" fill="#222b5a"/>
        <path id="Trazado_648803" data-name="Trazado 648803" d="M1757.531,1206.456c.22-.3-.063-1.235-.415-2.985a32.7,32.7,0,0,1-.847-6.8l-.472.079-7.931,1.334s.18,2.121.186,4.118c0,.016,0,.033,0,.05.01,1.735-.468,4.357.117,4.7C1751.175,1208.713,1756.685,1207.591,1757.531,1206.456Z" transform="translate(-1723.147 -1176.082)" fill="#ffb27d"/>
        <path id="Trazado_648804" data-name="Trazado 648804" d="M1747.867,1198.324s.158,2.99.163,4.988c4.438-.106,6.807-4.415,7.768-6.322Z" transform="translate(-1723.147 -1176.321)" fill="#e8945b"/>
        <path id="Trazado_648805" data-name="Trazado 648805" d="M1729.485,1161.275s10.4-1.481,9.375-7.941-.368-11-7.049-10.33-7.578,3.341-7.761,5.58S1726.754,1161.493,1729.485,1161.275Z" transform="translate(-1705.244 -1135.706)" fill="#ffb27d"/>
        <path id="Trazado_648806" data-name="Trazado 648806" d="M1736.2,1140.18s4.046,7.126,8.582,7.552,6.24-1.043,6.24-1.043a12.493,12.493,0,0,1-5.2-6.646S1737.763,1136.232,1736.2,1140.18Z" transform="translate(-1714.377 -1132.288)" fill="#163560"/>
        <path id="Trazado_648807" data-name="Trazado 648807" d="M1725.1,1144.7a6.515,6.515,0,0,0-2.6,2.8,10.571,10.571,0,0,0-.457,6.153s-2.959-4.81-1.02-8.107C1723.078,1142.048,1725.1,1144.7,1725.1,1144.7Z" transform="translate(-1702.48 -1136.306)" fill="#163560"/>
      </g>
      <rect id="Rectángulo_301917" data-name="Rectángulo 301917" width="577.753" height="1.856" rx="0.928" transform="translate(328.908 572.216)" fill="#233862"/>
    </g>
  </g>
</svg>
