<svg xmlns="http://www.w3.org/2000/svg" width="132.136" height="132.136" viewBox="0 0 132.136 132.136">
  <g id="Grupo_1000270" data-name="Grupo 1000270" transform="translate(-570.5 -4762)">
    <g id="Grupo_1000263" data-name="Grupo 1000263" transform="translate(570.5 4762)">
      <ellipse id="Elipse_5518" data-name="Elipse 5518" cx="66.068" cy="66.068" rx="66.068" ry="66.068" transform="translate(0 0)" fill="#fff"/>
      <g id="casa" transform="translate(23.602 23.336)">
        <path id="Trazado_126646" data-name="Trazado 126646" d="M128.634,55.614v48.2H65.4v-48.2l31.8-30.845Z" transform="translate(-54.549 -21.176)" fill="#f1b62b"/>
        <path id="Trazado_126647" data-name="Trazado 126647" d="M353.334,63.349v-8.9h15.809V78.4" transform="translate(-294.722 -45.929)" fill="#9eb1b7"/>
        <g id="Grupo_881728" data-name="Grupo 881728" transform="translate(1.261 72.538)">
          <rect id="Rectángulo_294068" data-name="Rectángulo 294068" width="38.178" height="10.101" transform="translate(44.232)" fill="#179587"/>
          <rect id="Rectángulo_294069" data-name="Rectángulo 294069" width="13.384" height="10.101" fill="#179587"/>
        </g>
        <path id="Trazado_126648" data-name="Trazado 126648" d="M128.634,70.994V80L97.016,49.815,65.4,80v-9.01L94.5,43.273l2.511-2.333,2.509,2.333Z" transform="translate(-54.549 -34.665)" fill="#d59d19"/>
        <path id="Trazado_126649" data-name="Trazado 126649" d="M49.671,19.589l-36,34.37L8.637,49.734,47.16,13.046l2.51-2.332,2.51,2.332L90.7,49.734,85.67,53.96Z" transform="translate(-7.204 -9.453)" fill="#ee4e5d"/>
        <rect id="Rectángulo_294070" data-name="Rectángulo 294070" width="20.855" height="36.114" transform="translate(18.584 46.525)" fill="#222b5a"/>
        <rect id="Rectángulo_294071" data-name="Rectángulo 294071" width="23.749" height="20.855" transform="translate(45.494 46.525)" fill="#b0c0d2"/>
        <rect id="Rectángulo_294072" data-name="Rectángulo 294072" width="23.749" height="6.337" transform="translate(45.494 46.525)" fill="#222b5a"/>
        <circle id="Elipse_5046" data-name="Elipse 5046" cx="5.802" cy="5.802" r="5.802" transform="translate(36.664 24.609)" fill="#413740"/>
        <path id="Trazado_126650" data-name="Trazado 126650" d="M266.649,277.235V298.09a1.261,1.261,0,0,0,1.261,1.261h23.748a1.261,1.261,0,0,0,1.261-1.261V277.235a1.261,1.261,0,0,0-1.261-1.261H267.91A1.261,1.261,0,0,0,266.649,277.235Zm2.523,19.593V284.834H290.4v11.995ZM290.4,278.5v3.814H269.172V278.5Z" transform="translate(-222.416 -230.71)"/>
        <path id="Trazado_126651" data-name="Trazado 126651" d="M83.671,74.388H75.347v-28L77.6,48.53a1.261,1.261,0,0,0,1.682.054l5.006-4.2a1.32,1.32,0,0,0,.389-.524,1.264,1.264,0,0,0-.3-1.379l-8.687-8.273V22.265A1.262,1.262,0,0,0,74.422,21h0a1.262,1.262,0,0,0-1.261,1.261V31.8L59.874,19.149V12.887H73.16v3.492a1.262,1.262,0,0,0,1.261,1.261h0a1.262,1.262,0,0,0,1.261-1.261V11.626a1.262,1.262,0,0,0-1.261-1.261H58.613a1.262,1.262,0,0,0-1.261,1.261v5.121L45.835,5.779l-2.51-2.332a1.261,1.261,0,0,0-1.717,0L39.086,5.79.563,42.478a1.264,1.264,0,0,0-.3,1.379,1.321,1.321,0,0,0,.389.524l5.006,4.2a1.261,1.261,0,0,0,1.682-.054l2.249-2.148v8.256A1.262,1.262,0,0,0,10.848,55.9h0a1.262,1.262,0,0,0,1.261-1.261V43.973L42.466,14.991,72.824,43.974V74.388H45.494a1.261,1.261,0,0,0-1.261,1.261v8.839H40.7V49.635a1.262,1.262,0,0,0-1.261-1.261H18.585a1.262,1.262,0,0,0-1.261,1.261V84.488H15.906V75.649a1.262,1.262,0,0,0-1.261-1.261H12.11V60.525a1.262,1.262,0,0,0-1.261-1.261h0a1.262,1.262,0,0,0-1.261,1.261V74.388H1.261A1.262,1.262,0,0,0,0,75.649v10.1a1.262,1.262,0,0,0,1.261,1.261h82.41a1.262,1.262,0,0,0,1.261-1.261v-10.1A1.261,1.261,0,0,0,83.671,74.388Zm-41.2-62.4a1.259,1.259,0,0,0-.871.349L6.413,45.925,3.324,43.332l37.491-35.7,1.652-1.534,1.64,1.524,37.5,35.715L78.52,45.925,43.337,12.334A1.258,1.258,0,0,0,42.466,11.986ZM2.523,76.91h10.86v7.578H2.523Zm17.323,7.578V50.9H38.178V84.488Zm62.564,0H46.756V76.91H82.41v7.578Z" transform="translate(0 -3.11)"/>
        <path id="Trazado_126652" data-name="Trazado 126652" d="M191.417,384.129h-3.027a1.261,1.261,0,1,0,0,2.523h3.027a1.261,1.261,0,1,0,0-2.523Z" transform="translate(-156.086 -320.924)"/>
        <path id="Trazado_126653" data-name="Trazado 126653" d="M220.486,143.856a7.063,7.063,0,1,0,7.063,7.064A7.071,7.071,0,0,0,220.486,143.856Zm0,11.6a4.541,4.541,0,1,1,4.541-4.541A4.546,4.546,0,0,1,220.486,155.46Z" transform="translate(-178.019 -120.509)"/>
      </g>
    </g>
  </g>
</svg>
