<svg xmlns="http://www.w3.org/2000/svg" width="727.393" height="540" viewBox="0 0 727.393 540">
  <g id="Grupo_1000270" data-name="Grupo 1000270" transform="translate(-685 -6217.539)">
    <g id="Grupo_898653" data-name="Grupo 898653" transform="translate(685 4707.844)">
      <path id="Trazado_647819" data-name="Trazado 647819" d="M0,0H727.393V512.889H0Z" transform="translate(0 1509.694)" fill="#0d302c"/>
      <path id="Trazado_647591" data-name="Trazado 647591" d="M193.96,1756.312c67.975,3.572,118.056,38.518,151.436,32.275s112.795-70.5,226.672-19.416c6.6,2.96,12.263,5.8,17.077,8.526-6.373-4.921-15.732-10.271-28.693-16.086-113.877-51.086-193.292,13.174-226.673,19.417s-83.462-28.7-151.435-32.276-118.711,52.232-118.711,52.232l16.073,3.074C93.482,1790.875,137.847,1753.364,193.96,1756.312Z" transform="translate(-0.824 23.547)" fill="#fff"/>
      <path id="Trazado_647592" data-name="Trazado 647592" d="M75.4,1807.847s50.738-55.8,118.711-52.231,118.056,38.518,151.436,32.275,112.795-70.5,226.673-19.416-50.3,66.4-74.418,68.207-244.828,5.119-244.828,5.119Z" transform="translate(-0.976 24.243)" fill="#5294c6"/>
      <path id="Trazado_647593" data-name="Trazado 647593" d="M31.706,1813.4s50.144-45.64,125.256-27.551,116.081,41.068,167.728,27.551,166.818-69.54,266.229-47.612,60.173,37.7,136.883,37.248v82.487l-696.1-17.818Z" transform="translate(-0.41 25.446)" fill="#5294c6"/>
      <g id="Grupo_898632" data-name="Grupo 898632" transform="translate(425.453 1639.624)">
        <rect id="Rectángulo_301732" data-name="Rectángulo 301732" width="3.424" height="170.271" transform="translate(13.143 272.574) rotate(180)" fill="#f47458"/>
        <g id="Grupo_898631" data-name="Grupo 898631" transform="translate(0 96.764)">
          <path id="Trazado_647594" data-name="Trazado 647594" d="M570.306,1715.527c-.116,7.094-5.211,12.8-11.478,12.8s-11.362-5.709-11.479-12.8Z" transform="translate(-432.538 -1715.527)" fill="#eaa93f"/>
          <path id="Trazado_647595" data-name="Trazado 647595" d="M523.779,1715.527c-.117,7.094-5.211,12.8-11.478,12.8s-11.362-5.709-11.478-12.8Z" transform="translate(-431.935 -1715.527)" fill="#eaa93f"/>
          <path id="Trazado_647596" data-name="Trazado 647596" d="M477.254,1715.527c0,.046,0,.093,0,.139,0,7.208-5.141,13.052-11.481,13.052s-11.48-5.844-11.48-13.052c0-.046,0-.092,0-.139Z" transform="translate(-431.333 -1715.527)" fill="#eaa93f"/>
          <path id="Trazado_647597" data-name="Trazado 647597" d="M547.042,1715.527c-.116,7.094-5.21,12.8-11.477,12.8s-11.362-5.709-11.479-12.8Z" transform="translate(-432.237 -1715.527)" fill="#f7cc7f"/>
          <path id="Trazado_647598" data-name="Trazado 647598" d="M500.516,1715.527c-.116,7.094-5.211,12.8-11.478,12.8s-11.362-5.709-11.478-12.8Z" transform="translate(-431.634 -1715.527)" fill="#f7cc7f"/>
          <path id="Trazado_647599" data-name="Trazado 647599" d="M453.989,1715.527c-.116,7.094-5.211,12.8-11.478,12.8s-11.362-5.709-11.478-12.8Z" transform="translate(-431.032 -1715.527)" fill="#f7cc7f"/>
        </g>
        <path id="Trazado_647600" data-name="Trazado 647600" d="M557.322,1670.426,431.032,1720.1h126.29Z" transform="translate(-431.032 -1623.334)" fill="#f1b62b"/>
        <rect id="Rectángulo_301733" data-name="Rectángulo 301733" width="176.335" height="266.258" transform="translate(301.94 274.453) rotate(180)" fill="#222b5a"/>
        <rect id="Rectángulo_301734" data-name="Rectángulo 301734" width="46.204" height="140.547" transform="translate(246.725 202.138) rotate(180)" fill="#fff"/>
        <rect id="Rectángulo_301735" data-name="Rectángulo 301735" width="134.846" height="41.096" transform="translate(244.171 64.441) rotate(90)" fill="#183658"/>
        <rect id="Rectángulo_301736" data-name="Rectángulo 301736" width="46.205" height="140.547" transform="translate(297.308 202.138) rotate(180)" fill="#fff"/>
        <rect id="Rectángulo_301737" data-name="Rectángulo 301737" width="134.846" height="41.096" transform="translate(294.753 64.441) rotate(90)" fill="#183658"/>
        <rect id="Rectángulo_301738" data-name="Rectángulo 301738" width="46.205" height="140.547" transform="translate(195.267 202.138) rotate(180)" fill="#fff"/>
        <rect id="Rectángulo_301739" data-name="Rectángulo 301739" width="134.846" height="41.096" transform="translate(192.713 64.441) rotate(90)" fill="#183658"/>
        <rect id="Rectángulo_301740" data-name="Rectángulo 301740" width="178.086" height="7.546" transform="translate(301.94 15.741) rotate(180)" fill="#b0c0d2"/>
        <rect id="Rectángulo_301741" data-name="Rectángulo 301741" width="23.109" height="9.88" transform="translate(272.045 33.032) rotate(180)" fill="#b0c0d2"/>
        <rect id="Rectángulo_301742" data-name="Rectángulo 301742" width="23.109" height="9.881" transform="translate(294.27 50.323) rotate(180)" fill="#b0c0d2"/>
        <rect id="Rectángulo_301743" data-name="Rectángulo 301743" width="23.652" height="8.36" transform="translate(263.129 47.093) rotate(180)" fill="#b0c0d2"/>
        <rect id="Rectángulo_301744" data-name="Rectángulo 301744" width="22.972" height="8.361" transform="translate(240.29 36.452) rotate(180)" fill="#b0c0d2"/>
        <rect id="Rectángulo_301745" data-name="Rectángulo 301745" width="18.684" height="7.468" transform="translate(151.01 60.707) rotate(180)" fill="#b0c0d2"/>
        <rect id="Rectángulo_301746" data-name="Rectángulo 301746" width="18.684" height="7.468" transform="translate(148.558 40.186) rotate(180)" fill="#b0c0d2"/>
        <rect id="Rectángulo_301747" data-name="Rectángulo 301747" width="18.684" height="7.468" transform="translate(226.66 57.791) rotate(180)" fill="#b0c0d2"/>
        <rect id="Rectángulo_301748" data-name="Rectángulo 301748" width="183.409" height="8.195" transform="translate(301.94 8.195) rotate(180)" fill="#222b5a"/>
      </g>
      <path id="Trazado_647601" data-name="Trazado 647601" d="M389.534,1852.568s13.645,3.506,27.438,0,43.731-23.456,79.577-1.468-101.356,20.638-102.081,16.858S389.534,1852.568,389.534,1852.568Z" transform="translate(-5.042 33.57)" fill="#fff"/>
      <g id="Grupo_898637" data-name="Grupo 898637" transform="translate(9.249 1609.955)">
        <path id="Trazado_647775" data-name="Trazado 647775" d="M.093.285,365.2-.176l-.157,136.862-365.107.461Z" transform="matrix(1, -0.012, 0.012, 1, 10.084, 162.473)" fill="#fae0b2"/>
        <path id="Trazado_647602" data-name="Trazado 647602" d="M163.956,1897.118l-143.844,2-1.527-136.75,70.815-148.8L162.427,1760.2Z" transform="translate(-9.489 -1599.427)" fill="#f7cc7f"/>
        <path id="Trazado_647776" data-name="Trazado 647776" d="M.008.022,28.642-.014l-.013,11.441-28.635.036Z" transform="translate(275.366 288.486) rotate(-0.714)" fill="#f7cc7f"/>
        <g id="Grupo_898633" data-name="Grupo 898633" transform="translate(170.24 184.106)">
          <path id="Trazado_647777" data-name="Trazado 647777" d="M.052.027,34.586-.017,34.5,76.732l-34.534.044Z" transform="matrix(1, -0.012, 0.012, 1, 0, 0.901)" fill="#fff"/>
          <path id="Trazado_647778" data-name="Trazado 647778" d="M0,0,69.88.08l.037,29.164-69.88-.08Z" transform="translate(32.772 3.913) rotate(89.286)" fill="#183658"/>
          <path id="Trazado_647779" data-name="Trazado 647779" d="M.052.027,34.586-.017,34.5,76.732l-34.534.044Z" transform="translate(32.632 0.448) rotate(-0.714)" fill="#fff"/>
          <path id="Trazado_647780" data-name="Trazado 647780" d="M0,0,69.88.08l.037,29.164-69.88-.08Z" transform="translate(63.735 3.483) rotate(89.286)" fill="#183658"/>
        </g>
        <g id="Grupo_898634" data-name="Grupo 898634" transform="translate(47.65 185.811)">
          <path id="Trazado_647781" data-name="Trazado 647781" d="M.052.027,34.586-.017,34.5,76.732l-34.534.044Z" transform="translate(0 0.901) rotate(-0.714)" fill="#fff"/>
          <path id="Trazado_647782" data-name="Trazado 647782" d="M0,0,69.88.08l.037,29.164-69.88-.08Z" transform="translate(32.772 3.913) rotate(89.286)" fill="#183658"/>
          <path id="Trazado_647783" data-name="Trazado 647783" d="M.052.027,34.586-.017,34.5,76.732l-34.534.044Z" transform="translate(32.632 0.448) rotate(-0.714)" fill="#fff"/>
          <path id="Trazado_647784" data-name="Trazado 647784" d="M0,0,69.88.08l.037,29.164-69.88-.08Z" transform="matrix(0.012, 1, -1, 0.012, 63.734, 3.483)" fill="#183658"/>
        </g>
        <g id="Grupo_898635" data-name="Grupo 898635" transform="translate(57.667 93.609)">
          <path id="Trazado_647785" data-name="Trazado 647785" d="M23.226-.011l-.059,51.54-23.191.029.03-26C.022,11.453,10.418,0,23.226-.011Z" transform="translate(0 0.587) rotate(-0.714)" fill="#fff"/>
          <path id="Trazado_647603" data-name="Trazado 647603" d="M70.784,1735.285l-.322-28.809c-.112-10,7.065-18.212,16.03-18.336l3.344-.046.523,46.92Z" transform="translate(-67.828 -1685.483)" fill="#183658"/>
          <path id="Trazado_647786" data-name="Trazado 647786" d="M.035,0C12.843-.016,23.213,11.405,23.2,25.511l-.03,26L-.024,51.54Z" transform="matrix(1, -0.012, 0.012, 1, 21.914, 0.3)" fill="#fff"/>
          <path id="Trazado_647604" data-name="Trazado 647604" d="M91.846,1735l-.524-46.921,3.345-.046c8.963-.125,16.322,7.882,16.433,17.885l.322,28.81Z" transform="translate(-68.098 -1685.489)" fill="#183658"/>
        </g>
        <g id="Grupo_898636" data-name="Grupo 898636" transform="translate(292.636 182.405)">
          <path id="Trazado_647787" data-name="Trazado 647787" d="M.052.027,34.586-.017,34.5,76.732l-34.534.044Z" transform="translate(0 0.901) rotate(-0.714)" fill="#fff"/>
          <path id="Trazado_647788" data-name="Trazado 647788" d="M0,0,69.88.08l.037,29.164-69.88-.08Z" transform="translate(32.772 3.913) rotate(89.286)" fill="#183658"/>
          <path id="Trazado_647789" data-name="Trazado 647789" d="M.052.027,34.586-.017,34.5,76.732l-34.534.044Z" transform="translate(32.632 0.448) rotate(-0.714)" fill="#fff"/>
          <path id="Trazado_647790" data-name="Trazado 647790" d="M0,0,69.88.08l.037,29.164-69.88-.08Z" transform="translate(63.734 3.483) rotate(89.286)" fill="#183658"/>
        </g>
        <path id="Trazado_647791" data-name="Trazado 647791" d="M.008.022,28.642-.014l-.013,11.441-28.635.036Z" transform="translate(159.823 265.779) rotate(-0.714)" fill="#f7cc7f"/>
        <path id="Trazado_647792" data-name="Trazado 647792" d="M.008.022,28.642-.014l-.013,11.441-28.635.036Z" transform="translate(177.279 282.213) rotate(-0.714)" fill="#f7cc7f"/>
        <path id="Trazado_647793" data-name="Trazado 647793" d="M.008.011,14.324-.007l-.013,11.444-14.316.018Z" transform="translate(10.011 245.668) rotate(-0.714)" fill="#f7cc7f" style="mix-blend-mode: multiply;isolation: isolate"/>
        <path id="Trazado_647794" data-name="Trazado 647794" d="M.008.019l23.854-.03L23.849,11.43l-23.854.03Z" transform="matrix(1, -0.012, 0.012, 1, 10.192, 264.004)" fill="#f7cc7f" style="mix-blend-mode: multiply;isolation: isolate"/>
        <path id="Trazado_647795" data-name="Trazado 647795" d="M.008.019l23.854-.03L23.848,11.43l-23.854.03Z" transform="translate(9.782 227.317) rotate(-0.713)" fill="#f7cc7f" style="mix-blend-mode: multiply;isolation: isolate"/>
        <path id="Trazado_647796" data-name="Trazado 647796" d="M.008.022,28.642-.014l-.013,11.441-28.635.036Z" transform="translate(25.971 154.892) rotate(-0.714)" fill="#f7cc7f" style="mix-blend-mode: multiply;isolation: isolate"/>
        <path id="Trazado_647797" data-name="Trazado 647797" d="M.008.022,28.642-.014l-.013,11.441-28.635.036Z" transform="translate(35.97 170.816) rotate(-0.714)" fill="#f7cc7f" style="mix-blend-mode: multiply;isolation: isolate"/>
        <path id="Trazado_647798" data-name="Trazado 647798" d="M.008.011,14.324-.007l-.013,11.444-14.316.018Z" transform="translate(138.912 187.74) rotate(-0.714)" fill="#f7cc7f" style="mix-blend-mode: multiply;isolation: isolate"/>
        <path id="Trazado_647799" data-name="Trazado 647799" d="M.008.022,28.642-.014l-.013,11.441-28.635.036Z" transform="translate(124.828 208.827) rotate(-0.714)" fill="#f7cc7f" style="mix-blend-mode: multiply;isolation: isolate"/>
        <path id="Trazado_647800" data-name="Trazado 647800" d="M.008.011,14.324-.007l-.013,11.444-14.317.018Z" transform="translate(139.378 229.538) rotate(-0.714)" fill="#f7cc7f" style="mix-blend-mode: multiply;isolation: isolate"/>
        <path id="Trazado_647801" data-name="Trazado 647801" d="M.008.022,28.642-.014l-.013,11.441-28.635.036Z" transform="matrix(1, -0.012, 0.012, 1, 100.548, 270.379)" fill="#f7cc7f" style="mix-blend-mode: multiply;isolation: isolate"/>
        <path id="Trazado_647802" data-name="Trazado 647802" d="M.008.022,28.642-.014l-.013,11.441-28.635.036Z" transform="translate(118.838 123.731) rotate(-0.714)" fill="#f7cc7f" style="mix-blend-mode: multiply;isolation: isolate"/>
        <path id="Trazado_647803" data-name="Trazado 647803" d="M.008.022,28.642-.014l-.013,11.441-28.635.036Z" transform="translate(123.675 105.558) rotate(-0.714)" fill="#f7cc7f" style="mix-blend-mode: multiply;isolation: isolate"/>
        <path id="Trazado_647804" data-name="Trazado 647804" d="M.008.022,28.642-.014l-.013,11.441-28.635.036Z" transform="matrix(1, -0.012, 0.012, 1, 83.806, 53.382)" fill="#f7cc7f" style="mix-blend-mode: multiply;isolation: isolate"/>
        <path id="Trazado_647805" data-name="Trazado 647805" d="M.008.022,28.642-.014l-.013,11.441-28.635.036Z" transform="matrix(1, -0.012, 0.012, 1, 123.638, 292.204)" fill="#f7cc7f" style="mix-blend-mode: multiply;isolation: isolate"/>
        <path id="Trazado_647806" data-name="Trazado 647806" d="M.008.022,28.642-.014l-.013,11.441-28.635.036Z" transform="matrix(1, -0.012, 0.012, 1, 252.908, 197.002)" fill="#f7cc7f"/>
        <path id="Trazado_647807" data-name="Trazado 647807" d="M.008.022,28.642-.014l-.013,11.441-28.635.036Z" transform="translate(278.029 153.456) rotate(-0.714)" fill="#f7cc7f"/>
        <path id="Trazado_647808" data-name="Trazado 647808" d="M.008.022,28.642-.014l-.013,11.441-28.635.036Z" transform="translate(229.061 165.584) rotate(-0.714)" fill="#f7cc7f"/>
        <path id="Trazado_647809" data-name="Trazado 647809" d="M.008.022,28.642-.014l-.013,11.441-28.635.036Z" transform="translate(174.998 154.719) rotate(-0.714)" fill="#f7cc7f"/>
        <path id="Trazado_647810" data-name="Trazado 647810" d="M.008.022,28.642-.014l-.013,11.441-28.635.036Z" transform="translate(242.579 215.252) rotate(-0.714)" fill="#f7cc7f"/>
        <path id="Trazado_647811" data-name="Trazado 647811" d="M.008.022,28.642-.014l-.013,11.441-28.635.036Z" transform="translate(254.167 233.197) rotate(-0.714)" fill="#f7cc7f"/>
        <path id="Trazado_647812" data-name="Trazado 647812" d="M.008.022,28.642-.014l-.013,11.441-28.635.036Z" transform="matrix(1, -0.012, 0.012, 1, 237.766, 268.898)" fill="#f7cc7f"/>
        <path id="Trazado_647813" data-name="Trazado 647813" d="M.008.022,28.642-.014l-.013,11.441-28.635.036Z" transform="translate(299.049 269.111) rotate(-0.714)" fill="#f7cc7f"/>
        <path id="Trazado_647814" data-name="Trazado 647814" d="M.008.014,18.2-.009l-.013,11.443-18.19.023Z" transform="translate(357.161 165.566) rotate(-0.714)" fill="#f7cc7f"/>
        <path id="Trazado_647815" data-name="Trazado 647815" d="M.008.006,7.493,0,7.48,11.441l-7.485.009Z" transform="translate(368.136 189.693) rotate(-0.714)" fill="#f7cc7f"/>
        <path id="Trazado_647816" data-name="Trazado 647816" d="M.008.011,14.324-.007l-.013,11.444-14.316.018Z" transform="translate(362.126 263.3) rotate(-0.713)" fill="#f7cc7f"/>
        <path id="Trazado_647817" data-name="Trazado 647817" d="M.007.295,377.963-.182l-.011,9.765L0,10.06Z" transform="matrix(1, -0.012, 0.012, 1, 4.656, 299.309)" fill="#b75742"/>
        <path id="Trazado_647818" data-name="Trazado 647818" d="M.016.286,366.394-.177l-.027,23.964L-.011,24.25Z" transform="translate(10.544 309.07) rotate(-0.714)" fill="#f47458"/>
        <path id="Trazado_647605" data-name="Trazado 647605" d="M89.158,1603.592,9.37,1763.5l9.095-.127,70.89-142.08,71.985,140.094,11.152-.155S90.515,1606.185,89.158,1603.592Z" transform="translate(-9.37 -1600.438)" fill="#f48c7f"/>
        <path id="Trazado_647606" data-name="Trazado 647606" d="M400.423,1758.373l-226.884,3.155L90.2,1603.883l226.885-3.154Z" transform="translate(-10.416 -1600.728)" fill="#ee4e5d"/>
      </g>
      <g id="Grupo_898638" data-name="Grupo 898638" transform="translate(359.208 1836.848)">
        <path id="Trazado_647608" data-name="Trazado 647608" d="M405.122,1814.069c-.046,1.332-.183,3.449-.183,3.449.14.542.7,2.8,1.386,5.576l-4-.817s-.787-4.592-1-4.835c-.183-.206-.363.143-1.828-1.413a3.786,3.786,0,0,1-.653-1.37s-.276-1.135-.064-1.3a.458.458,0,0,1,.629.132c.12.181.183.649.3.828a1.2,1.2,0,0,0,.923.234c.224-.063-.646-3.4-.646-3.4s-.3-.933-.421-1.233c-.1-.256-.465-.994-.465-.994s-.464-1.083-.162-1.241c.178-.094.823.726,1.329,1.635a21.252,21.252,0,0,0,1.046,2.022c.23-.089-.233-1.921-.233-1.921a6.48,6.48,0,0,1-.457-1.2c-.312-.442-.625-1.323-.247-1.487a7.562,7.562,0,0,1,.8,1.014s.351.771.539,1.126c.331.627.556,1.684.749,2.128.162.37.214.192.255.2a10.883,10.883,0,0,0-.309-1.248,8.322,8.322,0,0,0-.307-1.208,9.806,9.806,0,0,1-.393-1.259c-.238-.947.322-.971.669-.134.132.318.274.667.417,1.021.553,1.376.8,2.766.938,2.747a11.807,11.807,0,0,0-.394-2.528s.024-1.463.535-.226a12.6,12.6,0,0,1,.789,2.727A12.35,12.35,0,0,1,405.122,1814.069Z" transform="translate(-364.368 -1806.741)" fill="#f8a492"/>
        <path id="Trazado_647609" data-name="Trazado 647609" d="M364.752,1819.233c.506,1.207,1.369,3.1,1.369,3.1.061.561.331,2.888.667,5.738l3.4-2.49s-.875-4.572-.761-4.889a4.68,4.68,0,0,0,1.191-2.1,4.005,4.005,0,0,0,.124-1.545s-.141-1.166-.392-1.221a.5.5,0,0,0-.533.4c-.048.217.057.675.01.893a1.328,1.328,0,0,1-.768.617c-.228.038-.589-3.41-.589-3.41s-.048-.99-.041-1.319c0-.281.081-1.117.081-1.117s.05-1.2-.283-1.215c-.2-.01-.505,1.025-.653,2.084a22.413,22.413,0,0,1-.26,2.316c-.243.019-.455-1.87-.455-1.87a6.774,6.774,0,0,0,0-1.305c.133-.543.116-1.49-.29-1.477a8.346,8.346,0,0,0-.381,1.28s-.054.863-.1,1.271c-.086.721.075,1.792.051,2.286-.02.41-.13.269-.165.293a10.979,10.979,0,0,1-.15-1.283,8.433,8.433,0,0,1-.138-1.246,10.2,10.2,0,0,0-.077-1.331c-.111-.976-.636-.754-.664.166-.01.351-.019.735-.027,1.122-.03,1.507.23,2.894.093,2.937a11.754,11.754,0,0,1-.517-2.5s-.532-1.337-.572.024a12.87,12.87,0,0,0,.224,2.855A12.3,12.3,0,0,0,364.752,1819.233Z" transform="translate(-363.918 -1806.368)" fill="#f8a492"/>
        <path id="Trazado_647610" data-name="Trazado 647610" d="M398.549,1841.633l-4.675,1.823s-3.832.946-4.309,1.054.049,20.389.511,27.951,1.376,8.714,1.376,8.714,6.373.153,10.8-1.312c4.606-1.523,9.37-5.54,9.37-5.54s-6.577-13.247-8.173-17.487S398.549,1841.633,398.549,1841.633Z" transform="translate(-364.248 -1803.205)" fill="#355389"/>
        <path id="Trazado_647611" data-name="Trazado 647611" d="M405.968,1817.748s2.955,14.521,2.665,15.749c-.423,1.785-6.408,15.12-6.408,15.12s7.124,17.138,9.873,22.991c.277.589,1.734,4.472,1.805,4.866.159.875-3.051,2.756-3.469,2.781-.373.023-6.457-16.435-9.878-24.388a24.525,24.525,0,0,0-4.7-7.184l-1.7-1.8,8.085-13.635s-1.04-12.908-1.23-13.954C400.962,1818.022,405.289,1816.831,405.968,1817.748Z" transform="translate(-364.31 -1805.66)" fill="#179587"/>
        <path id="Trazado_647612" data-name="Trazado 647612" d="M389.416,1846.551l-15.257-11.523s-4.229-13.2-4.447-13.683-3.405-.037-4.7.11c-.415.047,2.84,14.435,3.887,16.734,1.237,2.715,13.174,13.663,13.174,13.663s3,6.712,3.534,12.012c.883,8.8,1.194,21.118,1.593,21.417,2.318.98,10.235-.647,10.571-1.656C401.492,1872.47,389.416,1846.551,389.416,1846.551Z" transform="translate(-363.932 -1805.283)" fill="#179587"/>
        <path id="Trazado_647613" data-name="Trazado 647613" d="M390.055,1826.437a12.023,12.023,0,0,1-1.62.328,6.983,6.983,0,0,0-1.824.413,4.511,4.511,0,0,0-2.491,2.987c-.308,1.844-2.56,2.088,1.226,7.962,4.286,6.649,7.308,3.473,7.326,3.3s.584-6.585.584-6.585,2.483,1.822,2.431,1.728S396.469,1824.718,390.055,1826.437Z" transform="translate(-364.168 -1804.763)" fill="#0e2e35"/>
        <path id="Trazado_647614" data-name="Trazado 647614" d="M393.319,1841.226l.864,2.785s1.52,3.949.671,4.968-5.138-4.083-5.138-4.083l-.974-7.331Z" transform="translate(-364.24 -1803.617)" fill="#f7a491"/>
        <path id="Trazado_647615" data-name="Trazado 647615" d="M389.058,1839.941a7.479,7.479,0,0,0,4.993,3.645l-.732-2.361-4.577-3.66Z" transform="translate(-364.24 -1803.617)" fill="#f47458"/>
        <path id="Trazado_647616" data-name="Trazado 647616" d="M388.352,1829.974a3.286,3.286,0,0,1,5.281.95,31.166,31.166,0,0,1,1.536,3.347c1.211,3.134.88,6.87-.4,7.455s-5.571.155-7.346-4.267C386.326,1834.731,386.637,1831.655,388.352,1829.974Z" transform="translate(-364.214 -1804.483)" fill="#f7a491"/>
        <path id="Trazado_647617" data-name="Trazado 647617" d="M388.492,1836.7a1.326,1.326,0,0,1-.458,1.681c-.508.232-1.128-.144-1.384-.84a1.326,1.326,0,0,1,.458-1.681C387.617,1835.626,388.237,1836,388.492,1836.7Z" transform="translate(-364.211 -1803.797)" fill="#f7a491"/>
        <path id="Trazado_647618" data-name="Trazado 647618" d="M387.093,1836.606s1.614-.59,1.567-1.955.59-4.824,3.45-5.577-3.3-.728-3.486-.6-2.459,1.7-2.459,1.7-.843,2.819-.806,3.038.611,2.488.611,2.488Z" transform="translate(-364.196 -1804.545)" fill="#0e2e35"/>
      </g>
      <g id="Grupo_898639" data-name="Grupo 898639" transform="translate(183.428 1808.77)">
        <path id="Trazado_647619" data-name="Trazado 647619" d="M185.833,1798.983l28.918-17.736.155,13.87-28.9,19.484Z" transform="translate(-185.833 -1781.247)" fill="#eafcfc" opacity="0.1"/>
        <path id="Trazado_647620" data-name="Trazado 647620" d="M186.068,1818.333l28.876-19.467L215,1804l-28.872,19.435Z" transform="translate(-185.836 -1779.462)" fill="#eafcfc" opacity="0.1"/>
        <path id="Trazado_647621" data-name="Trazado 647621" d="M217.268,1798.983l28.918-17.736.155,13.87-28.9,19.484Z" transform="translate(-186.24 -1781.247)" fill="#eafcfc" opacity="0.1"/>
        <path id="Trazado_647622" data-name="Trazado 647622" d="M217.5,1818.333l28.876-19.467.057,5.13-28.872,19.435Z" transform="translate(-186.243 -1779.462)" fill="#eafcfc" opacity="0.1"/>
      </g>
      <path id="Trazado_647623" data-name="Trazado 647623" d="M727.392,1830.821s-53.578-27.507-123.432,16.63c-91.084,57.552-96.07-18.963-164.115,7.832s-189.541-87.249-334.289-19.106C36.528,1868.671,0,1844.338,0,1844.338v73.976s343.573,36.758,347.284,36.758,307.413-.9,309.835,0c1.052.391,70.272-49.528,70.272-49.528Z" transform="translate(0 30.855)" fill="#70afe6"/>
      <path id="Trazado_647624" data-name="Trazado 647624" d="M307.339,1903s-1.852,6.478-1.857,6.491c-.314.8-1.265,2.724-1.442,3.482-.66,2.849,11.717.8,9.51-1.183a3.493,3.493,0,0,1-1.034-2.378c.232-1.527.642-4.635.642-4.635Z" transform="translate(-3.935 39.863)" fill="#f7a491"/>
      <g id="Grupo_898640" data-name="Grupo 898640" transform="translate(176.45 1851.683)">
        <path id="Trazado_647625" data-name="Trazado 647625" d="M197.513,1858.481a10.85,10.85,0,0,0-1.183-3.431,13.671,13.671,0,0,0-3.019-2.937,18.278,18.278,0,0,1-4.74-6.427,50.736,50.736,0,0,0-2.515-5.847c-.664-1.094-1.507-2.036-2.239-3.076-1.729-2.456-2.865-5.489-5.051-7.439a10.3,10.3,0,0,0,2.836,7.356,12.27,12.27,0,0,1,1.6,1.683,10.618,10.618,0,0,1,1.173,4.229,20.352,20.352,0,0,0,2.954,7.659c1.563,2.41,3.656,4.455,4.662,7.213.753,2.065.879,4.486,2.174,6.184a1.677,1.677,0,0,1,.353.6,1.535,1.535,0,0,1,.025.4l-.013.528c-.043,1.785-.04,4.05,1.459,5.167a1.675,1.675,0,0,0,2.776-.682,8.962,8.962,0,0,0,.062-4.44C198.486,1862.96,198,1860.71,197.513,1858.481Z" transform="translate(-178.764 -1819.288)" fill="#3c8f7c"/>
        <path id="Trazado_647626" data-name="Trazado 647626" d="M199.9,1857.648c-.759-1.952-1.8-3.764-2.441-5.766a31.491,31.491,0,0,1-1.105-6.051q-.389-3.364-.781-6.726a28.144,28.144,0,0,0-.691-4.146c-.787-2.9-2.482-5.438-3.061-8.4-.251-1.279-.284-2.6-.561-3.876a6.568,6.568,0,0,0-.8-2.066.831.831,0,0,0-1.531.269,9.763,9.763,0,0,0-.235,5.226,22.28,22.28,0,0,0,1.216,2.889c1.859,4.267,1.716,9.306,3.281,13.717a22.558,22.558,0,0,1,1.323,4.024c.524,3.379-1.392,6.809-.792,10.17.493,2.757,2.55,4.8,3.609,7.352.593,1.426.867,3,1.487,4.414.484,1.1,1.459,2.373,2.685,1.843,1.164-.5.674-1.545.5-2.584C201.423,1864.431,201.2,1860.974,199.9,1857.648Z" transform="translate(-178.889 -1820.211)" fill="#327f6b"/>
        <path id="Trazado_647627" data-name="Trazado 647627" d="M202.988,1859.071a18.01,18.01,0,0,1-.444-3.144,20.37,20.37,0,0,1,.354-2.661,26.02,26.02,0,0,0,.056-5.038q-.247-4.579-.493-9.159a133.345,133.345,0,0,1-.256-14.252,6.86,6.86,0,0,0-.5-3.846c-.138-.233-.383-.464-.609-.348a.685.685,0,0,0-.26.494c-1.12,5.473-1.122,11.193-2.453,16.606a22.914,22.914,0,0,0-.8,3.926,23.918,23.918,0,0,0,.461,4.806,25.406,25.406,0,0,1,.072,6.922,31.369,31.369,0,0,0-.458,3.6,20.392,20.392,0,0,0,.612,4.469,76.871,76.871,0,0,1,1.245,8.6c.149,1.7,1.424,1.471,2.153.309a5.336,5.336,0,0,0,.511-2.545C202.5,1864.738,203.522,1862.27,202.988,1859.071Z" transform="translate(-179.007 -1820.173)" fill="#3c8f7c"/>
        <path id="Trazado_647628" data-name="Trazado 647628" d="M195.372,1861.537c-1.367-1.868-3.758-2.7-4.742-4.847-.25-.546-.393-1.153-.682-1.675a5.087,5.087,0,0,0-3.042-2.1.248.248,0,0,0-.306.285h0a.909.909,0,0,0,.437.71,4.9,4.9,0,0,1,2.123,2.489c.5,1.271.515,2.739,1.093,3.967.486,1.03,1.329,1.808,1.8,2.846a18.816,18.816,0,0,1,.795,3.058,3.268,3.268,0,0,0,1.721,2.385C197.858,1869.806,196.255,1862.744,195.372,1861.537Z" transform="translate(-178.865 -1816.898)" fill="#327f6b"/>
        <path id="Trazado_647629" data-name="Trazado 647629" d="M208.416,1859.751a9.622,9.622,0,0,1,.079,2.953,9.432,9.432,0,0,1-.762,1.7c-.935,1.967-1.054,4.581-2.692,5.848a.572.572,0,0,1-.362.153c-.184-.011-.324-.188-.418-.366-.56-1.056-.222-2.387-.072-3.6a.97.97,0,0,0-.068-.624c-.12-.194-.351-.252-.52-.394a1.648,1.648,0,0,1-.365-1.3,33.545,33.545,0,0,1,.23-3.52,6.63,6.63,0,0,1,.446-1.929,8.166,8.166,0,0,1,1.21-1.73,19.341,19.341,0,0,0,3.884-8.589,5.672,5.672,0,0,1,.587-1.987,1.281,1.281,0,0,1,1.633-.622c.4.233-.784,3.116-.92,3.46a11.775,11.775,0,0,0-.468,2.839C209.44,1854.628,208.239,1857.065,208.416,1859.751Z" transform="translate(-179.08 -1817.636)" fill="#3c8f7c"/>
        <path id="Trazado_647630" data-name="Trazado 647630" d="M206.484,1861.951a13.459,13.459,0,0,0,.426-2.992c-.009-1.125-.3-2.237-.255-3.361a40.359,40.359,0,0,1,.858-4.226,30.042,30.042,0,0,0,.134-3.13c.117-2.986,1.019-6.017.326-8.9-.15-.628-.495-1.336-1.076-1.364-.526-.024-.934.568-1,1.151a5.972,5.972,0,0,0,.2,1.741,8,8,0,0,1-.622,4.778c-.661,1.393-1.723,2.522-2.3,3.963-.7,1.768-.594,3.785-.836,5.7-.481,3.808-2.382,7.344-2.359,11.191.01,1.531.538,3.317,1.854,3.74C205.645,1871.462,205.939,1864.425,206.484,1861.951Z" transform="translate(-179.038 -1818.411)" fill="#327f6b"/>
        <path id="Trazado_647631" data-name="Trazado 647631" d="M200.906,1864.871l-.576.083-7.7,1.106a1,1,0,0,0-.713,1.328l4.654,13.758a.878.878,0,0,0,.939.63l4.681-.673.577-.083,4.681-.673a.94.94,0,0,0,.765-.875l1.379-14.625a.938.938,0,0,0-.992-1.084Z" transform="translate(-178.933 -1815.798)" fill="#183658"/>
      </g>
      <path id="Trazado_647632" data-name="Trazado 647632" d="M313.519,1911.168a36.788,36.788,0,0,1-4.213-.053c-1.393-.17-2.735-2.515-3.8-2.294-1.171.245-2.312,5.647-2.312,5.647s13.765,4.974,18.049,4.667C322.942,1919.014,318.4,1914.744,313.519,1911.168Z" transform="translate(-3.925 40.451)" fill="#184655"/>
      <path id="Trazado_647633" data-name="Trazado 647633" d="M282.289,1897.131s-1.851,6.477-1.857,6.49c-.313.8-1.265,2.725-1.441,3.484-.661,2.849,11.717.8,9.509-1.183-.2-.18-1.387-2.133-1.236-3.126.232-1.526.844-3.887.844-3.887Z" transform="translate(-3.611 39.268)" fill="#f7a491"/>
      <path id="Trazado_647634" data-name="Trazado 647634" d="M288.469,1905.3a36.657,36.657,0,0,1-4.214-.054c-1.392-.17-2.735-2.514-3.8-2.293-1.171.243-2.351,5.142-2.351,5.142s14.662,5.547,18.444,5.405C298.249,1913.435,293.353,1908.874,288.469,1905.3Z" transform="translate(-3.6 39.856)" fill="#184655"/>
      <path id="Trazado_647635" data-name="Trazado 647635" d="M405.613,1913.064s-59.03,7.794-143.866-15.615c-42.975-11.858-126.177-54.688-196.312-38.845C11.028,1870.894,0,1885.67,0,1885.67v80.263l102.092-2.4,264.682-30.037Z" transform="translate(0 35.011)" fill="#5294c6"/>
      <path id="Trazado_647636" data-name="Trazado 647636" d="M416.387,1912.2s47.886-49.891,113.441-36.137c43.863,9.2,68.919,13.193,104.455,8.988s56.84-18,98.5-33.558V1972.91L591.2,1963.9Z" transform="translate(-5.39 34.643)" fill="#5294c6"/>
      <path id="Trazado_647637" data-name="Trazado 647637" d="M162.256,1898.446c67.974,3.572,118.056,38.518,151.435,32.275s112.8-70.5,226.673-19.416c6.6,2.96,12.264,5.8,17.077,8.526-6.373-4.921-15.731-10.271-28.692-16.085-113.878-51.087-193.293,13.173-226.672,19.416s-83.461-28.7-151.436-32.275-118.71,52.231-118.71,52.231L48,1946.191C61.778,1933.01,106.142,1895.5,162.256,1898.446Z" transform="translate(-0.413 37.953)" fill="#fff"/>
      <g id="Grupo_898645" data-name="Grupo 898645" transform="translate(426.041 1861.303)">
        <path id="Trazado_647638" data-name="Trazado 647638" d="M496.158,1890.863c-.5.061-60.322,35.449-59.868,38.45s-.256,5.1,3.789,3.621,25.021-11.455,30.85-15.173,1.188-3.245,13.958-8.458,15.849-8.093,18.143-8.206,6.15-2.144,5.812-3.363C507.8,1893.98,496.158,1890.863,496.158,1890.863Z" transform="translate(-431.688 -1822.671)" fill="#f7cc7f"/>
        <path id="Trazado_647639" data-name="Trazado 647639" d="M433.832,1936.8s-2.521.249-2.171,4.434.718,7.3,2.158,9.2,30.16-4.749,29.988-5.369,2.434-16.085,2.434-16.085-6.608-1.849-7.036-1.927S433.832,1936.8,433.832,1936.8Z" transform="translate(-431.628 -1819.003)" fill="#f7cc7f"/>
        <path id="Trazado_647640" data-name="Trazado 647640" d="M664.182,1837.606l-21.434-3.12s-27.377-5.313-37.344-3.9-16.446,3.313-23.984,5.241-38.228,13.743-38.228,13.743-9.444,6.216-14.227,10.931-28.149,35.015-28.149,35.015l-4.693,1.625s1.558,2.634,5.89,2.678c1.79.019,3.821,2.455,3.821,2.455s-19.15,8.163-26.727,12.147c-6.66,3.5-28.373,15.494-39.814,19.944a9.421,9.421,0,0,0-5.72,8.013,12.262,12.262,0,0,0,.284,4.364l28.1-6.327,33.806-6.23,19.106,21.743,129.246-44.737,1.186-26.42,34.928-10.413,14.436,19.335s9.128-11.149,14.256-14.624-7.931-48.252-10.983-49.916S673.776,1836.495,664.182,1837.606Z" transform="translate(-431.652 -1828.946)" fill="#f7cc7f"/>
        <path id="Trazado_647641" data-name="Trazado 647641" d="M714.2,1849.823a5.467,5.467,0,0,0-7.262-3.286c-6.049,2.665-15.966,7.421-18.58,10.99-3.836,5.238-2.236,18.114-2.236,18.114l11.807,16.311,15.283-15.073S721.543,1868.115,714.2,1849.823Z" transform="translate(-434.918 -1827.209)" fill="#eaa93f"/>
        <path id="Trazado_647642" data-name="Trazado 647642" d="M479.679,1918.491h0c13.918-4.817,28.7,3.867,33.018,19.4l2.529,9.1-50.4,17.447-2.529-9.1C457.978,1939.8,465.761,1923.31,479.679,1918.491Z" transform="translate(-432.01 -1820.005)" fill="#183658"/>
        <path id="Trazado_647643" data-name="Trazado 647643" d="M661.832,1861.983h0c13.917-4.817,28.7,3.867,33.018,19.4l2.53,9.1-50.4,17.447-2.529-9.1C640.132,1883.3,647.914,1866.8,661.832,1861.983Z" transform="translate(-434.367 -1825.733)" fill="#183658"/>
        <path id="Trazado_647644" data-name="Trazado 647644" d="M507.656,1889.932s-1.6,2.512-3.984,2.149a4.4,4.4,0,0,1-3.26-2.192l1.269-.439,3-.666Z" transform="translate(-432.518 -1822.882)" fill="#eaa93f"/>
        <g id="Grupo_898641" data-name="Grupo 898641" transform="translate(141.084 19.197)">
          <path id="Trazado_647645" data-name="Trazado 647645" d="M590.9,1923.543a101.981,101.981,0,0,1-6.324-13.226,167.409,167.409,0,0,1-9.986-36.284l-.025-.152,68.7-27.413.229-.091-.011.271c0,.138-.527,13.815.029,17.974l.013.1-.063.065a37.31,37.31,0,0,0-6.739,11.135c-2.63,6.538-4.925,17.112-.928,30.362l.052.172-44.757,17.162-.117.045Zm42.5-34.607a43.363,43.363,0,0,1,3.028-13.183,38.224,38.224,0,0,1,6.746-11.172c-.5-3.96-.1-15.737-.03-17.678l-68.209,27.218a167.04,167.04,0,0,0,9.934,36.035,104.656,104.656,0,0,0,6.232,13.067l44.329-17A48.526,48.526,0,0,1,633.4,1888.936Z" transform="translate(-574.562 -1846.377)" fill="#eaa93f"/>
        </g>
        <g id="Grupo_898642" data-name="Grupo 898642" transform="translate(76.37 46.65)">
          <path id="Trazado_647646" data-name="Trazado 647646" d="M525.919,1944.012l.091-.033,64.224-22.891-.1-.348L526,1943.6c-4.111-4.509-15.717-42.234-16.59-45.087l64.544-26.865-.114-.342L509,1898.291l.051.169c.51,1.676,12.551,41.115,16.8,45.479Z" transform="translate(-509 -1871.304)" fill="#eaa93f"/>
        </g>
        <path id="Trazado_647647" data-name="Trazado 647647" d="M642.663,1847s-1.551-4.846-3.544-6.537-23.924-5.317-32.215-5-35.232,8.626-35.232,8.626l3.141,28.831Z" transform="translate(-433.441 -1828.288)" fill="#eaa93f"/>
        <g id="Grupo_898643" data-name="Grupo 898643" transform="translate(142.302 8.61)">
          <path id="Trazado_647648" data-name="Trazado 647648" d="M619.36,1854.545l-40.8,15.151-2.76-25.337s23.675-7.3,30.961-7.581a65.177,65.177,0,0,1,8.814.573C616.772,1842.848,618.331,1849.96,619.36,1854.545Z" transform="translate(-575.796 -1836.764)" fill="#183658"/>
          <path id="Trazado_647649" data-name="Trazado 647649" d="M618.133,1837.523c8.726,1.126,18.768,3.1,19.936,4.094,1.752,1.485,3.191,4.924,3.191,4.924l-19.173,7.118Z" transform="translate(-576.344 -1836.688)" fill="#183658"/>
        </g>
        <path id="Trazado_647650" data-name="Trazado 647650" d="M570.944,1843.294s-22.291,8.962-26.983,12.173S528.8,1870.16,524.583,1876c-3.187,4.41-6.8,11.445-8.942,15.846-.69,1.416.547,3.037,1.91,2.5l56.534-22.223Z" transform="translate(-432.713 -1827.492)" fill="#eaa93f"/>
        <path id="Trazado_647651" data-name="Trazado 647651" d="M567.905,1845.9s-19.809,7.964-23.98,10.818-13.47,13.057-17.221,18.248a142.416,142.416,0,0,0-9.546,15.641c-.613,1.259.487,2.7,1.7,2.222l51.839-21.309Z" transform="translate(-432.733 -1827.228)" fill="#183658"/>
        <path id="Trazado_647652" data-name="Trazado 647652" d="M529.2,1858.2l2.24.327a.6.6,0,0,1,.341.944l-24.109,33.557s-4.094,3.174-5.975-.482C501.7,1892.548,525.1,1862.335,529.2,1858.2Z" transform="translate(-432.535 -1825.981)" fill="#183658"/>
        <path id="Trazado_647653" data-name="Trazado 647653" d="M446.224,1923.491a4.494,4.494,0,0,1,2.6,1.572c.8,1.223.216,5.68-4.368,7.063S446.224,1923.491,446.224,1923.491Z" transform="translate(-431.773 -1819.364)" fill="#cf283c"/>
        <g id="Grupo_898644" data-name="Grupo 898644" transform="translate(212.668 40.277)">
          <path id="Trazado_647654" data-name="Trazado 647654" d="M689.044,1882.379c3.512,12.634-2.816,26.051-14.135,29.969s-23.342-3.148-26.855-15.781,2.816-26.051,14.135-29.969S685.531,1869.745,689.044,1882.379Z" transform="translate(-647.085 -1865.516)" fill="#1a1a1a"/>
          <path id="Trazado_647655" data-name="Trazado 647655" d="M682.894,1883.867c2.444,8.79-1.959,18.125-9.834,20.851s-16.241-2.189-18.685-10.979,1.959-18.126,9.834-20.852S680.45,1875.076,682.894,1883.867Z" transform="translate(-647.17 -1864.846)" fill="#9e9da2"/>
          <path id="Trazado_647656" data-name="Trazado 647656" d="M678.236,1884.993c1.635,5.879-1.311,12.123-6.577,13.945s-10.862-1.465-12.5-7.344,1.31-12.121,6.577-13.944S676.6,1879.114,678.236,1884.993Z" transform="translate(-647.235 -1864.338)" fill="#d8d9dd"/>
        </g>
        <path id="Trazado_647657" data-name="Trazado 647657" d="M507.7,1938.637c3.512,12.634-2.816,26.051-14.135,29.969s-23.342-3.148-26.855-15.781,2.816-26.051,14.135-29.969S504.185,1926,507.7,1938.637Z" transform="translate(-432.07 -1819.538)" fill="#1a1a1a"/>
        <path id="Trazado_647658" data-name="Trazado 647658" d="M501.548,1940.123c2.444,8.79-1.959,18.126-9.835,20.852s-16.24-2.19-18.684-10.981,1.959-18.125,9.834-20.851S499.1,1931.334,501.548,1940.123Z" transform="translate(-432.155 -1818.867)" fill="#9e9da2"/>
        <path id="Trazado_647659" data-name="Trazado 647659" d="M496.89,1941.251c1.635,5.878-1.311,12.122-6.577,13.944s-10.862-1.464-12.5-7.343,1.31-12.121,6.577-13.945S495.255,1935.372,496.89,1941.251Z" transform="translate(-432.22 -1818.359)" fill="#d8d9dd"/>
        <path id="Trazado_647660" data-name="Trazado 647660" d="M513.77,1947.536,645.8,1899.763c1.44-.521,3.444,7.65,4.02,8.512.6.9-.446,2.291-2.209,2.9l-129.717,44.9c-2.545.88-3.74-.3-3.818-1.883C514.043,1953.449,512.155,1948.121,513.77,1947.536Z" transform="translate(-432.683 -1821.771)" fill="#eaa93f"/>
        <path id="Trazado_647661" data-name="Trazado 647661" d="M458.119,1938.623c.984-.39,2.2.957,2.58,2.825.421,2.074,6.432,19.894,3.771,20.814l-19.926,1.76c-8.028-1.83-10.621-11.17-10.621-11.17-.648-2.327-.17-4.577,1.075-5.069Z" transform="translate(-431.654 -1817.837)" fill="#eaa93f"/>
        <path id="Trazado_647770" data-name="Trazado 647770" d="M1.34.367,16.9-.212a1.255,1.255,0,0,1,1.258,1.371l-.012.346a1.491,1.491,0,0,1-1.355,1.469L1.232,3.552A1.255,1.255,0,0,1-.026,2.181l.012-.347A1.49,1.49,0,0,1,1.34.367Z" transform="matrix(0.938, -0.347, 0.347, 0.938, 184.671, 34.244)" fill="#eaa93f"/>
        <path id="Trazado_647662" data-name="Trazado 647662" d="M556.068,1887.569l14.091-5.818a1.673,1.673,0,0,0,.855-2.073h0a1.409,1.409,0,0,0-1.858-.954l-14.092,5.818a1.672,1.672,0,0,0-.854,2.073h0A1.408,1.408,0,0,0,556.068,1887.569Z" transform="translate(-433.214 -1823.912)" fill="#eaa93f"/>
        <path id="Trazado_647663" data-name="Trazado 647663" d="M703.351,1832.212l-14.384,4.979a2.11,2.11,0,0,0-.848,3.218l2.811,3.742a9.71,9.71,0,0,0,11,3.614l5.237-1.814a2.223,2.223,0,0,0,1.28-2.713l-2.669-9.6A1.914,1.914,0,0,0,703.351,1832.212Z" transform="translate(-434.943 -1828.625)" fill="#cf283c"/>
        <path id="Trazado_647664" data-name="Trazado 647664" d="M443.225,1923.176s3.82-.69,3.949,2.213c.09,2-1.712,5.064-2.84,6.776a4.552,4.552,0,0,1-2.127,1.758l-8.355,3.274s-1.616-2.607.01-7.738a6.525,6.525,0,0,1,3.84-4.207Z" transform="translate(-431.648 -1819.403)" fill="#eafcfc"/>
        <path id="Trazado_647665" data-name="Trazado 647665" d="M600.468,1837.681l11.622,19.544-10.4,3.863-10.631-21.127Z" transform="translate(-433.692 -1828.061)" fill="#eafcfc" opacity="0.1"/>
        <path id="Trazado_647666" data-name="Trazado 647666" d="M588.286,1840.409s11.046,21.247,10.681,21.383l-2.762,1.025-11.321-21.462Z" transform="translate(-433.612 -1827.785)" fill="#eafcfc" opacity="0.1"/>
        <path id="Trazado_647667" data-name="Trazado 647667" d="M552.7,1851.892l11.892,21.687-7.3,2.977-11.059-21.633Z" transform="translate(-433.112 -1826.621)" fill="#eafcfc" opacity="0.1"/>
        <path id="Trazado_647668" data-name="Trazado 647668" d="M539.275,1859.857c.916-.9,1.792-1.72,2.6-2.43l9.87,20.838h0c-.043.016-.116.046-.208.085L549,1879.39Z" transform="translate(-433.022 -1826.06)" fill="#eafcfc" opacity="0.1"/>
        <path id="Trazado_647669" data-name="Trazado 647669" d="M662.329,1836.831s-3.16,2.949-6.826,2.364-35.773-7.02-37.972-7.259,1.254-1.42,1.254-1.42,12.538,1.147,18.609,2.442Z" transform="translate(-434.025 -1828.787)" fill="#183658"/>
        <path id="Trazado_647670" data-name="Trazado 647670" d="M512.938,1883.853c-.16.055-3.966,2.574-3.966,2.574a3.351,3.351,0,0,0-1.044,3.739l.68,1.954a2.811,2.811,0,0,0,2.871,1.992c2.764-.269,4.888-.723,4.837-.906C516.242,1892.941,512.938,1883.853,512.938,1883.853Z" transform="translate(-432.613 -1823.382)" fill="#eaa93f"/>
      </g>
      <path id="Trazado_647671" data-name="Trazado 647671" d="M43.7,1949.982s50.737-55.8,118.711-52.232,118.056,38.518,151.435,32.275,112.8-70.5,226.673-19.416-50.3,66.4-74.417,68.208-244.828,5.118-244.828,5.118Z" transform="translate(-0.566 38.648)" fill="#70afe6"/>
      <g id="Grupo_898646" data-name="Grupo 898646" transform="translate(4.688 1904.002)">
        <path id="Trazado_647672" data-name="Trazado 647672" d="M101.762,1975.171,89.49,1977.78,74.536,1890.2l4.91-8.488,7.362,5.879Z" transform="translate(-5.653 -1866.297)" fill="#222b5a"/>
        <path id="Trazado_647673" data-name="Trazado 647673" d="M60.279,1977.82l-12.323,2.286-13.1-87.948,5.087-8.356,7.236,6.071Z" transform="translate(-5.139 -1866.085)" fill="#222b5a"/>
        <path id="Trazado_647674" data-name="Trazado 647674" d="M39.5,1990.539l-11.975,3.973L4.75,1909.055l4.12-9,7.855,5.023Z" transform="translate(-4.75 -1864.437)" fill="#222b5a"/>
        <path id="Trazado_647771" data-name="Trazado 647771" d="M.051,1.325,94.11-.669l-.094,4.893L-.043,6.218Z" transform="matrix(0.982, -0.187, 0.187, 0.982, 13.441, 61.198)" fill="#222b5a"/>
        <path id="Trazado_647675" data-name="Trazado 647675" d="M123.438,1975.2l-12.272,2.609-14.954-87.579,4.909-8.487,7.362,5.879Z" transform="translate(-5.934 -1866.294)" fill="#222b5a"/>
        <path id="Trazado_647676" data-name="Trazado 647676" d="M163.014,1967.722l-12.423,1.466-8.4-88.66,5.522-8,6.9,6.539Z" transform="translate(-6.529 -1867.228)" fill="#222b5a"/>
        <path id="Trazado_647677" data-name="Trazado 647677" d="M141.083,1964.587l-12.423,1.466-8.4-88.659,5.522-8,6.9,6.539Z" transform="translate(-6.245 -1867.546)" fill="#222b5a"/>
        <path id="Trazado_647772" data-name="Trazado 647772" d="M.054.825,58.665-.417l-.094,4.894L-.039,5.719Z" transform="matrix(0.982, -0.187, 0.187, 0.982, 104.091, 42.438)" fill="#222b5a"/>
        <path id="Trazado_647678" data-name="Trazado 647678" d="M171.929,1964.351l-12.412-1.577,9.039-88.582,6.948-6.477,5.465,8.054Z" transform="translate(-6.753 -1867.715)" fill="#222b5a"/>
      </g>
      <g id="Grupo_898650" data-name="Grupo 898650" transform="translate(219.268 1896.616)">
        <path id="Trazado_647679" data-name="Trazado 647679" d="M287.887,1905.658s14.359,4.823,17.468,10.214l-17.889,55.893s-19.964-1.133-30.747-8c0,0,1.34-47.521,9.1-57.6,2.586-3.358,11.49-1.638,11.49-1.638Z" transform="translate(-222.591 -1856.643)" fill="#f1b62b"/>
        <g id="Grupo_898649" data-name="Grupo 898649" transform="translate(45.746 5.832)">
          <g id="Grupo_898648" data-name="Grupo 898648">
            <g id="Grupo_898647" data-name="Grupo 898647">
              <path id="Trazado_647680" data-name="Trazado 647680" d="M270.122,1891.7s-5.529-20.215,3.767-24.2c7.141-3.063,9.425.75,9.425.75s11.153-5.684,12.7,7.519c0,0,7.542,1.78,7.952,9.137s-3.758,9.748-3.758,9.748,3.362,4.463,1.425,9.719-10.018,6.266-13.952,2.225-3.829-1.445-7.363-2.192S270.122,1891.7,270.122,1891.7Z" transform="translate(-268.49 -1866.305)" fill="#fff"/>
              <path id="Trazado_647681" data-name="Trazado 647681" d="M276.927,1897.274s3.633,12.5.872,17.727c-1.54,2.919,12.652-7.1,12.652-7.1l-4.166-14.58Z" transform="translate(-268.599 -1863.567)" fill="#f7a491"/>
              <path id="Trazado_647682" data-name="Trazado 647682" d="M286.819,1895.189l-.535-1.87-9.357,3.955s.5,1.729.992,4.17a9.607,9.607,0,0,0,3.162-.939A13.879,13.879,0,0,0,286.819,1895.189Z" transform="translate(-268.599 -1863.567)" fill="#f48c7f"/>
              <path id="Trazado_647683" data-name="Trazado 647683" d="M284.189,1872.372a12.543,12.543,0,0,1,6.106,6.011c2.083,4.428.782,18.743-8.273,23.061s-13.013-6.654-12.23-14.349S273.346,1869.387,284.189,1872.372Z" transform="translate(-268.505 -1865.744)" fill="#f7a491"/>
              <path id="Trazado_647684" data-name="Trazado 647684" d="M288.19,1888.448c-.7,1.971-.232,3.988,1.055,4.5s2.9-.663,3.606-2.634.232-3.988-1.055-4.5S288.894,1886.475,288.19,1888.448Z" transform="translate(-268.741 -1864.34)" fill="#f7a491"/>
              <path id="Trazado_647685" data-name="Trazado 647685" d="M282.128,1870.246c-1.56,1.046-.471,5.986,2.432,11.031s6.52,8.289,8.081,7.242.471-5.985-2.432-11.031S283.688,1869.2,282.128,1870.246Z" transform="translate(-268.657 -1865.925)" fill="#fff"/>
            </g>
          </g>
        </g>
        <path id="Trazado_647686" data-name="Trazado 647686" d="M222.224,1871.478c.756-1.163,4.933,3.632,6.123,3.138s-3.166-7.684-2.438-8.627c1.341-1.736,5.2,7.549,5.868,6.793s-2.9-10.549-1.017-10.649,2.743,10.585,3.777,10.128-1.6-9.856.435-11.229c1.089-.735,2.681,16.7,4.157,17.723s4.491-5.807,5.942-5.207-7.163,12.219-7.02,13.3,2.426,23.5,4.809,30.625c2.276-.673,4.5-1.364,6.62-2.046-.053,5.077,1.016,9.747,1.222,14.784-7.287,1.879-15.557,3.525-17.375,2.31-5.535-3.7-3.007-36.546-2.943-42.761s-2.279-7.937-3.192-11.4S221.467,1872.641,222.224,1871.478Z" transform="translate(-222.143 -1861.009)" fill="#f48c7f"/>
        <path id="Trazado_647687" data-name="Trazado 647687" d="M269.087,1904.616l6.685,13.391s-13.979,6.709-26.064,9.825c-.206-5.038-1.447-13.128-1.394-18.205A166.522,166.522,0,0,1,269.087,1904.616Z" transform="translate(-222.482 -1856.59)" fill="#f1b62b"/>
        <path id="Trazado_647688" data-name="Trazado 647688" d="M353.995,1895.815c-.324-1.39-5.781,1.371-6.728.426s5.464-5.864,5.094-7.038c-.681-2.163-7.316,4.905-7.686,3.933s6.15-8.639,4.432-9.5-6.018,8.736-6.831,7.889,4.718-8.523,3.271-10.631c-.774-1.127-7.964,14.455-9.672,14.8s-2.28-7.236-3.828-7.269,2.669,14.293,2.183,15.241-9.951,20.884-14.5,26.549c-1.9-1.554-3.741-3.1-5.493-4.6-1.612,4.748-4.488,8.961-6.328,13.565,6.169,4.719,13.68,9.321,15.77,8.93,6.364-1.188,14.761-32.8,16.737-38.607s4.72-6.461,6.7-9.314S354.318,1897.206,353.995,1895.815Z" transform="translate(-223.254 -1859)" fill="#f48c7f"/>
        <path id="Trazado_647689" data-name="Trazado 647689" d="M297.428,1908.993l-6,25.844s6.96-4.188,17.191,3.638c1.84-4.606,5.644-11.631,7.256-16.38A149.634,149.634,0,0,0,297.428,1908.993Z" transform="translate(-223.04 -1856.146)" fill="#f1b62b"/>
      </g>
      <path id="Trazado_647690" data-name="Trazado 647690" d="M0,1955.537s50.143-45.64,125.255-27.55,116.082,41.067,167.729,27.55S459.805,1886,559.215,1907.925s91.468,37.7,168.178,37.249l-.069,64.668H0Z" transform="translate(0 39.852)" fill="#92c4e8"/>
      <path id="Trazado_647691" data-name="Trazado 647691" d="M584.526,1815.97l41.205-52.679v-27.511l-40.851,51.84Z" transform="translate(-7.566 22.915)" fill="#eafcfc" opacity="0.1"/>
      <path id="Trazado_647692" data-name="Trazado 647692" d="M584.526,1778.819l41.205-50.515-.069-8.705-41.137,48.6Z" transform="translate(-7.566 21.275)" fill="#eafcfc" opacity="0.1"/>
      <path id="Trazado_647693" data-name="Trazado 647693" d="M636.744,1815.97l41.205-52.679v-27.511l-40.851,51.84Z" transform="translate(-8.242 22.915)" fill="#eafcfc" opacity="0.1"/>
      <path id="Trazado_647694" data-name="Trazado 647694" d="M636.744,1778.819l41.205-50.515-.069-8.705-41.137,48.6Z" transform="translate(-8.242 21.275)" fill="#eafcfc" opacity="0.1"/>
      <path id="Trazado_647695" data-name="Trazado 647695" d="M688.961,1815.97l41.205-52.679v-27.511l-40.851,51.84Z" transform="translate(-8.918 22.915)" fill="#eafcfc" opacity="0.1"/>
      <path id="Trazado_647696" data-name="Trazado 647696" d="M688.961,1778.819l41.205-50.515-.069-8.705-41.137,48.6Z" transform="translate(-8.918 21.275)" fill="#eafcfc" opacity="0.1"/>
      <path id="Trazado_647697" data-name="Trazado 647697" d="M92.986,1799.007l28.957-17.76.155,13.87L93.237,1814.6Z" transform="translate(-1.204 27.523)" fill="#eafcfc" opacity="0.1"/>
      <path id="Trazado_647698" data-name="Trazado 647698" d="M93.2,1818.374l28.937-19.508.057,5.13-28.938,19.479Z" transform="translate(-1.206 29.308)" fill="#eafcfc" opacity="0.1"/>
      <path id="Trazado_647699" data-name="Trazado 647699" d="M61.612,1798.983l28.918-17.736.155,13.87-28.9,19.484Z" transform="translate(-0.798 27.523)" fill="#eafcfc" opacity="0.1"/>
      <path id="Trazado_647700" data-name="Trazado 647700" d="M61.846,1818.333l28.876-19.467.057,5.13-28.872,19.435Z" transform="translate(-0.801 29.308)" fill="#eafcfc" opacity="0.1"/>
      <g id="Grupo_898651" data-name="Grupo 898651" transform="translate(305.843 1808.77)">
        <path id="Trazado_647701" data-name="Trazado 647701" d="M309.854,1798.983l28.918-17.736.155,13.87-28.9,19.484Z" transform="translate(-309.854 -1781.247)" fill="#eafcfc" opacity="0.1"/>
        <path id="Trazado_647702" data-name="Trazado 647702" d="M310.088,1818.333l28.876-19.467.057,5.13-28.872,19.435Z" transform="translate(-309.857 -1779.462)" fill="#eafcfc" opacity="0.1"/>
        <path id="Trazado_647703" data-name="Trazado 647703" d="M341.288,1798.983l28.918-17.736.155,13.87-28.9,19.484Z" transform="translate(-310.26 -1781.247)" fill="#eafcfc" opacity="0.1"/>
        <path id="Trazado_647704" data-name="Trazado 647704" d="M341.523,1818.333l28.876-19.467.057,5.13-28.872,19.435Z" transform="translate(-310.263 -1779.462)" fill="#eafcfc" opacity="0.1"/>
      </g>
      <path id="Trazado_647705" data-name="Trazado 647705" d="M483.7,1996.662l20.72-71.045-72.358-26.273-25.632,87.89,25.964,9.427Z" transform="translate(-5.261 39.492)" fill="#179587"/>
      <path id="Trazado_647773" data-name="Trazado 647773" d="M0,0,19.115.644l2.822,91.508L2.822,91.508Z" transform="translate(426.796 1938.837) rotate(18.025)" fill="#ed9b8e" opacity="0.6" style="mix-blend-mode: multiply;isolation: isolate"/>
      <path id="Trazado_647774" data-name="Trazado 647774" d="M0,0,7.672.259l.83,26.9L.83,26.9Z" transform="translate(469.589 1954.374) rotate(18.026)" fill="#efefb4"/>
      <path id="Trazado_647706" data-name="Trazado 647706" d="M343.713,1964.913c4.338,3.125,50.263-28.972,135.7-13.057s116.443-3.144,116.443-3.144l-97.471,56.618H344.161Z" transform="translate(-4.449 44.363)" fill="#92c4e8"/>
      <path id="Trazado_647707" data-name="Trazado 647707" d="M361.855,1961.394s73.985-35.345,159.789-2.287C521.644,1959.106,433.738,1942.864,361.855,1961.394Z" transform="translate(-4.684 44.118)" fill="#fff"/>
      <path id="Trazado_647708" data-name="Trazado 647708" d="M0,1509.694v14.678c6.291,8.679,15.849,14.286,26.588,14.492q-.124,1.831-.125,3.7c0,26.583,19.314,48.132,43.137,48.132,16.43,0,30.712-10.249,38-25.329a25.4,25.4,0,0,0,27.287,1.2c5.394,11.636,16.28,19.59,28.83,19.59,17.915,0,32.439-16.205,32.439-36.195q0-1.265-.079-2.51a32.63,32.63,0,0,0,11.9-9.085c8.625,15.585,24.071,25.973,41.693,25.973a45.722,45.722,0,0,0,30.611-11.993c5.132,18.305,20.449,31.59,38.547,31.59,18.082,0,33.386-13.26,38.533-31.54a25.4,25.4,0,0,0,27.516.346c7.717,22.208,27.047,37.956,49.677,37.956,21.056,0,39.256-13.634,47.9-33.421a47.372,47.372,0,0,0,26.32,8.052c1.088,0,2.167-.042,3.238-.116,3.446,15.54,16.026,27.062,31.018,27.062,15.322,0,28.123-12.032,31.232-28.09a36.512,36.512,0,0,0,19.662,5.785c14.561,0,27.3-8.719,34.243-21.733a29.876,29.876,0,0,0,17.3,5.572c.877,0,1.747-.041,2.608-.117,6.574,21.523,24.846,37,46.361,37,12.733,0,24.252-5.424,32.961-14.313v-66.685Z" transform="translate(0 0)" fill="#fff" opacity="0.1"/>
      <g id="Grupo_898652" data-name="Grupo 898652" transform="translate(15.73 1575.468)" opacity="0.5">
        <path id="Trazado_647709" data-name="Trazado 647709" d="M326.478,1688.572c.864-1.58,1.819-3.074,2.8-4.542s2.011-2.893,3.065-4.294,2.142-2.771,3.265-4.108,2.282-2.64,3.53-3.859c-.862,1.581-1.817,3.076-2.8,4.543s-2.011,2.894-3.067,4.293-2.143,2.771-3.266,4.107S327.726,1687.352,326.478,1688.572Z" transform="translate(-19.956 -1559.041)" fill="#fff"/>
        <path id="Trazado_647710" data-name="Trazado 647710" d="M279.114,1593.846c.863-1.581,1.819-3.074,2.8-4.542s2.011-2.893,3.066-4.294,2.142-2.772,3.265-4.108,2.281-2.64,3.53-3.859c-.862,1.582-1.817,3.075-2.8,4.543s-2.011,2.893-3.067,4.293-2.143,2.77-3.266,4.107S280.361,1592.626,279.114,1593.846Z" transform="translate(-19.343 -1568.642)" fill="#fff"/>
        <path id="Trazado_647711" data-name="Trazado 647711" d="M279.114,1633.109c.863-1.58,1.819-3.074,2.8-4.541s2.011-2.894,3.066-4.3,2.142-2.771,3.265-4.108,2.281-2.64,3.53-3.859c-.862,1.581-1.817,3.076-2.8,4.543s-2.011,2.894-3.067,4.293-2.143,2.771-3.266,4.107S280.361,1631.889,279.114,1633.109Z" transform="translate(-19.343 -1564.662)" fill="#fff"/>
        <path id="Trazado_647712" data-name="Trazado 647712" d="M347.085,1606.459c.863-1.58,1.819-3.075,2.8-4.542s2.012-2.894,3.066-4.294,2.142-2.772,3.265-4.108,2.281-2.64,3.53-3.859c-.862,1.582-1.817,3.075-2.8,4.543s-2.011,2.893-3.067,4.293-2.143,2.77-3.266,4.107S348.332,1605.239,347.085,1606.459Z" transform="translate(-20.222 -1567.363)" fill="#fff"/>
        <path id="Trazado_647713" data-name="Trazado 647713" d="M261.93,1701c.863-1.579,1.819-3.074,2.8-4.541s2.011-2.894,3.066-4.3,2.142-2.771,3.265-4.107,2.281-2.64,3.53-3.859c-.862,1.582-1.817,3.075-2.8,4.542s-2.011,2.894-3.067,4.294-2.143,2.77-3.266,4.107S263.177,1699.781,261.93,1701Z" transform="translate(-19.12 -1557.781)" fill="#fff"/>
        <path id="Trazado_647714" data-name="Trazado 647714" d="M279.114,1778.286c.863-1.58,1.819-3.074,2.8-4.541s2.011-2.894,3.066-4.3,2.142-2.771,3.265-4.108,2.281-2.64,3.53-3.858c-.862,1.58-1.817,3.075-2.8,4.542s-2.011,2.894-3.067,4.293-2.143,2.771-3.266,4.107S280.361,1777.066,279.114,1778.286Z" transform="translate(-19.343 -1549.948)" fill="#fff"/>
        <path id="Trazado_647715" data-name="Trazado 647715" d="M226.3,1798.05c.863-1.58,1.819-3.074,2.8-4.541s2.012-2.894,3.066-4.3,2.142-2.771,3.265-4.108,2.281-2.64,3.53-3.858c-.862,1.58-1.817,3.075-2.8,4.542s-2.011,2.894-3.067,4.294-2.143,2.77-3.266,4.106S227.545,1796.83,226.3,1798.05Z" transform="translate(-18.659 -1547.945)" fill="#fff"/>
        <path id="Trazado_647716" data-name="Trazado 647716" d="M294.709,1732.329c.864-1.579,1.819-3.074,2.8-4.541s2.012-2.894,3.066-4.3,2.142-2.771,3.265-4.107,2.281-2.64,3.53-3.859c-.862,1.582-1.817,3.075-2.8,4.542s-2.011,2.894-3.067,4.294-2.143,2.77-3.266,4.107S295.957,1731.11,294.709,1732.329Z" transform="translate(-19.544 -1554.606)" fill="#fff"/>
        <path id="Trazado_647717" data-name="Trazado 647717" d="M208.873,1731.508c.863-1.58,1.819-3.074,2.8-4.541s2.011-2.894,3.066-4.3,2.142-2.771,3.264-4.108,2.282-2.639,3.531-3.858c-.863,1.581-1.818,3.075-2.8,4.542s-2.012,2.894-3.067,4.294-2.143,2.77-3.266,4.106S210.12,1730.288,208.873,1731.508Z" transform="translate(-18.433 -1554.689)" fill="#fff"/>
        <path id="Trazado_647718" data-name="Trazado 647718" d="M139.1,1621.172c.864-1.58,1.819-3.075,2.8-4.542s2.011-2.894,3.066-4.294,2.141-2.772,3.264-4.108,2.282-2.64,3.531-3.859c-.863,1.582-1.818,3.075-2.8,4.543s-2.012,2.893-3.068,4.293-2.142,2.77-3.265,4.107S140.351,1619.952,139.1,1621.172Z" transform="translate(-17.53 -1565.872)" fill="#fff"/>
        <path id="Trazado_647719" data-name="Trazado 647719" d="M217.142,1586.217c.864-1.579,1.819-3.074,2.8-4.541s2.012-2.894,3.066-4.3,2.142-2.771,3.265-4.108,2.281-2.639,3.53-3.858c-.862,1.581-1.817,3.075-2.8,4.542s-2.011,2.894-3.067,4.294-2.143,2.77-3.266,4.107S218.39,1585,217.142,1586.217Z" transform="translate(-18.54 -1569.415)" fill="#fff"/>
        <path id="Trazado_647720" data-name="Trazado 647720" d="M224.512,1654.72c.863-1.58,1.819-3.074,2.8-4.542s2.012-2.893,3.066-4.294,2.142-2.771,3.265-4.108,2.281-2.64,3.53-3.859c-.862,1.582-1.817,3.076-2.8,4.543s-2.011,2.895-3.067,4.293-2.143,2.771-3.266,4.107S225.759,1653.5,224.512,1654.72Z" transform="translate(-18.636 -1562.472)" fill="#fff"/>
        <path id="Trazado_647721" data-name="Trazado 647721" d="M159.447,1670.964c.864-1.58,1.819-3.074,2.8-4.541s2.011-2.894,3.066-4.3,2.141-2.771,3.264-4.108,2.282-2.639,3.531-3.858c-.863,1.582-1.818,3.075-2.8,4.542s-2.011,2.894-3.067,4.294-2.142,2.77-3.265,4.106S160.695,1669.744,159.447,1670.964Z" transform="translate(-17.794 -1560.826)" fill="#fff"/>
        <path id="Trazado_647722" data-name="Trazado 647722" d="M139.1,1720.17c.864-1.581,1.819-3.074,2.8-4.542s2.011-2.893,3.066-4.294,2.141-2.772,3.264-4.108,2.282-2.64,3.531-3.859c-.863,1.582-1.818,3.076-2.8,4.543s-2.012,2.893-3.068,4.293-2.142,2.77-3.265,4.107S140.351,1718.95,139.1,1720.17Z" transform="translate(-17.53 -1555.839)" fill="#fff"/>
        <path id="Trazado_647723" data-name="Trazado 647723" d="M66.862,1686.221c.864-1.58,1.819-3.074,2.8-4.542s2.011-2.893,3.066-4.294,2.141-2.771,3.264-4.108,2.282-2.64,3.531-3.859c-.863,1.582-1.818,3.076-2.8,4.543s-2.012,2.894-3.068,4.293-2.142,2.771-3.265,4.107S68.11,1685,66.862,1686.221Z" transform="translate(-16.595 -1559.279)" fill="#fff"/>
        <path id="Trazado_647724" data-name="Trazado 647724" d="M88.974,1793.448c.863-1.58,1.819-3.075,2.8-4.542s2.011-2.894,3.066-4.294,2.142-2.772,3.264-4.108,2.282-2.64,3.531-3.859c-.863,1.582-1.818,3.075-2.8,4.542s-2.012,2.894-3.067,4.294-2.143,2.77-3.266,4.107S90.221,1792.228,88.974,1793.448Z" transform="translate(-16.881 -1548.412)" fill="#fff"/>
        <path id="Trazado_647725" data-name="Trazado 647725" d="M144.666,1786.334c.863-1.58,1.819-3.074,2.8-4.541s2.012-2.894,3.066-4.3,2.142-2.771,3.265-4.108,2.281-2.64,3.53-3.858c-.862,1.582-1.817,3.075-2.8,4.542s-2.011,2.894-3.067,4.294-2.143,2.77-3.266,4.106S145.913,1785.114,144.666,1786.334Z" transform="translate(-17.602 -1549.133)" fill="#fff"/>
        <path id="Trazado_647726" data-name="Trazado 647726" d="M277.515,1852.207c.864-1.581,1.819-3.074,2.8-4.541s2.011-2.894,3.066-4.3,2.141-2.771,3.264-4.108,2.282-2.64,3.531-3.858c-.863,1.58-1.818,3.075-2.8,4.542s-2.011,2.894-3.067,4.294-2.143,2.77-3.266,4.106S278.763,1850.987,277.515,1852.207Z" transform="translate(-19.322 -1542.456)" fill="#fff"/>
        <path id="Trazado_647727" data-name="Trazado 647727" d="M343.3,1824.833c.864-1.58,1.819-3.074,2.8-4.542s2.011-2.893,3.066-4.294,2.141-2.771,3.264-4.108,2.282-2.64,3.531-3.859c-.863,1.581-1.818,3.075-2.8,4.543s-2.012,2.893-3.068,4.293-2.142,2.77-3.265,4.107S344.549,1823.613,343.3,1824.833Z" transform="translate(-20.173 -1545.231)" fill="#fff"/>
        <path id="Trazado_647728" data-name="Trazado 647728" d="M332.893,1868.761c.863-1.58,1.819-3.074,2.8-4.541s2.012-2.894,3.066-4.3,2.142-2.771,3.265-4.108,2.281-2.64,3.53-3.858c-.862,1.582-1.817,3.075-2.8,4.542s-2.012,2.894-3.067,4.293-2.143,2.771-3.266,4.107S334.14,1867.541,332.893,1868.761Z" transform="translate(-20.039 -1540.778)" fill="#fff"/>
        <path id="Trazado_647729" data-name="Trazado 647729" d="M237.878,1846.855c.863-1.58,1.819-3.074,2.8-4.541s2.011-2.895,3.066-4.3,2.142-2.771,3.264-4.108,2.282-2.64,3.531-3.858c-.862,1.582-1.817,3.075-2.8,4.542s-2.012,2.894-3.067,4.294-2.143,2.77-3.266,4.106S239.125,1845.635,237.878,1846.855Z" transform="translate(-18.809 -1542.999)" fill="#fff"/>
        <path id="Trazado_647730" data-name="Trazado 647730" d="M152.122,1848.63c.863-1.58,1.819-3.075,2.8-4.542s2.011-2.894,3.066-4.294,2.142-2.772,3.264-4.108,2.282-2.64,3.531-3.859c-.863,1.581-1.818,3.075-2.8,4.542s-2.012,2.894-3.067,4.294-2.143,2.77-3.266,4.107S153.369,1847.41,152.122,1848.63Z" transform="translate(-17.699 -1542.819)" fill="#fff"/>
        <path id="Trazado_647731" data-name="Trazado 647731" d="M82.559,1864.306c.864-1.581,1.819-3.074,2.8-4.541s2.012-2.894,3.066-4.3,2.142-2.771,3.265-4.108,2.281-2.64,3.53-3.858c-.862,1.581-1.817,3.075-2.8,4.542s-2.011,2.894-3.067,4.294-2.143,2.77-3.266,4.106S83.807,1863.086,82.559,1864.306Z" transform="translate(-16.798 -1541.23)" fill="#fff"/>
        <path id="Trazado_647732" data-name="Trazado 647732" d="M205,1934.5c.864-1.58,1.819-3.074,2.8-4.542s2.012-2.893,3.066-4.294,2.142-2.772,3.265-4.108,2.281-2.64,3.53-3.859c-.862,1.582-1.817,3.076-2.8,4.543s-2.011,2.893-3.067,4.293-2.143,2.771-3.266,4.107S206.246,1933.281,205,1934.5Z" transform="translate(-18.383 -1534.116)" fill="#fff"/>
        <path id="Trazado_647733" data-name="Trazado 647733" d="M15.936,1699.4c.864-1.58,1.819-3.074,2.8-4.541s2.012-2.894,3.066-4.3,2.142-2.771,3.265-4.108,2.281-2.64,3.53-3.859c-.862,1.582-1.817,3.076-2.8,4.543s-2.011,2.894-3.067,4.293-2.143,2.771-3.266,4.107S17.184,1698.176,15.936,1699.4Z" transform="translate(-15.936 -1557.944)" fill="#fff"/>
        <path id="Trazado_647734" data-name="Trazado 647734" d="M15.936,1613.543c.864-1.58,1.819-3.074,2.8-4.541s2.012-2.894,3.066-4.3,2.142-2.771,3.265-4.108,2.281-2.639,3.53-3.858c-.862,1.582-1.817,3.075-2.8,4.542s-2.011,2.894-3.067,4.294-2.143,2.77-3.266,4.106S17.184,1612.323,15.936,1613.543Z" transform="translate(-15.936 -1566.646)" fill="#fff"/>
        <path id="Trazado_647735" data-name="Trazado 647735" d="M88.974,1613.543c.863-1.58,1.819-3.074,2.8-4.541s2.011-2.894,3.066-4.3,2.142-2.771,3.264-4.108,2.282-2.639,3.531-3.858c-.863,1.582-1.818,3.075-2.8,4.542s-2.012,2.894-3.067,4.294-2.143,2.77-3.266,4.106S90.221,1612.323,88.974,1613.543Z" transform="translate(-16.881 -1566.646)" fill="#fff"/>
        <path id="Trazado_647736" data-name="Trazado 647736" d="M360.976,1735.174c.864-1.579,1.819-3.074,2.8-4.541s2.011-2.894,3.065-4.3,2.142-2.771,3.265-4.107,2.282-2.64,3.53-3.859c-.862,1.582-1.817,3.075-2.8,4.542s-2.011,2.894-3.067,4.294-2.143,2.77-3.266,4.107S362.224,1733.955,360.976,1735.174Z" transform="translate(-20.402 -1554.318)" fill="#fff"/>
        <path id="Trazado_647737" data-name="Trazado 647737" d="M402.473,1711.364c.864-1.58,1.819-3.074,2.8-4.542s2.011-2.893,3.066-4.294,2.141-2.772,3.264-4.108,2.282-2.64,3.531-3.859c-.863,1.581-1.818,3.076-2.8,4.543s-2.011,2.893-3.067,4.293-2.143,2.77-3.265,4.107S403.721,1710.144,402.473,1711.364Z" transform="translate(-20.939 -1556.731)" fill="#fff"/>
        <path id="Trazado_647738" data-name="Trazado 647738" d="M445.615,1824.833c.864-1.58,1.819-3.074,2.8-4.542s2.011-2.893,3.066-4.294,2.141-2.771,3.264-4.108,2.282-2.64,3.531-3.859c-.863,1.581-1.818,3.075-2.8,4.543s-2.012,2.893-3.068,4.293-2.142,2.77-3.266,4.107S446.863,1823.613,445.615,1824.833Z" transform="translate(-21.498 -1545.231)" fill="#fff"/>
        <path id="Trazado_647739" data-name="Trazado 647739" d="M548.108,1768.049c.863-1.581,1.819-3.074,2.8-4.541s2.011-2.894,3.066-4.3,2.142-2.771,3.265-4.108,2.281-2.64,3.53-3.858c-.862,1.582-1.817,3.075-2.8,4.542s-2.012,2.894-3.067,4.293-2.143,2.771-3.266,4.107S549.355,1766.829,548.108,1768.049Z" transform="translate(-22.824 -1550.986)" fill="#fff"/>
        <path id="Trazado_647740" data-name="Trazado 647740" d="M470.157,1778.286c.864-1.58,1.819-3.074,2.8-4.541s2.011-2.894,3.065-4.3,2.142-2.771,3.265-4.108,2.282-2.64,3.53-3.858c-.862,1.58-1.817,3.075-2.8,4.542s-2.011,2.894-3.067,4.293-2.143,2.771-3.266,4.107S471.4,1777.066,470.157,1778.286Z" transform="translate(-21.815 -1549.948)" fill="#fff"/>
        <path id="Trazado_647741" data-name="Trazado 647741" d="M519.977,1720.17c.864-1.581,1.819-3.074,2.8-4.542s2.011-2.893,3.066-4.294,2.141-2.772,3.264-4.108,2.282-2.64,3.53-3.859c-.862,1.582-1.817,3.076-2.8,4.543s-2.011,2.893-3.067,4.293-2.143,2.77-3.266,4.107S521.225,1718.95,519.977,1720.17Z" transform="translate(-22.46 -1555.839)" fill="#fff"/>
        <path id="Trazado_647742" data-name="Trazado 647742" d="M507.148,1661.011c.864-1.58,1.819-3.074,2.8-4.541s2.012-2.894,3.066-4.3,2.142-2.771,3.265-4.108,2.281-2.64,3.53-3.858c-.862,1.581-1.817,3.075-2.8,4.542s-2.011,2.894-3.067,4.293-2.143,2.771-3.266,4.107S508.4,1659.791,507.148,1661.011Z" transform="translate(-22.294 -1561.834)" fill="#fff"/>
        <path id="Trazado_647743" data-name="Trazado 647743" d="M570.245,1609.9c.863-1.579,1.819-3.074,2.8-4.541s2.011-2.894,3.066-4.3,2.142-2.771,3.264-4.107,2.282-2.64,3.531-3.859c-.863,1.582-1.818,3.075-2.8,4.542s-2.012,2.894-3.067,4.294-2.143,2.77-3.266,4.107S571.492,1608.683,570.245,1609.9Z" transform="translate(-23.111 -1567.014)" fill="#fff"/>
        <path id="Trazado_647744" data-name="Trazado 647744" d="M695.3,1612.767c.864-1.58,1.819-3.075,2.8-4.542s2.011-2.894,3.065-4.294,2.142-2.772,3.265-4.108,2.282-2.64,3.53-3.859c-.862,1.582-1.817,3.075-2.8,4.543s-2.011,2.893-3.067,4.293-2.143,2.77-3.266,4.107S696.549,1611.547,695.3,1612.767Z" transform="translate(-24.73 -1566.724)" fill="#fff"/>
        <path id="Trazado_647745" data-name="Trazado 647745" d="M450.913,1678.593c.864-1.58,1.819-3.074,2.8-4.542s2.011-2.893,3.066-4.294,2.141-2.772,3.264-4.108,2.282-2.64,3.531-3.859c-.863,1.581-1.818,3.075-2.8,4.543s-2.011,2.893-3.067,4.293-2.143,2.77-3.266,4.107S452.161,1677.373,450.913,1678.593Z" transform="translate(-21.566 -1560.052)" fill="#fff"/>
        <path id="Trazado_647746" data-name="Trazado 647746" d="M554.287,1668.639c.864-1.579,1.819-3.074,2.8-4.541s2.011-2.894,3.066-4.3,2.141-2.771,3.264-4.108,2.282-2.639,3.531-3.858c-.863,1.581-1.818,3.075-2.8,4.542s-2.011,2.894-3.067,4.294-2.143,2.77-3.265,4.107S555.535,1667.419,554.287,1668.639Z" transform="translate(-22.904 -1561.061)" fill="#fff"/>
        <path id="Trazado_647747" data-name="Trazado 647747" d="M621.505,1662.348c.863-1.58,1.819-3.074,2.8-4.541s2.011-2.894,3.066-4.3,2.142-2.771,3.264-4.108,2.282-2.64,3.531-3.858c-.863,1.58-1.818,3.075-2.8,4.542s-2.012,2.894-3.067,4.294-2.143,2.77-3.266,4.106S622.752,1661.128,621.505,1662.348Z" transform="translate(-23.774 -1561.699)" fill="#fff"/>
        <path id="Trazado_647748" data-name="Trazado 647748" d="M635.148,1598.83c.864-1.581,1.819-3.074,2.8-4.541s2.011-2.894,3.065-4.3,2.142-2.771,3.265-4.108,2.282-2.639,3.531-3.858c-.863,1.582-1.818,3.075-2.8,4.542s-2.011,2.894-3.067,4.294-2.143,2.77-3.266,4.106S636.4,1597.61,635.148,1598.83Z" transform="translate(-23.951 -1568.136)" fill="#fff"/>
        <path id="Trazado_647749" data-name="Trazado 647749" d="M408.888,1797.575c.864-1.58,1.819-3.074,2.8-4.541s2.011-2.894,3.065-4.3,2.142-2.771,3.265-4.108,2.281-2.639,3.53-3.858c-.862,1.582-1.817,3.075-2.8,4.542s-2.011,2.894-3.067,4.294-2.143,2.77-3.266,4.106S410.135,1796.355,408.888,1797.575Z" transform="translate(-21.022 -1547.993)" fill="#fff"/>
        <path id="Trazado_647750" data-name="Trazado 647750" d="M406.513,1875.59c.864-1.58,1.819-3.074,2.8-4.542s2.011-2.893,3.065-4.294,2.142-2.772,3.265-4.108,2.282-2.64,3.53-3.859c-.862,1.582-1.817,3.076-2.8,4.543s-2.011,2.893-3.067,4.293-2.143,2.77-3.266,4.107S407.761,1874.37,406.513,1875.59Z" transform="translate(-20.992 -1540.086)" fill="#fff"/>
        <path id="Trazado_647751" data-name="Trazado 647751" d="M432.786,1909.3c.864-1.579,1.819-3.074,2.8-4.541s2.011-2.894,3.065-4.3,2.142-2.771,3.265-4.107,2.282-2.64,3.53-3.859c-.862,1.582-1.817,3.075-2.8,4.542s-2.011,2.894-3.067,4.294-2.143,2.77-3.266,4.106S434.034,1908.085,432.786,1909.3Z" transform="translate(-21.332 -1536.669)" fill="#fff"/>
        <path id="Trazado_647752" data-name="Trazado 647752" d="M552.564,1969.467c.863-1.581,1.818-3.074,2.8-4.541s2.011-2.894,3.066-4.3,2.141-2.771,3.264-4.108,2.282-2.64,3.531-3.859c-.863,1.581-1.818,3.076-2.8,4.543s-2.011,2.895-3.067,4.293-2.143,2.771-3.265,4.107S553.811,1968.247,552.564,1969.467Z" transform="translate(-22.882 -1530.572)" fill="#fff"/>
        <path id="Trazado_647753" data-name="Trazado 647753" d="M485.406,1865.241c.863-1.58,1.819-3.074,2.8-4.542s2.011-2.893,3.066-4.294,2.142-2.771,3.265-4.108,2.281-2.64,3.53-3.859c-.862,1.582-1.817,3.076-2.8,4.543s-2.011,2.894-3.067,4.293-2.143,2.771-3.266,4.107S486.653,1864.021,485.406,1865.241Z" transform="translate(-22.013 -1541.135)" fill="#fff"/>
        <path id="Trazado_647754" data-name="Trazado 647754" d="M651.173,1712.541c.863-1.579,1.819-3.074,2.8-4.541s2.012-2.894,3.066-4.294,2.142-2.772,3.264-4.108,2.282-2.64,3.531-3.859c-.863,1.582-1.817,3.075-2.8,4.542s-2.012,2.894-3.067,4.294-2.143,2.77-3.266,4.107S652.42,1711.322,651.173,1712.541Z" transform="translate(-24.158 -1556.612)" fill="#fff"/>
        <path id="Trazado_647755" data-name="Trazado 647755" d="M547.458,1896.6c.864-1.581,1.819-3.074,2.8-4.542s2.011-2.893,3.066-4.294,2.141-2.772,3.264-4.108,2.282-2.64,3.531-3.859c-.863,1.582-1.818,3.076-2.8,4.543s-2.011,2.893-3.067,4.293-2.143,2.771-3.265,4.107S548.706,1895.383,547.458,1896.6Z" transform="translate(-22.816 -1537.957)" fill="#fff"/>
        <path id="Trazado_647756" data-name="Trazado 647756" d="M591.527,1839.214c.864-1.58,1.819-3.075,2.8-4.542s2.011-2.894,3.066-4.294,2.141-2.772,3.264-4.108,2.282-2.64,3.531-3.859c-.863,1.582-1.818,3.075-2.8,4.542s-2.012,2.894-3.068,4.294-2.142,2.77-3.265,4.107S592.775,1837.994,591.527,1839.214Z" transform="translate(-23.386 -1543.773)" fill="#fff"/>
        <path id="Trazado_647757" data-name="Trazado 647757" d="M603.354,1903.492c.864-1.58,1.819-3.074,2.8-4.541s2.011-2.894,3.065-4.3,2.142-2.771,3.265-4.108,2.282-2.64,3.53-3.858c-.862,1.582-1.817,3.075-2.8,4.542s-2.011,2.895-3.067,4.294-2.143,2.77-3.266,4.106S604.6,1902.272,603.354,1903.492Z" transform="translate(-23.54 -1537.258)" fill="#fff"/>
        <path id="Trazado_647758" data-name="Trazado 647758" d="M711.224,1802.923c.864-1.58,1.819-3.074,2.8-4.542s2.011-2.893,3.066-4.294,2.141-2.772,3.264-4.108,2.282-2.64,3.53-3.859c-.862,1.582-1.817,3.076-2.8,4.543s-2.011,2.893-3.067,4.293-2.143,2.77-3.266,4.107S712.472,1801.7,711.224,1802.923Z" transform="translate(-24.936 -1547.451)" fill="#fff"/>
        <path id="Trazado_647759" data-name="Trazado 647759" d="M645.374,1770.658c.864-1.581,1.819-3.074,2.8-4.542s2.012-2.894,3.066-4.294,2.142-2.772,3.265-4.108,2.281-2.64,3.53-3.859c-.862,1.581-1.817,3.076-2.8,4.543s-2.011,2.893-3.067,4.293-2.143,2.771-3.266,4.107S646.621,1769.438,645.374,1770.658Z" transform="translate(-24.083 -1550.722)" fill="#fff"/>
        <path id="Trazado_647760" data-name="Trazado 647760" d="M706.266,1724.7c.863-1.581,1.819-3.074,2.8-4.541s2.011-2.894,3.066-4.3,2.142-2.771,3.265-4.108,2.281-2.64,3.53-3.859c-.863,1.581-1.817,3.076-2.8,4.543s-2.011,2.895-3.067,4.293-2.143,2.771-3.266,4.107S707.513,1723.481,706.266,1724.7Z" transform="translate(-24.872 -1555.379)" fill="#fff"/>
        <path id="Trazado_647761" data-name="Trazado 647761" d="M603.354,1790.422c.864-1.58,1.819-3.074,2.8-4.542s2.011-2.893,3.065-4.294,2.142-2.771,3.265-4.108,2.282-2.64,3.53-3.859c-.862,1.582-1.817,3.076-2.8,4.543s-2.011,2.893-3.067,4.293-2.143,2.771-3.266,4.107S604.6,1789.2,603.354,1790.422Z" transform="translate(-23.54 -1548.718)" fill="#fff"/>
        <path id="Trazado_647762" data-name="Trazado 647762" d="M695.3,1661.011c.864-1.58,1.819-3.074,2.8-4.541s2.011-2.894,3.065-4.3,2.142-2.771,3.265-4.108,2.282-2.64,3.53-3.858c-.862,1.581-1.817,3.075-2.8,4.542s-2.011,2.894-3.067,4.293-2.143,2.771-3.266,4.107S696.549,1659.791,695.3,1661.011Z" transform="translate(-24.73 -1561.834)" fill="#fff"/>
        <path id="Trazado_647763" data-name="Trazado 647763" d="M548.108,1808.7c.863-1.58,1.819-3.074,2.8-4.541s2.011-2.894,3.066-4.3,2.142-2.771,3.265-4.108,2.281-2.64,3.53-3.858c-.862,1.58-1.817,3.075-2.8,4.542s-2.012,2.895-3.067,4.293-2.143,2.771-3.266,4.107S549.355,1807.484,548.108,1808.7Z" transform="translate(-22.824 -1546.865)" fill="#fff"/>
        <path id="Trazado_647764" data-name="Trazado 647764" d="M485.406,1830.385c.863-1.58,1.819-3.074,2.8-4.542s2.011-2.893,3.066-4.294,2.142-2.771,3.265-4.108,2.281-2.64,3.53-3.859c-.862,1.581-1.817,3.076-2.8,4.543s-2.011,2.894-3.067,4.293-2.143,2.771-3.266,4.107S486.653,1829.165,485.406,1830.385Z" transform="translate(-22.013 -1544.668)" fill="#fff"/>
        <path id="Trazado_647765" data-name="Trazado 647765" d="M428.507,1739.137c.863-1.58,1.819-3.075,2.8-4.542s2.011-2.894,3.066-4.294,2.142-2.772,3.264-4.108,2.282-2.64,3.531-3.859c-.862,1.582-1.818,3.075-2.8,4.542s-2.012,2.894-3.067,4.294-2.143,2.77-3.266,4.107S429.754,1737.917,428.507,1739.137Z" transform="translate(-21.276 -1553.916)" fill="#fff"/>
        <path id="Trazado_647766" data-name="Trazado 647766" d="M483.651,1613.543c.864-1.58,1.819-3.074,2.8-4.541s2.011-2.894,3.066-4.3,2.141-2.771,3.264-4.108,2.282-2.639,3.53-3.858c-.862,1.582-1.817,3.075-2.8,4.542s-2.011,2.894-3.067,4.294-2.143,2.77-3.266,4.106S484.9,1612.323,483.651,1613.543Z" transform="translate(-21.99 -1566.646)" fill="#fff"/>
        <path id="Trazado_647767" data-name="Trazado 647767" d="M386.648,1587.065c.863-1.58,1.819-3.075,2.8-4.542s2.011-2.895,3.066-4.294,2.142-2.772,3.265-4.108,2.281-2.64,3.53-3.859c-.862,1.582-1.817,3.075-2.8,4.543s-2.011,2.893-3.067,4.293-2.143,2.77-3.266,4.107S387.895,1585.845,386.648,1587.065Z" transform="translate(-20.734 -1569.329)" fill="#fff"/>
        <path id="Trazado_647768" data-name="Trazado 647768" d="M439.2,1638.308c.863-1.58,1.819-3.075,2.8-4.542s2.012-2.894,3.066-4.294,2.142-2.772,3.265-4.108,2.281-2.64,3.53-3.859c-.863,1.582-1.817,3.075-2.8,4.542s-2.012,2.894-3.067,4.294-2.143,2.77-3.266,4.107S440.448,1637.088,439.2,1638.308Z" transform="translate(-21.415 -1564.135)" fill="#fff"/>
        <path id="Trazado_647769" data-name="Trazado 647769" d="M383.631,1640.7c.864-1.58,1.819-3.074,2.8-4.541s2.011-2.894,3.066-4.3,2.141-2.771,3.264-4.108,2.282-2.639,3.531-3.858c-.863,1.581-1.818,3.075-2.8,4.542s-2.012,2.894-3.068,4.294-2.142,2.77-3.265,4.107S384.879,1639.476,383.631,1640.7Z" transform="translate(-20.695 -1563.893)" fill="#fff"/>
      </g>
    </g>
    <g id="Rectángulo_294056" data-name="Rectángulo 294056" transform="translate(705.853 6241.538)" fill="none" stroke="#f1b62b" stroke-width="3">
      <rect width="685.213" height="489.438" stroke="none"/>
      <rect x="1.5" y="1.5" width="682.213" height="486.438" fill="none"/>
    </g>
  </g>
</svg>
