<svg xmlns="http://www.w3.org/2000/svg" width="169.912" height="169.912" viewBox="0 0 169.912 169.912">
  <g id="Grupo_1000276" data-name="Grupo 1000276" transform="translate(-338 -3888)">
    <ellipse id="Elipse_5191" data-name="Elipse 5191" cx="84.956" cy="84.956" rx="84.956" ry="84.956" transform="translate(338 3888)" fill="#179587"/>
    <g id="desastre-natural" transform="translate(356.439 3869.05)">
      <path id="Trazado_647269" data-name="Trazado 647269" d="M91.27,109.634l11.743-66.6a.8.8,0,0,0-.651-.93L95.41,40.881a.8.8,0,0,0-.93.651L82.423,109.911,93.3,154.892l8.422-2.035Z" transform="translate(-60.58 -5.514)" fill="#222b5a"/>
      <path id="Trazado_647270" data-name="Trazado 647270" d="M57.9,155.588l10.484,1.849,2.74-15.541L60.64,140.047a.8.8,0,0,0-.93.651l-2.461,13.959A.8.8,0,0,0,57.9,155.588Z" transform="translate(-42.068 -78.4)" fill="#ddebfd"/>
      <path id="Trazado_647271" data-name="Trazado 647271" d="M272.094,310.177,262.6,336.253H234.013l-29.252-10.648L217.6,290.341l30.556-2.707a2.862,2.862,0,0,1,1.722.394c.078.05.155.1.23.155a2.332,2.332,0,0,1,.322.277Z" transform="translate(-150.497 -186.876)" fill="#e8e8e8"/>
      <path id="Trazado_647272" data-name="Trazado 647272" d="M275.924,293.45a3.009,3.009,0,0,1,1.812.414c.082.052.163.105.242.164a2.449,2.449,0,0,1,.338.292l21.442,21.492,2.05-5.632-21.667-21.717a2.331,2.331,0,0,0-.322-.277c-.075-.055-.153-.105-.23-.155a2.862,2.862,0,0,0-1.722-.394l-30.556,2.707-2.122,5.83Z" transform="translate(-180.212 -186.878)" fill="#afafaf"/>
      <path id="Trazado_647273" data-name="Trazado 647273" d="M292.938,211.609,287.154,227.5l-12.741,1.91,6.077-16.7Z" transform="translate(-201.691 -131.007)" fill="#f1b62b"/>
      <path id="Trazado_647274" data-name="Trazado 647274" d="M288.059,286.42l-26.3-26.356a2.856,2.856,0,0,0-2.275-.828L222.4,262.524a1.474,1.474,0,0,1-1.6-1.338l-.618-6.971a1.474,1.474,0,0,1,1.337-1.6l40.732-3.611a4.972,4.972,0,0,1,3.959,1.441L295.1,279.4a1.473,1.473,0,0,1,0,2.083l-4.954,4.943a1.474,1.474,0,0,1-2.084,0Z" transform="translate(-161.831 -158.48)" fill="#ee4e5d"/>
      <circle id="Elipse_5579" data-name="Elipse 5579" cx="5.224" cy="5.224" r="5.224" transform="translate(85.508 117.808) rotate(-47.472)" fill="#4980ac"/>
      <path id="Trazado_647275" data-name="Trazado 647275" d="M132.269,409.342h-98.4L40.4,391.2a1.931,1.931,0,0,1,1.8-1.277l5.685-.048a1.931,1.931,0,0,1,1.728,1.038l3.123,5.984a1.493,1.493,0,0,0,1.941.669l18.966-8.616a2.256,2.256,0,0,1,1.467-.138L94.762,393.6a2.088,2.088,0,0,0,1.9-.482l6.08-5.513a2.088,2.088,0,0,1,1.84-.495l15.385,3.295a2.087,2.087,0,0,1,1.346.955Z" transform="translate(-24.892 -259.964)" fill="#f1b62b"/>
      <g id="Grupo_897623" data-name="Grupo 897623" transform="translate(8.975 127.1)">
        <path id="Trazado_647276" data-name="Trazado 647276" d="M33.867,455.957h98.4l-3.334-5.47h-93.1Z" transform="translate(-33.867 -433.679)" fill="#ab7c0f"/>
        <path id="Trazado_647277" data-name="Trazado 647277" d="M196.581,400.07a2.087,2.087,0,0,0,1.9-.482l1.529-1.386a2.087,2.087,0,0,1-1.23.076l-19.653-4.785a2.257,2.257,0,0,0-1.467.138l-2.272,1.032Z" transform="translate(-137.88 -391.742)" fill="#766d78"/>
        <path id="Trazado_647278" data-name="Trazado 647278" d="M308.076,391.359a2.088,2.088,0,0,0-1.346-.955l-15.385-3.295a2.088,2.088,0,0,0-1.84.495l-1.531,1.388a2.086,2.086,0,0,1,1.175-.09l9.254,1.5a2.087,2.087,0,0,1,1.346.955l10.96,17.982h8.326Z" transform="translate(-220.634 -387.063)" fill="#ab7c0f"/>
      </g>
      <path id="Trazado_647279" data-name="Trazado 647279" d="M363.209,425.551H322.563l5.043-9.99a1.375,1.375,0,0,1,.953-.728l27.89-5.688a1.375,1.375,0,0,1,1.579.911Z" transform="translate(-237.08 -276.173)" fill="#e8e8e8"/>
      <path id="Trazado_647280" data-name="Trazado 647280" d="M436.842,410.055a1.375,1.375,0,0,0-1.579-.911l-5.469,1.115a1.355,1.355,0,0,1,1.132.861l5.18,14.43h5.916Z" transform="translate(-315.894 -276.172)" fill="#afafaf"/>
      <g id="Grupo_897624" data-name="Grupo 897624" transform="translate(0 33.366)">
        <path id="Trazado_647281" data-name="Trazado 647281" d="M124.822,129.345a3.439,3.439,0,0,0,2.446,1.016h0a3.438,3.438,0,0,0,2.444-1.011l4.954-4.943a3.465,3.465,0,0,0,.006-4.895l-12.2-12.228a1.988,1.988,0,1,0-2.814,2.808L131.5,121.956l-4.226,4.217L101.34,100.181a4.833,4.833,0,0,0-3.857-1.4L60.91,102.019l-.527-5.947L100.6,92.507a2.973,2.973,0,0,1,2.376.865l10.132,10.155a1.988,1.988,0,1,0,2.814-2.808L105.794,90.565a6.943,6.943,0,0,0-5.542-2.017l-10.105.9,2.538-6.972,2.264-.2a1.988,1.988,0,1,0-.351-3.96L73.9,80.145a1.988,1.988,0,0,0,.173,3.967c.059,0,.118,0,.178-.008l1.613-.143-2.538,6.972L59.52,92.158a3.461,3.461,0,0,0-3.141,3.753L57,102.882a3.468,3.468,0,0,0,3.753,3.142l3.417-.3-8.186,22.487-5.291-1.288a4.246,4.246,0,0,0-2.757.259l-.733.333-2.784-19.523a1.988,1.988,0,1,0-3.935.561l2.949,20.675-4.164,1.891-6.541-27.061,7.718-43.774,13.611,3.786a1.988,1.988,0,0,0,1.065-3.83l-13.983-3.89,1.819-10.315,14.133,2.492a1.988,1.988,0,1,0,.69-3.915L43.642,42.119l.75-4.253a2.794,2.794,0,0,0-2.265-3.232l-6.94-1.222a2.789,2.789,0,0,0-3.244,2.259l-.75,4.253L17.062,37.432a1.988,1.988,0,1,0-.69,3.915L30.5,43.839,28.9,52.946,15.287,49.159a1.988,1.988,0,0,0-1.065,3.83L28.2,56.878l-.761,4.313-8.526-1.5a2.792,2.792,0,0,0-3.232,2.264L13.223,75.911a2.79,2.79,0,0,0,2.264,3.233l8.526,1.5-1.048,5.946a1.988,1.988,0,0,0,3.915.691C28.71,76.9,30.243,68.209,32.052,57.948l4.54,1.263-7.858,44.563a1.991,1.991,0,0,0,.025.812l6.817,28.2-4.348,1.975-7.357-30.431,1.385-7.849a1.988,1.988,0,0,0-3.915-.691l-1.458,8.258a1.985,1.985,0,0,0,.025.813l5.849,24.2a3.883,3.883,0,0,0-2.723-1.109H17.295a3.938,3.938,0,0,0-3.656,2.613l-.644,1.788a3.919,3.919,0,0,0-3.924-1.52L3.724,131.9a1.987,1.987,0,1,0,.781,3.9l5.311-1.064,1.537,2.177L7.58,147.391H1.988a1.988,1.988,0,1,0,0,3.975H131.8a1.988,1.988,0,1,0,0-3.975h-4.235l-4.726-14.137a3.361,3.361,0,0,0-1.988-2.072l1.552-4.265ZM80.237,83.574l8.076-.716-2.538,6.972-8.076.716ZM17.344,75.435l2.05-11.627,7.359,1.3L24.7,76.733ZM35.652,37.53l4.619.813-.544,3.085-4.619-.814ZM32.745,54.015l1.673-9.487,4.619.814-1.752,9.935ZM17.373,131.927h5.614l3.095,5.927a3.477,3.477,0,0,0,4.525,1.559L49.577,130.8a.261.261,0,0,1,.17-.015l19.659,4.787a4.087,4.087,0,0,0,3.7-.943l6.082-5.514a.1.1,0,0,1,.086-.022l15.389,3.295a.1.1,0,0,1,.06.044l1.92,3.15-5.558,1.133a3.345,3.345,0,0,0-2.33,1.78l-4.492,8.9H23.614l-7.82-11.078Zm-3.223,8.949,4.6,6.513H11.8Zm109.22,6.514H88.713l3.454-6.843,27.069-5.52Zm-6.882-15.86-15.708,3.2-2.665-4.373A4.082,4.082,0,0,0,95.49,128.5L80.1,125.2a4.085,4.085,0,0,0-3.589.967l-6.076,5.508a.109.109,0,0,1-.1.027l-10.477-2.551,8.672-23.821,29.3-2.6a.866.866,0,0,1,.692.252L119.3,123.809Z" transform="translate(0 -33.366)"/>
        <path id="Trazado_647282" data-name="Trazado 647282" d="M332.928,323.78a7.212,7.212,0,1,0,4.311,9.244A7.221,7.221,0,0,0,332.928,323.78Zm.575,7.884a3.237,3.237,0,1,1-1.935-4.149A3.242,3.242,0,0,1,333.5,331.664Z" transform="translate(-237.582 -246.497)"/>
        <path id="Trazado_647283" data-name="Trazado 647283" d="M159.815,428.254l4.352-2.637a.85.85,0,0,1,.514-.12l5.082.434a3.445,3.445,0,0,1,2.753,1.811l.725,1.354a1.988,1.988,0,0,0,3.5-1.877l-.725-1.354a7.405,7.405,0,0,0-5.919-3.895l-5.082-.434a4.794,4.794,0,0,0-2.911.681l-4.353,2.637a1.987,1.987,0,1,0,2.06,3.4Z" transform="translate(-115.245 -318.654)"/>
      </g>
    </g>
  </g>
</svg>
