<svg xmlns="http://www.w3.org/2000/svg" width="113.325" height="113.324" viewBox="0 0 113.325 113.324">
  <g id="Grupo_1000271" data-name="Grupo 1000271" transform="translate(-251 -2911)">
    <g id="Grupo_1000182" data-name="Grupo 1000182" transform="translate(251 2911)">
      <g id="Elipse_5514" data-name="Elipse 5514" transform="translate(0)" fill="#fff" stroke="#222b5a" stroke-width="3">
        <ellipse cx="56.662" cy="56.662" rx="56.662" ry="56.662" stroke="none"/>
        <ellipse cx="56.662" cy="56.662" rx="55.162" ry="55.162" fill="none"/>
      </g>
      <g id="evaluacion" transform="translate(24.319 18.27)">
        <path id="Trazado_126372" data-name="Trazado 126372" d="M48.827,32.3V10.783A4.783,4.783,0,0,0,44.044,6H5.783A4.783,4.783,0,0,0,1,10.783V61a4.783,4.783,0,0,0,4.783,4.783H27.568Z" transform="translate(0.196 1.181)" fill="#179587"/>
        <path id="Trazado_126373" data-name="Trazado 126373" d="M43.262,36.3V11.2a1.2,1.2,0,0,0-1.2-1.2H6.2A1.2,1.2,0,0,0,5,11.2V59.023a1.2,1.2,0,0,0,1.2,1.2H28.914Z" transform="translate(0.978 1.964)" fill="#fff"/>
        <path id="Trazado_126374" data-name="Trazado 126374" d="M31.131,6.979v4.783a1.2,1.2,0,0,1-1.2,1.2H13.2a1.2,1.2,0,0,1-1.2-1.2V6.979a1.2,1.2,0,0,1,1.2-1.2h2.511a5.978,5.978,0,0,1,11.718,0h2.511a1.2,1.2,0,0,1,1.2,1.2Z" transform="translate(2.348 0.202)" fill="#222b5a"/>
        <path id="Trazado_126375" data-name="Trazado 126375" d="M60.908,65.066H28.141a5.213,5.213,0,0,1-4.347-7.973L40.174,30.449a5.085,5.085,0,0,1,8.7,0L65.252,57.093a5.213,5.213,0,0,1-4.344,7.973Z" transform="translate(4.501 5.486)" fill="#f1b62b"/>
        <rect id="Rectángulo_294057" data-name="Rectángulo 294057" width="5.04" height="15.119" rx="2" transform="translate(46.765 40.907)" fill="#ee4e5d"/>
        <ellipse id="Elipse_5037" data-name="Elipse 5037" cx="2.52" cy="2.52" rx="2.52" ry="2.52" transform="translate(46.765 61.066)" fill="#ee4e5d"/>
        <g id="Grupo_881689" data-name="Grupo 881689" transform="translate(0 0)">
          <path id="Trazado_126376" data-name="Trazado 126376" d="M59.5,43.616a1.2,1.2,0,1,0-2.033,1.251L68.742,63.2a4.028,4.028,0,0,1,.086,4.126A3.878,3.878,0,0,1,65.41,69.35H32.642a3.875,3.875,0,0,1-3.414-2.023,4.031,4.031,0,0,1,.085-4.129L45.694,36.555a3.891,3.891,0,0,1,6.66,0l2.169,3.528a1.2,1.2,0,1,0,2.033-1.251L54.384,35.3a6.27,6.27,0,0,0-4.166-2.89V11.958A5.986,5.986,0,0,0,44.24,5.98h-9.9a2.383,2.383,0,0,0-2.059-1.2h-1.6a7.174,7.174,0,0,0-13.533,0h-1.6a2.383,2.383,0,0,0-2.059,1.2H5.978A5.986,5.986,0,0,0,0,11.958V62.176a5.986,5.986,0,0,0,5.978,5.978H26.973c.055.112.1.228.161.338a6.238,6.238,0,0,0,5.507,3.249H65.416a6.239,6.239,0,0,0,5.5-3.25,6.391,6.391,0,0,0-.138-6.544ZM47.827,11.958V32.411a6.2,6.2,0,0,0-2.391,1.008V13.154a2.391,2.391,0,0,0-2.391-2.391h-8.37V8.371H44.24a3.587,3.587,0,0,1,3.587,3.587ZM15.544,7.175h2.511a1.2,1.2,0,0,0,1.173-.957,4.783,4.783,0,0,1,9.372,0,1.2,1.2,0,0,0,1.173.957h2.511v4.783H15.544Zm16.739,7.174a2.383,2.383,0,0,0,2.059-1.2h8.7V36.3L27.859,60.98H7.174V13.154h6.311a2.383,2.383,0,0,0,2.059,1.2ZM5.978,65.763a3.587,3.587,0,0,1-3.587-3.587V11.958A3.587,3.587,0,0,1,5.978,8.371h7.174v2.391H7.174a2.391,2.391,0,0,0-2.391,2.391V60.98a2.391,2.391,0,0,0,2.391,2.391H26.619a6.337,6.337,0,0,0-.293,2.391Z" transform="translate(0 0.006)" fill="#373737"/>
          <path id="Trazado_126377" data-name="Trazado 126377" d="M45.174,36.587a3.587,3.587,0,0,0-7.174,0V47.348a3.587,3.587,0,0,0,7.174,0ZM42.783,47.348a1.2,1.2,0,0,1-2.391,0V36.587a1.2,1.2,0,0,1,2.391,0Z" transform="translate(7.436 6.464)" fill="#373737"/>
          <path id="Trazado_126378" data-name="Trazado 126378" d="M41.587,50a3.587,3.587,0,1,0,3.587,3.587A3.587,3.587,0,0,0,41.587,50Zm0,4.783a1.2,1.2,0,1,1,1.2-1.2A1.2,1.2,0,0,1,41.587,54.783Z" transform="translate(7.436 9.791)" fill="#373737"/>
          <path id="Trazado_126379" data-name="Trazado 126379" d="M20.2,19.391H35.739a1.2,1.2,0,1,0,0-2.391H20.2a1.2,1.2,0,1,0,0,2.391Z" transform="translate(3.718 3.334)" fill="#373737"/>
          <path id="Trazado_126380" data-name="Trazado 126380" d="M20.2,23.391H27.37a1.2,1.2,0,1,0,0-2.391H20.2a1.2,1.2,0,1,0,0,2.391Z" transform="translate(3.718 4.116)" fill="#373737"/>
          <path id="Trazado_126381" data-name="Trazado 126381" d="M20.2,30.391H35.739a1.2,1.2,0,1,0,0-2.391H20.2a1.2,1.2,0,1,0,0,2.391Z" transform="translate(3.718 5.486)" fill="#373737"/>
          <path id="Trazado_126382" data-name="Trazado 126382" d="M20.2,34.391H27.37a1.2,1.2,0,1,0,0-2.391H20.2a1.2,1.2,0,1,0,0,2.391Z" transform="translate(3.718 6.269)" fill="#373737"/>
          <path id="Trazado_126383" data-name="Trazado 126383" d="M20.2,41.391h8.37a1.2,1.2,0,1,0,0-2.391H20.2a1.2,1.2,0,1,0,0,2.391Z" transform="translate(3.718 7.638)" fill="#373737"/>
          <path id="Trazado_126384" data-name="Trazado 126384" d="M20.2,45.391h4.783a1.2,1.2,0,1,0,0-2.391H20.2a1.2,1.2,0,1,0,0,2.391Z" transform="translate(3.718 8.421)" fill="#373737"/>
          <path id="Trazado_126385" data-name="Trazado 126385" d="M9.35,22.524a1.2,1.2,0,0,0,0,1.691l2.391,2.391a1.2,1.2,0,0,0,.845.35,1.146,1.146,0,0,0,.191-.016,1.2,1.2,0,0,0,.879-.646L18.44,16.73a1.2,1.2,0,0,0-2.14-1.069l-4.04,8.082-1.218-1.218a1.2,1.2,0,0,0-1.691,0Z" transform="translate(1.761 2.942)" fill="#373737"/>
          <path id="Trazado_126386" data-name="Trazado 126386" d="M17.9,26.126a1.2,1.2,0,0,0-1.6.536l-4.04,8.082-1.218-1.218A1.2,1.2,0,1,0,9.35,35.215l2.391,2.391a1.2,1.2,0,0,0,.845.35,1.147,1.147,0,0,0,.191-.016,1.2,1.2,0,0,0,.879-.646L18.44,27.73A1.2,1.2,0,0,0,17.9,26.126Z" transform="translate(1.761 5.095)" fill="#373737"/>
          <path id="Trazado_126387" data-name="Trazado 126387" d="M17.9,37.121a1.2,1.2,0,0,0-1.6.536l-4.04,8.082L11.041,44.52A1.2,1.2,0,1,0,9.35,46.21L11.742,48.6a1.2,1.2,0,0,0,.845.356,1.146,1.146,0,0,0,.191-.016,1.2,1.2,0,0,0,.879-.646l4.783-9.565a1.2,1.2,0,0,0-.536-1.611Z" transform="translate(1.761 7.246)" fill="#373737"/>
        </g>
      </g>
    </g>
  </g>
</svg>
