<svg xmlns="http://www.w3.org/2000/svg" width="113.325" height="113.324" viewBox="0 0 113.325 113.324">
  <g id="Grupo_1000269" data-name="Grupo 1000269" transform="translate(-251 -2599)">
    <g id="Grupo_1000181" data-name="Grupo 1000181" transform="translate(251 2599)">
      <g id="Elipse_5510" data-name="Elipse 5510" transform="translate(0 0)" fill="#fff" stroke="#222b5a" stroke-width="3">
        <ellipse cx="56.662" cy="56.662" rx="56.662" ry="56.662" stroke="none"/>
        <ellipse cx="56.662" cy="56.662" rx="55.162" ry="55.162" fill="none"/>
      </g>
      <g id="deslizamiento-de-tierra_1_" data-name="deslizamiento-de-tierra (1)" transform="translate(18.297 15.778)">
        <path id="Trazado_126669" data-name="Trazado 126669" d="M333.791,313.627,322.226,325.3c-.008,10.464-.006,7.428-.01,12.385a21.635,21.635,0,0,1,6.337,5.657l16.77.014c0-1.837.013-16.4.015-18.037Z" transform="translate(-273.928 -266.627)" fill="#f1b62b" stroke="#030303" stroke-width="1"/>
        <path id="Trazado_126670" data-name="Trazado 126670" d="M326.018,365.971l-3.793,3.828c-.008,10.464-.006,7.428-.01,12.385a22.645,22.645,0,0,1,3.8,2.838v-19.05Z" transform="translate(-273.928 -311.127)" fill="#d19508"/>
        <path id="Trazado_126671" data-name="Trazado 126671" d="M25.021,151.579c-.446-6.946-4.68-8.6-8.815-11.576s-5.623-6.45-7.938-12.237C6.075,122.281,0,122.17,0,126.59v39.032a23.723,23.723,0,0,1,25.027,9.7l-.006-.009A23.619,23.619,0,0,1,36.04,172.6C36.69,162.56,25.467,158.525,25.021,151.579Z" transform="translate(0 -104.948)" fill="#8c614b" stroke="#030303" stroke-width="3"/>
        <path id="Trazado_126672" data-name="Trazado 126672" d="M109.817,292.8c-2.052-4.2-8.708-8.618-9.236-14.08-.52-5.372-3.52-6.41-3.55-6.418a1.141,1.141,0,0,1,.65-2.187c.183.055,4.5,1.415,5.171,8.386.43,4.447,6.82,8.8,9.016,13.3a1.141,1.141,0,0,1-2.05,1Z" transform="translate(-81.796 -229.595)" fill="#725346"/>
        <g id="Grupo_881731" data-name="Grupo 881731" transform="translate(54.48 57.015)">
          <path id="Trazado_126673" data-name="Trazado 126673" d="M373.135,403.955l-8.461-.007a1.141,1.141,0,1,1,0-2.282l8.461.007a1.141,1.141,0,1,1,0,2.281Z" transform="translate(-363.534 -398.487)" fill="#f7ce4d"/>
          <path id="Trazado_126674" data-name="Trazado 126674" d="M373.152,382.74l-8.461-.007a1.141,1.141,0,1,1,0-2.282l8.461.007a1.141,1.141,0,1,1,0,2.281Z" transform="translate(-363.548 -380.451)" fill="#f7ce4d"/>
        </g>
        <path id="Trazado_126675" data-name="Trazado 126675" d="M377.58,433.388l-4.556,0a1.952,1.952,0,0,0-1.954,1.951l-.008,9.817,8.461.007.008-9.817A1.952,1.952,0,0,0,377.58,433.388Z" transform="translate(-315.454 -368.437)" fill="#222b5a"/>
        <path id="Trazado_126676" data-name="Trazado 126676" d="M374.866,445.153l.008-9.817a1.951,1.951,0,0,1,1.9-1.948l-3.743,0a1.952,1.952,0,0,0-1.954,1.951l-.008,9.817,8.461.007v0Z" transform="translate(-315.455 -368.438)" fill="#111a48"/>
        <path id="Trazado_126677" data-name="Trazado 126677" d="M323.172,307.288l-13.038-13.2-13.06,13.18a1.57,1.57,0,1,1-2.231-2.211l14.177-14.307a1.571,1.571,0,0,1,2.233,0l14.153,14.331a1.57,1.57,0,1,1-2.234,2.207Z" transform="translate(-250.27 -246.782)" fill="#8c614b" stroke="#030303" stroke-width="3"/>
        <path id="Trazado_126678" data-name="Trazado 126678" d="M324.134,317.243,310.887,303.83a.858.858,0,0,0-1.3-.049l-13.317,13.44a1.676,1.676,0,0,1-1.789.385,1.57,1.57,0,0,0,2.671.9l13.06-13.18,13.038,13.2a1.57,1.57,0,0,0,2.673-.9A1.672,1.672,0,0,1,324.134,317.243Z" transform="translate(-250.353 -258.023)" fill="#ee4e5d"/>
        <path id="Trazado_126679" data-name="Trazado 126679" d="M316.147,499.051H284.1a1.141,1.141,0,1,1,0-2.281h32.042a1.141,1.141,0,1,1,0,2.281Z" transform="translate(-240.558 -422.324)" fill="#8c614b" stroke="#030303" stroke-width="1"/>
        <path id="Trazado_126680" data-name="Trazado 126680" d="M165.945,452.116a23.629,23.629,0,0,1,3.182,6.669h26.888A23.972,23.972,0,0,0,165.945,452.116Z" transform="translate(-141.076 -382.056)" fill="#179587" stroke="#030303" stroke-width="1"/>
        <path id="Trazado_126681" data-name="Trazado 126681" d="M170,456.367a23.619,23.619,0,0,0-4.051,1.668,23.629,23.629,0,0,1,3.182,6.669h4.853A30.558,30.558,0,0,0,170,456.367Z" transform="translate(-141.076 -387.976)" fill="#0c5d54"/>
        <path id="Trazado_126682" data-name="Trazado 126682" d="M107.117,155.794l1.458,3.65s3.143,2.434,5.577,1.065,1.217-2.129,2.129-3.955c1.017-2.034-2.738-1.217-3.042-3.8S105.658,152.143,107.117,155.794Z" transform="translate(-90.9 -128.861)" fill="#8c614b"/>
        <path id="Trazado_126683" data-name="Trazado 126683" d="M112.682,159.448l-1.458-3.65c-.64-1.6.4-2.883,1.8-3.6-1.247-1.689-7.245.251-5.908,3.6l1.458,3.65s3.143,2.434,5.577,1.065c.066-.037.128-.074.189-.11A8.638,8.638,0,0,1,112.682,159.448Z" transform="translate(-90.9 -128.865)" fill="#725346"/>
        <path id="Trazado_126684" data-name="Trazado 126684" d="M227.524,196.565l-2.535.75s-1.825,1.954-1.059,3.668,1.35.947,2.516,1.672c1.3.807.985-1.758,2.735-1.8S230.059,195.815,227.524,196.565Z" transform="translate(-190.211 -167.043)" fill="#8c614b"/>
        <path id="Trazado_126685" data-name="Trazado 126685" d="M227.275,199.616a3.276,3.276,0,0,1,.573-3.036,22.465,22.465,0,0,0-2.86.813s-1.825,1.954-1.059,3.668,1.35.947,2.516,1.672c1.244.773,1.01-1.546,2.525-1.781C228.3,200.8,227.837,200.875,227.275,199.616Z" transform="translate(-190.211 -167.121)" fill="#725346"/>
        <path id="Trazado_126686" data-name="Trazado 126686" d="M214.953,289.047l-3.414,1.01s-2.458,2.632-1.427,4.941,1.819,1.275,3.389,2.251c1.749,1.087,1.326-2.368,3.684-2.426S218.367,288.037,214.953,289.047Z" transform="translate(-178.41 -245.643)" fill="#8c614b" stroke="#030303" stroke-width="1"/>
        <g id="Grupo_881732" data-name="Grupo 881732" transform="translate(10.934 16.195)">
          <path id="Trazado_126687" data-name="Trazado 126687" d="M214.067,293.838c-.761-1.705.378-3.584,1.027-4.452-.123.029.118-.039-3.555,1.047,0,0-2.458,2.632-1.427,4.941s1.819,1.275,3.389,2.251c1.4.871,1.41-1.17,2.568-2.048C215.314,295.428,214.743,295.351,214.067,293.838Z" transform="translate(-189.344 -262.214)" fill="#725346"/>
          <path id="Trazado_126688" data-name="Trazado 126688" d="M284.371,251.267s1.694.485,1.9-.525-1.037-1.305-1.072-2.023a1.147,1.147,0,0,0-1.791-.758C282.532,248.428,282.517,250.955,284.371,251.267Z" transform="translate(-251.383 -226.844)" fill="#725346"/>
          <path id="Trazado_126689" data-name="Trazado 126689" d="M74.5,111.559s1.694.485,1.9-.525-1.037-1.305-1.072-2.023a1.147,1.147,0,0,0-1.791-.758C72.657,108.72,72.642,111.247,74.5,111.559Z" transform="translate(-72.96 -108.073)" fill="#725346"/>
          <path id="Trazado_126690" data-name="Trazado 126690" d="M244.573,378.1s1.694.485,1.9-.525-1.037-1.305-1.072-2.023a1.147,1.147,0,0,0-1.791-.758C242.734,375.257,242.719,377.784,244.573,378.1Z" transform="translate(-217.549 -334.666)" fill="#725346"/>
          <path id="Trazado_126691" data-name="Trazado 126691" d="M290.69,302.647s-.854.909-.287,1.368,1.157-.229,1.62-.019,1.066-.178,1.057-.882A1.393,1.393,0,0,0,290.69,302.647Z" transform="translate(-257.651 -273.055)" fill="#725346"/>
        </g>
        <g id="Grupo_881733" data-name="Grupo 881733" transform="translate(18.892 0)">
          <path id="Trazado_126692" data-name="Trazado 126692" d="M170.873,36.614H156.61a1.141,1.141,0,0,1-1.077-.764,3.937,3.937,0,0,0-5.721-2.081,1.142,1.142,0,0,1-1.711-1.157,3.426,3.426,0,1,0-6.775-.047,1.142,1.142,0,0,1-1.922.983,3.158,3.158,0,0,0-5.336,2.014,1.141,1.141,0,0,1-1.137,1.051h-5.726a1.141,1.141,0,0,1,0-2.281h4.778a5.452,5.452,0,0,1,7.183-3.591,5.708,5.708,0,0,1,11.176.373,6.221,6.221,0,0,1,7.017,3.218h13.513a1.141,1.141,0,1,1,0,2.281Z" transform="translate(-126.065 -22.419)" fill="#94dced" stroke="#030303" stroke-width="1"/>
          <path id="Trazado_126693" data-name="Trazado 126693" d="M386.211,93.958h-5.9a1.141,1.141,0,0,1,0-2.282h4.948a5.431,5.431,0,0,1,7.149-3.576,5.7,5.7,0,0,1,5.527-4.349,1.141,1.141,0,0,1,0,2.282,3.406,3.406,0,0,0-3.368,3.89,1.142,1.142,0,0,1-1.922.983,3.138,3.138,0,0,0-5.3,2A1.141,1.141,0,0,1,386.211,93.958Z" transform="translate(-341.243 -71.201)" fill="#94dced" stroke="#030303" stroke-width="1"/>
          <path id="Trazado_126694" data-name="Trazado 126694" d="M325.187,6.237H317a1.141,1.141,0,0,1-1.137-1.051,3.159,3.159,0,0,0-5.336-2.014,1.141,1.141,0,1,1-1.586-1.64,5.443,5.443,0,0,1,9.007,2.424h7.238a1.141,1.141,0,1,1,0,2.282Z" transform="translate(-281.241 -0.005)" fill="#94dced" stroke="#030303" stroke-width="1"/>
          <path id="Trazado_126695" data-name="Trazado 126695" d="M441.327,28.65h-2.211a1.141,1.141,0,0,1,0-2.282h2.211a1.141,1.141,0,0,1,0,2.282Z" transform="translate(-391.231 -22.417)" fill="#94dced" stroke="#030303" stroke-width="1"/>
        </g>
        <path id="Trazado_126696" data-name="Trazado 126696" d="M3.8,126.38A2.929,2.929,0,0,1,5,123.775a3.688,3.688,0,0,0-2.29-.551A2.907,2.907,0,0,0,0,126.38v39.032a23.728,23.728,0,0,1,3.8-.57Z" transform="translate(0 -104.738)" fill="#725346"/>
        <path id="Trazado_126697" data-name="Trazado 126697" d="M0,399.228V412.61a2.977,2.977,0,0,0,2.977,2.977H28.2A23.747,23.747,0,0,0,0,399.228Z" transform="translate(0 -338.858)" fill="#048173" stroke="#030303" stroke-width="1"/>
        <path id="Trazado_126698" data-name="Trazado 126698" d="M3.8,412.986V399.034a23.749,23.749,0,0,0-3.8.57v13.381a2.977,2.977,0,0,0,2.977,2.977h3.8A2.977,2.977,0,0,1,3.8,412.986Z" transform="translate(0 -339.235)" fill="#0c5d54"/>
      </g>
    </g>
  </g>
</svg>
