<svg xmlns="http://www.w3.org/2000/svg" width="1335.872" height="1266.899" viewBox="0 0 1335.872 1266.899">
  <g id="Grupo_1000268" data-name="Grupo 1000268" transform="translate(-148.65 -504.768)">
    <rect id="Rectángulo_302503" data-name="Rectángulo 302503" width="205.03" height="87.245" rx="5" transform="translate(148.65 833.5)" fill="#b1dce0"/>
    <text id="Análisis_del_riesgo_con_información_de_eventos_pasados_" data-name="Análisis del riesgo con
 información de eventos 
pasados
" transform="translate(158.65 847.5)" fill="#12263f" font-size="14" font-family="Roboto-Regular, Roboto"><tspan x="14.488" y="15">Análisis del riesgo con</tspan><tspan x="9.604" y="39" xml:space="preserve"> información de eventos </tspan><tspan x="57.715" y="63">pasados</tspan></text>
    <text id="Es_evaluado_mediante_" data-name="Es evaluado mediante
" transform="translate(344.749 640.854)" fill="#12263f" font-size="14" font-family="Roboto-Regular, Roboto"><tspan x="16.091" y="15">Es evaluado mediante</tspan></text>
    <text id="Regulado_por_" data-name="Regulado por
" transform="translate(644.978 596.207)" fill="#12263f" font-size="14" font-family="Roboto-Regular, Roboto"><tspan x="26.054" y="15">Regulado por</tspan></text>
    <text id="crea_" data-name="crea
" transform="translate(1086.175 562.914)" fill="#12263f" font-size="14" font-family="Roboto-Regular, Roboto"><tspan x="11.951" y="15">crea</tspan></text>
    <text id="elabora_" data-name="elabora
" transform="translate(818.966 877.123)" fill="#12263f" font-size="14" font-family="Roboto-Regular, Roboto"><tspan x="7.795" y="15">elabora</tspan></text>
    <text id="de_tipo_" data-name="de tipo
" transform="translate(734.966 1005.462)" fill="#12263f" font-size="14" font-family="Roboto-Regular, Roboto"><tspan x="9.675" y="15">de tipo</tspan></text>
    <text id="crea_2" data-name="crea
" transform="translate(1083.308 634.658)" fill="#12263f" font-size="14" font-family="Roboto-Regular, Roboto"><tspan x="11.951" y="15">crea</tspan></text>
    <text id="es_" data-name="es
" transform="translate(1201.925 1012.109)" fill="#12263f" font-size="14" font-family="Roboto-Regular, Roboto"><tspan x="18.182" y="15">es</tspan></text>
    <text id="realiza_" data-name="realiza
" transform="translate(210.029 780)" fill="#12263f" font-size="16" font-family="Roboto-Regular, Roboto"><tspan x="43.83" y="17">realiza</tspan></text>
    <text id="realiza_2" data-name="realiza
" transform="translate(516.235 787)" fill="#12263f" font-size="14" font-family="Roboto-Regular, Roboto"><tspan x="46.767" y="15">realiza</tspan></text>
    <text id="de_" data-name="de
" transform="translate(943.63 942.055)" fill="#12263f" font-size="14" font-family="Roboto-Regular, Roboto"><tspan x="59.669" y="15">de</tspan></text>
    <text id="generando_" data-name="generando
" transform="translate(943.63 1060.814)" fill="#12263f" font-size="14" font-family="Roboto-Regular, Roboto"><tspan x="34.452" y="15">generando</tspan></text>
    <text id="Interviniendo_mediante_" data-name="Interviniendo mediante
" transform="translate(919.532 1171.365)" fill="#12263f" font-size="14" font-family="Roboto-Regular, Roboto"><tspan x="20.585" y="15">Interviniendo mediante</tspan></text>
    <path id="Trazado_183774" data-name="Trazado 183774" d="M0,0V49.831" transform="translate(417.861 594.821)" fill="none" stroke="#12263f" stroke-width="1"/>
    <path id="Trazado_183774-2" data-name="Trazado 183774" d="M0,0V49.831" transform="translate(583.562 737.169)" fill="none" stroke="#12263f" stroke-width="1"/>
    <path id="Trazado_183774-3" data-name="Trazado 183774" d="M0,0V49.831" transform="translate(1010.956 888.224)" fill="none" stroke="#12263f" stroke-width="1"/>
    <path id="Trazado_183774-4" data-name="Trazado 183774" d="M0,0V31.124" transform="translate(1392.349 1251.876)" fill="none" stroke="#12263f" stroke-width="1"/>
    <path id="Trazado_183774-5" data-name="Trazado 183774" d="M0,0V108.181" transform="translate(1392.349 1304.876)" fill="none" stroke="#12263f" stroke-width="1"/>
    <path id="Trazado_183774-6" data-name="Trazado 183774" d="M0,0V49.831" transform="translate(1009.362 1192.887)" fill="none" stroke="#12263f" stroke-width="1"/>
    <path id="Trazado_183774-7" data-name="Trazado 183774" d="M0,0V152.441" transform="translate(659.167 608.914) rotate(90)" fill="none" stroke="#12263f" stroke-width="1"/>
    <path id="Trazado_183774-8" data-name="Trazado 183774" d="M0,0V152.441" transform="translate(1094.971 574.657) rotate(90)" fill="none" stroke="#12263f" stroke-width="1"/>
    <path id="Trazado_183774-9" data-name="Trazado 183774" d="M0,0V152.441" transform="translate(811.762 888.865) rotate(90)" fill="none" stroke="#12263f" stroke-width="1"/>
    <path id="Trazado_183774-10" data-name="Trazado 183774" d="M0,0V152.441" transform="translate(741.762 1017.204) rotate(90)" fill="none" stroke="#12263f" stroke-width="1"/>
    <path id="Trazado_183774-11" data-name="Trazado 183774" d="M0,0V489.768" transform="translate(1002.434 1405.707) rotate(90)" fill="none" stroke="#12263f" stroke-width="1"/>
    <path id="Trazado_183774-12" data-name="Trazado 183774" d="M0,0V275.028" transform="translate(1392.349 1252.006) rotate(90)" fill="none" stroke="#12263f" stroke-width="1"/>
    <path id="Trazado_183774-13" data-name="Trazado 183774" d="M0,0V152.441" transform="translate(1092.104 646.4) rotate(90)" fill="none" stroke="#12263f" stroke-width="1"/>
    <path id="Trazado_183774-14" data-name="Trazado 183774" d="M0,0V152.441" transform="translate(1218.721 1021.853) rotate(90)" fill="none" stroke="#12263f" stroke-width="1"/>
    <path id="Trazado_183774-15" data-name="Trazado 183774" d="M0,0V152.441" transform="translate(1286.554 574.414) rotate(90)" fill="none" stroke="#12263f" stroke-width="1"/>
    <path id="Trazado_183774-16" data-name="Trazado 183774" d="M0,0V152.441" transform="translate(1040.345 888.622) rotate(90)" fill="none" stroke="#12263f" stroke-width="1"/>
    <path id="Trazado_183774-17" data-name="Trazado 183774" d="M0,0V152.441" transform="translate(941.345 1016.961) rotate(90)" fill="none" stroke="#12263f" stroke-width="1"/>
    <path id="Trazado_183774-18" data-name="Trazado 183774" d="M0,0V68.349" transform="translate(1392.349 1413) rotate(90)" fill="none" stroke="#12263f" stroke-width="1"/>
    <path id="Trazado_183774-19" data-name="Trazado 183774" d="M0,0V152.441" transform="translate(1283.687 646.157) rotate(90)" fill="none" stroke="#12263f" stroke-width="1"/>
    <path id="Trazado_183774-20" data-name="Trazado 183774" d="M0,0V152.441" transform="translate(1389.304 1021.853) rotate(90)" fill="none" stroke="#12263f" stroke-width="1"/>
    <path id="Trazado_183774-21" data-name="Trazado 183774" d="M0,0V49.831" transform="translate(277.354 728.821)" fill="none" stroke="#707070" stroke-width="1"/>
    <g id="Grupo_1000212" data-name="Grupo 1000212" transform="translate(0 -54)">
      <rect id="Rectángulo_293964" data-name="Rectángulo 293964" width="224.392" height="56" rx="5" transform="translate(282.333 617)" fill="#f1b62b"/>
      <text id="RIESGO_DE_DESASTRES_" data-name="RIESGO DE DESASTRES
" transform="translate(295.333 633)" fill="#12263f" font-size="18" font-family="Roboto-Black, Roboto" font-weight="800"><tspan x="2.591" y="19">RIESGO DE DESASTRES</tspan></text>
    </g>
    <g id="Grupo_1000213" data-name="Grupo 1000213" transform="translate(13417.185 10072.281)">
      <g id="Grupo_880692" data-name="Grupo 880692" transform="matrix(-0.616, 0.788, -0.788, -0.616, -12883.927, -9365.883)">
        <g id="Grupo_875986" data-name="Grupo 875986" transform="translate(0.979 1.267)">
          <rect id="Rectángulo_293354" data-name="Rectángulo 293354" width="0.709" height="72.709" transform="translate(0 0)" fill="#0c1d30"/>
        </g>
        <g id="Grupo_875988" data-name="Grupo 875988" transform="translate(0 0)">
          <g id="Grupo_875987" data-name="Grupo 875987">
            <ellipse id="Elipse_4909" data-name="Elipse 4909" cx="1.334" cy="1.334" rx="1.334" ry="1.334" fill="#0c1d30"/>
          </g>
        </g>
      </g>
    </g>
    <g id="Grupo_1000214" data-name="Grupo 1000214" transform="translate(318.321 661.354)">
      <g id="Grupo_880692-2" data-name="Grupo 880692" transform="matrix(0.616, 0.788, -0.788, 0.616, 58.294, 0)">
        <g id="Grupo_875986-2" data-name="Grupo 875986" transform="translate(0.979 0)">
          <rect id="Rectángulo_293354-2" data-name="Rectángulo 293354" width="0.709" height="72.709" transform="translate(0)" fill="#0c1d30"/>
        </g>
        <g id="Grupo_875988-2" data-name="Grupo 875988" transform="translate(0 71.309)">
          <g id="Grupo_875987-2" data-name="Grupo 875987" transform="translate(0 0)">
            <ellipse id="Elipse_4909-2" data-name="Elipse 4909" cx="1.334" cy="1.334" rx="1.334" ry="1.334" fill="#0c1d30"/>
          </g>
        </g>
      </g>
    </g>
    <g id="Grupo_1000215" data-name="Grupo 1000215" transform="translate(228.321 785.854)">
      <g id="Grupo_880692-3" data-name="Grupo 880692" transform="matrix(0.616, 0.788, -0.788, 0.616, 44.086, 11.101)">
        <g id="Grupo_875986-3" data-name="Grupo 875986" transform="translate(0.979 0)">
          <rect id="Rectángulo_293354-3" data-name="Rectángulo 293354" width="0.709" height="54.678" transform="translate(0)" fill="#0c1d30"/>
        </g>
        <g id="Grupo_875988-3" data-name="Grupo 875988" transform="translate(0 53.278)">
          <g id="Grupo_875987-3" data-name="Grupo 875987" transform="translate(0 0)">
            <ellipse id="Elipse_4909-3" data-name="Elipse 4909" cx="1.334" cy="1.334" rx="1.334" ry="1.334" fill="#0c1d30"/>
          </g>
        </g>
      </g>
    </g>
    <g id="Grupo_1000216" data-name="Grupo 1000216" transform="translate(528.321 793.046)">
      <g id="Grupo_880692-4" data-name="Grupo 880692" transform="matrix(0.616, 0.788, -0.788, 0.616, 39.355, 5.046)">
        <g id="Grupo_875986-4" data-name="Grupo 875986" transform="translate(2.699 -0.093)">
          <path id="Trazado_653876" data-name="Trazado 653876" d="M5.843,0l.623-.068-5.221,50.6L.623,50.6Z" transform="translate(0 0)" fill="#0c1d30"/>
        </g>
        <g id="Grupo_875988-4" data-name="Grupo 875988" transform="translate(2.596 49.303)">
          <g id="Grupo_875987-4" data-name="Grupo 875987" transform="translate(0 0)">
            <path id="Trazado_653877" data-name="Trazado 653877" d="M1.171-.127A.938.938,0,0,1,2.214.98a1.563,1.563,0,0,1-1.3,1.362A.938.938,0,0,1-.127,1.234,1.563,1.563,0,0,1,1.171-.127Z" fill="#0c1d30"/>
          </g>
        </g>
      </g>
    </g>
    <g id="Grupo_1000220" data-name="Grupo 1000220" transform="translate(955.716 949.101)">
      <g id="Grupo_880692-5" data-name="Grupo 880692" transform="matrix(0.616, 0.788, -0.788, 0.616, 39.355, 5.046)">
        <g id="Grupo_875986-5" data-name="Grupo 875986" transform="translate(2.699 -0.093)">
          <path id="Trazado_653876-2" data-name="Trazado 653876" d="M5.843,0l.623-.068-5.221,50.6L.623,50.6Z" transform="translate(0 0)" fill="#0c1d30"/>
        </g>
        <g id="Grupo_875988-5" data-name="Grupo 875988" transform="translate(2.596 49.303)">
          <g id="Grupo_875987-5" data-name="Grupo 875987" transform="translate(0 0)">
            <path id="Trazado_653877-2" data-name="Trazado 653877" d="M1.171-.127A.938.938,0,0,1,2.214.98a1.563,1.563,0,0,1-1.3,1.362A.938.938,0,0,1-.127,1.234,1.563,1.563,0,0,1,1.171-.127Z" fill="#0c1d30"/>
          </g>
        </g>
      </g>
    </g>
    <rect id="Rectángulo_293969" data-name="Rectángulo 293969" width="188.03" height="47.293" rx="5" transform="translate(181.333 708.5)" fill="#b1dce0"/>
    <text id="Enfoque_retrospectivo" data-name="Enfoque retrospectivo" transform="translate(191.333 722.5)" fill="#12263f" font-size="16" font-family="Roboto-Regular, Roboto"><tspan x="6.217" y="17">Enfoque retrospectivo</tspan></text>
    <g id="Grupo_1000217" data-name="Grupo 1000217" transform="translate(590.49 799.933)">
      <g id="Grupo_880692-6" data-name="Grupo 880692" transform="matrix(-0.616, 0.788, -0.788, -0.616, 44.956, 31.899)">
        <g id="Grupo_875986-6" data-name="Grupo 875986" transform="translate(0.86 1.145)">
          <path id="Trazado_653876-3" data-name="Trazado 653876" d="M5.221,50.6l.623.068L.623.068,0,0Z" fill="#0c1d30"/>
        </g>
        <g id="Grupo_875988-6" data-name="Grupo 875988" transform="translate(0 0)">
          <g id="Grupo_875987-6" data-name="Grupo 875987" transform="translate(0)">
            <path id="Trazado_653877-3" data-name="Trazado 653877" d="M1.305,2.475A.938.938,0,0,0,2.349,1.368,1.563,1.563,0,0,0,1.05.007.938.938,0,0,0,.007,1.114,1.563,1.563,0,0,0,1.305,2.475Z" fill="#0c1d30"/>
          </g>
        </g>
      </g>
    </g>
    <g id="Grupo_1000221" data-name="Grupo 1000221" transform="translate(1017.885 955.987)">
      <g id="Grupo_880692-7" data-name="Grupo 880692" transform="matrix(-0.616, 0.788, -0.788, -0.616, 44.956, 31.899)">
        <g id="Grupo_875986-7" data-name="Grupo 875986" transform="translate(0.86 1.145)">
          <path id="Trazado_653876-4" data-name="Trazado 653876" d="M5.221,50.6l.623.068L.623.068,0,0Z" fill="#0c1d30"/>
        </g>
        <g id="Grupo_875988-7" data-name="Grupo 875988" transform="translate(0 0)">
          <g id="Grupo_875987-7" data-name="Grupo 875987" transform="translate(0)">
            <path id="Trazado_653877-4" data-name="Trazado 653877" d="M1.305,2.475A.938.938,0,0,0,2.349,1.368,1.563,1.563,0,0,0,1.05.007.938.938,0,0,0,.007,1.114,1.563,1.563,0,0,0,1.305,2.475Z" fill="#0c1d30"/>
          </g>
        </g>
      </g>
    </g>
    <rect id="Rectángulo_302501" data-name="Rectángulo 302501" width="188.03" height="47.293" rx="5" transform="translate(465.333 709)" fill="#b1dce0"/>
    <text id="Enfoque_prospectivo" data-name="Enfoque prospectivo" transform="translate(475.333 723)" fill="#12263f" font-size="16" font-family="Roboto-Regular, Roboto"><tspan x="11.288" y="17">Enfoque prospectivo</tspan></text>
    <g id="Grupo_1000218" data-name="Grupo 1000218" transform="matrix(0.469, -0.883, 0.883, 0.469, 15162.253, -6417.725)">
      <g id="Grupo_880692-8" data-name="Grupo 880692" transform="matrix(-0.616, 0.788, -0.788, -0.616, -12883.927, -9365.883)">
        <g id="Grupo_875986-8" data-name="Grupo 875986" transform="translate(0.979 1.267)">
          <rect id="Rectángulo_293354-4" data-name="Rectángulo 293354" width="0.709" height="72.709" transform="translate(0 0)" fill="#0c1d30"/>
        </g>
        <g id="Grupo_875988-8" data-name="Grupo 875988" transform="translate(0 0)">
          <g id="Grupo_875987-8" data-name="Grupo 875987">
            <ellipse id="Elipse_4909-4" data-name="Elipse 4909" cx="1.334" cy="1.334" rx="1.334" ry="1.334" fill="#0c1d30"/>
          </g>
        </g>
      </g>
    </g>
    <g id="Grupo_1000219" data-name="Grupo 1000219" transform="matrix(0.469, 0.883, -0.883, 0.469, 817.751, 592.268)">
      <g id="Grupo_880692-9" data-name="Grupo 880692" transform="matrix(-0.616, -0.788, 0.788, -0.616, 1.642, 47.648)">
        <g id="Grupo_875986-9" data-name="Grupo 875986" transform="translate(0.979 0)">
          <rect id="Rectángulo_293354-5" data-name="Rectángulo 293354" width="0.709" height="72.71" transform="translate(0 0)" fill="#0c1d30"/>
        </g>
        <g id="Grupo_875988-9" data-name="Grupo 875988" transform="translate(0 71.31)">
          <g id="Grupo_875987-9" data-name="Grupo 875987" transform="translate(0 0)">
            <ellipse id="Elipse_4909-5" data-name="Elipse 4909" cx="1.334" cy="1.334" rx="1.334" ry="1.334" transform="translate(0 0)" fill="#0c1d30"/>
          </g>
        </g>
      </g>
    </g>
    <rect id="Rectángulo_302505" data-name="Rectángulo 302505" width="188.03" height="47.293" rx="5" transform="translate(851.333 548.914)" fill="#b1dce0"/>
    <rect id="Rectángulo_302506" data-name="Rectángulo 302506" width="188.03" height="47.293" rx="5" transform="translate(851.333 622.414)" fill="#b1dce0"/>
    <text id="Ley_N_46_de_1988" data-name="Ley N°46 de 1988" transform="translate(861.333 562.914)" fill="#12263f" font-size="16" font-family="Roboto-Regular, Roboto"><tspan x="21.752" y="17">Ley N°46 de 1988</tspan></text>
    <text id="Ley_1523_de_2012" data-name="Ley 1523 de 2012" transform="translate(861.333 636.414)" fill="#12263f" font-size="16" font-family="Roboto-Regular, Roboto"><tspan x="21.459" y="17">Ley 1523 de 2012</tspan></text>
    <rect id="Rectángulo_302508" data-name="Rectángulo 302508" width="210.971" height="97" rx="5" transform="translate(1189.333 504.768)" fill="#b1dce0"/>
    <text id="Sistema_Nacional_para_la_Prevención_y_Atención_de_Desastres_SNPAD_" data-name="Sistema Nacional para 
la Prevención y Atención
 de Desastres SNPAD
" transform="translate(1199.333 520.768)" fill="#12263f" font-size="16" font-family="Roboto-Regular, Roboto"><tspan x="15.703" y="17">Sistema Nacional para </tspan><tspan x="8.77" y="41">la Prevención y Atención</tspan><tspan x="20.004" y="65" xml:space="preserve"> de Desastres SNPAD</tspan></text>
    <rect id="Rectángulo_302507" data-name="Rectángulo 302507" width="188.03" height="98.588" rx="5" transform="translate(1201.333 614.472)" fill="#b1dce0"/>
    <text id="Sistema_Nacional_de_Gestión_del_Riesgo_de_Desastres_SNGRD_" data-name="Sistema Nacional de 
Gestión del Riesgo de 
Desastres SNGRD
" transform="translate(1210.333 635.368)" fill="#12263f" font-size="16" font-family="Roboto-Regular, Roboto"><tspan x="11.225" y="17">Sistema Nacional de </tspan><tspan x="7.409" y="41">Gestión del Riesgo de </tspan><tspan x="20.596" y="65">Desastres SNGRD</tspan></text>
    <g id="Grupo_1000210" data-name="Grupo 1000210" transform="translate(-46 128.5)">
      <rect id="Rectángulo_302502" data-name="Rectángulo 302502" width="188.03" height="93.293" rx="5" transform="translate(425.65 705.5)" fill="#b1dce0"/>
      <rect id="Rectángulo_302504" data-name="Rectángulo 302504" width="188.03" height="93.293" rx="5" transform="translate(633.65 705.5)" fill="#b1dce0"/>
      <text id="Construcción_de_modelos_probabílisticos" data-name="Construcción de modelos 
probabílisticos" transform="translate(435.65 719.5)" fill="#12263f" font-size="16" font-family="Roboto-Regular, Roboto"><tspan x="26.354" y="17">Construcción de </tspan><tspan x="53.463" y="41">modelos </tspan><tspan x="31.995" y="65">probabílisticos</tspan></text>
      <text id="Evaluación_integral_del_riesgo_" data-name="Evaluación integral 
del riesgo
" transform="translate(643.65 731.5)" fill="#12263f" font-size="16" font-family="Roboto-Regular, Roboto"><tspan x="17.475" y="17">Evaluación integral </tspan><tspan x="49.682" y="41">del riesgo</tspan></text>
    </g>
    <rect id="Rectángulo_302510" data-name="Rectángulo 302510" width="188.03" height="70.588" rx="5" transform="translate(916.94 845.353)" fill="#b1dce0"/>
    <text id="Escenarios_de_identificación_" data-name="Escenarios de 
identificación
" transform="translate(926.94 857.248)" fill="#12263f" font-size="16" font-family="Roboto-Regular, Roboto"><tspan x="34.487" y="17">Escenarios de </tspan><tspan x="36.682" y="41">identificación</tspan></text>
    <path id="Trazado_183774-22" data-name="Trazado 183774" d="M0,0V75.68" transform="translate(1009.362 1160) rotate(180)" fill="none" stroke="#12263f" stroke-width="1"/>
    <g id="Grupo_1000222" data-name="Grupo 1000222" transform="translate(1064.603 1073.273) rotate(180)">
      <g id="Grupo_880692-10" data-name="Grupo 880692" transform="matrix(0.616, 0.788, -0.788, 0.616, 39.355, 5.046)">
        <g id="Grupo_875986-10" data-name="Grupo 875986" transform="translate(2.699 -0.093)">
          <path id="Trazado_653876-5" data-name="Trazado 653876" d="M5.843,0l.623-.068-5.221,50.6L.623,50.6Z" transform="translate(0 0)" fill="#0c1d30"/>
        </g>
        <g id="Grupo_875988-10" data-name="Grupo 875988" transform="translate(2.596 49.303)">
          <g id="Grupo_875987-10" data-name="Grupo 875987" transform="translate(0 0)">
            <path id="Trazado_653877-5" data-name="Trazado 653877" d="M1.171-.127A.938.938,0,0,1,2.214.98a1.563,1.563,0,0,1-1.3,1.362A.938.938,0,0,1-.127,1.234,1.563,1.563,0,0,1,1.171-.127Z" fill="#0c1d30"/>
          </g>
        </g>
      </g>
    </g>
    <g id="Grupo_1000223" data-name="Grupo 1000223" transform="translate(1002.434 1066.387) rotate(180)">
      <g id="Grupo_880692-11" data-name="Grupo 880692" transform="matrix(-0.616, 0.788, -0.788, -0.616, 44.956, 31.899)">
        <g id="Grupo_875986-11" data-name="Grupo 875986" transform="translate(0.86 1.145)">
          <path id="Trazado_653876-6" data-name="Trazado 653876" d="M5.221,50.6l.623.068L.623.068,0,0Z" fill="#0c1d30"/>
        </g>
        <g id="Grupo_875988-11" data-name="Grupo 875988" transform="translate(0 0)">
          <g id="Grupo_875987-11" data-name="Grupo 875987" transform="translate(0)">
            <path id="Trazado_653877-6" data-name="Trazado 653877" d="M1.305,2.475A.938.938,0,0,0,2.349,1.368,1.563,1.563,0,0,0,1.05.007.938.938,0,0,0,.007,1.114,1.563,1.563,0,0,0,1.305,2.475Z" fill="#0c1d30"/>
          </g>
        </g>
      </g>
    </g>
    <rect id="Rectángulo_302511" data-name="Rectángulo 302511" width="188.03" height="47.293" rx="5" transform="translate(906.94 1102.352)" fill="#b1dce0"/>
    <text id="Enfoque_prospectivo-2" data-name="Enfoque prospectivo" transform="translate(916.94 1116.352)" fill="#12263f" font-size="16" font-family="Roboto-Regular, Roboto"><tspan x="11.288" y="17">Enfoque prospectivo</tspan></text>
    <g id="Grupo_1000211" data-name="Grupo 1000211" transform="translate(384.35 288.059)">
      <rect id="Rectángulo_302502-2" data-name="Rectángulo 302502" width="188.03" height="47.293" rx="5" transform="translate(425.65 705.5)" fill="#b1dce0"/>
      <rect id="Rectángulo_302504-2" data-name="Rectángulo 302504" width="188.03" height="47.293" rx="5" transform="translate(633.65 705.5)" fill="#b1dce0"/>
      <text id="Amenazas" transform="translate(435.65 719.5)" fill="#12263f" font-size="16" font-family="Roboto-Regular, Roboto"><tspan x="46.741" y="17">Amenazas</tspan></text>
      <text id="Vulnerabilidades_" data-name="Vulnerabilidades
" transform="translate(643.65 719.5)" fill="#12263f" font-size="16" font-family="Roboto-Regular, Roboto"><tspan x="25.479" y="17">Vulnerabilidades</tspan></text>
    </g>
    <rect id="Rectángulo_302512" data-name="Rectángulo 302512" width="347.912" height="68.405" rx="5" transform="translate(837.401 1217.803)" fill="#b1dce0"/>
    <text id="Modificación_de_las_características_del_fenómeno_" data-name="Modificación de las características 
del fenómeno
" transform="translate(843.401 1229.782)" fill="#12263f" font-size="16" font-family="Roboto-Regular, Roboto"><tspan x="43.892" y="17">Modificación de las características </tspan></text>
    <text id="ocasionando_" data-name="ocasionando
" transform="translate(1300.522 1286.207)" fill="#12263f" font-size="14" font-family="Roboto-Regular, Roboto"><tspan x="51.59" y="15">ocasionando</tspan></text>
    <text id="A_través_de_" data-name="A través de
" transform="translate(994.121 1394.556)" fill="#12263f" font-size="14" font-family="Roboto-Regular, Roboto"><tspan x="11.154" y="15">A través de</tspan></text>
    <text id="de_tipo_2" data-name="de tipo
" transform="translate(458.84 1395.707)" fill="#12263f" font-size="14" font-family="Roboto-Regular, Roboto"><tspan x="7.532" y="15">de tipo</tspan></text>
    <text id="Respuesta_a_la_emergencia" data-name="Respuesta a la emergencia" transform="translate(256.333 1610.667)" fill="#12263f" font-size="14" font-family="Roboto-Regular, Roboto"><tspan x="12.22" y="15">Respuesta a la </tspan><tspan x="21.237" y="33">emergencia</tspan></text>
    <rect id="Rectángulo_302514" data-name="Rectángulo 302514" width="188.03" height="47.293" rx="5" transform="translate(1103.333 1338.207)" fill="#b1dce0"/>
    <rect id="Rectángulo_302515" data-name="Rectángulo 302515" width="188.03" height="95.293" rx="5" transform="translate(1103.333 1411.707)" fill="#b1dce0"/>
    <text id="Reducir_la_amenaza" data-name="Reducir la amenaza" transform="translate(1113.333 1352.207)" fill="#12263f" font-size="16" font-family="Roboto-Regular, Roboto"><tspan x="14.557" y="17">Reducir la amenaza</tspan></text>
    <text id="Disminución_en_el_nivel_de_elementos_expuestos_" data-name="Disminución en el 
nivel de elementos
 expuestos
" transform="translate(1113.333 1425.707)" fill="#12263f" font-size="16" font-family="Roboto-Regular, Roboto"><tspan x="21.428" y="17">Disminución en el </tspan><tspan x="17.991" y="41">nivel de elementos</tspan><tspan x="45.749" y="65" xml:space="preserve"> expuestos</tspan></text>
    <g id="Grupo_1000224" data-name="Grupo 1000224" transform="translate(1335.841 1368.932) rotate(90)">
      <g id="Grupo_880692-12" data-name="Grupo 880692" transform="matrix(0.616, 0.788, -0.788, 0.616, 39.355, 5.046)">
        <g id="Grupo_875986-12" data-name="Grupo 875986" transform="translate(2.699 -0.093)">
          <path id="Trazado_653876-7" data-name="Trazado 653876" d="M5.843,0l.623-.068-5.221,50.6L.623,50.6Z" transform="translate(0 0)" fill="#0c1d30"/>
        </g>
        <g id="Grupo_875988-12" data-name="Grupo 875988" transform="translate(2.596 49.303)">
          <g id="Grupo_875987-12" data-name="Grupo 875987" transform="translate(0 0)">
            <path id="Trazado_653877-7" data-name="Trazado 653877" d="M1.171-.127A.938.938,0,0,1,2.214.98a1.563,1.563,0,0,1-1.3,1.362A.938.938,0,0,1-.127,1.234,1.563,1.563,0,0,1,1.171-.127Z" fill="#0c1d30"/>
          </g>
        </g>
      </g>
    </g>
    <g id="Grupo_1000225" data-name="Grupo 1000225" transform="translate(1328.954 1412.1) rotate(90)">
      <g id="Grupo_880692-13" data-name="Grupo 880692" transform="matrix(-0.616, 0.788, -0.788, -0.616, 44.956, 31.899)">
        <g id="Grupo_875986-13" data-name="Grupo 875986" transform="translate(0.86 1.145)">
          <path id="Trazado_653876-8" data-name="Trazado 653876" d="M5.221,50.6l.623.068L.623.068,0,0Z" fill="#0c1d30"/>
        </g>
        <g id="Grupo_875988-13" data-name="Grupo 875988" transform="translate(0 0)">
          <g id="Grupo_875987-13" data-name="Grupo 875987" transform="translate(0)">
            <path id="Trazado_653877-8" data-name="Trazado 653877" d="M1.305,2.475A.938.938,0,0,0,2.349,1.368,1.563,1.563,0,0,0,1.05.007.938.938,0,0,0,.007,1.114,1.563,1.563,0,0,0,1.305,2.475Z" fill="#0c1d30"/>
          </g>
        </g>
      </g>
    </g>
    <rect id="Rectángulo_302518" data-name="Rectángulo 302518" width="188.03" height="47.293" rx="5" transform="translate(793.531 1379.061)" fill="#b1dce0"/>
    <text id="Procesos_de_gestión" data-name="Procesos de gestión" transform="translate(803.531 1393.061)" fill="#12263f" font-size="16" font-family="Roboto-Regular, Roboto"><tspan x="11.846" y="17">Procesos de gestión</tspan></text>
    <g id="Grupo_1000226" data-name="Grupo 1000226" transform="translate(1103.333 1372.238) rotate(90)">
      <g id="Grupo_880692-14" data-name="Grupo 880692" transform="matrix(0.616, -0.788, 0.788, 0.616, 0, 3.862)">
        <g id="Grupo_875986-14" data-name="Grupo 875986" transform="translate(0.629 0.837)">
          <path id="Trazado_653876-9" data-name="Trazado 653876" d="M3.817,36.991l.455.05L.455.05,0,0Z" transform="translate(0 0)" fill="#0c1d30"/>
        </g>
        <g id="Grupo_875988-14" data-name="Grupo 875988" transform="translate(0 0)">
          <g id="Grupo_875987-14" data-name="Grupo 875987" transform="translate(0 0)">
            <path id="Trazado_653877-9" data-name="Trazado 653877" d="M.954,1.81A.685.685,0,0,0,1.717,1,1.143,1.143,0,0,0,.768,0,.685.685,0,0,0,.005.814,1.143,1.143,0,0,0,.954,1.81Z" fill="#0c1d30"/>
          </g>
        </g>
      </g>
    </g>
    <g id="Grupo_1000227" data-name="Grupo 1000227" transform="matrix(0.788, -0.616, 0.616, 0.788, 1076.151, 1406.69)">
      <g id="Grupo_875986-15" data-name="Grupo 875986" transform="translate(0.629 0)">
        <path id="Trazado_653876-10" data-name="Trazado 653876" d="M3.817.05,4.272,0,.455,36.991,0,37.041Z" transform="translate(0 0)" fill="#0c1d30"/>
      </g>
      <g id="Grupo_875988-15" data-name="Grupo 875988" transform="translate(0 36.064)">
        <g id="Grupo_875987-15" data-name="Grupo 875987" transform="translate(0 0)">
          <path id="Trazado_653877-10" data-name="Trazado 653877" d="M.954,0a.686.686,0,0,1,.763.809,1.143,1.143,0,0,1-.949,1A.686.686,0,0,1,.005,1,1.143,1.143,0,0,1,.954,0Z" fill="#0c1d30"/>
        </g>
      </g>
    </g>
    <g id="Grupo_1000228" data-name="Grupo 1000228" transform="translate(790.812 1360.957) rotate(90)">
      <g id="Grupo_880692-15" data-name="Grupo 880692" transform="matrix(0.616, 0.788, -0.788, 0.616, 39.355, 5.046)">
        <g id="Grupo_875986-16" data-name="Grupo 875986" transform="translate(2.699 -0.093)">
          <path id="Trazado_653876-11" data-name="Trazado 653876" d="M5.843,0l.623-.068-5.221,50.6L.623,50.6Z" transform="translate(0 0)" fill="#0c1d30"/>
        </g>
        <g id="Grupo_875988-16" data-name="Grupo 875988" transform="translate(2.596 49.303)">
          <g id="Grupo_875987-16" data-name="Grupo 875987" transform="translate(0 0)">
            <path id="Trazado_653877-11" data-name="Trazado 653877" d="M1.171-.127A.938.938,0,0,1,2.214.98a1.563,1.563,0,0,1-1.3,1.362A.938.938,0,0,1-.127,1.234,1.563,1.563,0,0,1,1.171-.127Z" fill="#0c1d30"/>
          </g>
        </g>
      </g>
    </g>
    <g id="Grupo_1000229" data-name="Grupo 1000229" transform="translate(783.925 1405.125) rotate(90)">
      <g id="Grupo_880692-16" data-name="Grupo 880692" transform="matrix(-0.616, 0.788, -0.788, -0.616, 44.956, 31.899)">
        <g id="Grupo_875986-17" data-name="Grupo 875986" transform="translate(0.86 1.145)">
          <path id="Trazado_653876-12" data-name="Trazado 653876" d="M5.221,50.6l.623.068L.623.068,0,0Z" fill="#0c1d30"/>
        </g>
        <g id="Grupo_875988-17" data-name="Grupo 875988" transform="translate(0 0)">
          <g id="Grupo_875987-17" data-name="Grupo 875987" transform="translate(0)">
            <path id="Trazado_653877-12" data-name="Trazado 653877" d="M1.305,2.475A.938.938,0,0,0,2.349,1.368,1.563,1.563,0,0,0,1.05.007.938.938,0,0,0,.007,1.114,1.563,1.563,0,0,0,1.305,2.475Z" fill="#0c1d30"/>
          </g>
        </g>
      </g>
    </g>
    <rect id="Rectángulo_302516" data-name="Rectángulo 302516" width="218.03" height="47.293" rx="5" transform="translate(533.151 1328.207)" fill="#b1dce0"/>
    <rect id="Rectángulo_302517" data-name="Rectángulo 302517" width="218.03" height="47.293" rx="5" transform="translate(533.151 1383.707)" fill="#b1dce0"/>
    <rect id="Rectángulo_302520" data-name="Rectángulo 302520" width="218.031" height="47.293" rx="5" transform="translate(533.15 1439.207)" fill="#b1dce0"/>
    <text id="Conocimiento_del_riesgo" data-name="Conocimiento del riesgo" transform="translate(543.151 1342.207)" fill="#12263f" font-size="16" font-family="Roboto-Regular, Roboto"><tspan x="7.964" y="17">Conocimiento del riesgo</tspan></text>
    <text id="Reducción_del_riesgo" data-name="Reducción del riesgo" transform="translate(543.151 1397.707)" fill="#12263f" font-size="16" font-family="Roboto-Regular, Roboto"><tspan x="25.323" y="17">Reducción del riesgo</tspan></text>
    <text id="Manejo_del_riesgo" data-name="Manejo del riesgo" transform="translate(543.15 1453.207)" fill="#12263f" font-size="16" font-family="Roboto-Regular, Roboto"><tspan x="36.241" y="17">Manejo del riesgo</tspan></text>
    <path id="Trazado_183774-23" data-name="Trazado 183774" d="M0,0V218.844" transform="translate(314.833 1388.823)" fill="none" stroke="#12263f" stroke-width="1"/>
    <path id="Trazado_183774-24" data-name="Trazado 183774" d="M0,0V99.177" transform="translate(314.833 1653.823)" fill="none" stroke="#12263f" stroke-width="1"/>
    <path id="Trazado_183774-25" data-name="Trazado 183774" d="M0,0V55.651" transform="translate(458.976 1405.707) rotate(90)" fill="none" stroke="#12263f" stroke-width="1"/>
    <rect id="Rectángulo_302519" data-name="Rectángulo 302519" width="258.03" height="42.908" rx="5" transform="translate(185.333 1381.098)" fill="#b1dce0"/>
    <rect id="Rectángulo_302521" data-name="Rectángulo 302521" width="258.03" height="42.908" rx="5" transform="translate(185.333 1435.207)" fill="#b1dce0"/>
    <rect id="Rectángulo_302522" data-name="Rectángulo 302522" width="258.03" height="42.908" rx="5" transform="translate(185.333 1489.316)" fill="#b1dce0"/>
    <rect id="Rectángulo_302523" data-name="Rectángulo 302523" width="258.03" height="42.908" rx="5" transform="translate(185.333 1543.426)" fill="#b1dce0"/>
    <rect id="Rectángulo_302524" data-name="Rectángulo 302524" width="258.03" height="95.241" rx="5" transform="translate(185.333 1676.426)" fill="#b1dce0"/>
    <text id="Gestión_sectorial_y_comunitaria" data-name="Gestión sectorial y comunitaria" transform="translate(198.333 1395.646)" fill="#12263f" font-size="16" font-family="Roboto-Regular, Roboto"><tspan x="6.264" y="17">Gestión sectorial y comunitaria</tspan></text>
    <text id="Protección_financiera" data-name="Protección financiera" transform="translate(198.333 1449.756)" fill="#12263f" font-size="16" font-family="Roboto-Regular, Roboto"><tspan x="41.174" y="17">Protección financiera</tspan></text>
    <text id="Intervención_prospectiva" data-name="Intervención prospectiva" transform="translate(198.333 1503.865)" fill="#12263f" font-size="16" font-family="Roboto-Regular, Roboto"><tspan x="29.143" y="17">Intervención prospectiva</tspan></text>
    <text id="Intervención_correctiva" data-name="Intervención correctiva" transform="translate(198.333 1557.975)" fill="#12263f" font-size="16" font-family="Roboto-Regular, Roboto"><tspan x="35.272" y="17">Intervención correctiva</tspan></text>
    <text id="Subsistema_Nacional_de_Voluntarios_de_Primera_Respuesta" data-name="Subsistema Nacional de 
Voluntarios de Primera 
Respuesta" transform="translate(198.333 1692.975)" fill="#12263f" font-size="16" font-family="Roboto-Regular, Roboto"><tspan x="30.202" y="17">Subsistema Nacional de </tspan><tspan x="35.319" y="41">Voluntarios de Primera </tspan><tspan x="78.901" y="65">Respuesta</tspan></text>
    <rect id="Rectángulo_302513" data-name="Rectángulo 302513" width="188.03" height="121.825" rx="5" transform="translate(1249.47 943.196)" fill="#b1dce0"/>
    <text id="Predisposición_de_una_comunidad_a_sufrir_consecuencias_" data-name="Predisposición de 
una comunidad 
a sufrir 
consecuencias
" transform="translate(1259.47 959.745)" fill="#12263f" font-size="16" font-family="Roboto-Regular, Roboto"><tspan x="20.893" y="17">Predisposición de </tspan><tspan x="29.358" y="41">una comunidad </tspan><tspan x="59.417" y="65">a sufrir </tspan><tspan x="31.034" y="89">consecuencias</tspan></text>
    <rect id="Rectángulo_302509" data-name="Rectángulo 302509" width="188.03" height="151.059" rx="5" transform="translate(527.47 951.293)" fill="#b1dce0"/>
    <text id="_Antrópico._Natural._Socionatural._Concatenadas._Complejas._" data-name="* Antrópico.
* Natural.
* Socionatural.
* Concatenadas.
* Complejas.
" transform="translate(537.47 968.842)" fill="#12263f" font-size="16" font-family="Roboto-Regular, Roboto"><tspan x="42.19" y="17">* Antrópico.</tspan><tspan x="50.963" y="41">* Natural.</tspan><tspan x="32.252" y="65">* Socionatural.</tspan><tspan x="25.557" y="89">* Concatenadas.</tspan><tspan x="39.049" y="113">* Complejas.</tspan></text>
  </g>
</svg>
