<svg xmlns="http://www.w3.org/2000/svg" width="490.598" height="495.76" viewBox="0 0 490.598 495.76">
  <g id="Grupo_1000290" data-name="Grupo 1000290" transform="translate(-848.776 -8829.663)">
    <g id="Grupo_995661" data-name="Grupo 995661" transform="translate(1058.877 8650.763)" opacity="0.46">
      <g id="User_Icon" data-name="User Icon" transform="translate(29.443 178.9)">
        <g id="Grupo_995660" data-name="Grupo 995660">
          <path id="Trazado_651738" data-name="Trazado 651738" d="M133.441,179.8,45.757,223.778a17.786,17.786,0,0,0-10.811,16.356V281.15A190.362,190.362,0,0,0,66.215,386.166c15.793,24.066,36.74,54.823,71.594,72.409h15.73c38.8-11.831,67.758-43.372,85.463-70.35a190.352,190.352,0,0,0,31.266-105.015V240.134a17.784,17.784,0,0,0-10.808-16.356L159.576,181.22C155.126,179.322,137.892,177.9,133.441,179.8Z" transform="translate(-19.216 -178.9)" fill="#afafaf"/>
          <path id="Trazado_651740" data-name="Trazado 651740" d="M140.135,180.638,40.251,223.195a17.784,17.784,0,0,0-10.808,16.356v41.017A192.034,192.034,0,0,0,148.036,457.992c38.8-11.831,67.758-43.372,85.463-70.35a190.375,190.375,0,0,0,31.266-105.015V239.551a17.786,17.786,0,0,0-10.811-16.356l-99.882-42.557A17.77,17.77,0,0,0,140.135,180.638Z" transform="translate(-29.443 -178.318)" fill="#e8e8e8"/>
          <g id="Grupo_995657" data-name="Grupo 995657" transform="translate(32.94 42.605)">
            <path id="Trazado_651749" data-name="Trazado 651749" d="M65.476,0A65.476,65.476,0,1,1,0,65.476,65.476,65.476,0,0,1,65.476,0Z" transform="matrix(0.932, -0.362, 0.362, 0.932, 0, 47.348)" fill="#afafaf" opacity="0.3"/>
            <circle id="Elipse_5849" data-name="Elipse 5849" cx="27.183" cy="27.183" r="27.183" transform="translate(57.537 33.968)" fill="#fff"/>
            <path id="Trazado_651741" data-name="Trazado 651741" d="M53.238,258s12.655-30.191,48.643-30.191S152.525,258,152.525,258s-16.053,23.717-51.567,22.8C68.805,279.97,53.238,258,53.238,258Z" transform="translate(-18.161 -130.606)" fill="#fff"/>
          </g>
          <g id="Grupo_995659" data-name="Grupo 995659" transform="translate(161.712 93.2)">
            <path id="Trazado_651743" data-name="Trazado 651743" d="M159.3,211.505a8.867,8.867,0,0,1,.183,1.887c.06,1.4.14,3.2.234,5.434.091,2.358.229,5.251.063,8.6q-.073,2.53-.157,5.374c-.02,1.907-.14,3.916-.369,6.017-.4,4.208-.686,8.838-1.555,13.741-.4,2.453-.709,5.011-1.218,7.609q-.836,3.889-1.715,7.992a197.092,197.092,0,0,1-11.52,34.479,202.662,202.662,0,0,1-17.911,31.646c-3.327,4.5-6.394,8.847-9.687,12.583-1.615,1.889-3.087,3.793-4.665,5.474s-3.1,3.287-4.559,4.828c-2.83,3.144-5.737,5.646-8.161,7.964-2.41,2.338-4.634,4.185-6.48,5.663-1.741,1.4-3.141,2.535-4.231,3.413a8.9,8.9,0,0,1-1.538,1.112,9.212,9.212,0,0,1,1.349-1.343c1.038-.929,2.378-2.132,4.042-3.622,1.781-1.538,3.942-3.442,6.289-5.828,2.358-2.367,5.2-4.908,7.967-8.084q2.14-2.328,4.462-4.862c1.549-1.7,2.987-3.6,4.574-5.5,3.233-3.747,6.24-8.092,9.513-12.58a209.147,209.147,0,0,0,17.677-31.469,202.779,202.779,0,0,0,11.545-34.188q.9-4.065,1.764-7.927c.529-2.578.863-5.114,1.286-7.549.915-4.862,1.255-9.462,1.724-13.641q.394-3.134.472-5.98l.272-5.348c.243-3.336.192-6.217.192-8.573.017-2.232.031-4.033.043-5.428A9.286,9.286,0,0,1,159.3,211.505Z" transform="translate(-86.015 -211.505)" fill="#263238"/>
          </g>
        </g>
      </g>
    </g>
    <g id="Grupo_996419" data-name="Grupo 996419" transform="translate(-2802.421 8840.122)" opacity="0.36">
      <path id="Trazado_651949" data-name="Trazado 651949" d="M4170.755,357.64a66.374,66.374,0,0,0-.479-14.953l26.6-7.627a77.226,77.226,0,0,0-12.293-32.069L4159.7,315.036a66.8,66.8,0,0,0-21.535-20.3l11.722-25.677a76.489,76.489,0,0,0-32.708-10.47l-.268-.022-7.053,27.066a66.1,66.1,0,0,0-29.405,4.364l-13.708-24.927a77.76,77.76,0,0,0-28.422,19.214l17.6,22.28a66.5,66.5,0,0,0-14.951,25.559l-25.537-4.462a78.17,78.17,0,0,0-2.762,34.2l25.935-.227a66.264,66.264,0,0,0,10.631,27.63L4026.7,409.915a77.965,77.965,0,0,0,24.986,23.51l19.074-23.172c8.319,4.895,17.737,8.85,28,9.709l.137.011,2.2,28.74a76.6,76.6,0,0,0,33.984-5.251l-6.8-29.081a66.9,66.9,0,0,0,24.575-16.573l22.317,16.122a77.453,77.453,0,0,0,17.384-29.63l-24.705-12.113A67.125,67.125,0,0,0,4170.755,357.64Z" transform="translate(-66.453 -32.842)" fill="#636363"/>
      <g id="Grupo_996415" data-name="Grupo 996415" transform="translate(3997.327 277.79)">
        <path id="Trazado_651950" data-name="Trazado 651950" d="M4117.4,322.39a41.9,41.9,0,1,0,41.9,41.9A41.947,41.947,0,0,0,4117.4,322.39Zm0,71.7a29.8,29.8,0,1,1,29.8-29.8A29.837,29.837,0,0,1,4117.4,394.094Z" transform="translate(-4075.496 -322.39)" fill="#fff"/>
        <path id="Trazado_651951" data-name="Trazado 651951" d="M4146.984,372.034l-18.614-7.312-4.315-20.783a1.9,1.9,0,0,0-3.807-.054l-4.041,23.081v.016a6.473,6.473,0,0,0-.158,1.406c0,.166.012.33.024.493a6.47,6.47,0,0,0,5.156,6.83,6.553,6.553,0,0,0,1.375.128l0,0,23.563-.087a1.9,1.9,0,0,0,.813-3.72Z" transform="translate(-4082.967 -326.012)" fill="#fff"/>
      </g>
      <path id="Trazado_651952" data-name="Trazado 651952" d="M3694.043,147.408l23.806,38.38a143.792,143.792,0,0,0-9.319,15.848l-45.091-2.07a2.7,2.7,0,0,0-3.314,1.881l-8.375,30.413a2.69,2.69,0,0,0,1.885,3.31l39.824,21.345a144.8,144.8,0,0,0-.132,18.351l-40.112,20.765a2.673,2.673,0,0,0-1.927,3.27l7.938,30.554a2.7,2.7,0,0,0,3.287,1.919l45.115-1.434a145.668,145.668,0,0,0,9.1,15.986l-24.352,38.024a2.687,2.687,0,0,0-.021,3.8l22.156,22.47a2.69,2.69,0,0,0,3.8.031l38.364-23.813a145.34,145.34,0,0,0,15.856,9.319l-2.073,45.087a2.705,2.705,0,0,0,1.876,3.318l30.436,8.363a2.681,2.681,0,0,0,3.3-1.872l21.319-39.825a146.35,146.35,0,0,0,18.358.134l20.784,40.122a2.674,2.674,0,0,0,3.273,1.921l30.529-7.946a2.691,2.691,0,0,0,1.932-3.283l-1.439-45.119a144.924,144.924,0,0,0,15.985-9.087l38.038,24.338a2.68,2.68,0,0,0,3.794.039L3981.11,389.8a2.693,2.693,0,0,0,.031-3.811l-23.81-38.368a143.985,143.985,0,0,0,9.311-15.856l45.094,2.074a2.692,2.692,0,0,0,3.311-1.885l8.374-30.413a2.689,2.689,0,0,0-1.867-3.309l-39.833-21.337a148.383,148.383,0,0,0,.134-18.368l40.119-20.756a2.7,2.7,0,0,0,1.928-3.288l-7.951-30.533a2.7,2.7,0,0,0-3.292-1.921l-45.111,1.438a145.193,145.193,0,0,0-9.086-15.994l24.342-38.016a2.7,2.7,0,0,0,.031-3.811l-22.156-22.47a2.7,2.7,0,0,0-3.812-.024l-38.355,23.806a145.37,145.37,0,0,0-15.864-9.31l2.069-45.091a2.688,2.688,0,0,0-1.871-3.314l-30.422-8.384a2.694,2.694,0,0,0-3.306,1.889l-21.326,39.815a146.7,146.7,0,0,0-18.36-.117l-20.774-40.128a2.7,2.7,0,0,0-3.291-1.923l-30.528,7.947a2.7,2.7,0,0,0-1.928,3.288l1.435,45.115a142.862,142.862,0,0,0-15.978,9.1l-38.034-24.351a2.691,2.691,0,0,0-3.807-.019l-22.466,22.152A2.679,2.679,0,0,0,3694.043,147.408Zm178.491,84.838a49.069,49.069,0,1,1-69.392-.488A49.069,49.069,0,0,1,3872.533,232.246Z" transform="translate(0)" fill="#afafaf"/>
      <path id="Trazado_651953" data-name="Trazado 651953" d="M3873.706,280.817l-58.049-94.546a111.045,111.045,0,0,1,106.782-5.122c54.677,26.734,77.67,93.725,50.936,148.4s-93.725,77.669-148.4,50.936Z" transform="translate(-30.299 -16.504)" fill="#afafaf"/>
      <path id="Trazado_651954" data-name="Trazado 651954" d="M3828.346,274.305,3707.218,231.98a128.327,128.327,0,0,1,52.876-66.326Z" transform="translate(-10.321 -15.725)" fill="#f6f6f6"/>
      <path id="Trazado_651955" data-name="Trazado 651955" d="M3840.169,312.212l-48.58,99.743-.153-.074c-50.23-24.56-74.441-83.449-56.011-136.237Z" transform="translate(-14.384 -35.988)" fill="#dee4f0"/>
      <path id="Trazado_651956" data-name="Trazado 651956" d="M3972.191,214.424l-36.049,46.08a58.506,58.506,0,1,1,94.458-42.719Z" transform="translate(-48.359 -13.931)" fill="#e8e8e8"/>
      <path id="Trazado_651957" data-name="Trazado 651957" d="M3815.768,206.481c0-.533.165-.964.368-.964s.369.432.369.964-.165.963-.369.963S3815.768,207.013,3815.768,206.481Z" transform="translate(-30.319 -23.069)" fill="#df1c24"/>
      <path id="Trazado_651958" data-name="Trazado 651958" d="M4013.573,459.3l22.948,74.375a77.977,77.977,0,0,1-84.02-26.12c-26.473-33.5-20.687-82.855,12.817-109.328s82.855-20.686,109.327,12.817a77.842,77.842,0,0,1,16.726,45.821Z" transform="translate(-52.447 -55.511)" fill="#afafaf" stroke="#707070" stroke-width="1"/>
      <path id="Trazado_651959" data-name="Trazado 651959" d="M4047.42,484.279l77.654-5.294a77.833,77.833,0,0,1-55.019,79.766Z" transform="translate(-72.997 -73.45)" fill="#afafaf"/>
    </g>
    <g id="Grupo_996420" data-name="Grupo 996420" transform="translate(1016.941 8920.424)">
      <path id="Trazado_651960" data-name="Trazado 651960" d="M4030.436,333.87a100.738,100.738,0,0,1-25.984-.05,23.815,23.815,0,0,1-1.4-2.444c-8.882,4.294-19.032,5.717-28.815,5.471a96.717,96.717,0,0,1-17.623-2.184,63.631,63.631,0,0,1-10.2-2.878,25.021,25.021,0,0,1-5.3-2.628c-14.006,5.325-29.58,6.582-44.519,4.713-2.5-.313-5.1-.7-7.494.1l4.958,5.041a69.853,69.853,0,0,0,6.382,5.969,51.21,51.21,0,0,0,9.705,5.827c8.09,3.88,16.9,6.645,25.858,6.438a36.557,36.557,0,0,0,9.814-1.57c6.062,2.224,11.725,5.612,17.446,8.779a3.684,3.684,0,0,0,.147,1.577c1.557,1.849,3.624,2.054,5.987,1.371.048.014.1.032.145.047a6.6,6.6,0,0,0,4.374,0,16.384,16.384,0,0,0,3.069-1.256c5.633-2.966,11.127-6.394,16.912-8.987,7.963-.367,15.758-2.935,22.981-6.4a51.218,51.218,0,0,0,9.7-5.827,69.981,69.981,0,0,0,6.382-5.969l4.958-5.041C4035.538,333.171,4032.937,333.557,4030.436,333.87Z" transform="translate(-3876.384 -135.66)" fill="#042956"/>
      <path id="Trazado_651961" data-name="Trazado 651961" d="M3931.852,351.978c-5.559-8.976-11.545-18.361-20.856-23.258a49.377,49.377,0,0,0-8.387-3.275,43.75,43.75,0,0,0-11.792-2.339,18.274,18.274,0,0,0-11.4,3.222,9.2,9.2,0,0,0-2.389,2.5,10.3,10.3,0,0,0-1.291,5.1,28.088,28.088,0,0,0,2.134,10.876c3.173,8.242,8.992,15.665,16.872,19.561a29.557,29.557,0,0,0,29.42-2.212c2.052-1.43,3.912-3.119,5.831-4.726Z" transform="translate(-3875.729 -135.364)" fill="#042956"/>
      <path id="Trazado_651962" data-name="Trazado 651962" d="M3946.595,377.412c-11.813,1.614-23.131-.835-34.274-3.019a9.924,9.924,0,0,0-4.656-.14,11.63,11.63,0,0,0-4.795,3.348,20.111,20.111,0,0,0-4.392,5.976,5.1,5.1,0,0,0-.5,2.539,4.839,4.839,0,0,0,.971,2.119,31.159,31.159,0,0,0,8.589,8.334,9.037,9.037,0,0,0,4.054,1.655,14.091,14.091,0,0,0,5.326-1.018c4.1-1.3,8.115-1.274,12.266-1.665,4.762-.449,9.862-.552,14.323-1.277,1.63-.265,7.224-2.506,7.592-4.24Z" transform="translate(-3876.818 -137.859)" fill="#042956"/>
      <path id="Trazado_651963" data-name="Trazado 651963" d="M3933.325,377.544h.082c.9-.044,1.8-.091,2.678-.173,7.933-.734,15.238-4.516,22.16-8.487,11.017-6.319,21.831-13.371,33.257-18.786,8.265-5.152,17.364-8.926,26.361-12.639,8.417-3.473,16.88-6.961,25.731-8.97,4.244-.963,8.893-1.53,12.758.524,4.625,2.458,6.945,8.364,6.237,13.7s-3.992,10.023-8.087,13.34-8.968,5.426-13.843,7.3a250.053,250.053,0,0,1-34,10.135q-3.986,1.23-8.006,2.3c-14.037,3.773-28.362,6.513-42.14,11.151-4.4,1.483-8.816,3.168-13.372,3.927a46.716,46.716,0,0,1-9.537,1.128c-10.706.21-19.447-2.854-19.524-6.843S3922.62,377.754,3933.325,377.544Z" transform="translate(-3877.608 -135.585)" fill="#ffaa9a"/>
      <path id="Trazado_651964" data-name="Trazado 651964" d="M3983.763,373.9c-4.8-2.8-10.362-5.858-13.767-10.488-3.929,2.34-7.846,4.7-11.789,6.958a81.538,81.538,0,0,1-13.549,6.546c-10.845.942-21.291-1.293-31.584-3.31a9.924,9.924,0,0,0-4.656-.14,11.626,11.626,0,0,0-4.8,3.348,20.1,20.1,0,0,0-4.393,5.976,5.063,5.063,0,0,0-.5,2.538,4.821,4.821,0,0,0,.971,2.12,31.15,31.15,0,0,0,8.589,8.334,9.026,9.026,0,0,0,4.052,1.654,14.079,14.079,0,0,0,5.328-1.017c4.1-1.3,8.115-1.274,12.265-1.665,4.764-.45,9.862-.553,14.323-1.277a18.773,18.773,0,0,0,6.916-3.251c1.773-.585,3.536-1.209,5.3-1.8,11.691-3.936,23.775-6.507,35.743-9.5Q3988.006,376.38,3983.763,373.9Z" transform="translate(-3876.855 -137.339)" fill="#42210b" opacity="0.32"/>
      <path id="Trazado_651965" data-name="Trazado 651965" d="M3921.281,383.289c4.12-1.2,8.409-1.679,12.58-2.661,1.4-.329,2.837-.615,4.268-.945.14-.053.281-.1.419-.157-.813.139-1.632.256-2.458.333-.878.081-1.776.129-2.679.172h-.082c-10.7.21-19.308,3.61-19.243,7.6C3915.761,385.158,3918.505,384.1,3921.281,383.289Z" transform="translate(-3877.608 -138.128)" fill="#f9cbc5"/>
      <path id="Trazado_651966" data-name="Trazado 651966" d="M4000.563,376.542c11.813,1.614,23.13-.835,34.273-3.018a9.926,9.926,0,0,1,4.656-.14,11.624,11.624,0,0,1,4.795,3.348,20.11,20.11,0,0,1,4.392,5.976,5.082,5.082,0,0,1,.5,2.538,4.842,4.842,0,0,1-.971,2.12,31.161,31.161,0,0,1-8.59,8.334,9.032,9.032,0,0,1-4.052,1.655,14.1,14.1,0,0,1-5.327-1.018c-4.1-1.3-8.115-1.274-12.265-1.665-4.764-.45-9.863-.552-14.324-1.277-1.629-.265-7.224-2.506-7.592-4.24Z" transform="translate(-3881.624 -137.816)" fill="#042956"/>
      <path id="Trazado_651967" data-name="Trazado 651967" d="M4059.273,328.954c-3.866-2.054-8.514-1.486-12.758-.523-8.851,2.009-17.314,5.5-25.731,8.97-9,3.712-18.095,7.487-26.36,12.638-7.114,3.371-13.988,7.377-20.823,11.444.231.12.462.241.69.362,7.815-3.492,15.623-6.97,23.318-10.742,8.937-4.38,17.938-8.411,27.159-12.143,8.785-3.555,17.574-8.459,27.3-8.385,5.776.045,10.88,2.685,13.286,7.275A12.621,12.621,0,0,0,4059.273,328.954Z" transform="translate(-3880.524 -135.582)" fill="#f9cbc5"/>
      <path id="Trazado_651968" data-name="Trazado 651968" d="M4008.912,376.674h-.082c-.9-.043-1.8-.09-2.678-.172-7.932-.735-15.238-4.516-22.159-8.487-11.017-6.319-21.83-13.372-33.258-18.787-8.265-5.151-17.363-8.925-26.359-12.638-8.417-3.473-16.881-6.961-25.732-8.97-4.244-.963-8.892-1.531-12.758.524-4.625,2.458-6.944,8.364-6.237,13.7s3.992,10.023,8.087,13.34,8.968,5.426,13.843,7.3a249.925,249.925,0,0,0,34,10.136q3.986,1.228,8.007,2.3c14.036,3.773,28.361,6.513,42.139,11.151,4.4,1.483,8.815,3.168,13.372,3.927a46.73,46.73,0,0,0,9.536,1.128c10.706.21,19.447-2.854,19.524-6.843S4019.618,376.884,4008.912,376.674Z" transform="translate(-3875.915 -135.543)" fill="#ffaa9a"/>
      <path id="Trazado_651969" data-name="Trazado 651969" d="M3923.287,340.161c9,3.712,18.1,7.487,26.361,12.638,6,2.841,11.82,6.133,17.594,9.533,5.28,2.677,10.6,5.273,15.9,7.916a92.836,92.836,0,0,0,12.214,5.336,72.771,72.771,0,0,0,14.291,3.1,64.945,64.945,0,0,1,13.4,3.585c1.688.617,3.425,1.254,5.1,2.012a2.741,2.741,0,0,0,.024-.291c.077-3.989-8.539-7.394-19.245-7.6h-.082c-.9-.043-1.8-.09-2.678-.172-7.932-.735-15.238-4.517-22.159-8.487-11.017-6.319-21.83-13.372-33.258-18.787-8.265-5.151-17.363-8.925-26.359-12.638-8.417-3.473-16.881-6.961-25.732-8.97-4.244-.963-8.892-1.531-12.758.524-3.458,1.837-5.625,5.6-6.2,9.612a11.715,11.715,0,0,1,5.109-5.751c3.865-2.054,8.513-1.486,12.758-.524C3906.406,333.2,3914.869,336.687,3923.287,340.161Z" transform="translate(-3875.922 -135.528)" fill="#f9cbc5"/>
      <path id="Trazado_651970" data-name="Trazado 651970" d="M4046.426,351.9H3896.88a16.272,16.272,0,0,0-2.542,8.518,14.811,14.811,0,0,0,.633,4.232,186.871,186.871,0,0,1,18.148,16.8,6.188,6.188,0,0,1,.906,1.238c14.156,6.844,34.721,11.157,57.628,11.157,22.623,0,42.972-4.2,57.11-10.9q9.754-10.888,20.127-21.2c.04-.441.078-.884.078-1.33A16.276,16.276,0,0,0,4046.426,351.9Z" transform="translate(-3876.64 -136.775)" fill="#222b5a"/>
      <path id="Trazado_651971" data-name="Trazado 651971" d="M3948.378,298.682c.81,6.715-1.166,13.419-3.118,19.893-.667,2.212-1.358,4.483-2.231,6.668a23.5,23.5,0,0,0,2.679,1.466,38.691,38.691,0,0,0,5.708,2.183,94.489,94.489,0,0,0,10.521,2.447c13.961,2.551,29.854,2.085,42.687-4.075a60.985,60.985,0,0,1-3.114-8.689c-1.954-6.474-3.928-13.178-3.12-19.893.867-7.191,4.815-13.568,7.6-20.251a65.237,65.237,0,0,0,4.967-26.712c-1.34-.146-2.678-.31-4.016-.508-3.789-.559-8.08-1.028-12.327-1.3a252.266,252.266,0,0,0-27.779-.054c-8.746.4-16.193.553-24.382,3.363a66.655,66.655,0,0,0-6.615,2.719,65.268,65.268,0,0,0,4.944,22.493C3943.564,285.114,3947.512,291.492,3948.378,298.682Z" transform="translate(-3878.674 -131.757)" fill="#ee4e5d"/>
      <path id="Trazado_651972" data-name="Trazado 651972" d="M4030.415,333.693a100.453,100.453,0,0,1-25.979-.05,23.934,23.934,0,0,1-1.4-2.451c-8.88,4.305-19.029,5.734-28.81,5.486a96.438,96.438,0,0,1-17.622-2.191,63.538,63.538,0,0,1-10.2-2.884,24.991,24.991,0,0,1-5.3-2.636c-14,5.34-29.576,6.6-44.514,4.727-2.5-.313-5.1-.7-7.493.1l4.958,5.055a69.823,69.823,0,0,0,6.381,5.987,51.246,51.246,0,0,0,9.7,5.842c8.09,3.891,16.9,6.663,25.856,6.455a36.443,36.443,0,0,0,9.813-1.574c6.061,2.23,11.724,5.627,17.444,8.8a3.7,3.7,0,0,0,.147,1.581c1.557,1.854,3.623,2.06,5.985,1.375.049.014.1.032.145.047a6.582,6.582,0,0,0,4.373,0,16.28,16.28,0,0,0,3.069-1.259c5.631-2.975,11.125-6.412,16.909-9.012,7.962-.368,15.757-2.942,22.978-6.415a51.2,51.2,0,0,0,9.7-5.842,69.962,69.962,0,0,0,6.382-5.987l4.956-5.055C4035.517,332.993,4032.917,333.381,4030.415,333.693Z" transform="translate(-3876.384 -135.651)" fill="#222b5a"/>
      <path id="Trazado_651973" data-name="Trazado 651973" d="M3942.506,324.784a19.454,19.454,0,0,0,3.278,1.956c.687.345,1.39.654,2.1.947.239-.084.476-.172.713-.258a196.03,196.03,0,0,0,4.441-19.452c.453-2.69.768-5.4,1-8.122a68.15,68.15,0,0,0-2.5-11.08A171.017,171.017,0,0,0,3942.869,267a63.248,63.248,0,0,0-5.8-10.178,57.7,57.7,0,0,1-3.322-6.1.574.574,0,0,1-.069.048c.382,7.689,5.511,32.526,8.377,39.63,2.785,6.9,4.981-.609,5.847,6.819.809,6.936-1.166,13.861-3.12,20.548C3944.1,320.095,3943.4,322.487,3942.506,324.784Z" transform="translate(-3878.568 -131.817)" fill="#f13849"/>
      <path id="Trazado_651974" data-name="Trazado 651974" d="M3908.838,345.636a70.04,70.04,0,0,1-6.381-5.987l-4.957-5.055c2.39-.8,4.992-.417,7.493-.1a94.617,94.617,0,0,0,41.227-3.563,19.364,19.364,0,0,1-5.049-2.78c-13.974,5.3-29.5,6.551-44.4,4.684-2.5-.314-5.1-.7-7.492.1l4.957,5.055a70.023,70.023,0,0,0,6.381,5.987,51.233,51.233,0,0,0,9.7,5.842,63.251,63.251,0,0,0,19.893,6.163,73.212,73.212,0,0,1-11.676-4.5A51.18,51.18,0,0,1,3908.838,345.636Z" transform="translate(-3876.392 -135.611)" fill="#031e3a"/>
      <path id="Trazado_651975" data-name="Trazado 651975" d="M4008.006,292.966c3.626-8.7,7.066-31.6,6.683-41.021-.485-.029-2.289-1.664-2.774-1.692-.007.021-.5.515-.512.536a155.39,155.39,0,0,1-9.1,30.651c-2.45,6.109-4.7,11.93-4.767,18.6-.014,1.535.036,3.068.123,4.6.777,2.019,1.58,4.034,2.368,6.065,2.217,5.72,4.345,11.474,6.26,17.3.536-.233,1.068-.473,1.593-.726a70.112,70.112,0,0,1-2.613-7.559c-1.953-6.474-3.927-13.179-3.119-19.894C4003.013,292.634,4005.222,299.649,4008.006,292.966Z" transform="translate(-3881.697 -131.794)" fill="#f13849"/>
      <path id="Trazado_651976" data-name="Trazado 651976" d="M4004.469,333.088q3.14.377,6.305.545a27.082,27.082,0,0,1-1.348-2.619A48.665,48.665,0,0,1,4004.469,333.088Z" transform="translate(-3882.037 -135.751)" fill="#031e3a"/>
      <path id="Trazado_651977" data-name="Trazado 651977" d="M3978.2,141.182c-1.437-7.566-8.244-13.928-16.967-15.2l-.163-.023c-5.412-.757-11.208.015-15.376,2.893a16.3,16.3,0,0,0-6.246,8.97,30.918,30.918,0,0,0-.831,10.762c.719,10.706,6.582,34.942,11.064,45.083,1.535,3.472,3.219,6.931,4.033,10.557s.69,7.5-1.268,10.673c4.233-1.967,11.375-7.2,12.051-11.377s-.241-8.482-1.493-12.631c-1.462-4.843-5.764-19.308-3.994-23.947,1.615-4.235,4.053-8.062,8.944-9.447s7.421-3.716,12.63-3.768Z" transform="translate(-3878.804 -125.691)" fill="#12263f"/>
      <path id="Trazado_651978" data-name="Trazado 651978" d="M3970.142,130.1q-.227-.078-.45-.152c-3.1-1.03-6.439-1.8-9.677-.948a18.194,18.194,0,0,0-6.651,2.944c-.244.175-.4.282-.462.326-.2.169-.411.337-.609.514-.289.258-.572.525-.846.8-.406.405-.792.829-1.166,1.265-.8.937-.188.26-.043.054a23.64,23.64,0,0,0-1.487,2.385c-.194.362-.377.731-.552,1.1-.065.166-.234.574-.285.735-.351,1.1-.7,2.183-.957,3.309-.107.475-.206.951-.292,1.429-.019.108-.135,1.048-.157,1.16a47.979,47.979,0,0,0-.2,5.545,49.981,49.981,0,0,0,1.56,11.9,92.5,92.5,0,0,0,3.731,12.723c2.471,6.492,5.761,12.651,6.838,19.582a53.042,53.042,0,0,1-.02,16.022c2.947-2.319,5.618-5.2,6.021-7.683.667-4.113-.192-8.349-1.374-12.429-1.379-4.761-5.439-18.982-3.72-23.556,1.569-4.177,3.923-7.954,8.619-9.342s7.132-3.692,12.127-3.767l-2.229-12.343A18.128,18.128,0,0,0,3970.142,130.1Z" transform="translate(-3879.186 -125.835)" fill="#080809"/>
      <path id="Trazado_651979" data-name="Trazado 651979" d="M3971.979,129.752l-.449-.152c-3.1-1.03-6.44-1.8-9.677-.947a18.2,18.2,0,0,0-6.652,2.944c-.242.175-.394.282-.462.325-.2.169-.41.337-.608.514q-.434.388-.847.8c-.406.406-.792.829-1.165,1.265-.8.937-.189.261-.043.054a23.744,23.744,0,0,0-1.487,2.386c-.2.362-.377.731-.552,1.1-.066.165-.234.573-.286.734-.351,1.1-.7,2.184-.958,3.309q-.161.71-.291,1.428c-.02.109-.136,1.048-.158,1.16a47.776,47.776,0,0,0-.2,5.545,49.914,49.914,0,0,0,1.56,11.9,92.405,92.405,0,0,0,3.73,12.723c2.471,6.492,5.762,12.65,6.839,19.582a53.01,53.01,0,0,1-.02,16.022c2.948-2.32,5.618-5.2,6.022-7.684.667-4.113-.192-8.349-1.375-12.428-1.378-4.761-5.437-18.982-3.719-23.557,1.568-4.176,3.924-7.954,8.618-9.341s7.133-3.692,12.128-3.767l-2.229-12.344A18.141,18.141,0,0,0,3971.979,129.752Z" transform="translate(-3879.276 -125.818)" fill="#040e1a"/>
      <path id="Trazado_651980" data-name="Trazado 651980" d="M3962.535,155.951c.518-2.062-1.018-4.171-.726-6.279a7.326,7.326,0,0,1,.741-2.089c.8-1.684,1.674-3.46,3.229-4.427a8.379,8.379,0,0,1,3.274-1q1.939-.284,3.9-.387a8.057,8.057,0,0,1,4.146.586,4.8,4.8,0,0,1,2.119,5.89,7.057,7.057,0,0,1-3.565,3.29,13.834,13.834,0,0,1-2.941,1.1,15.471,15.471,0,0,0-1.564.39,4.812,4.812,0,0,0-2.66,2.357Z" transform="translate(-3879.944 -126.477)" fill="#ee4e5d"/>
      <path id="Trazado_651981" data-name="Trazado 651981" d="M3985.912,216.546a166.89,166.89,0,0,1-2.653-17.674,5.315,5.315,0,0,0-.358-1.86,3.317,3.317,0,0,0-.692-.907c-1.523-1.536-3.2-2.735-4.8-4.112a38.7,38.7,0,0,1-5-5.226l-8.367-.647c0,.053,0,.1,0,.157l-2.032-.157c-.2,9.509-.153,18.085-.96,27.528-.115,1.348-.306,2.794-.536,4.295-2.927,2.376-6.768,3.41-9.9,5.541a4.456,4.456,0,0,0-1.656,1.715c-.645,1.41.08,3.041.818,4.405,2.048,3.775,4.565,7.667,8.535,9.286a15.813,15.813,0,0,0,6.606.891c.653.026,1.313.024,1.976,0a15.181,15.181,0,0,0,3.982.277,19.091,19.091,0,0,0,7.345-1.059,13.962,13.962,0,0,0,5.28-2.988c2.642-1.815,5.229-3.709,7.814-5.605a2.392,2.392,0,0,0,.585-.539,6.077,6.077,0,0,0,.438-1.194,3.951,3.951,0,0,1,1.976-1.739L3997.9,225l1.376-1.113A45.835,45.835,0,0,1,3985.912,216.546Z" transform="translate(-3879.304 -128.652)" fill="#f98f80"/>
      <path id="Trazado_651982" data-name="Trazado 651982" d="M3999.129,166.2a13.918,13.918,0,0,0-.868-6.5,9.813,9.813,0,0,0-3.889-5.135c-.348-.206-.864-.343-1.087,0a11.191,11.191,0,0,1-.886,10.216c-.215.331-.455.756-.254,1.1a1.025,1.025,0,0,0,.3.283,13.978,13.978,0,0,1,4.467,5.372A9.525,9.525,0,0,0,3999.129,166.2Z" transform="translate(-3881.429 -127.095)" fill="#12263f"/>
      <path id="Trazado_651983" data-name="Trazado 651983" d="M3960.368,162.488a9.03,9.03,0,0,1,10.911.881l.88,6.046c.407.007.6.589.423.97a2.509,2.509,0,0,1-.877.858c-2.012,1.527-2.591,4.4-2.448,6.978a17.651,17.651,0,0,0,3.109,9.059c.428.612.9,1.214,1.347,1.829a32.7,32.7,0,0,0-7.459-2.555,12.392,12.392,0,0,0-.533-1.161c-2.4-4.533-7.5-7.316-9.027-12.239A9.765,9.765,0,0,1,3960.368,162.488Z" transform="translate(-3879.676 -127.424)" fill="#12263f"/>
      <path id="Trazado_651984" data-name="Trazado 651984" d="M3994.528,166.474a45.28,45.28,0,0,1,2.076,18.831,66.145,66.145,0,0,1-4.619,18.422,4.81,4.81,0,0,1-1.187,1.96,4.032,4.032,0,0,1-2.6.736c-4.617.063-9.077-2.06-12.65-5.085a48.944,48.944,0,0,1-8.95-10.873,7.276,7.276,0,0,1-4.717-2.493,12.841,12.841,0,0,1-2.6-4.869,7.815,7.815,0,0,1-.252-4.664,3.381,3.381,0,0,1,3.463-2.5,4.127,4.127,0,0,1,1.751.866,11.811,11.811,0,0,1,4.266,6.482c-1.754-5.325-1.6-11.107-1.109-16.709.12-1.357.356-2.889,1.444-3.658a4.484,4.484,0,0,1,2.168-.612l10.27-1.072a29.445,29.445,0,0,1,7.594-.133c1.14.179,2.936.4,3.794,1.264C3993.594,163.3,3994.1,165.251,3994.528,166.474Z" transform="translate(-3879.797 -127.417)" fill="#ffaa9a"/>
      <path id="Trazado_651985" data-name="Trazado 651985" d="M3962.927,161.427a23.128,23.128,0,0,1,.148-4.56,11.3,11.3,0,0,1,3.595-6.587,40.238,40.238,0,0,1,5.213-3.471,8.039,8.039,0,0,0-.395,3.891,15.417,15.417,0,0,0,1,3.707,36.849,36.849,0,0,0,2.348,4.883,33.141,33.141,0,0,0,.864,8.469,35.573,35.573,0,0,0-3.177,11.3,31.758,31.758,0,0,1-.347,4.224l-2.172-.648c-.126-.037-.9.044-1-.076s-.234.214-.292.046c-.735-2.125-2.584-4.618-3.571-6.474-.648-1.222-.41-3.275-1.1-4.442C3962.362,168.846,3963.075,165.291,3962.927,161.427Z" transform="translate(-3879.999 -126.726)" fill="#12263f"/>
      <path id="Trazado_651986" data-name="Trazado 651986" d="M3955.356,165.963c-.169-4.437,2.609-5.133,5.93-5.608a10.812,10.812,0,0,1,1.637-5.367,25.442,25.442,0,0,1,2.5-3.969c3.679-4.569,9.752-6.369,15.5-6.458a13.943,13.943,0,0,1,5.708.877c2.5,1.063,4.4,3.226,5.984,5.492.738,1.056,1.43,2.151,2.144,3.226-.066.039-.131.083-.2.122.246.391.483.789.69,1.2a10.232,10.232,0,0,1,1.183,6.04,6.454,6.454,0,0,1-2.065,3.871,117.567,117.567,0,0,1-26.657,1.119,4.526,4.526,0,0,0-5.006,3.3,25.556,25.556,0,0,1-3.578-.747,7.517,7.517,0,0,1-2.671-1.239,4.691,4.691,0,0,1-1.128-1.34C3955.333,166.309,3955.362,166.149,3955.356,165.963Z" transform="translate(-3879.629 -126.615)" fill="#12263f"/>
      <path id="Trazado_651987" data-name="Trazado 651987" d="M3967.433,157.24a4.382,4.382,0,0,0-3.971-2.688,6.358,6.358,0,0,0-4.509,1.988,13.145,13.145,0,0,0-2.715,4.338,11.45,11.45,0,0,0-.822,2.709,9.272,9.272,0,0,0,1.059,5.545,17.637,17.637,0,0,0,3.477,4.456c.645-2.409,1.361-4.942,3.111-6.664a23.575,23.575,0,0,0,2.178-2.014,2.564,2.564,0,0,0,.433-2.8c-.11-.181-.261-.369-.227-.581.063-.384.585-.379.952-.469a1.235,1.235,0,0,0,.645-1.818.194.194,0,0,1,.332.106Z" transform="translate(-3879.629 -127.105)" fill="#12263f"/>
      <path id="Trazado_651988" data-name="Trazado 651988" d="M4015.363,353.451c5.558-9,11.542-18.41,20.854-23.321a49.377,49.377,0,0,1,8.385-3.284,43.645,43.645,0,0,1,11.792-2.345,18.226,18.226,0,0,1,11.4,3.231,9.208,9.208,0,0,1,2.389,2.509,10.337,10.337,0,0,1,1.291,5.111,28.212,28.212,0,0,1-2.134,10.905c-3.172,8.264-8.99,15.707-16.869,19.614a29.484,29.484,0,0,1-29.416-2.219c-2.052-1.434-3.911-3.128-5.83-4.739Z" transform="translate(-3882.571 -135.432)" fill="#222b5a"/>
      <path id="Trazado_651989" data-name="Trazado 651989" d="M3931.844,351.85c-5.558-9-11.544-18.41-20.854-23.32a49.279,49.279,0,0,0-8.386-3.284,43.649,43.649,0,0,0-11.791-2.345,18.23,18.23,0,0,0-11.4,3.231,9.246,9.246,0,0,0-2.389,2.509,10.357,10.357,0,0,0-1.29,5.111,28.233,28.233,0,0,0,2.134,10.905c3.172,8.264,8.991,15.707,16.869,19.614a29.484,29.484,0,0,0,29.417-2.219c2.052-1.435,3.911-3.128,5.831-4.739Z" transform="translate(-3875.729 -135.354)" fill="#222b5a"/>
      <path id="Trazado_651990" data-name="Trazado 651990" d="M3946.584,377.352c-11.811,1.618-23.127-.838-34.269-3.026a9.9,9.9,0,0,0-4.655-.141,11.614,11.614,0,0,0-4.793,3.357,20.151,20.151,0,0,0-4.392,5.991,5.116,5.116,0,0,0-.5,2.546,4.853,4.853,0,0,0,.971,2.125,31.188,31.188,0,0,0,8.588,8.356,9.007,9.007,0,0,0,4.052,1.659,14.064,14.064,0,0,0,5.327-1.02c4.1-1.307,8.113-1.277,12.263-1.67,4.763-.45,9.861-.553,14.322-1.28,1.629-.266,7.222-2.513,7.591-4.251Z" transform="translate(-3876.818 -137.856)" fill="#ee4e5d"/>
      <path id="Trazado_651991" data-name="Trazado 651991" d="M3933.318,377.485h.082c.9-.043,1.8-.091,2.678-.172,7.932-.737,15.236-4.53,22.157-8.51,11.015-6.336,21.826-13.407,33.253-18.836,8.264-5.165,17.361-8.95,26.357-12.672,8.417-3.484,16.878-6.98,25.728-8.995,4.244-.966,8.891-1.535,12.756.525,4.626,2.465,6.944,8.387,6.238,13.734s-3.992,10.05-8.087,13.376-8.967,5.441-13.841,7.32a249.453,249.453,0,0,1-33.994,10.163q-3.986,1.231-8.006,2.306c-14.035,3.783-28.358,6.531-42.134,11.181-4.4,1.487-8.815,3.177-13.37,3.938a46.573,46.573,0,0,1-9.536,1.13c-10.7.211-19.444-2.861-19.521-6.861S3922.613,377.7,3933.318,377.485Z" transform="translate(-3877.607 -135.576)" fill="#ffaa9a"/>
      <path id="Trazado_651992" data-name="Trazado 651992" d="M3983.758,373.878c-4.8-2.809-10.36-5.874-13.765-10.515-3.929,2.347-7.845,4.708-11.788,6.977a81.4,81.4,0,0,1-13.547,6.564c-10.843.945-21.287-1.3-31.581-3.319a9.9,9.9,0,0,0-4.655-.141,11.618,11.618,0,0,0-4.794,3.357,20.16,20.16,0,0,0-4.392,5.991,5.116,5.116,0,0,0-.5,2.546,4.864,4.864,0,0,0,.971,2.125,31.207,31.207,0,0,0,8.588,8.355,9.014,9.014,0,0,0,4.053,1.66,14.062,14.062,0,0,0,5.326-1.02c4.1-1.307,8.113-1.277,12.263-1.67,4.763-.45,9.861-.553,14.322-1.28a18.747,18.747,0,0,0,6.915-3.259c1.773-.587,3.535-1.212,5.3-1.807,11.689-3.946,23.772-6.524,35.738-9.524Q3988,376.367,3983.758,373.878Z" transform="translate(-3876.861 -137.1)" fill="#42210b" opacity="0.32"/>
      <path id="Trazado_651993" data-name="Trazado 651993" d="M3921.275,383.246c4.119-1.2,8.408-1.683,12.578-2.669,1.4-.33,2.837-.617,4.269-.947.139-.054.28-.1.419-.158-.813.14-1.632.257-2.458.334-.879.082-1.775.13-2.678.173h-.083c-10.7.21-19.306,3.62-19.241,7.617C3915.756,385.12,3918.5,384.056,3921.275,383.246Z" transform="translate(-3877.608 -138.126)" fill="#f9cbc5"/>
      <path id="Trazado_651994" data-name="Trazado 651994" d="M4020.569,322.457a48.675,48.675,0,0,0-12.883-8.479,40.634,40.634,0,0,0,4.458-7.352,33.626,33.626,0,0,0,1.594-4.131c1.62-5.225,1.871-10.77,1.864-16.241a183.313,183.313,0,0,0-2.621-30.654,2.979,2.979,0,0,1,.049-1.738,2.8,2.8,0,0,1,.937-1,33.891,33.891,0,0,1,11.438-5.614c.076,1.169,5.771-.164,5.983.98.549,9.307,1.414,20.95,1.615,31.031.176,8.911-2.021,16.389-3.89,25.089a47.655,47.655,0,0,1-3.476,10.894A29.371,29.371,0,0,1,4020.569,322.457Z" transform="translate(-3882.194 -131.647)" fill="#ffaa9a"/>
      <path id="Trazado_651995" data-name="Trazado 651995" d="M4008.566,253.2a24.532,24.532,0,0,1,5.429-1.347q.885-.141,1.778-.2c1.8-.164,3.579-.205,5.236-.2,3.429.019,7.647.224,11.152,1.531a51.878,51.878,0,0,0-3.633-15.374,18.054,18.054,0,0,0-6.285-8.039A10.842,10.842,0,0,0,4012,228.5a11.037,11.037,0,0,0-5.763,8.129,25.812,25.812,0,0,0,.2,8.494C4007.078,247.838,4007.756,250.538,4008.566,253.2Z" transform="translate(-3882.109 -130.687)" fill="#ee4e5d"/>
      <path id="Trazado_651996" data-name="Trazado 651996" d="M3996.937,346.712c.838-.255,2.875-.551,3.478-1.194l-1.418.612q.856-.375,1.7-.774c1.85-.873,3.658-1.832,5.456-2.805,3.342-1.809,6.653-3.667,10.1-5.274V289.082H3928.7v58.339h66.418A13.032,13.032,0,0,1,3996.937,346.712Z" transform="translate(-3878.324 -133.697)" fill="#3cbcae"/>
      <path id="Trazado_651997" data-name="Trazado 651997" d="M4007.327,342.392a72.42,72.42,0,0,1,8.921-4.661V284.57H3928.7v58.339h77.856C4006.808,342.729,4007.064,342.555,4007.327,342.392Z" transform="translate(-3878.324 -133.476)" fill="#179587"/>
      <path id="Trazado_651998" data-name="Trazado 651998" d="M4000.547,376.479c11.811,1.619,23.127-.837,34.268-3.026a9.909,9.909,0,0,1,4.655-.14,11.615,11.615,0,0,1,4.794,3.356,20.168,20.168,0,0,1,4.392,5.992,5.116,5.116,0,0,1,.5,2.546,4.845,4.845,0,0,1-.971,2.125,31.184,31.184,0,0,1-8.588,8.356,9.014,9.014,0,0,1-4.052,1.659,14.06,14.06,0,0,1-5.327-1.019c-4.1-1.307-8.113-1.278-12.263-1.67-4.763-.451-9.861-.554-14.322-1.281-1.629-.265-7.223-2.513-7.591-4.251Z" transform="translate(-3881.623 -137.813)" fill="#ee4e5d"/>
      <path id="Trazado_651999" data-name="Trazado 651999" d="M4059.249,328.765c-3.865-2.06-8.513-1.491-12.757-.525-8.849,2.013-17.312,5.511-25.728,8.994-9,3.722-18.093,7.507-26.357,12.672-7.113,3.38-13.986,7.4-20.82,11.476.231.12.462.241.69.362,7.814-3.5,15.621-6.988,23.316-10.77,8.935-4.392,17.935-8.433,27.155-12.176,8.782-3.564,17.571-8.483,27.3-8.408,5.774.045,10.877,2.691,13.284,7.294A12.649,12.649,0,0,0,4059.249,328.765Z" transform="translate(-3880.523 -135.573)" fill="#f9cbc5"/>
      <path id="Trazado_652000" data-name="Trazado 652000" d="M4008.895,376.613h-.082c-.9-.043-1.8-.091-2.678-.173-7.931-.737-15.236-4.529-22.156-8.51-11.014-6.337-21.827-13.407-33.252-18.837-8.265-5.164-17.362-8.95-26.357-12.672-8.416-3.483-16.878-6.98-25.729-8.994-4.243-.966-8.891-1.535-12.756.525-4.625,2.465-6.944,8.387-6.237,13.734s3.992,10.049,8.087,13.376,8.967,5.441,13.84,7.32a249.473,249.473,0,0,0,34,10.162q3.986,1.233,8.005,2.307c14.035,3.782,28.358,6.531,42.134,11.181,4.4,1.486,8.814,3.176,13.37,3.938a46.64,46.64,0,0,0,9.536,1.13c10.7.211,19.444-2.862,19.521-6.861S4019.6,376.823,4008.895,376.613Z" transform="translate(-3875.914 -135.533)" fill="#ffaa9a"/>
      <path id="Trazado_652001" data-name="Trazado 652001" d="M3923.281,340c9,3.722,18.093,7.507,26.357,12.672,5.993,2.848,11.818,6.149,17.592,9.559,5.278,2.685,10.6,5.288,15.9,7.937a92.666,92.666,0,0,0,12.213,5.35,72.545,72.545,0,0,0,14.289,3.106,64.734,64.734,0,0,1,13.394,3.595c1.689.619,3.424,1.258,5.1,2.018a2.524,2.524,0,0,0,.024-.291c.078-4-8.538-7.414-19.242-7.625h-.081c-.9-.043-1.8-.091-2.678-.173-7.932-.736-15.236-4.529-22.157-8.51-11.015-6.337-21.826-13.407-33.252-18.837-8.265-5.164-17.362-8.95-26.357-12.672-8.416-3.483-16.878-6.979-25.729-8.994-4.243-.966-8.891-1.535-12.756.525-3.458,1.843-5.624,5.617-6.2,9.637a11.737,11.737,0,0,1,5.107-5.766c3.866-2.059,8.513-1.49,12.757-.525C3906.4,333.021,3914.865,336.519,3923.281,340Z" transform="translate(-3875.923 -135.519)" fill="#f9cbc5"/>
      <path id="Trazado_652002" data-name="Trazado 652002" d="M3971.348,315.829a7.437,7.437,0,0,1-2.832,5.844,7.448,7.448,0,1,0,0-11.688A7.437,7.437,0,0,1,3971.348,315.829Z" transform="translate(-3880.275 -134.643)" fill="#60c1b6"/>
      <g id="Grupo_996416" data-name="Grupo 996416" transform="translate(60.194 90.788)">
        <path id="Trazado_652003" data-name="Trazado 652003" d="M3957.242,228.93c5.986,4.727,12.951,8.534,20.819,7.7,5.958-.636,11.9-3.9,12.453-10.346.16-1.87-2.635-2.1-3.154-.428-2.054,6.587-8.066,9.971-14.833,8.563-5.74-1.2-10.364-5.244-14.685-8.945a1.615,1.615,0,0,0-2.521,1.951c5.306,11.758,26.783,12.471,34.658,3.328a1.634,1.634,0,0,0-.708-2.69l-.829-.272a1.629,1.629,0,0,0-1.813.74c-3.247,5.133-8.9,6.606-14.672,6.256-4.428-.269-12.444-1.037-15.078-5.307l-2.2,2.2c6.868,3.494,14.439,5.96,22.208,4.6,5.428-.95,13.457-4.233,13.528-10.667.021-1.946-2.51-2.013-3.153-.428-2.772,6.824-9.079,10.284-16.254,9.55q.212,1.582.427,3.163a30.28,30.28,0,0,0,19.594-12.043c1.094-1.452-1.331-3.326-2.521-1.951a29.066,29.066,0,0,1-13.845,8.926c-5.092,1.532-13.175,3.04-17.655-.641l-1.946,2.529c11.052,6.6,23.305,3.146,34.343-1.615q-.811-1.389-1.62-2.781l-21.251,10.6q.812,1.391,1.622,2.781l21.567-11.8-1.621-2.781a149.452,149.452,0,0,0-17.017,12.293c-1.412,1.177.412,3.471,1.946,2.529l15.5-9.517-1.945-2.529-10.043,10.713c-1.185,1.265.443,3.692,1.946,2.529a145.445,145.445,0,0,0,11.233-9.61c1.517-1.441-.721-3.615-2.27-2.277a122.842,122.842,0,0,0-12.425,12.372,1.609,1.609,0,0,0,2.271,2.277,234.447,234.447,0,0,0,18.382-16.593c1.47-1.475-.748-3.666-2.271-2.277L3978.088,243c-1.539,1.4.724,3.629,2.271,2.277a63.46,63.46,0,0,0,9.736-10.729c.976-1.35-.894-2.977-2.2-2.2a65.443,65.443,0,0,0-9.585,6.932l2.27,2.277.581-.57c1.5-1.475-.708-3.582-2.271-2.278a72.827,72.827,0,0,0-7.949,7.738,1.609,1.609,0,0,0,2.27,2.278,108.379,108.379,0,0,1,12.539-10.345l-1.946-2.529q-8.25,9.378-17.322,17.943l2.27,2.277a144.142,144.142,0,0,1,19.447-18.693l-2.27-2.277-16.644,19.438a1.609,1.609,0,0,0,2.271,2.277l27.718-24.694L3997,229.839q-11.077,11.174-21.458,23a1.608,1.608,0,0,0,2.27,2.277l17.945-17.145-2.27-2.278q-9.044,10.48-18.085,20.961c-1.339,1.551.8,3.772,2.27,2.277a242.63,242.63,0,0,0,20.44-23.747c.96-1.271-.929-3.118-2.2-2.2-8.883,6.419-16.573,14.141-24.19,21.99l2.271,2.277,19.672-20.7a1.609,1.609,0,0,0-2.271-2.278q-7.7,7.278-14.884,15.052a1.609,1.609,0,0,0,2.271,2.277,128.28,128.28,0,0,0,12.326-12.781c1.078-1.285-.376-3.7-1.946-2.529a110.907,110.907,0,0,0-15.288,13.747,1.609,1.609,0,0,0,2.27,2.278,174.9,174.9,0,0,0,17.834-16.466c1.451-1.539-.692-3.555-2.271-2.277A152.842,152.842,0,0,0,3973.12,251.4a1.609,1.609,0,0,0,2.271,2.277,250.361,250.361,0,0,0,20.98-20.595c1.155-1.274-.407-3.674-1.945-2.529-7.983,5.937-15.069,12.846-22.1,19.87l2.521,1.951,10.853-14.65c1.184-1.6-1.224-2.971-2.522-1.951a83.357,83.357,0,0,0-12.78,12.458,1.609,1.609,0,0,0,2.271,2.277,123.3,123.3,0,0,0,13.913-14.211c1.088-1.306-.319-3.614-1.946-2.529-7.9,5.269-14.912,11.6-21.873,18.031l2.271,2.277c5.122-6.489,11.118-12.091,17.209-17.646l-2.271-2.277q-9.073,8.378-18.148,16.755l2.271,2.278,13.154-14.465a1.609,1.609,0,0,0-2.271-2.277l-14.265,13.093,2.271,2.277,13.194-14.729a1.609,1.609,0,0,0-2.27-2.278l-16.983,15.136,2.27,2.277q6.14-6.722,12.277-13.444c1.393-1.523-.79-3.74-2.27-2.277l-12.75,12.611,2.27,2.277,13.212-14.454a1.609,1.609,0,0,0-2.271-2.277L3955.6,248.448l2.271,2.277,10.682-11.621c1.4-1.52-.812-3.761-2.271-2.278l-11.81,12.019,2.521,1.951,8.361-11.824c1.081-1.528-1.249-3.186-2.522-1.951a81.2,81.2,0,0,0-11.213,13.529c-.849,1.281.906,3.193,2.2,2.2l14.116-10.832-2.358-1.818c-1.248,4.835-3.6,8.969-6.173,13.2-.982,1.617,1.2,3.133,2.522,1.951a57.433,57.433,0,0,0,9.374-10.738c1.055-1.555-1.236-3.17-2.521-1.951a119.529,119.529,0,0,0-11.9,13.076c-1.241,1.584.833,3.838,2.271,2.277a117.976,117.976,0,0,0,11.242-14.267c1.089-1.622-1.208-3.033-2.522-1.951q-7.176,5.9-13.789,12.416l2.271,2.277,8.353-9.653-2.521-1.951q-2.405,4.006-4.812,8.01c-.773,1.288.875,3.222,2.2,2.2a94.98,94.98,0,0,0,11.971-10.92l-2.522-1.951q-4.613,6.135-9.229,12.27c-1.162,1.545,1.23,3.059,2.522,1.951a123.793,123.793,0,0,0,11.27-10.975l-2.521-1.951-5.155,6.822c-1.04,1.375.911,2.888,2.2,2.2a21.553,21.553,0,0,0,4.772-3.425l-2.271-2.278-5.287,5.367,2.271,2.277,3.257-4.141c1.251-1.592-.9-3.875-2.27-2.278l-1.862,2.176,2.522,1.951c1.147-2.065,5.037-5.118,1.895-7.582-2.731-2.142-9.031,1.673-11.636,2.584q.987.991,1.975,1.981a20.153,20.153,0,0,1,4.086-7.631c1.319-1.56-.781-3.758-2.27-2.277l-1.508,1.5,2.271,2.278q1.452-1.566,2.907-3.132a1.609,1.609,0,0,0-2.271-2.278L3961.962,240l2.683,1.566q.427-1.285.852-2.571l-3.1-.856q-.089.575-.179,1.149a1.63,1.63,0,0,0,1.976,1.981c4.2-1.228,1.826-6.82-2.075-4.471a1.588,1.588,0,0,0-.8,1.389c.378,3.852,6.714,5.341,8.046,1.286.516-1.573-.565-2.866-1.8-3.584-1.783-1.039-4.335-.884-6.292-1.71a17.988,17.988,0,0,1-7.079-5.555l-1.945,2.529a33.034,33.034,0,0,0,33.088.787l-1.621-2.781c-8.982,5.4-20.2,7.188-28.529-.469l-1.946,2.529c11.8,5.6,24.352,3.832,36.5.322q-.617-1.472-1.237-2.943-7.1,3.248-14.1,6.713.811,1.389,1.621,2.781a44.194,44.194,0,0,1,7.833-4.975c3.521-1.691,4.217-1.939,6.731-5.092a1.609,1.609,0,0,0-2.271-2.278l-5.881,5.2,2.271,2.277,7.017-6.25-2.27-2.278-6.178,6.152c-1.476,1.469.747,3.666,2.27,2.278l6.379-5.815-2.271-2.277a45.247,45.247,0,0,0-5.776,7.8c-.785,1.335.83,3.123,2.2,2.2l7.553-5.083-1.946-2.529c-3.049,3.288-5.9,6.713-8.608,10.287-1.178,1.553,1.228,3.032,2.521,1.951l5.658-4.727-2.521-1.951a5.458,5.458,0,0,0-1.318,3.472c-.192,1.258,1.067,2.673,2.358,1.818l3.759-2.492-1.946-2.529-4.317,5.067a1.609,1.609,0,0,0,2.271,2.277l6.015-4.737-2.522-1.951-6.13,8.11c-.948,1.255.945,3.165,2.2,2.2l7.267-5.583q-.974-1.264-1.946-2.529l-10.179,13.025c-1.239,1.586.757,3.777,2.271,2.277l12.214-12.117-2.27-2.277c-3.652,4.015-7.075,8.2-10.313,12.552-1.081,1.454,1.362,3.361,2.521,1.951l5.95-7.23-2.521-1.951-5.485,7.271c-1.114,1.477,1.271,3.228,2.521,1.951l6.2-6.334-2.521-1.951-2.362,3.561c-1.041,1.57,1.228,3.157,2.522,1.951l2.195-2.046-2.522-1.951-2.275,3.19c-1.055,1.477,1.337,3.339,2.521,1.951l3.465-4.059-2.522-1.951q-2.145,3.041-4.293,6.083c-1.042,1.477,1.371,3.374,2.522,1.951q3.537-4.378,7.077-8.755l-2.522-1.951q-3.6,4.755-7.2,9.508l2.934.384c-1.74-4.292-5.581-5.081-9.843-3.964-2.79.732-10.574,5.5-12.09,1.008-.6-1.791.525-3.484-.5-5.577a1.623,1.623,0,0,0-2.522-.326l-3.086,2.684,2.742,1.138c.188-2.3,2.428-4.6-.193-6.448-2.25-1.588-4.6.251-6.034,1.96l2.741,1.138a10.2,10.2,0,0,0-2.9-7.368c-1.14-1.247-3.014.08-2.684,1.566a35.51,35.51,0,0,0,2.376,7.036c.728,1.61,2.854.589,2.992-.812a12.637,12.637,0,0,0-1.45-7.507c-.794-1.6-2.809-.592-2.992.812a16.716,16.716,0,0,0,.578,7.277c.491,1.7,3.243,1.436,3.154-.428a16.728,16.728,0,0,0-2.065-7.507c-.816-1.529-2.845-.656-2.992.812a67.645,67.645,0,0,0-.267,9.84c.078,1.717,2.823,2.3,3.154.428a28.413,28.413,0,0,0-.08-10.743c-.37-1.914-2.982-1.244-3.154.428q-.593,5.775-1.185,11.549c-.19,1.855,2.655,2.109,3.154.428a50.457,50.457,0,0,0,1.97-10.976c.132-1.869-2.633-2.1-3.153-.428a54.458,54.458,0,0,0-2.183,10.883c-.181,1.811,2.752,2.18,3.154.428a54.984,54.984,0,0,0,1.4-11.329,1.617,1.617,0,0,0-2.992-.812,27.334,27.334,0,0,0-3.809,11.248c-.193,1.595,2.307,2.181,2.992.813a26.107,26.107,0,0,0,2.852-11.212c.049-1.54-2.294-2.27-2.992-.813a46.875,46.875,0,0,0-4.363,15.277c-.215,1.913,2.579,2.019,3.153.428a75.854,75.854,0,0,0,3.725-14.78c.3-1.994-2.517-2.906-3.1-.856a35.981,35.981,0,0,0-1.222,13.79c.149,1.472,2.165,2.339,2.992.813a18.654,18.654,0,0,0,2.076-12.46c-.237-1.483-2.244-1.414-2.935-.384a19.691,19.691,0,0,0-3.435,11.237c-.01,1.523,2.281,2.291,2.993.812a32.623,32.623,0,0,0,3.31-13.516,1.621,1.621,0,0,0-2.741-1.138,17.26,17.26,0,0,0-4.471,12.568,1.618,1.618,0,0,0,2.992.812,22.068,22.068,0,0,0,3.27-14.537c-.167-1.479-2.138-2.326-2.992-.813a24.1,24.1,0,0,0-3.182,14.237,1.618,1.618,0,0,0,2.992.812,28.547,28.547,0,0,0,4.283-14.353,1.621,1.621,0,0,0-2.741-1.138,11.007,11.007,0,0,0-2.759,8.936c.187,1.483,2.113,2.319,2.992.813a14.282,14.282,0,0,0,1.8-10.077c-.289-1.766-2.573-1.269-3.1,0l-3.821,9.261,3.1.857a45.907,45.907,0,0,0,3.147-13.5c.145-1.73-2.169-2-2.992-.813a25.641,25.641,0,0,0-4.674,15.032,1.617,1.617,0,0,0,2.992.813,32.494,32.494,0,0,0,3.646-13.1,1.617,1.617,0,0,0-2.992-.813,47.811,47.811,0,0,0-4.343,11.922,1.607,1.607,0,0,0,3.1.856q2.172-6.148,4.34-12.3l-3.1-.856q-.6,2.03-1.188,4.061c-.533,1.819,1.945,2.706,2.934,1.24a11.438,11.438,0,0,0,2.086-7.216,1.624,1.624,0,0,0-2.742-1.138l-1.469,1.654,2.684,1.566.612-1.573c.722-1.855-1.936-2.549-2.935-1.241q-.7.919-1.4,1.835l2.935,1.24.568-1.616c.517-1.468-1.68-2.817-2.684-1.566l-2.821,3.511,2.522,1.951q1.181-1.89,2.365-3.778l-2.992-.812c-.018.3-.037.6-.055.895a1.617,1.617,0,0,0,2.416,1.39,6.166,6.166,0,0,0,2.084-1.7,1.623,1.623,0,0,0-1.562-2.691l-7.093,1.757,1.237,2.943q3.547-1.969,7.094-3.938c1.832-1.017.223-3.657-1.621-2.781l-6.162,2.931,1.945,2.529,5.352-4.474c1.409-1.177-.413-3.479-1.946-2.529l-4.917,3.049,1.946,2.529,5.254-4.348c1.426-1.18-.406-3.44-1.946-2.529l-4.477,2.649a1.61,1.61,0,0,0,1.621,2.78l2.848-1.446q-.811-1.389-1.62-2.78c-6.516,4.868-13.341,6.209-14.141,15.54-.6,6.947,1.163,19.921,8.453,23.355,6.841,3.223,12.857-7.285,14.326-12.542,2.4-8.58-.836-17.39-7.505-23.046-1.569-1.33-3.852.937-2.27,2.278,4.8,4.073,7.812,9.847,7.345,16.275a19.034,19.034,0,0,1-3.643,9.722,11.624,11.624,0,0,1-3.06,3.266q-1.608,2.135-3.757-.422a4.205,4.205,0,0,1-3.571-2.8c-3.167-4.57-3.912-12.209-2.856-17.516,1.338-6.725,7.535-7.772,12.3-11.332a1.61,1.61,0,0,0-1.62-2.78l-2.849,1.446,1.621,2.78,4.479-2.649-1.946-2.529-5.255,4.348c-1.414,1.171.415,3.479,1.946,2.529q2.46-1.523,4.917-3.048l-1.946-2.529-5.351,4.474c-1.489,1.245.407,3.26,1.945,2.529L3957,226.99l-1.621-2.781-7.093,3.938a1.617,1.617,0,0,0,1.237,2.943l7.092-1.757q-.781-1.345-1.562-2.691-.716.6-1.433,1.194l2.417,1.39c.018-.3.036-.6.055-.895.1-1.668-2.193-2.09-2.993-.813l-2.365,3.777c-.949,1.515,1.361,3.4,2.521,1.951l2.82-3.511-2.683-1.566q-.286.809-.569,1.616c-.659,1.874,1.925,2.563,2.935,1.241l1.4-1.835-2.935-1.24q-.306.786-.612,1.573c-.586,1.506,1.655,2.724,2.683,1.566q.735-.826,1.47-1.654l-2.741-1.138a6.957,6.957,0,0,1-1.646,5.591l2.934,1.241,1.188-4.061c.588-2.01-2.415-2.788-3.1-.856q-2.169,6.15-4.34,12.3l3.1.856a44.412,44.412,0,0,1,4.02-11.151l-2.992-.813a28.282,28.282,0,0,1-3.207,11.473l2.992.812a22.416,22.416,0,0,1,4.236-13.406l-2.992-.812a43.064,43.064,0,0,1-3.034,12.646c-.773,1.931,2.319,2.741,3.1.857q1.91-4.632,3.82-9.262H3956a10.559,10.559,0,0,1-1.475,7.595l2.992.813a7.783,7.783,0,0,1,1.818-6.659l-2.741-1.138a25.315,25.315,0,0,1-3.845,12.727l2.992.813a21.078,21.078,0,0,1,2.745-12.61l-2.992-.813a19.261,19.261,0,0,1-2.831,12.912l2.992.813a13.863,13.863,0,0,1,3.531-10.292l-2.741-1.138a28.183,28.183,0,0,1-2.873,11.89l2.992.813a16.489,16.489,0,0,1,3-9.612l-2.935-.385a14.794,14.794,0,0,1-1.752,9.979l2.992.812a33.874,33.874,0,0,1,1.107-12.934l-3.1-.856a76.03,76.03,0,0,1-3.726,14.78l3.154.428A41.772,41.772,0,0,1,3959.23,238l-2.992-.812a22,22,0,0,1-2.414,9.587l2.992.812a23.272,23.272,0,0,1,3.371-9.624l-2.992-.812a51.045,51.045,0,0,1-1.289,10.473l3.155.428a50.235,50.235,0,0,1,2.067-10.027l-3.155-.428a46.517,46.517,0,0,1-1.855,10.121l3.154.428q.593-5.774,1.184-11.549l-3.153.429a22.442,22.442,0,0,1,.08,9.03l3.154.428a67.49,67.49,0,0,1,.267-9.84l-2.992.813a10.357,10.357,0,0,1,1.626,5.882l3.153-.428a15.078,15.078,0,0,1-.464-6.421l-2.992.812a8.2,8.2,0,0,1,1.012,5.883l2.992-.813a30.4,30.4,0,0,1-2.053-6.266l-2.684,1.566a6.02,6.02,0,0,1,1.962,5.092c0,1.3,1.813,2.243,2.741,1.138,2.053-2.444.851.922.745,2.211-.123,1.5,1.783,1.971,2.741,1.138l3.086-2.684-2.522-.325c1.488,3.049-1.959,7.187,1.922,9.324,4.512,2.483,17.639-7.841,20.184-1.56a1.632,1.632,0,0,0,2.935.384l7.2-9.508c1.093-1.443-1.374-3.371-2.522-1.951l-7.077,8.755,2.522,1.951,4.293-6.083c1.045-1.482-1.336-3.34-2.522-1.951l-3.463,4.058,2.521,1.951,2.276-3.19c1.1-1.539-1.238-3.147-2.521-1.951q-1.1,1.023-2.195,2.046l2.522,1.951,2.361-3.561c1.02-1.537-1.259-3.241-2.522-1.951q-3.1,3.165-6.2,6.333l2.521,1.951,5.485-7.271c1.09-1.445-1.362-3.36-2.521-1.951q-2.975,3.615-5.949,7.23l2.522,1.951c3.079-4.142,6.341-8.085,9.811-11.9,1.387-1.525-.792-3.743-2.27-2.277l-12.215,12.117,2.271,2.277,10.178-13.025c1-1.284-.357-3.749-1.945-2.529l-7.266,5.584,2.2,2.2q3.063-4.054,6.13-8.11c1.2-1.584-1.227-2.971-2.522-1.951q-3.006,2.368-6.015,4.737l2.271,2.277,4.317-5.067c1.111-1.3-.326-3.6-1.945-2.529l-3.76,2.492,2.359,1.818q.5-1.352.994-2.7c1.04-1.635-1.2-3.058-2.521-1.951l-5.658,4.727,2.521,1.951c2.544-3.357,5.245-6.548,8.106-9.636,1.19-1.283-.369-3.59-1.946-2.529l-7.552,5.083,2.2,2.2a41.657,41.657,0,0,1,5.274-7.144,1.609,1.609,0,0,0-2.271-2.277l-6.379,5.814,2.27,2.278,6.178-6.152c1.479-1.473-.735-3.644-2.27-2.278l-7.019,6.251c-1.549,1.38.727,3.643,2.271,2.277q2.94-2.6,5.881-5.2l-2.271-2.278c-3.536,4.435-9.441,6.109-13.913,9.563a1.61,1.61,0,0,0,1.621,2.781q7-3.466,14.1-6.713c1.674-.766.482-3.44-1.237-2.942-11.224,3.242-23.061,5.2-34.025,0-1.547-.735-3.379,1.211-1.946,2.529,9.38,8.624,22.137,7.156,32.421.972a1.61,1.61,0,0,0-1.621-2.781,29.727,29.727,0,0,1-29.847-.786c-1.662-1.005-3.033,1.18-1.946,2.529a19.969,19.969,0,0,0,11.362,7.357c3.57.837,2.805-.9.044-.1q.989.99,1.975,1.981.09-.575.179-1.149a1.607,1.607,0,0,0-3.1-.856q-.426,1.285-.852,2.571c-.534,1.612,1.566,2.58,2.684,1.566q1.357-1.233,2.716-2.463l-2.271-2.278-2.906,3.132c-1.4,1.515.8,3.744,2.271,2.278l1.507-1.5-2.27-2.277a24.224,24.224,0,0,0-4.913,9.052,1.62,1.62,0,0,0,1.975,1.981c1.779-.623,5.644-2.816,7.393-2.587,1.4.184.472-.1-.085,1.134-.172.384-1.033,1.433-1.193,1.72-.854,1.539,1.3,3.387,2.522,1.951q.929-1.088,1.86-2.176l-2.27-2.278-3.257,4.142c-1.245,1.583.777,3.793,2.271,2.277l5.287-5.366a1.609,1.609,0,0,0-2.271-2.278,12.862,12.862,0,0,1-4.122,2.922l2.2,2.2q2.579-3.411,5.155-6.822c1.1-1.457-1.307-3.293-2.521-1.951a123.819,123.819,0,0,1-11.271,10.976l2.522,1.951,9.229-12.27c1.1-1.464-1.3-3.279-2.522-1.95a90.206,90.206,0,0,1-11.322,10.416q1.1,1.1,2.2,2.2,2.407-4,4.812-8.01c.92-1.532-1.3-3.358-2.522-1.951l-8.352,9.654c-1.343,1.55.778,3.746,2.271,2.277q6.623-6.521,13.789-12.416l-2.521-1.951a112.6,112.6,0,0,1-10.74,13.616l2.271,2.277a119.531,119.531,0,0,1,11.9-13.076l-2.521-1.95a53.7,53.7,0,0,1-8.873,10.085l2.522,1.951c2.713-4.464,5.183-8.878,6.5-13.965.316-1.227-1.184-2.721-2.358-1.818l-14.116,10.832,2.2,2.2A77.24,77.24,0,0,1,3965.1,239.3l-2.521-1.951q-4.181,5.911-8.36,11.824c-1.07,1.512,1.266,3.23,2.521,1.951l11.81-12.018-2.271-2.278L3955.6,248.448a1.609,1.609,0,0,0,2.271,2.277l14.065-13.787-2.271-2.277-13.211,14.454c-1.392,1.523.79,3.74,2.27,2.277q6.375-6.305,12.75-12.611l-2.27-2.277q-6.14,6.722-12.277,13.444a1.608,1.608,0,0,0,2.27,2.277l16.983-15.135-2.27-2.278-13.194,14.73a1.609,1.609,0,0,0,2.271,2.277l14.266-13.093-2.271-2.277-13.153,14.464a1.609,1.609,0,0,0,2.271,2.278l18.149-16.756c1.525-1.408-.746-3.668-2.271-2.277-6.092,5.556-12.086,11.156-17.209,17.646a1.609,1.609,0,0,0,2.271,2.277c6.761-6.245,13.549-12.408,21.221-17.527q-.973-1.264-1.945-2.529a123.3,123.3,0,0,1-13.912,14.211l2.271,2.277a83.333,83.333,0,0,1,12.781-12.457l-2.522-1.951-10.852,14.65c-1.107,1.494,1.262,3.209,2.521,1.951,6.828-6.824,13.687-13.6,21.447-19.366l-1.946-2.529a250.5,250.5,0,0,1-20.98,20.595l2.271,2.277a152.838,152.838,0,0,1,18.595-17.833l-2.271-2.277a174.819,174.819,0,0,1-17.834,16.465l2.27,2.278a106.565,106.565,0,0,1,14.639-13.244l-1.946-2.529a128.279,128.279,0,0,1-12.326,12.781l2.271,2.277q7.191-7.78,14.884-15.052l-2.271-2.278-19.671,20.7c-1.424,1.5.826,3.767,2.271,2.277,7.419-7.644,14.883-15.231,23.54-21.486l-2.2-2.2a236.665,236.665,0,0,1-19.938,23.1l2.27,2.277,18.085-20.96a1.609,1.609,0,0,0-2.27-2.278l-17.945,17.146,2.27,2.277q10.383-11.827,21.458-23c1.469-1.483-.735-3.646-2.271-2.278l-27.718,24.695,2.271,2.277,16.643-19.438a1.609,1.609,0,0,0-2.27-2.277,144.055,144.055,0,0,0-19.447,18.693,1.608,1.608,0,0,0,2.27,2.277q9.08-8.572,17.322-17.943c1.132-1.288-.367-3.642-1.946-2.529a113.831,113.831,0,0,0-13.187,10.847l2.27,2.278a72.792,72.792,0,0,1,7.95-7.738l-2.271-2.278-.579.571c-1.494,1.466.723,3.619,2.27,2.277a61.063,61.063,0,0,1,8.936-6.428l-2.2-2.2A59.565,59.565,0,0,1,3978.088,243l2.271,2.277,15.325-13.968-2.271-2.277a234.285,234.285,0,0,1-18.382,16.593l2.271,2.277a122.923,122.923,0,0,1,12.424-12.372l-2.27-2.277a137.624,137.624,0,0,1-10.583,9.106l1.945,2.53q5.02-5.358,10.042-10.714c1.219-1.3-.346-3.511-1.946-2.529l-15.5,9.517,1.946,2.529a143.447,143.447,0,0,1,16.366-11.789,1.61,1.61,0,0,0-1.621-2.781l-21.568,11.8c-1.826,1-.217,3.7,1.622,2.781l21.25-10.6c1.884-.94.232-3.579-1.62-2.781-9.937,4.286-21.1,7.587-31.1,1.615-1.521-.908-3.389,1.344-1.945,2.529,10.178,8.365,28.611.286,36.04-8.285q-1.26-.976-2.521-1.951a27.063,27.063,0,0,1-17.675,10.562c-1.921.318-1.229,2.993.427,3.162,8.786.9,16.06-3.809,19.35-11.913l-3.154-.429c-.065,6-10.67,7.844-14.935,7.828-5.688-.022-10.962-1.992-15.969-4.54-1.365-.7-3.087.759-2.2,2.2,3.459,5.609,11.849,6.538,17.85,6.9,6.938.42,13.609-1.786,17.445-7.851l-1.813.74.829.272q-.355-1.345-.709-2.691c-6.527,7.579-25.187,7.134-29.614-2.676l-2.521,1.951c6.157,5.274,13.266,11.061,21.917,10.16,6.361-.663,11.108-5.237,12.966-11.2l-3.154-.428c-.589,6.857-9.717,7.767-14.6,6.943-5-.845-9.268-3.47-13.195-6.57-1.606-1.269-3.894.995-2.27,2.277Z" transform="translate(-3939.024 -221.157)" fill="#5cbee7"/>
      </g>
      <path id="Trazado_652004" data-name="Trazado 652004" d="M3928.192,321.8c-.023-.262-.046-.509-.058-.712V282.7h3.448a183.259,183.259,0,0,1,2.58-27.1,2.979,2.979,0,0,0-.049-1.738,2.8,2.8,0,0,0-.937-1,33.891,33.891,0,0,0-11.438-5.614c-.076,1.169-5.771-.164-5.983.98-.549,9.307-1.414,20.95-1.615,31.031-.176,8.911,2.021,16.389,3.889,25.089a37.476,37.476,0,0,0,9.956,20.105.863.863,0,0,0,.208-.432Z" transform="translate(-3877.61 -131.647)" fill="#ffaa9a"/>
      <path id="Trazado_652005" data-name="Trazado 652005" d="M3938.532,253.2a24.545,24.545,0,0,0-5.429-1.347q-.885-.141-1.778-.2c-1.8-.164-3.579-.205-5.237-.2-3.429.019-7.647.224-11.152,1.531a51.907,51.907,0,0,1,3.633-15.374,18.068,18.068,0,0,1,6.285-8.039A10.844,10.844,0,0,1,3935.1,228.5a11.037,11.037,0,0,1,5.763,8.129,25.825,25.825,0,0,1-.2,8.494C3940.02,247.838,3939.342,250.538,3938.532,253.2Z" transform="translate(-3877.65 -130.687)" fill="#ee4e5d"/>
      <path id="Trazado_652006" data-name="Trazado 652006" d="M3943.342,262.691c0,3.593,3.285,6.5,7.335,6.5s7.336-2.912,7.336-6.5-3.285-6.5-7.336-6.5S3943.342,259.1,3943.342,262.691Z" transform="translate(-3879.042 -132.085)" fill="#ee4e5d"/>
      <g id="Grupo_996417" data-name="Grupo 996417" transform="translate(52.573 89.93)">
        <path id="Trazado_652007" data-name="Trazado 652007" d="M3931.435,232.615a6.267,6.267,0,0,1,1.757-1.939c6.576-5.319,14.731-7.923,22.688-10.422,2.346,3.545,4.993,7.08,8.668,9.024a16.843,16.843,0,0,0,11.642,1.169,25.423,25.423,0,0,0,3.506-1.106l-6.687,3.523a37.686,37.686,0,0,0,9.669-4.869c1.5-.766,2.964-1.626,4.387-2.538l-3.607,1.9a15.528,15.528,0,0,0,2.059-2.151c1.623-2.074,3.206-4.918,5.763-4.8a6.153,6.153,0,0,1,1.931.523l12.318,4.821c.848.332,7.211,3.819,7.792,4.547.8,1-4.654-.7-4.671.608q-.064,4.866-.129,9.732c-.051,3.792-.237,7.959-2.695,10.742-1.777,2.011-4.4,2.883-6.742,4.1a47.25,47.25,0,0,0-5.187,3.288l-7.78,5.417a15.128,15.128,0,0,1-5.3,2.732,14.692,14.692,0,0,1-5.4-.214c-9.536-1.572-19.142-3.162-28.208-6.634-3.032-1.16-7.86-1.463-10.041-3.956-3.594-4.11-2.327-11.293-4.515-16.375C3931.666,237.446,3930.31,234.826,3931.435,232.615Z" transform="translate(-3931.01 -220.254)" fill="#ee4e5d"/>
        <path id="Trazado_652008" data-name="Trazado 652008" d="M3982.205,229.707l3.762-1.983q-.381.33-.78.637C3984.212,228.859,3983.218,229.31,3982.205,229.707Z" transform="translate(-3933.519 -220.62)" fill="#ee4e5d"/>
      </g>
      <path id="Trazado_652009" data-name="Trazado 652009" d="M3952.955,221.9a9.992,9.992,0,0,1,6.836-1.571c.054,1.5,1.151,2.73,2.187,3.818a16.948,16.948,0,0,0,2.218,2.069,11.787,11.787,0,0,0,4.586,1.888,19.485,19.485,0,0,0,17.355-5.13c1.3-1.289,2.682-2.884,4.513-2.837,1.871.049,3.2,1.813,4.046,3.48a7.6,7.6,0,0,1,.906,2.649,8.851,8.851,0,0,1-.37,2.921,5.957,5.957,0,0,1-4.715,5.05c-4.243,1.8-8.645,3.488-13.25,3.645a40.34,40.34,0,0,1-9.021-1.044,37.036,37.036,0,0,1-9.293-2.687,9.269,9.269,0,0,1-3.813-3.072,12.178,12.178,0,0,1-1.189-2.691q-.736-2.114-1.473-4.228Z" transform="translate(-3879.489 -130.319)" fill="#ee4e5d"/>
    </g>
  </g>
</svg>
