<svg xmlns="http://www.w3.org/2000/svg" width="69" height="69" viewBox="0 0 69 69">
  <g id="Grupo_1000297" data-name="Grupo 1000297" transform="translate(-286 -9318)">
    <g id="Elipse_5564" data-name="Elipse 5564" transform="translate(286 9318)" fill="none" stroke="#222b5a" stroke-width="1">
      <circle cx="34.5" cy="34.5" r="34.5" stroke="none"/>
      <circle cx="34.5" cy="34.5" r="34" fill="none"/>
    </g>
    <g id="XMLID_1_" transform="translate(296.502 9325.423)">
      <g id="XMLID_4316_" transform="translate(0.449 0.449)">
        <path id="XMLID_2242_" d="M131.311,5H112.984L104,13.984V50.1h27.311Z" transform="translate(-95.106 -5)" fill="#ebeadf"/>
        <path id="XMLID_2501_" d="M122.372,207h8.939v26.951H104v-20.2l13.97-.009a2.2,2.2,0,0,0,2.2-2.2V209.2A2.2,2.2,0,0,1,122.372,207Z" transform="translate(-95.106 -188.853)" fill="#c4c1ab"/>
        <g id="XMLID_2240_" transform="translate(21.471 4.043)">
          <path id="XMLID_2499_" d="M244,50h10.062v.9H244Z" transform="translate(-244 -50)" fill="#1f3f77"/>
        </g>
        <g id="XMLID_2239_" transform="translate(21.471 8.624)">
          <path id="XMLID_2498_" d="M244,101h10.062v.9H244Z" transform="translate(-244 -101)" fill="#1f3f77"/>
        </g>
        <g id="XMLID_2238_" transform="translate(13.565 13.116)">
          <path id="XMLID_2497_" d="M156,151h17.967v.9H156Z" transform="translate(-156 -151)" fill="#1f3f77"/>
        </g>
        <g id="XMLID_2237_" transform="translate(13.565 17.608)">
          <path id="XMLID_2496_" d="M156,201h17.967v.9H156Z" transform="translate(-156 -201)" fill="#1f3f77"/>
        </g>
        <g id="XMLID_2236_" transform="translate(13.565 22.19)">
          <path id="XMLID_2495_" d="M156,252h17.967v.9H156Z" transform="translate(-156 -252)" fill="#1f3f77"/>
        </g>
        <g id="XMLID_2230_" transform="translate(0 27.131)">
          <path id="XMLID_2235_" d="M5,307H36.8v17.967H5Z" transform="translate(-5 -307)" fill="#179587"/>
          <path id="XMLID_1723_" d="M153.828,355a6.828,6.828,0,0,0,0,13.655h12.218V355Z" transform="translate(-134.243 -350.688)" fill="#2b6e37"/>
          <path id="XMLID_2234_" d="M55.065,332H32.246A2.247,2.247,0,0,1,30,334.246v8.984a2.247,2.247,0,0,1,2.246,2.246H55.065a2.247,2.247,0,0,1,2.246-2.246v-8.984A2.247,2.247,0,0,1,55.065,332Z" transform="translate(-27.754 -329.754)" fill="#179587"/>
          <ellipse id="XMLID_2233_" cx="4.468" cy="4.468" rx="4.468" ry="4.468" transform="translate(11.478 4.628)" fill="#179587"/>
          <g id="XMLID_2232_" transform="translate(5.121 8.535)">
            <path id="XMLID_1061_" d="M62,402h3.593v.9H62Z" transform="translate(-62 -402)" fill="#3a944a"/>
          </g>
          <g id="XMLID_2231_" transform="translate(23.088 8.535)">
            <path id="XMLID_1044_" d="M262,402h3.594v.9H262Z" transform="translate(-262 -402)" fill="#a38c31"/>
          </g>
          <path id="XMLID_2502_" d="M309,307h4.492v17.967H309Z" transform="translate(-281.689 -307)" fill="#179587"/>
          <path id="XMLID_2505_" d="M311.246,343.23v-8.984A2.247,2.247,0,0,1,309,332v13.476A2.247,2.247,0,0,1,311.246,343.23Z" transform="translate(-281.689 -329.754)" fill="#3a944a"/>
          <path id="XMLID_2006_" d="M156.882,355h-3.054A6.825,6.825,0,0,0,147,361.828a6.692,6.692,0,0,0,1.77,4.582h12.784a2.245,2.245,0,0,1,1.725-2.183,6.837,6.837,0,0,0-6.4-9.226Z" transform="translate(-134.243 -350.688)" fill="#179587"/>
          <path id="XMLID_1040_" d="M154.636,363.676a4.5,4.5,0,0,0-3.108-4.276,6.811,6.811,0,0,0-4.429,7.573,4.443,4.443,0,0,0,3.045,1.195A4.494,4.494,0,0,0,154.636,363.676Z" transform="translate(-134.243 -354.692)" fill="#179587"/>
        </g>
        <g id="XMLID_2282_" transform="translate(15.093 31.386)">
          <path id="XMLID_2290_" d="M179.828,355h3.054a6.828,6.828,0,0,1,0,13.655h-3.054a6.828,6.828,0,1,1,0-13.655Z" transform="translate(-173 -354.943)" fill="#eda900"/>
          <g id="Grupo_881691" data-name="Grupo 881691" transform="translate(0 0.057)">
            <path id="XMLID_2415_" d="M188.5,375.9h6.962V375h-6.145A5.264,5.264,0,0,0,188.5,375.9Z" transform="translate(-187.108 -373.203)" fill="#f8d707"/>
            <path id="XMLID_2425_" d="M229.824,355.449a7.272,7.272,0,0,0-2.435-.449h-3.054a7.231,7.231,0,0,0-2.435.449Z" transform="translate(-217.507 -355)" fill="#f8d707"/>
            <path id="XMLID_1192_" d="M221.9,502a7.269,7.269,0,0,0,2.435.449h3.054a7.228,7.228,0,0,0,2.435-.449Z" transform="translate(-217.507 -488.794)" fill="#f8d707"/>
            <path id="XMLID_2289_" d="M175.7,401.9h5.148V401h-4.833A7.134,7.134,0,0,0,175.7,401.9Z" transform="translate(-175.457 -396.867)" fill="#f8d707"/>
            <path id="XMLID_2288_" d="M173,426.449c0,.153.009.27.018.449h4.743V426h-4.743C173.009,426.18,173,426.3,173,426.449Z" transform="translate(-173 -419.622)" fill="#f8d707"/>
            <path id="XMLID_2287_" d="M176.014,451.9h4.833V451H175.7A7.134,7.134,0,0,0,176.014,451.9Z" transform="translate(-175.457 -442.376)" fill="#f8d707"/>
            <path id="XMLID_2286_" d="M189.318,477.9h6.145V477H188.5A5.262,5.262,0,0,0,189.318,477.9Z" transform="translate(-187.108 -466.04)" fill="#f8d707"/>
          </g>
          <path id="XMLID_2390_" d="M203.816,355h-.988a6.828,6.828,0,1,0,0,13.655h.988a6.828,6.828,0,0,0,0-13.655Z" transform="translate(-193.934 -354.943)" fill="#fffa5a"/>
          <ellipse id="XMLID_2292_" cx="6.795" cy="6.888" rx="6.795" ry="6.888" transform="translate(3.088 0)" fill="#f1b62b"/>
          <ellipse id="XMLID_2291_" cx="4.561" cy="4.468" rx="4.561" ry="4.468" transform="translate(5.322 2.42)" fill="#eda900"/>
          <ellipse id="XMLID_2440_" cx="4.561" cy="4.468" rx="4.561" ry="4.468" transform="translate(5.322 2.42)" fill="#eda900"/>
          <path id="XMLID_2445_" d="M277.994,381a4.437,4.437,0,0,0-.494.027,4.492,4.492,0,0,1,0,8.93,4.422,4.422,0,0,0,.494.027,4.492,4.492,0,1,0,0-8.984Z" transform="translate(-268.112 -378.607)" fill="#fffa5a"/>
          <g id="XMLID_2284_" transform="translate(7.636 4.639)">
            <path id="XMLID_1191_" d="M261.144,410.492h-2.7v-.9h2.7a.449.449,0,0,0,0-.9h-1.8a1.348,1.348,0,0,1,0-2.7h2.7v.9h-2.7a.449.449,0,0,0,0,.9h1.8a1.348,1.348,0,0,1,0,2.7Z" transform="translate(-258 -406)" fill="#fffa5a"/>
          </g>
          <g id="XMLID_2283_" transform="translate(9.433 3.74)">
            <path id="XMLID_1069_" d="M278,396h.9v6.289H278Z" transform="translate(-278 -396)" fill="#fffa5a"/>
          </g>
        </g>
        <g id="XMLID_2243_" transform="translate(27.311 18.147)">
          <path id="XMLID_2281_" d="M359.9,457h11.5a.9.9,0,0,1,.9.9v2.7a.9.9,0,0,1-.9.9H359.9a.9.9,0,0,1-.9-.9v-2.7A.9.9,0,0,1,359.9,457Z" transform="translate(-354.508 -434.541)" fill="#f1b62b"/>
          <path id="XMLID_2413_" d="M359.9,457h11.5a.9.9,0,0,1,.9.9v.449a.9.9,0,0,1-.9.9H359.9a.9.9,0,0,1-.9-.9V457.9A.9.9,0,0,1,359.9,457Z" transform="translate(-354.508 -434.541)" fill="#f1b62b"/>
          <path id="XMLID_2278_" d="M359.9,407h11.5a.9.9,0,0,1,.9.9v2.7a.9.9,0,0,1-.9.9H359.9a.9.9,0,0,1-.9-.9v-2.7A.9.9,0,0,1,359.9,407Z" transform="translate(-354.508 -389.033)" fill="#f1b62b"/>
          <path id="XMLID_2411_" d="M359.9,407h11.5a.9.9,0,0,1,.9.9v.449a.9.9,0,0,1-.9.9H359.9a.9.9,0,0,1-.9-.9V407.9A.9.9,0,0,1,359.9,407Z" transform="translate(-354.508 -389.033)" fill="#f1b62b"/>
          <path id="XMLID_2277_" d="M359.9,357h11.5a.9.9,0,0,1,.9.9v2.7a.9.9,0,0,1-.9.9H359.9a.9.9,0,0,1-.9-.9v-2.7A.9.9,0,0,1,359.9,357Z" transform="translate(-354.508 -343.524)" fill="#f1b62b"/>
          <path id="XMLID_2410_" d="M359.9,357h11.5a.9.9,0,0,1,.9.9v.449a.9.9,0,0,1-.9.9H359.9a.9.9,0,0,1-.9-.9V357.9A.9.9,0,0,1,359.9,357Z" transform="translate(-354.508 -343.524)" fill="#f1b62b"/>
          <path id="XMLID_2276_" d="M334.9,307.1h11.5a.9.9,0,0,1,.9.9v2.7a.9.9,0,0,1-.9.9H334.9a.9.9,0,0,1-.9-.9V308A.9.9,0,0,1,334.9,307.1Z" transform="translate(-331.754 -298.107)" fill="#f1b62b"/>
          <path id="XMLID_2409_" d="M334.9,307.1h11.5a.9.9,0,0,1,.9.9v.449a.9.9,0,0,1-.9.9H334.9a.9.9,0,0,1-.9-.9V308A.9.9,0,0,1,334.9,307.1Z" transform="translate(-331.754 -298.107)" fill="#f1b62b"/>
          <path id="XMLID_2275_" d="M309.9,257.1h11.5a.9.9,0,0,1,.9.9v2.7a.9.9,0,0,1-.9.9H309.9a.9.9,0,0,1-.9-.9V258A.9.9,0,0,1,309.9,257.1Z" transform="translate(-309 -252.599)" fill="#f1b62b"/>
          <path id="XMLID_2408_" d="M309.9,257.1h11.5a.9.9,0,0,1,.9.9v.449a.9.9,0,0,1-.9.9H309.9a.9.9,0,0,1-.9-.9V258A.9.9,0,0,1,309.9,257.1Z" transform="translate(-309 -252.599)" fill="#f1b62b"/>
          <path id="XMLID_2274_" d="M334.9,207.1h11.5a.9.9,0,0,1,.9.9v2.7a.9.9,0,0,1-.9.9H334.9a.9.9,0,0,1-.9-.9V208A.9.9,0,0,1,334.9,207.1Z" transform="translate(-331.754 -207.091)" fill="#f1b62b"/>
          <path id="XMLID_1042_" d="M334.9,207.1h11.5a.9.9,0,0,1,.9.9v.449a.9.9,0,0,1-.9.9H334.9a.9.9,0,0,1-.9-.9V208A.9.9,0,0,1,334.9,207.1Z" transform="translate(-331.754 -207.091)" fill="#f1b62b"/>
          <g id="XMLID_2273_" transform="translate(4.043)">
            <path id="XMLID_2407_" d="M354,207h.9v4.492H354Z" transform="translate(-354 -207)" fill="#f1b62b"/>
          </g>
          <g id="XMLID_2272_" transform="translate(2.246 4.492)">
            <path id="XMLID_2404_" d="M334,257h.9v4.492H334Z" transform="translate(-334 -257)" fill="#f1b62b"/>
          </g>
          <g id="XMLID_2271_" transform="translate(4.851 4.492)">
            <path id="XMLID_2402_" d="M363,257h.9v4.492H363Z" transform="translate(-363 -257)" fill="#f1b62b"/>
          </g>
          <g id="XMLID_2270_" transform="translate(7.546 4.492)">
            <path id="XMLID_2401_" d="M393,257h.9v4.492H393Z" transform="translate(-393 -257)" fill="#f1b62b"/>
          </g>
          <g id="XMLID_2269_" transform="translate(10.152 4.492)">
            <path id="XMLID_2398_" d="M422,257h.9v4.492H422Z" transform="translate(-422 -257)" fill="#f1b62b"/>
          </g>
          <g id="XMLID_2268_" transform="translate(6.738 13.476)">
            <path id="XMLID_2396_" d="M384,357h.9v4.492H384Z" transform="translate(-384 -357)" fill="#f1b62b"/>
          </g>
          <g id="XMLID_2267_" transform="translate(9.343 13.476)">
            <path id="XMLID_2394_" d="M413,357h.9v4.492H413Z" transform="translate(-413 -357)" fill="#f1b62b"/>
          </g>
          <g id="XMLID_2263_" transform="translate(12.038 13.476)">
            <path id="XMLID_2393_" d="M443,357h.9v4.492H443Z" transform="translate(-443 -357)" fill="#f1b62b"/>
          </g>
          <g id="XMLID_2262_" transform="translate(14.643 13.476)">
            <path id="XMLID_2392_" d="M472,357h.9v4.492H472Z" transform="translate(-472 -357)" fill="#f1b62b"/>
          </g>
          <g id="XMLID_2261_" transform="translate(6.738 22.459)">
            <path id="XMLID_2388_" d="M384,457h.9v4.492H384Z" transform="translate(-384 -457)" fill="#f1b62b"/>
          </g>
          <g id="XMLID_2260_" transform="translate(9.343 22.459)">
            <path id="XMLID_2387_" d="M413,457h.9v4.492H413Z" transform="translate(-413 -457)" fill="#f1b62b"/>
          </g>
          <g id="XMLID_2259_" transform="translate(12.038 22.459)">
            <path id="XMLID_2135_" d="M443,457h.9v4.492H443Z" transform="translate(-443 -457)" fill="#f1b62b"/>
          </g>
          <g id="XMLID_2258_" transform="translate(14.643 22.459)">
            <path id="XMLID_2133_" d="M472,457h.9v4.492H472Z" transform="translate(-472 -457)" fill="#f1b62b"/>
          </g>
          <g id="XMLID_2257_" transform="translate(6.199)">
            <path id="XMLID_1699_" d="M378,207h.9v4.492H378Z" transform="translate(-378 -207)" fill="#f1b62b"/>
          </g>
          <g id="XMLID_2256_" transform="translate(8.445)">
            <path id="XMLID_1698_" d="M403,207h.9v4.492H403Z" transform="translate(-403 -207)" fill="#f1b62b"/>
          </g>
          <g id="XMLID_2255_" transform="translate(10.691)">
            <path id="XMLID_1697_" d="M428,207h.9v4.492H428Z" transform="translate(-428 -207)" fill="#f1b62b"/>
          </g>
          <g id="XMLID_2254_" transform="translate(12.847)">
            <path id="XMLID_1696_" d="M452,207h.9v4.492H452Z" transform="translate(-452 -207)" fill="#f1b62b"/>
          </g>
          <g id="XMLID_2253_" transform="translate(4.043 8.984)">
            <path id="XMLID_1695_" d="M354,307h.9v4.492H354Z" transform="translate(-354 -307)" fill="#f1b62b"/>
          </g>
          <g id="XMLID_2252_" transform="translate(6.199 8.984)">
            <path id="XMLID_1694_" d="M378,307h.9v4.492H378Z" transform="translate(-378 -307)" fill="#f1b62b"/>
          </g>
          <g id="XMLID_2251_" transform="translate(8.445 8.984)">
            <path id="XMLID_1693_" d="M403,307h.9v4.492H403Z" transform="translate(-403 -307)" fill="#f1b62b"/>
          </g>
          <g id="XMLID_2250_" transform="translate(10.691 8.984)">
            <path id="XMLID_1692_" d="M428,307h.9v4.492H428Z" transform="translate(-428 -307)" fill="#f1b62b"/>
          </g>
          <g id="XMLID_2249_" transform="translate(12.847 8.984)">
            <path id="XMLID_1691_" d="M452,307h.9v4.492H452Z" transform="translate(-452 -307)" fill="#f1b62b"/>
          </g>
          <g id="XMLID_2248_" transform="translate(6.289 17.967)">
            <path id="XMLID_1690_" d="M379,407h.9v4.492H379Z" transform="translate(-379 -407)" fill="#f1b62b"/>
          </g>
          <g id="XMLID_2247_" transform="translate(8.445 17.967)">
            <path id="XMLID_1689_" d="M403,407h.9v4.492H403Z" transform="translate(-403 -407)" fill="#f1b62b"/>
          </g>
          <g id="XMLID_2246_" transform="translate(10.691 17.967)">
            <path id="XMLID_1197_" d="M428,407h.9v4.492H428Z" transform="translate(-428 -407)" fill="#f1b62b"/>
          </g>
          <g id="XMLID_2245_" transform="translate(12.937 17.967)">
            <path id="XMLID_1194_" d="M453,407h.9v4.492H453Z" transform="translate(-453 -407)" fill="#f1b62b"/>
          </g>
          <g id="XMLID_2244_" transform="translate(15.093 17.967)">
            <path id="XMLID_1193_" d="M477,407h.9v4.492H477Z" transform="translate(-477 -407)" fill="#f1b62b"/>
          </g>
        </g>
        <path id="XMLID_2494_" d="M115.751,16.751H104V13.984L112.984,5h2.767Z" transform="translate(-95.106 -5)" fill="#c4c1ab"/>
        <path id="XMLID_2241_" d="M112.984,13.984H104L112.984,5Z" transform="translate(-95.106 -5)" fill="#ebeadf"/>
      </g>
      <g id="XMLID_3985_" transform="translate(0)">
        <g id="XMLID_454_" transform="translate(15.093 31.443)">
          <g id="XMLID_464_" transform="translate(3.054)">
            <path id="XMLID_3866_" d="M209.277,364.554a7.277,7.277,0,1,1,7.277-7.277A7.281,7.281,0,0,1,209.277,364.554Zm0-13.655a6.378,6.378,0,1,0,6.378,6.378A6.391,6.391,0,0,0,209.277,350.9Z" transform="translate(-202 -350)" fill="#060d1a"/>
          </g>
          <g id="XMLID_463_" transform="translate(5.39 2.336)">
            <path id="XMLID_3863_" d="M232.941,385.882a4.941,4.941,0,1,1,4.941-4.941A4.95,4.95,0,0,1,232.941,385.882Zm0-8.984a4.043,4.043,0,1,0,4.043,4.043A4.049,4.049,0,0,0,232.941,376.9Z" transform="translate(-228 -376)" fill="#060d1a"/>
          </g>
          <g id="XMLID_462_">
            <path id="XMLID_3860_" d="M178.331,364.554h-3.054a7.277,7.277,0,1,1,0-14.554h3.054a7.277,7.277,0,1,1,0,14.554ZM175.277,350.9a6.378,6.378,0,1,0,0,12.757h3.054a6.378,6.378,0,1,0,0-12.757Z" transform="translate(-168 -350)" fill="#060d1a"/>
          </g>
          <g id="XMLID_461_" transform="translate(2.246 2.246)">
            <path id="XMLID_3859_" d="M193,375h3.054v.9H193Z" transform="translate(-193 -375)" fill="#060d1a"/>
          </g>
          <g id="XMLID_460_" transform="translate(0.809 4.582)">
            <path id="XMLID_3858_" d="M177,401h3.054v.9H177Z" transform="translate(-177 -401)" fill="#060d1a"/>
          </g>
          <g id="XMLID_459_" transform="translate(0.449 6.828)">
            <path id="XMLID_3857_" d="M173,426h3.054v.9H173Z" transform="translate(-173 -426)" fill="#060d1a"/>
          </g>
          <g id="XMLID_458_" transform="translate(0.809 9.074)">
            <path id="XMLID_3856_" d="M177,451h3.054v.9H177Z" transform="translate(-177 -451)" fill="#060d1a"/>
          </g>
          <g id="XMLID_457_" transform="translate(2.246 11.409)">
            <path id="XMLID_3855_" d="M193,477h3.054v.9H193Z" transform="translate(-193 -477)" fill="#060d1a"/>
          </g>
          <g id="XMLID_456_" transform="translate(8.085 5.031)">
            <path id="XMLID_3854_" d="M261.144,410.492h-2.7v-.9h2.7a.449.449,0,0,0,0-.9h-1.8a1.348,1.348,0,0,1,0-2.7h2.7v.9h-2.7a.449.449,0,0,0,0,.9h1.8a1.348,1.348,0,0,1,0,2.7Z" transform="translate(-258 -406)" fill="#060d1a"/>
          </g>
          <g id="XMLID_455_" transform="translate(9.882 4.133)">
            <path id="XMLID_3853_" d="M278,396h.9v6.289H278Z" transform="translate(-278 -396)" fill="#060d1a"/>
          </g>
        </g>
        <g id="XMLID_11_" transform="translate(27.311 18.156)">
          <g id="XMLID_15_" transform="translate(4.492 22.45)">
            <path id="XMLID_3850_" d="M366.847,457.39h-11.5A1.346,1.346,0,0,1,354,456.043v-2.7A1.346,1.346,0,0,1,355.348,452h11.5a1.346,1.346,0,0,1,1.348,1.348v2.7A1.346,1.346,0,0,1,366.847,457.39Zm-11.5-4.492a.445.445,0,0,0-.449.449v2.7a.445.445,0,0,0,.449.449h11.5a.445.445,0,0,0,.449-.449v-2.7a.445.445,0,0,0-.449-.449Z" transform="translate(-354 -452)" fill="#060d1a"/>
          </g>
          <g id="XMLID_18_" transform="translate(4.492 17.958)">
            <path id="XMLID_3847_" d="M366.847,407.39h-11.5A1.346,1.346,0,0,1,354,406.043v-2.7A1.346,1.346,0,0,1,355.348,402h11.5a1.346,1.346,0,0,1,1.348,1.348v2.7A1.346,1.346,0,0,1,366.847,407.39Zm-11.5-4.492a.445.445,0,0,0-.449.449v2.7a.445.445,0,0,0,.449.449h11.5a.445.445,0,0,0,.449-.449v-2.7a.445.445,0,0,0-.449-.449Z" transform="translate(-354 -402)" fill="#060d1a"/>
          </g>
          <g id="XMLID_19_" transform="translate(4.492 13.467)">
            <path id="XMLID_3844_" d="M366.847,357.39h-11.5A1.346,1.346,0,0,1,354,356.043v-2.7A1.346,1.346,0,0,1,355.348,352h11.5a1.346,1.346,0,0,1,1.348,1.348v2.7A1.346,1.346,0,0,1,366.847,357.39Zm-11.5-4.492a.445.445,0,0,0-.449.449v2.7a.445.445,0,0,0,.449.449h11.5a.445.445,0,0,0,.449-.449v-2.7a.445.445,0,0,0-.449-.449Z" transform="translate(-354 -352)" fill="#060d1a"/>
          </g>
          <g id="XMLID_20_" transform="translate(2.246 8.984)">
            <path id="XMLID_3841_" d="M341.847,307.49h-11.5A1.346,1.346,0,0,1,329,306.143v-2.7a1.346,1.346,0,0,1,1.348-1.348h11.5a1.346,1.346,0,0,1,1.347,1.348v2.7A1.351,1.351,0,0,1,341.847,307.49ZM330.348,303a.445.445,0,0,0-.449.449v2.7a.445.445,0,0,0,.449.449h11.5a.445.445,0,0,0,.449-.449v-2.7a.445.445,0,0,0-.449-.449Z" transform="translate(-329 -302.1)" fill="#060d1a"/>
          </g>
          <g id="XMLID_21_" transform="translate(0 4.492)">
            <path id="XMLID_3838_" d="M316.847,257.49h-11.5A1.346,1.346,0,0,1,304,256.143v-2.7a1.346,1.346,0,0,1,1.348-1.348h11.5a1.346,1.346,0,0,1,1.348,1.348v2.7A1.352,1.352,0,0,1,316.847,257.49ZM305.348,253a.445.445,0,0,0-.449.449v2.7a.445.445,0,0,0,.449.449h11.5a.445.445,0,0,0,.449-.449v-2.7a.445.445,0,0,0-.449-.449Z" transform="translate(-304 -252.1)" fill="#060d1a"/>
          </g>
          <g id="XMLID_22_" transform="translate(2.246)">
            <path id="XMLID_3835_" d="M341.847,207.49h-11.5A1.346,1.346,0,0,1,329,206.143v-2.7a1.346,1.346,0,0,1,1.348-1.348h11.5a1.346,1.346,0,0,1,1.347,1.348v2.7A1.346,1.346,0,0,1,341.847,207.49ZM330.348,203a.445.445,0,0,0-.449.449v2.7a.445.445,0,0,0,.449.449h11.5a.445.445,0,0,0,.449-.449v-2.7a.445.445,0,0,0-.449-.449Z" transform="translate(-329 -202.1)" fill="#060d1a"/>
          </g>
          <g id="XMLID_354_" transform="translate(4.492 0.44)">
            <path id="XMLID_3834_" d="M354,207h.9v4.492H354Z" transform="translate(-354 -207)" fill="#060d1a"/>
          </g>
          <g id="XMLID_373_" transform="translate(2.695 4.932)">
            <path id="XMLID_3833_" d="M334,257h.9v4.492H334Z" transform="translate(-334 -257)" fill="#060d1a"/>
          </g>
          <g id="XMLID_374_" transform="translate(5.3 4.932)">
            <path id="XMLID_3832_" d="M363,257h.9v4.492H363Z" transform="translate(-363 -257)" fill="#060d1a"/>
          </g>
          <g id="XMLID_375_" transform="translate(7.996 4.932)">
            <path id="XMLID_3831_" d="M393,257h.9v4.492H393Z" transform="translate(-393 -257)" fill="#060d1a"/>
          </g>
          <g id="XMLID_376_" transform="translate(10.601 4.932)">
            <path id="XMLID_3830_" d="M422,257h.9v4.492H422Z" transform="translate(-422 -257)" fill="#060d1a"/>
          </g>
          <g id="XMLID_379_" transform="translate(7.187 13.916)">
            <path id="XMLID_3829_" d="M384,357h.9v4.492H384Z" transform="translate(-384 -357)" fill="#060d1a"/>
          </g>
          <g id="XMLID_378_" transform="translate(9.792 13.916)">
            <path id="XMLID_3828_" d="M413,357h.9v4.492H413Z" transform="translate(-413 -357)" fill="#060d1a"/>
          </g>
          <g id="XMLID_377_" transform="translate(12.487 13.916)">
            <path id="XMLID_3827_" d="M443,357h.9v4.492H443Z" transform="translate(-443 -357)" fill="#060d1a"/>
          </g>
          <g id="XMLID_372_" transform="translate(15.093 13.916)">
            <path id="XMLID_3826_" d="M472,357h.9v4.492H472Z" transform="translate(-472 -357)" fill="#060d1a"/>
          </g>
          <g id="XMLID_383_" transform="translate(7.187 22.899)">
            <path id="XMLID_3825_" d="M384,457h.9v4.492H384Z" transform="translate(-384 -457)" fill="#060d1a"/>
          </g>
          <g id="XMLID_382_" transform="translate(9.792 22.899)">
            <path id="XMLID_3824_" d="M413,457h.9v4.492H413Z" transform="translate(-413 -457)" fill="#060d1a"/>
          </g>
          <g id="XMLID_381_" transform="translate(12.487 22.899)">
            <path id="XMLID_3823_" d="M443,457h.9v4.492H443Z" transform="translate(-443 -457)" fill="#060d1a"/>
          </g>
          <g id="XMLID_380_" transform="translate(15.093 22.899)">
            <path id="XMLID_3822_" d="M472,457h.9v4.492H472Z" transform="translate(-472 -457)" fill="#060d1a"/>
          </g>
          <g id="XMLID_355_" transform="translate(6.648 0.44)">
            <path id="XMLID_3821_" d="M378,207h.9v4.492H378Z" transform="translate(-378 -207)" fill="#060d1a"/>
          </g>
          <g id="XMLID_356_" transform="translate(8.894 0.44)">
            <path id="XMLID_3820_" d="M403,207h.9v4.492H403Z" transform="translate(-403 -207)" fill="#060d1a"/>
          </g>
          <g id="XMLID_357_" transform="translate(11.14 0.44)">
            <path id="XMLID_3819_" d="M428,207h.9v4.492H428Z" transform="translate(-428 -207)" fill="#060d1a"/>
          </g>
          <g id="XMLID_358_" transform="translate(13.296 0.44)">
            <path id="XMLID_3818_" d="M452,207h.9v4.492H452Z" transform="translate(-452 -207)" fill="#060d1a"/>
          </g>
          <g id="XMLID_362_" transform="translate(4.492 9.424)">
            <path id="XMLID_3817_" d="M354,307h.9v4.492H354Z" transform="translate(-354 -307)" fill="#060d1a"/>
          </g>
          <g id="XMLID_361_" transform="translate(6.648 9.424)">
            <path id="XMLID_3816_" d="M378,307h.9v4.492H378Z" transform="translate(-378 -307)" fill="#060d1a"/>
          </g>
          <g id="XMLID_360_" transform="translate(8.894 9.424)">
            <path id="XMLID_3815_" d="M403,307h.9v4.492H403Z" transform="translate(-403 -307)" fill="#060d1a"/>
          </g>
          <g id="XMLID_359_" transform="translate(11.14 9.424)">
            <path id="XMLID_3814_" d="M428,307h.9v4.492H428Z" transform="translate(-428 -307)" fill="#060d1a"/>
          </g>
          <g id="XMLID_23_" transform="translate(13.296 9.424)">
            <path id="XMLID_3813_" d="M452,307h.9v4.492H452Z" transform="translate(-452 -307)" fill="#060d1a"/>
          </g>
          <g id="XMLID_371_" transform="translate(6.738 18.408)">
            <path id="XMLID_3812_" d="M379,407h.9v4.492H379Z" transform="translate(-379 -407)" fill="#060d1a"/>
          </g>
          <g id="XMLID_370_" transform="translate(8.894 18.408)">
            <path id="XMLID_3811_" d="M403,407h.9v4.492H403Z" transform="translate(-403 -407)" fill="#060d1a"/>
          </g>
          <g id="XMLID_369_" transform="translate(11.14 18.408)">
            <path id="XMLID_3810_" d="M428,407h.9v4.492H428Z" transform="translate(-428 -407)" fill="#060d1a"/>
          </g>
          <g id="XMLID_367_" transform="translate(13.386 18.408)">
            <path id="XMLID_3809_" d="M453,407h.9v4.492H453Z" transform="translate(-453 -407)" fill="#060d1a"/>
          </g>
          <g id="XMLID_363_" transform="translate(15.542 18.408)">
            <path id="XMLID_3808_" d="M477,407h.9v4.492H477Z" transform="translate(-477 -407)" fill="#060d1a"/>
          </g>
        </g>
        <g id="XMLID_2400_" transform="translate(8.894)">
          <path id="XMLID_3807_" d="M99.9,27.58H99V9.433a.421.421,0,0,1,.135-.314L108.118.135A.457.457,0,0,1,108.433,0H126.76a.445.445,0,0,1,.449.449V16.809h-.9V.9H108.622L99.9,9.622Z" transform="translate(-99)" fill="#060d1a"/>
        </g>
        <g id="XMLID_386_" transform="translate(8.896 0.002)">
          <path id="XMLID_3804_" d="M108.449,9.9H99.466a.448.448,0,0,1-.413-.278.441.441,0,0,1,.1-.485L108.135.151a.447.447,0,0,1,.764.314V9.449A.445.445,0,0,1,108.449,9.9Zm-7.9-.9H108V1.553Z" transform="translate(-99.018 -0.018)" fill="#060d1a"/>
        </g>
        <g id="XMLID_389_" transform="translate(21.92 4.492)">
          <path id="XMLID_3803_" d="M244,50h10.062v.9H244Z" transform="translate(-244 -50)" fill="#060d1a"/>
        </g>
        <g id="XMLID_390_" transform="translate(21.92 9.074)">
          <path id="XMLID_3802_" d="M244,101h10.062v.9H244Z" transform="translate(-244 -101)" fill="#060d1a"/>
        </g>
        <g id="XMLID_391_" transform="translate(14.015 13.565)">
          <path id="XMLID_3801_" d="M156,151h17.967v.9H156Z" transform="translate(-156 -151)" fill="#060d1a"/>
        </g>
        <g id="XMLID_392_" transform="translate(14.015 18.057)">
          <path id="XMLID_3800_" d="M156,201h17.967v.9H156Z" transform="translate(-156 -201)" fill="#060d1a"/>
        </g>
        <g id="XMLID_393_" transform="translate(14.015 22.639)">
          <path id="XMLID_3799_" d="M156,252h17.967v.9H156Z" transform="translate(-156 -252)" fill="#060d1a"/>
        </g>
        <g id="XMLID_479_" transform="translate(0 27.131)">
          <g id="XMLID_2436_">
            <path id="XMLID_2878_" d="M34.947,320.866H.449A.445.445,0,0,1,0,320.417V302.449A.445.445,0,0,1,.449,302H25.963v.9H.9v17.069H34.947Z" transform="translate(0 -302)" fill="#060d1a"/>
          </g>
          <g id="XMLID_387_" transform="translate(2.246 2.246)">
            <path id="XMLID_2877_" d="M40.093,341.374H27.7a.445.445,0,0,1-.449-.449,1.8,1.8,0,0,0-1.8-1.8.445.445,0,0,1-.449-.449V329.7a.445.445,0,0,1,.449-.449,1.8,1.8,0,0,0,1.8-1.8A.445.445,0,0,1,27.7,327H50.514a.445.445,0,0,1,.449.449,1.8,1.8,0,0,0,1.8,1.8.445.445,0,0,1,.449.449v1.59h-.9v-1.177a2.7,2.7,0,0,1-2.21-2.21H28.108a2.7,2.7,0,0,1-2.21,2.21v8.157a2.7,2.7,0,0,1,2.21,2.21H40.093Z" transform="translate(-25 -327)" fill="#060d1a"/>
          </g>
          <g id="XMLID_385_" transform="translate(11.409 4.492)">
            <path id="XMLID_2876_" d="M131.438,361.855a4.94,4.94,0,1,1,3.279-9l-.5.746a4.043,4.043,0,1,0-2.686,7.367Z" transform="translate(-127 -352)" fill="#060d1a"/>
          </g>
          <g id="XMLID_412_" transform="translate(5.57 8.984)">
            <path id="XMLID_2875_" d="M62,402h3.593v.9H62Z" transform="translate(-62 -402)" fill="#060d1a"/>
          </g>
        </g>
      </g>
    </g>
  </g>
</svg>
