<svg xmlns="http://www.w3.org/2000/svg" width="69" height="69" viewBox="0 0 69 69">
  <g id="Grupo_1000282" data-name="Grupo 1000282" transform="translate(-286 -7919)">
    <g id="Elipse_5551" data-name="Elipse 5551" transform="translate(286 7919)" fill="none" stroke="#222b5a" stroke-width="1">
      <circle cx="34.5" cy="34.5" r="34.5" stroke="none"/>
      <circle cx="34.5" cy="34.5" r="34" fill="none"/>
    </g>
    <g id="Grupo_994720" data-name="Grupo 994720" transform="translate(389.399 7796.952)">
      <g id="Grupo_994723" data-name="Grupo 994723" transform="translate(-85.726 134.331)">
        <path id="Trazado_650761" data-name="Trazado 650761" d="M-76.886,137.616l-2.491.448-2.483.493c.516,2.728-4.748,5.377-3.737,11.979a.42.42,0,0,0,.493.344l7.87-1.489,7.87-1.489a.42.42,0,0,0,.333-.5C-70.5,140.886-76.369,140.344-76.886,137.616Z" transform="translate(85.726 -135.565)" fill="#fff" stroke="#060606" stroke-width="0.7" opacity="0.8"/>
        <path id="Trazado_650762" data-name="Trazado 650762" d="M-74.669,137.616l-2.491.448-2.483.493a2.524,2.524,0,0,1-.183,1.408,14.581,14.581,0,0,1,9.962,2.148C-71.975,140.159-74.349,139.307-74.669,137.616Z" transform="translate(83.51 -135.565)" fill="#5bb2e7" stroke="#060606" stroke-width="0.7" opacity="0.3" style="mix-blend-mode: multiply;isolation: isolate"/>
        <path id="Rectángulo_302335" data-name="Rectángulo 302335" d="M2.795,0H14.08a2.794,2.794,0,0,1,2.794,2.794V22.287a2.794,2.794,0,0,1-2.794,2.794H2.794A2.794,2.794,0,0,1,0,22.287V2.795A2.795,2.795,0,0,1,2.795,0Z" transform="translate(1.033 19.79) rotate(-10.713)" fill="#fff" stroke="#060606" stroke-width="0.7" opacity="0.8"/>
        <rect id="Rectángulo_302336" data-name="Rectángulo 302336" width="16.875" height="4.474" rx="2.059" transform="translate(0.202 15.394) rotate(-10.713)" fill="#fff" stroke="#060606" stroke-width="0.7" opacity="0.8"/>
        <g id="Grupo_994720-2" data-name="Grupo 994720" transform="translate(0.804 8.606)">
          <path id="Trazado_650763" data-name="Trazado 650763" d="M-81.446,148.186a5.628,5.628,0,0,0-1.663.252,9.221,9.221,0,0,0-1.271,5.781.791.791,0,0,0,.934.69l.326-.061a1.158,1.158,0,0,0-.92,1.349l.33,1.741a1.157,1.157,0,0,0,1.349.919,1.158,1.158,0,0,0-.92,1.349l4.037,21.339a1.156,1.156,0,0,0,1.348.919l12.852-2.431a1.157,1.157,0,0,0,.919-1.349l-4.037-21.339a1.157,1.157,0,0,0-1.349-.919,1.158,1.158,0,0,0,.92-1.349l-.329-1.74a1.158,1.158,0,0,0-1.349-.92l.326-.062a.791.791,0,0,0,.617-.984,8.914,8.914,0,0,0-1.626-3.255C-73.674,150.184-78.324,148.665-81.446,148.186Z" transform="translate(84.438 -148.116)" fill="#a0a4b4" stroke="#060606" stroke-width="0.7"/>
          <path id="Trazado_650764" data-name="Trazado 650764" d="M-84.083,152.242a8.92,8.92,0,0,0-.3,3.527.791.791,0,0,0,.934.69l.326-.061a1.158,1.158,0,0,0-.92,1.349l.33,1.741a1.157,1.157,0,0,0,1.349.919,1.158,1.158,0,0,0-.92,1.349l4.037,21.339a1.156,1.156,0,0,0,1.348.919l12.852-2.431a1.157,1.157,0,0,0,.919-1.349l-3.248-17.169C-74.307,163.346-81.138,158.6-84.083,152.242Z" transform="translate(84.438 -149.666)" fill="#a0a4b4" stroke="#060606" stroke-width="0.7" opacity="0.4" style="mix-blend-mode: multiply;isolation: isolate"/>
        </g>
        <path id="Rectángulo_302337" data-name="Rectángulo 302337" d="M1.372,0H5.133A1.37,1.37,0,0,1,6.5,1.37v0A1.371,1.371,0,0,1,5.133,2.742H1.371A1.371,1.371,0,0,1,0,1.372v0A1.372,1.372,0,0,1,1.372,0Z" transform="matrix(0.983, -0.186, 0.186, 0.983, 2.795, 1.209)" fill="#0f45a5" stroke="#060606" stroke-width="0.7"/>
        <g id="Grupo_994721" data-name="Grupo 994721" transform="translate(3.07 0.321)">
          <path id="Rectángulo_302338" data-name="Rectángulo 302338" d="M.122,0h0A.125.125,0,0,1,.246.125V2.057a.123.123,0,0,1-.123.123h0A.123.123,0,0,1,0,2.057V.122A.122.122,0,0,1,.122,0Z" transform="translate(0 1.105) rotate(-10.665)" fill="#0f45a5" stroke="#060606" stroke-width="0.7" opacity="0.5" style="mix-blend-mode: multiply;isolation: isolate"/>
          <path id="Trazado_650766" data-name="Trazado 650766" d="M-79.434,138.558l-.019,0a.114.114,0,0,1-.132-.091l-.363-1.919a.113.113,0,0,1,.091-.132l.019,0a.114.114,0,0,1,.133.09l.363,1.919A.114.114,0,0,1-79.434,138.558Z" transform="translate(80.486 -135.435)" fill="#0f45a5" stroke="#060606" stroke-width="0.7" opacity="0.5" style="mix-blend-mode: multiply;isolation: isolate"/>
          <path id="Trazado_650767" data-name="Trazado 650767" d="M-78.6,138.4l-.019,0a.113.113,0,0,1-.132-.091l-.363-1.919a.115.115,0,0,1,.091-.133l.019,0a.114.114,0,0,1,.133.091l.363,1.919A.114.114,0,0,1-78.6,138.4Z" transform="translate(80.174 -135.376)" fill="#0f45a5" stroke="#060606" stroke-width="0.7" opacity="0.5" style="mix-blend-mode: multiply;isolation: isolate"/>
          <path id="Trazado_650768" data-name="Trazado 650768" d="M-77.774,138.244l-.019,0a.114.114,0,0,1-.132-.091l-.363-1.919a.114.114,0,0,1,.091-.132l.019,0a.113.113,0,0,1,.132.09l.363,1.919A.114.114,0,0,1-77.774,138.244Z" transform="translate(79.863 -135.317)" fill="#0f45a5" stroke="#060606" stroke-width="0.7" opacity="0.5" style="mix-blend-mode: multiply;isolation: isolate"/>
          <path id="Trazado_650769" data-name="Trazado 650769" d="M-76.944,138.087l-.019,0a.114.114,0,0,1-.132-.091l-.363-1.919a.115.115,0,0,1,.091-.133l.019,0a.113.113,0,0,1,.132.091l.363,1.919A.113.113,0,0,1-76.944,138.087Z" transform="translate(79.551 -135.258)" fill="#0f45a5" stroke="#060606" stroke-width="0.7" opacity="0.5" style="mix-blend-mode: multiply;isolation: isolate"/>
          <path id="Trazado_650770" data-name="Trazado 650770" d="M-76.114,137.93l-.019,0a.114.114,0,0,1-.133-.091l-.363-1.919a.113.113,0,0,1,.091-.132l.019,0a.114.114,0,0,1,.133.09l.363,1.919A.114.114,0,0,1-76.114,137.93Z" transform="translate(79.239 -135.199)" fill="#0f45a5" stroke="#060606" stroke-width="0.7" opacity="0.5" style="mix-blend-mode: multiply;isolation: isolate"/>
          <path id="Trazado_650771" data-name="Trazado 650771" d="M-75.284,137.773l-.019,0a.115.115,0,0,1-.133-.091l-.363-1.919a.112.112,0,0,1,.09-.132l.019,0a.113.113,0,0,1,.132.09l.363,1.919A.114.114,0,0,1-75.284,137.773Z" transform="translate(78.927 -135.14)" fill="#0f45a5" stroke="#060606" stroke-width="0.7" opacity="0.5" style="mix-blend-mode: multiply;isolation: isolate"/>
          <path id="Trazado_650772" data-name="Trazado 650772" d="M-74.454,137.616l-.019,0a.112.112,0,0,1-.132-.091l-.363-1.919a.114.114,0,0,1,.09-.133l.019,0a.113.113,0,0,1,.132.09l.363,1.919A.114.114,0,0,1-74.454,137.616Z" transform="translate(78.616 -135.081)" fill="#0f45a5" stroke="#060606" stroke-width="0.7" opacity="0.5" style="mix-blend-mode: multiply;isolation: isolate"/>
          <path id="Trazado_650773" data-name="Trazado 650773" d="M-73.624,137.459l-.019,0a.114.114,0,0,1-.132-.091l-.363-1.919a.112.112,0,0,1,.091-.132l.019,0a.113.113,0,0,1,.132.09l.363,1.919A.114.114,0,0,1-73.624,137.459Z" transform="translate(78.304 -135.022)" fill="#0f45a5" stroke="#060606" stroke-width="0.7" opacity="0.5" style="mix-blend-mode: multiply;isolation: isolate"/>
          <path id="Trazado_650774" data-name="Trazado 650774" d="M-72.794,137.3l-.019,0a.114.114,0,0,1-.133-.091l-.363-1.919a.114.114,0,0,1,.091-.133l.019,0a.114.114,0,0,1,.132.091l.363,1.919A.113.113,0,0,1-72.794,137.3Z" transform="translate(77.992 -134.962)" fill="#0f45a5" stroke="#060606" stroke-width="0.7" opacity="0.5" style="mix-blend-mode: multiply;isolation: isolate"/>
          <path id="Rectángulo_302339" data-name="Rectángulo 302339" d="M.123,0h0A.123.123,0,0,1,.246.123V2.056a.123.123,0,0,1-.123.123h0A.123.123,0,0,1,0,2.057V.123A.123.123,0,0,1,.123,0Z" transform="translate(5.181 0.124) rotate(-10.665)" fill="#0f45a5" stroke="#060606" stroke-width="0.7" opacity="0.5" style="mix-blend-mode: multiply;isolation: isolate"/>
          <path id="Trazado_650775" data-name="Trazado 650775" d="M-71.134,136.988l-.019,0a.114.114,0,0,1-.132-.091l-.363-1.919a.114.114,0,0,1,.09-.133l.019,0a.113.113,0,0,1,.132.091l.363,1.919A.114.114,0,0,1-71.134,136.988Z" transform="translate(77.368 -134.845)" fill="#0f45a5" stroke="#060606" stroke-width="0.7" opacity="0.5" style="mix-blend-mode: multiply;isolation: isolate"/>
        </g>
        <path id="Trazado_650776" data-name="Trazado 650776" d="M-83.885,162.128a1.886,1.886,0,0,1-1.018-1.381l.284,1.5a1.27,1.27,0,0,0,1.479,1.009l14.093-2.666a1.269,1.269,0,0,0,1.027-1.319C-68.252,160.076-80.273,162.712-83.885,162.128Z" transform="translate(85.417 -143.7)" fill="#0f45a5" stroke="#060606" stroke-width="0.7" opacity="0.3" style="mix-blend-mode: multiply;isolation: isolate"/>
        <path id="Trazado_650777" data-name="Trazado 650777" d="M-85.11,150.211a9.753,9.753,0,0,0-.553,4.556.868.868,0,0,0,1.024.757l7.4-1.4,7.4-1.4a.868.868,0,0,0,.677-1.079c-.007-.028-.017-.054-.024-.081C-74.451,153.1-81.037,154.086-85.11,150.211Z" transform="translate(85.726 -140.297)" fill="#5bb2e7" stroke="#060606" stroke-width="0.7" opacity="0.3" style="mix-blend-mode: multiply;isolation: isolate"/>
        <path id="Trazado_650778" data-name="Trazado 650778" d="M-80.084,142.83s-3.6,4.975-2.7,9.767l1.969-.372A20.573,20.573,0,0,1-80.084,142.83Z" transform="translate(84.674 -137.524)" fill="#fff" stroke="#060606" stroke-width="0.7" opacity="0.6"/>
        <path id="Rectángulo_302340" data-name="Rectángulo 302340" d="M.843,0h0a.844.844,0,0,1,.844.844V3.075a.844.844,0,0,1-.844.844h0A.843.843,0,0,1,0,3.077V.843A.843.843,0,0,1,.843,0Z" transform="translate(1.946 15.346) rotate(-10.707)" fill="#fff" stroke="#060606" stroke-width="0.7" opacity="0.6"/>
        <rect id="Rectángulo_302341" data-name="Rectángulo 302341" width="1.687" height="24.205" transform="matrix(0.983, -0.186, 0.186, 0.983, 2.782, 19.763)" fill="#fff" stroke="#060606" stroke-width="0.7" opacity="0.6"/>
        <path id="Rectángulo_302342" data-name="Rectángulo 302342" d="M2,0H14.875a2,2,0,0,1,2,2V6.953a2,2,0,0,1-2,2H2a2,2,0,0,1-2-2V2A2,2,0,0,1,2,0Z" transform="translate(0.617 17.592) rotate(-10.713)" fill="#fff" stroke="#060606" stroke-width="0.7"/>
        <g id="Grupo_994722" data-name="Grupo 994722" transform="translate(7.563 17.246)">
          <path id="Trazado_650779" data-name="Trazado 650779" d="M-69.67,164.739h0l-.01-.011c-.029-.034-.06-.069-.091-.1l-2.409-2.673-1.265,3.366c-.018.043-.034.087-.049.13l0,.012h0a2.221,2.221,0,0,0-.076,1.119,2.231,2.231,0,0,0,2.606,1.777,2.23,2.23,0,0,0,1.777-2.606A2.217,2.217,0,0,0-69.67,164.739Z" transform="translate(73.612 -161.954)" fill="#179587" stroke="#060606" stroke-width="0.7"/>
        </g>
      </g>
      <g id="Grupo_994727" data-name="Grupo 994727" transform="translate(-68.364 139.21)">
        <path id="Trazado_650780" data-name="Trazado 650780" d="M-42.819,145.279l-1.927-.323-1.932-.288c-.335,2.115-4.848,2.668-5.834,7.728a.324.324,0,0,0,.268.378l6.1.968,6.1.968a.324.324,0,0,0,.372-.277C-39.033,149.317-43.154,147.4-42.819,145.279Z" transform="translate(55.888 -143.094)" fill="#fff" stroke="#060606" stroke-width="0.7" opacity="0.8"/>
        <path id="Trazado_650781" data-name="Trazado 650781" d="M-39.605,145.279l-1.927-.323-1.932-.288a1.947,1.947,0,0,1-.5.975,11.253,11.253,0,0,1,6.677,4.154C-38.31,147.829-39.813,146.591-39.605,145.279Z" transform="translate(52.674 -143.094)" fill="#5bb2e7" stroke="#060606" stroke-width="0.7" opacity="0.3" style="mix-blend-mode: multiply;isolation: isolate"/>
        <path id="Trazado_650782" data-name="Trazado 650782" d="M-47.03,184.062l-9.414-1.492a1.75,1.75,0,0,1-1.45-2l2.484-15.669a1.75,1.75,0,0,1,2-1.45L-44,164.947a1.75,1.75,0,0,1,1.45,2l-2.484,15.669A1.75,1.75,0,0,1-47.03,184.062Z" transform="translate(57.916 -150.143)" fill="#fff" stroke="#060606" stroke-width="0.7" opacity="0.8"/>
        <path id="Rectángulo_302343" data-name="Rectángulo 302343" d="M1.726,0H11.3a1.725,1.725,0,0,1,1.725,1.725v0a1.726,1.726,0,0,1-1.726,1.726H1.726A1.726,1.726,0,0,1,0,1.726v0A1.726,1.726,0,0,1,1.726,0Z" transform="translate(3.319 9.629) rotate(9.009)" fill="#fff" stroke="#060606" stroke-width="0.7" opacity="0.8"/>
        <g id="Grupo_994724" data-name="Grupo 994724" transform="translate(0.582 5.435)">
          <path id="Trazado_650783" data-name="Trazado 650783" d="M-49.885,151.1a4.34,4.34,0,0,0-1.274-.25,7.116,7.116,0,0,0-2.429,3.869.612.612,0,0,0,.5.745l.253.04a.893.893,0,0,0-1.019.74l-.214,1.35a.9.9,0,0,0,.74,1.02.892.892,0,0,0-1.019.74L-56.973,175.9a.893.893,0,0,0,.74,1.019l9.969,1.581a.894.894,0,0,0,1.02-.74l2.623-16.551a.893.893,0,0,0-.74-1.019.893.893,0,0,0,1.019-.74l.214-1.35a.893.893,0,0,0-.74-1.019l.253.04a.611.611,0,0,0,.7-.554,6.876,6.876,0,0,0-.334-2.788C-44.761,154.576-47.743,152.263-49.885,151.1Z" transform="translate(56.984 -150.851)" fill="#c7c8cf" stroke="#060606" stroke-width="0.7"/>
          <path id="Trazado_650784" data-name="Trazado 650784" d="M-52.454,153.067a6.875,6.875,0,0,0-1.134,2.485.612.612,0,0,0,.5.745l.253.04a.893.893,0,0,0-1.019.74l-.214,1.35a.9.9,0,0,0,.74,1.02.892.892,0,0,0-1.019.74l-2.624,16.551a.893.893,0,0,0,.74,1.019l9.969,1.581a.894.894,0,0,0,1.02-.74l2.111-13.317C-48.245,163.679-51.971,158.454-52.454,153.067Z" transform="translate(56.984 -151.684)" fill="#c7c8cf" stroke="#060606" stroke-width="0.7" opacity="0.4" style="mix-blend-mode: multiply;isolation: isolate"/>
        </g>
        <path id="Rectángulo_302344" data-name="Rectángulo 302344" d="M1.059,0h2.9A1.059,1.059,0,0,1,5.019,1.059v0A1.057,1.057,0,0,1,3.961,2.116h-2.9A1.056,1.056,0,0,1,0,1.06v0A1.059,1.059,0,0,1,1.059,0Z" transform="matrix(0.988, 0.157, -0.157, 0.988, 8.897, 0)" fill="#0f45a5" stroke="#060606" stroke-width="0.7"/>
        <g id="Grupo_994725" data-name="Grupo 994725" transform="translate(8.789 0.242)">
          <path id="Trazado_650786" data-name="Trazado 650786" d="M-43.75,144.2l-.014,0a.087.087,0,0,1-.073-.1l.236-1.488a.087.087,0,0,1,.1-.072l.015,0a.088.088,0,0,1,.072.1l-.236,1.488A.087.087,0,0,1-43.75,144.2Z" transform="translate(43.839 -142.533)" fill="#0f45a5" stroke="#060606" stroke-width="0.7" opacity="0.5" style="mix-blend-mode: multiply;isolation: isolate"/>
          <path id="Trazado_650787" data-name="Trazado 650787" d="M-43.106,144.3l-.015,0a.087.087,0,0,1-.072-.1l.235-1.488a.088.088,0,0,1,.1-.072l.014,0a.088.088,0,0,1,.073.1l-.236,1.488A.087.087,0,0,1-43.106,144.3Z" transform="translate(43.597 -142.571)" fill="#0f45a5" stroke="#060606" stroke-width="0.7" opacity="0.5" style="mix-blend-mode: multiply;isolation: isolate"/>
          <path id="Trazado_650788" data-name="Trazado 650788" d="M-42.463,144.4l-.015,0a.087.087,0,0,1-.073-.1l.236-1.488a.088.088,0,0,1,.1-.072l.014,0a.088.088,0,0,1,.073.1l-.236,1.488A.087.087,0,0,1-42.463,144.4Z" transform="translate(43.355 -142.61)" fill="#0f45a5" stroke="#060606" stroke-width="0.7" opacity="0.5" style="mix-blend-mode: multiply;isolation: isolate"/>
          <path id="Trazado_650789" data-name="Trazado 650789" d="M-41.819,144.5l-.014,0a.088.088,0,0,1-.073-.1l.236-1.488a.087.087,0,0,1,.1-.072l.014,0a.087.087,0,0,1,.072.1l-.236,1.488A.087.087,0,0,1-41.819,144.5Z" transform="translate(43.113 -142.648)" fill="#0f45a5" stroke="#060606" stroke-width="0.7" opacity="0.5" style="mix-blend-mode: multiply;isolation: isolate"/>
          <path id="Trazado_650790" data-name="Trazado 650790" d="M-41.175,144.606l-.015,0a.087.087,0,0,1-.072-.1l.236-1.488a.087.087,0,0,1,.1-.072l.015,0a.087.087,0,0,1,.072.1l-.236,1.488A.087.087,0,0,1-41.175,144.606Z" transform="translate(42.871 -142.686)" fill="#0f45a5" stroke="#060606" stroke-width="0.7" opacity="0.5" style="mix-blend-mode: multiply;isolation: isolate"/>
          <path id="Trazado_650791" data-name="Trazado 650791" d="M-40.531,144.708l-.015,0a.087.087,0,0,1-.072-.1l.236-1.488a.087.087,0,0,1,.1-.072l.015,0a.087.087,0,0,1,.072.1l-.236,1.488A.087.087,0,0,1-40.531,144.708Z" transform="translate(42.629 -142.725)" fill="#0f45a5" stroke="#060606" stroke-width="0.7" opacity="0.5" style="mix-blend-mode: multiply;isolation: isolate"/>
          <path id="Trazado_650792" data-name="Trazado 650792" d="M-39.888,144.81l-.014,0a.088.088,0,0,1-.073-.1l.236-1.488a.088.088,0,0,1,.1-.072l.014,0a.088.088,0,0,1,.073.1l-.237,1.488A.087.087,0,0,1-39.888,144.81Z" transform="translate(42.388 -142.763)" fill="#0f45a5" stroke="#060606" stroke-width="0.7" opacity="0.5" style="mix-blend-mode: multiply;isolation: isolate"/>
          <path id="Trazado_650793" data-name="Trazado 650793" d="M-39.244,144.912l-.015,0a.088.088,0,0,1-.072-.1l.236-1.488a.087.087,0,0,1,.1-.073l.015,0a.087.087,0,0,1,.072.1l-.236,1.488A.087.087,0,0,1-39.244,144.912Z" transform="translate(42.146 -142.801)" fill="#0f45a5" stroke="#060606" stroke-width="0.7" opacity="0.5" style="mix-blend-mode: multiply;isolation: isolate"/>
          <path id="Trazado_650794" data-name="Trazado 650794" d="M-38.6,145.014l-.015,0a.088.088,0,0,1-.072-.1l.236-1.488a.087.087,0,0,1,.1-.073l.015,0a.087.087,0,0,1,.072.1l-.236,1.488A.087.087,0,0,1-38.6,145.014Z" transform="translate(41.904 -142.84)" fill="#0f45a5" stroke="#060606" stroke-width="0.7" opacity="0.5" style="mix-blend-mode: multiply;isolation: isolate"/>
          <path id="Trazado_650795" data-name="Trazado 650795" d="M-37.957,145.116l-.014,0a.089.089,0,0,1-.073-.1l.236-1.488a.088.088,0,0,1,.1-.073l.014,0a.088.088,0,0,1,.073.1l-.236,1.488A.088.088,0,0,1-37.957,145.116Z" transform="translate(41.662 -142.878)" fill="#0f45a5" stroke="#060606" stroke-width="0.7" opacity="0.5" style="mix-blend-mode: multiply;isolation: isolate"/>
          <path id="Trazado_650796" data-name="Trazado 650796" d="M-37.313,145.218l-.014,0a.087.087,0,0,1-.073-.1l.236-1.488a.088.088,0,0,1,.1-.073l.015,0a.088.088,0,0,1,.073.1l-.236,1.488A.089.089,0,0,1-37.313,145.218Z" transform="translate(41.42 -142.916)" fill="#0f45a5" stroke="#060606" stroke-width="0.7" opacity="0.5" style="mix-blend-mode: multiply;isolation: isolate"/>
          <path id="Trazado_650797" data-name="Trazado 650797" d="M-36.669,145.32l-.015,0a.087.087,0,0,1-.072-.1l.236-1.488a.088.088,0,0,1,.1-.073l.015,0a.087.087,0,0,1,.072.1l-.236,1.488A.088.088,0,0,1-36.669,145.32Z" transform="translate(41.179 -142.955)" fill="#0f45a5" stroke="#060606" stroke-width="0.7" opacity="0.5" style="mix-blend-mode: multiply;isolation: isolate"/>
        </g>
        <path id="Trazado_650798" data-name="Trazado 650798" d="M-52.664,160.889a1.453,1.453,0,0,1-.38-1.268l-.184,1.164a.98.98,0,0,0,.812,1.118l10.932,1.733a.98.98,0,0,0,1.089-.69C-40.773,163.47-50.192,162.254-52.664,160.889Z" transform="translate(56.159 -148.711)" fill="#0f45a5" stroke="#060606" stroke-width="0.7" opacity="0.3" style="mix-blend-mode: multiply;isolation: isolate"/>
        <path id="Trazado_650799" data-name="Trazado 650799" d="M-50.8,151.366a7.52,7.52,0,0,0-1.588,3.165.67.67,0,0,0,.546.817l5.743.911,5.744.91a.67.67,0,0,0,.772-.607c0-.022,0-.043,0-.066C-43.809,156.244-48.849,155.241-50.8,151.366Z" transform="translate(55.845 -145.61)" fill="#5bb2e7" stroke="#060606" stroke-width="0.7" opacity="0.3" style="mix-blend-mode: multiply;isolation: isolate"/>
        <path id="Trazado_650800" data-name="Trazado 650800" d="M-45.995,147.662s-3.912,2.676-4.5,6.393l1.527.242A15.879,15.879,0,0,1-45.995,147.662Z" transform="translate(55.129 -144.218)" fill="#fff" stroke="#060606" stroke-width="0.7" opacity="0.6"/>
        <path id="Trazado_650801" data-name="Trazado 650801" d="M-50.563,161.39l-.1-.016a.6.6,0,0,1-.5-.687l.286-1.8a.6.6,0,0,1,.686-.5l.1.016a.6.6,0,0,1,.5.687l-.286,1.8A.6.6,0,0,1-50.563,161.39Z" transform="translate(55.382 -148.244)" fill="#fff" stroke="#060606" stroke-width="0.7" opacity="0.6"/>
        <rect id="Rectángulo_302345" data-name="Rectángulo 302345" width="18.677" height="1.302" transform="translate(1.131 31.921) rotate(-80.992)" fill="#fff" stroke="#060606" stroke-width="0.7" opacity="0.6"/>
        <rect id="Rectángulo_302346" data-name="Rectángulo 302346" width="13.021" height="6.909" rx="2" transform="translate(3.049 11.334) rotate(9.007)" fill="#fff" stroke="#060606" stroke-width="0.7"/>
        <g id="Grupo_994726" data-name="Grupo 994726" transform="translate(6.986 13.264)">
          <path id="Trazado_650802" data-name="Trazado 650802" d="M-43.39,166.067h0l0-.011c-.012-.032-.026-.065-.04-.1l-1.054-2.568-1.8,2.116c-.024.027-.047.054-.069.082l-.006.008h0a1.709,1.709,0,0,0-.346.794,1.72,1.72,0,0,0,1.43,1.968,1.721,1.721,0,0,0,1.969-1.43A1.714,1.714,0,0,0-43.39,166.067Z" transform="translate(46.726 -163.391)" fill="#179587" stroke="#060606" stroke-width="0.7"/>
        </g>
      </g>
      <path id="Trazado_650803" data-name="Trazado 650803" d="M-56.113,171.295l-1.772,11.18,1.112-14.024Z" transform="translate(-10.459 -12.818)" fill="#0f45a5" stroke="#060606" stroke-width="0.7" opacity="0.3" style="mix-blend-mode: multiply;isolation: isolate"/>
    </g>
  </g>
</svg>
