<svg xmlns="http://www.w3.org/2000/svg" width="69" height="69" viewBox="0 0 69 69">
  <g id="Grupo_1000294" data-name="Grupo 1000294" transform="translate(-286 -9034)">
    <g id="Elipse_5558" data-name="Elipse 5558" transform="translate(286 9034)" fill="none" stroke="#222b5a" stroke-width="1">
      <circle cx="34.5" cy="34.5" r="34.5" stroke="none"/>
      <circle cx="34.5" cy="34.5" r="34" fill="none"/>
    </g>
    <g id="administracion_1_" data-name="administracion (1)" transform="translate(297.802 9044.559)">
      <path id="Trazado_126444" data-name="Trazado 126444" d="M69.879,208v10.409a1.537,1.537,0,0,0-.021-.257,1.416,1.416,0,0,0-1.207-1.124,1.175,1.175,0,0,0-.16-.007H67.1v4.858l2.776,2.776v4.164H56v-3.47l2.776-2.776V219.1H57.388A1.392,1.392,0,0,0,56,220.491V208h3.47v1.388h6.939V208Z" transform="translate(-51.142 -189.957)" fill="#f1b62b"/>
      <path id="Trazado_126445" data-name="Trazado 126445" d="M69.879,208,56,228.818H69.879Z" transform="translate(-51.142 -189.957)" fill="#f1b62b"/>
      <path id="Trazado_126446" data-name="Trazado 126446" d="M460.164,456.694v3.47H456l1.388-1.388-.694-2.082h1.388l.694-.694Z" transform="translate(-416.445 -416.445)" fill="#179587"/>
      <path id="Trazado_126447" data-name="Trazado 126447" d="M412.164,460.164s-4.164-.007-4.164,0v-3.47l1.388-.694.694.694h1.388l-.694,2.082Z" transform="translate(-372.609 -416.445)" fill="#179587"/>
      <path id="Trazado_126448" data-name="Trazado 126448" d="M442.776,466.082l-1.388,1.388L440,466.082l.694-2.082h1.388Z" transform="translate(-401.833 -423.751)" fill="#f1b62b"/>
      <path id="Trazado_126449" data-name="Trazado 126449" d="M413.552,112h-2.776l-2.776.694v3.47h8.327v-3.47Z" transform="translate(-372.609 -102.285)" fill="#ee4e5d"/>
      <path id="Trazado_126450" data-name="Trazado 126450" d="M420.858,48l-2.082,2.082-1.388-.694H416v.694a1.388,1.388,0,0,0,1.388,1.388h0v.694l.694,1.388h2.776l.694-1.388V51.47h0a1.388,1.388,0,0,0,1.388-1.388v-.694h-2.082Z" transform="translate(-379.915 -43.836)" fill="#fac8b2"/>
      <path id="Trazado_126451" data-name="Trazado 126451" d="M441.388,112,440,114.776l1.388,1.388,1.388-1.388Z" transform="translate(-401.833 -102.285)" fill="#00587e"/>
      <path id="Trazado_126452" data-name="Trazado 126452" d="M410.082,12.858H408V9.388L410.776,8l2.776.694L414.939,8l1.388,1.388v3.47h-2.776V11.47l-2.082,2.082Z" transform="translate(-372.609 -7.306)" fill="#58492f"/>
      <path id="Trazado_126453" data-name="Trazado 126453" d="M456,300.164s4.164-.007,4.164,0v-3.47L458.082,296l-.694.694h-.694l.694,2.082Z" transform="translate(-416.445 -270.324)" fill="#222b5a"/>
      <path id="Trazado_126454" data-name="Trazado 126454" d="M440,306.082l1.388,1.388,1.388-1.388L442.082,304h-1.388Z" transform="translate(-401.833 -277.63)" fill="#f1b62b"/>
      <path id="Trazado_126455" data-name="Trazado 126455" d="M408,296.694v3.47h4.164l-1.388-1.388.694-2.082h-.694l-.694-.694Z" transform="translate(-372.609 -270.324)" fill="#222b5a"/>
      <path id="Trazado_126456" data-name="Trazado 126456" d="M436.164,257.388v2.082l-.694.694h-2.776L432,259.47v-2.082h.694A1.4,1.4,0,0,0,434.082,256a1.392,1.392,0,0,0,1.388,1.388Z" transform="translate(-394.527 -233.794)" fill="#fac8b2"/>
      <path id="Trazado_126457" data-name="Trazado 126457" d="M422.939,227.47a3.485,3.485,0,0,1-1.013,2.457,3.253,3.253,0,0,1-.375.319v-2.082h-.694a1.392,1.392,0,0,1-1.388-1.388,1.4,1.4,0,0,1-1.388,1.388h-.694v2.082a3.259,3.259,0,0,1-.375-.319,3.476,3.476,0,0,1,.722-5.461,3.469,3.469,0,0,1,3.47,0,3.432,3.432,0,0,1,1.735,3Z" transform="translate(-379.915 -204.57)" fill="#ee4e5d"/>
      <path id="Trazado_126458" data-name="Trazado 126458" d="M436.164,194.082a2.128,2.128,0,0,1-.347,1.159,3.469,3.469,0,0,0-3.47,0,2.128,2.128,0,0,1-.347-1.159,2.082,2.082,0,1,1,4.164,0Z" transform="translate(-394.527 -175.345)" fill="#ee4e5d"/>
      <path id="Trazado_126459" data-name="Trazado 126459" d="M429.552,377.388v2.082L424,378.082v-.694A1.392,1.392,0,0,1,425.388,376h2.776A1.392,1.392,0,0,1,429.552,377.388Z" transform="translate(-387.221 -343.384)" fill="#179587"/>
      <path id="Trazado_126460" data-name="Trazado 126460" d="M416.327,402.429a1.04,1.04,0,0,1-1.041,1.041h-.347v1.388l-.694.694h-4.164l-.694-.694V403.47h-.347a1.041,1.041,0,0,1,0-2.082h.347V400l5.552,1.388h.347A1.039,1.039,0,0,1,416.327,402.429Z" transform="translate(-372.609 -365.303)" fill="#fac8b2"/>
      <path id="Trazado_126461" data-name="Trazado 126461" d="M102.939,171.47v1.388H96V171.47a1.392,1.392,0,0,1,1.388-1.388h.694v-.694A1.392,1.392,0,0,1,99.47,168a1.4,1.4,0,0,1,1.388,1.388v.694h.694A1.392,1.392,0,0,1,102.939,171.47Z" transform="translate(-87.673 -153.427)" fill="#ffec00"/>
      <path id="Trazado_126462" data-name="Trazado 126462" d="M88,256h2.776v2.776H88Z" transform="translate(-80.367 -233.794)" fill="#fff"/>
      <path id="Trazado_126463" data-name="Trazado 126463" d="M88,320h2.776v2.776H88Z" transform="translate(-80.367 -292.242)" fill="#fff"/>
      <path id="Trazado_126464" data-name="Trazado 126464" d="M88,384h2.776v2.776H88Z" transform="translate(-80.367 -350.691)" fill="#fff"/>
      <path id="Trazado_126465" data-name="Trazado 126465" d="M14.939,306.776v3.47l-2.776,2.776H8v-6.939L10.082,304h2.082v4.164a1.392,1.392,0,0,1,1.388-1.388Z" transform="translate(-7.306 -277.63)" fill="#fac8b2"/>
      <path id="Trazado_126466" data-name="Trazado 126466" d="M220.164,306.082v3.657L216,305.853V304h2.082Z" transform="translate(-197.263 -277.63)" fill="#fac8b2"/>
      <path id="Trazado_126467" data-name="Trazado 126467" d="M190.842,319.633h-4.067L184,316.858V312h1.388a1.173,1.173,0,0,1,.16.007,1.416,1.416,0,0,1,1.207,1.124,1.538,1.538,0,0,1,.021.257v2.45Z" transform="translate(-168.039 -284.936)" fill="#fac8b2"/>
      <path id="Trazado_126468" data-name="Trazado 126468" d="M163.629,290.089a1.178,1.178,0,0,0-.16-.007h-1.388v1.249L160,289.388V288h1.388Z" transform="translate(-146.121 -263.018)" fill="#00a8e7"/>
      <path id="Trazado_126469" data-name="Trazado 126469" d="M222.939,331.834l-1.388,1.388-1.485-1.388-4.067-3.8V325.36l4.164,3.886Z" transform="translate(-197.263 -297.137)" fill="#00a8e7"/>
      <path id="Trazado_126470" data-name="Trazado 126470" d="M216,400h4.164v9.021H216Z" transform="translate(-197.263 -365.303)" fill="#179587"/>
      <path id="Trazado_126471" data-name="Trazado 126471" d="M8,408h4.164v8.327H8Z" transform="translate(-7.306 -372.609)" fill="#179587"/>
      <path id="Trazado_126472" data-name="Trazado 126472" d="M147.47,249.388h-2.776a.694.694,0,0,1,0-1.388h2.776a.694.694,0,0,1,0,1.388Z" transform="translate(-131.509 -226.488)" fill="#f05a29"/>
      <path id="Trazado_126473" data-name="Trazado 126473" d="M145.388,337.388h-.694a.694.694,0,0,1,0-1.388h.694a.694.694,0,1,1,0,1.388Z" transform="translate(-131.509 -306.854)" fill="#f98800"/>
      <path id="Trazado_126474" data-name="Trazado 126474" d="M147.47,409.388h-2.776a.694.694,0,1,1,0-1.388h2.776a.694.694,0,1,1,0,1.388Z" transform="translate(-131.509 -372.609)" fill="#f98800"/>
      <ellipse id="Elipse_5038" data-name="Elipse 5038" cx="5.552" cy="5.552" rx="5.552" ry="5.552" transform="translate(6.246 0.694)" fill="#f1b62b"/>
      <path id="Trazado_126475" data-name="Trazado 126475" d="M90.738,21.186A5.552,5.552,0,0,1,80.36,23.931a5.553,5.553,0,0,0,7.571-7.571,5.548,5.548,0,0,1,2.807,4.826Z" transform="translate(-73.389 -14.941)" fill="#fcc200"/>
      <g id="Grupo_881692" data-name="Grupo 881692" transform="translate(11.103 2.776)">
        <path id="Trazado_126476" data-name="Trazado 126476" d="M130.082,36.164h-1.388A.694.694,0,0,1,128,35.47V32.694a.694.694,0,0,1,1.388,0v2.082h.694a.694.694,0,0,1,0,1.388Z" transform="translate(-128 -32)" fill="#e22526"/>
        <path id="Trazado_126477" data-name="Trazado 126477" d="M258.206,224.2a.694.694,0,0,0-.981.981l.9.9h-9.428a.694.694,0,0,0,0,1.388h9.428l-.9.9a.694.694,0,0,0,.981.981l2.082-2.082a.694.694,0,0,0,0-.981Z" transform="translate(-237.591 -207.346)" fill="#e22526"/>
        <path id="Trazado_126478" data-name="Trazado 126478" d="M248.694,77.879h3.47a3.474,3.474,0,0,0,3.47-3.47V69.552a2.084,2.084,0,0,1,2.082-2.082h.406l-.9.9a.694.694,0,0,0,.981.981l2.082-2.082a.694.694,0,0,0,0-.981L258.206,64.2a.694.694,0,0,0-.981.981l.9.9h-.406a3.474,3.474,0,0,0-3.47,3.47V74.41a2.084,2.084,0,0,1-2.082,2.082h-3.47a.694.694,0,0,0,0,1.388Z" transform="translate(-237.591 -61.225)" fill="#e22526"/>
        <path id="Trazado_126479" data-name="Trazado 126479" d="M258.206,296.531a.694.694,0,1,0-.981.981l.9.9h-.406a2.084,2.084,0,0,1-2.082-2.082V291.47a3.474,3.474,0,0,0-3.47-3.47h-3.47a.694.694,0,1,0,0,1.388h3.47a2.084,2.084,0,0,1,2.082,2.082v4.858a3.474,3.474,0,0,0,3.47,3.47h.406l-.9.9a.694.694,0,0,0,.981.981l2.082-2.082a.694.694,0,0,0,0-.981Z" transform="translate(-237.591 -265.794)" fill="#e22526"/>
      </g>
      <path id="Trazado_126480" data-name="Trazado 126480" d="M407.633,8.327V8.208a2.085,2.085,0,0,0,1.388-1.963.694.694,0,0,0,.694-.694V2.081a.694.694,0,0,0-.2-.491L408.124.2a.694.694,0,0,0-.8-.13l-1.158.579L403.638.02a.693.693,0,0,0-.479.053l-2.776,1.388a.694.694,0,0,0-.384.621v3.47a.694.694,0,0,0,.694.694,2.085,2.085,0,0,0,1.388,1.963v.119a.694.694,0,0,0,.073.31l.307.614-1.937.484a.694.694,0,0,0-.526.673v3.47a.694.694,0,0,0,.694.694h8.327a.694.694,0,0,0,.694-.694v-3.47a.694.694,0,0,0-.526-.673l-1.937-.484.307-.614A.694.694,0,0,0,407.633,8.327ZM401.388,2.51l2.163-1.081,2.527.632a.694.694,0,0,0,.479-.053l.94-.47.831.831V4.857h-1.388V4.163a.694.694,0,0,0-1.185-.491L404.027,5.4l-.94-.47a.694.694,0,0,0-.31-.073h-1.388Zm3.47,10.387-.543-.544.543-1.087.543,1.087Zm-3.47-1.947,2.167-.542h.18l-.886,1.771a.694.694,0,0,0,.13.8l.2.2h-1.794Zm6.939,2.234h-1.794l.2-.2a.694.694,0,0,0,.13-.8l-.886-1.771h.18l2.167.542Zm-1.388-6.246a.694.694,0,0,0-.694.694v.53l-.429.858H403.9l-.429-.858v-.53a.694.694,0,0,0-.694-.694.7.7,0,0,1-.694-.694h.53l1.241.621a.694.694,0,0,0,.8-.13l.941-.941a.694.694,0,0,0,.65.45h1.388a.7.7,0,0,1-.694.694Z" transform="translate(-365.303 0.001)"/>
      <path id="Trazado_126481" data-name="Trazado 126481" d="M409.24,193.751l-1.027-.342a4.178,4.178,0,0,0-.409-5.416,3.966,3.966,0,0,0-.331-.293,2.776,2.776,0,1,0-5.231,0,4.163,4.163,0,0,0-.741,5.7l-1.027.342a.694.694,0,0,0-.474.658v3.47a.694.694,0,0,0,.694.694h8.327a.694.694,0,0,0,.694-.694v-3.47A.694.694,0,0,0,409.24,193.751Zm-3-.323-.287.287h-2.2l-.287-.287v-1.1a2.041,2.041,0,0,0,1.386-.533,2.073,2.073,0,0,0,1.389.533Zm-.794,2.876-.594.594-.594-.594.4-1.2h.387Zm-.594-10.916a1.383,1.383,0,0,1,1.368,1.617,4.193,4.193,0,0,0-2.736,0,1.383,1.383,0,0,1,1.368-1.617Zm-1.383,3.145a2.776,2.776,0,0,1,2.77,0,2.737,2.737,0,0,1,1.389,2.4,2.806,2.806,0,0,1-.039.465.694.694,0,0,0-.655-.465h-.694a.7.7,0,0,1-.694-.694.694.694,0,0,0-1.388,0,.664.664,0,0,1-.2.481l-.014.014a.664.664,0,0,1-.481.2h-.694a.694.694,0,0,0-.655.465,2.808,2.808,0,0,1-.039-.465A2.756,2.756,0,0,1,403.475,188.532Zm-2.087,6.377,1.2-.4.391.391a.694.694,0,0,0,.238.155l-.406,1.217a.694.694,0,0,0,.168.71l.2.2h-1.794Zm6.939,2.276h-1.794l.2-.2a.694.694,0,0,0,.168-.71l-.406-1.217a.693.693,0,0,0,.238-.155l.391-.391,1.2.4Z" transform="translate(-365.302 -168.039)"/>
      <path id="Trazado_126482" data-name="Trazado 126482" d="M83.47,248H80.694a.694.694,0,0,0-.694.694v2.776a.694.694,0,0,0,.694.694H83.47a.694.694,0,0,0,.694-.694v-2.776A.694.694,0,0,0,83.47,248Zm-.694,2.776H81.388v-1.388h1.388Z" transform="translate(-73.061 -226.488)"/>
      <path id="Trazado_126483" data-name="Trazado 126483" d="M26.149,180.31l-2.555-2.383v-3.355a.694.694,0,0,0-.2-.491L21.309,172a.694.694,0,0,0-.491-.2H19.43v-7.633a.694.694,0,0,0-.694-.694h-2.9a2.085,2.085,0,0,0-1.962-1.388A2.092,2.092,0,0,0,11.8,160a2.084,2.084,0,0,0-2.082,2.082,2.085,2.085,0,0,0-1.962,1.388h-2.9a.694.694,0,0,0-.694.694V171.8H2.776a.694.694,0,0,0-.491.2L.2,174.082a.694.694,0,0,0-.2.491v15.267a.694.694,0,0,0,.694.694H4.858a.694.694,0,0,0,.694-.694v-4.164H18.043v4.164a.694.694,0,0,0,.694.694H22.9a.694.694,0,0,0,.694-.694v-7.332l.22.206a.694.694,0,0,0,.965-.016l1.388-1.388a.694.694,0,0,0-.017-1Zm-3.943-5.451v1.773l-2.87-2.679a2.1,2.1,0,0,0-.439-.769h1.634Zm-3.182,5.264-2.369-2.369v-3.876h.767a.728.728,0,0,1,.6.519l.02,2.629a.694.694,0,0,0,.22.5l2.78,2.595ZM15.33,172.9l-.757-.707V171.8h.421l.774.722A.7.7,0,0,0,15.33,172.9Zm-6.309-8.733a.7.7,0,0,1,.694-.694h.694a.694.694,0,0,0,.694-.694v-.694a.7.7,0,0,1,.694-.694.664.664,0,0,1,.481.2l.014.014a.664.664,0,0,1,.2.481v.694a.694.694,0,0,0,.694.694h.694a.7.7,0,0,1,.694.694v.694H9.021Zm-7.633,10.7,1.675-1.675h1.1v3.47a.694.694,0,1,0,1.388,0,.7.7,0,0,1,.694-.694h.694v2.488L4.57,180.818H1.388Zm6.939,5.264H9.715v1.388H8.327Zm-6.939,9.021v-6.939H4.164v6.939Zm4.164-4.858V181.8l1.388-1.388v1.794a.694.694,0,0,0,.694.694h2.776a.694.694,0,0,0,.694-.694V179.43a.694.694,0,0,0-.694-.694H8.327v-1.388h2.082a.694.694,0,0,0,.694-.694v-2.776a.694.694,0,0,0-.694-.694H7.633a.694.694,0,0,0-.694.694v.694H6.245a2.072,2.072,0,0,0-.694.119v-9.834H7.633v.694a.694.694,0,0,0,.694.694h6.939a.694.694,0,0,0,.694-.694v-.694h2.082v7.754a2.1,2.1,0,0,0-.205-.062l-2.1-1.955a.694.694,0,0,0-.473-.186H13.879a.694.694,0,0,0-.694.694v1.388a.694.694,0,0,0,.22.507l1.861,1.737v3.307a.694.694,0,0,0,.2.491l2.573,2.573v3.182Zm2.776-8.327v-1.388H9.715v1.388Zm13.879,13.185H19.43v-7.633h2.776Zm2.065-7.9-.995-.93h0l-3.848-3.592-.006-.786,3,2.8,2.25,2.1Z" transform="translate(0 -146.121)"/>
      <path id="Trazado_126484" data-name="Trazado 126484" d="M144.694,249.388h2.776a.694.694,0,0,0,0-1.388h-2.776a.694.694,0,0,0,0,1.388Z" transform="translate(-131.509 -226.488)"/>
      <path id="Trazado_126485" data-name="Trazado 126485" d="M144.694,337.388h.694a.694.694,0,1,0,0-1.388h-.694a.694.694,0,0,0,0,1.388Z" transform="translate(-131.509 -306.854)"/>
      <path id="Trazado_126486" data-name="Trazado 126486" d="M147.47,408h-2.776a.694.694,0,1,0,0,1.388h2.776a.694.694,0,1,0,0-1.388Z" transform="translate(-131.509 -372.609)"/>
      <path id="Trazado_126487" data-name="Trazado 126487" d="M70.246,12.491a6.246,6.246,0,1,1,6.246-6.246A6.253,6.253,0,0,1,70.246,12.491Zm0-11.1A4.858,4.858,0,1,0,75.1,6.246,4.863,4.863,0,0,0,70.246,1.388Z" transform="translate(-58.448 0)"/>
      <path id="Trazado_126488" data-name="Trazado 126488" d="M130.082,36.164h-1.388A.694.694,0,0,1,128,35.47V32.694a.694.694,0,0,1,1.388,0v2.082h.694a.694.694,0,0,1,0,1.388Z" transform="translate(-116.897 -29.224)"/>
      <path id="Trazado_126489" data-name="Trazado 126489" d="M258.206,224.2a.694.694,0,0,0-.981.981l.9.9h-9.428a.694.694,0,0,0,0,1.388h9.428l-.9.9a.694.694,0,0,0,.981.981l2.082-2.082a.694.694,0,0,0,0-.981Z" transform="translate(-226.487 -204.57)"/>
      <path id="Trazado_126490" data-name="Trazado 126490" d="M248.694,77.879h3.47a3.474,3.474,0,0,0,3.47-3.47V69.552a2.084,2.084,0,0,1,2.082-2.082h.406l-.9.9a.694.694,0,0,0,.981.981l2.082-2.082a.694.694,0,0,0,0-.981L258.206,64.2a.694.694,0,0,0-.981.981l.9.9h-.406a3.474,3.474,0,0,0-3.47,3.47V74.41a2.084,2.084,0,0,1-2.082,2.082h-3.47a.694.694,0,0,0,0,1.388Z" transform="translate(-226.488 -58.449)"/>
      <path id="Trazado_126491" data-name="Trazado 126491" d="M258.206,296.531a.694.694,0,1,0-.981.981l.9.9h-.406a2.084,2.084,0,0,1-2.082-2.082V291.47a3.474,3.474,0,0,0-3.47-3.47h-3.47a.694.694,0,1,0,0,1.388h3.47a2.084,2.084,0,0,1,2.082,2.082v4.858a3.474,3.474,0,0,0,3.47,3.47h.406l-.9.9a.694.694,0,0,0,.981.981l2.082-2.082a.694.694,0,0,0,0-.981Z" transform="translate(-226.487 -263.018)"/>
      <path id="Trazado_126492" data-name="Trazado 126492" d="M409.332,375.707l-1-.5v-.3a1.735,1.735,0,0,0,0-3.4v-1.423A2.084,2.084,0,0,0,406.245,368H403.47a2.084,2.084,0,0,0-2.082,2.082V371.5a1.735,1.735,0,0,0,0,3.4v.3l-1,.5a.694.694,0,0,0-.384.621v3.47a.694.694,0,0,0,.694.694h8.327a.694.694,0,0,0,.694-.694v-3.47A.694.694,0,0,0,409.332,375.707Zm-6.556-5.625a.7.7,0,0,1,.694-.694h2.776a.7.7,0,0,1,.694.694v1.193l-4.164-1.041Zm-1.041,2.776h.347a.694.694,0,0,0,.694-.694v-.5l4.689,1.172a.691.691,0,0,0,.168.021h.347a.347.347,0,1,1,0,.694h-.347a.694.694,0,0,0-.694.694v1.1l-.287.287h-3.589l-.287-.287v-1.1a.694.694,0,0,0-.694-.694h-.347a.347.347,0,1,1,0-.694Zm3.717,5.364-.594.594-.594-.594.4-1.2h.387Zm-4.064-1.465.557-.278.34.34a.694.694,0,0,0,.491.2h.425l-.389,1.168a.694.694,0,0,0,.168.71l.2.2h-1.794Zm6.939,2.347h-1.794l.2-.2a.694.694,0,0,0,.168-.71l-.389-1.168h.425a.694.694,0,0,0,.491-.2l.34-.34.557.278Z" transform="translate(-365.303 -336.079)"/>
    </g>
  </g>
</svg>
