<svg xmlns="http://www.w3.org/2000/svg" width="69" height="69" viewBox="0 0 69 69">
  <g id="Grupo_1000281" data-name="Grupo 1000281" transform="translate(-286 -7824)">
    <g id="Elipse_5550" data-name="Elipse 5550" transform="translate(286 7824)" fill="none" stroke="#222b5a" stroke-width="1">
      <circle cx="34.5" cy="34.5" r="34.5" stroke="none"/>
      <circle cx="34.5" cy="34.5" r="34" fill="none"/>
    </g>
    <g id="jeringuilla" transform="translate(317.409 7834.468)">
      <path id="Trazado_126299" data-name="Trazado 126299" d="M100.791,60.969,92.414,69.1,97.2,73.886l8.362-8.147Zm0,0" transform="translate(-85.646 -56.482)" fill="#ee4e5d"/>
      <path id="Trazado_126300" data-name="Trazado 126300" d="M20.339,5.137,24.851.624,24.227,0,19.715,4.512l-.941-.941L17.038,5.306,15.594,3.862,3.151,16.305l-.9-.9-.625.624L4.36,18.763l-2.6,2.6-.688-.688L.449,21.3l3.1,3.1.624-.624-.688-.688,2.6-2.6,2.734,2.734.624-.624-.9-.9L20.989,9.257,19.545,7.813l1.735-1.735ZM3.788,16.917l1.766-1.766.9.9.625-.624-.905-.905L7.34,13.366l1.209,1.209L5,18.126Zm-.9,5.524-.478-.478,2.575-2.575.478.478Zm2.733-3.69L9.168,15.2l.478.478L6.1,19.229Zm2.312,2.312L6.725,19.854,10.277,16.3l1.209,1.209ZM19.74,9.257l-7.63,7.63L7.964,12.741l1.39-1.39.905.9.624-.624-.905-.9,1.4-1.4.9.905.624-.625-.9-.9,1.4-1.4.9.9.625-.624-.905-.9,1.562-1.562Zm-.8-2.086L17.68,5.912,18.773,4.82l1.259,1.259Zm0,0" transform="translate(-0.449 0)"/>
      <path id="Trazado_126301" data-name="Trazado 126301" d="M239.848,290.629h8.8v6.245h-8.8Zm0,0" transform="translate(-222.23 -269.241)" fill="#179587"/>
      <path id="Trazado_126302" data-name="Trazado 126302" d="M247.985,203.447a4.949,4.949,0,0,1-.791-1.57h.785v-2.823h-7.055v2.823h.785a4.949,4.949,0,0,1-.791,1.57,4.324,4.324,0,0,0-.852,2.612v7.212a.488.488,0,0,0,.483.491h7.8a.488.488,0,0,0,.483-.491v-7.212A4.322,4.322,0,0,0,247.985,203.447Zm-6.178-3.509H247.1v1.056h-5.289Zm6.146,12.941h-7v-6.819a3.435,3.435,0,0,1,.671-2.077,5.892,5.892,0,0,0,1.006-2.105h3.649a5.886,5.886,0,0,0,1.006,2.105,3.436,3.436,0,0,1,.671,2.077Zm0,0" transform="translate(-222.432 -184.405)"/>
      <path id="Trazado_126303" data-name="Trazado 126303" d="M309.7,26.574,308.053,20.1,306.4,26.574a2.315,2.315,0,0,0,.382,1.983,1.555,1.555,0,0,0,2.536,0A2.316,2.316,0,0,0,309.7,26.574Zm0,0" transform="translate(-283.816 -18.618)" fill="#222b5a"/>
    </g>
    <g id="riesgo-biologico" transform="translate(294 7847)">
      <g id="Grupo_881637" data-name="Grupo 881637" transform="translate(0.558 0.558)">
        <path id="Trazado_126209" data-name="Trazado 126209" d="M26.249,8.249h-3.9L19,3.23c1.673-1.115,3.346-1.115,4.461,0A3.324,3.324,0,0,1,26.249,1a3.324,3.324,0,0,1,2.788,2.23c1.115-1.115,2.788-1.115,4.461,0L30.152,8.249Z" transform="translate(-11.751 -1)" fill="#f1b62b"/>
        <path id="Trazado_126210" data-name="Trazado 126210" d="M32.807,14v3.346H25V14h7.807Z" transform="translate(-14.405 -6.751)" fill="#ee4e5d"/>
        <path id="Trazado_126211" data-name="Trazado 126211" d="M31.338,25.844,24.4,20H16.595L9.658,25.844a10.273,10.273,0,0,0,6.619,18.133h8.442a10.273,10.273,0,0,0,6.619-18.133Zm-3.853,6.033a3.3,3.3,0,0,0-1.416-.435,3.348,3.348,0,0,0-3.017,5.236,3.4,3.4,0,0,0,1.087,1,3.334,3.334,0,0,0,1.79.441A4.452,4.452,0,0,1,20.5,36.165a4.452,4.452,0,0,1-5.431,1.952,3.334,3.334,0,0,0,1.79-.441,3.4,3.4,0,0,0,1.087-1,3.348,3.348,0,0,0-3.017-5.236,3.3,3.3,0,0,0-1.416.435,3.364,3.364,0,0,0-1.277,1.333A4.465,4.465,0,0,1,14.4,30.076a4.406,4.406,0,0,1,2.236-.591A4.458,4.458,0,0,1,17.665,23.8a3.343,3.343,0,1,0,5.844,3.229,3.265,3.265,0,0,0,.335-1.455A3.315,3.315,0,0,0,23.33,23.8a4.458,4.458,0,0,1,1.026,5.682,4.406,4.406,0,0,1,2.236.591,4.465,4.465,0,0,1,2.169,3.134,3.364,3.364,0,0,0-1.277-1.333Z" transform="translate(-6 -9.405)" fill="#f1b62b"/>
        <path id="Trazado_126212" data-name="Trazado 126212" d="M29.9,30.266a4.47,4.47,0,0,1-.6,2.236,4.406,4.406,0,0,1,2.236.591,4.465,4.465,0,0,1,2.169,3.134,3.364,3.364,0,0,0-1.277-1.333,3.3,3.3,0,0,0-1.416-.435A3.348,3.348,0,0,0,28,39.7a3.4,3.4,0,0,0,1.087,1,3.334,3.334,0,0,0,1.79.441,4.452,4.452,0,0,1-5.431-1.952,4.452,4.452,0,0,1-5.431,1.952,3.334,3.334,0,0,0,1.79-.441,3.4,3.4,0,0,0,1.087-1,3.348,3.348,0,0,0-3.017-5.236,3.3,3.3,0,0,0-1.416.435,3.364,3.364,0,0,0-1.277,1.333,4.465,4.465,0,0,1,2.169-3.134,4.406,4.406,0,0,1,2.236-.591,4.458,4.458,0,0,1,1.026-5.682,3.343,3.343,0,1,0,5.844,3.229,3.265,3.265,0,0,0,.335-1.455,3.315,3.315,0,0,0-.513-1.773A4.459,4.459,0,0,1,29.9,30.266Z" transform="translate(-10.946 -12.423)" fill="#ee4e5d"/>
      </g>
      <g id="Grupo_881638" data-name="Grupo 881638" transform="translate(0 0)">
        <path id="Trazado_126213" data-name="Trazado 126213" d="M31.255,16.569l-6.739-5.677V7.975L27.768,3.1a.557.557,0,0,0-.154-.773,4.135,4.135,0,0,0-4.554-.418,3.93,3.93,0,0,0-2.915-1.9.563.563,0,0,0-.178,0,3.931,3.931,0,0,0-2.915,1.9,4.136,4.136,0,0,0-4.555.418.557.557,0,0,0-.154.773l3.252,4.878v2.917L8.856,16.568a10.831,10.831,0,0,0,6.978,19.118h8.443a10.831,10.831,0,0,0,6.978-19.117ZM16.873,3.182a.558.558,0,0,0,.923-.218,2.7,2.7,0,0,1,2.259-1.841,2.7,2.7,0,0,1,2.259,1.841.558.558,0,0,0,.923.218,2.659,2.659,0,0,1,3.278-.216L23.661,7.249H20.614V5.018a.558.558,0,1,0-1.115,0v2.23H16.452L13.6,2.966a2.66,2.66,0,0,1,3.278.216ZM23.4,8.364v2.23H16.71V8.364Zm7.746,23.36a9.636,9.636,0,0,1-6.87,2.847H15.834a9.715,9.715,0,0,1-6.26-17.149l6.781-5.713h7.4l6.782,5.713a9.712,9.712,0,0,1,.611,14.3Z" transform="translate(-5 0.001)"/>
        <path id="Trazado_126214" data-name="Trazado 126214" d="M15.913,31.574a.557.557,0,0,0-.718-.853L13.4,32.231A8.009,8.009,0,0,0,11.26,35.05a.557.557,0,0,0,.278.738.6.6,0,0,0,.738-.278,6.893,6.893,0,0,1,1.842-2.424Z" transform="translate(-7.747 -13.532)"/>
        <path id="Trazado_126215" data-name="Trazado 126215" d="M45.97,50.069a.558.558,0,0,0-.756.221A6.936,6.936,0,0,1,39.129,53.9a.558.558,0,1,0,0,1.115,8.049,8.049,0,0,0,7.063-4.193.557.557,0,0,0-.221-.757Z" transform="translate(-19.852 -22.12)"/>
        <path id="Trazado_126216" data-name="Trazado 126216" d="M30.627,41.215a.557.557,0,0,0,.351-.632.567.567,0,0,0-.567-.448,2.749,2.749,0,0,1-2.005-.749,6.073,6.073,0,0,0,2.713-4.7,2.781,2.781,0,0,1,.587.251,2.822,2.822,0,0,1,1.066,1.114.558.558,0,0,0,1.042-.354A5,5,0,0,0,29.7,31.571a5.012,5.012,0,0,0-1.516-5.622.558.558,0,0,0-.827.727,2.765,2.765,0,0,1,.427,1.476,2.8,2.8,0,0,1-.079.659,6.277,6.277,0,0,0-5.417,0,2.794,2.794,0,0,1-.08-.659,2.765,2.765,0,0,1,.427-1.476.558.558,0,0,0-.827-.727A5.01,5.01,0,0,0,20.3,31.572,5,5,0,0,0,16.186,35.7a.558.558,0,0,0,1.042.354,2.822,2.822,0,0,1,1.062-1.111,2.785,2.785,0,0,1,.591-.253,6.074,6.074,0,0,0,2.713,4.7,2.751,2.751,0,0,1-2.005.749.558.558,0,0,0-.216,1.08,5.007,5.007,0,0,0,4.271-.351A4.977,4.977,0,0,0,25,39.718a5.009,5.009,0,0,0,5.627,1.5Zm-2.863-2.74A2.774,2.774,0,0,1,30,34.589a4.939,4.939,0,0,1-2.238,3.885Zm-.537-8.66a2.766,2.766,0,0,1-4.454,0,5.14,5.14,0,0,1,4.453,0Zm-6.573,6.991A5.007,5.007,0,0,1,20,34.589a2.776,2.776,0,0,1,2.238,3.886,5,5,0,0,1-1.583-1.669ZM26.912,39.9a3.9,3.9,0,0,1-1.429-1.434.579.579,0,0,0-.966,0,3.886,3.886,0,0,1-2.2,1.774,4.082,4.082,0,0,0,.585-.667,3.91,3.91,0,0,0-4.4-5.94,3.679,3.679,0,0,1,.675-.5,3.393,3.393,0,0,1,1.958-.517.557.557,0,0,0,.483-.836,3.9,3.9,0,0,1-.437-2.794,3.733,3.733,0,0,0,.3.862,3.9,3.9,0,0,0,7.024,0,3.762,3.762,0,0,0,.3-.862,3.9,3.9,0,0,1-.438,2.791.556.556,0,0,0,0,.559.52.52,0,0,0,.513.277,3.865,3.865,0,0,1,1.924.516,3.919,3.919,0,0,1,.677.5,3.8,3.8,0,0,0-.88-.168A3.906,3.906,0,0,0,27.1,39.574a4.011,4.011,0,0,0,.582.661,3.917,3.917,0,0,1-.768-.339Z" transform="translate(-9.945 -11.423)"/>
        <ellipse id="Elipse_5023" data-name="Elipse 5023" cx="0.558" cy="0.558" rx="0.558" ry="0.558" transform="translate(2.788 23.214)"/>
        <ellipse id="Elipse_5024" data-name="Elipse 5024" cx="1" cy="0.5" rx="1" ry="0.5" transform="translate(14 22.428)"/>
      </g>
    </g>
  </g>
</svg>
