<svg xmlns="http://www.w3.org/2000/svg" width="69" height="69" viewBox="0 0 69 69">
  <g id="Grupo_1000278" data-name="Grupo 1000278" transform="translate(-286 -7539)">
    <g id="Elipse_5547" data-name="Elipse 5547" transform="translate(286 7539)" fill="none" stroke="#222b5a" stroke-width="1">
      <circle cx="34.5" cy="34.5" r="34.5" stroke="none"/>
      <circle cx="34.5" cy="34.5" r="34" fill="none"/>
    </g>
    <g id="latido-del-corazon_1_" data-name="latido-del-corazon (1)" transform="translate(290.827 7551.25)">
      <path id="Trazado_126315" data-name="Trazado 126315" d="M93.1,21.181a13.181,13.181,0,0,0-24.579-6.619,13.181,13.181,0,0,0-24.579,6.619c0,18.446,24.579,34.331,24.579,34.331S93.1,39.627,93.1,21.181Zm0,0" transform="translate(-38.851 -6.63)" fill="#ee4e5d"/>
      <path id="Trazado_126316" data-name="Trazado 126316" d="M235.246,24.184c0,18.447-24.581,34.33-24.581,34.33a71.529,71.529,0,0,1-5.942-4.444c3.925-2.7,23.913-17.247,23.913-33.883a13.121,13.121,0,0,0-3.36-8.792,13.187,13.187,0,0,1,9.97,12.789Zm0,0" transform="translate(-180.994 -9.632)" fill="#f72b2b"/>
      <path id="Trazado_126317" data-name="Trazado 126317" d="M36.14,123.086a1.487,1.487,0,0,1-1.461-1.212l-3.631-19.288-3.864,9.182a1.487,1.487,0,0,1-2.7.091l-1.033-2.053H8.987a1.487,1.487,0,1,1,0-2.974H24.369a1.488,1.488,0,0,1,1.324.811l4.53-10.767a1.487,1.487,0,0,1,2.832.3l2.994,15.906,1.239-7.442a1.487,1.487,0,0,1,1.467-1.242h4.853a1.487,1.487,0,0,1,1.246.675l2.279,3.5.983-1.2a1.487,1.487,0,0,1,1.149-.543H63.621a1.487,1.487,0,1,1,0,2.974H49.966l-1.824,2.219a1.487,1.487,0,0,1-2.394-.132L42.8,107.373H40.015l-2.408,14.471a1.487,1.487,0,0,1-1.451,1.243H36.14Zm0,0" transform="translate(-6.631 -84.401)" fill="#f1b62b"/>
      <path id="Trazado_126318" data-name="Trazado 126318" d="M56.99,21.563H54.03a24.1,24.1,0,0,0,1.091-7.012,14.086,14.086,0,0,0-3.1-8.8.869.869,0,0,0-1.355,1.09,12.176,12.176,0,0,1,2.715,7.711,22.6,22.6,0,0,1-1.176,7.012H49.453a.869.869,0,0,0,0,1.739H56.99a.618.618,0,0,1,0,1.235H43.336a.87.87,0,0,0-.671.317l-1.824,2.22a.618.618,0,0,1-.995-.055L36.9,22.5a.869.869,0,0,0-.729-.395H33.384a.869.869,0,0,0-.858.727L30.119,37.3a.614.614,0,0,1-.593.516H29.51a.617.617,0,0,1-.607-.5L25.272,18.024a.87.87,0,0,0-1.656-.176l-3.864,9.182a.618.618,0,0,1-1.121.038L17.6,25.015a.87.87,0,0,0-.777-.479H2.356a.618.618,0,1,1,0-1.235H17.738a.615.615,0,0,1,.55.337.869.869,0,0,0,1.576-.058l4.53-10.767a.622.622,0,0,1,.635-.374.614.614,0,0,1,.542.5l2.994,15.906a.869.869,0,0,0,.854.708h.009a.87.87,0,0,0,.849-.726l1.238-7.443a.616.616,0,0,1,.609-.516h4.852a.614.614,0,0,1,.517.28l2.279,3.5a.87.87,0,0,0,1.4.077l.982-1.2a.617.617,0,0,1,.477-.225h2.858a.869.869,0,0,0,0-1.739H42.633a2.348,2.348,0,0,0-1.82.86l-.23.28-1.631-2.5a2.348,2.348,0,0,0-1.974-1.07H32.124A2.349,2.349,0,0,0,29.8,21.1l-.434,2.607L27.279,12.617a2.342,2.342,0,0,0-2.066-1.907,2.37,2.37,0,0,0-2.421,1.429l-4.058,9.643a2.36,2.36,0,0,0-1-.219H7.139a22.591,22.591,0,0,1-1.176-7.012A12.311,12.311,0,0,1,28.921,8.369a.869.869,0,0,0,1.5,0A12.313,12.313,0,0,1,47.937,4.331a.87.87,0,0,0,.971-1.443A14.049,14.049,0,0,0,29.673,6.339,14.049,14.049,0,0,0,4.224,14.551a24.086,24.086,0,0,0,1.091,7.012H2.356a2.356,2.356,0,0,0,0,4.713H7.2a49.6,49.6,0,0,0,8.174,11.509.869.869,0,0,0,1.277-1.18,49,49,0,0,1-7.5-10.329h7.134l.792,1.575a2.356,2.356,0,0,0,4.276-.145L24.1,21.186l3.1,16.448a2.358,2.358,0,0,0,2.316,1.92h.025a2.353,2.353,0,0,0,2.3-1.969l2.287-13.745H35.7l2.689,4.126a2.356,2.356,0,0,0,3.794.21l1.563-1.9h6.447C46.881,32.583,41.572,38.047,37.6,41.588a80.921,80.921,0,0,1-7.931,6.247A81.893,81.893,0,0,1,19.389,39.4a.869.869,0,0,0-1.209,1.249A80.033,80.033,0,0,0,29.2,49.612a.87.87,0,0,0,.944,0,77.544,77.544,0,0,0,8.594-6.706c4.252-3.791,10.006-9.739,13.406-16.631H56.99a2.356,2.356,0,1,0,0-4.712Zm0,0"/>
    </g>
  </g>
</svg>
