<svg xmlns="http://www.w3.org/2000/svg" width="69" height="69" viewBox="0 0 69 69">
  <g id="Grupo_1000296" data-name="Grupo 1000296" transform="translate(-286 -9224)">
    <g id="Elipse_5560" data-name="Elipse 5560" transform="translate(286 9224)" fill="none" stroke="#222b5a" stroke-width="1">
      <circle cx="34.5" cy="34.5" r="34.5" stroke="none"/>
      <circle cx="34.5" cy="34.5" r="34" fill="none"/>
    </g>
    <g id="subasta" transform="translate(301.001 9230.333)">
      <path id="Trazado_126025" data-name="Trazado 126025" d="M382.038,376.109a4.364,4.364,0,0,1,.146,4.433,4.437,4.437,0,0,1-7.04,1.037q-.129-.129-.244-.266l-3.763-4.323,5.682-5.683,4.319,3.767A4.69,4.69,0,0,1,382.038,376.109Z" transform="translate(-338.285 -338.441)" fill="#ee4e5d"/>
      <path id="Trazado_126026" data-name="Trazado 126026" d="M352.82,347.291l-5.683,5.683-2.331-2.678.016-.014,5.32-5.32,0,0Z" transform="translate(-314.286 -314.425)" fill="#222b5a"/>
      <path id="Trazado_126027" data-name="Trazado 126027" d="M191.744,18.289a2.655,2.655,0,1,1-3.755,3.756l-7.511-7.511a2.655,2.655,0,1,1,3.756-3.755Z" transform="translate(-163.794 -9.116)" fill="#ee4e5d"/>
      <path id="Trazado_126028" data-name="Trazado 126028" d="M74.166,62.9l-3.113,3.113-.017.016-5.007,5.007-.016.017L62.9,74.169l-.626-.626-7.511-7.511-.626-.626L65.4,54.14l.626.626,7.511,7.511Z" transform="translate(-49.345 -49.348)" fill="#f1b62b"/>
      <g id="Grupo_881618" data-name="Grupo 881618" transform="translate(0.885 15.907)">
        <path id="Trazado_126029" data-name="Trazado 126029" d="M190.027,186.275l.626-.626a1.77,1.77,0,0,0-2.487-2.52l-5.04,5.04a1.77,1.77,0,0,0,2.52,2.487l.626-.626,10.707,12.3.016-.014,5.32-5.32,0,0Z" transform="translate(-167.343 -182.368)" fill="#ee4e5d"/>
        <path id="Trazado_126030" data-name="Trazado 126030" d="M33.013,455.525v.885H10v-.885a3.541,3.541,0,0,1,3.541-3.541H29.473A3.541,3.541,0,0,1,33.013,455.525Z" transform="translate(-10 -427.883)" fill="#222b5a"/>
        <path id="Trazado_126031" data-name="Trazado 126031" d="M47.259,401.987a2.213,2.213,0,1,1,0,4.426H32.212a2.213,2.213,0,1,1,0-4.426Z" transform="translate(-28.229 -382.311)" fill="#179587"/>
        <path id="Trazado_126032" data-name="Trazado 126032" d="M22.044,187.993a2.655,2.655,0,1,1-3.756,3.755l-7.51-7.51a2.655,2.655,0,0,1,3.755-3.756Z" transform="translate(-10 -179.705)" fill="#ee4e5d"/>
      </g>
      <path id="Trazado_126033" data-name="Trazado 126033" d="M100.963,171.679a.885.885,0,1,0,1.252,0A.884.884,0,0,0,100.963,171.679Z" transform="translate(-91.79 -156.247)"/>
      <path id="Trazado_126034" data-name="Trazado 126034" d="M22.412,396.92a3.1,3.1,0,0,0-2.5-4.933H4.868a3.1,3.1,0,0,0-2.495,4.932A4.429,4.429,0,0,0,0,400.838v.885a.885.885,0,0,0,.885.885H23.9a.885.885,0,0,0,.885-.885v-.885A4.429,4.429,0,0,0,22.412,396.92ZM3.929,394.146a1.319,1.319,0,0,1,.939-.389H19.915a1.328,1.328,0,1,1,0,2.655H4.868a1.328,1.328,0,0,1-.939-2.267ZM1.77,400.838a2.658,2.658,0,0,1,2.655-2.655H20.358a2.658,2.658,0,0,1,2.655,2.655Z" transform="translate(0 -357.29)"/>
      <path id="Trazado_126035" data-name="Trazado 126035" d="M44.515,37.189a5.574,5.574,0,0,0-1.066-1.224l-4.136-3.607a.879.879,0,0,0-.352-.307l-2.5-2.181L24.883,19.77a2.651,2.651,0,0,0-.777-4.228l1.071-1.071a3.543,3.543,0,0,0,3.418-.915,3.54,3.54,0,0,0,0-5.007l-7.51-7.51a3.539,3.539,0,0,0-5.922,3.418L4.476,15.142a3.562,3.562,0,0,0-.916-.12,3.54,3.54,0,0,0-2.5,6.044l7.51,7.51a3.539,3.539,0,0,0,5.922-3.418l1.069-1.069a2.656,2.656,0,0,0,4.229.776L32.118,39.033a.889.889,0,0,0,.12.15c.016.016.033.03.049.045l3.674,4.222c.091.108.189.214.29.315a5.265,5.265,0,0,0,3.742,1.556,5.434,5.434,0,0,0,.745-.052,5.356,5.356,0,0,0,3.952-2.736A5.238,5.238,0,0,0,44.515,37.189ZM31.751,35.915l4.169-4.169,1.337,1.166-4.341,4.341Zm-10.708-12.3,2.587-2.587,10.953,9.554-4,4ZM17.329,2.29a1.77,1.77,0,0,1,2.5,0l7.51,7.51a1.77,1.77,0,0,1-2.5,2.5L17.329,4.794h0A1.772,1.772,0,0,1,17.329,2.29ZM12.322,27.325a1.773,1.773,0,0,1-2.5,0l-7.51-7.51a1.77,1.77,0,0,1,2.5-2.5l7.512,7.512A1.772,1.772,0,0,1,12.322,27.325ZM6.063,16.059,16.077,6.045l7.511,7.511-2.48,2.48-.024.023-5,5-.031.032L13.574,23.57Zm11.892,7.77a.885.885,0,0,1-.637-1.5L22.346,17.3a.885.885,0,0,1,1.5.636.877.877,0,0,1-.26.626l-.62.62-.013.013L19.21,22.942l-.005.005-.623.623A.88.88,0,0,1,17.955,23.829ZM43.146,41.669a3.6,3.6,0,0,1-2.65,1.847,3.517,3.517,0,0,1-2.992-1c-.068-.068-.133-.139-.194-.211l-.009-.01-3.22-3.7,4.514-4.514,3.7,3.223.008.007a3.81,3.81,0,0,1,.73.84A3.5,3.5,0,0,1,43.146,41.669Z" transform="translate(-0.019 -0.001)"/>
      <path id="Trazado_126036" data-name="Trazado 126036" d="M134.252,100.966a.885.885,0,0,0-1.252,0l-3.756,3.756a.885.885,0,1,0,1.252,1.252l3.756-3.756A.885.885,0,0,0,134.252,100.966Z" transform="translate(-117.568 -91.793)"/>
    </g>
  </g>
</svg>
