<svg xmlns="http://www.w3.org/2000/svg" width="69" height="69" viewBox="0 0 69 69">
  <g id="Grupo_1000292" data-name="Grupo 1000292" transform="translate(-286 -8844)">
    <g id="Elipse_5562" data-name="Elipse 5562" transform="translate(286 8844)" fill="none" stroke="#222b5a" stroke-width="1">
      <circle cx="34.5" cy="34.5" r="34.5" stroke="none"/>
      <circle cx="34.5" cy="34.5" r="34" fill="none"/>
    </g>
    <g id="Grupo_994719" data-name="Grupo 994719" transform="translate(-3.79 240.256)">
      <g id="Grupo_994718" data-name="Grupo 994718" transform="translate(299.581 8616.726)">
        <path id="Trazado_126493" data-name="Trazado 126493" d="M23.726,7.485A10.271,10.271,0,0,1,42.812,9.919c.095-.008.19-.016.285-.016a6.323,6.323,0,0,1,0,12.645H24.129v-.126a7.771,7.771,0,0,0-7.777-7.777H7.722a2.56,2.56,0,0,0-2.561,2.561,2.59,2.59,0,0,0,.269,1.138l.522,1.043L4.877,20.1A2.944,2.944,0,0,0,3.9,21.2a5.535,5.535,0,0,1,3.628-9.713,5.654,5.654,0,0,1,1.834.316,8.691,8.691,0,0,1,14.36-4.315Z" transform="translate(-2 -2)" fill="#222b5a" stroke="#000" stroke-width="1"/>
      </g>
      <g id="Device" transform="translate(301.22 8624.031)">
        <g id="Grupo_901175" data-name="Grupo 901175" transform="translate(0)">
          <g id="Grupo_901174" data-name="Grupo 901174">
            <g id="Grupo_901161" data-name="Grupo 901161">
              <g id="Grupo_901160" data-name="Grupo 901160">
                <g id="Grupo_901156" data-name="Grupo 901156">
                  <g id="Grupo_901155" data-name="Grupo 901155">
                    <g id="Grupo_901154" data-name="Grupo 901154">
                      <g id="Grupo_901153" data-name="Grupo 901153">
                        <g id="Grupo_901152" data-name="Grupo 901152">
                          <g id="Grupo_901140" data-name="Grupo 901140">
                            <g id="Grupo_901139" data-name="Grupo 901139">
                              <g id="Grupo_901138" data-name="Grupo 901138">
                                <g id="Grupo_901137" data-name="Grupo 901137">
                                  <g id="Grupo_901136" data-name="Grupo 901136">
                                    <g id="Grupo_901135" data-name="Grupo 901135">
                                      <g id="Grupo_901134" data-name="Grupo 901134">
                                        <g id="Grupo_901133" data-name="Grupo 901133">
                                          <g id="Grupo_901132" data-name="Grupo 901132">
                                            <g id="Grupo_901131" data-name="Grupo 901131">
                                              <g id="Grupo_901130" data-name="Grupo 901130">
                                                <g id="Grupo_901129" data-name="Grupo 901129">
                                                  <path id="Trazado_649533" data-name="Trazado 649533" d="M93.405,295.89H71.483a1.093,1.093,0,0,1-1.074-1.111V261.27a1.093,1.093,0,0,1,1.074-1.111H93.405a1.093,1.093,0,0,1,1.074,1.111v33.509A1.093,1.093,0,0,1,93.405,295.89Z" transform="translate(-70.409 -260.159)" fill="#179587" stroke="#000" stroke-width="1"/>
                                                </g>
                                              </g>
                                            </g>
                                          </g>
                                        </g>
                                      </g>
                                    </g>
                                  </g>
                                </g>
                              </g>
                            </g>
                          </g>
                          <g id="Grupo_901151" data-name="Grupo 901151" transform="translate(10.413 33.103)">
                            <g id="Grupo_901150" data-name="Grupo 901150">
                              <g id="Grupo_901149" data-name="Grupo 901149">
                                <g id="Grupo_901148" data-name="Grupo 901148">
                                  <g id="Grupo_901147" data-name="Grupo 901147">
                                    <g id="Grupo_901146" data-name="Grupo 901146">
                                      <g id="Grupo_901145" data-name="Grupo 901145">
                                        <g id="Grupo_901144" data-name="Grupo 901144">
                                          <g id="Grupo_901143" data-name="Grupo 901143">
                                            <g id="Grupo_901142" data-name="Grupo 901142">
                                              <g id="Grupo_901141" data-name="Grupo 901141">
                                                <path id="Trazado_649534" data-name="Trazado 649534" d="M135.824,462.618a1.021,1.021,0,1,1-1.021-1A1.012,1.012,0,0,1,135.824,462.618Z" transform="translate(-133.782 -461.616)" fill="#179587" stroke="#000" stroke-width="1"/>
                                              </g>
                                            </g>
                                          </g>
                                        </g>
                                      </g>
                                    </g>
                                  </g>
                                </g>
                              </g>
                            </g>
                          </g>
                        </g>
                      </g>
                    </g>
                  </g>
                </g>
                <g id="Grupo_901159" data-name="Grupo 901159" transform="translate(9.243 1.179)">
                  <g id="Grupo_901158" data-name="Grupo 901158">
                    <g id="Grupo_901157" data-name="Grupo 901157">
                      <path id="Trazado_649535" data-name="Trazado 649535" d="M131.916,268.043H127a.349.349,0,0,1-.343-.355h0a.349.349,0,0,1,.343-.355h4.916a.349.349,0,0,1,.343.355h0A.349.349,0,0,1,131.916,268.043Z" transform="translate(-126.657 -267.334)" fill="#455a64"/>
                    </g>
                  </g>
                </g>
              </g>
            </g>
            <g id="Grupo_901173" data-name="Grupo 901173" transform="translate(0.738 2.549)">
              <g id="Grupo_901172" data-name="Grupo 901172">
                <g id="Grupo_901171" data-name="Grupo 901171">
                  <g id="Grupo_901170" data-name="Grupo 901170">
                    <g id="Grupo_901169" data-name="Grupo 901169">
                      <g id="Grupo_901168" data-name="Grupo 901168">
                        <g id="Grupo_901167" data-name="Grupo 901167">
                          <g id="Grupo_901166" data-name="Grupo 901166">
                            <g id="Grupo_901165" data-name="Grupo 901165">
                              <g id="Grupo_901164" data-name="Grupo 901164">
                                <g id="Grupo_901163" data-name="Grupo 901163">
                                  <g id="Grupo_901162" data-name="Grupo 901162">
                                    <rect id="Rectángulo_302112" data-name="Rectángulo 302112" width="22.552" height="29.84" fill="#fff"/>
                                  </g>
                                </g>
                              </g>
                            </g>
                          </g>
                        </g>
                      </g>
                    </g>
                  </g>
                </g>
              </g>
            </g>
            <rect id="Rectángulo_302113" data-name="Rectángulo 302113" width="0.962" height="29.84" transform="translate(22.329 2.549)" fill="#f5f5f5"/>
            <path id="Trazado_649536" data-name="Trazado 649536" d="M207.7,304.3h0a.3.3,0,0,1-.3-.3v-6.6a.3.3,0,0,1,.3-.3h0a.3.3,0,0,1,.3.3V304A.3.3,0,0,1,207.7,304.3Z" transform="translate(-184.886 -291.026)" fill="#e0e0e0"/>
          </g>
          <path id="Trazado_649537" data-name="Trazado 649537" d="M107.249,312.135H90.62a.478.478,0,0,1-.478-.478h0a.478.478,0,0,1,.478-.478h16.629a.478.478,0,0,1,.478.478h0A.478.478,0,0,1,107.249,312.135Z" transform="translate(-86.899 -302.795)" fill="#f1b62b" stroke="#000" stroke-width="0.5"/>
          <path id="Trazado_649538" data-name="Trazado 649538" d="M123.055,290.895h-10.46a.478.478,0,0,1-.478-.478h0a.478.478,0,0,1,.478-.478h10.46a.478.478,0,0,1,.478.478h0A.478.478,0,0,1,123.055,290.895Z" transform="translate(-105.263 -285.045)" fill="#ee4e5d" stroke="#000" stroke-width="0.5"/>
          <path id="Trazado_649539" data-name="Trazado 649539" d="M116.9,323.852H104.99a.478.478,0,0,1-.478-.478h0a.478.478,0,0,1,.478-.478H116.9a.478.478,0,0,1,.478.478h0A.478.478,0,0,1,116.9,323.852Z" transform="translate(-98.908 -312.586)" fill="#f1b62b" stroke="#000" stroke-width="0.5"/>
          <path id="Trazado_649540" data-name="Trazado 649540" d="M98.147,374.93H88.986a.478.478,0,0,1-.478-.478h0a.478.478,0,0,1,.478-.478h9.161a.478.478,0,0,1,.478.478h0A.478.478,0,0,1,98.147,374.93Z" transform="translate(-85.534 -355.271)" fill="#f1b62b" stroke="#000" stroke-width="0.5"/>
          <path id="Trazado_649541" data-name="Trazado 649541" d="M105.615,362.74H88.986a.478.478,0,0,1-.478-.478h0a.478.478,0,0,1,.478-.478h16.629a.478.478,0,0,1,.478.478h0A.478.478,0,0,1,105.615,362.74Z" transform="translate(-85.534 -345.084)" fill="#f1b62b" stroke="#000" stroke-width="0.5"/>
          <rect id="Rectángulo_302114" data-name="Rectángulo 302114" width="15.512" height="0.957" rx="0.478" transform="translate(5.048 23.151)" fill="#f1b62b" stroke="#000" stroke-width="0.5"/>
          <path id="Trazado_649542" data-name="Trazado 649542" d="M105.615,414.448H88.986a.478.478,0,0,1-.478-.478h0a.478.478,0,0,1,.478-.478h16.629a.478.478,0,0,1,.478.478h0A.478.478,0,0,1,105.615,414.448Z" transform="translate(-85.534 -388.296)" fill="#f1b62b" stroke="#000" stroke-width="0.5"/>
          <path id="Trazado_649543" data-name="Trazado 649543" d="M105.615,427.084H88.986a.478.478,0,0,1-.478-.478h0a.478.478,0,0,1,.478-.478h16.629a.478.478,0,0,1,.478.478h0A.478.478,0,0,1,105.615,427.084Z" transform="translate(-85.534 -398.855)" fill="#f1b62b" stroke="#000" stroke-width="0.5"/>
          <path id="Trazado_649544" data-name="Trazado 649544" d="M90.921,401.433a.5.5,0,1,1-.5-.5A.5.5,0,0,1,90.921,401.433Z" transform="translate(-86.72 -377.804)" fill="#ee4e5d"/>
          <path id="Trazado_649545" data-name="Trazado 649545" d="M116.161,351.371H101.606a.478.478,0,0,1-.478-.478h0a.478.478,0,0,1,.478-.478h14.555a.478.478,0,0,1,.478.478h0A.478.478,0,0,1,116.161,351.371Z" transform="translate(-96.08 -335.583)" fill="#f1b62b" stroke="#000" stroke-width="0.5"/>
          <circle id="Elipse_5633" data-name="Elipse 5633" cx="0.497" cy="0.497" r="0.497" transform="translate(3.207 14.812)" fill="#ee4e5d"/>
          <path id="Trazado_649546" data-name="Trazado 649546" d="M166.936,442.709H163.2a.762.762,0,0,1-.762-.762h0a.762.762,0,0,1,.762-.762h3.731a.762.762,0,0,1,.762.762h0A.762.762,0,0,1,166.936,442.709Z" transform="translate(-147.319 -411.438)" fill="#ee4e5d" stroke="#000" stroke-width="0.5"/>
        </g>
      </g>
    </g>
  </g>
</svg>
