<svg xmlns="http://www.w3.org/2000/svg" width="69" height="69" viewBox="0 0 69 69">
  <g id="Grupo_1000288" data-name="Grupo 1000288" transform="translate(-1328 -8471)">
    <g id="Elipse_5556" data-name="Elipse 5556" transform="translate(1328 8471)" fill="none" stroke="#222b5a" stroke-width="1">
      <circle cx="34.5" cy="34.5" r="34.5" stroke="none"/>
      <circle cx="34.5" cy="34.5" r="34" fill="none"/>
    </g>
    <g id="hospital" transform="translate(1338.867 8482.373)">
      <g id="Grupo_881663" data-name="Grupo 881663" transform="translate(4.525 13.864)">
        <path id="Trazado_126282" data-name="Trazado 126282" d="M52.356,161.332V151.243a1.8,1.8,0,0,0-1.8-1.8h-.063a1.8,1.8,0,0,0-1.738,1.8v10.516l0,0" transform="translate(-48.754 -149.442)" fill="#febb8e"/>
        <path id="Trazado_126283" data-name="Trazado 126283" d="M91.182,191.122V180.068a1.8,1.8,0,0,0-1.8-1.8h-.063a1.8,1.8,0,0,0-1.738,1.8v7.414" transform="translate(-83.978 -175.593)" fill="#febb8e"/>
        <path id="Trazado_126284" data-name="Trazado 126284" d="M130.008,245.861V238.6a1.8,1.8,0,0,0-1.8-1.8h-.063a1.8,1.8,0,0,0-1.738,1.8v5.643" transform="translate(-119.202 -228.696)" fill="#febb8e"/>
      </g>
      <g id="Grupo_881664" data-name="Grupo 881664" transform="translate(0.929 15.164)">
        <path id="Trazado_126285" data-name="Trazado 126285" d="M10.023,164.932a1.69,1.69,0,0,1,1.86-1.48A1.834,1.834,0,0,1,13.6,165.3v9.165l14.668,6.581a3.6,3.6,0,0,1,2.217,3.325v10.486H20.576v-5.693l-4.029-2.3A5.5,5.5,0,0,1,14,184.547l-2.821-4.994a9.093,9.093,0,0,1-1.176-4.5C10.01,172.053,10.023,167.054,10.023,164.932Z" transform="translate(-10.002 -163.449)" fill="#fcd5a2"/>
        <path id="Trazado_126286" data-name="Trazado 126286" d="M51.961,275.314l-3.773-4.062a1.986,1.986,0,0,1,0-2.79l.16-.145a1.986,1.986,0,0,1,2.667.148l8.476,8.565" transform="translate(-44.127 -258.185)" fill="#fcd5a2"/>
      </g>
      <path id="Trazado_126287" data-name="Trazado 126287" d="M19.561,158.416l-3.3-1.482v-6.659a2.732,2.732,0,0,0-2.729-2.729l-.094,0h0a2.754,2.754,0,0,0-.779.139v-2.843a2.732,2.732,0,0,0-2.729-2.729l-.094,0h0a2.751,2.751,0,0,0-.779.14v-.087a2.732,2.732,0,0,0-2.729-2.729H6.231a2.717,2.717,0,0,0-2.37,1.548,2.68,2.68,0,0,0-1.007-.247,2.912,2.912,0,0,0-2.108.773,2.251,2.251,0,0,0-.723,1.634c0,2.149-.013,7.263-.021,10.12a10.04,10.04,0,0,0,1.3,4.957l2.821,4.994a6.474,6.474,0,0,0,2.934,2.689l3.523,2.012v5.154a.928.928,0,0,0,.928.928h9.906a.928.928,0,0,0,.928-.928V162.592A4.517,4.517,0,0,0,19.561,158.416ZM13.495,149.4h.035a.874.874,0,0,1,.873.873V156.1l-1.747-.784v-5.043A.869.869,0,0,1,13.495,149.4Zm-3.6-5.43h.035a.874.874,0,0,1,.873.873v8.8l-1.747-1.765v-7.033A.869.869,0,0,1,9.893,143.972Zm-4.44-1.8a.869.869,0,0,1,.837-.873h.036a.874.874,0,0,1,.873.873v8.365a2.894,2.894,0,0,0-1.747.051Zm15.029,29.98h-8.05v-4.765a.928.928,0,0,0-.468-.806l-4.029-2.3c-.027-.015-.054-.029-.082-.041a4.6,4.6,0,0,1-2.118-1.927l-2.821-4.994a8.183,8.183,0,0,1-1.056-4.04c.008-2.858.021-7.974.021-10.125a.409.409,0,0,1,.149-.291,1.044,1.044,0,0,1,.74-.262.91.91,0,0,1,.83.923v9.043a2.959,2.959,0,0,0-.071.328,2.928,2.928,0,0,0,.792,2.485l3.765,4.053a.928.928,0,1,0,1.359-1.263l-3.792-4.081a1.058,1.058,0,0,1-.012-1.474l.115-.1a1.053,1.053,0,0,1,1.406.094l8.476,8.565a.928.928,0,0,0,1.319-1.305l-1.034-1.045,2.892,1.3.023.01a2.667,2.667,0,0,1,1.646,2.469v9.558Z" transform="translate(0 -126.505)"/>
      <path id="Trazado_126288" data-name="Trazado 126288" d="M109.07,365.448a.921.921,0,0,1-.182-.019.958.958,0,0,1-.173-.053.942.942,0,0,1-.16-.085.884.884,0,0,1-.141-.115.894.894,0,0,1-.116-.141.953.953,0,0,1-.085-.16.94.94,0,0,1-.053-.173.942.942,0,0,1,0-.363.936.936,0,0,1,.053-.173A.987.987,0,0,1,108.3,364a.926.926,0,0,1,1.126-.341.955.955,0,0,1,.16.085.892.892,0,0,1,.141.116.928.928,0,0,1,.115.14.994.994,0,0,1,.085.161.91.91,0,0,1,.053.536.938.938,0,0,1-.053.173.975.975,0,0,1-.085.16.9.9,0,0,1-.256.256.951.951,0,0,1-.16.085.936.936,0,0,1-.173.053A.919.919,0,0,1,109.07,365.448Z" transform="translate(-98.108 -329.86)"/>
      <g id="Grupo_881665" data-name="Grupo 881665" transform="translate(32.173 13.864)">
        <path id="Trazado_126289" data-name="Trazado 126289" d="M424.424,161.332V151.243a1.8,1.8,0,0,1,1.8-1.8h.063a1.8,1.8,0,0,1,1.738,1.8v10.516l0,0" transform="translate(-417.22 -149.442)" fill="#febb8e"/>
        <path id="Trazado_126290" data-name="Trazado 126290" d="M385.6,191.122V180.068a1.8,1.8,0,0,1,1.8-1.8h.063a1.8,1.8,0,0,1,1.738,1.8v7.414" transform="translate(-381.996 -175.593)" fill="#febb8e"/>
        <path id="Trazado_126291" data-name="Trazado 126291" d="M346.772,245.861V238.6a1.8,1.8,0,0,1,1.8-1.8h.063a1.8,1.8,0,0,1,1.738,1.8v5.643" transform="translate(-346.772 -228.696)" fill="#febb8e"/>
      </g>
      <g id="Grupo_881666" data-name="Grupo 881666" transform="translate(26.095 15.164)">
        <path id="Trazado_126292" data-name="Trazado 126292" d="M301.712,164.932a1.69,1.69,0,0,0-1.86-1.48,1.834,1.834,0,0,0-1.714,1.85v9.165l-14.668,6.581a3.6,3.6,0,0,0-2.217,3.325v10.486h9.906v-5.693l4.029-2.3a5.5,5.5,0,0,0,2.548-2.318l2.821-4.994a9.094,9.094,0,0,0,1.176-4.5C301.725,172.053,301.712,167.054,301.712,164.932Z" transform="translate(-281.253 -163.449)" fill="#fcd5a2"/>
        <path id="Trazado_126293" data-name="Trazado 126293" d="M343.906,275.314l3.773-4.062a1.986,1.986,0,0,0,0-2.79l-.16-.145a1.986,1.986,0,0,0-2.667.148l-8.476,8.565" transform="translate(-331.26 -258.185)" fill="#fcd5a2"/>
      </g>
      <path id="Trazado_126294" data-name="Trazado 126294" d="M293.564,143.151a2.251,2.251,0,0,0-.723-1.634,2.91,2.91,0,0,0-2.108-.773,2.681,2.681,0,0,0-1.007.247,2.717,2.717,0,0,0-2.37-1.548h-.094a2.732,2.732,0,0,0-2.729,2.729v.087a2.758,2.758,0,0,0-.779-.14h0l-.094,0a2.732,2.732,0,0,0-2.729,2.729v2.843a2.755,2.755,0,0,0-.779-.139h0l-.094,0a2.732,2.732,0,0,0-2.729,2.729v6.659l-3.3,1.482a4.517,4.517,0,0,0-2.775,4.176v10.486a.928.928,0,0,0,.928.928h9.906a.928.928,0,0,0,.928-.928v-5.154l3.523-2.012a6.474,6.474,0,0,0,2.934-2.689l2.821-4.994a10.042,10.042,0,0,0,1.3-4.957C293.578,150.408,293.564,145.286,293.564,143.151Zm-7.176-.981a.873.873,0,0,1,.867-.873h.043a.869.869,0,0,1,.837.873v8.415a2.9,2.9,0,0,0-1.747-.051Zm-3.6,2.674a.873.873,0,0,1,.868-.873h.041a.869.869,0,0,1,.838.873v7.033l-1.747,1.765v-8.8Zm-3.6,5.43a.873.873,0,0,1,.868-.873h.041a.869.869,0,0,1,.838.873v5.043l-1.747.784v-5.826Zm11.49,7.041-2.821,4.994a4.6,4.6,0,0,1-2.118,1.927q-.042.019-.082.041l-4.029,2.3a.928.928,0,0,0-.468.806v4.765h-8.05v-9.558a2.667,2.667,0,0,1,1.646-2.469l.023-.01,2.892-1.3-1.034,1.045a.928.928,0,1,0,1.319,1.305l8.477-8.566a1.053,1.053,0,0,1,1.4-.092l.114.1a1.058,1.058,0,0,1-.011,1.474l-3.792,4.081a.928.928,0,0,0,1.359,1.263l3.765-4.053a2.92,2.92,0,0,0,.722-2.813V143.52a.91.91,0,0,1,.83-.923,1.039,1.039,0,0,1,.74.262.409.409,0,0,1,.149.291c0,2.137.013,7.261.021,10.125A8.181,8.181,0,0,1,290.674,157.316Z" transform="translate(-246.083 -126.504)"/>
      <path id="Trazado_126295" data-name="Trazado 126295" d="M384.79,365.442a.911.911,0,0,1-.181-.019.935.935,0,0,1-.174-.053.916.916,0,0,1-.16-.085.9.9,0,0,1-.256-.256.955.955,0,0,1-.085-.16.939.939,0,0,1-.053-.174.9.9,0,0,1,0-.363.936.936,0,0,1,.053-.173.985.985,0,0,1,.085-.16.929.929,0,0,1,.115-.14.891.891,0,0,1,.141-.116.92.92,0,0,1,.16-.085.942.942,0,0,1,.174-.053.917.917,0,0,1,.363,0,.985.985,0,0,1,.173.053.948.948,0,0,1,.16.085.891.891,0,0,1,.141.116.9.9,0,0,1,.2.3.936.936,0,0,1,.053.173.943.943,0,0,1,0,.363.939.939,0,0,1-.053.174.984.984,0,0,1-.085.16.949.949,0,0,1-.116.141.883.883,0,0,1-.141.115.94.94,0,0,1-.16.085.98.98,0,0,1-.173.053A.921.921,0,0,1,384.79,365.442Z" transform="translate(-348.248 -329.854)"/>
      <circle id="Elipse_5029" data-name="Elipse 5029" cx="11.081" cy="11.081" r="11.081" transform="translate(12.671 0.928)" fill="#179587"/>
      <path id="Trazado_126296" data-name="Trazado 126296" d="M138.569,24.018a12.009,12.009,0,1,1,12.009-12.009A12.022,12.022,0,0,1,138.569,24.018Zm0-22.162a10.153,10.153,0,1,0,10.153,10.153A10.165,10.165,0,0,0,138.569,1.855Z" transform="translate(-114.817 0)"/>
      <path id="Trazado_126297" data-name="Trazado 126297" d="M202.541,67.689h-3.887V63.8h-4.405v3.887h-3.887v4.405h3.887v3.887h4.405V72.094h3.887Z" transform="translate(-172.7 -57.883)" fill="#ee4e5d"/>
      <path id="Trazado_126298" data-name="Trazado 126298" d="M189.582,67.837h-4.405a.928.928,0,0,1-.928-.928V63.95H181.29a.928.928,0,0,1-.928-.928V58.617a.928.928,0,0,1,.928-.928h2.959V54.73a.928.928,0,0,1,.928-.928h4.405a.928.928,0,0,1,.928.928v2.959h2.959a.928.928,0,0,1,.928.928v4.405a.928.928,0,0,1-.928.928H190.51v2.959A.928.928,0,0,1,189.582,67.837ZM186.1,65.981h2.55V63.022a.928.928,0,0,1,.928-.928h2.959v-2.55h-2.959a.928.928,0,0,1-.928-.928V55.657H186.1v2.959a.928.928,0,0,1-.928.928h-2.959v2.55h2.959a.928.928,0,0,1,.928.928Z" transform="translate(-163.628 -48.811)"/>
    </g>
  </g>
</svg>
