<svg xmlns="http://www.w3.org/2000/svg" xmlns:xlink="http://www.w3.org/1999/xlink" width="836.042" height="600.84" viewBox="0 0 836.042 600.84">
  <defs>
    <filter id="Elipse_5576" x="590.56" y="243.702" width="192.557" height="192.557" filterUnits="userSpaceOnUse">
      <feOffset dx="3" dy="3" input="SourceAlpha"/>
      <feGaussianBlur stdDeviation="1.5" result="blur"/>
      <feFlood flood-opacity="0.161"/>
      <feComposite operator="in" in2="blur"/>
      <feComposite in="SourceGraphic"/>
    </filter>
    <filter id="Elipse_5717" x="318.491" y="209.705" width="173.362" height="173.362" filterUnits="userSpaceOnUse">
      <feOffset dx="3" dy="3" input="SourceAlpha"/>
      <feGaussianBlur stdDeviation="1.5" result="blur-2"/>
      <feFlood flood-opacity="0.161"/>
      <feComposite operator="in" in2="blur-2"/>
      <feComposite in="SourceGraphic"/>
    </filter>
    <filter id="Elipse_5718" x="59.97" y="59.97" width="197.737" height="197.737" filterUnits="userSpaceOnUse">
      <feOffset dx="3" dy="3" input="SourceAlpha"/>
      <feGaussianBlur stdDeviation="1.5" result="blur-3"/>
      <feFlood flood-opacity="0.161"/>
      <feComposite operator="in" in2="blur-3"/>
      <feComposite in="SourceGraphic"/>
    </filter>
    <filter id="Elipse_5719" x="513.09" y="51.875" width="123.977" height="123.978" filterUnits="userSpaceOnUse">
      <feOffset dx="3" dy="3" input="SourceAlpha"/>
      <feGaussianBlur stdDeviation="1.5" result="blur-4"/>
      <feFlood flood-opacity="0.161"/>
      <feComposite operator="in" in2="blur-4"/>
      <feComposite in="SourceGraphic"/>
    </filter>
    <filter id="Elipse_5721" x="72.522" y="343.293" width="117.631" height="117.631" filterUnits="userSpaceOnUse">
      <feOffset dx="3" dy="3" input="SourceAlpha"/>
      <feGaussianBlur stdDeviation="1.5" result="blur-5"/>
      <feFlood flood-opacity="0.161"/>
      <feComposite operator="in" in2="blur-5"/>
      <feComposite in="SourceGraphic"/>
    </filter>
    <filter id="Elipse_5722" x="429.087" y="446.513" width="123.977" height="123.978" filterUnits="userSpaceOnUse">
      <feOffset dx="3" dy="3" input="SourceAlpha"/>
      <feGaussianBlur stdDeviation="1.5" result="blur-6"/>
      <feFlood flood-opacity="0.161"/>
      <feComposite operator="in" in2="blur-6"/>
      <feComposite in="SourceGraphic"/>
    </filter>
    <filter id="Elipse_5723" x="239.775" y="438.96" width="100.787" height="100.787" filterUnits="userSpaceOnUse">
      <feOffset dx="3" dy="3" input="SourceAlpha"/>
      <feGaussianBlur stdDeviation="1.5" result="blur-7"/>
      <feFlood flood-opacity="0.161"/>
      <feComposite operator="in" in2="blur-7"/>
      <feComposite in="SourceGraphic"/>
    </filter>
  </defs>
  <g id="Grupo_1000268" data-name="Grupo 1000268" transform="translate(-381 -5983.58)">
    <g id="Grupo_994715" data-name="Grupo 994715" transform="translate(-1 239)">
      <g id="Grupo_994708" data-name="Grupo 994708" transform="translate(-37.958 1)">
        <g id="Grupo_994704" data-name="Grupo 994704" transform="translate(-6.765 30)">
          <g id="Grupo_994693" data-name="Grupo 994693" transform="translate(959 5899)">
            <path id="Trazado_650760" data-name="Trazado 650760" d="M1020.937,948.209a2.356,2.356,0,0,0-2.723-.263l-24.843,14.329a124.939,124.939,0,0,0-38.38-12.856L943.78,923.043a2.356,2.356,0,0,0-2.333-1.429l-34.317,2.4a2.358,2.358,0,0,0-2.112,1.74l-7.43,27.681a124.928,124.928,0,0,0-36.217,18.074l-26.6-10.732a2.357,2.357,0,0,0-2.66.639l-22.569,25.963a2.355,2.355,0,0,0-.263,2.723l14.329,24.843a124.939,124.939,0,0,0-12.856,38.381l-26.378,11.211a2.357,2.357,0,0,0-1.429,2.333l2.4,34.318a2.356,2.356,0,0,0,1.74,2.111l27.682,7.43a124.915,124.915,0,0,0,18.073,36.217l-10.732,26.6a2.357,2.357,0,0,0,.64,2.66l25.963,22.569a2.356,2.356,0,0,0,2.723.263l24.843-14.33a124.909,124.909,0,0,0,38.38,12.856l11.211,26.378a2.356,2.356,0,0,0,2.333,1.429l34.318-2.4a2.355,2.355,0,0,0,2.111-1.74l7.43-27.681a124.906,124.906,0,0,0,36.217-18.073l26.6,10.731a2.356,2.356,0,0,0,2.661-.639l22.568-25.963a2.356,2.356,0,0,0,.263-2.723l-14.329-24.843a124.934,124.934,0,0,0,12.856-38.38l26.378-11.211a2.355,2.355,0,0,0,1.428-2.333l-2.4-34.317a2.356,2.356,0,0,0-1.74-2.112l-27.681-7.43a124.942,124.942,0,0,0-18.073-36.217l10.731-26.6a2.356,2.356,0,0,0-.639-2.66Z" transform="translate(-782.944 -921.608)" fill="#ee4e5d"/>
          </g>
          <g transform="matrix(1, 0, 0, 1, 426.72, 5713.58)" filter="url(#Elipse_5576)">
            <circle id="Elipse_5576-2" data-name="Elipse 5576" cx="91.778" cy="91.778" r="91.778" transform="translate(592.06 245.2)" fill="#fff"/>
          </g>
          <text id="POT" transform="translate(1018.782 6033.956)" fill="#12263f" font-size="28" font-family="Roboto-Bold, Roboto" font-weight="700"><tspan x="64.581" y="29">POT</tspan></text>
        </g>
        <g id="Grupo_994702" data-name="Grupo 994702" transform="translate(-38.817 -37.084)">
          <g id="Grupo_994694" data-name="Grupo 994694" transform="translate(725.235 5938.338)">
            <path id="Trazado_650760-2" data-name="Trazado 650760" d="M996.05,945.428a2.11,2.11,0,0,0-2.438-.235l-22.245,12.831A111.875,111.875,0,0,0,937,946.512l-10.039-23.619a2.11,2.11,0,0,0-2.089-1.28l-30.729,2.149a2.111,2.111,0,0,0-1.891,1.558L885.6,950.107a111.865,111.865,0,0,0-32.43,16.184l-23.815-9.609a2.11,2.11,0,0,0-2.382.572L806.764,980.5a2.109,2.109,0,0,0-.235,2.439l12.831,22.245a111.872,111.872,0,0,0-11.511,34.367l-23.619,10.039a2.11,2.11,0,0,0-1.28,2.089l2.149,30.729a2.11,2.11,0,0,0,1.558,1.89l24.787,6.653a111.854,111.854,0,0,0,16.183,32.43l-9.609,23.816a2.11,2.11,0,0,0,.573,2.382l23.248,20.209a2.109,2.109,0,0,0,2.438.235l22.245-12.831a111.846,111.846,0,0,0,34.367,11.512l10.039,23.62a2.11,2.11,0,0,0,2.089,1.28l30.729-2.15a2.109,2.109,0,0,0,1.89-1.558l6.653-24.787a111.843,111.843,0,0,0,32.43-16.183l23.815,9.609a2.109,2.109,0,0,0,2.382-.572l20.208-23.248a2.11,2.11,0,0,0,.236-2.438l-12.831-22.245a111.871,111.871,0,0,0,11.511-34.367l23.62-10.039a2.109,2.109,0,0,0,1.279-2.089l-2.149-30.728a2.11,2.11,0,0,0-1.558-1.891l-24.787-6.653a111.881,111.881,0,0,0-16.184-32.43l9.609-23.815a2.11,2.11,0,0,0-.572-2.382Z" transform="translate(-782.944 -921.608)" fill="#c09122"/>
          </g>
          <g transform="matrix(1, 0, 0, 1, 458.78, 5780.66)" filter="url(#Elipse_5717)">
            <ellipse id="Elipse_5717-2" data-name="Elipse 5717" cx="82.181" cy="82.181" rx="82.181" ry="82.181" transform="translate(319.99 211.21)" fill="#fff"/>
          </g>
          <text id="ERE" transform="translate(778.766 6059.182)" fill="#12263f" font-size="28" font-family="Roboto-Bold, Roboto" font-weight="700"><tspan x="57.119" y="29">ERE</tspan></text>
        </g>
        <g id="Grupo_994701" data-name="Grupo 994701" transform="translate(-6.765 30)">
          <g id="Grupo_994695" data-name="Grupo 994695" transform="translate(426.722 5713.58)">
            <path id="Trazado_650760-3" data-name="Trazado 650760" d="M1027.654,948.96a2.422,2.422,0,0,0-2.8-.27L999.31,963.424a128.466,128.466,0,0,0-39.464-13.219l-11.527-27.122a2.423,2.423,0,0,0-2.4-1.469l-35.286,2.468a2.425,2.425,0,0,0-2.171,1.789l-7.639,28.463a128.456,128.456,0,0,0-37.239,18.584l-27.347-11.034a2.423,2.423,0,0,0-2.735.657l-23.206,26.7a2.422,2.422,0,0,0-.27,2.8l14.733,25.544a128.462,128.462,0,0,0-13.218,39.464l-27.122,11.528a2.423,2.423,0,0,0-1.469,2.4l2.468,35.286a2.423,2.423,0,0,0,1.789,2.171l28.463,7.64a128.442,128.442,0,0,0,18.583,37.239l-11.035,27.347a2.423,2.423,0,0,0,.658,2.735l26.7,23.206a2.422,2.422,0,0,0,2.8.27l25.544-14.734a128.433,128.433,0,0,0,39.464,13.219l11.528,27.123a2.423,2.423,0,0,0,2.4,1.469l35.286-2.468a2.422,2.422,0,0,0,2.171-1.789l7.639-28.463a128.432,128.432,0,0,0,37.239-18.583l27.347,11.034a2.422,2.422,0,0,0,2.736-.657l23.205-26.7a2.423,2.423,0,0,0,.271-2.8l-14.734-25.545a128.463,128.463,0,0,0,13.218-39.464l27.123-11.528a2.422,2.422,0,0,0,1.469-2.4l-2.468-35.285a2.423,2.423,0,0,0-1.789-2.171l-28.463-7.64a128.478,128.478,0,0,0-18.584-37.239l11.034-27.347a2.423,2.423,0,0,0-.657-2.735Z" transform="translate(-782.944 -921.608)" fill="#222b5a"/>
          </g>
          <g transform="matrix(1, 0, 0, 1, 426.72, 5713.58)" filter="url(#Elipse_5718)">
            <ellipse id="Elipse_5718-2" data-name="Elipse 5718" cx="94.368" cy="94.369" rx="94.368" ry="94.369" transform="translate(61.47 61.47)" fill="#fff"/>
          </g>
          <text id="PD" transform="translate(488.192 5852.345)" fill="#12263f" font-size="28" font-family="Roboto-Bold, Roboto" font-weight="700"><tspan x="75.807" y="29">PD</tspan></text>
        </g>
        <g id="Grupo_994703" data-name="Grupo 994703" transform="translate(-35.762 -15.104)">
          <g id="Grupo_994696" data-name="Grupo 994696" transform="translate(932.863 5774.612)">
            <path id="Trazado_650760-4" data-name="Trazado 650760" d="M932.02,938.271a1.476,1.476,0,0,0-1.706-.165l-15.561,8.976a78.261,78.261,0,0,0-24.041-8.053l-7.022-16.522a1.476,1.476,0,0,0-1.461-.9l-21.5,1.5a1.477,1.477,0,0,0-1.323,1.09l-4.654,17.339a78.254,78.254,0,0,0-22.686,11.321l-16.66-6.722a1.476,1.476,0,0,0-1.666.4l-14.137,16.263a1.475,1.475,0,0,0-.165,1.706l8.976,15.561a78.257,78.257,0,0,0-8.053,24.041l-16.523,7.023a1.476,1.476,0,0,0-.9,1.461l1.5,21.5a1.476,1.476,0,0,0,1.09,1.322l17.339,4.654a78.248,78.248,0,0,0,11.321,22.686l-6.722,16.66a1.476,1.476,0,0,0,.4,1.666l16.263,14.137a1.475,1.475,0,0,0,1.706.165l15.561-8.976a78.24,78.24,0,0,0,24.041,8.053l7.023,16.523a1.476,1.476,0,0,0,1.461.9l21.5-1.5a1.475,1.475,0,0,0,1.322-1.09l4.654-17.339a78.238,78.238,0,0,0,22.686-11.321l16.659,6.722a1.476,1.476,0,0,0,1.667-.4l14.136-16.263a1.476,1.476,0,0,0,.165-1.706l-8.976-15.562a78.259,78.259,0,0,0,8.053-24.041l16.523-7.023a1.475,1.475,0,0,0,.895-1.462l-1.5-21.5a1.476,1.476,0,0,0-1.09-1.323l-17.339-4.654a78.267,78.267,0,0,0-11.321-22.686l6.722-16.659a1.476,1.476,0,0,0-.4-1.666Z" transform="translate(-782.944 -921.608)" fill="#179587"/>
          </g>
          <g transform="matrix(1, 0, 0, 1, 455.72, 5758.68)" filter="url(#Elipse_5719)">
            <ellipse id="Elipse_5719-2" data-name="Elipse 5719" cx="57.489" cy="57.489" rx="57.489" ry="57.489" transform="translate(514.59 53.38)" fill="#fff"/>
          </g>
          <text id="PGRD" transform="translate(970.31 5855.146)" fill="#12263f" font-size="28" font-family="Roboto-Bold, Roboto" font-weight="700"><tspan x="20.625" y="29">PGRD</tspan></text>
        </g>
        <g id="Grupo_994706" data-name="Grupo 994706" transform="translate(-76.362 -35.926)">
          <g id="Grupo_994698" data-name="Grupo 994698" transform="translate(534.961 6088.918)">
            <path id="Trazado_650760-5" data-name="Trazado 650760" d="M923.791,937.351a1.394,1.394,0,0,0-1.611-.155l-14.7,8.48a73.942,73.942,0,0,0-22.714-7.608l-6.635-15.61a1.394,1.394,0,0,0-1.381-.846l-20.309,1.42a1.4,1.4,0,0,0-1.25,1.03l-4.4,16.382a73.934,73.934,0,0,0-21.433,10.7l-15.74-6.351a1.4,1.4,0,0,0-1.574.378l-13.356,15.365a1.394,1.394,0,0,0-.156,1.612l8.48,14.7A73.936,73.936,0,0,0,799.4,999.56l-15.611,6.635a1.4,1.4,0,0,0-.846,1.381l1.421,20.31a1.394,1.394,0,0,0,1.03,1.249l16.382,4.4a73.93,73.93,0,0,0,10.7,21.434l-6.351,15.74a1.4,1.4,0,0,0,.378,1.574l15.365,13.356a1.394,1.394,0,0,0,1.612.156l14.7-8.48a73.921,73.921,0,0,0,22.714,7.608l6.635,15.611a1.4,1.4,0,0,0,1.38.846l20.31-1.421a1.394,1.394,0,0,0,1.249-1.03l4.4-16.382a73.92,73.92,0,0,0,21.434-10.7l15.74,6.351a1.394,1.394,0,0,0,1.575-.378l13.356-15.365a1.4,1.4,0,0,0,.156-1.611l-8.48-14.7a73.94,73.94,0,0,0,7.608-22.714l15.611-6.635a1.394,1.394,0,0,0,.845-1.381l-1.42-20.309a1.394,1.394,0,0,0-1.03-1.25l-16.382-4.4a73.948,73.948,0,0,0-10.7-21.434l6.351-15.74a1.394,1.394,0,0,0-.378-1.574Z" transform="translate(-782.944 -921.608)" fill="#179587"/>
          </g>
          <g transform="matrix(1, 0, 0, 1, 496.32, 5779.51)" filter="url(#Elipse_5721)">
            <ellipse id="Elipse_5721-2" data-name="Elipse 5721" cx="54.315" cy="54.316" rx="54.315" ry="54.316" transform="translate(74.02 344.79)" fill="#fff"/>
          </g>
          <text id="Ps" transform="translate(570.341 6163.787)" fill="#12263f" font-size="28" font-family="Roboto-Bold, Roboto" font-weight="700"><tspan x="37.838" y="29">Ps</tspan></text>
        </g>
        <g id="Grupo_994705" data-name="Grupo 994705" transform="translate(-24.628 -40.109)">
          <g id="Grupo_994699" data-name="Grupo 994699" transform="translate(837.726 6194.255)">
            <path id="Trazado_650760-6" data-name="Trazado 650760" d="M932.02,938.271a1.476,1.476,0,0,0-1.706-.165l-15.561,8.976a78.261,78.261,0,0,0-24.041-8.053l-7.022-16.522a1.476,1.476,0,0,0-1.461-.9l-21.5,1.5a1.477,1.477,0,0,0-1.323,1.09l-4.654,17.339a78.254,78.254,0,0,0-22.686,11.321l-16.66-6.722a1.476,1.476,0,0,0-1.666.4l-14.137,16.263a1.475,1.475,0,0,0-.165,1.706l8.976,15.561a78.257,78.257,0,0,0-8.053,24.041l-16.523,7.023a1.476,1.476,0,0,0-.9,1.461l1.5,21.5a1.476,1.476,0,0,0,1.09,1.322l17.339,4.654a78.248,78.248,0,0,0,11.321,22.686l-6.722,16.66a1.476,1.476,0,0,0,.4,1.666l16.263,14.137a1.475,1.475,0,0,0,1.706.165l15.561-8.976a78.24,78.24,0,0,0,24.041,8.053l7.023,16.523a1.476,1.476,0,0,0,1.461.9l21.5-1.5a1.475,1.475,0,0,0,1.322-1.09l4.654-17.339a78.238,78.238,0,0,0,22.686-11.321l16.659,6.722a1.476,1.476,0,0,0,1.667-.4l14.136-16.263a1.476,1.476,0,0,0,.165-1.706l-8.976-15.562a78.259,78.259,0,0,0,8.053-24.041l16.523-7.023a1.475,1.475,0,0,0,.895-1.462l-1.5-21.5a1.476,1.476,0,0,0-1.09-1.323l-17.339-4.654a78.267,78.267,0,0,0-11.321-22.686l6.722-16.659a1.476,1.476,0,0,0-.4-1.666Z" transform="translate(-782.944 -921.608)" fill="#222b5a"/>
          </g>
          <g transform="matrix(1, 0, 0, 1, 444.59, 5783.69)" filter="url(#Elipse_5722)">
            <ellipse id="Elipse_5722-2" data-name="Elipse 5722" cx="57.489" cy="57.489" rx="57.489" ry="57.489" transform="translate(430.59 448.01)" fill="#fff"/>
          </g>
          <text id="Pc" transform="translate(932.173 6275.79)" fill="#12263f" font-size="28" font-family="Roboto-Bold, Roboto" font-weight="700"><tspan x="-16.242" y="29">Pc</tspan></text>
        </g>
        <g id="Grupo_994707" data-name="Grupo 994707" transform="translate(-45.947 -40.109)">
          <g id="Grupo_994700" data-name="Grupo 994700" transform="translate(677.286 6194.255)">
            <path id="Trazado_650760-7" data-name="Trazado 650760" d="M901.952,934.91a1.178,1.178,0,0,0-1.362-.131l-12.423,7.165a62.478,62.478,0,0,0-19.192-6.429l-5.606-13.19a1.178,1.178,0,0,0-1.167-.715l-17.16,1.2a1.179,1.179,0,0,0-1.056.87l-3.715,13.842a62.472,62.472,0,0,0-18.11,9.038l-13.3-5.366a1.178,1.178,0,0,0-1.33.319L796.246,954.5a1.178,1.178,0,0,0-.131,1.362l7.165,12.423a62.473,62.473,0,0,0-6.428,19.192l-13.19,5.606a1.179,1.179,0,0,0-.715,1.167l1.2,17.161a1.178,1.178,0,0,0,.87,1.056l13.842,3.715a62.466,62.466,0,0,0,9.037,18.11l-5.366,13.3a1.179,1.179,0,0,0,.32,1.33l12.983,11.285a1.178,1.178,0,0,0,1.362.131l12.423-7.166a62.46,62.46,0,0,0,19.192,6.429l5.606,13.19a1.178,1.178,0,0,0,1.166.714l17.16-1.2a1.178,1.178,0,0,0,1.056-.87l3.715-13.842a62.459,62.459,0,0,0,18.11-9.037l13.3,5.366a1.178,1.178,0,0,0,1.33-.32l11.285-12.983a1.179,1.179,0,0,0,.132-1.362l-7.165-12.423a62.475,62.475,0,0,0,6.428-19.192l13.19-5.606a1.178,1.178,0,0,0,.714-1.167l-1.2-17.16a1.178,1.178,0,0,0-.87-1.056l-13.842-3.716a62.48,62.48,0,0,0-9.038-18.11l5.366-13.3a1.178,1.178,0,0,0-.32-1.33Z" transform="translate(-782.944 -921.608)" fill="#ee4e5d"/>
          </g>
          <g transform="matrix(1, 0, 0, 1, 465.91, 5783.69)" filter="url(#Elipse_5723)">
            <ellipse id="Elipse_5723-2" data-name="Elipse 5723" cx="45.893" cy="45.893" rx="45.893" ry="45.893" transform="translate(241.27 440.46)" fill="#fff"/>
          </g>
          <text id="Pi" transform="translate(753.18 6253.739)" fill="#12263f" font-size="28" font-family="Roboto-Bold, Roboto" font-weight="700"><tspan x="-12.742" y="29">Pi</tspan></text>
        </g>
      </g>
    </g>
  </g>
</svg>
