<svg xmlns="http://www.w3.org/2000/svg" width="69" height="69" viewBox="0 0 69 69">
  <g id="Grupo_1000280" data-name="Grupo 1000280" transform="translate(-286 -7729)">
    <g id="Elipse_5549" data-name="Elipse 5549" transform="translate(286 7729)" fill="none" stroke="#222b5a" stroke-width="1">
      <circle cx="34.5" cy="34.5" r="34.5" stroke="none"/>
      <circle cx="34.5" cy="34.5" r="34" fill="none"/>
    </g>
    <g id="_010---Fire-Extinguisher" data-name="010---Fire-Extinguisher" transform="translate(297.425 7736.972)">
      <g id="Icons" transform="translate(1.618 0.82)">
        <path id="Shape" d="M16.185,19.856V44.943H0V19.856A7.979,7.979,0,0,1,1.619,15H14.567a8.093,8.093,0,0,1,1.619,4.856Z" transform="translate(0 -2.868)" fill="#c81e1e"/>
        <path id="Shape-2" data-name="Shape" d="M13.758,19.856V44.943H0V19.856A7.979,7.979,0,0,1,1.619,15H12.139a8.093,8.093,0,0,1,1.619,4.856Z" transform="translate(0 -2.868)" fill="#ee4e5d"/>
        <path id="Shape-3" data-name="Shape" d="M16.185,52v3.237a1.619,1.619,0,0,1-1.619,1.619H1.619A1.619,1.619,0,0,1,0,55.237V52Z" transform="translate(0 -9.925)" fill="#c81e1e"/>
        <path id="Shape-4" data-name="Shape" d="M51.278,41.317c0,6.636-6.8,9.42-13.353,9.064C32.26,50.025,27,47.144,27,41.357A19.192,19.192,0,0,1,28.036,34.5a.4.4,0,0,1,.769.065c.4,1.716,1.424,2.824,3.164,2.824,3.31,0,2.2-3.965,1.1-6.231-.931-1.9-2.25-5.414.979-8.174,1.546-1.319,3.666-2.9,4.75-4.734a.388.388,0,0,1,.68,0c1.076,1.829,3.237,3.431,4.75,4.734,3.237,2.76,1.91,6.272.979,8.174s-1.886,5.115-.073,6a3.132,3.132,0,0,0,3.294-.566,4.046,4.046,0,0,0,1.044-2.023.4.4,0,0,1,.769-.065,17.414,17.414,0,0,1,1.036,6.814Z" transform="translate(-5.15 -3.45)" fill="#f1b62b"/>
        <path id="Shape-5" data-name="Shape" d="M14.948,13.405H2a8.044,8.044,0,0,1,3.5-2.671.809.809,0,0,0,.55-.761V6.64a3.237,3.237,0,0,0,4.856,0V9.974a.809.809,0,0,0,.534.753A8.093,8.093,0,0,1,14.948,13.405Z" transform="translate(-0.381 -1.273)" fill="#c81e1e"/>
        <path id="Shape-6" data-name="Shape" d="M12.474,3.239A3.237,3.237,0,1,1,11.044.559a3.237,3.237,0,0,1,1.43,2.679Z" transform="translate(-1.144 -0.008)" fill="#707070"/>
        <path id="Shape-7" data-name="Shape" d="M8.027,6.289A3.237,3.237,0,0,1,8.027.3a3.237,3.237,0,0,1,0,5.989Z" transform="translate(-1.148 -0.064)" fill="#9e9e9e"/>
        <rect id="Rectangle-path" width="9.387" height="15.957" rx="1" transform="translate(3.29 16.534)" fill="#f5f5f5"/>
        <path id="Shape-8" data-name="Shape" d="M34.793,11.939l-.656,2.986a.809.809,0,0,1-1.052.591c-1.878-.631-.631-.235-5.374-1.829a.809.809,0,0,1-.526-.939L27.566,11a.809.809,0,0,1,.874-.631l5.665.6a.809.809,0,0,1,.688.971Z" transform="translate(-5.181 -1.983)" fill="#179587"/>
        <path id="Shape-9" data-name="Shape" d="M39.636,54.938c-4.095-1.416-4.508-8.651-2.476-8.295a3.876,3.876,0,0,0,1.262.291,2.363,2.363,0,0,0,2.347-2.93.809.809,0,0,1,1.044-.955c6.96,2.476,3.528,13.79-2.177,11.888Z" transform="translate(-6.861 -8.21)" fill="#ffdc00"/>
        <g id="Grupo_881690" data-name="Grupo 881690" transform="translate(32.776 14.562)">
          <path id="Shape-10" data-name="Shape" d="M53.853,45.135c0,6.636-6.8,9.42-13.353,9.064,5.665-.356,10.925-3.237,10.925-9.023A23.526,23.526,0,0,0,51,40.409a4.046,4.046,0,0,0,1.044-2.023.4.4,0,0,1,.769-.065,17.414,17.414,0,0,1,1.036,6.814Z" transform="translate(-40.5 -21.83)" fill="#f57c00"/>
          <path id="Shape-11" data-name="Shape" d="M47.783,31.111c-.939,1.934-1.886,5.115-.073,6a3.237,3.237,0,0,1-1.254.235c-3.31,0-2.2-3.965-1.1-6.231.931-1.9,2.25-5.414-.979-8.174A34.377,34.377,0,0,1,40.5,19.409a8.579,8.579,0,0,0,.874-1.206.388.388,0,0,1,.68,0c1.076,1.829,3.237,3.431,4.75,4.734,3.229,2.76,1.91,6.272.979,8.174Z" transform="translate(-40.5 -18.002)" fill="#f57c00"/>
        </g>
      </g>
      <g id="Layer_2" transform="translate(0 0)">
        <path id="Shape-12" data-name="Shape" d="M35.332,24.13c-2.638,2.25-3.035,5.325-1.182,9.145.947,1.95,1.279,3.836.809,4.6-.073.113-.3.469-1.182.469-1.246,0-2.047-.736-2.379-2.193a1.214,1.214,0,0,0-2.3-.2,18.623,18.623,0,0,0-1.1,7.17c0,6.822,6.474,9.873,12.948,9.873S53.9,49.937,53.9,43.115a18.623,18.623,0,0,0-1.1-7.17,1.214,1.214,0,0,0-2.3.2c-.332,1.457-1.133,2.193-2.379,2.193-.882,0-1.109-.356-1.182-.469-.469-.761-.138-2.646.809-4.6,1.853-3.82,1.457-6.895-1.182-9.145-1.513-1.287-3.585-2.841-4.572-4.532a1.206,1.206,0,0,0-2.088,0C38.909,21.3,36.837,22.843,35.332,24.13Zm1.821,20.353c2.557,1.173,5.252-1.262,4.491-3.634,5.544,1.975,3.439,10.52-.7,10.52C37.954,51.37,36.2,46.895,37.153,44.483Zm3.8-23.469a26.285,26.285,0,0,0,4.564,4.394c2.711,2.306,1.74,5.212.809,7.2-.518.955-1.942,4.192-.753,6.118a2.768,2.768,0,0,0,2.549,1.23,3.755,3.755,0,0,0,3.561-2.282,20.563,20.563,0,0,1,.6,5.438c0,4.346-3.31,6.863-7.381,7.809a8.311,8.311,0,0,0,1.716-5.22A6.571,6.571,0,0,0,42.187,39.3a1.619,1.619,0,0,0-2.1,1.934,1.619,1.619,0,0,1-2.266,1.764,1.619,1.619,0,0,0-2.209.914A7.833,7.833,0,0,0,37,50.9c-4.046-.947-7.381-3.464-7.381-7.809a20.563,20.563,0,0,1,.6-5.438,3.755,3.755,0,0,0,3.561,2.282,2.768,2.768,0,0,0,2.549-1.23c1.19-1.9-.235-5.139-.72-6.134-.963-1.991-1.934-4.9.809-7.2a27.273,27.273,0,0,0,4.532-4.394Z" transform="translate(-5.34 -4.428)"/>
        <path id="Shape-13" data-name="Shape" d="M.809,5.855H4.168l-2.242,1.8a.809.809,0,0,0,.5,1.44c.4,0,.3,0,3.52-2.59a4.224,4.224,0,0,0,.526.971v3.083A8.9,8.9,0,0,0,.809,18.8V47.127a2.428,2.428,0,0,0,2.428,2.428H16.185a2.428,2.428,0,0,0,2.428-2.428V18.8a8.938,8.938,0,0,0-5.665-8.287V7.473a4.151,4.151,0,0,0,.72-1.619h2.573a2.371,2.371,0,0,1,2.371,2.371,3.982,3.982,0,0,0,3.027,3.868l1.19.3a1.619,1.619,0,0,0,1.06,1.886l5.374,1.829a1.619,1.619,0,0,0,2.1-1.19l.656-2.97A1.619,1.619,0,0,0,30.615,9.99l-5.665-.6a1.619,1.619,0,0,0-1.756,1.262v.162l-1.149-.291a2.363,2.363,0,0,1-1.813-2.3,3.99,3.99,0,0,0-3.99-3.99H13.677a4.046,4.046,0,0,0-7.931,0H.809a.809.809,0,1,0,0,1.619ZM24.8,11l5.665.6-.656,2.97c-.081,0,.639.219-5.382-1.821ZM3.65,14.757H15.789A7.2,7.2,0,0,1,16.995,18.8V43.081H2.428V18.8A7.283,7.283,0,0,1,3.65,14.757Zm12.536,33.18H3.237a.809.809,0,0,1-.809-.809V44.7H16.995v2.428A.809.809,0,0,1,16.185,47.937Zm-1.9-34.8H5.131a7.283,7.283,0,0,1,1.918-1.109,1.619,1.619,0,0,0,1.044-1.513V8.752a4.046,4.046,0,0,0,3.237,0v1.764a1.619,1.619,0,0,0,1.052,1.513A7.008,7.008,0,0,1,14.284,13.138ZM9.711,2.618A2.428,2.428,0,1,1,7.486,4.049,2.428,2.428,0,0,1,9.711,2.618Z" transform="translate(0 -0.995)"/>
        <path id="Shape-14" data-name="Shape" d="M6.619,38.995h8.093a1.619,1.619,0,0,0,1.619-1.619V23.619A1.619,1.619,0,0,0,14.711,22H6.619A1.619,1.619,0,0,0,5,23.619V37.376A1.619,1.619,0,0,0,6.619,38.995Zm0-15.376h8.093V37.376H6.619Z" transform="translate(-0.954 -5.001)"/>
        <path id="Shape-15" data-name="Shape" d="M5.809,46.619h9.711a.809.809,0,1,0,0-1.619H5.809a.809.809,0,1,0,0,1.619Z" transform="translate(-0.954 -9.388)"/>
      </g>
    </g>
  </g>
</svg>
