<svg xmlns="http://www.w3.org/2000/svg" width="69" height="69" viewBox="0 0 69 69">
  <g id="Grupo_1000285" data-name="Grupo 1000285" transform="translate(-1328 -8186)">
    <g id="Elipse_5553" data-name="Elipse 5553" transform="translate(1328 8186)" fill="none" stroke="#222b5a" stroke-width="1">
      <circle cx="34.5" cy="34.5" r="34.5" stroke="none"/>
      <circle cx="34.5" cy="34.5" r="34" fill="none"/>
    </g>
    <g id="alojamiento" transform="translate(1335.956 8195.181)">
      <g id="Grupo_881705" data-name="Grupo 881705">
        <g id="filled_outline_15_">
          <rect id="Rectángulo_294060" data-name="Rectángulo 294060" width="17.834" height="17.023" transform="translate(25.94 12.97)" fill="#179587"/>
          <path id="Trazado_126566" data-name="Trazado 126566" d="M82.045,76.747H60.968V59.723l10.538-8.917,10.538,8.917Z" transform="translate(-56.104 -46.753)" fill="#179587"/>
          <path id="Trazado_126567" data-name="Trazado 126567" d="M99.879,226.357H60.968v-2.432l38.911-10.538Z" transform="translate(-56.104 -196.364)" fill="#179587"/>
          <path id="Trazado_126568" data-name="Trazado 126568" d="M10.161,375.968H57.178a6.485,6.485,0,0,1-6.485,6.485H16.646a6.485,6.485,0,0,1-6.485-6.485Z" transform="translate(-9.35 -345.974)" fill="#f1b62b"/>
          <path id="Trazado_126569" data-name="Trazado 126569" d="M443.421,375.968a6.485,6.485,0,0,1-6.485,6.485h6.485a6.485,6.485,0,0,0,6.485-6.485Z" transform="translate(-402.078 -345.974)" fill="#f1b62b"/>
          <path id="Trazado_126570" data-name="Trazado 126570" d="M221.437,59.723H203.6l-10.538-8.917H210.9Z" transform="translate(-177.663 -46.753)" fill="#ee4e5d"/>
          <rect id="Rectángulo_294061" data-name="Rectángulo 294061" width="4.864" height="6.485" transform="translate(28.372 0.811)" fill="#ee4e5d"/>
          <rect id="Rectángulo_294062" data-name="Rectángulo 294062" width="8.106" height="4.864" transform="translate(30.804 18.645)" fill="#87ced9"/>
          <path id="Trazado_126571" data-name="Trazado 126571" d="M394.235,247.924h-8.106V246.3l8.106-2.432Z" transform="translate(-355.325 -224.416)" fill="#71c4d1"/>
          <path id="Trazado_126572" data-name="Trazado 126572" d="M81.981,438.355l-.207.113H75.559a2.432,2.432,0,1,0,0,4.864H73.937l-9.218-4.222a2.649,2.649,0,0,0-3.752,2.408v.177a2.649,2.649,0,0,0,1.465,2.37l9.451,4.726a9.731,9.731,0,0,0,4.351,1.025H93.393V438.466A11.706,11.706,0,0,0,81.981,438.355Z" transform="translate(-56.103 -402.068)" fill="#ffb782"/>
          <rect id="Rectángulo_294063" data-name="Rectángulo 294063" width="10.538" height="11.349" transform="translate(37.289 36.399)" fill="#222b5a"/>
          <rect id="Rectángulo_294064" data-name="Rectángulo 294064" width="1.621" height="1.621" transform="translate(39.721 43.695)" fill="#3582bd"/>
          <path id="Trazado_126573" data-name="Trazado 126573" d="M241.006,508.67h-6.485a.811.811,0,0,1,0-1.621h6.485a.811.811,0,1,1,0,1.621Z" transform="translate(-215.065 -466.598)" fill="#f2a46f"/>
          <path id="Trazado_126574" data-name="Trazado 126574" d="M331.55,81.866l-8.27-7-10.556,6.158.992.84Z" transform="translate(-287.776 -68.895)" fill="#dc2c3c"/>
          <rect id="Rectángulo_294065" data-name="Rectángulo 294065" width="6.485" height="11.349" transform="translate(12.16 18.645)" fill="#fdb62f"/>
          <rect id="Rectángulo_294066" data-name="Rectángulo 294066" width="1.621" height="11.349" transform="translate(12.16 18.645)" fill="#ffa230"/>
          <path id="Trazado_126575" data-name="Trazado 126575" d="M48.638,29.994a.811.811,0,0,0-.811-.811H44.585V12.97a.426.426,0,0,0-.01-.047.736.736,0,0,0-.045-.225.677.677,0,0,0-.037-.086.782.782,0,0,0-.11-.162.6.6,0,0,0-.059-.068c-.01-.009-.015-.021-.025-.029L34.047,3.677V.811A.811.811,0,0,0,33.236,0H28.372a.811.811,0,0,0-.811.811V3.243H15.4a.814.814,0,0,0-.261.045c-.024.008-.044.024-.067.033a.842.842,0,0,0-.162.1c-.009.007-.02.01-.029.017L4.344,12.352a.81.81,0,0,0-.291.619V29.183H.811A.811.811,0,0,0,0,29.994a7.307,7.307,0,0,0,5.188,6.982,3.441,3.441,0,0,0-1.135,2.554v.176a3.442,3.442,0,0,0,1.912,3.1l9.452,4.725a10.59,10.59,0,0,0,4.713,1.111h27.7a.811.811,0,0,0,.811-.811V36.479a.811.811,0,0,0-.811-.811h-1.91A7.284,7.284,0,0,0,48.638,29.994ZM26.751,13.781H42.964v15.4H26.751Zm2.432-12.16h3.243V6.485H29.183ZM27.562,4.864V7.3a.811.811,0,0,0,.811.811h4.864a.811.811,0,0,0,.811-.811V5.8l7.515,6.359H26.24l-8.625-7.3ZM5.674,13.346,15.4,5.115l9.728,8.231V29.183H19.455V18.645a.811.811,0,0,0-.811-.811H12.16a.811.811,0,0,0-.811.811V29.183H5.674Zm12.16,15.837H12.97V19.455h4.864ZM16.325,39.76l-5.394-2.471h5.732A3.181,3.181,0,0,0,16.325,39.76Zm-.182,6.315L6.691,41.35a1.828,1.828,0,0,1-1.017-1.645v-.176a1.835,1.835,0,0,1,2.6-1.672L17.5,42.079a.812.812,0,0,0,.338.075H25.94a.811.811,0,1,0,0-1.621H19.455a1.621,1.621,0,0,1,0-3.243h6.215a.81.81,0,0,0,.387-.1l.208-.113a10.817,10.817,0,0,1,10.213-.118V47.017H20.131A8.938,8.938,0,0,1,16.143,46.075Zm30.874-8.786v9.728H38.1V37.289ZM37.49,35.668a12.425,12.425,0,0,0-12-.015l-6.037.015H7.3A5.684,5.684,0,0,1,1.679,30.8H46.96a5.684,5.684,0,0,1-5.617,4.864Z"/>
          <rect id="Rectángulo_294067" data-name="Rectángulo 294067" width="1.621" height="1.621" transform="translate(39.721 43.775)"/>
          <path id="Trazado_126576" data-name="Trazado 126576" d="M384.885,223.548h-8.106a.811.811,0,0,0-.811.811v4.864a.811.811,0,0,0,.811.811h8.106a.811.811,0,0,0,.811-.811v-4.864A.811.811,0,0,0,384.885,223.548Zm-.811,4.864h-6.485v-3.243h6.485Z" transform="translate(-345.974 -205.714)"/>
        </g>
      </g>
    </g>
  </g>
</svg>
