<svg xmlns="http://www.w3.org/2000/svg" width="69" height="69" viewBox="0 0 69 69">
  <g id="Grupo_1000284" data-name="Grupo 1000284" transform="translate(-1328 -8091)">
    <g id="Elipse_5552" data-name="Elipse 5552" transform="translate(1328 8091)" fill="none" stroke="#222b5a" stroke-width="1">
      <circle cx="34.5" cy="34.5" r="34.5" stroke="none"/>
      <circle cx="34.5" cy="34.5" r="34" fill="none"/>
    </g>
    <g id="ayuda" transform="translate(1292.936 8097.284)">
      <g id="Grupo_881708" data-name="Grupo 881708" transform="translate(47.296 0.827)">
        <path id="Trazado_126598" data-name="Trazado 126598" d="M53.967,29.768a22.268,22.268,0,0,1,44.536,0Z" transform="translate(-53.967 -7.5)" fill="#ee4e5d"/>
      </g>
      <g id="Grupo_881709" data-name="Grupo 881709" transform="translate(73.3 6.034)">
        <path id="Trazado_126599" data-name="Trazado 126599" d="M294.028,68.543a22.32,22.32,0,0,1-4.137,3.261h18.533a22.219,22.219,0,0,0-7.959-17.061A22.177,22.177,0,0,1,294.028,68.543Z" transform="translate(-289.891 -54.743)" fill="#d53544"/>
      </g>
      <g id="Grupo_881710" data-name="Grupo 881710" transform="translate(54.81 0.827)">
        <path id="Trazado_126600" data-name="Trazado 126600" d="M122.133,29.768c0-12.3,6.606-22.268,14.755-22.268s14.755,9.97,14.755,22.268Z" transform="translate(-122.133 -7.5)" fill="#179587"/>
      </g>
      <g id="Grupo_881711" data-name="Grupo 881711" transform="translate(73.3 12.198)">
        <path id="Trazado_126601" data-name="Trazado 126601" d="M294.028,118.306a22.32,22.32,0,0,1-4.137,3.261H300.91a31.366,31.366,0,0,0-1.885-10.9A22.179,22.179,0,0,1,294.028,118.306Z" transform="translate(-289.891 -110.671)" fill="#26aa9b"/>
      </g>
      <g id="Grupo_881712" data-name="Grupo 881712" transform="translate(64.076 0.827)">
        <path id="Trazado_126602" data-name="Trazado 126602" d="M206.2,29.768c0-12.3,2.457-22.268,5.489-22.268s5.489,9.97,5.489,22.268Z" transform="translate(-206.203 -7.5)" fill="#ee4e5d"/>
      </g>
      <g id="Grupo_881713" data-name="Grupo 881713" transform="translate(60.657 37.792)">
        <path id="Trazado_126603" data-name="Trazado 126603" d="M190.775,360.688H177.414a2.227,2.227,0,0,1-2.227-2.227V345.1a2.227,2.227,0,0,1,2.227-2.227h13.361A2.227,2.227,0,0,1,193,345.1v13.361A2.227,2.227,0,0,1,190.775,360.688Z" transform="translate(-175.187 -342.874)" fill="#f1b62b"/>
      </g>
      <g id="Grupo_881714" data-name="Grupo 881714" transform="translate(73.517 37.792)">
        <path id="Trazado_126604" data-name="Trazado 126604" d="M294.592,342.874h-2.727a2.227,2.227,0,0,1,2.227,2.227v13.361a2.227,2.227,0,0,1-2.227,2.227h2.727a2.227,2.227,0,0,0,2.227-2.227V345.1A2.227,2.227,0,0,0,294.592,342.874Z" transform="translate(-291.865 -342.874)" fill="#ffd064"/>
      </g>
      <g id="Grupo_881715" data-name="Grupo 881715" transform="translate(64.22 41.354)">
        <path id="Trazado_126605" data-name="Trazado 126605" d="M218.2,378.762h-3.563V375.2h-3.563v3.563h-3.563v3.563h3.563v3.563h3.563v-3.563H218.2Z" transform="translate(-207.512 -375.199)" fill="#ee4e5d"/>
      </g>
      <g id="Grupo_881716" data-name="Grupo 881716" transform="translate(46.47 0)">
        <path id="Trazado_126606" data-name="Trazado 126606" d="M90.374,13.067a.827.827,0,0,0-1.489.718,21.209,21.209,0,0,1,2.1,8.483H85.135A29.3,29.3,0,0,0,80.687,6.892a18.426,18.426,0,0,0-3.22-3.731,21.088,21.088,0,0,1,2.04.932,21.633,21.633,0,0,1,7.48,6.5A.827.827,0,1,0,88.33,9.63,23.1,23.1,0,0,0,46.47,23.094a.827.827,0,0,0,.827.827h2.167l17.6,13.043H62.884a3.057,3.057,0,0,0-3.053,3.054v7.47a.827.827,0,1,0,1.653,0v-7.47a1.4,1.4,0,0,1,1.4-1.4H76.245a1.4,1.4,0,0,1,1.4,1.4v3.358a.827.827,0,0,0,1.653,0V40.019a3.057,3.057,0,0,0-3.053-3.054H72.068l17.6-13.043h2.167a.827.827,0,0,0,.827-.827,22.892,22.892,0,0,0-2.284-10.028Zm-6.893,9.2H75.876A68.486,68.486,0,0,0,74.248,7.151a19.066,19.066,0,0,0-1.869-5.058C78.545,4.049,83.234,12.3,83.481,22.268ZM70.987,2.993a18.1,18.1,0,0,1,1.656,4.554,66.789,66.789,0,0,1,1.58,14.721H64.906a66.783,66.783,0,0,1,1.58-14.721,18.106,18.106,0,0,1,1.656-4.554c.5-.851,1.014-1.34,1.422-1.34s.926.488,1.422,1.34Zm-4.237-.9a19.066,19.066,0,0,0-1.869,5.058,68.493,68.493,0,0,0-1.628,15.117H55.648c.247-9.971,4.937-18.219,11.1-20.174Zm1.988,21.828V35.088L61.205,23.921Zm1.653,0h7.532L70.391,35.088ZM61.656,3.166a18.43,18.43,0,0,0-3.213,3.726,29.3,29.3,0,0,0-4.448,15.376H48.139A21.483,21.483,0,0,1,61.656,3.166ZM52.24,23.921h6.971l6.971,10.334ZM72.947,34.255l6.971-10.334h6.971Z" transform="translate(-46.47 0)"/>
        <path id="Trazado_126607" data-name="Trazado 126607" d="M186.331,421.05a.827.827,0,0,0-.827.827v6.145a1.4,1.4,0,0,1-1.4,1.4H170.744a1.4,1.4,0,0,1-1.4-1.4v-2.034a.827.827,0,1,0-1.653,0v2.034a3.057,3.057,0,0,0,3.053,3.053H184.1a3.057,3.057,0,0,0,3.053-3.053v-6.145A.826.826,0,0,0,186.331,421.05Z" transform="translate(-154.33 -374.642)"/>
        <path id="Trazado_126608" data-name="Trazado 126608" d="M207.964,367.7H204.4a.827.827,0,0,0-.827.827v2.736h-2.736a.827.827,0,0,0-.827.827v3.563a.827.827,0,0,0,.827.827h2.736v2.736a.827.827,0,0,0,.827.827h3.563a.827.827,0,0,0,.827-.827v-2.736h2.736a.827.827,0,0,0,.827-.827v-3.563a.827.827,0,0,0-.827-.827h-2.736v-2.736A.827.827,0,0,0,207.964,367.7Zm2.736,5.216v1.91h-2.736a.827.827,0,0,0-.827.827v2.736h-1.91v-2.736a.827.827,0,0,0-.827-.827h-2.736v-1.91H204.4a.827.827,0,0,0,.827-.827v-2.736h1.91v2.736a.827.827,0,0,0,.827.827H210.7Z" transform="translate(-183.089 -327.171)"/>
      </g>
    </g>
  </g>
</svg>
