<svg xmlns="http://www.w3.org/2000/svg" width="441.78" height="313.789" viewBox="0 0 441.78 313.789">
  <g id="Grupo_1000275" data-name="Grupo 1000275" transform="translate(-273 -3131.653)">
    <g id="Grupo_994686" data-name="Grupo 994686" transform="translate(2004.89 12093)">
      <path id="Trazado_650759" data-name="Trazado 650759" d="M578.745,230.27c-3.276-3.1-6.9-5.884-9.55-9.523-6.29-8.624-6.016-20.316-4.447-30.874s4.155-21.388,1.6-31.751c-2.566-10.39-10.327-19.155-19.939-23.861s-20.882-5.53-31.342-3.265c-10.515,2.277-20.153,7.485-30.438,10.641s-22.194,4-31.151-1.96c-4.518-3.007-7.977-7.554-12.873-9.9-6.211-2.971-13.6-1.851-20.142.293-8.681,2.845-16.714,7.334-24.686,11.8-13.674,7.652-27.23,17.1-42.288,21.607-14.86,4.444-30.083,6.593-45.36,9.056-21.725,3.5-45.83-5.48-66.853-10.081-14.553-3.185-29.606-5.479-44.527-4.073-6.393.6-15.524,1.417-21.02,5.063-4.6,3.055-9,9.063-11.743,13.788-9.907,17.047-7.905,35.239-.722,52.745,5.884,14.341,13.578,28.565,13.848,44.064a111.4,111.4,0,0,1-2.237,22.969c-1.547,7.587-7.541,15.578-11.116,22.446a116.108,116.108,0,0,0-6.845,14.805c-5.8,16.429-9.273,44.139,11.086,51.874,9.37,3.56,17.424,1.307,26.73.073,21.33-2.828,40.606,4.223,61.489,6.221a198.4,198.4,0,0,0,85.862-10.662c10.242-3.692,20.981-7.6,30.726-12.464,8.526-4.254,18.522-3.652,27.992-3,22.158,1.534,43.56,8.057,65.037,13.262a548.344,548.344,0,0,0,80.032,13.22c5.734.516,11.659.92,17.119-.906,7.82-2.615,13.591-9.547,16.773-17.154,5.5-13.149,6.715-26.654,7.134-40.578.463-15.391,4.348-30.433,6.3-45.654,2.549-19.927,1.054-42.343-12.943-56.753C579.754,231.241,579.254,230.752,578.745,230.27Z" transform="translate(-1884.316 -9066.106)" fill="#fff"/>
      <g id="Grupo_994685" data-name="Grupo 994685" transform="translate(-1839.448 -9074.857)">
        <g id="Layer_19" data-name="Layer 19" transform="translate(167.683 113.511)">
          <path id="Trazado_650523" data-name="Trazado 650523" d="M188.687,318.132,353.2,279.413l-.229-165.9L188.687,139.559Z" transform="translate(-188.687 -113.511)" fill="#8eadc6"/>
        </g>
        <g id="Layer_10" data-name="Layer 10" transform="translate(186.746 132.279)">
          <g id="Grupo_994656" data-name="Grupo 994656">
            <path id="Trazado_650524" data-name="Trazado 650524" d="M247.2,286.868,367.684,261.35l-1.561-90.263L244.668,193.4Z" transform="translate(-244.131 -169.697)" fill="#161615" opacity="0.1"/>
            <path id="Trazado_650525" data-name="Trazado 650525" d="M256.923,284.356,372.07,259.063l-1.158-86.045L254.3,192.756Z" transform="translate(-250.393 -170.952)" fill="#fff"/>
            <path id="Trazado_650526" data-name="Trazado 650526" d="M243.134,189.845a2.858,2.858,0,0,0,3.026,2.661L363.98,172.738c1.7-.269,3.032-1.191,3.032-3.082l-.092-1.06c-.323-1.66-2.49-1.568-4.2-1.383L246.013,187.035a2.845,2.845,0,0,0-2.879,2.809Z" transform="translate(-243.133 -167.116)" fill="#6e838e"/>
            <g id="Grupo_994653" data-name="Grupo 994653" transform="translate(14.995 37.603)">
              <path id="Trazado_650527" data-name="Trazado 650527" d="M335.442,298.394a24.747,24.747,0,1,1-25.085-23.875A24.494,24.494,0,0,1,335.442,298.394Z" transform="translate(-285.962 -274.516)" fill="#cfe0ea"/>
              <path id="Trazado_650528" data-name="Trazado 650528" d="M378.4,309.172a23.654,23.654,0,0,0,.207-16.093,24.427,24.427,0,0,0-15.364-15.125l-8.624,23.153Z" transform="translate(-330.584 -276.75)" fill="#b1cad8"/>
              <path id="Trazado_650529" data-name="Trazado 650529" d="M360.241,358.229a24.758,24.758,0,0,0,14.183-8.134,23.836,23.836,0,0,0,5.319-20.7l-24.573,5.041Z" transform="translate(-330.939 -310.18)" fill="#c0d6e2"/>
              <path id="Trazado_650530" data-name="Trazado 650530" d="M351.671,276.694a25.1,25.1,0,0,0-18.128-.877c-.069.023-.136.05-.205.074l7.535,23.149C342.022,296.46,349.256,281.14,351.671,276.694Z" transform="translate(-316.751 -274.525)" fill="#a1b6c2"/>
            </g>
            <g id="Grupo_994654" data-name="Grupo 994654" transform="translate(65.653 29.275)">
              <path id="Trazado_650531" data-name="Trazado 650531" d="M547.284,298.428l7.565-1.33-.663-46.367-7.565,1.329Z" transform="translate(-506.018 -250.731)" fill="#cfe0ea"/>
              <path id="Trazado_650532" data-name="Trazado 650532" d="M517.162,321.96l7.565-1.329-.86-36.774-7.565,1.329Z" transform="translate(-486.315 -272.26)" fill="#cfe0ea"/>
              <path id="Trazado_650533" data-name="Trazado 650533" d="M487.629,343.384l7.565-1.329-.737-28.078-7.565,1.329Z" transform="translate(-467.202 -291.834)" fill="#cfe0ea"/>
              <path id="Trazado_650534" data-name="Trazado 650534" d="M455.927,366.53l7.564-1.329-.6-18.947-7.565,1.328Z" transform="translate(-446.684 -312.809)" fill="#cfe0ea"/>
              <path id="Trazado_650535" data-name="Trazado 650535" d="M477.855,282.968l-6.621,4.716,1.661,1.036-13.67,21.622-9.375-4.836-8.173,11.96-5.7-5.078-5.241,11.793-.088-.043a5.263,5.263,0,0,0,1.487,1.079l4.429-9.965,5.412,4.822,8.4-12.295,9.422,4.859,14.547-23.011,1.624,1.014Z" transform="translate(-430.652 -271.681)" fill="#87a4bb"/>
            </g>
            <g id="Grupo_994655" data-name="Grupo 994655" transform="translate(69.774 18.795)">
              <path id="Trazado_650536" data-name="Trazado 650536" d="M473.5,222.02a1.4,1.4,0,0,1-1.492,1.264l-28.061,4.11a1.4,1.4,0,0,1-1.527-1.221h0a1.4,1.4,0,0,1,1.492-1.263l28.061-4.112a1.4,1.4,0,0,1,1.527,1.221Z" transform="translate(-442.421 -220.799)" fill="#cfe0ea"/>
              <path id="Trazado_650537" data-name="Trazado 650537" d="M473.714,237a1.4,1.4,0,0,1-1.492,1.263l-28.061,4.111a1.394,1.394,0,0,1-1.527-1.219h0a1.4,1.4,0,0,1,1.492-1.263l28.061-4.111a1.4,1.4,0,0,1,1.528,1.22Z" transform="translate(-442.558 -230.532)" fill="#cfe0ea"/>
              <path id="Trazado_650538" data-name="Trazado 650538" d="M473.917,251.18a1.4,1.4,0,0,1-1.493,1.263l-28.06,4.11a1.4,1.4,0,0,1-1.528-1.219h0a1.4,1.4,0,0,1,1.491-1.264l28.061-4.111a1.4,1.4,0,0,1,1.528,1.221Z" transform="translate(-442.691 -239.749)" fill="#cfe0ea"/>
            </g>
          </g>
        </g>
        <g id="Layer_9" data-name="Layer 9" transform="translate(156.368 170.162)">
          <g id="Grupo_994661" data-name="Grupo 994661">
            <path id="Trazado_650539" data-name="Trazado 650539" d="M169.745,745.455c.185,3.46,9.622,6.357,21.076,6.466s20.589-2.622,20.4-6.08-9.619-6.358-21.074-6.465S169.561,741.989,169.745,745.455Z" transform="translate(-165.06 -576.9)" fill="#161615" opacity="0.1"/>
            <path id="Trazado_650540" data-name="Trazado 650540" d="M162.973,531.2a43.661,43.661,0,0,0,1.92,4.731l2.047,5.089-.744.565-2.7-4.175-1.409,4.439-1.2,5.026-1-.135.651-6.008-1.806,5.691-.45-.206.7-5.561-1.926,3.927-.558-.5,1.131-3.919-.906,2.169-.355-.455,1.819-5.016,2.153-5.473Z" transform="translate(-156.368 -441.613)" fill="#febe7b"/>
            <path id="Trazado_650541" data-name="Trazado 650541" d="M169.1,485.05l1.8-16.359c-.037-5.405-1.522-10.733-3.481-10.375-1.737.317-2.821,8.562-2.821,8.562l-.789,18.036A8.136,8.136,0,0,0,169.1,485.05Z" transform="translate(-161.2 -394.234)" fill="#222b5a"/>
            <path id="Trazado_650542" data-name="Trazado 650542" d="M223.263,320.16c2.578.432,4.2,2.289,6.57,2.936l.349.036c-3.045.666-3.725,7.351-3.565,10.139.241,4.208,2.574,7.709.907,12.107-.6,1.577-2.029,3.966-3.463,4.748-3.154,1.719-7.773-1.879-9.431-4.577C209.716,337.555,211.1,318.12,223.263,320.16Z" transform="translate(-192.508 -304.364)" fill="#713f1f"/>
            <path id="Trazado_650543" data-name="Trazado 650543" d="M176.747,299.289c-.917-4.456-1.2-9.376,2.217-12.823,1.928-1.947,7.228-3.316,9.586-1.778l.337-.012a9.076,9.076,0,0,1,5.511,8.269c.066,3.263-1.285,6.515-2.727,9.292-2.067,3.981-1.715,7.649-.477,11.921,1.061,3.653,5.366,10.355,2.034,13.995-2.441,2.669-10.376.137-11.516,4.307-1.083-1.423-1.347-4.525-2.372-6.367-2.544-4.57-4.984-7.338-4.114-13.114C175.97,308.058,177.789,304.35,176.747,299.289Z" transform="translate(-168.507 -280.977)" fill="#713f1f"/>
            <path id="Trazado_650544" data-name="Trazado 650544" d="M227.6,714.053s5.2,6.652,6.018,7.705a26.921,26.921,0,0,0,4.947,4.154l-.8-.31c-.277,1.392-5.184.923-5.184.923s-3.219-4.392-3.671-4.525-5.443-2.827-5.443-2.827l1.454-4.123Z" transform="translate(-199.974 -560.445)" fill="#f79953"/>
            <path id="Trazado_650545" data-name="Trazado 650545" d="M226.164,727.179l.128,0a21.434,21.434,0,0,0-1.023,3.2,32.316,32.316,0,0,0-.022,3.727l-.9-.063-.408-3.72-1.028-2.576.777-2.529A21.434,21.434,0,0,0,226.164,727.179Z" transform="translate(-199.61 -567.697)" fill="#944400"/>
            <path id="Trazado_650546" data-name="Trazado 650546" d="M236.1,499.85c2.254,2.986,3.094,7,5.394,10.04l-5.418,30.593-6.721,37.949-3.472-.731,2.776-37.662,2.836-38.485C232.31,499.538,233.639,499.246,236.1,499.85Z" transform="translate(-201.542 -421.057)" fill="#f79953"/>
            <path id="Trazado_650547" data-name="Trazado 650547" d="M223.41,722.278c2.022.706,3.349,2.357,5.654,4.853,1.608,1.741,3.551,3.686,4,3.729a8.68,8.68,0,0,0,3.434-.6c1.9.666,3.885,1.548,3.885,1.548s-.234,1.35-.589,1.372c-.628.039-7.166.114-8.021-1.018-3.3-4.379-9.242-6.4-9.242-6.4S223.409,722.294,223.41,722.278Z" transform="translate(-199.367 -565.791)" fill="#944400"/>
            <path id="Trazado_650548" data-name="Trazado 650548" d="M221.137,733.918l.11,0a23.331,23.331,0,0,0-1.009,3.095,36.025,36.025,0,0,0-.171,3.656l-.775-.1-.243-3.256-.79-3.164.555-2.238S220.331,733.313,221.137,733.918Z" transform="translate(-196.59 -572.055)" fill="#944400"/>
            <path id="Trazado_650549" data-name="Trazado 650549" d="M208.982,509.677c2.666,2.6,2.986,6.563,5.705,9.21L214.1,545.9l-.884,40.319-2.9-.082-3.987-32.811.384-9.458-3.029-31.838C204.19,509.909,206.464,509.462,208.982,509.677Z" transform="translate(-187.113 -427.593)" fill="#febe7b"/>
            <path id="Trazado_650550" data-name="Trazado 650550" d="M179.1,394.028s-4.2.677-5.62,3.026c-.7,1.158-6.092,25.908-6.092,25.908l5.315,3.186s5.677-18.737,6.54-20.593S182.55,393.607,179.1,394.028Z" transform="translate(-163.533 -352.458)" fill="#222b5a"/>
            <path id="Trazado_650551" data-name="Trazado 650551" d="M217.632,485.826,228.9,485.4l-.164-6.263-12.3.512Z" transform="translate(-195.406 -407.778)" fill="#713f1f"/>
            <g id="Grupo_994657" data-name="Grupo 994657" transform="translate(24.891 75.983)">
              <path id="Trazado_650552" data-name="Trazado 650552" d="M228.923,504.688a6.373,6.373,0,0,0,2.645-4.291h0a28.542,28.542,0,0,0,.483-5.452h0c.016-1.486-.038-2.584-.038-2.588h0l-.651.033s.055,1.082.04,2.548h0a28.4,28.4,0,0,1-.467,5.311h0a6.438,6.438,0,0,1-1.891,3.525h0l-.933-11.433-.648.056,1.024,12.533.436-.242Z" transform="translate(-227.462 -492.341)" fill="#713f1f"/>
            </g>
            <g id="Grupo_994658" data-name="Grupo 994658" transform="translate(21.792 74.987)">
              <path id="Trazado_650553" data-name="Trazado 650553" d="M218.836,490.471l-.009-.038-.217-.591h0a3.333,3.333,0,0,1,.748-.1h0c2.485-.171,10.778-.249,10.782-.249l.006.667h0c-.006,0-2.711.028-5.491.081h0c-1.39.026-2.8.061-3.893.1h0c-.546.02-1.016.042-1.361.067h0c-.173.012-.315.024-.416.037h0c-.051,0-.093.011-.123.016h0l-.028.006Zm11.311-.308h0Z" transform="translate(-218.611 -489.496)" fill="#713f1f"/>
            </g>
            <g id="Grupo_994659" data-name="Grupo 994659" transform="translate(35.35 77.838)">
              <path id="Trazado_650554" data-name="Trazado 650554" d="M262.049,504.261l-.081.666h0a7.645,7.645,0,0,1-3.759-1.6h0c-.776-.781-.871-2.2-.873-3.452h0a10.17,10.17,0,0,1,.2-2.041l.569.007.072.1a9.679,9.679,0,0,0-.19,1.94h0c-.027,1.19.17,2.516.665,2.954h0a5.464,5.464,0,0,0,2.136,1.138h0a8.532,8.532,0,0,0,1.261.287Zm-3.884-6.621h0Z" transform="translate(-257.335 -497.64)" fill="#713f1f"/>
            </g>
            <path id="Trazado_650555" data-name="Trazado 650555" d="M212.589,515.887a28.034,28.034,0,0,1-9.233-1.322c-.011-3.149-3.381-26.65-2.774-30.248,0,0,2.784-12.562,7.536-17.614,2.685-2.853,8.416-2.922,9.4-2.013s8.611,15.67,8.613,19c0,2.515-4.559,27.207-5.023,30.53C220.328,514.824,215.227,515.846,212.589,515.887Z" transform="translate(-185.054 -398.052)" fill="#179587"/>
            <path id="Trazado_650556" data-name="Trazado 650556" d="M241.248,394.82c.076-.009,5.056-.98,5.953.745.6,1.152,13.628,21.1,13.628,21.1l-3.286,5.408s-12.81-15.567-15.146-17.017C240.742,404.029,237.823,394.394,241.248,394.82Z" transform="translate(-210.495 -352.798)" fill="#222b5a"/>
            <path id="Trazado_650557" data-name="Trazado 650557" d="M188.95,387.866l11.1-5.931,13.289,4.712s-.494.714.095,6.34c0,.01.167.746.166.759a39.422,39.422,0,0,1,1.176,5.464c-.176,2.445-1.761,2.689-3.252,3.7-.013,3.584-.028,7.691-.1,11.051a41.724,41.724,0,0,1-5.272-.058c-1.924-.061-3.884.493-5.773.132-2.346-5.25-6.573-14.767-7.786-16.989-.945-.985-1.186-3.048-1.41-3.533C190.132,391.24,188.49,389.018,188.95,387.866Z" transform="translate(-177.491 -344.607)" fill="#222b5a"/>
            <path id="Trazado_650558" data-name="Trazado 650558" d="M218.591,389.447c-.635,1.869-8.868,1.263-10.524,1.1-2.877-.285-4.075-3.977-5.95-6.253l6.42-4.117,9.246,3.627C217.89,384.6,218.826,388.754,218.591,389.447Z" transform="translate(-186.1 -343.463)" fill="#f79953"/>
            <path id="Trazado_650559" data-name="Trazado 650559" d="M219.99,371.379c-1.034-.321-2.447.023-3.207-.793l-.423-8.342a17.255,17.255,0,0,0,5.03,1.98,8.558,8.558,0,0,0,.874.1l.66,6.545A3.257,3.257,0,0,1,219.99,371.379Z" transform="translate(-195.355 -331.81)" fill="#f79953"/>
            <path id="Trazado_650560" data-name="Trazado 650560" d="M289.632,436.237c1.753.892,4.059-1.565,5.6-3.36l9.223-13.487-3.876-3.107L289.23,430.1S288.1,435.458,289.632,436.237Z" transform="translate(-242.452 -366.93)" fill="#222b5a"/>
            <path id="Trazado_650561" data-name="Trazado 650561" d="M216.324,297.519c1.184,8.039-3.565,18.02-9.341,19.088-8.219,1.52-14.545-7.885-15.729-15.927a14,14,0,0,1,11.776-15.992C210.519,283.44,215.138,289.479,216.324,297.519Z" transform="translate(-178.935 -281.301)" fill="#febe7b"/>
            <path id="Trazado_650562" data-name="Trazado 650562" d="M237.918,341.127c.135.029-.235.019-.314.116,1.116.628,2.243,1.659,2.111,2.156-.2.76-1.185.741-2.478.725a.334.334,0,0,0,.121.109c.525.211,2.727.522,2.973-.506C240.617,342.535,237.874,341.118,237.918,341.127Z" transform="translate(-208.924 -318.086)" fill="#cb6e40"/>
            <path id="Trazado_650563" data-name="Trazado 650563" d="M217.5,335.592c.027,1.019.562,1.832,1.2,1.817s1.129-.853,1.1-1.871-.562-1.835-1.2-1.82S217.474,334.572,217.5,335.592Z" transform="translate(-196.096 -313.271)" fill="#713f1f"/>
            <path id="Trazado_650564" data-name="Trazado 650564" d="M247.543,334.9c.125,1.013.76,1.769,1.417,1.691s1.089-.959.965-1.973-.759-1.769-1.418-1.692S247.419,333.89,247.543,334.9Z" transform="translate(-215.608 -312.755)" fill="#713f1f"/>
            <path id="Trazado_650565" data-name="Trazado 650565" d="M196.08,338.033c.2,1.719-.061,2.9-1.052,3.036a3.32,3.32,0,0,1-3.006-2.831c-.2-1.717.436-3.222,1.427-3.359S195.877,336.318,196.08,338.033Z" transform="translate(-179.514 -314.021)" fill="#febe7b"/>
            <path id="Trazado_650566" data-name="Trazado 650566" d="M217.3,325.522a13.823,13.823,0,0,0-2.87-.041,15.034,15.034,0,0,0-2.244.558l.37.629a8.181,8.181,0,0,0,1.747-.091,11.712,11.712,0,0,1,2.822.168Z" transform="translate(-192.641 -307.878)" fill="#cf7d43"/>
            <path id="Trazado_650567" data-name="Trazado 650567" d="M193.718,308.474h.056c.037.036.075.07.117.105Z" transform="translate(-180.641 -296.865)" fill="#bc722c"/>
            <path id="Trazado_650568" data-name="Trazado 650568" d="M194.211,308.773l.753.452A3.113,3.113,0,0,1,194.211,308.773Z" transform="translate(-180.962 -297.06)" fill="#bc722c"/>
            <path id="Trazado_650569" data-name="Trazado 650569" d="M213.683,275.577c4.192-1.168,9.017,1.743,12.342,6.478,3.747,5.335,6.509,15.477,6.056,23.8-.352,6.455-2.275,6.77-5.1,8.737,1.859-2.721,3.594-6.223,2.53-11.169a13.885,13.885,0,0,0-7.333-9.482c-2.706-1.232-5.684-.7-8.131-3.326-1.268-1.357-4.119-5.517-3.781-8.195l-.428.274C208.342,278.974,212.118,276.011,213.683,275.577Z" transform="translate(-190.894 -275.319)" fill="#713f1f"/>
            <path id="Trazado_650570" data-name="Trazado 650570" d="M195.208,285.6l-.342-.168c.59,3.716,1.177,2.892-.466,5.978-2.419,4.547-7.631,15.616-5.854,20.753-2.564-2.663-3.525-8.024-3.987-11.641-.43-3.351-1.187-7.251.231-10.414C186,287.412,192.64,282.6,195.208,285.6Z" transform="translate(-174.305 -281.384)" fill="#713f1f"/>
            <path id="Trazado_650571" data-name="Trazado 650571" d="M232.429,354.967c-.1.6-.746,3.747-2.824,3.833-1.76.073-2.989-1.081-3.517-3.674A19.327,19.327,0,0,0,232.429,354.967Z" transform="translate(-201.678 -327.081)" fill="#952010"/>
            <path id="Trazado_650572" data-name="Trazado 650572" d="M232.442,354.518c-.012.058-.03.132-.053.221a3.421,3.421,0,0,1-2.791,1.6,4.171,4.171,0,0,1-3.683-1.589A16.844,16.844,0,0,0,232.442,354.518Z" transform="translate(-201.566 -326.789)" fill="#fff"/>
            <g id="Grupo_994660" data-name="Grupo 994660" transform="translate(57.886 39.501)">
              <path id="Trazado_650573" data-name="Trazado 650573" d="M330.312,394.941l-.049-.964-.774-.213.763-.487L330,392.127l-1.884.942,4.954-4.032-1.038-.894-4.514,2.347-3.048,1.527-2.243,2.084s-.4,2.505-.523,3.933a4.309,4.309,0,0,0,2.174,1.74l.119-.111a32.589,32.589,0,0,0,6.2-3.04,3.529,3.529,0,0,0,.189-1.148s-.288-.1-.59-.22Z" transform="translate(-321.701 -388.142)" fill="#febe7b"/>
              <path id="Trazado_650574" data-name="Trazado 650574" d="M331.345,407.546c-.112-.745.137-.795.381-1.407a1.105,1.105,0,0,1-.75.111,1.258,1.258,0,0,1,.411-1.392,4.3,4.3,0,0,1-.5.054,3.359,3.359,0,0,1-.033-.809c.347-.2.668-.488,1.017-.709.115-.074.255-.154.4-.24q-1.221.364-2.449.7a12.6,12.6,0,0,1-.777,2.707c-.061.159-.131.315-.2.47a7.764,7.764,0,0,1,1.433,1.555c.04.055.075.107.11.16,1.318-.6,2.963-1.453,3.84-1.962a14.337,14.337,0,0,0-1.5.362A5.613,5.613,0,0,0,331.345,407.546Z" transform="translate(-326.341 -397.898)" fill="#ee9c58"/>
            </g>
            <path id="Trazado_650575" data-name="Trazado 650575" d="M230.552,467.488l-.35-3.933s-5.851.477-8.638.329-3.844-.131-3.844-.131.058,3.648.35,3.932S225.392,469.106,230.552,467.488Z" transform="translate(-196.24 -397.651)" fill="#212c31"/>
            <path id="Trazado_650576" data-name="Trazado 650576" d="M346.764,367.026l-22.322,14.028s-.18,2.789,2.815.458C332.481,377.445,346.292,367.977,346.764,367.026Z" transform="translate(-265.595 -334.918)" fill="#464545"/>
            <path id="Trazado_650577" data-name="Trazado 650577" d="M322.354,399.983c-.094.5,2.94-1.184,2.94-1.184l2.793-3.23,2.8-2.548-.464-.562s-3.727,1.766-4.63,2.235S323.194,395.532,322.354,399.983Z" transform="translate(-264.238 -351.446)" fill="#febe7b"/>
            <path id="Trazado_650578" data-name="Trazado 650578" d="M224.034,400.545a41.435,41.435,0,0,1-6.214,1.072c-2.615.035-5.215-.263-7.823-.4-.072.018-.112.037-.1.057,1.042,2.048,11.019,15.209,11.645,15.089.582-.112,2.162-14.494,2.311-16.352C223.828,400.016,224.058,400.541,224.034,400.545Z" transform="translate(-191.154 -356.356)" fill="#fff"/>
            <path id="Trazado_650579" data-name="Trazado 650579" d="M195.7,391.5s2.408,6.082,2.487,7.137,2.754.33,3.19.359-1.024,2.334-1.217,3.072,12.71,8.621,12.331,7.7S199.3,390.544,198.6,389.909C198.252,389.59,195.992,391.52,195.7,391.5Z" transform="translate(-181.93 -349.766)" fill="#38484f"/>
            <path id="Trazado_650580" data-name="Trazado 650580" d="M243.049,409.5c-.32.178.734-19.891.972-20.027a5.36,5.36,0,0,1,2.149.5c.189.167,1.954,4.886,1.582,5.222a15.757,15.757,0,0,1-2.226,1.064c-.156.094,2.123,1.241,2.353,1.565S243.464,409.267,243.049,409.5Z" transform="translate(-212.661 -349.488)" fill="#38484f"/>
            <path id="Trazado_650581" data-name="Trazado 650581" d="M208.5,464.233s-5.169,10.985-5.342,12.119,8.293,2.559,12.845,1.877c.656-.1,1.654-5.364,1.654-5.364l2.849,4.677s5.433-.777,5.607-1.722-6.051-12.609-6.051-12.609S209.576,462.338,208.5,464.233Z" transform="translate(-186.777 -397.297)" fill="#222b5a"/>
            <path id="Trazado_650582" data-name="Trazado 650582" d="M222.977,725.865c.478,1.59,3.787,10.93,4.326,11.755s2.445,3.368,2.647,3.558-2.058,1.173-2.861.732-3.285-2.274-3.691-3.1-2.911-6.166-3.116-6.866-1.676-1.2-1.878-1.518,1.12-4.1,1.385-4.356S222.9,725.591,222.977,725.865Z" transform="translate(-196.671 -568.04)" fill="#944400"/>
            <path id="Trazado_650583" data-name="Trazado 650583" d="M223.262,722.622c.478,1.591,4.394,12.385,4.934,13.211s-1.092,1.184-2.14.518A12.6,12.6,0,0,1,223.341,733c-.405-.826-3.821-5.711-3.829-6.74,0-.136,1.043-3.14,1.116-3.405C220.727,722.5,223.18,722.347,223.262,722.622Z" transform="translate(-197.404 -565.923)" fill="#febe7b"/>
          </g>
        </g>
        <g id="Layer_15" data-name="Layer 15" transform="translate(245.686 310.754)">
          <path id="Trazado_650584" data-name="Trazado 650584" d="M413.789,699.417l75.517-20.806a19.014,19.014,0,0,1,12.843-1.028c6.678,2.056,176.463,80.141,176.463,80.141s7.192,3.6,1.541,6.422-71.407,27.741-71.407,27.741-5.271,3.36-13.424.139S413.275,706.1,413.275,706.1,408.909,702.5,413.789,699.417Z" transform="translate(-411.478 -676.877)" fill="#161615" opacity="0.1"/>
        </g>
        <g id="Layer_16_copy_2" data-name="Layer 16 copy 2" transform="translate(334.867 188.496)">
          <g id="Grupo_994662" data-name="Grupo 994662">
            <path id="Trazado_650585" data-name="Trazado 650585" d="M766.617,471.179c.319,6.553-1.877,30.683-2.814,33.913,0,0-1.982,6.029-7.089,6.675-8.788,1.111-12.4.538-15.949-.753-1.423-.519-8.754-2.393-8.569-7.225.086-2.258-.042-6.342-.109-10.182-.229-13.019-2.807-31.1.131-32.548.543-.267,10.632-.646,18.137,1.938,10.07,3.467,12.3,4.764,13.865,5.491C766.3,469.457,766.594,470.713,766.617,471.179Z" transform="translate(-708.196 -414.239)" fill="#d4e3ec"/>
            <path id="Trazado_650586" data-name="Trazado 650586" d="M767.669,468.438c-1.564-.727-3.794-2.024-13.865-5.49-7.505-2.584-17.594-2.205-18.137-1.938-.764.375-1.155,1.879-1.311,4.125a46.678,46.678,0,0,1,18.739.413c10.892,2.48,15.158,6.149,16.991,8.195.018-1.035.013-1.922-.021-2.613C770.043,470.664,769.753,469.407,767.669,468.438Z" transform="translate(-710.492 -414.206)" fill="#f7fcff"/>
            <path id="Trazado_650587" data-name="Trazado 650587" d="M680.95,443.6c.377-1.666-.9-10.792-1.959-16.067a5.794,5.794,0,0,0-2.945,3.172c-1.1,3.151-7.913,20.572-9.78,24.493-1.1,2.3,11.177,10.767,12.343,9.572.464-.476,3.6-13.542,3.671-13.8C681.643,447.048,680.18,447,680.95,443.6Z" transform="translate(-666.196 -392.576)" fill="#1e282d"/>
            <path id="Trazado_650588" data-name="Trazado 650588" d="M701.2,422.813l11.669-2.719,8.584,1.7s12.777,4.934,15.02,8.027c3.766,4.168-3.962,37.033-5.3,53.885a63.433,63.433,0,0,1-14.225.284c-1.062-.089-1.743-8.7-2.768-8.719-1.09-.023-1.192,8.78-2.184,8.735-4.2-.188-8.623-.819-8.675-2.231-.662-17.955-1.891-34.124-2-35.7C700.739,437.927,699.985,425.251,701.2,422.813Z" transform="translate(-688.522 -387.74)" fill="#1b2248"/>
            <path id="Trazado_650589" data-name="Trazado 650589" d="M720.538,420.418c0,.41,4.686,37.153,5.25,36.249s12.085-35.309,11.63-35.683c-.2-.166-7.825-2.794-10.083-2.832C725.792,418.126,720.538,420.191,720.538,420.418Z" transform="translate(-701.512 -386.477)" fill="#fff"/>
            <path id="Trazado_650590" data-name="Trazado 650590" d="M731.741,408.519c1.411.1,6.2-2.322,6.641-2.651l-.293-10.035L727.3,397.775l-.334,8.422C727.707,406.689,729.95,408.393,731.741,408.519Z" transform="translate(-705.691 -371.973)" fill="#ee9c58"/>
            <path id="Trazado_650591" data-name="Trazado 650591" d="M724.443,425.95c.07.273,1.174,7.926,1.174,7.926l5.266-4.491,4.369,4.478L737.5,425.6l-3.054,5.7-4.357-2.589-3.742,2.713Z" transform="translate(-704.05 -391.321)" fill="#c0e1e3"/>
            <path id="Trazado_650592" data-name="Trazado 650592" d="M730.137,475.613l-2.171-8.681c.506-4.22,2.936-18.756,3.144-20.454.018-.154,1.789.928,1.894-.07l.806,19.858C733.091,468.7,730.137,475.613,730.137,475.613Z" transform="translate(-706.34 -404.84)" fill="#8eadc6"/>
            <path id="Trazado_650593" data-name="Trazado 650593" d="M736.007,434.961l2.427,1.32-2.706,5.891-2.241-5.526S735.708,435.119,736.007,434.961Z" transform="translate(-709.927 -397.402)" fill="#8eadc6"/>
            <path id="Trazado_650594" data-name="Trazado 650594" d="M715.464,422.035s-2.946.567-3.059,1.02c-.073.292-1.831,7.334-1.764,7.468.469.93,2.731,1.69,2.731,1.69a22.3,22.3,0,0,0-1.561,3.381c-.175.86,6.776,24.452,7.152,24.642S715.861,422.49,715.464,422.035Z" transform="translate(-695.079 -389.001)" fill="#38484f"/>
            <path id="Trazado_650595" data-name="Trazado 650595" d="M743.9,423.653a39.087,39.087,0,0,1,4.969,1.916c.629.616.486,8.427.406,9.479s-5.069.478-5.069.478,2.41,3.993,2.487,4.878-11.993,21.544-12.68,21.146C733.615,461.318,743.216,425.418,743.9,423.653Z" transform="translate(-710.264 -390.053)" fill="#38484f"/>
            <path id="Trazado_650596" data-name="Trazado 650596" d="M722.881,358.683s-9.978,6.623-16.666,3.087c-3.905-2.065-1.23-15.872-.012-21.289,1.417-6.3,7.546-10.809,13.047-8.245S738.556,340.9,722.881,358.683Z" transform="translate(-690.876 -330.166)" fill="#feb667"/>
            <path id="Trazado_650597" data-name="Trazado 650597" d="M703.685,383.605a37.154,37.154,0,0,1,5.546.791c.6.343,1.352,2.286,1.352,2.286s3.782-.663,4.565-1.746S717,378.7,717,378.7l2.282-.161s-1.139,12.626-2.1,13.287-9.333,3.495-12.646,1.188c-1.681-1.17-1.154-2.97-1.012-4.707C703.629,386.947,703.685,383.605,703.685,383.605Z" transform="translate(-690.328 -360.736)" fill="#aa4a00"/>
            <path id="Trazado_650598" data-name="Trazado 650598" d="M700.773,372.852a.1.1,0,0,1,.028-.015l-.845-1.049c-2.664,4.073-5.046,5.224-4.871,5.1.067,1.687,3.678,1.7,4.71,1.535-.343-.019,1.163-5.64.978-5.571C700.562,372.957,700.595,372.918,700.773,372.852Z" transform="translate(-684.965 -356.347)" fill="#feb667"/>
            <path id="Trazado_650599" data-name="Trazado 650599" d="M714.187,375.971c-.093,1.037.341,1.935.973,2.011s1.221-.7,1.318-1.732-.339-1.934-.972-2.01S714.286,374.938,714.187,375.971Z" transform="translate(-697.376 -357.936)" fill="#7e4523"/>
            <path id="Trazado_650600" data-name="Trazado 650600" d="M716.888,367.52c.132-.474.249-.955.359-1.439a13.876,13.876,0,0,0-1.877-.59,17.491,17.491,0,0,0-4.095-.229l.256,1.988a14.649,14.649,0,0,1,4.023.02A11.15,11.15,0,0,0,716.888,367.52Z" transform="translate(-695.492 -352.085)" fill="#944400"/>
            <path id="Trazado_650601" data-name="Trazado 650601" d="M739.152,333.421c-2-4.271-10.735-5.139-15.171-3.9a59.521,59.521,0,0,1-6.768,1.5c-1.143.174,10.031.108,10.232,6.559-.541,4.624-1.6,8.42-1.745,10.276.893.007,2.09.348,2.689-.771.523-.978,2.2-.163,2.266,1.06.1,1.911.476,8.758.452,9.171-.013.214,1.69.126,1.975.143.743-1.67,6.616-8.056,7.995-13.978C741.483,341.739,740.285,335.853,739.152,333.421Z" transform="translate(-699.298 -328.541)" fill="#aa4a00"/>
            <path id="Trazado_650602" data-name="Trazado 650602" d="M703.949,399.081c.307.019,3.341-.3,3.781.271a1.275,1.275,0,0,1-.6,2.043c-1.3.383-3.269.418-3.256.216C703.9,401.193,703.949,399.081,703.949,399.081Z" transform="translate(-690.68 -374.036)" fill="#feb667"/>
            <path id="Trazado_650603" data-name="Trazado 650603" d="M748.163,376.027a20.988,20.988,0,0,0-.168,4.725c1.151.3,3.774-1.4,4.266-3.707s-1.039-4.523-2.2-4.79S748.326,374.732,748.163,376.027Z" transform="translate(-719.307 -356.638)" fill="#feb667"/>
            <path id="Trazado_650604" data-name="Trazado 650604" d="M704.137,399.085a24.646,24.646,0,0,1,3.136-.017c.218.024.045,1.058.045,1.058l-3.209.519Z" transform="translate(-690.835 -374.043)" fill="#d65f4f"/>
            <path id="Trazado_650605" data-name="Trazado 650605" d="M719.889,328.6c-2.018.246-9.682,2.329-12.652-.919a7.816,7.816,0,0,0-.308,2.13,3.782,3.782,0,0,1-1.3-1.654,7.207,7.207,0,0,0-.323,3.6c.056,1.043.368,3.747,1.532,4.209.8.317,2.683-.142,3.586-.238,1.612-.171,6.373-1.214,8.44-2.539l2.266-.74c1,.144-1.545-1.564-.923-2.385C721.135,328.835,721.2,328.444,719.889,328.6Z" transform="translate(-691.562 -327.684)" fill="#aa4a00"/>
            <path id="Trazado_650606" data-name="Trazado 650606" d="M766.591,504.568s4.234-29.352,4.8-26.572,2.484,25.342,1.667,28.7S766.808,507.353,766.591,504.568Z" transform="translate(-731.441 -425.249)" fill="#1e282d"/>
          </g>
        </g>
        <g id="Layer_16_copy_3" data-name="Layer 16 copy 3" transform="translate(395.237 203.291)">
          <g id="Grupo_994663" data-name="Grupo 994663" transform="translate(0 0)">
            <path id="Trazado_650607" data-name="Trazado 650607" d="M927.642,530.384c.319,6.543-1.873,30.636-2.81,33.862,0,0-1.977,6.02-7.078,6.665-8.774,1.108-12.385.537-15.924-.751-1.42-.519-8.741-2.391-8.557-7.215.086-2.254-.042-6.332-.109-10.166-.228-13-2.8-31.057.131-32.5.543-.267,10.616-.645,18.11,1.935,10.055,3.462,12.282,4.757,13.844,5.482C927.33,528.665,927.62,529.919,927.642,530.384Z" transform="translate(-873.25 -467.52)" fill="#d4e3ec"/>
            <path id="Trazado_650608" data-name="Trazado 650608" d="M925.4,527.647c-1.562-.726-3.788-2.02-13.843-5.483-7.494-2.58-17.567-2.2-18.11-1.935-.763.375-1.153,1.876-1.309,4.118a46.621,46.621,0,0,1,18.711.413c14.748,3.357,14.345,5.259,16.966,8.183.018-1.034.013-1.92-.021-2.609C927.768,529.869,927.478,528.614,925.4,527.647Z" transform="translate(-873.401 -467.487)" fill="#f7fcff"/>
            <path id="Trazado_650609" data-name="Trazado 650609" d="M848.061,500.05c.364-1.664-.759-12.667-1.787-17.935-.6.119-1.526.213-1.927.957-2.517,4.657-3.79,18.523-5.709,35.086-.293,2.529,5.393,2.805,6.519,1.612.448-.475,4.118-12.1,4.188-12.36C848.729,503.489,847.316,503.441,848.061,500.05Z" transform="translate(-838.627 -442.841)" fill="#097e71"/>
            <path id="Trazado_650610" data-name="Trazado 650610" d="M842.664,596.6l5.229-27.733s9.145,1.227,8.437,7.374l-5.475,23.276C849.661,599.456,844.409,598.267,842.664,596.6Z" transform="translate(-841.251 -499.223)" fill="#212c31"/>
            <path id="Trazado_650611" data-name="Trazado 650611" d="M857.015,479.208l12.177-1.852,8.337.828s15.248,6.43,15.96,7.317c4.095,6.494-1.428,38.648-3.427,55.405a91.129,91.129,0,0,1-17.661-.043c-1.021-.132-1.319-8.749-2.307-8.812-1.051-.067-1.518,8.711-2.474,8.627-4.042-.357-8.289-1.165-8.28-2.577.112-17.939-2.346-34.965-2.326-36.546C857.051,498.769,856.373,479.722,857.015,479.208Z" transform="translate(-850.397 -439.748)" fill="#179587"/>
            <path id="Trazado_650612" data-name="Trazado 650612" d="M880.075,477.315c.45.369,3.772,37.027,4.372,36.148s12.875-35,12.437-35.39a66.585,66.585,0,0,0-10.138-2.52C885.208,475.462,879.842,477.123,880.075,477.315Z" transform="translate(-865.559 -438.574)" fill="#fff"/>
            <path id="Trazado_650613" data-name="Trazado 650613" d="M892.742,466.4a34.294,34.294,0,0,0,6.661-2.586l-.083-9.824-10.787,1.479-.681,8.345C888.565,464.329,890.981,466.671,892.742,466.4Z" transform="translate(-870.617 -424.56)" fill="#ee9c58"/>
            <path id="Trazado_650614" data-name="Trazado 650614" d="M883.273,485.009c.059.276.84,7.956.84,7.956l5.441-4.26,4.539,4.646,2.218-8.141-3.285,5.563-4.239-2.765-3.846,2.551Z" transform="translate(-867.642 -444.721)" fill="#c0e1e3"/>
            <path id="Trazado_650615" data-name="Trazado 650615" d="M887.39,531.924,885.3,522.4c.682-4.188,3.354-18.118,3.632-19.8.025-.153,1.746,1,1.893.009l-.01,19.878C890,524.881,887.39,531.924,887.39,531.924Z" transform="translate(-868.96 -456.142)" fill="#f1b62b"/>
            <path id="Trazado_650616" data-name="Trazado 650616" d="M894.419,493.561l2.277,1.584-2.946,5.764-2-5.607S894.113,493.706,894.419,493.561Z" transform="translate(-873.148 -450.279)" fill="#f1b62b"/>
            <path id="Trazado_650617" data-name="Trazado 650617" d="M873.815,478.075a15.266,15.266,0,0,0-3.776.755c-.686.462-1.826,7.763-1.926,8.8s2.966,1.42,2.966,1.42-2.5,2.761-2.709,3.612,7.315,23.3,7.68,23.506S874.192,478.545,873.815,478.075Z" transform="translate(-857.788 -440.215)" fill="#38484f"/>
            <path id="Trazado_650618" data-name="Trazado 650618" d="M901.714,481.63s4.2.9,4.846,1.5-.514,10.531-.637,11.577-5.014.031-5.014.031,2.135,3.761,2.173,4.647-11.645,19.428-12.313,19C890.378,518.142,900.954,483.362,901.714,481.63Z" transform="translate(-872.506 -442.526)" fill="#38484f"/>
            <path id="Trazado_650619" data-name="Trazado 650619" d="M884.164,409.417s-12.889,5.691-16.988,3.594c-2.619-1.34-1.782-17.989-.564-21.8,2.011-6.3,8.172-12.276,13.874-9.792S899.758,390.8,884.164,409.417Z" transform="translate(-856.061 -377.023)" fill="#feb667"/>
            <path id="Trazado_650620" data-name="Trazado 650620" d="M860.771,423.623a.277.277,0,0,1,.029-.015l-1.269-2.416c-1.1,3.371-5.037,7.1-4.861,6.969,1.094,1.537,5.011.936,5.245,1.194-.351-.01,1.045-5.806.856-5.731C860.558,423.736,860.591,423.7,860.771,423.623Z" transform="translate(-849.049 -403.247)" fill="#feb667"/>
            <path id="Trazado_650621" data-name="Trazado 650621" d="M873.306,426.576c-.068,1.064.4,1.973,1.05,2.034s1.231-.746,1.3-1.808-.4-1.972-1.047-2.034S873.381,425.516,873.306,426.576Z" transform="translate(-861.16 -405.569)" fill="#7e4523"/>
            <path id="Trazado_650622" data-name="Trazado 650622" d="M876.159,417.319c.095-.457.176-.919.25-1.384a13.14,13.14,0,0,0-1.815-.441,16.562,16.562,0,0,0-3.888.04l.367,1.865a13.924,13.924,0,0,1,3.808-.233A10.6,10.6,0,0,0,876.159,417.319Z" transform="translate(-859.474 -399.478)" fill="#713f1f"/>
            <path id="Trazado_650623" data-name="Trazado 650623" d="M896.93,384.369c-3.011-6.012-13.4-6.2-16.043-6.135-1.716.046-8.816.056-11.31-.17l5.9,5.561c5.256,2.282,4.486,9.254,3.795,14.037a27.221,27.221,0,0,1,4.327-.186c1.107.258,2-.091,2.1,1.16.152,1.955-.16,9.629-.065,10.041.246,1.062,2.777.251,3.29.169.721-2.362,5.6-7.689,7.388-12.514C896.954,394.613,898.153,386.83,896.93,384.369Z" transform="translate(-858.741 -375.219)" fill="#713f1f"/>
            <path id="Trazado_650624" data-name="Trazado 650624" d="M903.471,427.909c-.445,2.377.162,4.5,1.357,4.743s2.526-1.487,2.972-3.864-.162-4.5-1.358-4.744S903.917,425.532,903.471,427.909Z" transform="translate(-880.673 -405.087)" fill="#feb667"/>
            <path id="Trazado_650625" data-name="Trazado 650625" d="M879.622,373.052c-1.945.015-6.807.279-9.675-1.492a7.962,7.962,0,0,0,.142,1.594c-.805-1.253-2.243-1.9-3.022-3.214a10.305,10.305,0,0,0-.076,2.458,5.979,5.979,0,0,1-1.448-2.118,9.813,9.813,0,0,0,.064,4.181c.165,1.232.754,4.449,1.939,5.149.814.48,2.6.2,3.476.206a21.773,21.773,0,0,0,5.009-.38l.349-.565c1,.3,3.076-3.5,3.6-4.378C880.757,373.177,880.88,373.042,879.622,373.052Z" transform="translate(-855.98 -369.94)" fill="#713f1f"/>
            <path id="Trazado_650626" data-name="Trazado 650626" d="M865.506,451.746s2.633-.131,3.782-.332c.22-.039.049,1.459.049,1.459l-3.647.437Z" transform="translate(-856.095 -422.889)" fill="#d65f4f"/>
            <path id="Trazado_650627" data-name="Trazado 650627" d="M929.916,565.815s2.078-29.539,2.843-26.812,4.32,25.056,3.752,28.461S930.336,568.574,929.916,565.815Z" transform="translate(-897.954 -479.696)" fill="#107469"/>
          </g>
        </g>
        <g id="Layer_22" data-name="Layer 22" transform="translate(433.365 309.384)">
          <path id="Trazado_650628" data-name="Trazado 650628" d="M997.635,679.452c-4.525.758-21.1,9.212-21.1,9.212l14.885-9.6s-5.4-11.961-20.817-2.378c-7,4.351-17.527,9.507-21.576,11.827l-1.266,5.977c-.605,2.169-.472,6,5.546,7.86,15.965,4.944,23.846,3.256,30.141.519,6.984-3.038,21.963-15.373,21.963-15.373S1005.209,678.181,997.635,679.452Z" transform="translate(-947.526 -672.965)" fill="#263338"/>
          <g id="Grupo_994664" data-name="Grupo 994664" transform="translate(15.216 17.979)">
            <path id="Trazado_650629" data-name="Trazado 650629" d="M1003.717,734.1l-1.689-9.78c-.112.007-.224.009-.337.017-1.774.131-5.514.5-7.922,1.69l2.9,9.594,9.933,35.154,3.352-.536-3.864-28.842Z" transform="translate(-992.794 -724.317)" fill="#ee9c58"/>
            <path id="Trazado_650630" data-name="Trazado 650630" d="M1003.546,852.551c-.242.192-5.706,5.06-7.983,6.935-2.125,1.75-4.575,4.155-4.575,4.155a2.935,2.935,0,0,0,1.332.812c.764.176,5.122-1.237,12.1-5.908a38.366,38.366,0,0,0,4.244-3.045c.365-.373-.722-4.355-1.17-4.569S1006,850.607,1003.546,852.551Z" transform="translate(-990.987 -806.527)" fill="#944400"/>
            <path id="Trazado_650631" data-name="Trazado 650631" d="M1012.994,846.7c-.418.245-4.216,4.728-6.737,6.881a46.811,46.811,0,0,0-3.8,3.506s.155,1.184,1.882.975,8-4.294,10.074-6.183.793-4.457.8-5.223S1012.994,846.7,1012.994,846.7Z" transform="translate(-998.442 -803.612)" fill="#ee9c58"/>
            <path id="Trazado_650632" data-name="Trazado 650632" d="M1021.742,859.537c-.208.225-4.808,5.814-6.749,7.991-1.813,2.032-3.839,4.757-3.839,4.757a3.019,3.019,0,0,0,1.451.613c.784.065,4.858-1.952,10.985-7.563a37.205,37.205,0,0,0,3.692-3.613c.3-.422-1.428-4.2-1.907-4.35S1023.854,857.266,1021.742,859.537Z" transform="translate(-1004.093 -810.755)" fill="#944400"/>
            <path id="Trazado_650633" data-name="Trazado 650633" d="M1021.509,740.449l-1.17-8.7a34.122,34.122,0,0,0-8.918-.734l2.992,10.73,8.61,35.454,3.371-.427-2.784-28.95Z" transform="translate(-1004.267 -728.636)" fill="#febe7b"/>
            <path id="Trazado_650634" data-name="Trazado 650634" d="M1029.489,853.4c-.373.3-3.39,5.273-5.527,7.761a45.529,45.529,0,0,0-3.179,4.005s.348,1.148,2.021.7,7.2-5.383,8.94-7.546.051-4.518-.065-5.276S1029.489,853.4,1029.489,853.4Z" transform="translate(-1010.351 -807.803)" fill="#febe7b"/>
          </g>
          <g id="Grupo_994665" data-name="Grupo 994665" transform="translate(29.504 21.379)">
            <path id="Trazado_650635" data-name="Trazado 650635" d="M1060.36,739.983a6.157,6.157,0,0,0-6.356-5.954,11.633,11.633,0,0,0-3.681.552,10.428,10.428,0,0,0-2.659,1.207c-.84.574-10.747,5.059-15.867,7.566q.122,1.358.249,2.716c4.852-2.468,16.223-7.582,17.253-8.279a7.816,7.816,0,0,1,1.911-.848,8.783,8.783,0,0,1,2.733-.421,3.767,3.767,0,0,1,2.352.752,4.286,4.286,0,0,1,1.351,2.972c.337,2.736.276,10.55.082,18.321-.123,5.007.2,11.84.059,15.618s-.253,6.293-.252,6.3a1.37,1.37,0,0,0,2.726.111s-.051-11.916.2-21.96C1060.644,750.8,1060.727,743.092,1060.36,739.983Z" transform="translate(-1031.797 -734.027)" fill="#adbfc9"/>
          </g>
        </g>
        <g id="Layer_16_copy_4" data-name="Layer 16 copy 4" transform="translate(440.759 221.191)">
          <g id="Grupo_994666" data-name="Grupo 994666" transform="translate(0 0)">
            <path id="Trazado_650636" data-name="Trazado 650636" d="M1073.666,595.451c.311,6.4-1.832,29.947-2.747,33.1,0,0-1.934,5.884-6.919,6.514-8.576,1.084-12.106.526-15.566-.735-1.389-.507-8.544-2.336-8.364-7.051.085-2.2-.041-6.189-.107-9.938-.223-12.706-2.74-30.357.128-31.767.531-.26,10.377-.631,17.7,1.892,9.829,3.384,12.006,4.65,13.531,5.359C1073.361,593.77,1073.644,595,1073.666,595.451Z" transform="translate(-1014.193 -527.857)" fill="#d4e3ec"/>
            <path id="Trazado_650637" data-name="Trazado 650637" d="M1071.471,592.775c-1.526-.708-3.7-1.974-13.532-5.359-7.325-2.522-17.171-2.152-17.7-1.891-.745.367-1.126,1.834-1.279,4.026a45.574,45.574,0,0,1,18.29.4c10.631,2.42,14.794,6,16.584,8,.017-1.011.012-1.876-.021-2.55C1073.789,594.948,1073.506,593.721,1071.471,592.775Z" transform="translate(-1014.341 -527.825)" fill="#f7fcff"/>
            <path id="Trazado_650638" data-name="Trazado 650638" d="M968.646,665.613l17.193-12.893,9.539-15.034s9.5.963,12.094,5.109,6.928,11.2,5.914,18.418-9.048,13.825-15.14,16.559-14.2,6.8-14.2,6.8S979.88,669.481,968.646,665.613Z" transform="translate(-968.646 -561.844)" fill="#263338"/>
            <path id="Trazado_650639" data-name="Trazado 650639" d="M1038.714,640.527c-2.69.288-7.78.921-10.875.98-1.335.026-.791-10.418-1.108-10.408-.947.03-3.964,9.941-4.671,9.69a20.615,20.615,0,0,1-4.308-.939c1.841-7.861,7.094-21.194,12.766-21.929,6.112-.792,11.419,11.246,14.723,20.684C1042.939,639.17,1041.059,640.276,1038.714,640.527Z" transform="translate(-1000.559 -548.976)" fill="#263338"/>
            <path id="Trazado_650640" data-name="Trazado 650640" d="M1024.208,532.844s8.5-1.813,13.983-1.742c3.917.051,13.576,7.085,14.167,7.38,1.005.5-.3-.058-4.014,11.035-3.986,11.9-8.521,22.455-8.521,22.455s-12.846,1.248-12.994-.059c-.328-3-2.776-18.958-3.068-24.978C1023.609,543.832,1024.785,537.271,1024.208,532.844Z" transform="translate(-1004.455 -492.576)" fill="#ee4e5d"/>
            <path id="Trazado_650641" data-name="Trazado 650641" d="M1039.7,530.584s.185,18.713.513,18.239c3.629-5.226,14.132-17.449,13.265-17.631-1.154-.242-6.186-1.635-6.186-1.635Z" transform="translate(-1014.823 -491.573)" fill="#fff"/>
            <path id="Trazado_650642" data-name="Trazado 650642" d="M1049.816,499.009l2.332-17.91,5.9.032-.443,17.822-5.939,2.5Z" transform="translate(-1021.397 -460.081)" fill="#ee9c58"/>
            <path id="Trazado_650643" data-name="Trazado 650643" d="M1054.306,532.951c-.113.24-5.875,7.889-5.875,7.889l-2.3-4.574-4.16,3.006.22-6.985.906,4.744,3.123-1.317,2.257,2.744Z" transform="translate(-1016.296 -493.348)" fill="#c0e1e3"/>
            <path id="Trazado_650644" data-name="Trazado 650644" d="M1041.47,456.141s-13.039,6.233-15.792,3.1a10.955,10.955,0,0,1-1.578-3.486c-.151-.486-.672-2.463-.788-2.984-1.064-4.765-1.636-10.988-.45-15.095,1.961-6.786,10.13-14.779,16.461-12.331S1057.822,435.763,1041.47,456.141Z" transform="translate(-1003.451 -423.552)" fill="#febe7b"/>
            <path id="Trazado_650645" data-name="Trazado 650645" d="M1020.329,477.289l.033-.017-.317-.869a41.467,41.467,0,0,1-5.8,4.856c3.807,3.97,7.847.558,7.035-4.187a2.532,2.532,0,0,0-.955.217C1020.1,477.416,1020.135,477.374,1020.329,477.289Z" transform="translate(-998.282 -457.029)" fill="#febe7b"/>
            <path id="Trazado_650646" data-name="Trazado 650646" d="M1031.314,477.479c-.2,1.258.2,2.5.9,2.783s1.43-.5,1.638-1.756-.195-2.5-.894-2.781S1031.523,476.227,1031.314,477.479Z" transform="translate(-1009.338 -456.55)" fill="#713f1f"/>
            <path id="Trazado_650647" data-name="Trazado 650647" d="M1062.822,421.067l-.014.086C1062.8,421.1,1062.807,421.077,1062.822,421.067Z" transform="translate(-1029.838 -421.067)" fill="#7e4523"/>
            <path id="Trazado_650648" data-name="Trazado 650648" d="M1033.8,458.343a18.083,18.083,0,0,1,3.441.856,18.489,18.489,0,0,1,2.465,1.327l-.68.583a10.476,10.476,0,0,1-2.05-.652,15.467,15.467,0,0,0-3.429-.7Z" transform="translate(-1010.824 -445.292)" fill="#935028"/>
            <path id="Trazado_650649" data-name="Trazado 650649" d="M1016.058,443.773c-.648-.837,1.44-11.817,7.462-12.074a17.318,17.318,0,0,1,7.017,1.294s-.281,2.512-.734,6.779-.552,6.5-.552,6.5S1016.9,444.867,1016.058,443.773Z" transform="translate(-999.384 -427.968)" fill="#c94f00"/>
            <path id="Trazado_650650" data-name="Trazado 650650" d="M1038.672,425.881s1.553-1.676,6.987-3.247,10.938,1.758,14.61,5.574a19.153,19.153,0,0,1,4.513,7.684c1.409,5.334,1.15,12.2-2.219,14.906-5.351,4.293-15.913,8.753-16.063,8.209-.115-.417-.553-28.152-1.857-28.423C1040.729,429.772,1038.672,425.881,1038.672,425.881Z" transform="translate(-1014.155 -421.827)" fill="#c94f00"/>
            <path id="Trazado_650651" data-name="Trazado 650651" d="M1056.365,535.755a64.888,64.888,0,0,0-2.556,6.62c-.107.988-2.595.223-3,.237s.889,2.223,1.047,2.921-12.195,7.695-11.811,6.838,12.977-17.626,13.652-18.2C1054.031,533.883,1056.091,535.763,1056.365,535.755Z" transform="translate(-1015.038 -494.552)" fill="#222b5a"/>
            <path id="Trazado_650652" data-name="Trazado 650652" d="M1032.77,551.26c.295.177-.07-18.687-.289-18.822a5.027,5.027,0,0,0-2.032.405c-.183.15-1.986,4.524-1.647,4.85a14.89,14.89,0,0,0,2.056,1.068c.144.092-2.031,1.1-2.256,1.4S1032.387,551.032,1032.77,551.26Z" transform="translate(-1007.605 -493.427)" fill="#222b5a"/>
            <path id="Trazado_650653" data-name="Trazado 650653" d="M1026.131,504.093s2.795-.291,4.007-.575c.233-.055.132,1.592.132,1.592l-3.858.683Z" transform="translate(-1006.005 -474.65)" fill="#d65f4f"/>
          </g>
        </g>
        <g id="Layer_20" data-name="Layer 20" transform="translate(260.482 281.317)">
          <g id="Grupo_994669" data-name="Grupo 994669">
            <g id="Grupo_994667" data-name="Grupo 994667" transform="translate(0 15.547)">
              <path id="Trazado_650654" data-name="Trazado 650654" d="M454.952,691.563a1.252,1.252,0,0,1-1.214-1.289h0c0-.011.162-5.324.324-11.327h0c.162-6,.325-12.693.325-15.377h0c0-.537-.009-.932-.017-1.029h0c-.059-.734-.088-1.424-.088-2.076h0c-.008-3.285.758-5.642,2.13-7.364h0a14.729,14.729,0,0,1,5.057-3.7h0c3.95-2.047,16.043-9.849,16.966-10.47h0a12.047,12.047,0,0,1,6.043-1.725h0a6.583,6.583,0,0,1,3.931,1.154h0a6.194,6.194,0,0,1,2.353,4.231h0c.5,3.238.733,10.854.864,17.786h0c.128,6.913.137,13.054.138,13.058h0a1.251,1.251,0,0,1-1.25,1.253h0a1.251,1.251,0,0,1-1.253-1.25h0c0-.014-.009-6.128-.137-13.015h0c-.124-6.87-.383-14.58-.835-17.449h0a3.691,3.691,0,0,0-1.357-2.6h0a4.113,4.113,0,0,0-2.454-.67h0a9.771,9.771,0,0,0-4.648,1.3h0c-1.037.693-12.975,8.409-17.207,10.613h0a12.45,12.45,0,0,0-4.248,3.034h0c-.954,1.215-1.58,2.87-1.589,5.809h0c0,.577.026,1.2.081,1.884h0c.019.265.024.651.025,1.221h0c0,5.494-.65,26.77-.65,26.779h0a1.253,1.253,0,0,1-1.251,1.214h-.039Z" transform="translate(-453.737 -637.205)" fill="#90a4af"/>
            </g>
            <path id="Trazado_650655" data-name="Trazado 650655" d="M537.321,742.086s.159,6.238.078,6.562c-.332,1.324,3.5,2.057,5.062,1.785s15.188-7.431,15.819-7.928c2.971-2.339-3.128-2.315-3.983-1.969-1.229.5-13.135,2.092-13.135,2.092Z" transform="translate(-508.057 -688.7)" fill="#713f1f"/>
            <path id="Trazado_650656" data-name="Trazado 650656" d="M544.067,637.354c.482-.077,6.857-2.769,6.557,1.037-.557,7.069-2.836,38.279-2.836,38.279s-7.849,3.741-10.092.489c-.384-.557.341-8.186.691-16.093.437-9.85.579-20.323.579-20.323S541.205,637.815,544.067,637.354Z" transform="translate(-508.23 -621.107)" fill="#1e282d"/>
            <path id="Trazado_650657" data-name="Trazado 650657" d="M578.624,752.411s-.38,6.639-.144,7.047c.685,1.18,4.432,1.219,5.982.9.732-.151,17.657-7.184,18.288-7.683s-1.383-3.231-4.154-2.208c-1.244.459-16.557,3.035-16.557,3.035Z" transform="translate(-534.755 -695.116)" fill="#713f1f"/>
            <path id="Trazado_650658" data-name="Trazado 650658" d="M583.225,615.164c.482-.077,5.688-.884,6.957,2.718s-4.16,48.249-4.16,48.249-10.839,4.1-10.936-.5c-.014-.64,3.82-44.461,3.82-44.461S580.363,615.627,583.225,615.164Z" transform="translate(-532.601 -607.249)" fill="#1e282d"/>
            <path id="Trazado_650659" data-name="Trazado 650659" d="M465.917,626.419s17.643,10.729,26.94,6.676a284.777,284.777,0,0,0,27.59-14.783c3.741-2.877-3.271-6.674-3.51-7.389s-20.027-6.2-24.318-5.245S458.049,622.128,465.917,626.419Z" transform="translate(-460.809 -601.097)" fill="#adbfc9"/>
            <path id="Trazado_650660" data-name="Trazado 650660" d="M503.618,598.3c-4.173.851-19.271,9.232-19.271,9.232l13.495-9.391s-5.4-10.919-19.387-1.528c-6.349,4.263-15.948,9.389-19.629,11.674l-.98,5.585c-.49,2.031-.242,5.578,5.4,7.111,14.97,4.066,22.106.934,27.855-1.81,6.38-3.045,22.52-12,22.52-12S510.6,596.873,503.618,598.3Z" transform="translate(-456.298 -592.799)" fill="#1e282d"/>
            <g id="Grupo_994668" data-name="Grupo 994668" transform="translate(28.339 15.899)">
              <path id="Trazado_650661" data-name="Trazado 650661" d="M535.1,703.279c0-.01-.028-4.972-.07-11.3h0c-.042-6.332-.1-14.023-.158-19.458h0c-.038-3.605-.082-6.283-.114-6.73h0c-.055-.8-.081-1.544-.081-2.247h0c0-3.553.69-6.044,1.955-7.907h0a14.194,14.194,0,0,1,4.74-4.054h0c3.682-2.23,15-10.77,15.861-11.447h0a9.209,9.209,0,0,1,2.412-1.277h0a9.851,9.851,0,0,1,3.363-.645h0a5.726,5.726,0,0,1,3.8,1.3h0a6.909,6.909,0,0,1,2.163,4.52h0c.407,3.11.5,10.846.509,18.715h0c0,10.085-.18,20.24-.18,20.245h0a1.251,1.251,0,0,1-1.274,1.229h0a1.252,1.252,0,0,1-1.229-1.274h0c0-.006.046-2.534.09-6.328h0c.045-3.793.09-8.844.09-13.872h0c0-7.8-.117-15.645-.487-18.384h0a4.444,4.444,0,0,0-1.308-2.948h0a3.241,3.241,0,0,0-2.173-.7h0a7.422,7.422,0,0,0-2.5.49h0a6.916,6.916,0,0,0-1.732.9h0c-.975.761-12.135,9.2-16.107,11.619h0a11.858,11.858,0,0,0-3.966,3.317h0c-.911,1.351-1.52,3.248-1.524,6.5h0q0,.959.075,2.077h0c.043.656.079,3.226.12,6.873h0c.04,3.628.077,8.257.112,12.816h0c.067,9.118.115,17.958.115,17.958h0a1.253,1.253,0,0,1-1.245,1.259h-.007a1.251,1.251,0,0,1-1.251-1.246Z" transform="translate(-534.68 -638.21)" fill="#adbfc9"/>
            </g>
          </g>
        </g>
        <g id="Layer_20_copy" data-name="Layer 20 copy" transform="translate(313.954 301.469)">
          <g id="Grupo_994672" data-name="Grupo 994672">
            <g id="Grupo_994670" data-name="Grupo 994670" transform="translate(0 16.254)">
              <path id="Trazado_650662" data-name="Trazado 650662" d="M607.733,753.57a1.309,1.309,0,0,1-1.268-1.347h0c0-.011.17-5.562.339-11.833h0c.169-6.267.339-13.261.339-16.064h0c0-.562-.01-.973-.018-1.076h0c-.061-.767-.091-1.488-.092-2.168h0c-.009-3.433.792-5.895,2.225-7.692h0a15.384,15.384,0,0,1,5.284-3.867h0c4.126-2.137,16.76-10.288,17.724-10.937h0a12.577,12.577,0,0,1,6.313-1.8h0a6.881,6.881,0,0,1,4.107,1.205h0a6.47,6.47,0,0,1,2.458,4.421h0c.52,3.383.765,11.34.9,18.582h0c.133,7.221.143,13.637.144,13.642h0a1.309,1.309,0,0,1-1.306,1.309h0a1.308,1.308,0,0,1-1.309-1.306h0c0-.013-.009-6.4-.144-13.6h0c-.129-7.176-.4-15.231-.872-18.229h0a3.857,3.857,0,0,0-1.418-2.711h0a4.3,4.3,0,0,0-2.564-.7h0a10.206,10.206,0,0,0-4.856,1.358h0c-1.083.723-13.554,8.785-17.975,11.087h0a13.006,13.006,0,0,0-4.438,3.169h0c-1,1.27-1.652,3-1.661,6.07h0c0,.6.027,1.255.084,1.969h0c.02.277.024.679.025,1.275h0c0,5.739-.679,27.966-.679,27.976h0a1.308,1.308,0,0,1-1.306,1.267h-.041Z" transform="translate(-606.464 -696.783)" fill="#90a4af"/>
            </g>
            <path id="Trazado_650663" data-name="Trazado 650663" d="M680.249,822.828a51.114,51.114,0,0,0-.831,5.534c0,1.387,2.252,1.353,3.647,1.177s14.081-6.213,14.717-6.607c2.039-1.262-2.187-2.032-2.962-1.734-1.115.428-11.675,1.836-11.675,1.836Z" transform="translate(-653.876 -761.342)" fill="#944400"/>
            <path id="Trazado_650664" data-name="Trazado 650664" d="M690.538,702.027c.547-.053,3.194,2.912,2.592,7.163-1.12,7.9-7.805,38.548-7.805,38.548s-2.927,2.691-4.423-.965c-.1-.237.928-9.367,1.6-18.528.817-11.059,2.071-22.773,2.071-22.773S687.293,702.345,690.538,702.027Z" transform="translate(-654.835 -683.936)" fill="#ee9c58"/>
            <path id="Trazado_650665" data-name="Trazado 650665" d="M695.415,829.611s-1.529,6.49-1.342,6.92c.541,1.24,3.4.938,4.791.71.656-.106,14.266-6.226,14.853-6.692s-.432-2.264-1.921-1.9c-1.156.284-14.819,2.033-14.819,2.033Z" transform="translate(-663.389 -766.197)" fill="#944400"/>
            <path id="Trazado_650666" data-name="Trazado 650666" d="M680.347,823.355c.02-1.472,1.153.591,12.987-1.026,1-.136,2.246.492,1.037,1.224-1.477.893-12.455,6.547-14.617,4.552C679.494,827.865,680.336,824.2,680.347,823.355Z" transform="translate(-654.062 -762.107)" fill="#ee9c58"/>
            <path id="Trazado_650667" data-name="Trazado 650667" d="M696.961,832.441c.83-.515,9.875-1.107,10.877-1.2s2.964.614,1.656,1.165a96.48,96.48,0,0,1-9.564,3.992c-1.429.43-2.269-.224-3.429-1C695.87,834.977,696.837,832.519,696.961,832.441Z" transform="translate(-664.84 -767.902)" fill="#febe7b"/>
            <path id="Trazado_650668" data-name="Trazado 650668" d="M709.795,694.79c.546-.054,7.315.963,6.535,5.185-1.253,6.78-14.008,46.389-14.008,46.389s-2.531.926-3.2-.291c-.347-.631,6.494-42.929,6.494-42.929S706.55,695.108,709.795,694.79Z" transform="translate(-666.672 -679.232)" fill="#febe7b"/>
            <path id="Trazado_650669" data-name="Trazado 650669" d="M619.189,685.516s18.4,12.417,28.111,8.183,19.791-10.648,22.668-12.972c3.837-3.1,2.77-10.653,2.52-11.4s-20.92-6.476-25.4-5.48S610.97,681.033,619.189,685.516Z" transform="translate(-613.852 -659.048)" fill="#adbfc9"/>
            <path id="Trazado_650670" data-name="Trazado 650670" d="M671.494,651.989a32.879,32.879,0,0,0-11.4-1.6,23.468,23.468,0,0,0-12.051,3.958c-6.633,4.453-9.18,7.442-13.025,9.829l-.193,6.946c.965,3.28,2.7,6.173,5.981,7.137,15.547,4.573,14.569,3.891,20.575,1.024,6.665-3.182,21.108-13.032,21.108-13.032S684.6,656.078,671.494,651.989Z" transform="translate(-624.895 -650.357)" fill="#1e282d"/>
            <g id="Grupo_994671" data-name="Grupo 994671" transform="translate(29.606 16.622)">
              <path id="Trazado_650671" data-name="Trazado 650671" d="M691.467,765.81c0-.011-.029-5.194-.073-11.808h0c-.043-6.615-.1-14.651-.165-20.328h0c-.04-3.767-.086-6.564-.119-7.03h0q-.086-1.249-.085-2.347h0c0-3.712.721-6.314,2.042-8.261h0a14.853,14.853,0,0,1,4.952-4.235h0c3.847-2.329,15.674-11.251,16.57-11.959h0a9.651,9.651,0,0,1,2.519-1.334h0a10.3,10.3,0,0,1,3.513-.673h0a5.982,5.982,0,0,1,3.969,1.357h0a7.218,7.218,0,0,1,2.26,4.721h0c.425,3.25.526,11.331.531,19.55h0c0,10.537-.188,21.146-.188,21.15h0a1.308,1.308,0,0,1-1.332,1.284h0a1.309,1.309,0,0,1-1.284-1.331h0c0-.007.048-2.648.095-6.61h0c.047-3.963.094-9.24.094-14.493h0c0-8.151-.122-16.344-.509-19.2h0a4.644,4.644,0,0,0-1.366-3.08h0a3.383,3.383,0,0,0-2.27-.729h0a7.786,7.786,0,0,0-2.609.512h0a7.221,7.221,0,0,0-1.81.938h0c-1.413,1.1-12.984,9.8-16.827,12.138h0a12.4,12.4,0,0,0-4.144,3.464h0c-.952,1.411-1.587,3.393-1.592,6.8h0c0,.668.025,1.39.078,2.17h0c.045.685.083,3.371.126,7.179h0c.041,3.791.081,8.626.117,13.39h0c.07,9.525.121,18.762.121,18.762h0a1.308,1.308,0,0,1-1.3,1.314h-.007a1.308,1.308,0,0,1-1.307-1.3Z" transform="translate(-691.024 -697.833)" fill="#adbfc9"/>
            </g>
          </g>
        </g>
        <g id="Layer_17" data-name="Layer 17" transform="translate(367.842 330.777)">
          <g id="Grupo_994675" data-name="Grupo 994675" transform="translate(0 0)">
            <g id="Grupo_994673" data-name="Grupo 994673" transform="translate(0 16.751)">
              <path id="Trazado_650672" data-name="Trazado 650672" d="M761.689,840.473a1.35,1.35,0,0,1-1.308-1.39h0c0-.012.175-5.736.349-12.2h0c.175-6.464.35-13.675.35-16.566h0c0-.58-.01-1-.019-1.11h0q-.1-1.184-.095-2.236h0c-.009-3.54.818-6.079,2.295-7.934h0a15.893,15.893,0,0,1,5.449-3.988h0c4.256-2.2,17.286-10.609,18.279-11.279h0a12.956,12.956,0,0,1,6.511-1.859h0a7.09,7.09,0,0,1,4.235,1.242h0a6.672,6.672,0,0,1,2.535,4.559h0c.536,3.49.789,11.7.931,19.164h0c.138,7.447.147,14.064.148,14.069h0a1.349,1.349,0,0,1-1.347,1.35h0a1.349,1.349,0,0,1-1.351-1.347h0c0-.013-.009-6.6-.147-14.021h0c-.133-7.4-.412-15.707-.9-18.8h0a3.978,3.978,0,0,0-1.462-2.8h0a4.424,4.424,0,0,0-2.643-.724h0a10.511,10.511,0,0,0-5.008,1.4h0c-1.118.745-13.979,9.06-18.539,11.434h0a13.425,13.425,0,0,0-4.577,3.268h0c-1.027,1.311-1.7,3.093-1.711,6.259h0c0,.621.027,1.294.086,2.03h0c.021.285.026.7.026,1.315h0c0,5.918-.7,28.841-.7,28.851h0a1.349,1.349,0,0,1-1.347,1.307h-.042Z" transform="translate(-760.381 -781.909)" fill="#90a4af"/>
            </g>
            <path id="Trazado_650673" data-name="Trazado 650673" d="M850.433,894.9s.171,6.721.084,7.07c-.357,1.425,3.773,2.216,5.454,1.922s16.363-8.005,17.044-8.541c3.2-2.52-3.371-2.495-4.291-2.122-1.324.536-14.152,2.254-14.152,2.254Z" transform="translate(-818.904 -837.387)" fill="#713f1f"/>
            <path id="Trazado_650674" data-name="Trazado 650674" d="M857.7,782.069c.52-.083,7.388-2.983,7.064,1.117-.6,7.616-3.055,41.241-3.055,41.241s-8.456,4.031-10.872.527c-.415-.6.366-8.82.744-17.339.471-10.613.624-21.9.624-21.9S854.618,782.566,857.7,782.069Z" transform="translate(-819.091 -764.565)" fill="#1b2248"/>
            <path id="Trazado_650675" data-name="Trazado 650675" d="M894.932,906.028s-.41,7.152-.154,7.592c.737,1.271,4.775,1.313,6.445.966.788-.162,19.024-7.739,19.7-8.276s-1.49-3.483-4.475-2.379c-1.341.5-17.838,3.27-17.838,3.27Z" transform="translate(-847.669 -844.299)" fill="#713f1f"/>
            <path id="Trazado_650676" data-name="Trazado 650676" d="M899.889,758.164c.519-.084,6.129-.953,7.5,2.927s-4.482,51.983-4.482,51.983-11.676,4.416-11.781-.54c-.015-.689,4.115-47.9,4.115-47.9S896.806,758.66,899.889,758.164Z" transform="translate(-845.348 -749.635)" fill="#1b2248"/>
            <path id="Trazado_650677" data-name="Trazado 650677" d="M773.7,774.954s20.847,12.557,30.864,8.191,21.133-10.7,23.3-13.005c3.486-3.7.663-7.358.406-8.128s-18-7.937-22.623-6.909S765.224,770.33,773.7,774.954Z" transform="translate(-768.196 -747.672)" fill="#adbfc9"/>
            <path id="Trazado_650678" data-name="Trazado 650678" d="M814.121,739.989c-4.495.917-20.762,9.948-20.762,9.948l14.54-10.117s-5.82-11.765-20.888-1.647c-6.841,4.593-17.182,10.117-21.148,12.577l-1.056,6.017c-.528,2.188-.261,6.01,5.819,7.661,16.129,4.381,23.946,2.418,30.14-.539,6.873-3.28,23.667-14.128,23.667-14.128S821.646,738.455,814.121,739.989Z" transform="translate(-763.14 -734.066)" fill="#1b2248"/>
            <g id="Grupo_994674" data-name="Grupo 994674" transform="translate(30.532 17.129)">
              <path id="Trazado_650679" data-name="Trazado 650679" d="M848.044,853.095c0-.012-.029-5.357-.076-12.178h0c-.044-6.823-.107-15.109-.17-20.965h0c-.041-3.885-.089-6.769-.123-7.25h0c-.06-.859-.087-1.664-.087-2.421h0c-.006-3.828.744-6.512,2.106-8.52h0a15.315,15.315,0,0,1,5.107-4.367h0c3.967-2.4,16.164-11.6,17.089-12.333h0a9.936,9.936,0,0,1,2.6-1.375h0a10.614,10.614,0,0,1,3.623-.7h0a6.17,6.17,0,0,1,4.094,1.4h0a7.443,7.443,0,0,1,2.33,4.869h0c.438,3.351.544,11.685.548,20.162h0c0,10.867-.194,21.807-.194,21.812h0a1.348,1.348,0,0,1-1.373,1.325h0a1.349,1.349,0,0,1-1.324-1.372h0c0-.007.05-2.731.1-6.817h0c.049-4.087.1-9.529.1-14.947h0c0-8.406-.126-16.855-.525-19.805h0a4.79,4.79,0,0,0-1.409-3.176h0a3.484,3.484,0,0,0-2.341-.751h0a8.017,8.017,0,0,0-2.69.528h0a7.43,7.43,0,0,0-1.866.968h0C872.5,788,860.48,797.093,856.2,799.7h0a12.78,12.78,0,0,0-4.273,3.573h0c-.981,1.455-1.637,3.5-1.642,7.008h0q0,1.033.081,2.237h0c.046.708.085,3.476.13,7.4h0c.043,3.909.083,8.9.12,13.808h0c.073,9.823.125,19.349.125,19.349h0a1.35,1.35,0,0,1-1.342,1.355h-.008a1.348,1.348,0,0,1-1.348-1.342Z" transform="translate(-847.588 -782.99)" fill="#adbfc9"/>
            </g>
          </g>
        </g>
        <g id="Layer_16_copy" data-name="Layer 16 copy" transform="translate(233.865 237.485)">
          <g id="Grupo_994676" data-name="Grupo 994676" transform="translate(0)">
            <path id="Trazado_650680" data-name="Trazado 650680" d="M487.669,602.567a1.569,1.569,0,0,1-1.9,1.15l-1.56-.349a1.568,1.568,0,0,1-1.228-1.847L499.1,527.5a1.569,1.569,0,0,1,1.9-1.15l1.559.348a1.57,1.57,0,0,1,1.229,1.847Z" transform="translate(-446.105 -505.757)" fill="#7c8c96"/>
            <path id="Trazado_650681" data-name="Trazado 650681" d="M999.9,810.009a1.569,1.569,0,0,1-1.9,1.151l-1.56-.349a1.568,1.568,0,0,1-1.228-1.847l16.119-74.021a1.569,1.569,0,0,1,1.9-1.15l1.559.349a1.569,1.569,0,0,1,1.228,1.847Z" transform="translate(-778.995 -640.57)" fill="#7c8c96"/>
            <path id="Trazado_650682" data-name="Trazado 650682" d="M1070.479,798.981a1.569,1.569,0,0,1-1,1.978l-1.509.527a1.568,1.568,0,0,1-2.018-.92l-20.309-58.141a1.567,1.567,0,0,1,1-1.978l1.509-.527a1.568,1.568,0,0,1,2.018.92Z" transform="translate(-811.734 -644.518)" fill="#7c8c96"/>
            <path id="Trazado_650683" data-name="Trazado 650683" d="M378.263,502.546c-.456-1.272-.69-4.3-.455-4.3,21.832.411,81.7-9.727,81.7-9.727l194.051,77.266.153,5.184-78.6,26.584Z" transform="translate(-377.715 -481.198)" fill="#c1d1da"/>
            <path id="Trazado_650684" data-name="Trazado 650684" d="M378.094,484.559c1.3-.2,78.6-16.953,78.6-16.953l197.129,84.5-79.23,25.3Z" transform="translate(-377.961 -467.606)" fill="#f7fcff"/>
            <path id="Trazado_650685" data-name="Trazado 650685" d="M939.332,734.27l.771,6.55,78.6-26.585-.14-5.269Z" transform="translate(-742.701 -624.462)" fill="#96aab6"/>
          </g>
        </g>
        <g id="Layer_18" data-name="Layer 18" transform="translate(382.109 248.892)">
          <g id="Grupo_994677" data-name="Grupo 994677">
            <path id="Trazado_650686" data-name="Trazado 650686" d="M805.954,615.261s21.482,9.619,22.772,9.913,24.925-9.559,24.9-10.068-19.572-10.561-21.688-10.561C831.137,604.545,805.3,614.945,805.954,615.261Z" transform="translate(-804.257 -568.008)" fill="#96aab6"/>
            <path id="Trazado_650687" data-name="Trazado 650687" d="M801.141,612.054s21.482,9.619,22.772,9.913,24.925-9.56,24.9-10.069-19.571-10.56-21.688-10.56C826.324,601.338,800.49,611.738,801.141,612.054Z" transform="translate(-801.129 -565.923)" fill="#fff"/>
            <path id="Trazado_650688" data-name="Trazado 650688" d="M938.744,508.546s3.681-7.465,5.575-8.14a3.052,3.052,0,0,1,4.006,1.6c1.914,4.388,1.52,35.669,1.461,37.129-.1,2.593-3.55,1.352-4.9,1.183-1.86-.233-2.393-1.752-3.477-3.023S939.548,509.478,938.744,508.546Z" transform="translate(-890.563 -500.187)" fill="#179587"/>
            <path id="Trazado_650689" data-name="Trazado 650689" d="M856.408,619.7a45.294,45.294,0,0,1-4.2-3.042l-4.523-3.256-.7.6,3.5,3.683-4.589.326-6.911-.11-.071,1.027,7.753.888-7.3.6.11.5,6.953.467-5.594.865.371.675,5.425-.082-2.719,1.27.368.463,5.667-1.49,5.743-.815Z" transform="translate(-825.686 -573.765)" fill="#febe7b"/>
            <path id="Trazado_650690" data-name="Trazado 650690" d="M913.293,604.69c-.253-1.267-7.583-4.48-8.851-4.31l-21.589,8.026c.265,2.135.562,5.426.795,6.941l17.1-4.366S913.927,607.864,913.293,604.69Z" transform="translate(-854.24 -565.297)" fill="#179587"/>
          </g>
        </g>
        <g id="Layer_23" data-name="Layer 23" transform="translate(329.95 229.828)">
          <g id="Grupo_994678" data-name="Grupo 994678">
            <path id="Trazado_650691" data-name="Trazado 650691" d="M656.868,542.488s21,9.4,22.26,9.689,24.365-9.344,24.342-9.842-19.131-10.322-21.2-10.322C681.484,532.013,656.231,542.179,656.868,542.488Z" transform="translate(-655.209 -501.806)" fill="#96aab6"/>
            <path id="Trazado_650692" data-name="Trazado 650692" d="M652.164,539.352s21,9.4,22.26,9.689,24.364-9.344,24.342-9.842-19.131-10.322-21.2-10.322C676.78,528.877,651.527,539.043,652.164,539.352Z" transform="translate(-652.152 -499.768)" fill="#fff"/>
            <path id="Trazado_650693" data-name="Trazado 650693" d="M731.212,523.244a25.685,25.685,0,0,0,2.822-.233l5.731-.185,4.143,3.154-2.03-.645,6.19,2.664-.15,1.142-2.778-.946,2.72,1.147-.782.435-3.371-.785,2.433,1.063-.5.544-5.1-1.337,2.29,1.821-.448.347-5.02-2.71-6.151-2.983Z" transform="translate(-703.532 -495.835)" fill="#febe7b"/>
            <path id="Trazado_650694" data-name="Trazado 650694" d="M689.588,503.864l-23.7-9.574c-1.12.187-2.034,1.722-2.987,3.921-.768,1.774,1.494,5.6,1.494,5.6l22.961,4.741A10.935,10.935,0,0,1,689.588,503.864Z" transform="translate(-659.034 -477.29)" fill="#1e282d"/>
            <path id="Trazado_650695" data-name="Trazado 650695" d="M776.948,453.86s3.6-7.3,5.451-7.956a3.4,3.4,0,0,1,4.139,1.878c1.87,4.289.936,34.024.879,35.451-.1,2.535-2.373,1.33-4.084,1.983s-4.542-2.024-5.6-3.266S777.733,454.771,776.948,453.86Z" transform="translate(-733.255 -445.736)" fill="#1b2248"/>
            <path id="Trazado_650696" data-name="Trazado 650696" d="M694.806,521.12a44.225,44.225,0,0,1-4.044-3.061l-4.352-3.276-.7.573,3.348,3.673-4.492.223L677.819,519l-.091,1,7.558,1.029-7.146.431.1.487,6.785.6-5.485.729.349.667,5.3.033-2.684,1.185.351.46,5.568-1.338,5.629-.675Z" transform="translate(-668.773 -490.609)" fill="#febe7b"/>
            <path id="Trazado_650697" data-name="Trazado 650697" d="M747.439,540.647c2.013-3.46-.277-6.738-1.653-7.12l-26.858-5.778a6.807,6.807,0,0,0-2.038,6.05l16,5.569S745.848,543.38,747.439,540.647Z" transform="translate(-694.154 -499.035)" fill="#1b2248"/>
          </g>
        </g>
        <g id="Layer_18_copy" data-name="Layer 18 copy" transform="translate(424.047 261.436)">
          <g id="Grupo_994679" data-name="Grupo 994679" transform="translate(0 0)">
            <path id="Trazado_650698" data-name="Trazado 650698" d="M920.926,666.016s14.365,6.485,15.405,6.937,16.41,8.15,17.647,8.432,24.38-7.674,24.359-8.163-17.824-7.016-19.075-7.623-13.79-7.321-14.61-7.454S920.3,665.713,920.926,666.016Z" transform="translate(-920.914 -615.383)" fill="#3a94bb"/>
            <path id="Trazado_650699" data-name="Trazado 650699" d="M971.336,686.021a68.586,68.586,0,0,1,8.605,2.75,48.011,48.011,0,0,1,6.753,4.271l23.649-7.354c-4.548-2.626-7.6-4.541-9.942-5.523a48.928,48.928,0,0,0-6.082-1.54Z" transform="translate(-953.682 -628.694)" fill="#fff"/>
            <path id="Trazado_650700" data-name="Trazado 650700" d="M928.935,666.067a84.384,84.384,0,0,1,8.053,2.875,48.018,48.018,0,0,1,6.752,4.272l23.65-7.354a113.407,113.407,0,0,0-9.942-5.522,48.575,48.575,0,0,0-6.082-1.54Z" transform="translate(-926.127 -615.809)" fill="#fff"/>
            <path id="Trazado_650701" data-name="Trazado 650701" d="M1053.464,654.1a25.6,25.6,0,0,0,2.818.281l5.67.853,3.505,3.851-1.88-1,5.607,3.738-.353,1.1-2.562-1.432,2.468,1.62-.847.286-3.174-1.383,2.2,1.486-.585.446-4.773-2.236,1.923,2.2-.5.26-4.449-3.573-5.511-4.044Z" transform="translate(-1006.767 -612.758)" fill="#febe7b"/>
            <path id="Trazado_650702" data-name="Trazado 650702" d="M989.913,625.282c1.335-1.991,3.03-1.633,4.764-1.5l20.357,11.358-2.174,2.739-20.8-7.39S988.837,626.889,989.913,625.282Z" transform="translate(-965.612 -592.981)" fill="#febe7b"/>
            <path id="Trazado_650703" data-name="Trazado 650703" d="M983.5,618.669c.774-2.439,2.445-4.872,2.8-4.716l20.549,11.431c-.821.373-2.661,3.144-3.083,4.881l-14.957-5.749S982.282,622.508,983.5,618.669Z" transform="translate(-961.489 -586.662)" fill="#ee4e5d"/>
            <path id="Trazado_650704" data-name="Trazado 650704" d="M1086.035,558.733s2.574-5.706,4.409-6.354c1.432-.507,3.568-.137,4.308,1.548,1.855,4.222,1.024,33.3.967,34.7-.1,2.494-2.542.892-4.238,1.535s-4.535-.332-4.469-1.942C1087.175,584.314,1086.814,559.629,1086.035,558.733Z" transform="translate(-1028.224 -546.513)" fill="#ee4e5d"/>
            <path id="Trazado_650705" data-name="Trazado 650705" d="M999.545,549.01c.611-1.542.749-7.786.551-12.995a1.936,1.936,0,0,0-1.6.867c-1.545,2.26-4.349,9.684-12.144,29.478-.908,2.306,6.058,2.111,7.342,1.135.511-.388,5.878-10.995,5.985-11.23C999.673,552.409,998.3,552.15,999.545,549.01Z" transform="translate(-963.385 -536.015)" fill="#ee4e5d"/>
            <path id="Trazado_650706" data-name="Trazado 650706" d="M1018.175,571.664c0,2.759,2.417,4.656,3.738,4.463,1.706-.249,1.914-2.7,1.6-5.444s-1.732-13.825-2.419-11.475C1020.678,560.622,1018.175,570.112,1018.175,571.664Z" transform="translate(-984.122 -550.877)" fill="#ee4e5d"/>
            <path id="Trazado_650707" data-name="Trazado 650707" d="M1003.235,670.073c-.328,0-4.895-4.212-4.895-4.212l-2.93.419-2.581,1.6,2.929.139-2.709.426-6.567-.147v.906l3.069.558.279,1.326,1.325.278-1.046.209.349.838,1.6.139-.976.419,1.325.767,3.488.209,7.254-1.814Z" transform="translate(-963.526 -620.4)" fill="#febe7b"/>
            <path id="Trazado_650708" data-name="Trazado 650708" d="M1054.622,655.883c-1-2.2-5.346-1.485-7.076-1.651l-21.86,7.677.643,3.02,22.732-3.624S1055.427,657.655,1054.622,655.883Z" transform="translate(-989.003 -612.842)" fill="#febe7b"/>
            <path id="Trazado_650709" data-name="Trazado 650709" d="M1067.229,651.5c-.992-2.43-5.163-2.017-6.687-2.821l-18.17,6.585a11.675,11.675,0,0,0,2.321,6.481l17.282-4.533S1068.437,654.457,1067.229,651.5Z" transform="translate(-999.848 -609.234)" fill="#ee4e5d"/>
            <path id="Trazado_650710" data-name="Trazado 650710" d="M1012.955,661.848a.573.573,0,0,0-.763-.23l-10.616,4.072q1.338.008,2.676.02l8.289-3.181A.573.573,0,0,0,1012.955,661.848Z" transform="translate(-973.335 -617.608)" fill="#6f828c"/>
          </g>
        </g>
        <g id="Layer_13_copy" data-name="Layer 13 copy" transform="translate(259.618 207.47)">
          <g id="Grupo_994681" data-name="Grupo 994681" transform="translate(0 0)">
            <path id="Trazado_650711" data-name="Trazado 650711" d="M511.682,552.053s21.2,8.944,22.465,9.2,24.156-9.871,24.123-10.368-19.351-9.905-21.419-9.86C536.066,541.046,511.039,551.757,511.682,552.053Z" transform="translate(-490.523 -485.308)" fill="#96aab6"/>
            <path id="Trazado_650712" data-name="Trazado 650712" d="M506.911,549.019s21.2,8.944,22.465,9.2,24.156-9.87,24.123-10.368-19.351-9.9-21.419-9.859C531.295,538.012,506.268,548.724,506.911,549.019Z" transform="translate(-487.423 -483.336)" fill="#fff"/>
            <path id="Trazado_650713" data-name="Trazado 650713" d="M552.846,560.329s1.083-11.631,4-8.176c2.583,3.055,8.81,9.287,9.765,9.442s1.553,4.368,1.215,6.142-1.036,3.293-2.221,3.87S553.694,562.371,552.846,560.329Z" transform="translate(-517.283 -492.12)" fill="#10194a"/>
            <path id="Trazado_650714" data-name="Trazado 650714" d="M490.705,472.334c.054-.752,1.146-7.71,1.146-7.71s11.982-3.057,11.982-1.667c0,2.5-.346,12.528-.346,12.528S490.467,475.672,490.705,472.334Z" transform="translate(-476.896 -434.334)" fill="#febe7b"/>
            <path id="Trazado_650715" data-name="Trazado 650715" d="M464.067,539.051c.683,1.431,19.08,18.758,29.866-2.047.432-7.766.173-19.847,1.1-27.216.623-4.985,5.358-16.121,3.265-17.639-2.456-1.782-16.273-9.164-16.273-9.164s-6.721-.454-8.455-.227a40.581,40.581,0,0,0-11.336,3.232c-1.005.363,2.057,34.96,2.057,34.96Z" transform="translate(-458.26 -447.397)" fill="#222b5a"/>
            <path id="Trazado_650716" data-name="Trazado 650716" d="M456.413,491.553c-.916.564-2.59,4.836-.322,10.974.732,1.981,4.157,11.88,4.724,14.257,1.393,5.839,11.684,1.791,10.772-1.584-1.26-4.659-5.852-21.048-8.127-23.562C461.7,489.695,458.214,490.445,456.413,491.553Z" transform="translate(-453.664 -452.429)" fill="#222b5a"/>
            <g id="Grupo_994680" data-name="Grupo 994680" transform="translate(7.992)">
              <path id="Trazado_650717" data-name="Trazado 650717" d="M493.105,393.136s-9.268,2.168-10.993,8.29c-1.07,3.8-3.139,16.848-1,19.8,1.486,2.05,16.522,2.816,18.648-2.618S506.88,395.073,493.105,393.136Z" transform="translate(-478.051 -389.194)" fill="#febe7b"/>
              <path id="Trazado_650718" data-name="Trazado 650718" d="M480.6,423.061s-6.3,6.516-6.435,6.766c-.522.937,2.269,1.768,3.692,1.467S481.077,422.889,480.6,423.061Z" transform="translate(-474.098 -408.64)" fill="#febe7b"/>
              <path id="Trazado_650719" data-name="Trazado 650719" d="M483.276,391.794a12.913,12.913,0,0,0,3.127,3.941c1.285,1.2.028,11.568.028,11.568l1.121.04s1.3-4,2.681-3.866,1.661,1.7,1.542,2.985-2.575,6.05-2.575,6.05l.383,5.426s9.709,1.154,10.519-.07,7.4-10.183,8.41-13.555c2.153-7.207-5.023-15.4-7.34-16.286C492.188,384.587,483.144,391.507,483.276,391.794Z" transform="translate(-480.062 -385.252)" fill="#713f1f"/>
              <path id="Trazado_650720" data-name="Trazado 650720" d="M483.191,383.662s-2.57,2.877-1.786,4.466,3.965,4.92,5.579,5.071,4.5-7.754,4.5-7.754l-5.561-.315-.945-3.253C484.136,382.717,482.667,383.977,483.191,383.662Z" transform="translate(-478.75 -381.878)" fill="#713f1f"/>
              <path id="Trazado_650721" data-name="Trazado 650721" d="M482.9,429.643a3.032,3.032,0,0,0-.115,2.38c.3.387.825-.054,1.186-.984a3.033,3.033,0,0,0,.117-2.378C483.792,428.276,483.26,428.717,482.9,429.643Z" transform="translate(-479.618 -412.191)" fill="#713f1f"/>
              <path id="Trazado_650722" data-name="Trazado 650722" d="M485.348,422.569c.061-.4.114-.808.165-1.213-.461-.185-1.071-.427-1.887-.744l-.391,1.552s1.08.213,2.11.434Z" transform="translate(-480.035 -407.051)" fill="#c1711d"/>
            </g>
            <path id="Trazado_650723" data-name="Trazado 650723" d="M483.282,481.565l3.114-2.221s12.114.344,13.217,1.447c.386.386,2.708,3.562,2.708,3.562S484.983,482.811,483.282,481.565Z" transform="translate(-472.074 -445.22)" fill="#1e282d"/>
            <path id="Trazado_650724" data-name="Trazado 650724" d="M549.283,519.07s1.881-7.336,3.638-7.906,1.379-2.3,2.56-.951,12.15,24.394,12.766,25.654c1.093,2.239.762,5.9-.309,7.38s-4.2,1.439-5.629.932S549.39,523.664,549.283,519.07Z" transform="translate(-514.967 -464.954)" fill="#222b5a"/>
            <path id="Trazado_650725" data-name="Trazado 650725" d="M451.3,572.467c-.285,5.664,1.549,30.726,2.656,33.011a44.034,44.034,0,0,0,10.967,4.681c7.629,2.06,15.139,2.995,17.642,1.5,6.545-3.916,16.5-7.794,21.84-12.07.257-.205.071-3.781-1.368-2.841-7.576,4.947-21.069,10.657-21.187,7.673-.077-1.951.037-5.481.1-8.8.2-11.251,1.094-15.911-1.528-17.159-.486-.231-10.416-.293-17.568-2.289-4.564-1.275-8-3.6-9.566-4.1-.156-.05-.705.152-1.108.05C451.989,572.068,451.321,572.065,451.3,572.467Z" transform="translate(-451.27 -505.472)" fill="#adbfc9"/>
            <path id="Trazado_650726" data-name="Trazado 650726" d="M464.061,577.974c8.942,1.839,15.492,1.92,17.638,1.1a2.8,2.8,0,0,0-1.33-1.306c-.512-.164-10.317-.277-17.47-2.274-6.6-1.842-8.463-4.325-9.421-4.425-.2-.021-2.059.185-2.144.834C453.267,574.158,458.745,576.88,464.061,577.974Z" transform="translate(-451.312 -504.83)" fill="#c5d6e0"/>
          </g>
        </g>
        <g id="Layer_13_copy_2" data-name="Layer 13 copy 2" transform="translate(311.246 230.387)">
          <g id="Grupo_994682" data-name="Grupo 994682">
            <path id="Trazado_650727" data-name="Trazado 650727" d="M652.983,618.242s19.085,9.727,20.275,10.1,26.5-12.159,26.5-12.159c-2.3-1.222-16.259-7.676-19-8.762C680.063,607.148,666.65,612.9,652.983,618.242Z" transform="translate(-633.988 -551.367)" fill="#3a94bb"/>
            <path id="Trazado_650728" data-name="Trazado 650728" d="M653.043,614.726s18.52,9.439,19.675,9.8,25.712-11.8,25.712-11.8c-2.231-1.185-15.778-7.448-18.435-8.5C679.322,603.961,666.305,609.543,653.043,614.726Z" transform="translate(-634.027 -549.291)" fill="#fff"/>
            <path id="Trazado_650729" data-name="Trazado 650729" d="M698.953,611.177a60.994,60.994,0,0,1,5.135,3.767l3.148-.566,2.805-1.687-3.134.032,2.912-.562,7.029-.23.024-.87L713.6,610.7l-.265-1.258-1.411-.192,1.126-.26-.353-.784-1.714-.044,1.056-.457-1.4-.662-3.73,0-7.814,2.151Z" transform="translate(-663.863 -551.123)" fill="#febe7b"/>
            <path id="Trazado_650730" data-name="Trazado 650730" d="M690.482,617.723s2.948-7.274,4.79-5.5c.987.948,11.422,9.633,12.159,10.813.623,1,2.026,5.5-1.29,6.684-.808.289-1.739,1.119-4.27-.231C699.66,628.3,691.469,620,690.482,617.723Z" transform="translate(-658.358 -554.309)" fill="#38484f"/>
            <path id="Trazado_650731" data-name="Trazado 650731" d="M648.357,531.675c.056-.785,0-10.574,0-10.574s8.432-1.586,8.432-.133c0,2.611.9,13.506.9,13.506S648.108,535.162,648.357,531.675Z" transform="translate(-630.979 -494.789)" fill="#febe7b"/>
            <path id="Trazado_650732" data-name="Trazado 650732" d="M623.726,603.043c.747,1.494,22.668,20.356,27.291-2.761-1.67-6.294-3.018-13.8-3.018-16.5s3.66-29.282,3.082-30.437c-1.463-2.926-12.26-7.672-12.26-7.672s-7.393-.68-9.255-.237c-4.108.973-7.411,4.065-7.19,5.019,2.5,10.788,7.32,33.52,7.32,33.52Z" transform="translate(-614.091 -510.988)" fill="#f1b62b"/>
            <path id="Trazado_650733" data-name="Trazado 650733" d="M639.455,542.19l2.89-2.5s10.919-.012,12.413.984,3.724,5.171,3.724,5.171S645.069,543.011,639.455,542.19Z" transform="translate(-625.196 -507.351)" fill="#c09122"/>
            <path id="Trazado_650734" data-name="Trazado 650734" d="M687.325,571.289s2.017-4.646,4.06-5.28,1.6-2.568,2.977-1.061S705.584,592.295,706.3,593.7c1.272,2.5.3,4.019-.947,5.666s-4.8-.2-6.457-1.378C697.449,596.958,691.01,576.793,687.325,571.289Z" transform="translate(-656.306 -523.404)" fill="#f1b62b"/>
            <path id="Trazado_650735" data-name="Trazado 650735" d="M598.76,639.3c-.3,5.916,1.618,32.1,2.775,34.486a46,46,0,0,0,11.457,4.89c7.97,2.151,15.815,3.129,18.431,1.564,6.839-4.09,15.988-8.249,21.571-12.716.268-.214.128-4.495-1.156-3.6C641.8,670.96,630.8,675.8,630.676,672.68c-.081-2.038.039-5.726.1-9.194.213-11.754,1.143-16.621-1.6-17.926-.507-.241-10.882-.306-18.354-2.392-4.768-1.331-8.361-3.761-9.993-4.287-.164-.053-.737.158-1.158.052C599.48,638.884,598.781,638.882,598.76,639.3Z" transform="translate(-598.729 -571.812)" fill="#adbfc9"/>
            <path id="Trazado_650736" data-name="Trazado 650736" d="M612.09,645.054c9.342,1.92,16.184,2.006,18.426,1.151a2.915,2.915,0,0,0-1.39-1.364c-.535-.172-10.778-.289-18.25-2.375-6.891-1.925-8.842-4.519-9.842-4.624-.214-.022-2.151.194-2.24.872C600.814,641.067,606.537,643.912,612.09,645.054Z" transform="translate(-598.772 -571.141)" fill="#c5d6e0"/>
            <path id="Trazado_650737" data-name="Trazado 650737" d="M646.878,449.948s-8.382,3.225-10.181,9.377c-1.116,3.816-3.724,15.822-1.492,18.805,1.552,2.074,18.763-.4,20.982-5.863S661.263,451.99,646.878,449.948Z" transform="translate(-621.865 -449.033)" fill="#febe7b"/>
            <path id="Trazado_650738" data-name="Trazado 650738" d="M635.192,491.239a35.247,35.247,0,0,1-3.594,3.535c-.757.51,1.111,2.707,2.276,2.425S635.587,491.08,635.192,491.239Z" transform="translate(-619.977 -475.865)" fill="#febe7b"/>
            <path id="Trazado_650739" data-name="Trazado 650739" d="M648.76,452.27a51.035,51.035,0,0,0,.573,6.685c.43,1.982.938,6.188.938,6.188s.448-1.929,1.893-1.789,1.353,3.8,1.15,4.523a27.247,27.247,0,0,1-2.24,4.261l1.886,6.581s9.923.117,10.769-1.111,6.769-9.554,7.82-12.943c2.245-7.243-5.261-15.518-7.672-16.448C655.283,444.9,648.715,451.954,648.76,452.27Z" transform="translate(-631.244 -447.333)" fill="#d38d36"/>
            <path id="Trazado_650740" data-name="Trazado 650740" d="M637.967,490.178a3.066,3.066,0,0,0,.249,2.478c.378.357.877-.179,1.119-1.194a3.065,3.065,0,0,0-.247-2.476C638.711,488.631,638.209,489.166,637.967,490.178Z" transform="translate(-624.147 -474.331)" fill="#713f1f"/>
            <path id="Trazado_650741" data-name="Trazado 650741" d="M640.6,480.322c-.487-.167-1.128-.385-1.983-.669l-.387,1.313s1.263.227,2.4.45C640.635,481.052,640.62,480.687,640.6,480.322Z" transform="translate(-624.399 -468.337)" fill="#c1711d"/>
            <path id="Trazado_650742" data-name="Trazado 650742" d="M653.063,494.984s1.006,7.721,1.941,10.532,5.752,5.492,8.7,5.761,11.912.409,11.912.409-2.786-5.537-3.052-8.081,2.834-15.6,2.164-20.579c-.466-3.472-9.669-.793-9.669-.793S654,492.308,653.063,494.984Z" transform="translate(-634.04 -469.373)" fill="#d38d36"/>
            <path id="Trazado_650743" data-name="Trazado 650743" d="M689.495,605.334c.047,1.217,6.55-1.734,6.358-5.395s-4.816-9.632-4.816-9.632S689.3,600.325,689.495,605.334Z" transform="translate(-657.707 -540.25)" fill="#cc9718"/>
          </g>
        </g>
        <g id="Layer_13" data-name="Layer 13" transform="translate(366.342 256.056)">
          <g id="Grupo_994684" data-name="Grupo 994684" transform="translate(0 0)">
            <path id="Trazado_650744" data-name="Trazado 650744" d="M835.376,703.868s22.453,9.777,23.8,10.069,26.883-9.621,26.854-10.15S864.5,692.417,862.3,692.44C861.463,692.448,834.695,703.545,835.376,703.868Z" transform="translate(-807.611 -632.293)" fill="#96aab6"/>
            <path id="Trazado_650745" data-name="Trazado 650745" d="M830.416,700.488s21.958,9.561,23.274,9.848,26.984-9.524,26.956-10.042-21.748-11-23.9-10.982C855.927,689.321,829.748,700.173,830.416,700.488Z" transform="translate(-804.387 -630.26)" fill="#fff"/>
            <path id="Trazado_650746" data-name="Trazado 650746" d="M865.428,708.022s1.136-12.56,4.2-8.829c2.709,3.3,9.238,10.029,10.24,10.2s1.628,4.716,1.274,6.632-1.087,3.556-2.329,4.178S866.318,710.228,865.428,708.022Z" transform="translate(-827.149 -636.232)" fill="#107469"/>
            <path id="Trazado_650747" data-name="Trazado 650747" d="M795.815,612.306c.058-.81,1.235-8.307,1.235-8.307s12.909-3.294,12.909-1.8c0,2.693-.372,13.5-.372,13.5S795.558,615.9,795.815,612.306Z" transform="translate(-781.906 -573.396)" fill="#febe7b"/>
            <path id="Trazado_650748" data-name="Trazado 650748" d="M769.186,684.576c.732,1.541,25.484,20.972,33.305-1.889.463-8.366-.013-22.885.978-30.823.669-5.37,5.315-15.784,3.067-17.419-2.638-1.92-17.479-9.873-17.479-9.873s-7.219-.489-9.082-.244A38.008,38.008,0,0,0,767.8,627.81c-1.8,1,1.659,39.672,1.659,39.672Z" transform="translate(-763.364 -587.983)" fill="#12776c"/>
            <path id="Trazado_650749" data-name="Trazado 650749" d="M762.106,633.8c-.984.608-2.783,5.21-.346,11.824.786,2.134,4.465,12.8,5.075,15.36,1.5,6.291,12.55,1.929,11.571-1.707-1.353-5.02-6.286-22.676-8.728-25.386C767.79,631.8,764.04,632.608,762.106,633.8Z" transform="translate(-758.983 -593.404)" fill="#12776c"/>
            <path id="Trazado_650750" data-name="Trazado 650750" d="M791.407,621.569l2.5-2.948s11.9.252,13.439,1.28,3.442,4.19,3.442,4.19S795.189,623.145,791.407,621.569Z" transform="translate(-779.044 -584.319)" fill="#1e282d"/>
            <path id="Trazado_650751" data-name="Trazado 650751" d="M861.692,663.471s1.973-7.922,3.815-8.537,1.445-2.487,2.684-1.027,12.741,26.34,13.386,27.7c1.147,2.419.8,6.376-.323,7.97s-4.408,1.555-5.9,1.008S861.8,668.431,861.692,663.471Z" transform="translate(-824.721 -606.897)" fill="#12776c"/>
            <path id="Trazado_650752" data-name="Trazado 650752" d="M756.128,720.979c-.307,6.1,1.669,33.1,2.862,35.566a47.45,47.45,0,0,0,11.816,5.042c8.22,2.219,16.02,2.591,19.007,1.614,2.119-.693,17.363-7.962,23.121-12.569.277-.221-.666-4.743-2.138-3.619-6.807,5.2-21.626,11.6-21.753,8.389-.083-2.1.04-5.9.105-9.481.22-12.122,1.179-17.142-1.646-18.486-.523-.249-11.223-.316-18.929-2.467-4.918-1.373-8.623-3.879-10.306-4.422-.169-.055-.76.163-1.195.054C756.87,720.548,756.149,720.545,756.128,720.979Z" transform="translate(-756.096 -650.552)" fill="#adbfc9"/>
            <path id="Trazado_650753" data-name="Trazado 650753" d="M769.875,726.912c9.634,1.98,16.69,2.068,19,1.187a3,3,0,0,0-1.433-1.407c-.551-.178-11.116-.3-18.821-2.449-7.108-1.984-9.119-4.66-10.15-4.769-.22-.023-2.218.2-2.311.9C758.246,722.8,764.148,725.734,769.875,726.912Z" transform="translate(-756.139 -649.86)" fill="#c5d6e0"/>
            <g id="Grupo_994683" data-name="Grupo 994683" transform="translate(8.336)">
              <path id="Trazado_650754" data-name="Trazado 650754" d="M800.1,527.024s-9.842,2.878-11.337,9.566c-.927,4.147-3.673,17.985-1.2,21.031,1.718,2.117,19.23,2.378,21.2-3.594S815.037,528.295,800.1,527.024Z" transform="translate(-784.229 -524.792)" fill="#febe7b"/>
              <path id="Trazado_650755" data-name="Trazado 650755" d="M786.485,560.938s-6.39,7.381-6.525,7.658c-.505,1.039,2.546,1.767,4.059,1.361S786.991,560.725,786.485,560.938Z" transform="translate(-779.904 -546.829)" fill="#febe7b"/>
              <path id="Trazado_650756" data-name="Trazado 650756" d="M789.56,568.079a2.842,2.842,0,0,0,.191,2.567c.429.386,1.037-.14,1.361-1.173a2.835,2.835,0,0,0-.189-2.565C790.5,566.522,789.885,567.049,789.56,568.079Z" transform="translate(-786.052 -550.629)" fill="#713f1f"/>
              <path id="Trazado_650757" data-name="Trazado 650757" d="M791.212,558.995c-.521-.178-1.239-.419-2.24-.745l-.329,1.693s1.275.18,2.436.366C791.126,559.871,791.172,559.433,791.212,558.995Z" transform="translate(-785.584 -545.085)" fill="#c65c00"/>
              <path id="Trazado_650758" data-name="Trazado 650758" d="M819.414,535.54c1.515-.534.252-3.06-.883-3.443.426-1.2-.677-3.22-2.018-3.232.817-.986-.673-3.552-2.009-3.2.819-2.112-1.9-3.252-3.42-2.323-.431-1.865-1.841-2.122-3.365-1.436-.888-1.983-5.034-1.482-5.467.575l-.465-.27c.058-.108.506-.041.152-.172a1.505,1.505,0,0,0-1.53,1.6c-.341-1.525-1.967-1.388-2.831-.519-.256-1.366-1.8-1.4-2.749-.857-1.439.819-1.429,1.775-1.416,3.22-2.557.581-1.2,4.561.474,3.056.186,1.071-.516,2.536.854,2.252-.074.951-.253,2.261,1.062,2.363.006,1.634-.272,1.668.531,3.053a32.133,32.133,0,0,0-.56,5.591c.371-.116,1.012.224,1.893-1.448.642-1.216,2.1-2.571,3.234-1.427,1.946,1.956-.676,6.241-1.618,8.086.224-.006-.61,1.375-.381,1.332-.539.641,1.138,4.887,1.431,5.6.62.024,7.409,1.313,7.7.205.819-.117,4.417-3.31,4.4-3.877,1.242-.54,3.632-1.868,3.5-3.174,1.422-.16,1.531-1.82,1.411-3,2.06.056,1.873-2.383,1.648-3.775C821.295,540.025,821.724,535.961,819.414,535.54Z" transform="translate(-787.76 -520.648)" fill="#c65c00"/>
            </g>
          </g>
        </g>
      </g>
    </g>
  </g>
</svg>
