<svg xmlns="http://www.w3.org/2000/svg" width="569.353" height="320.321" viewBox="0 0 569.353 320.321">
  <g id="Grupo_1000300" data-name="Grupo 1000300" transform="translate(-807 -11223.098)">
    <g id="Grupo_994866" data-name="Grupo 994866" transform="translate(575.579 10936.819)">
      <g id="background" transform="translate(231.421 286.279)">
        <path id="Trazado_651107" data-name="Trazado 651107" d="M433.683,498.906c-75.989,74.328-30.376-21.979-146.575,56.243s-25.1,164.844,43.386,163.511,166.477-22.922,291.393-16.332S799.459,728,800.749,631.462,752.681,432.525,657.087,468.577,551.921,383.253,433.683,498.906Z" transform="translate(-231.421 -411.428)" fill="#d3e8ef"/>
        <circle id="Elipse_5729" data-name="Elipse 5729" cx="35.543" cy="35.543" r="35.543" transform="translate(110.567 93.509) rotate(-83.035)" fill="#d3e8ef"/>
        <circle id="Elipse_5730" data-name="Elipse 5730" cx="26.995" cy="26.995" r="26.995" transform="translate(364.302)" fill="#d3e8ef"/>
      </g>
      <g id="object" transform="translate(503.031 356.11)">
        <path id="Trazado_651108" data-name="Trazado 651108" d="M1459.35,642.551a35.532,35.532,0,0,1-17.575-5.247l.518-.775c.142.094,14.274,9.353,27.4,2.673,4.576-2.329,6.795-4.548,7.809-6.37a10.571,10.571,0,0,1-6.845-3.68c-1.232-1.6-1.565-3.377-.848-4.53a2.676,2.676,0,0,1,2.988-.972c3.429.683,5.986,2.983,6.363,5.721a5.756,5.756,0,0,1-.3,2.69,22.032,22.032,0,0,0,8.082-1.071,27.178,27.178,0,0,0,9.224-4.424c-4.7-1.233-5.993-3.442-6.242-5.112a5.748,5.748,0,0,1,2.91-5.486,3.206,3.206,0,0,1,3.681-.014c1.872,1.49,3.68,4.094,3.142,6.931a6.707,6.707,0,0,1-1.536,3.08c.108.005.216.008.326.008,11.134,0,20.826-28.214,20.927-28.512l.883.3c-.434,1.283-10.627,30.97-22.948,29.058-2.07,1.94-5.443,3.634-10.093,5.063a22.488,22.488,0,0,1-8.736,1.078c-1.031,2.05-3.377,4.536-8.364,7.075A23.468,23.468,0,0,1,1459.35,642.551Zm12.591-18.06a1.474,1.474,0,0,0-1.34.621c-.5.808-.183,2.2.794,3.47a9.753,9.753,0,0,0,6.519,3.374,4.928,4.928,0,0,0,.324-2.46c-.324-2.345-2.583-4.327-5.622-4.933A3.443,3.443,0,0,0,1471.942,624.491Zm22.9-8.182a3.27,3.27,0,0,0-1.539.465,4.787,4.787,0,0,0-2.454,4.541c.306,2.051,2.478,3.644,6.117,4.486l.026.006a6.131,6.131,0,0,0,1.753-3.1c.46-2.43-1.148-4.708-2.807-6.03A1.714,1.714,0,0,0,1494.841,616.309Z" transform="translate(-1441.775 -597.46)" fill="#2b2b2b"/>
      </g>
      <g id="green_shirt_girl" data-name="green shirt girl" transform="translate(349.866 340.082)">
        <path id="Trazado_651109" data-name="Trazado 651109" d="M927.275,656.328c-2.753,1.595-3.478,6.408-3.478,6.408l-5.462-2.043-.459-3.381Z" transform="translate(-882.277 -627.09)" fill="#2b2b2b"/>
        <path id="Trazado_651110" data-name="Trazado 651110" d="M857.94,536.7s5.587,1.224,5.587,2.788c0,1.9-6.535,12.643-9.235,14.317l-19.013,5.833-4.917-3.381,2.444-4.355-3.82,3.667-7.792-4.622a58.681,58.681,0,0,0,7.028-9.893c6.514-11.633,8.575-15.019,11.646-15.019,1.258,0,15.508,3.278,16.315,3.865C857.023,530.515,857.94,536.7,857.94,536.7Z" transform="translate(-807.291 -526.039)" fill="#2b2b2b"/>
        <path id="Trazado_651111" data-name="Trazado 651111" d="M902.96,585.476c.018.19.026.393.026.6,0,3.711-2.607,10.517-2.607,13.75a2.892,2.892,0,0,0,.212,1.23s-3.438,0-4.966,1.91c-1.267,1.584-2.85,2.485-3.7,2.485a.7.7,0,0,1-.424-.117c-.611-.458-1.375-.993-1.375-.993s0,.1,0,.271c0,1.166.116,5.74,1.912,6.6,0,0-4.431,6.646-5.424,6.646s-5.577-7.028-5.959-8.251c0,0,1.834-10.237,2.9-14.362a4.266,4.266,0,0,1-2.937-3.875c0-1.357.862-4.342,2.89-4.342a2.258,2.258,0,0,1,2.214,1.935,1.055,1.055,0,0,1-.028.246l2.216,1.681,1.91-2.292-2.368,4.354s3.277,1.222,4.351,1.833a20.289,20.289,0,0,0,7.185-3.9A14.553,14.553,0,0,0,902.96,585.476Z" transform="translate(-853.38 -572.138)" fill="#f6a88a"/>
        <path id="Trazado_651112" data-name="Trazado 651112" d="M783.455,706.021s-15.966,8.48-17.189,9.014c-2.071.906-7.028,45.824-7.028,49.342,0,1.365.17,2.217.611,2.3.535.1,2.75.136,5.467.136,5.432,0,12.868-.136,12.868-.136l6.526,1.91,29.915-1.146.917-9.4L794.3,756.594l4.66-26.738s37.052-4.176,37.052-4.2h0c-.229,0-1.986,12.681-1.986,12.681s14.209-.764,15.814-1.451,22.613-23.3,22.613-23.3-10.7-10.848-10.7-11c0,0,0,0,0,0a0,0,0,0,1,0,0c0,.289-13.6,13.365-13.6,13.365s-1.322-1.836-2.166-1.836c-.883,0-1.2,2.447-1.2,2.447s-19.4-3.667-26.967-5.576a140.867,140.867,0,0,1-15.966-5.348l-9.4,3.056Z" transform="translate(-759.238 -662.966)" fill="#179587"/>
        <path id="Trazado_651113" data-name="Trazado 651113" d="M865.96,828.19l44.807,2.662L922.007,798l-41.129-2.623-8.747,30.65-9.592.164,3.529.829Z" transform="translate(-839.357 -734.933)" fill="#225081"/>
        <path id="Trazado_651114" data-name="Trazado 651114" d="M873.521,954.983s12.864-1.73,14.956-2.42,5.843-4.815,5.843-4.815l9.776-.559.082-.838-7.506-.98-23.025,8.237Z" transform="translate(-847.875 -851.27)" fill="#386346" fill-rule="evenodd"/>
        <path id="Trazado_651115" data-name="Trazado 651115" d="M1233.455,616.459a55.3,55.3,0,0,0,5.348-5.348c1.528-1.986,1.528-3.9,1.986-5.73a9.224,9.224,0,0,1,2.9-4.2,24.019,24.019,0,0,1,4.142-.5s4.49-4.7,5.483-5.536a1.353,1.353,0,0,1,.859-.354.724.724,0,0,1,.765.749c0,.783-4.986,7.474-4.986,7.474a6.785,6.785,0,0,1,1.127-.106c.887,0,1.487.175,1.487,1.421a1.33,1.33,0,0,1-.7,1.3,3.365,3.365,0,0,1,.714,1.649.86.86,0,0,1-.18.552,5.7,5.7,0,0,1,.272,1.517,1.12,1.12,0,0,1-.272.852s-1.986,2.826-3.9,3.591-2.979.458-4.813,2.292a39.862,39.862,0,0,0-4.278,5.959A19.569,19.569,0,0,1,1233.455,616.459Z" transform="translate(-1127.038 -579.363)" fill="#f6a88a"/>
        <path id="Trazado_651116" data-name="Trazado 651116" d="M873.064,915.526c.009-.013.043-.02.1-.02.911,0,7.606,1.624,8.685,1.624,1.146,0,3.172-1.659,5.081-2.881a16.476,16.476,0,0,0,4.7-5.523,25.126,25.126,0,0,1,3.881-.735c.973,0,2.929.815,2.929,1.6,0,.314-.124-.021-2.687,6.245-.687,1.681-6.3,5.966-7.6,6.5s-16.234,2.284-16.234,2.284Z" transform="translate(-846.632 -822.28)" fill="#f6a88a"/>
        <path id="Trazado_651117" data-name="Trazado 651117" d="M909.253,658.653a31.275,31.275,0,0,1-3.972-3.156s1.491,4.46,4.107,5.832Z" transform="translate(-872.508 -626.445)" fill="#e27c6b"/>
        <path id="Trazado_651118" data-name="Trazado 651118" d="M939.4,633.33c0,.669-.99.648-1.023.648-1.31,0-2.933-1.021-2.933-1.855,0-.669.99-.648,1.023-.648C937.779,631.475,939.4,632.5,939.4,633.33Z" transform="translate(-895.903 -607.814)" fill="#e27c6b"/>
        <g id="Grupo_994866-2" data-name="Grupo 994866" transform="translate(28.982 15.887)">
          <path id="Trazado_651119" data-name="Trazado 651119" d="M890.882,601.667a.513.513,0,0,1-.508-.507,7.608,7.608,0,0,0,.058-.791,2.344,2.344,0,0,0-1.649-2.534.507.507,0,0,1,.112-1,3.351,3.351,0,0,1,2.551,3.537C891.446,601.241,891.357,601.667,890.882,601.667Z" transform="translate(-888.389 -596.834)" fill="#e27c6b"/>
        </g>
        <g id="Grupo_994867" data-name="Grupo 994867" transform="translate(27.987 17.355)">
          <path id="Trazado_651120" data-name="Trazado 651120" d="M884.463,606.279a.505.505,0,0,1-.506-.5c0-1.41,2.433-2.4,3.227-2.4a.508.508,0,0,1,.08,1.009C884.575,604.832,885.29,606.279,884.463,606.279Z" transform="translate(-883.956 -603.376)" fill="#e27c6b"/>
        </g>
        <path id="Trazado_651121" data-name="Trazado 651121" d="M912.747,700.2a37.68,37.68,0,0,1-5.424,6.646l2.712,6.437,6.685-9.493Z" transform="translate(-874.092 -661.118)" fill="#f2f1ec"/>
        <path id="Trazado_651122" data-name="Trazado 651122" d="M876.167,701.3l-4.321,6.437-4.693-9.111s1.5-2.588,3.056-5.577C870.208,693.052,874.052,699.59,876.167,701.3Z" transform="translate(-842.935 -655.573)" fill="#f2f1ec"/>
        <path id="Trazado_651123" data-name="Trazado 651123" d="M1213.686,691.617l11.73,11.653,4.477-4.148-12.46-10.678Z" transform="translate(-1111.706 -651.999)" fill="#f2f1ec"/>
        <path id="Trazado_651124" data-name="Trazado 651124" d="M792,988.3l-6.467,111.815c0,.72.027,1.114.086,1.114.587,0,18.187-2.347,18.187-2.347a1.206,1.206,0,0,0,.434-1.072,4.105,4.105,0,0,0-.434-1.666,3.336,3.336,0,0,1-.107-1.083c0-6.828,5.191-41.157,5.191-41.157s1.773-2.24,1.773-3.276c0-.981-1.785-1.063-1.785-1.882,0-.866,1.2-1.67,1.785-3.056.574-1.369,5.463-30.9,5.463-30.9s5.671,29.138,5.671,31.094-1.173,1.564-1.173,2.738c0,.978,1.358,1.276,1.358,2.933l-5.856,43.022,17.209-.978s11.738-48.486,11.738-52.651l-11.158-51.937-28.812,1.1-.185,2.019-6.477.489.137-4.418Z" transform="translate(-779.631 -884.493)" fill="#222b5a" fill-rule="evenodd"/>
        <path id="Trazado_651125" data-name="Trazado 651125" d="M913.148,1458.045,933.356,1457l-.652,4.432-19.556,1.956Z" transform="translate(-878.61 -1248.088)" fill="#96b7c6" fill-rule="evenodd"/>
        <path id="Trazado_651126" data-name="Trazado 651126" d="M776.622,1482.848l22.033-2.608v4.3l-22.033,2.868Z" transform="translate(-772.721 -1266.112)" fill="#96b7c6" fill-rule="evenodd"/>
        <path id="Trazado_651127" data-name="Trazado 651127" d="M893.127,1618.141l-.894,4.166s24.934,1.91,27.378,2.08,7.431.658,7.431.658,2.079-3.042,2.079-5.474c0-2.63-3.568-3.142-4.892-3.142a3.368,3.368,0,0,0-1.411.237,15.508,15.508,0,0,0-4.5,4.245Z" transform="translate(-862.388 -1371.739)" fill="#f2f1ec" fill-rule="evenodd"/>
        <path id="Trazado_651128" data-name="Trazado 651128" d="M923.893,1479.214l-3.376,18.419a3.2,3.2,0,0,0,3.135,2.635c1.589,0,3.959-.928,7.48-3.884l4.375-18.331Z" transform="translate(-884.325 -1264.415)" fill="#2b2b2b" fill-rule="evenodd"/>
        <path id="Trazado_651129" data-name="Trazado 651129" d="M802.776,1503.087l11.959-1.557-1.969,18.147s-3.645,3.009-6.9,3.009a4.078,4.078,0,0,1-3.8-2.385Z" transform="translate(-792.452 -1282.624)" fill="#2b2b2b" fill-rule="evenodd"/>
        <path id="Trazado_651130" data-name="Trazado 651130" d="M803.455,1582.4s-4.4,3.021-6.951,3.021c-2.393,0-2.814-2.564-3.457-2.564-1.09,0-2.989,13.391-2.989,14.49,0,.1.008.155.027.155.266,0,19.393.492,22.561.492a3.929,3.929,0,0,0,.439-.011c.289-.1,1.972-4.523,4.595-5.2,0,0-7.482-1.444-10.754-4.908S803.455,1582.4,803.455,1582.4Z" transform="translate(-783.141 -1345.345)" fill="#f6c15c" fill-rule="evenodd"/>
        <path id="Trazado_651131" data-name="Trazado 651131" d="M912.284,1559.741s-4.939,3.878-7.641,3.878c-2.552,0-2.583-2.644-3.222-2.644-1.166,0-5.2,13.2-5.2,13.2l25.189,2.77c.381,0,2.65-4.323,5.03-4.323h.07s-7.41-3.843-10.394-7.8S912.284,1559.741,912.284,1559.741Z" transform="translate(-865.477 -1327.772)" fill="#f6c15c" fill-rule="evenodd"/>
        <path id="Trazado_651132" data-name="Trazado 651132" d="M788.563,1633.2l-.467,3.888s13.95.174,23.336.174c4.693,0,8.246-.044,8.344-.174.28-.373,4.036-3.983,4.036-6.152,0-2.414-5.661-2.507-6.459-2.507a10.832,10.832,0,0,0-1.194.055c-1.662.195-4.987,5.208-4.987,5.208Z" transform="translate(-781.62 -1381.049)" fill="#f2f1ec" fill-rule="evenodd"/>
        <g id="Grupo_994868" data-name="Grupo 994868" transform="translate(53.875 242.046)">
          <path id="Trazado_651133" data-name="Trazado 651133" d="M1002.866,1605.345a5.641,5.641,0,0,0-2.637,1.957.486.486,0,0,1-.391.205.5.5,0,0,1-.522-.484c-.019-.41,1.183-1.743,2.506-2.376C1002.177,1604.9,1002.531,1605.121,1002.866,1605.345Z" transform="translate(-999.316 -1604.646)" fill="#f2f1ec"/>
        </g>
        <g id="Grupo_994869" data-name="Grupo 994869" transform="translate(27.907 245.997)">
          <path id="Trazado_651134" data-name="Trazado 651134" d="M886.541,1622.69a7.108,7.108,0,0,0-2.05,1.64.478.478,0,0,1-.391.2.5.5,0,0,1-.5-.512c0-.289.727-1.118,1.677-1.761C885.712,1622.41,886.131,1622.559,886.541,1622.69Z" transform="translate(-883.597 -1622.252)" fill="#f2f1ec"/>
        </g>
        <g id="Grupo_994870" data-name="Grupo 994870" transform="translate(24.506 244.627)">
          <path id="Trazado_651135" data-name="Trazado 651135" d="M871.675,1616.726a6.288,6.288,0,0,0-2.33,1.771.527.527,0,0,1-.4.186.507.507,0,0,1-.5-.5c0-.364.96-1.388,2.106-2.031C870.92,1616.362,871.292,1616.549,871.675,1616.726Z" transform="translate(-868.441 -1616.148)" fill="#f2f1ec"/>
        </g>
        <g id="Grupo_994871" data-name="Grupo 994871" transform="translate(21.608 242.586)">
          <path id="Trazado_651136" data-name="Trazado 651136" d="M858.556,1607.782a6.708,6.708,0,0,0-2.124,1.687.527.527,0,0,1-.4.187.5.5,0,0,1-.5-.5c0-.373,1.034-1.472,2.236-2.1A8.486,8.486,0,0,0,858.556,1607.782Z" transform="translate(-855.528 -1607.055)" fill="#f2f1ec"/>
        </g>
        <g id="Grupo_994872" data-name="Grupo 994872" transform="translate(19.614 240.248)">
          <path id="Trazado_651137" data-name="Trazado 651137" d="M849.531,1597.444a6.891,6.891,0,0,0-1.984,1.631.529.529,0,0,1-.4.187.507.507,0,0,1-.5-.5c0-.382,1.053-1.491,2.274-2.125C849.1,1596.894,849.3,1597.164,849.531,1597.444Z" transform="translate(-846.642 -1596.633)" fill="#f2f1ec"/>
        </g>
        <g id="Grupo_994873" data-name="Grupo 994873" transform="translate(51.35 240.042)">
          <path id="Trazado_651138" data-name="Trazado 651138" d="M991.25,1596.409a6.084,6.084,0,0,0-2.264,1.863.513.513,0,0,1-.922-.279c-.009-.391,1.062-1.6,2.292-2.274C990.645,1595.952,990.943,1596.185,991.25,1596.409Z" transform="translate(-988.064 -1595.719)" fill="#f2f1ec"/>
        </g>
        <g id="Grupo_994874" data-name="Grupo 994874" transform="translate(48.723 237.574)">
          <path id="Trazado_651139" data-name="Trazado 651139" d="M979.4,1585.49a6.617,6.617,0,0,0-2.134,1.808.525.525,0,0,1-.382.2.515.515,0,0,1-.531-.485c-.009-.391,1.081-1.63,2.33-2.3C978.909,1584.978,979.142,1585.229,979.4,1585.49Z" transform="translate(-976.356 -1584.717)" fill="#f2f1ec"/>
        </g>
        <g id="Grupo_994875" data-name="Grupo 994875" transform="translate(46.533 235.207)">
          <path id="Trazado_651140" data-name="Trazado 651140" d="M969.933,1575.009a6.046,6.046,0,0,0-2.423,1.91.5.5,0,0,1-.913-.27c-.019-.419,1.3-1.882,2.7-2.479C969.5,1574.431,969.709,1574.71,969.933,1575.009Z" transform="translate(-966.597 -1574.17)" fill="#f2f1ec"/>
        </g>
        <g id="Grupo_994876" data-name="Grupo 994876" transform="translate(14.79 107.74)">
          <path id="Trazado_651141" data-name="Trazado 651141" d="M825.274,1113.84h-.007a.128.128,0,0,1-.12-.128c0-.1,2.246-43.127,2.4-45,.167-1.994,3.423-2.712,3.423-4.16,0-1.8-3.423-.284-3.423-1.683a4.256,4.256,0,0,1,.987-2.057c2.276-3.294,3.576-54.662,4.092-54.662a.134.134,0,0,1,.139.129c0,.328-2.567,50.878-2.841,52.377-.286,1.563-2.123,3.112-2.123,4.213,0,.98,3.423-.344,3.423,1.692,0,1.627-3.27,2.314-3.423,4.173C827.443,1073.042,825.528,1113.84,825.274,1113.84Z" transform="translate(-825.147 -1006.152)" fill="#c9e8f1"/>
        </g>
        <g id="Grupo_994877" data-name="Grupo 994877" transform="translate(44.515 125.358)">
          <path id="Trazado_651142" data-name="Trazado 651142" d="M958.519,1168.825a.127.127,0,0,1-.127-.127c0-.1,7.529-39.673,7.529-44.373a1.267,1.267,0,0,0-.033-.354c-.288-.835-.411-.835-.581-.835-.715,0-1.4-1.213-1.4-1.824,0-1.043,1.167-1.443,1.167-2.695,0-.1-7.464-31.363-7.464-33.827a.128.128,0,0,1,.123-.128.132.132,0,0,1,.129.1c6.4,32.211,7.462,33.071,7.462,33.849,0,1.318-1.165,1.832-1.165,2.7a1.415,1.415,0,0,0,.227.715c.5.857.736.857.923.857.321,0,.507.1.82,1.005a1.411,1.411,0,0,1,.037.4C966.165,1128.63,958.747,1168.825,958.519,1168.825Z" transform="translate(-957.608 -1084.662)" fill="#c9e8f1"/>
        </g>
        <path id="Trazado_651143" data-name="Trazado 651143" d="M813.917,990.98h4.61l.746,3.09,5.555.5v-2.206l2.1-.227,29.23-2.019-.233-1.1-28.812,1.1-6.526-1.91-6.578.095Z" transform="translate(-801.647 -884.493)" fill="#548492"/>
        <path id="Trazado_651144" data-name="Trazado 651144" d="M850.955,931.594s.007,0,.007,0c0-.051-6.035-1.383-6.035-1.383l-1.874,17.433,6.478-.489Z" transform="translate(-824.244 -839.511)" fill="#f2f1ec"/>
        <path id="Trazado_651145" data-name="Trazado 651145" d="M921.862,1055.71l1.555-9.72a16.615,16.615,0,0,0,4.364-5.028s-1.109,4.326-2.96,6.072c-1.122,1.058-1.343,7.282-1.343,12.022,0,3.081.093,5.535.093,5.535Z" transform="translate(-885.368 -925.41)" fill="#548492"/>
        <path id="Trazado_651146" data-name="Trazado 651146" d="M1112.778,813.267h1.982l-4.042,10.587-1.6.106Z" transform="translate(-1030.604 -748.811)" fill="#386346" fill-rule="evenodd"/>
        <path id="Trazado_651147" data-name="Trazado 651147" d="M890.747,735.36l1.068.9,3.292-4.918-.64-1.52Z" transform="translate(-861.236 -684.089)" fill="#386346" fill-rule="evenodd"/>
        <path id="Trazado_651148" data-name="Trazado 651148" d="M923.581,724.365l1.05,1.33,6.394-8.824-1.7-.669Z" transform="translate(-886.701 -673.528)" fill="#386346" fill-rule="evenodd"/>
        <path id="Trazado_651149" data-name="Trazado 651149" d="M831.4,860.711l-5.683-2.283a1.772,1.772,0,0,0,.994-1.5c0-.238-.091-.321-.219-.321-.293,0-.776.438-.776.438s1.937-13.788,2.841-17.432c0,0-.183,6.434-.183,11.4a45.822,45.822,0,0,0,.183,5.347c.412,2.265,2.923,3.587,2.923,3.587Z" transform="translate(-810.796 -769.249)" fill="#386346" fill-rule="evenodd"/>
        <path id="Trazado_651150" data-name="Trazado 651150" d="M763.471,969.625a3.5,3.5,0,0,0-.443,1.716c0,1.254.643,1.434,1.356,1.434a5.91,5.91,0,0,0,1.434-.217l-.733-.147,1.662-.782-1.32-.147.733-.538a4.431,4.431,0,0,1-1.067.158c-.12,0-.929.01-.929-.6,0-.535.723-1.121.723-1.121l-.879.391.147-.72Z" transform="translate(-762.177 -869.637)" fill="#f6a65c" fill-rule="evenodd"/>
        <path id="Trazado_651151" data-name="Trazado 651151" d="M1148.3,838.729a6.706,6.706,0,0,0,2.738-.538,14.426,14.426,0,0,0,1.858-1.564l-1.173.245,1.76-2.3-1.956,1.222-.147-.978s-.293,1.76-1.32,2.3a12.856,12.856,0,0,1-2.054.841h.929Z" transform="translate(-1060.761 -765.336)" fill="#f6a65c" fill-rule="evenodd"/>
        <path id="Trazado_651152" data-name="Trazado 651152" d="M1284.61,635.7a3.5,3.5,0,0,1-.465,1.9q.02-.359.019-.68a6.561,6.561,0,0,0-.53-2.959s1.17-.26,1.17-.975c0,0,.52,2.339,1.429,2.859a5.265,5.265,0,0,1-1.689-1.04A5.734,5.734,0,0,1,1284.61,635.7Z" transform="translate(-1165.956 -608.993)" fill="#e27c6b" fill-rule="evenodd"/>
        <path id="Trazado_651153" data-name="Trazado 651153" d="M1246.833,688.444a49.741,49.741,0,0,1-5.5,3.477l-4.2-2.177,5.344,4.579Z" transform="translate(-1129.897 -651.999)" fill="#e27c6b" fill-rule="evenodd"/>
        <path id="Trazado_651154" data-name="Trazado 651154" d="M875.728,941.7s0,.177,0,.479c0,1.664.136,7.137,1.907,8.024l-3.549.488.831-9.081Z" transform="translate(-848.31 -848.355)" fill="#e27c6b" fill-rule="evenodd"/>
        <path id="Trazado_651155" data-name="Trazado 651155" d="M1024.433,557.678l5.1-5.134h-5.773l-2.734-12.224,38.04-5.277-4.254,17.987-21.147-.608Z" transform="translate(-962.282 -533.023)" fill="#85b6c5"/>
        <g id="Grupo_994878" data-name="Grupo 994878" transform="translate(63.749 6.056)">
          <path id="Trazado_651156" data-name="Trazado 651156" d="M1054.341,563.612c-.2,0-.389-.007-.581-.024-2.2-.181-3.649-.9-4.3-2.15-3.106.2-6.1-2.108-6.141-2.14l.575-.733a9.825,9.825,0,0,0,5.15,1.955h.1a6.607,6.607,0,0,1,1.246-4.52,2.048,2.048,0,0,1,2.048-.923,2.153,2.153,0,0,1,1.742,1.5c.188.642.234,1.956-1.576,3.551a5.148,5.148,0,0,1-2.146,1.149c.576.778,1.711,1.241,3.382,1.379a10.235,10.235,0,0,0,4.819-1.032c-1.476-.649-1.637-1.633-1.618-2.111.075-1.869,2.732-3.54,5.922-3.725,1.016-.062,1.675.163,1.969.659.186.314.294.869-.246,1.732a11.238,11.238,0,0,1-3.377,3.066h.016c5.108,0,10.455-8.137,10.511-8.222l.781.508c-.249.384-6.195,9.407-12.061,8.593q-.315-.044-.594-.1A12.745,12.745,0,0,1,1054.341,563.612Zm8.94-6.9c-.081,0-.17,0-.266.008-3.062.178-5,1.77-5.045,2.832-.026.651.654,1.183,1.86,1.486a11.987,11.987,0,0,0,4.064-3.352c.259-.416.289-.671.234-.762C1064.113,556.9,1063.979,556.714,1063.281,556.714Zm-11.169-.732a1.127,1.127,0,0,0-.951.533,5.685,5.685,0,0,0-1.092,3.9,4.233,4.233,0,0,0,1.915-.979c1.04-.916,1.513-1.86,1.3-2.59a1.217,1.217,0,0,0-.988-.846A1.13,1.13,0,0,0,1052.111,555.982Z" transform="translate(-1043.315 -553.026)" fill="#fff"/>
        </g>
      </g>
      <g id="red_shirt_boy" data-name="red shirt boy" transform="translate(241.553 392.255)">
        <g id="Grupo_994879" data-name="Grupo 994879" transform="translate(6.084 134.526)">
          <rect id="Rectángulo_302381" data-name="Rectángulo 302381" width="63.108" height="11.002" fill="#2b2b2b"/>
          <rect id="Rectángulo_302382" data-name="Rectángulo 302382" width="63.108" height="3.659" transform="translate(0.794 49.613)" fill="#2b2b2b"/>
          <rect id="Rectángulo_302383" data-name="Rectángulo 302383" width="5.501" height="69.359" transform="translate(7.839 7.144)" fill="#2b2b2b"/>
          <rect id="Rectángulo_302384" data-name="Rectángulo 302384" width="5.501" height="69.359" transform="translate(52.094 7.144)" fill="#2b2b2b"/>
        </g>
        <g id="Grupo_994922" data-name="Grupo 994922" transform="translate(0 0)">
          <g id="Grupo_994880" data-name="Grupo 994880" transform="translate(43.399)">
            <path id="Trazado_651157" data-name="Trazado 651157" d="M472.11,777.121s-3.129-8.124-1.818-11.439,9.716-1,9.716-1,.771-5.012,3.393-6.092,29.147,13.648,29.3,15.5-8.284,3.849-8.284,3.849l-2.28,8.411s-.386,2.236-1.928,2.545-2.545,3.624-2.545,3.624-3.547,5.552-4.395,5.167a38.214,38.214,0,0,1-3.7-2.622l-10.718-8.068Z" transform="translate(-469.971 -758.531)" fill="#2b2b2b"/>
          </g>
          <g id="Grupo_994881" data-name="Grupo 994881" transform="translate(4.606 98.516)">
            <path id="Trazado_651158" data-name="Trazado 651158" d="M297.1,1197.539s.868,22.061,5.5,28.306,8.559,9.484,14,9.831,41.985-4.626,41.985-4.626-2.892,2.545,0,1.966l-8.79,27.759,21.629-1.5-2.429,8.328,15.036-2.313-2.082-39.557s3.239-9.6.116-11.335-46.581-15.769-46.581-15.769Z" transform="translate(-297.1 -1197.539)" fill="#12263f"/>
          </g>
          <g id="Grupo_994882" data-name="Grupo 994882" transform="translate(4.606 98.516)">
            <path id="Trazado_651159" data-name="Trazado 651159" d="M337.277,1199.21s-7.155-.584-12.089,3.734-14.5,9.1-19.123,4.935-8.965-7.865-8.965-7.865v-2.475l38.374,1.087Z" transform="translate(-297.1 -1197.539)" fill="#548492" fill-rule="evenodd"/>
          </g>
          <g id="Grupo_994883" data-name="Grupo 994883" transform="translate(58.341 15.17)">
            <path id="Trazado_651160" data-name="Trazado 651160" d="M556.4,828.444s-1.234,7.634-2.622,10.332c0,0-5.552-3.084-7.017-3.084s-4.858,4.7-6.863,3.547-3.007-2.313-3.316-4.087,1.85-9.022,1.85-9.022a4.064,4.064,0,0,0,4.7,0s.771,3.007,4.626.463c0,0,2.082,3.624,5.706.231C553.469,826.825,554.934,830.68,556.4,828.444Z" transform="translate(-536.552 -826.131)" fill="#f6a88a"/>
          </g>
          <g id="Grupo_994884" data-name="Grupo 994884" transform="translate(0 33.984)">
            <path id="Trazado_651161" data-name="Trazado 651161" d="M324.458,909.971c-11.026,1.311-22.747,14.265-30.458,27.373s-15.113,34.236-17.426,34.853a23.763,23.763,0,0,1,9.561,6.477c4.781,5.089,9.87,5.243,15.73,1.542s15.946-3.238,17.689-4.626.046-4.626,1.126-7.094,13.417-14.8,13.417-14.8,13.417,18.043,16.116,18.351,14.728-.308,14.728-.308l5.552-16.192-13.417-5.552.925-2.467-8.482-5.706s-6.477-7.711-9.253-14.5-.968-8.295-4.262-10.255-6.441-7.094-6.441-7.094Z" transform="translate(-276.574 -909.971)" fill="#f1b62b"/>
          </g>
          <g id="Grupo_994885" data-name="Grupo 994885" transform="translate(64.531 27.892)">
            <path id="Trazado_651162" data-name="Trazado 651162" d="M567.871,882.823c-.64-.077-4.573,3.7-3.57,4.087s3.316.386,4.781.925,1.619,1.079,1.619,1.079l2.545-3.624S573.292,883.286,567.871,882.823Z" transform="translate(-564.138 -882.822)" fill="#f6a88a"/>
          </g>
          <g id="Grupo_994886" data-name="Grupo 994886" transform="translate(102.374 46.437)">
            <path id="Trazado_651163" data-name="Trazado 651163" d="M734.764,965.465c.694.058,2.776-.174,2.371,2.545s-4.528,6.827-4.358,5.537S734.764,965.465,734.764,965.465Z" transform="translate(-732.772 -965.465)" fill="#e27c6b" fill-rule="evenodd"/>
          </g>
          <g id="Grupo_994887" data-name="Grupo 994887" transform="translate(42.98 17.475)">
            <path id="Trazado_651164" data-name="Trazado 651164" d="M478.712,840.343s-1.388-3.778-4.164-3.932-6.091,1.773-6.4,5.243.925,6.4,3.624,6.94a11.276,11.276,0,0,0,4.7,0l-3.47,4.318a19.636,19.636,0,0,1,6.091,2.853,22.289,22.289,0,0,1,4.365,5.629l4.657-5.937s-9.793-7.4-9.638-8.637S479.868,843.813,478.712,840.343Z" transform="translate(-468.102 -836.402)" fill="#f6a88a"/>
          </g>
          <g id="Grupo_994888" data-name="Grupo 994888" transform="translate(79.672 66.851)">
            <path id="Trazado_651165" data-name="Trazado 651165" d="M631.609,1063.144l15.557,6.593,2.66-7.749-15.9-5.552Z" transform="translate(-631.609 -1056.435)" fill="#ece7d0"/>
          </g>
          <g id="Grupo_994889" data-name="Grupo 994889" transform="translate(72.056 60.259)">
            <path id="Trazado_651166" data-name="Trazado 651166" d="M597.672,1031.529l1.833-4.472,9.831,4.472-2.834,6.516-7.942-5.417Z" transform="translate(-597.672 -1027.057)" fill="#ece7d0"/>
          </g>
          <g id="Grupo_994890" data-name="Grupo 994890" transform="translate(79.422 42.617)">
            <path id="Trazado_651167" data-name="Trazado 651167" d="M630.494,968.6s4.009-6.912,5.455-10.15-1.485-6.024.892-9.432,3.5,9.432,3.5,9.432l-5.552,12.106Z" transform="translate(-630.494 -948.441)" fill="#e27c6b" fill-rule="evenodd"/>
          </g>
          <g id="Grupo_994891" data-name="Grupo 994891" transform="translate(82.691 38.736)">
            <path id="Trazado_651168" data-name="Trazado 651168" d="M645.169,959.261s2.946-10,3.582-11.624-.058-1.561,0-2.545-.868-8.5-.636-9.2-.941-3.721-.355-4.318,1.222-.559,2.148,0,3.643,5.359,3.643,5.359,1.889-3.123,2.737-2.834,2.294,2.255,3.451,1.85A2.69,2.69,0,0,1,662.515,937c.289.52.867,1.33,1.85.983a2.3,2.3,0,0,1,2.371.868c.173.4,1.214,1.041,1.214,2.2s-4.217,8.27-6.819,9.774-5.345,12.434-5.345,12.434l-10.725-3.744Z" transform="translate(-645.062 -931.146)" fill="#f6a88a"/>
          </g>
          <g id="Grupo_994892" data-name="Grupo 994892" transform="translate(47.884 32.529)">
            <path id="Trazado_651169" data-name="Trazado 651169" d="M491.125,903.488l2.559,2.866-3.728-1.411Z" transform="translate(-489.956 -903.488)" fill="#ece7d0"/>
          </g>
          <g id="Grupo_994893" data-name="Grupo 994893" transform="translate(57.161 40.548)">
            <path id="Trazado_651170" data-name="Trazado 651170" d="M531.294,939.223l1.18,6.93v-5.012Z" transform="translate(-531.294 -939.223)" fill="#ece7d0"/>
          </g>
          <g id="Grupo_994894" data-name="Grupo 994894" transform="translate(58.341 41.078)">
            <path id="Trazado_651171" data-name="Trazado 651171" d="M536.552,942.972l.724,5.012.364-6.4Z" transform="translate(-536.552 -941.584)" fill="#ece7d0"/>
          </g>
          <g id="Grupo_994895" data-name="Grupo 994895" transform="translate(51.046 69.223)">
            <path id="Trazado_651172" data-name="Trazado 651172" d="M510.521,1075.483,504.044,1067l1.638,13.426Z" transform="translate(-504.044 -1067.001)" fill="#f1b62b"/>
          </g>
          <g id="Grupo_994896" data-name="Grupo 994896" transform="translate(79.623 70.385)">
            <path id="Trazado_651173" data-name="Trazado 651173" d="M631.391,1072.182l.049,3.175.877-2.543Z" transform="translate(-631.391 -1072.182)" fill="#ab4a55"/>
          </g>
          <g id="Grupo_994897" data-name="Grupo 994897" transform="translate(80.501 74.003)">
            <path id="Trazado_651174" data-name="Trazado 651174" d="M635.3,1088.305l12.857,7.185.56-1.633Z" transform="translate(-635.303 -1088.305)" fill="#ab4a55"/>
          </g>
          <g id="Grupo_994898" data-name="Grupo 994898" transform="translate(76.491 135.227)">
            <path id="Trazado_651175" data-name="Trazado 651175" d="M619.864,1386.154l6.67-25.021-4.284,32.608-4.815.741Z" transform="translate(-617.435 -1361.132)" fill="#548492" fill-rule="evenodd"/>
          </g>
          <g id="Grupo_994899" data-name="Grupo 994899" transform="translate(74.956 199.805)">
            <path id="Trazado_651176" data-name="Trazado 651176" d="M612.128,1648.906l-1.535,6.943,23.675,3.1h12.3a17.619,17.619,0,0,0,1.118-3.853c0-1.056-7.572-3.531-7.572-3.531Z" transform="translate(-610.593 -1648.906)" fill="#fcf8ef" fill-rule="evenodd"/>
          </g>
          <g id="Grupo_994900" data-name="Grupo 994900" transform="translate(23.176 109.313)">
            <path id="Trazado_651177" data-name="Trazado 651177" d="M426.013,1297.329l-.508-.118c.077-.325,7.626-32.483,7.4-35.317-.148-1.879,1.87-3.056,3.076-3.761a7.807,7.807,0,0,0,.772-.486l-.061-.016c-.758-.224-2.828,1.179-4.5,2.287-2.48,1.639-4.04,2.627-4.741,2.06a.751.751,0,0,1-.274-.571c-.053-1.242,2.425-3.851,3.505-4.926-3.873-.037-24.554-.205-34.522,0-11.121.211-16.261-10.5-16.31-10.611l.472-.219c.049.1,4.922,10.314,15.482,10.314.114,0,.228,0,.344,0,10.987-.228,34.929,0,35.169,0l.642.006-.466.443c-1.488,1.417-3.836,4.02-3.8,4.969a.223.223,0,0,0,.079.187c.435.335,2.568-1.059,4.129-2.088,2.037-1.348,3.977-2.6,4.922-2.356.132.037.482.13.522.427.047.356-.362.6-1.106,1.029-1.171.685-2.942,1.718-2.818,3.271C433.656,1264.767,426.324,1296,426.013,1297.329Z" transform="translate(-379.849 -1245.651)" fill="#c4edef"/>
          </g>
          <g id="Grupo_994901" data-name="Grupo 994901" transform="translate(55.132 160.133)">
            <path id="Trazado_651178" data-name="Trazado 651178" d="M523.258,1473.737l23.518-1.619-3.161,9.022-21.359,1.388Z" transform="translate(-522.255 -1472.118)" fill="#bde2ec" fill-rule="evenodd"/>
          </g>
          <g id="Grupo_994902" data-name="Grupo 994902" transform="translate(73.176 164.528)">
            <path id="Trazado_651179" data-name="Trazado 651179" d="M604.68,1496.414l-2.02,7.087s11.026,0,15.19-1.234,5.706-2.776,5.706-2.776V1491.7l-17.169,3.452Z" transform="translate(-602.66 -1491.703)" fill="#bde2ec" fill-rule="evenodd"/>
          </g>
          <g id="Grupo_994903" data-name="Grupo 994903" transform="translate(57.523 169.239)">
            <path id="Trazado_651180" data-name="Trazado 651180" d="M535.528,1513.673l-2.621,15.131a15.16,15.16,0,0,1,13.263,1.85l4.411-17.959Z" transform="translate(-532.907 -1512.695)" fill="#2b2b2b" fill-rule="evenodd"/>
          </g>
          <g id="Grupo_994904" data-name="Grupo 994904" transform="translate(51.217 202.465)">
            <path id="Trazado_651181" data-name="Trazado 651181" d="M506.836,1660.76l-2.026,7.995,37.968.57s.621-3.915-.932-5.406a12.152,12.152,0,0,0-4.63-2.233Z" transform="translate(-504.81 -1660.76)" fill="#fcf8ef" fill-rule="evenodd"/>
          </g>
          <g id="Grupo_994905" data-name="Grupo 994905" transform="translate(76.491 175.092)">
            <path id="Trazado_651182" data-name="Trazado 651182" d="M617.435,1539.957l.925,12.006s9.715-1.851,12.029-1.08l-1.079-12.106S620.751,1539.9,617.435,1539.957Z" transform="translate(-617.435 -1538.778)" fill="#2b2b2b" fill-rule="evenodd"/>
          </g>
          <g id="Grupo_994906" data-name="Grupo 994906" transform="translate(53.243 184.269)">
            <path id="Trazado_651183" data-name="Trazado 651183" d="M518.116,1580.752l-4.279,17.118a107.329,107.329,0,0,0,12.029,3.585,84.078,84.078,0,0,0,12.029,1.735s1.773-4.626,6.323-4.4c0,0-10.024-3.123-12.569-6.824s-.27-9.369-.27-9.369A12.673,12.673,0,0,0,518.116,1580.752Z" transform="translate(-513.837 -1579.674)" fill="#f1b62b" fill-rule="evenodd"/>
          </g>
          <g id="Grupo_994907" data-name="Grupo 994907" transform="translate(76.491 186.557)">
            <path id="Trazado_651184" data-name="Trazado 651184" d="M618.36,1591.591l-.925,11.528s8.675,3.47,14.226,5.089a65.033,65.033,0,0,0,9.369,2.082s2.776-4.279,4.4-4.51c0,0-9.022-4.511-12.145-8.675s-2.892-6.593-2.892-6.593S622.64,1588.507,618.36,1591.591Z" transform="translate(-617.435 -1589.871)" fill="#f1b62b" fill-rule="evenodd"/>
          </g>
          <g id="Grupo_994908" data-name="Grupo 994908" transform="translate(66.063 194.942)">
            <path id="Trazado_651185" data-name="Trazado 651185" d="M575.89,1628.754a4.308,4.308,0,0,0-3.494,1.565.772.772,0,0,1-.652.345.717.717,0,0,1-.419-.13.771.771,0,0,1-.233-1.072,5.632,5.632,0,0,1,4.072-2.227A5.984,5.984,0,0,0,575.89,1628.754Z" transform="translate(-570.966 -1627.235)" fill="#ece7d0"/>
          </g>
          <g id="Grupo_994909" data-name="Grupo 994909" transform="translate(65.551 191.7)">
            <path id="Trazado_651186" data-name="Trazado 651186" d="M573.037,1614.351a4.08,4.08,0,0,0-2.916,1.519.81.81,0,0,1-.662.354.792.792,0,0,1-.419-.13.773.773,0,0,1-.233-1.072,5.637,5.637,0,0,1,4.184-2.236A9.845,9.845,0,0,0,573.037,1614.351Z" transform="translate(-568.682 -1612.786)" fill="#ece7d0"/>
          </g>
          <g id="Grupo_994910" data-name="Grupo 994910" transform="translate(68.421 197.616)">
            <path id="Trazado_651187" data-name="Trazado 651187" d="M586.878,1640.558a4.43,4.43,0,0,0-3.969,1.565.8.8,0,0,1-.652.345.789.789,0,0,1-.429-.121.775.775,0,0,1-.233-1.072,5.519,5.519,0,0,1,3.438-2.124A13.713,13.713,0,0,0,586.878,1640.558Z" transform="translate(-581.471 -1639.151)" fill="#ece7d0"/>
          </g>
          <g id="Grupo_994911" data-name="Grupo 994911" transform="translate(85.63 189.277)">
            <path id="Trazado_651188" data-name="Trazado 651188" d="M662.991,1603.5a4.23,4.23,0,0,0-3.391,1.565.8.8,0,0,1-1.081.224.775.775,0,0,1-.233-1.072,5.605,5.605,0,0,1,4.081-2.227A11.174,11.174,0,0,0,662.991,1603.5Z" transform="translate(-658.161 -1601.989)" fill="#ece7d0"/>
          </g>
          <g id="Grupo_994912" data-name="Grupo 994912" transform="translate(88.46 192.818)">
            <path id="Trazado_651189" data-name="Trazado 651189" d="M674.961,1619.138a4.035,4.035,0,0,0-2.758,1.509.782.782,0,0,1-1.314-.848,5.409,5.409,0,0,1,3.075-2.031c.2.307.429.634.68.969C674.746,1618.867,674.849,1619.007,674.961,1619.138Z" transform="translate(-670.771 -1617.768)" fill="#ece7d0"/>
          </g>
          <g id="Grupo_994913" data-name="Grupo 994913" transform="translate(91.286 196.172)">
            <path id="Trazado_651190" data-name="Trazado 651190" d="M688.474,1634.085a4.369,4.369,0,0,0-3.681,1.575.784.784,0,0,1-.652.345.716.716,0,0,1-.419-.13.771.771,0,0,1-.233-1.071,5.445,5.445,0,0,1,3.252-2.087Q687.566,1633.414,688.474,1634.085Z" transform="translate(-683.365 -1632.716)" fill="#ece7d0"/>
          </g>
          <g id="Grupo_994914" data-name="Grupo 994914" transform="translate(95.299 198.856)">
            <path id="Trazado_651191" data-name="Trazado 651191" d="M706.22,1645.932a4.292,4.292,0,0,0-3.541,1.565.782.782,0,0,1-1.314-.848,5.459,5.459,0,0,1,2.879-1.975C704.916,1645.121,705.587,1645.54,706.22,1645.932Z" transform="translate(-701.247 -1644.674)" fill="#ece7d0"/>
          </g>
          <g id="Grupo_994915" data-name="Grupo 994915" transform="translate(72.763 199.955)">
            <path id="Trazado_651192" data-name="Trazado 651192" d="M605.753,1650.719a4.266,4.266,0,0,0-3.494,1.566.8.8,0,0,1-1.081.224.775.775,0,0,1-.233-1.072,5.241,5.241,0,0,1,2.516-1.863C604.206,1649.983,604.989,1650.365,605.753,1650.719Z" transform="translate(-600.82 -1649.573)" fill="#ece7d0"/>
          </g>
          <g id="Grupo_994916" data-name="Grupo 994916" transform="translate(45.957 19.951)">
            <path id="Trazado_651193" data-name="Trazado 651193" d="M482,847.435s3.239,0,4.106,2.14-.4,5.32-.4,5.32l-.752-3.73-3.585,1.475s.438-2.674,2.522-3.007Z" transform="translate(-481.366 -847.435)" fill="#e27c6b" fill-rule="evenodd"/>
          </g>
          <g id="Grupo_994917" data-name="Grupo 994917" transform="translate(56.975 31.712)">
            <path id="Trazado_651194" data-name="Trazado 651194" d="M530.467,899.846l4.12,7.242,1.9-2.425Z" transform="translate(-530.467 -899.846)" fill="#e27c6b" fill-rule="evenodd"/>
          </g>
          <g id="Grupo_994918" data-name="Grupo 994918" transform="translate(88.78 40.095)">
            <path id="Trazado_651195" data-name="Trazado 651195" d="M672.2,937.657c2.053-1.4,3.37.78,3.9,1.918s.855,4.029,1.24,4.029-2.564,2.14-3.6,0S673.037,939.691,672.2,937.657Z" transform="translate(-672.198 -937.204)" fill="#e27c6b" fill-rule="evenodd"/>
          </g>
          <g id="Grupo_994919" data-name="Grupo 994919" transform="translate(92.939 39.728)">
            <path id="Trazado_651196" data-name="Trazado 651196" d="M692.566,938.1c.628,1.224.8,5.388,1.611,5.5s2.558-1.677,1.741-4.309-2.675-3.672-4.174-3.73-.89,2.352-.89,2.352S692.274,937.229,692.566,938.1Z" transform="translate(-690.732 -935.565)" fill="#e27c6b" fill-rule="evenodd"/>
          </g>
          <g id="Grupo_994920" data-name="Grupo 994920" transform="translate(98.761 42.339)">
            <path id="Trazado_651197" data-name="Trazado 651197" d="M716.674,948.456s1.614-1.96,2.945-.974,1.966,6.307.636,7.232-2.082.983-2.082-1.041-.116-4.221-.116-4.221Z" transform="translate(-716.674 -947.204)" fill="#e27c6b" fill-rule="evenodd"/>
          </g>
          <g id="Grupo_994921" data-name="Grupo 994921" transform="translate(82.691 67.098)">
            <path id="Trazado_651198" data-name="Trazado 651198" d="M645.062,1057.533l10.991,2.739-.267,1.005Z" transform="translate(-645.062 -1057.533)" fill="#e27c6b" fill-rule="evenodd"/>
          </g>
        </g>
      </g>
      <g id="green_shirt_boy" data-name="green shirt boy" transform="translate(415.704 395.566)">
        <g id="Grupo_994923" data-name="Grupo 994923" transform="translate(4.822 122.01)">
          <rect id="Rectángulo_302385" data-name="Rectángulo 302385" width="63.108" height="11.002" fill="#2b2b2b"/>
          <rect id="Rectángulo_302386" data-name="Rectángulo 302386" width="63.108" height="3.659" transform="translate(0.794 49.613)" fill="#2b2b2b"/>
          <rect id="Rectángulo_302387" data-name="Rectángulo 302387" width="5.501" height="69.359" transform="translate(7.839 7.144)" fill="#2b2b2b"/>
          <rect id="Rectángulo_302388" data-name="Rectángulo 302388" width="5.501" height="69.359" transform="translate(52.094 7.144)" fill="#2b2b2b"/>
        </g>
        <path id="Trazado_651199" data-name="Trazado 651199" d="M1082.968,926.633s-.807-5.092-7.005-4.406-23.517,46.626-23.335,50.454,2.917,7.962,8.568,8.995,39.729,0,39.729,0h11.966a4.648,4.648,0,0,0,4.548-5.617c-2.721-12.751-9.4-43.026-12.125-46.2-3.464-4.03-8.427-.189-8.427-.189Z" transform="translate(-1052.627 -888.754)" fill="#222b5a"/>
        <path id="Trazado_651200" data-name="Trazado 651200" d="M1192.1,934.881l-4.265,1.615.365,12.093,6.128-5.543,5.053,7.305,2.373-10.817-1.043-1.522Z" transform="translate(-1157.493 -898.618)" fill="#f0efea"/>
        <path id="Trazado_651201" data-name="Trazado 651201" d="M1205.585,788.426s7.163-5.967,7.218-10-7.218-2.32-7.218-2.32a3.662,3.662,0,0,0-3.993-2.817c-3.424.166-9.168,3.7-12.758,3.866s-6.682-.663-9.941,3.093,7.631,23.62,7.631,23.62Z" transform="translate(-1150.087 -773.284)" fill="#ab4a55"/>
        <path id="Trazado_651202" data-name="Trazado 651202" d="M1222.69,798.663a14.35,14.35,0,0,1,1.546,6.48,33.539,33.539,0,0,1-1.546,8.616c-.368,1.031,3.166,2.335,3.166,2.335a72.512,72.512,0,0,0-3.193,6.575c-.194.957-.857,5.007-2.256,5.67s-6.756-1.171-6.756-1.171l-2.854,7.577-5.486,2.651L1202,832.462s3.9-11.414,4.271-13.844-2.946-2.356-2.577-5.891,1.473-5.081,3.682-5.081,3.461,3.755,3.461,3.755,2.835-7.106,3.093-7.658,2.246.884,3.848-.055a3.085,3.085,0,0,0,1.6-2.485s.442.828,1.712,0A4.338,4.338,0,0,0,1222.69,798.663Z" transform="translate(-1168.478 -792.968)" fill="#f6a88a"/>
        <path id="Trazado_651203" data-name="Trazado 651203" d="M1220.607,849.949s-.547-3.464-2.279-2.917-2.005,3.19-1.823,3.919a2.139,2.139,0,0,0,.638,1.094s.182-1.914.638-2.188,1.413,2.188,1.413,2.188-.729-3.737-.091-3.6S1220.607,849.949,1220.607,849.949Z" transform="translate(-1179.693 -830.438)" fill="#e17b6b"/>
        <path id="Trazado_651204" data-name="Trazado 651204" d="M1206.7,1288.156s-24.246-42.659-26.251-44.664-33.969-17.744-33.969-17.744-6.016-2.521-9.176-3.464-11,.524-11,.524l.278.323-24.707,1.158s-2.917,11.911,8.75,17.2,33.361,10.938,34.637,10.938,3-1.641,2.686,0-.96,2.734,0,2.734,1.689,1.094.778,2.37-14.81,24.269-14.81,24.269l23.135,10.429s5.535-10.994,10.337-21.721l18.71,21.721Z" transform="translate(-1090.576 -1121.281)" fill="#12263f"/>
        <path id="Trazado_651205" data-name="Trazado 651205" d="M1247.612,923.175l-1.828-.727v5.58Z" transform="translate(-1202.438 -888.974)" fill="#e17b6b"/>
        <path id="Trazado_651206" data-name="Trazado 651206" d="M1101.12,1225.231s7.555,3.525,14.3,2.249,12.761-6.2,16.833-6.5,11.984.936,11.984.936a33.84,33.84,0,0,0-15.691-3.974c-8.447.182-17.623,2.248-20.479,2.005a42.835,42.835,0,0,1-6.137-1.106s-.527,2.139-.81,3.415A9.406,9.406,0,0,0,1101.12,1225.231Z" transform="translate(-1090.14 -1118.151)" fill="#548391"/>
        <ellipse id="Elipse_5731" data-name="Elipse 5731" cx="2.598" cy="1.117" rx="2.598" ry="1.117" transform="translate(45.7 21.198)" fill="#e17b6b"/>
        <path id="Trazado_651207" data-name="Trazado 651207" d="M1149.377,1007.147l-7.383,24.155s1-1.276,1.367-.638-.182,1.368.638,1.732,19.324,3.555,19.324,3.555-18.686-4.375-19.05-5.56S1149.377,1007.147,1149.377,1007.147Z" transform="translate(-1121.939 -954.667)" fill="#afafaf"/>
        <path id="Trazado_651208" data-name="Trazado 651208" d="M1208.2,1018.114l2.552,22.332-13.484,1.8,1.5.387H1211.3s-.5-1.363.319-1.956,2.415.775,2.415.775Z" transform="translate(-1164.808 -963.173)" fill="#afafaf"/>
        <path id="Trazado_651209" data-name="Trazado 651209" d="M1243.812,1143.255l2.066-12.762,8.082.851-2.188,11.911Z" transform="translate(-1200.909 -1050.333)" fill="#f0efea"/>
        <path id="Trazado_651210" data-name="Trazado 651210" d="M1280.268,1159.535a35.545,35.545,0,0,0,4.121-.148,17.717,17.717,0,0,1,4.163-1c1.519-.031,7.018,2.917,7.778,3.494s3.19,3.009,3.19,3.009h-2.431s-2.279-1.7-2.431-1.824.03.395-.79.425-3.494-1.063-4.649-1.307-4.375,2.705-4.375,2.705h-5.56Z" transform="translate(-1228.422 -1071.965)" fill="#f6a88a"/>
        <path id="Trazado_651211" data-name="Trazado 651211" d="M1103.851,1214.218l-.851,4.06s6.806,2.415,10.817,2.666,8.021-3.517,17.015-4.124a38.969,38.969,0,0,1,16.772,2.917l-1.094-5.519Z" transform="translate(-1091.696 -1115.27)" fill="#356e58"/>
        <path id="Trazado_651212" data-name="Trazado 651212" d="M1277.727,1276.139s7.225-16.258,8.136-18.9-21.056-17.319-25.7-19.962-16.346-8.044-16.346-8.044,12.974,5.036,19.172,8.135,26.251,16.042,27.345,18.868-5.473,28.182-5.473,28.182Z" transform="translate(-1200.909 -1126.914)" fill="#548391"/>
        <rect id="Rectángulo_302389" data-name="Rectángulo 302389" width="31.842" height="8.386" transform="translate(40.749 156.126) rotate(18.831)" fill="#c8e7f0"/>
        <rect id="Rectángulo_302390" data-name="Rectángulo 302390" width="27.415" height="8.386" transform="translate(89.945 166.467) rotate(-10.657)" fill="#c8e7f0"/>
        <g id="Grupo_994924" data-name="Grupo 994924" transform="translate(22.877 107.472)">
          <path id="Trazado_651213" data-name="Trazado 651213" d="M1190.867,1307.113l-.9-.251c.286-1.025,7.008-25.13,7.512-26.476a2.942,2.942,0,0,1,1.336-1.445c.568-.371.892-.61.963-1.206.04-.342-.054-.454-1-.686a2.415,2.415,0,0,1-1.879-1.172,1.374,1.374,0,0,1,.592-1.682c.462-.4.654-.562.064-1.314-1.128-1.37-26.32-12.6-42.979-19.822l.371-.855c4.275,1.853,41.81,18.151,43.342,20.1,1.139,1.452.276,2.2-.188,2.6-.406.35-.425.418-.343.608.147.345.588.475,1.242.634.739.18,1.856.451,1.71,1.7a2.5,2.5,0,0,1-1.379,1.876,2.109,2.109,0,0,0-.972.991C1197.865,1282.021,1190.937,1306.862,1190.867,1307.113Z" transform="translate(-1154.572 -1252.204)" fill="#c8e7f0"/>
        </g>
        <g id="Grupo_994925" data-name="Grupo 994925" transform="translate(83.931 136.35)">
          <rect id="Rectángulo_302391" data-name="Rectángulo 302391" width="0.932" height="33.173" transform="matrix(0.826, -0.564, 0.564, 0.826, 0, 0.526)" fill="#c8e7f0"/>
        </g>
        <g id="Grupo_994930" data-name="Grupo 994930" transform="translate(37.933 173.67)">
          <path id="Trazado_651214" data-name="Trazado 651214" d="M1231.3,1548.18s-1.4-1.244-2.114-.937.475,4.133-.3,5.627-7.073,9.514-7.073,9.514l27.683,14.325s4.755-1.8,2.438-5.026-4-3.12-6.1-5.609-6.418-14.7-6.418-14.7Z" transform="translate(-1221.777 -1547.194)" fill="#225081"/>
          <path id="Trazado_651215" data-name="Trazado 651215" d="M1251.784,1614.43c-1.809-2.519-3.233-3.019-4.77-4.3l-.016,0s-2.334-.567-3.6.58.233,2.923.233,2.923l-19.8-11.287-.02.025c-1.2,1.557-2.144,2.759-2.144,2.759l27.684,14.325S1254.1,1617.657,1251.784,1614.43Z" transform="translate(-1221.663 -1589.97)" fill="#fdfae8"/>
          <g id="Grupo_994926" data-name="Grupo 994926" transform="translate(13.178 7.628)">
            <path id="Trazado_651216" data-name="Trazado 651216" d="M1286.879,1583.181a7.242,7.242,0,0,0-2.5.177,6.061,6.061,0,0,0-2.45.755c-1.1.606-2.19-1.025-1.081-1.64a8.654,8.654,0,0,1,3.4-1.072c.578-.074,1.221-.186,1.854-.214C1286.347,1581.8,1286.6,1582.482,1286.879,1583.181Z" transform="translate(-1280.386 -1581.187)" fill="#fdfae8"/>
          </g>
          <g id="Grupo_994927" data-name="Grupo 994927" transform="translate(14.703 10.554)">
            <path id="Trazado_651217" data-name="Trazado 651217" d="M1293.285,1596.135a10.826,10.826,0,0,0-2.106.233,6.239,6.239,0,0,0-2.46.745c-1.09.615-2.18-1.016-1.081-1.63a8.544,8.544,0,0,1,3.41-1.071c.457-.056.96-.14,1.463-.186C1292.763,1594.859,1293.024,1595.5,1293.285,1596.135Z" transform="translate(-1287.181 -1594.225)" fill="#fdfae8"/>
          </g>
          <g id="Grupo_994928" data-name="Grupo 994928" transform="translate(15.722 13.405)">
            <path id="Trazado_651218" data-name="Trazado 651218" d="M1298.083,1608.888a8.926,8.926,0,0,0-2.357.2,6.355,6.355,0,0,0-2.46.755c-1.1.615-2.189-1.016-1.081-1.63a8.5,8.5,0,0,1,3.4-1.072c.512-.074,1.062-.158,1.63-.2C1297.506,1607.611,1297.794,1608.273,1298.083,1608.888Z" transform="translate(-1291.722 -1606.931)" fill="#fdfae8"/>
          </g>
          <g id="Grupo_994929" data-name="Grupo 994929" transform="translate(17.287 16.377)">
            <path id="Trazado_651219" data-name="Trazado 651219" d="M1305.059,1622.133a8.249,8.249,0,0,0-2.357.187,6.055,6.055,0,0,0-2.46.755c-1.1.606-2.189-1.025-1.081-1.64a8.806,8.806,0,0,1,3.4-1.072c.447-.056.922-.14,1.416-.186A19.185,19.185,0,0,0,1305.059,1622.133Z" transform="translate(-1298.698 -1620.176)" fill="#fdfae8"/>
          </g>
        </g>
        <g id="Grupo_994935" data-name="Grupo 994935" transform="translate(101.284 177.296)">
          <path id="Trazado_651220" data-name="Trazado 651220" d="M1506.2,1566.339s-1.873,0-2.2.7,3.1,2.779,3.507,4.41,1.012,11.812,1.012,11.812l30.222-7.628s2.367-4.5-1.507-5.379-5.062.316-8.288-.154-14.548-6.748-14.548-6.748Z" transform="translate(-1503.97 -1563.352)" fill="#225081"/>
          <path id="Trazado_651221" data-name="Trazado 651221" d="M1551.946,1592.95c-3.025-.687-4.422-.117-6.419-.053l-.015.007s-2.124,1.122-2.312,2.823,2.112,2.034,2.112,2.034L1523,1602.438l0,.032c.134,1.961.224,3.487.224,3.487l30.222-7.629S1555.82,1593.83,1551.946,1592.95Z" transform="translate(-1518.733 -1586.048)" fill="#fdfae8"/>
          <g id="Grupo_994931" data-name="Grupo 994931" transform="translate(10.506 1.738)">
            <path id="Trazado_651222" data-name="Trazado 651222" d="M1555.841,1572.085a7.25,7.25,0,0,0-1.761,1.78,6.223,6.223,0,0,0-1.341,2.189c-.41,1.183-2.311.69-1.892-.5a8.847,8.847,0,0,1,1.835-3.066c.391-.438.792-.95,1.258-1.388C1554.528,1571.4,1555.171,1571.74,1555.841,1572.085Z" transform="translate(-1550.787 -1571.097)" fill="#fdfae8"/>
          </g>
          <g id="Grupo_994932" data-name="Grupo 994932" transform="translate(13.572 3.173)">
            <path id="Trazado_651223" data-name="Trazado 651223" d="M1569.185,1578.415a10.225,10.225,0,0,0-1.444,1.565,6.266,6.266,0,0,0-1.342,2.2c-.42,1.183-2.311.68-1.892-.512a8.458,8.458,0,0,1,1.835-3.056c.307-.354.624-.745.978-1.118C1567.936,1577.8,1568.561,1578.116,1569.185,1578.415Z" transform="translate(-1564.447 -1577.492)" fill="#fdfae8"/>
          </g>
          <g id="Grupo_994933" data-name="Grupo 994933" transform="translate(16.236 4.533)">
            <path id="Trazado_651224" data-name="Trazado 651224" d="M1581.264,1584.439a8.441,8.441,0,0,0-1.649,1.715,6.061,6.061,0,0,0-1.342,2.2c-.419,1.183-2.311.68-1.891-.513a8.573,8.573,0,0,1,1.836-3.065c.345-.392.7-.82,1.09-1.221C1579.979,1583.871,1580.64,1584.178,1581.264,1584.439Z" transform="translate(-1576.321 -1583.554)" fill="#fdfae8"/>
          </g>
          <g id="Grupo_994934" data-name="Grupo 994934" transform="translate(19.367 5.857)">
            <path id="Trazado_651225" data-name="Trazado 651225" d="M1595.2,1590.2a8.291,8.291,0,0,0-1.631,1.7,6.232,6.232,0,0,0-1.342,2.19c-.419,1.183-2.311.68-1.891-.512a8.676,8.676,0,0,1,1.836-3.056c.3-.335.606-.717.941-1.081C1593.911,1589.776,1594.619,1590.037,1595.2,1590.2Z" transform="translate(-1590.272 -1589.45)" fill="#fdfae8"/>
          </g>
        </g>
        <path id="Trazado_651226" data-name="Trazado 651226" d="M1262.041,1519.206l-1.034,8.935s.03,1.945,3.251,2.856,4.679-.182,4.679-.182l3.016-8.228Z" transform="translate(-1214.245 -1351.817)" fill="#2b2b2b"/>
        <path id="Trazado_651227" data-name="Trazado 651227" d="M1500,1538.144l3.8,8.722a4.683,4.683,0,0,0,3.976,0,7.523,7.523,0,0,0,3.342-2.648l-1.56-7.872Z" transform="translate(-1399.607 -1365.11)" fill="#2b2b2b"/>
        <g id="Grupo_994939" data-name="Grupo 994939" transform="translate(47.193 11.128)">
          <g id="Grupo_994936" data-name="Grupo 994936" transform="translate(7.89)">
            <path id="Trazado_651228" data-name="Trazado 651228" d="M1301.47,836.5c-1.9,0-3.383-2.993-3.383-6.813s1.486-6.812,3.383-6.812,3.382,2.993,3.382,6.813S1303.366,836.5,1301.47,836.5Zm0-12.693c-1.159,0-2.451,2.415-2.451,5.881s1.292,5.881,2.451,5.881,2.451-2.415,2.451-5.881S1302.629,823.8,1301.47,823.8Z" transform="translate(-1298.087 -822.873)" fill="#2b2b2b"/>
          </g>
          <g id="Grupo_994937" data-name="Grupo 994937">
            <path id="Trazado_651229" data-name="Trazado 651229" d="M1266.311,836.5c-1.9,0-3.383-2.993-3.383-6.813s1.486-6.812,3.383-6.812,3.382,2.993,3.382,6.813S1268.207,836.5,1266.311,836.5Zm0-12.693c-1.16,0-2.451,2.415-2.451,5.881s1.292,5.881,2.451,5.881,2.45-2.415,2.45-5.881S1267.47,823.8,1266.311,823.8Z" transform="translate(-1262.928 -822.873)" fill="#2b2b2b"/>
          </g>
          <g id="Grupo_994938" data-name="Grupo 994938" transform="translate(6.3 6.562)">
            <rect id="Rectángulo_302392" data-name="Rectángulo 302392" width="2.058" height="0.932" fill="#2b2b2b"/>
          </g>
        </g>
      </g>
      <g id="blue_shirt_girt" data-name="blue shirt girt" transform="translate(611.637 392.568)">
        <g id="Grupo_994940" data-name="Grupo 994940" transform="translate(85.624 132.135)">
          <rect id="Rectángulo_302393" data-name="Rectángulo 302393" width="63.108" height="11.002" fill="#2b2b2b"/>
          <rect id="Rectángulo_302394" data-name="Rectángulo 302394" width="63.108" height="3.659" transform="translate(0.794 49.613)" fill="#2b2b2b"/>
          <rect id="Rectángulo_302395" data-name="Rectángulo 302395" width="5.501" height="69.359" transform="translate(7.839 7.144)" fill="#2b2b2b"/>
          <rect id="Rectángulo_302396" data-name="Rectángulo 302396" width="5.501" height="69.359" transform="translate(52.094 7.144)" fill="#2b2b2b"/>
        </g>
        <g id="Grupo_994945" data-name="Grupo 994945" transform="translate(23.599 165.839)">
          <path id="Trazado_651230" data-name="Trazado 651230" d="M2156.49,1498.939s2.734,3.873,9.253,3.873a19.334,19.334,0,0,0,4.162-.479s-6.788,17.94-8.89,22.465a10.13,10.13,0,0,1-4.789,1.539c-2.3,0-4.682-1.373-5.231-6.711Z" transform="translate(-2124.046 -1498.939)" fill="#2b2b2b"/>
          <path id="Trazado_651231" data-name="Trazado 651231" d="M2086.94,1591.128s.987,4.526,2.819,5.62a4.076,4.076,0,0,0,2.131.554c2.154,0,4.312-1.32,5.14-1.32a.308.308,0,0,1,.354.35c0,1.355-2.125,5.818-4.842,13.692,0,0-11.679-3.7-16.516-5.247a38.086,38.086,0,0,0-6.752-1.734,6.223,6.223,0,0,0,.15-1.415,5.571,5.571,0,0,0-1.017-3.329,50.873,50.873,0,0,0,10.9-3.1C2085.47,1592.733,2086.94,1591.128,2086.94,1591.128Z" transform="translate(-2059.991 -1570.44)" fill="#179587"/>
          <path id="Trazado_651232" data-name="Trazado 651232" d="M2040.651,1624.877c0-2.028-1.105-2.269-2.454-2.269a6.758,6.758,0,0,0-6.568,4.463,18.427,18.427,0,0,1-.723,2s9.681,2.367,15.432,4.137c4.569,1.406,15.2,5.312,15.688,5.312.113,0,1.43-4.081,1.43-4.081s-21.051-7.015-23.247-7.015c-.034,0-.045.005-.045.012s.024.023.024.023A9.119,9.119,0,0,0,2040.651,1624.877Z" transform="translate(-2030.906 -1594.856)" fill="#f2f1ec"/>
          <g id="Grupo_994941" data-name="Grupo 994941" transform="translate(24.191 21.97)">
            <path id="Trazado_651233" data-name="Trazado 651233" d="M2140.45,1599.357c0,1.3-.2,1.724-.67,1.724a.55.55,0,0,1-.55-.55,7.793,7.793,0,0,0,.121-1.193,2.36,2.36,0,0,0-.643-1.947c.373-.2.689-.382.969-.55A3.828,3.828,0,0,1,2140.45,1599.357Z" transform="translate(-2138.708 -1596.841)" fill="#f2f1ec"/>
          </g>
          <g id="Grupo_994942" data-name="Grupo 994942" transform="translate(21.741 23.256)">
            <path id="Trazado_651234" data-name="Trazado 651234" d="M2129.5,1604.994c0,1.314-.205,1.724-.671,1.724a.55.55,0,0,1-.55-.55,7.8,7.8,0,0,0,.121-1.193,2.4,2.4,0,0,0-.615-1.929c.364-.168.7-.326,1.016-.475A3.924,3.924,0,0,1,2129.5,1604.994Z" transform="translate(-2127.787 -1602.571)" fill="#f2f1ec"/>
          </g>
          <g id="Grupo_994943" data-name="Grupo 994943" transform="translate(19.02 24.458)">
            <path id="Trazado_651235" data-name="Trazado 651235" d="M2117.331,1610.256c0,1.3-.2,1.724-.662,1.724a.55.55,0,0,1-.55-.55,7.784,7.784,0,0,0,.121-1.193,2.451,2.451,0,0,0-.578-1.891c.093-.037.2-.084.3-.121.261-.1.5-.2.745-.3A4.038,4.038,0,0,1,2117.331,1610.256Z" transform="translate(-2115.663 -1607.927)" fill="#f2f1ec"/>
          </g>
          <g id="Grupo_994944" data-name="Grupo 994944" transform="translate(16.243 25.52)">
            <path id="Trazado_651236" data-name="Trazado 651236" d="M2104.865,1614.823c0,1.3-.2,1.724-.671,1.724a.551.551,0,0,1-.55-.55,7.79,7.79,0,0,0,.121-1.193,2.7,2.7,0,0,0-.475-1.78c.345-.112.689-.233,1.043-.363A4.053,4.053,0,0,1,2104.865,1614.823Z" transform="translate(-2103.29 -1612.661)" fill="#f2f1ec"/>
          </g>
        </g>
        <path id="Trazado_651237" data-name="Trazado 651237" d="M2131.277,1404.614c.936-.936,20.764-43.957,20.764-43.957l19.645,6.512-17.63,37.445Z" transform="translate(-2085.155 -1225.849)" fill="#222b5a"/>
        <path id="Trazado_651238" data-name="Trazado 651238" d="M2223.807,1360.656l9.315,28.452,8.653-18.312Z" transform="translate(-2156.92 -1225.849)" fill="#243c57"/>
        <g id="Grupo_994946" data-name="Grupo 994946" transform="translate(60.745 143.155)">
          <rect id="Rectángulo_302397" data-name="Rectángulo 302397" width="30.741" height="0.932" transform="translate(0 27.904) rotate(-65.193)" fill="#87a8b8"/>
        </g>
        <path id="Trazado_651239" data-name="Trazado 651239" d="M2291.961,1199.879a19.262,19.262,0,0,1,0,17.317c-4.621,9.361-46.735,19.346-49.55,19.346s-2.5-1.56-3.282-1.4.468,2.808-.624,3.12,42.282,33.232,42.282,33.232l-22.1,14.042s-51.228-39.005-51.852-49.615,38.693-30.892,38.693-30.892Z" transform="translate(-2143.75 -1101.151)" fill="#222b5a"/>
        <path id="Trazado_651240" data-name="Trazado 651240" d="M2315.107,822.708s5.165-8.446,4.983-14.462-3.646-16.346-3.342-19.445,5.529,1.276,5.529,1.276,3.16-5.712,6.806-4.618,4.74,3.464,8.872,3.95,7.96.061,8.811,1.094,2.734,11.12,3.464,15.07S2349.074,819,2349.074,819l-4.922.243.79-4.132-2.284,4.367-13.393,3.229-.183-8.932-3.4,8.932Z" transform="translate(-2227.732 -779.622)" fill="#2b2b2b"/>
        <path id="Trazado_651241" data-name="Trazado 651241" d="M2334.972,815.185a17.439,17.439,0,0,0-1.519,4.436c-.729,3.1.608,7.839.76,9.844s-3.13,4.375-3.13,4.375a17.958,17.958,0,0,1,2.917,4.74c.729,2.187.183,6.2,3.1,6.016a37.225,37.225,0,0,0,7.839-2.005l2.188,8.75a8.986,8.986,0,0,0,5.1,2.552c3.1.365,5.469-3.646,5.469-3.646s-4.922-13.49-5.013-16.133,5.287-3.919,3.919-7.292-3.919-2.643-5.1-1.549a4.74,4.74,0,0,0-1.276,2.917s-1.276-3.555-2.552-4.74-4.831.911-8.842-.547S2334.972,815.185,2334.972,815.185Z" transform="translate(-2240.123 -802.784)" fill="#f6a88a"/>
        <path id="Trazado_651242" data-name="Trazado 651242" d="M2422.606,862.923s1.367-3.1,2.765-1.823.182,4.254.182,4.254.183-2.131-.152-2.281-2.127,2.129-2.127,2.129,1.645-2.826,1.05-2.917A3.715,3.715,0,0,0,2422.606,862.923Z" transform="translate(-2311.107 -838.156)" fill="#e27c6b"/>
        <path id="Trazado_651243" data-name="Trazado 651243" d="M2392.82,934.366l2.431-.851-1.215,5.712Z" transform="translate(-2288.006 -894.56)" fill="#e27c6b"/>
        <path id="Trazado_651244" data-name="Trazado 651244" d="M2427.045,1203.271a24.637,24.637,0,0,1-15.116,8.7c-9.771,1.463-18.722-4.339-23.988-5.675a35.987,35.987,0,0,0-8.659-1.267l46.435-5.147s.751,1.324.927,1.675A11.063,11.063,0,0,1,2427.045,1203.271Z" transform="translate(-2277.506 -1101.151)" fill="#243c57"/>
        <path id="Trazado_651245" data-name="Trazado 651245" d="M2365.4,889.116c0,.94,1.377,1.7,3.076,1.7s3.077-.762,3.077-1.7-1.377-1.7-3.077-1.7S2365.4,888.177,2365.4,889.116Z" transform="translate(-2266.742 -858.806)" fill="#e27c6b"/>
        <path id="Trazado_651246" data-name="Trazado 651246" d="M2112.464,864.258s1.443-3.9,8-5.3,34.012,37.6,34.636,40.409-16.045,7.665-16.045,7.665l2.94,7.937s-3.744,7.8-17.786,10.609c-5.073,1.015-13.13-2.727-17.75-3.51-8.166-1.384-11.582-.858-11.582-.858s1.2-29.878-2.808-33.31-31.2-12.872-34.325-13.964-45.156-21.549-45.156-21.549l6.464-18.443s35.339,17.213,36.392,17.213,1.756,2.457,2.809,2.574,1.989-1.872,2.574-1.872.585,2.457,1.755,3.042,32.3,13.37,32.3,13.37Z" transform="translate(-1993.096 -817.331)" fill="#ee4e5d"/>
        <path id="Trazado_651247" data-name="Trazado 651247" d="M2404.3,955.326l3.1,2.527,2.509,8.626-9.361-4.563-6.512,6.319-1.215-8.191,1.656-2.139,5.547,2.176Z" transform="translate(-2288.006 -911.477)" fill="#f0efea"/>
        <path id="Trazado_651248" data-name="Trazado 651248" d="M2441.369,1030.228l12.56,13.5s-1.716-1.014-1.716-.39.468.468-.234,1.326-24.027,7.957-24.027,7.957,23.949-8.581,23.559-9.673S2441.369,1030.228,2441.369,1030.228Z" transform="translate(-2315.253 -969.571)" fill="#548391"/>
        <path id="Trazado_651249" data-name="Trazado 651249" d="M2448.375,1165.6l28.674-5.968,1.819,4.911Z" transform="translate(-2331.093 -1069.937)" fill="#548391"/>
        <path id="Trazado_651250" data-name="Trazado 651250" d="M2403.652,989.828l1.962,1.179,3.335-6.319Z" transform="translate(-2296.407 -934.25)" fill="#548391"/>
        <path id="Trazado_651251" data-name="Trazado 651251" d="M2459.787,973.452l1.916.706-3.914-7.573Z" transform="translate(-2338.396 -920.21)" fill="#548391"/>
        <rect id="Rectángulo_302398" data-name="Rectángulo 302398" width="31.218" height="12.052" transform="translate(139.366 170.898) rotate(141.811)" fill="#87a8b8"/>
        <rect id="Rectángulo_302399" data-name="Rectángulo 302399" width="27.603" height="12.053" transform="matrix(-0.983, -0.185, 0.185, -0.983, 71.992, 185.558)" fill="#87a8b8"/>
        <rect id="Rectángulo_302400" data-name="Rectángulo 302400" width="9.517" height="17.544" transform="matrix(-0.935, 0.355, -0.355, -0.935, 117.293, 97.776)" fill="#f0efea"/>
        <rect id="Rectángulo_302401" data-name="Rectángulo 302401" width="9.517" height="24.449" transform="matrix(-0.925, -0.38, 0.38, -0.925, 24.839, 40.312)" fill="#f0efea"/>
        <path id="Trazado_651252" data-name="Trazado 651252" d="M2356.15,1067.782s7.209,2.026,7.682,3.352-2.718,9.211-2.718,9.211-.554-8.118-2.114-9.8A36.686,36.686,0,0,0,2356.15,1067.782Z" transform="translate(-2259.564 -998.697)" fill="#548391"/>
        <g id="Grupo_994947" data-name="Grupo 994947" transform="translate(81.232 108.914)">
          <path id="Trazado_651253" data-name="Trazado 651253" d="M2324.283,1308.962c-1.292-1.306-31.648-31.993-32.659-33.119a4.956,4.956,0,0,0-1.615-.964c-.986-.441-2.006-.9-2.237-1.938-.295-1.325,1.054-1.862,2.138-2.293a6.553,6.553,0,0,0,1.156-.542,6,6,0,0,0-.7-.536c-.789-.55-2.107-1.47-1.314-2.613,1-1.434,36.622-18.317,43.753-21.686l.4.842c-16.838,7.957-42.292,20.221-43.4,21.4-.208.3.186.662,1.1,1.3.615.429,1.147.8,1.158,1.32a.8.8,0,0,1-.349.665,6.263,6.263,0,0,1-1.455.723c-1.2.475-1.678.751-1.572,1.225.129.582.9.926,1.709,1.29a5.564,5.564,0,0,1,1.927,1.192c1,1.109,32.311,32.767,32.628,33.086Z" transform="translate(-2287.731 -1245.271)" fill="#87a8b8"/>
        </g>
        <path id="Trazado_651254" data-name="Trazado 651254" d="M2484.636,1545.573l11.994,11.393a5.9,5.9,0,0,1,0,5.383c-1.521,2.574-7.255,1.638-7.255,1.638l-13.861-11.239Z" transform="translate(-2352.144 -1369.269)" fill="#2b2b2b"/>
        <g id="Grupo_994952" data-name="Grupo 994952" transform="translate(124.589 183.423)">
          <path id="Trazado_651255" data-name="Trazado 651255" d="M2514.3,1585.036c.01.478.015.992.015,1.538,0,9.855-.919,13.727-.919,13.727s3.106.956,3.862,2.19c0,0,5.177-6.769,7.327-11.707s3.384-8.163,3.384-8.163-5.6-5.324-6.543-5.324c-.24,0-1.317,2.93-3.372,5.125A10.975,10.975,0,0,1,2514.3,1585.036Z" transform="translate(-2506.116 -1577.298)" fill="#179587"/>
          <path id="Trazado_651256" data-name="Trazado 651256" d="M2502.8,1601.022l4.261,3.663s-6.451,10.473-8.2,13.857-3.942,7.486-3.942,7.486-9.835.279-10.433.279-3.225-.4-3.385-1.075a9.519,9.519,0,0,1-.156-1.82c0-4.106,1.822-5.074,4.716-5.074,2.554,0,5.283,1.013,6.43,2.554,0,0,2.389-3.584,6.172-10.632A81.468,81.468,0,0,0,2502.8,1601.022Z" transform="translate(-2480.942 -1595.698)" fill="#f2f1ec"/>
          <g id="Grupo_994948" data-name="Grupo 994948" transform="translate(8.196 8.504)">
            <path id="Trazado_651257" data-name="Trazado 651257" d="M2520.868,1616.069a.48.48,0,0,1-.485.475,6.925,6.925,0,0,0-1.8-.391,1.654,1.654,0,0,0-1.109.317v-.5c0-.2,0-.391-.009-.578a3.038,3.038,0,0,1,1.118-.2,5.209,5.209,0,0,1,1.994.438A.478.478,0,0,1,2520.868,1616.069Z" transform="translate(-2517.467 -1615.193)" fill="#f2f1ec"/>
          </g>
          <g id="Grupo_994949" data-name="Grupo 994949" transform="translate(8.187 10.787)">
            <path id="Trazado_651258" data-name="Trazado 651258" d="M2520.835,1626.233a.49.49,0,0,1-.485.484,6.589,6.589,0,0,0-1.8-.4,1.574,1.574,0,0,0-1.127.345c0-.354.01-.718.01-1.1a2.954,2.954,0,0,1,1.109-.2,5.508,5.508,0,0,1,2,.429A.5.5,0,0,1,2520.835,1626.233Z" transform="translate(-2517.425 -1625.366)" fill="#f2f1ec"/>
          </g>
          <g id="Grupo_994950" data-name="Grupo 994950" transform="translate(8.103 13.219)">
            <path id="Trazado_651259" data-name="Trazado 651259" d="M2520.545,1637.07a.48.48,0,0,1-.484.475,6.832,6.832,0,0,0-1.8-.391,1.557,1.557,0,0,0-1.211.41c.019-.363.028-.746.037-1.137a2.9,2.9,0,0,1,1.174-.224,5.285,5.285,0,0,1,1.994.428A.488.488,0,0,1,2520.545,1637.07Z" transform="translate(-2517.051 -1636.203)" fill="#f2f1ec"/>
          </g>
          <g id="Grupo_994951" data-name="Grupo 994951" transform="translate(7.954 16.21)">
            <path id="Trazado_651260" data-name="Trazado 651260" d="M2519.723,1650.4a.488.488,0,0,1-.485.484,6.829,6.829,0,0,0-1.8-.391,1.679,1.679,0,0,0-1.053.28c.019-.345.037-.708.065-1.09a3.1,3.1,0,0,1,.988-.149,5.209,5.209,0,0,1,1.994.438A.474.474,0,0,1,2519.723,1650.4Z" transform="translate(-2516.387 -1649.532)" fill="#f2f1ec"/>
          </g>
        </g>
        <path id="Trazado_651261" data-name="Trazado 651261" d="M2305.667,1152.909s-6.284-.986-8.975-1.1-14.92,7.723-14.92,7.723h5.149l2.984-1.58a2.05,2.05,0,0,0,1.4.468,12.546,12.546,0,0,0,3.335-1.079c.176-.091,5.207,2.191,5.207,2.191h8.334Z" transform="translate(-2201.877 -1063.865)" fill="#f6a88a"/>
        <path id="Trazado_651262" data-name="Trazado 651262" d="M1947.908,806.23s-3.96-6.265-5.677-6.265-16.07-9.205-16.07-8.737-.936,2.34,0,3.744,9.205,6.4,9.205,6.4-2.34,3.12-2.5,4.213,2.452,8.592,3.957,8.2,7.522,1.107,7.522,1.107Z" transform="translate(-1925.745 -784.19)" fill="#f6a88a"/>
        <path id="Trazado_651263" data-name="Trazado 651263" d="M1990.748,863.019s-1.833-.78-2.067-.819.039,1.248-.7,1.911-2.847-.956-2.847-.956a6.664,6.664,0,0,0,2.106,1.619c.858.234,1.459-2.106,1.677-2.262S1990.748,863.019,1990.748,863.019Z" transform="translate(-1971.804 -839.248)" fill="#e17b6b"/>
        <path id="Trazado_651264" data-name="Trazado 651264" d="M2167,782.56l-5.1-5.134h5.773l2.734-12.224-38.04-5.277,4.254,17.987,21.147-.608Z" transform="translate(-2086 -759.925)" fill="#85b6c5"/>
        <g id="Grupo_994953" data-name="Grupo 994953" transform="translate(51.941 6.52)">
          <path id="Trazado_651265" data-name="Trazado 651265" d="M2164.92,795.192c-3.117,0-7.49-2.444-7.714-2.57l.459-.812c1.712.967,6.592,3.244,8.575,2.185a1.769,1.769,0,0,0,.644-.572c-1.043-.49-2.446-1.335-2.649-2.389a1.393,1.393,0,0,1,.437-1.29,1.679,1.679,0,0,1,1.857-.508,3.058,3.058,0,0,1,1.632,2.7,3.5,3.5,0,0,1-.072.985,12.579,12.579,0,0,0,6.386.885,6.467,6.467,0,0,0,.7-.189,3.263,3.263,0,0,1-.74-2.888,2.136,2.136,0,0,1,1.224-1.7,1.124,1.124,0,0,1,1.146.306,3.262,3.262,0,0,1,1,3.095,2.5,2.5,0,0,1-.534.972c1.741-.239,4.557-1.928,6.314-3.246l.559.746c-.6.453-5.523,4.074-8.028,3.342a6.433,6.433,0,0,1-1.451.478,13.514,13.514,0,0,1-6.919-.93,2.72,2.72,0,0,1-1.071,1.025A3.737,3.737,0,0,1,2164.92,795.192Zm11.062-5.279a.153.153,0,0,0-.042.007,1.359,1.359,0,0,0-.59,1,2.355,2.355,0,0,0,.711,2.262l.023.019a1.836,1.836,0,0,0,.829-1.025,2.353,2.353,0,0,0-.748-2.167A.278.278,0,0,0,2175.981,789.913Zm-10,.152a.944.944,0,0,0-.654.338.478.478,0,0,0-.181.456c.072.373.659,1.019,2.06,1.688a2.779,2.779,0,0,0,.021-.547,2.23,2.23,0,0,0-1.03-1.892A.58.58,0,0,0,2165.983,790.066Z" transform="translate(-2157.206 -788.98)" fill="#fff"/>
        </g>
      </g>
      <g id="table" transform="translate(304.551 374.783)">
        <rect id="Rectángulo_302402" data-name="Rectángulo 302402" width="4.375" height="95.097" transform="translate(291.734)" fill="#2b2b2b"/>
        <rect id="Rectángulo_302403" data-name="Rectángulo 302403" width="8.75" height="36.285" transform="translate(282.983 74.197)" fill="#548391"/>
        <rect id="Rectángulo_302404" data-name="Rectángulo 302404" width="37.554" height="3.862" transform="translate(280.613 109.616)" fill="#2b2b2b"/>
        <rect id="Rectángulo_302405" data-name="Rectángulo 302405" width="29.594" height="3.862" transform="translate(361.796 109.587)" fill="#2b2b2b"/>
        <rect id="Rectángulo_302406" data-name="Rectángulo 302406" width="12.153" height="109.461" transform="translate(75.704 117.86)" fill="#2b2b2b"/>
        <rect id="Rectángulo_302407" data-name="Rectángulo 302407" width="12.153" height="109.461" transform="translate(319.953 117.86)" fill="#2b2b2b"/>
        <rect id="Rectángulo_302408" data-name="Rectángulo 302408" width="406.999" height="6.513" transform="translate(0 113.484)" fill="#c8a386"/>
        <g id="Grupo_994954" data-name="Grupo 994954" transform="translate(146.683 78.122)">
          <rect id="Rectángulo_302409" data-name="Rectángulo 302409" width="82.73" height="1.418" transform="translate(0 34.164)" fill="#225081"/>
          <path id="Trazado_651266" data-name="Trazado 651266" d="M1410.158,1062.965h-49.011l14.388-34.165h49.011Z" transform="translate(-1327.442 -1028.801)" fill="#225081"/>
          <path id="Trazado_651267" data-name="Trazado 651267" d="M1361.146,1062.965l63.4-34.165-14.388,34.165Z" transform="translate(-1327.442 -1028.801)" fill="#243c57"/>
          <path id="Trazado_651268" data-name="Trazado 651268" d="M1499.92,1095.462c-1.443,1.826-3.76,2.4-5.175,1.28s-1.395-3.506.048-5.332,3.76-2.4,5.176-1.28S1501.363,1093.636,1499.92,1095.462Z" transform="translate(-1430.247 -1075.924)" fill="#f1f0eb"/>
        </g>
        <g id="Grupo_994971" data-name="Grupo 994971" transform="translate(240.899 64.159)">
          <g id="Grupo_994955" data-name="Grupo 994955" transform="translate(0 26.628)">
            <path id="Trazado_651269" data-name="Trazado 651269" d="M1638.723,1085.865c2.175-.014,2.7-.626,2.7-.626s-.422,8.535-.422,8.893,4.481,4.9,4.838,5.26-1.494,5.325-2.4,6.656a21.174,21.174,0,0,1-2.11,2.545l-6.333.1a22.137,22.137,0,0,1-1.915-2.876,31.7,31.7,0,0,1-2.273-7.15c.033-.35,5.455-3.459,5.877-4.843s-.52-8.236-.52-8.236A5.96,5.96,0,0,0,1638.723,1085.865Z" transform="translate(-1630.799 -1085.239)" fill="#f3b681" fill-rule="evenodd"/>
          </g>
          <g id="Grupo_994956" data-name="Grupo 994956" transform="translate(5.358 26.548)">
            <path id="Trazado_651270" data-name="Trazado 651270" d="M1654.677,1085.317c1.754-.682,5.26-.352,5.26-.352A6.272,6.272,0,0,1,1654.677,1085.317Z" transform="translate(-1654.677 -1084.885)" fill="#243c57" fill-rule="evenodd"/>
          </g>
          <g id="Grupo_994957" data-name="Grupo 994957" transform="translate(6.358 0.554)">
            <path id="Trazado_651271" data-name="Trazado 651271" d="M1660.357,995.594s-.66-9.1-1.049-14.785a97.144,97.144,0,0,1,0-11.485.305.305,0,0,1,.311-.272.292.292,0,0,1,.272.312,97.137,97.137,0,0,0,0,11.405c.389,5.688,1.049,14.782,1.049,14.782Z" transform="translate(-1659.134 -969.051)" fill="#e27c6b"/>
          </g>
          <g id="Grupo_994958" data-name="Grupo 994958" transform="translate(8.216 11.687)">
            <path id="Trazado_651272" data-name="Trazado 651272" d="M1667.7,1034.342h-.01a.292.292,0,0,1-.282-.3c0-.1.407-9.936,7.221-15.315a.293.293,0,0,1,.363.459c-6.6,5.212-7,14.78-7,14.877A.292.292,0,0,1,1667.7,1034.342Z" transform="translate(-1667.41 -1018.662)" fill="#e27c6b"/>
          </g>
          <g id="Grupo_994959" data-name="Grupo 994959" transform="translate(4.181 6.012)">
            <path id="Trazado_651273" data-name="Trazado 651273" d="M1651.625,995.747c-1.191-.52-2.4-1.58-2.165-2.251S1651.928,995.119,1651.625,995.747Z" transform="translate(-1649.431 -993.374)" fill="#e27c6b" fill-rule="evenodd"/>
          </g>
          <g id="Grupo_994960" data-name="Grupo 994960" transform="translate(6.874 5.852)">
            <path id="Trazado_651274" data-name="Trazado 651274" d="M1661.43,995.018s.39-2.295,1.277-2.359S1662.014,995.949,1661.43,995.018Z" transform="translate(-1661.43 -992.658)" fill="#e27c6b" fill-rule="evenodd"/>
          </g>
          <g id="Grupo_994961" data-name="Grupo 994961" transform="translate(4.658 4.022)">
            <path id="Trazado_651275" data-name="Trazado 651275" d="M1653.3,986.918s-.916-2.619-1.608-2.4S1653.135,988,1653.3,986.918Z" transform="translate(-1651.556 -984.502)" fill="#e27c6b" fill-rule="evenodd"/>
          </g>
          <g id="Grupo_994962" data-name="Grupo 994962" transform="translate(6.766 2.692)">
            <path id="Trazado_651276" data-name="Trazado 651276" d="M1660.948,981.9s.52-3.3,1.364-3.32S1661.446,982.469,1660.948,981.9Z" transform="translate(-1660.948 -978.578)" fill="#e27c6b" fill-rule="evenodd"/>
          </g>
          <g id="Grupo_994963" data-name="Grupo 994963" transform="translate(4.858 1.359)">
            <path id="Trazado_651277" data-name="Trazado 651277" d="M1654.094,974.642s-1.147-2.468-1.58-1.927S1653.85,975.771,1654.094,974.642Z" transform="translate(-1652.446 -972.637)" fill="#e27c6b" fill-rule="evenodd"/>
          </g>
          <g id="Grupo_994964" data-name="Grupo 994964" transform="translate(6.874)">
            <path id="Trazado_651278" data-name="Trazado 651278" d="M1661.43,968.429s.5-2.121,1.486-1.818S1661.5,969.055,1661.43,968.429Z" transform="translate(-1661.43 -966.581)" fill="#e27c6b" fill-rule="evenodd"/>
          </g>
          <g id="Grupo_994965" data-name="Grupo 994965" transform="translate(11.472 13.797)">
            <path id="Trazado_651279" data-name="Trazado 651279" d="M1682.171,1030.337c.5-.388.5-2.251.173-2.273S1681.672,1030.725,1682.171,1030.337Z" transform="translate(-1681.921 -1028.063)" fill="#e27c6b" fill-rule="evenodd"/>
          </g>
          <g id="Grupo_994966" data-name="Grupo 994966" transform="translate(12.033 15.633)">
            <path id="Trazado_651280" data-name="Trazado 651280" d="M1684.451,1036.857c.411-.483,1.716-.823,1.91-.455S1684.12,1037.4,1684.451,1036.857Z" transform="translate(-1684.42 -1036.247)" fill="#e27c6b" fill-rule="evenodd"/>
          </g>
          <g id="Grupo_994967" data-name="Grupo 994967" transform="translate(12.667 12.38)">
            <path id="Trazado_651281" data-name="Trazado 651281" d="M1687.469,1023.816s.516-1.862.117-2.056S1687.123,1024.27,1687.469,1023.816Z" transform="translate(-1687.245 -1021.749)" fill="#e27c6b" fill-rule="evenodd"/>
          </g>
          <g id="Grupo_994968" data-name="Grupo 994968" transform="translate(13.534 13.765)">
            <path id="Trazado_651282" data-name="Trazado 651282" d="M1691.116,1028.5c.477-.476,1.732-.8,1.775-.378S1690.977,1029.029,1691.116,1028.5Z" transform="translate(-1691.109 -1027.922)" fill="#e27c6b" fill-rule="evenodd"/>
          </g>
          <g id="Grupo_994969" data-name="Grupo 994969" transform="translate(13.906 11.042)">
            <path id="Trazado_651283" data-name="Trazado 651283" d="M1693.117,1017.7c.564.067.5-2.035,0-1.905S1692.685,1017.873,1693.117,1017.7Z" transform="translate(-1692.768 -1015.787)" fill="#e27c6b" fill-rule="evenodd"/>
          </g>
          <g id="Grupo_994970" data-name="Grupo 994970" transform="translate(14.872 12.38)">
            <path id="Trazado_651284" data-name="Trazado 651284" d="M1697.084,1022.284c.3-.4,1.774-.726,1.926-.4S1696.89,1022.858,1697.084,1022.284Z" transform="translate(-1697.073 -1021.75)" fill="#e27c6b" fill-rule="evenodd"/>
          </g>
        </g>
      </g>
    </g>
  </g>
</svg>
