<svg xmlns="http://www.w3.org/2000/svg" xmlns:xlink="http://www.w3.org/1999/xlink" width="1240" height="241" viewBox="0 0 1240 241">
  <defs>
    <clipPath id="clip-path">
      <rect id="Rectángulo_295115" data-name="Rectángulo 295115" width="1240" height="241" rx="23" transform="translate(180 402)" fill="#fff" stroke="#707070" stroke-width="1"/>
    </clipPath>
  </defs>
  <g id="Grupo_1000269" data-name="Grupo 1000269" transform="translate(-180 -485)">
    <g id="Grupo_1000268" data-name="Grupo 1000268">
      <g id="Enmascarar_grupo_109" data-name="Enmascarar grupo 109" transform="translate(0 83)" clip-path="url(#clip-path)">
        <g id="Grupo_881626" data-name="Grupo 881626" transform="translate(180 398.928)">
          <g id="Grupo_881625" data-name="Grupo 881625" transform="translate(0 0)">
            <path id="Trazado_624578" data-name="Trazado 624578" d="M0,0H1240V244.148H0Z" transform="translate(1240 244.148) rotate(180)" fill="#222b5a"/>
          </g>
        </g>
      </g>
      <g id="Grupo_881629" data-name="Grupo 881629" transform="translate(-382.236 274.26)">
        <g id="Grupo_876760" data-name="Grupo 876760">
          <path id="Trazado_126014" data-name="Trazado 126014" d="M585.055,409.486h0a4.5,4.5,0,0,1,6.371,0L604.99,423.05a4.505,4.505,0,0,1,0,6.371h0a4.505,4.505,0,0,1-6.371,0l-13.564-13.564A4.506,4.506,0,0,1,585.055,409.486Z" fill="#727997"/>
          <path id="Trazado_126015" data-name="Trazado 126015" d="M604.99,409.486h0a4.505,4.505,0,0,1,0,6.371l-13.564,13.564a4.506,4.506,0,0,1-6.371,0h0a4.506,4.506,0,0,1,0-6.371l13.564-13.564A4.5,4.5,0,0,1,604.99,409.486Z" fill="#727997"/>
        </g>
        <g id="Grupo_876767" data-name="Grupo 876767">
          <g id="Grupo_876763" data-name="Grupo 876763">
            <g id="Grupo_876761" data-name="Grupo 876761">
              <circle id="Elipse_5013" data-name="Elipse 5013" cx="3.156" cy="3.156" r="3.156" transform="translate(653.207 407.914)" fill="#727997"/>
              <path id="Trazado_126016" data-name="Trazado 126016" d="M659.519,427.559a3.156,3.156,0,1,1-3.156-3.156A3.156,3.156,0,0,1,659.519,427.559Z" fill="#727997"/>
              <circle id="Elipse_5014" data-name="Elipse 5014" cx="3.156" cy="3.156" r="3.156" transform="translate(669.266 407.914)" fill="#727997"/>
              <path id="Trazado_126017" data-name="Trazado 126017" d="M675.577,427.559a3.156,3.156,0,1,1-3.156-3.156A3.156,3.156,0,0,1,675.577,427.559Z" fill="#727997"/>
            </g>
            <g id="Grupo_876762" data-name="Grupo 876762">
              <circle id="Elipse_5015" data-name="Elipse 5015" cx="3.156" cy="3.156" r="3.156" transform="translate(620.7 407.914)" fill="#727997"/>
              <path id="Trazado_126018" data-name="Trazado 126018" d="M627.012,427.559a3.156,3.156,0,1,1-3.156-3.156A3.156,3.156,0,0,1,627.012,427.559Z" fill="#727997"/>
              <circle id="Elipse_5016" data-name="Elipse 5016" cx="3.156" cy="3.156" r="3.156" transform="translate(636.759 407.914)" fill="#727997"/>
              <path id="Trazado_126019" data-name="Trazado 126019" d="M643.071,427.559a3.156,3.156,0,1,1-3.156-3.156A3.156,3.156,0,0,1,643.071,427.559Z" fill="#727997"/>
            </g>
          </g>
          <g id="Grupo_876766" data-name="Grupo 876766">
            <g id="Grupo_876764" data-name="Grupo 876764">
              <circle id="Elipse_5017" data-name="Elipse 5017" cx="3.156" cy="3.156" r="3.156" transform="translate(718.158 407.914)" fill="#727997"/>
              <path id="Trazado_126020" data-name="Trazado 126020" d="M724.47,427.559a3.156,3.156,0,1,1-3.156-3.156A3.156,3.156,0,0,1,724.47,427.559Z" fill="#727997"/>
              <path id="Trazado_126021" data-name="Trazado 126021" d="M740.529,411.07a3.156,3.156,0,1,1-3.156-3.156A3.156,3.156,0,0,1,740.529,411.07Z" fill="#727997"/>
              <path id="Trazado_126022" data-name="Trazado 126022" d="M740.529,427.559a3.156,3.156,0,1,1-3.156-3.156A3.156,3.156,0,0,1,740.529,427.559Z" fill="#727997"/>
            </g>
            <g id="Grupo_876765" data-name="Grupo 876765">
              <circle id="Elipse_5018" data-name="Elipse 5018" cx="3.156" cy="3.156" r="3.156" transform="translate(685.652 407.914)" fill="#727997"/>
              <path id="Trazado_126023" data-name="Trazado 126023" d="M691.964,427.559a3.156,3.156,0,1,1-3.156-3.156A3.156,3.156,0,0,1,691.964,427.559Z" fill="#727997"/>
              <circle id="Elipse_5019" data-name="Elipse 5019" cx="3.156" cy="3.156" r="3.156" transform="translate(701.71 407.914)" fill="#727997"/>
              <path id="Trazado_126024" data-name="Trazado 126024" d="M708.022,427.559a3.156,3.156,0,1,1-3.156-3.156A3.156,3.156,0,0,1,708.022,427.559Z" fill="#727997"/>
            </g>
          </g>
        </g>
      </g>
    </g>
  </g>
</svg>
