<svg xmlns="http://www.w3.org/2000/svg" width="264.044" height="233.667" viewBox="0 0 264.044 233.667">
  <g id="Grupo_998143" data-name="Grupo 998143" transform="translate(-25.709 -50.522)">
    <g id="Grupo_998108" data-name="Grupo 998108" transform="translate(242.424 175.583)">
      <g id="Grupo_998107" data-name="Grupo 998107" transform="translate(0)">
        <path id="Trazado_653384" data-name="Trazado 653384" d="M392.324,263.224l-.08-1.149s.512-.035,1.371-.033,2.091.031,3.559.141a53.939,53.939,0,0,1,10.6,1.893,49.821,49.821,0,0,1,9.989,4.034,33.851,33.851,0,0,1,3.072,1.794l1.128.743-.646.954-1.1-.724a32.73,32.73,0,0,0-3-1.751,48.668,48.668,0,0,0-9.76-3.942,52.785,52.785,0,0,0-10.375-1.852c-1.434-.108-2.633-.148-3.467-.138S392.324,263.224,392.324,263.224Z" transform="translate(-392.244 -262.04)" fill="#108f6e"/>
      </g>
      <path id="Trazado_653385" data-name="Trazado 653385" d="M443.33,282.312a4.336,4.336,0,0,1-1.592-2.6,3.617,3.617,0,0,1,.483-2.807,3.157,3.157,0,0,1,2.564-1.343,5.22,5.22,0,0,1,3.244,1.191,5.022,5.022,0,0,1,1.7,3.014,3.082,3.082,0,0,1-.862,2.719,3.7,3.7,0,0,1-2.72.978A4.511,4.511,0,0,1,443.33,282.312Z" transform="translate(-412.44 -267.566)" fill="#fce300"/>
      <path id="Trazado_653386" data-name="Trazado 653386" d="M442.981,279.122a8.2,8.2,0,0,0,1.115.434,5.725,5.725,0,0,0,2.19.379,4.379,4.379,0,0,0-.658-2.2,8.343,8.343,0,0,0-.731-1.015,7.082,7.082,0,0,0,2.591-1.272,5.355,5.355,0,0,0,.9-.863,9.183,9.183,0,0,0-3.5-1.064,5.845,5.845,0,0,0-2.559.41,5.435,5.435,0,0,0-2.046,1.353,6.772,6.772,0,0,0-.482,2.383,8.422,8.422,0,0,0,.3,2.383,7.453,7.453,0,0,0,1.355,2.746,6.09,6.09,0,0,0,.711-1.011A6,6,0,0,0,442.981,279.122Z" transform="translate(-411.68 -266.726)" fill="#108f6e"/>
    </g>
    <ellipse id="Elipse_5892" data-name="Elipse 5892" cx="118.324" cy="9.927" rx="118.324" ry="9.927" transform="translate(41.727 264.335)" fill="#ededed" opacity="0.35"/>
    <g id="Grupo_998110" data-name="Grupo 998110" transform="translate(36.66 165.966)">
      <g id="Grupo_998109" data-name="Grupo 998109" transform="translate(9.726 4.001)">
        <path id="Trazado_653387" data-name="Trazado 653387" d="M93.869,256.783l-.42,1.165s-.472-.17-1.338-.437-2.1-.634-3.607-1.016a89.33,89.33,0,0,0-11.188-2.111,82.613,82.613,0,0,0-11.357-.592c-1.548.079-2.843.087-3.741.186l-1.413.14-.124-1.232,1.441-.143c.916-.1,2.233-.111,3.809-.189a83.745,83.745,0,0,1,11.536.6,90.686,90.686,0,0,1,11.344,2.14c1.528.388,2.79.757,3.67,1.034S93.869,256.783,93.869,256.783Z" transform="translate(-60.68 -252.542)" fill="#179587"/>
      </g>
      <path id="Trazado_653388" data-name="Trazado 653388" d="M48.183,248.814a5.483,5.483,0,0,1,3.626.569,3.537,3.537,0,0,1,1.718,2.609,3.7,3.7,0,0,1-1.005,2.879,4.8,4.8,0,0,1-2.9,1.636,6.529,6.529,0,0,1-1.72.048,4.618,4.618,0,0,1-1.552-.493,3.93,3.93,0,0,1-2-2.367,3.351,3.351,0,0,1,.659-3,5.011,5.011,0,0,1,1.337-1.18A4.824,4.824,0,0,1,48.183,248.814Z" transform="translate(-44.231 -246.982)" fill="#f1b62b"/>
      <path id="Trazado_653389" data-name="Trazado 653389" d="M51.85,249.607a8.971,8.971,0,0,0-1.211.576,4.572,4.572,0,0,0-1.786,1.683,6.387,6.387,0,0,0,2.254.83,8.72,8.72,0,0,0,1.278.168,6.6,6.6,0,0,0-.653,2.943,6.486,6.486,0,0,0,.127,1.325,8.35,8.35,0,0,0,2.769-1.9,7.6,7.6,0,0,0,1.54-2.088,7.126,7.126,0,0,0,.759-2.512,5.919,5.919,0,0,0-1.242-2.314,7.069,7.069,0,0,0-2.176-1.72,9.619,9.619,0,0,0-3.78-.827,5.809,5.809,0,0,0,.382,1.283A7.456,7.456,0,0,0,51.85,249.607Z" transform="translate(-46.12 -245.774)" fill="#179587"/>
    </g>
    <path id="Trazado_653390" data-name="Trazado 653390" d="M244.236,109.021s-9.585-4.744-11.262-15.167,14.96-14.376,21.856,2.875c0,0-1.25-18.69,10.131-20.726s9.544,20.7,6.09,24.309c0,0,4.781-3.463,9.469-.588s3.175,14.137-11.943,17.132A26.47,26.47,0,0,1,244.236,109.021Z" transform="translate(-84.074 -10.791)" fill="#f1b62b"/>
    <path id="Trazado_653391" data-name="Trazado 653391" d="M264.56,128.24a74.047,74.047,0,0,0-7.531-12.217l.264-.2a74.453,74.453,0,0,1,7.57,12.283Z" transform="translate(-94.551 -26.69)" fill="#fff"/>
    <rect id="Rectángulo_302472" data-name="Rectángulo 302472" width="23.325" height="0.332" transform="matrix(0.17, -0.985, 0.985, 0.17, 177.916, 100.537)" fill="#fff"/>
    <path id="Trazado_653392" data-name="Trazado 653392" d="M122.792,160.763s-3.949-8.66-12.092-8.658-9.323,8.6-4.56,14.985A33.792,33.792,0,0,0,87.084,162.1c-11.238.434-19.544,8.74-17.1,18.023s14.984,11.4,18.567,10.423c0,0-12.378,8.795-7.492,16.775s20.2,0,20.2,0Z" transform="translate(-17.922 -41.521)" fill="#ee4e5d"/>
    <path id="Trazado_653393" data-name="Trazado 653393" d="M117.228,199.956c-.14-.058-14-5.772-21.082-6.476l.066-.661c7.182.714,21.131,6.465,21.271,6.523Z" transform="translate(-28.791 -58.163)" fill="#fff"/>
    <path id="Trazado_653394" data-name="Trazado 653394" d="M96.262,201.573l-.393-.536c2.781-2.039,8.269-4.081,8.5-4.167l.23.623C104.545,197.513,98.968,199.589,96.262,201.573Z" transform="translate(-28.678 -59.819)" fill="#fff"/>
    <path id="Trazado_653395" data-name="Trazado 653395" d="M119.577,195.433c-.078-.215-1.909-5.272-2.071-7.328l.662-.052c.154,1.967,2.014,7.1,2.032,7.153Z" transform="translate(-37.522 -56.215)" fill="#fff"/>
    <path id="Trazado_653396" data-name="Trazado 653396" d="M100.771,235.4l-.335-.574a38.427,38.427,0,0,1,12.428-4.849l.094.658A37.755,37.755,0,0,0,100.771,235.4Z" transform="translate(-30.544 -73.35)" fill="#fff"/>
    <path id="Trazado_653397" data-name="Trazado 653397" d="M146.516,174.723c-.219-.237-5.369-5.855-6.774-10.425l.636-.2c1.36,4.424,6.574,10.113,6.627,10.17Z" transform="translate(-46.611 -46.426)" fill="#fff"/>
    <g id="Grupo_998111" data-name="Grupo 998111" transform="translate(25.709 176.193)">
      <path id="Trazado_653398" data-name="Trazado 653398" d="M65.289,267.6l-.546-4.049a52.124,52.124,0,0,0-25.634,2.936l-.243,2.87L37.486,267.2q-1.371.631-2.632,1.361l.87,5.3-3.17-3.824a17.741,17.741,0,0,0-5.6,6.17,11.108,11.108,0,0,0-1.007,7.444,12.133,12.133,0,0,0,2.966,5.806,14.4,14.4,0,0,0,2.474,2.145,18.239,18.239,0,0,0,3.051,1.682c4.4,1.929,10.141,2.636,16.333,2.183l1.467-4.656,2.042,4.284c1.4-.2,2.82-.454,4.235-.769l-.394-2.788,2.317,2.33q.82-.209,1.639-.445c9.8-2.834,15.992-7.484,19.725-11.454a25.374,25.374,0,0,0,5.013-7.245s-5.632-7.953-19.478-10.729Z" transform="translate(-25.709 -263.071)" fill="#f1b62b"/>
    </g>
    <rect id="Rectángulo_302473" data-name="Rectángulo 302473" width="46.39" height="0.664" transform="translate(36.719 196.165) rotate(-10.695)" fill="#fff"/>
    <path id="Trazado_653399" data-name="Trazado 653399" d="M63.476,290.48c-3.249-.189-9.687-3-9.96-3.116l.267-.609c.066.029,6.6,2.881,9.731,3.062Z" transform="translate(-11.366 -96.559)" fill="#fff"/>
    <path id="Trazado_653400" data-name="Trazado 653400" d="M74.336,296.992l-.644-.161c.695-2.778,4.288-6.488,4.442-6.645l.475.464C78.573,290.688,74.987,294.389,74.336,296.992Z" transform="translate(-19.613 -97.962)" fill="#fff"/>
    <path id="Trazado_653401" data-name="Trazado 653401" d="M95.21,283.572c-3.728-.854-7.624-4.8-7.788-4.968l.475-.464c.038.04,3.924,3.974,7.461,4.785Z" transform="translate(-25.225 -93.038)" fill="#fff"/>
    <g id="Grupo_998112" data-name="Grupo 998112" transform="translate(230.897 197.302)">
      <path id="Trazado_653402" data-name="Trazado 653402" d="M390.034,321.455l-.873,3.89a50.823,50.823,0,0,0,24.448,6L414.8,328.8l.53,2.447q1.469-.113,2.869-.354l1-5.148,1.6,4.573a17.31,17.31,0,0,0,7.209-3.75,10.832,10.832,0,0,0,3.443-6.469,11.827,11.827,0,0,0-.746-6.318,14,14,0,0,0-1.536-2.8,17.786,17.786,0,0,0-2.222-2.572c-3.375-3.257-8.385-5.848-14.2-7.531l-2.92,3.763-.417-4.612c-1.349-.29-2.734-.54-4.136-.731l-.584,2.684-1.33-2.917q-.822-.086-1.651-.148c-9.929-.729-17.167,1.428-21.927,3.8a24.758,24.758,0,0,0-7.041,4.93s2.458,9.185,14.186,16.416Z" transform="translate(-372.747 -298.773)" fill="#f1b62b"/>
    </g>
    <rect id="Rectángulo_302474" data-name="Rectángulo 302474" width="0.665" height="45.261" transform="translate(234.931 207.966) rotate(-80.349)" fill="#fff"/>
    <path id="Trazado_653403" data-name="Trazado 653403" d="M437.361,330.959c-.05-.048-5.063-4.871-7.863-6.1l.265-.609c2.91,1.273,7.85,6.026,8.059,6.228Z" transform="translate(-165.047 -111.887)" fill="#fff"/>
    <path id="Trazado_653404" data-name="Trazado 653404" d="M418.859,319.806l-.286-.6c.046-.022,4.578-2.192,6.054-4.352l.549.375C423.6,317.537,419.051,319.715,418.859,319.806Z" transform="translate(-160.581 -108.044)" fill="#fff"/>
    <path id="Trazado_653405" data-name="Trazado 653405" d="M404.934,326.71c-.022-.049-2.243-4.964-5.2-6.9l.365-.556c3.124,2.046,5.351,6.979,5.444,7.187Z" transform="translate(-152.88 -109.842)" fill="#fff"/>
    <g id="Grupo_998113" data-name="Grupo 998113" transform="translate(207.308 250.007)">
      <rect id="Rectángulo_302475" data-name="Rectángulo 302475" width="24.39" height="1.4" transform="translate(0 22.761) rotate(-68.946)" fill="#fff"/>
    </g>
    <g id="Grupo_998114" data-name="Grupo 998114" transform="translate(216.07 250.007)">
      <rect id="Rectángulo_302476" data-name="Rectángulo 302476" width="1.4" height="24.39" transform="translate(0 0.503) rotate(-21.054)" fill="#fff"/>
    </g>
    <g id="Grupo_998115" data-name="Grupo 998115" transform="translate(213.069 259.048)">
      <rect id="Rectángulo_302477" data-name="Rectángulo 302477" width="7.572" height="1.399" transform="translate(0)" fill="#fff"/>
    </g>
    <g id="Grupo_998116" data-name="Grupo 998116" transform="translate(211.329 264.051)">
      <rect id="Rectángulo_302478" data-name="Rectángulo 302478" width="10.972" height="1.399" fill="#fff"/>
    </g>
    <path id="Trazado_653406" data-name="Trazado 653406" d="M86.8,425.787a5.32,5.32,0,0,0,.79,1.625,13.665,13.665,0,0,1,1.557,2.2c.106.427-.406.811-.9.64a36.37,36.37,0,0,1-4.864-2.411c-.832-.64-1.067-.875-1.046-1.025a25.925,25.925,0,0,1,1.329-2.374C83.966,424,86.185,424.012,86.8,425.787Z" transform="translate(-23.149 -152.738)" fill="#ee4e5d"/>
    <path id="Trazado_653407" data-name="Trazado 653407" d="M103.1,418.469a5.319,5.319,0,0,0,1.47,1.05,13.643,13.643,0,0,1,2.419,1.186c.3.323.031.906-.481.99a36.421,36.421,0,0,1-5.425.208c-1.037-.164-1.355-.258-1.408-.4a25.759,25.759,0,0,1,.032-2.721C99.75,418.254,101.706,417.206,103.1,418.469Z" transform="translate(-30.222 -150.152)" fill="#ee4e5d"/>
    <path id="Trazado_653408" data-name="Trazado 653408" d="M103.26,366.012s1.711,11.451,1.781,14.448-1.781,16.869-1.781,16.869H99.647s.352-6.759.352-7.818-.352-10.286-.352-10.286L100,366.38S102.112,365.083,103.26,366.012Z" transform="translate(-30.222 -128.818)" fill="#0e1a34"/>
    <path id="Trazado_653409" data-name="Trazado 653409" d="M88.357,366.476s-1.13,2.937-.778,8.991a70.556,70.556,0,0,0,.643,7.465s-4.052,15.753-4.581,17.634a8.621,8.621,0,0,0,3.938,1.469s4.291-10.58,5.819-14.342a23.7,23.7,0,0,0,1.983-9.7c.015-3.292.368-12.167.368-12.167Z" transform="translate(-23.679 -128.88)" fill="#0e1a34"/>
    <path id="Trazado_653410" data-name="Trazado 653410" d="M100.768,392.5l-.317-.1a44.132,44.132,0,0,0,1.72-12.8l.332,0A44.45,44.45,0,0,1,100.768,392.5Z" transform="translate(-30.551 -134.509)" fill="#fff"/>
    <path id="Trazado_653411" data-name="Trazado 653411" d="M101.98,356.855s-7.448-1.287-10.146-2.781-2.366-2.822-1.992-3.776,1.535-2.988,1.535-2.988l2.639,1.888-.067.588-.451,1.028s.861.546,2.161,1.268,6.591,3.148,6.591,3.148S103.538,356.292,101.98,356.855Z" transform="translate(-26.112 -121.311)" fill="#ff9a5c"/>
    <path id="Trazado_653412" data-name="Trazado 653412" d="M109.836,362.3a4.781,4.781,0,0,0,1.4,1.006c.058.5.349.716.511.7s.166-.775.166-.775c.145.348.716.7.793.484a1.262,1.262,0,0,0,0-.561s.232.309.407.309.387-.154.309-.542a3.735,3.735,0,0,0-.542-1.278c-.232-.309-.368-.619-.871-.736a8.325,8.325,0,0,0-1.258-.1,11.047,11.047,0,0,0-1.452,0Z" transform="translate(-34.169 -126.817)" fill="#ff9a5c"/>
    <path id="Trazado_653413" data-name="Trazado 653413" d="M91.185,322.373a3,3,0,0,0-3.789-1.341c-2.8.816-1.924,3.44-3.731,4.548s-4.489,1.69-5.189,4.78,1.457,3.323,0,5.189-1.982,3.206-.409,5.13,4.346,1.341,6.08.409,9.312-4.489,9.312-4.489a2.818,2.818,0,0,0,0-3.849,6.8,6.8,0,0,1-1.282-5.014s.641-.116.874-1.866S92.727,321.844,91.185,322.373Z" transform="translate(-21.009 -110.494)" fill="#753519"/>
    <path id="Trazado_653414" data-name="Trazado 653414" d="M331.57,75.192l.976-.707a29.9,29.9,0,0,0,8.831,6.856c5.481,2.763,7.361,3.817,7.86,3.908s2.854.5,3.669,1.54.906,1.631.724,1.676-1.087-1.268-1.087-1.268.906,1.169.815,1.605-.6-.309-.781-.491-.636-.709-.636-.709a7.186,7.186,0,0,1,1,1.635c.037.382-.6-.109-1.09-.654s-1.036-.8-1.163-.636-.181.836-.381.709-.236-.636-.328-1c-.323-.007-1.8-.539-4.46-1.071s-13.3-5.2-15.72-8.215S331.57,75.192,331.57,75.192Z" transform="translate(-123.987 -9.795)" fill="#ff9a5c"/>
    <g id="Grupo_998117" data-name="Grupo 998117" transform="translate(248.003 152.161)">
      <path id="Trazado_653415" data-name="Trazado 653415" d="M428.641,244.812h0a6.986,6.986,0,0,0,1.683-3.582,6.4,6.4,0,0,0-.85-3.75l.778.828c.46.5,1.1,1.146,1.7,1.834l2.258,2.85a8.173,8.173,0,0,0-1.816,3.627,6.736,6.736,0,0,0,.3,3.853h0a6.688,6.688,0,0,0,2.058-3.306,6.211,6.211,0,0,0,.168-1.906,5.307,5.307,0,0,0-.468-1.967l.393.5c.224.307.493.736.775,1.156l1.118,1.69a7.64,7.64,0,0,0,.3,2.047,6.973,6.973,0,0,0,.694,1.835,7.249,7.249,0,0,0,2.94,2.785h0a7.058,7.058,0,0,0-.765-4.014,6.3,6.3,0,0,0-1.2-1.612,7.691,7.691,0,0,0-1.808-1.144l-.7-1.057-.717-1.084-.4-.611-.468-.595-2.52-3.181a7.573,7.573,0,0,0,7.66.89h0a7.291,7.291,0,0,0-3.9-1.967,6.26,6.26,0,0,0-4.008.782l-2.5-2.658a23.07,23.07,0,0,0-1.812-1.732l-.845-.764a7.986,7.986,0,0,0,1.922.716,10.163,10.163,0,0,0,1.949.226,7.53,7.53,0,0,0,3.848-1.08h0a8.627,8.627,0,0,0-2.017-1.116,5.865,5.865,0,0,0-2.094-.355,6.463,6.463,0,0,0-3.9,1.349l-.845-.764L423.561,232a25.025,25.025,0,0,0-2.023-1.479l-.952-.626a8.067,8.067,0,0,0,2.015.419,7.4,7.4,0,0,0,1.941-.02,7.729,7.729,0,0,0,3.685-1.632h0a7.182,7.182,0,0,0-4.29-.886,6.512,6.512,0,0,0-3.675,1.906l-.953-.627c-.574-.371-1.385-.792-2.176-1.246l-1.168-.655-1.054-.5-1.029-.493a8.583,8.583,0,0,0,3.973-.179,7.737,7.737,0,0,0,3.412-2.146h0a8.81,8.81,0,0,0-2.282-.477,6.726,6.726,0,0,0-1.071.012,6.622,6.622,0,0,0-1.033.219,6.411,6.411,0,0,0-3.347,2.4l-.481-.229-1.3-.529c-1.067-.464-2.532-.971-4.006-1.449-1.485-.443-2.987-.833-4.131-1.047-1.139-.236-1.917-.311-1.917-.311l-.018.189s.539.057,1.344.2,1.87.382,2.928.65c1.049.3,2.1.587,2.871.874l1.291.442a8.226,8.226,0,0,0,.4,4.051,7.421,7.421,0,0,0,2.237,3.079h0a6.719,6.719,0,0,0,.041-3.907,6.02,6.02,0,0,0-2.319-3.089l1.052.427c.629.261,1.482.577,2.293.991.817.4,1.645.773,2.248,1.091l.99.556a7.88,7.88,0,0,0-.188,4.036,6.891,6.891,0,0,0,1.764,3.388h0a6.639,6.639,0,0,0,.6-3.843,6.166,6.166,0,0,0-.6-1.82,6.746,6.746,0,0,0-1.243-1.573l.99.556c.609.31,1.347.844,2.112,1.334a32.618,32.618,0,0,1,2.965,2.1,7.842,7.842,0,0,0-.768,3.967,7.225,7.225,0,0,0,1.259,3.623h0a6.73,6.73,0,0,0,1.15-3.734,5.833,5.833,0,0,0-.328-1.889,7.04,7.04,0,0,0-1.008-1.732l.9.694a22.656,22.656,0,0,1,1.9,1.622l1.855,1.676a7.8,7.8,0,0,1,.578.585l.214.228a8,8,0,0,0-1.34,3.85,6.393,6.393,0,0,0,.156,1.88A8.273,8.273,0,0,0,428.641,244.812Z" transform="translate(-401.679 -222.425)" fill="#ee4e5d"/>
    </g>
    <g id="Grupo_998118" data-name="Grupo 998118" transform="translate(53.417 80.294)">
      <path id="Trazado_653416" data-name="Trazado 653416" d="M86.455,112.092h0a8.278,8.278,0,0,0-2.359,4.052,7.524,7.524,0,0,0,.422,4.615l-.8-1.1c-.49-.649-1.1-1.542-1.7-2.445l-1.663-2.471c-.232-.334-.407-.623-.53-.827l-.194-.318a9.058,9.058,0,0,0,2.492-4.172,7.739,7.739,0,0,0,.24-2.291,8.859,8.859,0,0,0-.345-2.38h0A8.31,8.31,0,0,0,79.3,108.6a7.794,7.794,0,0,0,.091,4.616s-.629-1.03-1.259-2.059c-.31-.517-.639-1.025-.857-1.421l-.36-.662a8.735,8.735,0,0,0-.951-4.682,8.562,8.562,0,0,0-3.284-3.511h0a8.474,8.474,0,0,0,.623,4.842,8.137,8.137,0,0,0,3.416,3.462l.2.365c.124.234.3.565.547.947l1.732,2.833c.611,1.042,1.3,2.035,1.8,2.786l.843,1.252a9.082,9.082,0,0,0-4.2-2.13,8.8,8.8,0,0,0-4.732.349h0a9.9,9.9,0,0,0,2.035,1.722,7.586,7.586,0,0,0,2.289.916,8.045,8.045,0,0,0,4.866-.475l.76,1.123,1.757,2.412c1.254,1.771,2.612,3.465,2.612,3.465a9.25,9.25,0,0,0-2.1-1.229,8.059,8.059,0,0,0-2.214-.628,8.826,8.826,0,0,0-4.7.71h0a8.559,8.559,0,0,0,4.463,2.3,8.207,8.207,0,0,0,4.835-.795l.833,1.07c.491.649,1.185,1.483,1.876,2.319l1.9,2.3.888,1.025a8.5,8.5,0,0,0-9.052-.642h0a8.716,8.716,0,0,0,4.573,2.027,8.179,8.179,0,0,0,4.78-1.038l.888,1.024c.529.619,1.245,1.434,1.98,2.232l2,2.209.929.987a8.465,8.465,0,0,0-9.059-.225h0a8,8,0,0,0,9.375.561l1.582,1.674c.968.986,2.241,2.319,3.558,3.61s2.634,2.579,3.642,3.526,1.693,1.564,1.693,1.564l.151-.169s-1.929-1.746-3.789-3.569c-.938-.9-1.851-1.831-2.547-2.515l-1.139-1.162a8.693,8.693,0,0,0,1.51-4.615,8.425,8.425,0,0,0-1.266-4.618h0a7.847,7.847,0,0,0-.565,8.9s-1.519-1.547-2.995-3.134c-.749-.783-1.479-1.583-2.022-2.189l-.909-1a8.368,8.368,0,0,0,.646-9.205h0a7.828,7.828,0,0,0-.954,8.865l-.9-1.009-1.952-2.251c-.718-.812-1.408-1.647-1.922-2.276l-.861-1.045a8.783,8.783,0,0,0,1.914-4.455,8.282,8.282,0,0,0-.815-4.688h0a8.278,8.278,0,0,0-2.079,4.2,7.741,7.741,0,0,0,.686,4.593l-.861-1.045L87.4,124.59c-1.354-1.692-2.608-3.46-2.608-3.46a8.8,8.8,0,0,0,2.165-4.336A8.656,8.656,0,0,0,86.455,112.092Z" transform="translate(-72.572 -100.875)" fill="#179587"/>
    </g>
    <path id="Trazado_653417" data-name="Trazado 653417" d="M281.634,83.792a3.456,3.456,0,0,1-.84-.678,2.329,2.329,0,0,0-.521-.69,1.839,1.839,0,0,0-.824-.354,3.794,3.794,0,0,0,.672,1.357.334.334,0,0,0,.462-.047,4.5,4.5,0,0,0,.631,1.067S282.181,84.115,281.634,83.792Z" transform="translate(-103.715 -12.895)" fill="#ff9a5c"/>
    <path id="Trazado_653523" data-name="Trazado 653523" d="M84.516,0A84.516,84.516,0,1,1,0,84.516,84.516,84.516,0,0,1,84.516,0Z" transform="translate(75.808 98.506)" fill="#d2e1f1"/>
    <path id="Trazado_653418" data-name="Trazado 653418" d="M211.96,277.083a75.556,75.556,0,0,1-37.394-141.2,84.524,84.524,0,1,0,101.619,105.45A75.5,75.5,0,0,1,211.96,277.083Z" transform="translate(-34.635 -34.889)" fill="#b0c0d2"/>
    <path id="Trazado_653419" data-name="Trazado 653419" d="M292.742,84.893s-2.018,1.816-2.693,1.816-7.4-2.013-8.665-2.28-1.2.134-1.7.467,1.073,1.345,1.073,1.345,6,3.061,9.106,3.795,5.584-1.781,5.584-1.781A2.6,2.6,0,0,0,292.742,84.893Z" transform="translate(-103.77 -13.824)" fill="#ff9a5c"/>
    <path id="Trazado_653422" data-name="Trazado 653422" d="M279.114,83.556s-.607-.234-.849.18.762.766,1.618.681S279.971,83.708,279.114,83.556Z" transform="translate(-103.215 -13.475)" fill="#ff9a5c"/>
    <path id="Trazado_653423" data-name="Trazado 653423" d="M278.951,84.59a1.158,1.158,0,0,0-1.007.163c-.409.351.905.847,1.909.757S279.956,84.752,278.951,84.59Z" transform="translate(-103.069 -13.904)" fill="#ff9a5c"/>
    <path id="Trazado_653424" data-name="Trazado 653424" d="M310.2,167.7a5.967,5.967,0,0,1-.883,1.819,15.247,15.247,0,0,0-1.744,2.459c-.119.478.454.908,1,.717a40.732,40.732,0,0,0,5.444-2.7c.931-.716,1.194-.979,1.169-1.146a28.891,28.891,0,0,0-1.486-2.658C313.379,165.694,310.9,165.71,310.2,167.7Z" transform="translate(-115.205 -47.167)" fill="#636363"/>
    <path id="Trazado_653425" data-name="Trazado 653425" d="M278.841,85.563a.9.9,0,0,0-.892.194c-.364.375.8.886,1.693.79S280.113,85.626,278.841,85.563Z" transform="translate(-103.074 -14.304)" fill="#ff9a5c"/>
    <path id="Trazado_653427" data-name="Trazado 653427" d="M235.352,94.223h0a1.172,1.172,0,0,1-.528-.119,1.716,1.716,0,0,1-.929-1.138l-.03-.163.162-.03a2.873,2.873,0,0,1,.492-.037,3.4,3.4,0,0,1,2.162.736l.166.134-.171.128A2.571,2.571,0,0,1,235.352,94.223Zm-1.075-1.145a1.429,1.429,0,0,0,.7.729.843.843,0,0,0,.38.084,2,2,0,0,0,.935-.3,3.117,3.117,0,0,0-1.767-.522C234.426,93.069,234.344,93.073,234.277,93.078Z" transform="translate(-85.083 -17.255)" fill="#108f6e"/>
    <path id="Trazado_653428" data-name="Trazado 653428" d="M361.1,385.191H337.673l3.952-4.554H365.05Z" transform="translate(-127.514 -134.933)" fill="#179587"/>
    <path id="Trazado_653429" data-name="Trazado 653429" d="M228.588,93.049s-9.224,9.214-8,20.225h11.164s-2.756-13.617-.65-19.56A3.152,3.152,0,0,0,228.588,93.049Z" transform="translate(-79.612 -17.368)" fill="#9ae5e5" opacity="0.79"/>
    <path id="Trazado_653430" data-name="Trazado 653430" d="M303.464,105.609s-9.02,7.133-10.052,9.6,4.071,7.741,4.071,7.741,4.817,17.146,6.48,20.013a21.016,21.016,0,0,0,4.071-1.548s-1.606-15.483-2.351-17.547c0,0,11.7-10.944,13.706-14.188S304.856,104.483,303.464,105.609Z" transform="translate(-109.366 -22.385)" fill="#0e1a34"/>
    <path id="Trazado_653431" data-name="Trazado 653431" d="M320.309,151.5a5.955,5.955,0,0,1,.027,2.021,15.239,15.239,0,0,0-.455,2.98.715.715,0,0,0,1.218.19,40.689,40.689,0,0,0,3.655-4.854c.511-1.058.628-1.41.532-1.549a28.893,28.893,0,0,0-2.521-1.708C322.249,148.282,320.037,149.411,320.309,151.5Z" transform="translate(-120.234 -40.06)" fill="#636363"/>
    <path id="Trazado_653432" data-name="Trazado 653432" d="M300.111,128.1c-.116-3.815,6.26-9.958,6.53-10.217l.23.24c-.066.063-6.54,6.3-6.428,9.967Z" transform="translate(-112.16 -27.535)" fill="#fff"/>
    <path id="Trazado_653433" data-name="Trazado 653433" d="M301.564,134.692l11.116,10.124a24.664,24.664,0,0,0,2.43-3s-4.049-7.89-5.726-9.5S301.564,134.692,301.564,134.692Z" transform="translate(-112.755 -33.277)" fill="#0e1a34"/>
    <path id="Trazado_653434" data-name="Trazado 653434" d="M355.8,377.47a5.966,5.966,0,0,1-1.571,1.273,15.3,15.3,0,0,0-2.62,1.489c-.31.382.027,1.014.6,1.074a40.742,40.742,0,0,0,6.075-.138c1.147-.254,1.5-.381,1.546-.543a29.024,29.024,0,0,0-.221-3.037C359.53,377,357.273,375.965,355.8,377.47Z" transform="translate(-133.164 -133.32)" fill="#91b31e"/>
    <g id="Grupo_998121" data-name="Grupo 998121" transform="translate(135.05 76.97)">
      <g id="Grupo_998120" data-name="Grupo 998120" transform="translate(3.91 4.282)">
        <path id="Trazado_653435" data-name="Trazado 653435" d="M225,119.139l-.674.02s-.007-.263-.067-.75-.164-1.175-.335-2a30.1,30.1,0,0,0-1.956-5.85,33.1,33.1,0,0,0-3.041-5.38c-.456-.712-.911-1.252-1.2-1.647l-.472-.614.525-.423.481.625c.3.4.762.952,1.227,1.677a33.836,33.836,0,0,1,3.1,5.487,30.789,30.789,0,0,1,2,5.985c.176.846.291,1.558.346,2.063S225,119.139,225,119.139Z" transform="translate(-217.252 -102.496)" fill="#179587"/>
      </g>
      <path id="Trazado_653436" data-name="Trazado 653436" d="M214.529,96.165a2.339,2.339,0,0,1,.118,3.37,2.6,2.6,0,0,1-3.469-3.724C211.979,94.947,213.481,95.1,214.529,96.165Z" transform="translate(-210.639 -95.253)" fill="#f1b62b"/>
      <path id="Trazado_653437" data-name="Trazado 653437" d="M214.143,97.717a4.364,4.364,0,0,0-.613-.39,2.885,2.885,0,0,0-1.3-.325,2.876,2.876,0,0,0,.283,1.274,5.415,5.415,0,0,0,.294.643,3.711,3.711,0,0,0-2.118,1,4.5,4.5,0,0,0,3.122.818,3.765,3.765,0,0,0,1.362-.394,3.317,3.317,0,0,0,.695-1.264,4.257,4.257,0,0,0-.574-3.454A4.006,4.006,0,0,0,214.143,97.717Z" transform="translate(-210.659 -95.404)" fill="#ee4e5d"/>
    </g>
    <path id="Trazado_653438" data-name="Trazado 653438" d="M379.243,360.89a5.964,5.964,0,0,1-.276,2,15.274,15.274,0,0,0-.9,2.879.715.715,0,0,0,1.175.37,40.74,40.74,0,0,0,4.34-4.253c.663-.97.832-1.3.757-1.452a29.012,29.012,0,0,0-2.237-2.066C381.643,358,379.286,358.787,379.243,360.89Z" transform="translate(-144.026 -125.796)" fill="#91b31e"/>
    <g id="Grupo_998122" data-name="Grupo 998122" transform="translate(128.326 85.673)">
      <path id="Trazado_653439" data-name="Trazado 653439" d="M199.267,110.175a16.362,16.362,0,0,0,6.424,11.356c6.161,4.748,11.957,2.807,11.957,2.807s.4-6.1-5.763-10.846A16.36,16.36,0,0,0,199.267,110.175Z" transform="translate(-199.267 -109.973)" fill="#179587"/>
      <rect id="Rectángulo_302479" data-name="Rectángulo 302479" width="0.333" height="19.946" transform="translate(2.479 2.323) rotate(-52.384)" fill="#fff"/>
      <rect id="Rectángulo_302480" data-name="Rectángulo 302480" width="3.737" height="0.332" transform="matrix(1, -0.031, 0.031, 1, 4.519, 6.519)" fill="#fff"/>
      <rect id="Rectángulo_302481" data-name="Rectángulo 302481" width="0.332" height="3.737" transform="translate(6.118 2.081) rotate(-12.947)" fill="#fff"/>
      <rect id="Rectángulo_302482" data-name="Rectángulo 302482" width="3.737" height="0.332" transform="translate(8.584 9.652) rotate(-1.794)" fill="#fff"/>
      <rect id="Rectángulo_302483" data-name="Rectángulo 302483" width="0.332" height="3.737" transform="translate(10.183 5.214) rotate(-12.942)" fill="#fff"/>
      <rect id="Rectángulo_302484" data-name="Rectángulo 302484" width="3.737" height="0.332" transform="translate(12.65 12.784) rotate(-1.784)" fill="#fff"/>
      <rect id="Rectángulo_302485" data-name="Rectángulo 302485" width="0.332" height="3.737" transform="matrix(0.975, -0.224, 0.224, 0.975, 14.248, 8.346)" fill="#fff"/>
    </g>
    <path id="Trazado_653440" data-name="Trazado 653440" d="M239.476,110.07a13.031,13.031,0,0,0-9.044,5.117,10.817,10.817,0,0,0-2.236,9.523,10.819,10.819,0,0,0,8.639-4.589A13.034,13.034,0,0,0,239.476,110.07Z" transform="translate(-82.638 -24.34)" fill="#179587"/>
    <g id="Grupo_998125" data-name="Grupo 998125" transform="translate(80.316 51.832)">
      <g id="Grupo_998123" data-name="Grupo 998123">
        <path id="Trazado_653441" data-name="Trazado 653441" d="M154.248,98.1l3.48-5.586a61.735,61.735,0,0,0-6.118-15.58,49.646,49.646,0,0,0-8.4-10.946l-4.7,3.3s.618-1.339,1.279-2.666l1.313-2.637a62.921,62.921,0,0,0-10.725-7.663c-1.7-.935-3.185-1.719-4.568-2.325a21.666,21.666,0,0,0-3.533-1.266,19.83,19.83,0,0,0-2.515,5.322,29.723,29.723,0,0,0-1.006,4.007,39.436,39.436,0,0,0-.606,4.753l2.937,1.187,2.917,1.141-2.963.114-2.976.084a45.371,45.371,0,0,0,6.3,23.359,46.972,46.972,0,0,0,2.659,4.044c.923,1.267,1.863,2.466,2.837,3.572l4.145-.255,4.132-.285-5.207,3.8a54.654,54.654,0,0,0,11.62,8.673c1.579.879,2.892,1.494,3.815,1.9s1.456.6,1.456.6l4.872-3.375L159.572,108s.03-.307.031-.913-.007-1.48-.067-2.6a64.477,64.477,0,0,0-1.153-9.047Z" transform="translate(-118.066 -52.737)" fill="#179587"/>
      </g>
      <g id="Grupo_998124" data-name="Grupo 998124" transform="translate(8.249 9.81)">
        <path id="Trazado_653442" data-name="Trazado 653442" d="M161.913,117.113c-1.837-2.688-6.362-9.344-11.9-17.953-5.553-8.609-12.136-19.164-17.995-29.831a217.675,217.675,0,0,0,15.321,31.465c5.166,8.935,9.666,15.655,11.553,18.412l1.511-1.047Z" transform="translate(-132.018 -69.328)" fill="#fff"/>
      </g>
    </g>
    <g id="Grupo_998128" data-name="Grupo 998128" transform="translate(107.718 67.381)">
      <g id="Grupo_998126" data-name="Grupo 998126" transform="translate(0 0)">
        <path id="Trazado_653443" data-name="Trazado 653443" d="M180.061,114.486,183.7,112.3a39.623,39.623,0,0,0,1.045-10.775,32.049,32.049,0,0,0-1.655-8.79l-3.669.547,1.511-1.173,1.515-1.152a39.025,39.025,0,0,0-4.018-7.554,21.529,21.529,0,0,0-3.706-4.366,19.218,19.218,0,0,0-6.351,6.979l1.362,1.514,1.363,1.486-1.747-.779-1.747-.8a29.446,29.446,0,0,0-3.128,15.2,33.774,33.774,0,0,0,.931,5.966l4.912,2.111-4.1.655a35.575,35.575,0,0,0,4.12,8.379c.647.967,1.22,1.708,1.628,2.211s.658.773.658.773l3.79-.5,3.79-.5a20.688,20.688,0,0,0,1.013-2.026,41.293,41.293,0,0,0,2-5.538Z" transform="translate(-164.413 -79.036)" fill="#f1b62b"/>
      </g>
      <g id="Grupo_998127" data-name="Grupo 998127" transform="translate(9.329 6.83)">
        <path id="Trazado_653444" data-name="Trazado 653444" d="M184.035,126.806c-.263-2.085-.892-7.238-1.553-13.809s-1.368-14.57-1.719-22.41a153.541,153.541,0,0,0-.3,22.566c.352,6.645.948,11.825,1.217,13.961l1.175-.154Z" transform="translate(-180.192 -90.587)" fill="#fff"/>
      </g>
    </g>
    <path id="Trazado_653445" data-name="Trazado 653445" d="M365.108,155.784s5.6-15.554,4.9-30.632,3.731-26.4,10.961-25.52,13.526,28.166-13.993,57.784Z" transform="translate(-138.728 -20.054)" fill="#179587"/>
    <path id="Trazado_653446" data-name="Trazado 653446" d="M368.808,169.753l-.563-.354c.1-.162,10.161-16.371,10.55-34.253l.665.015C379.066,153.23,368.911,169.59,368.808,169.753Z" transform="translate(-140.01 -34.589)" fill="#fff"/>
    <path id="Trazado_653447" data-name="Trazado 653447" d="M366.357,184.619s10.035-5.231,20.328-6.147,17.566-4.965,16.3-9.789S382.632,162.1,365.078,183.5Z" transform="translate(-138.716 -47.039)" fill="#179587"/>
    <path id="Trazado_653448" data-name="Trazado 653448" d="M367.828,188.06l-.426-.51c.1-.085,10.285-8.5,22.535-10.438l.1.656C377.977,179.676,367.928,187.977,367.828,188.06Z" transform="translate(-139.666 -51.743)" fill="#fff"/>
    <g id="Grupo_998129" data-name="Grupo 998129" transform="translate(239.079 134.453)">
      <path id="Trazado_653449" data-name="Trazado 653449" d="M420.587,193.009a74.841,74.841,0,0,0-10.648-.5,34.832,34.832,0,0,0-13.05,2.967,16.843,16.843,0,0,0-8.525,8.966,22.816,22.816,0,0,0-1.714,5.97,18.7,18.7,0,0,0,5.528,2.956,16.284,16.284,0,0,0,12.964-.8,29.659,29.659,0,0,0,10.829-9.547A33.334,33.334,0,0,0,420.587,193.009Z" transform="translate(-386.612 -192.475)" fill="#179587" opacity="0.93"/>
      <path id="Trazado_653450" data-name="Trazado 653450" d="M386.662,213.208l-.076-.192s1.843-.736,4.576-1.919,6.357-2.81,9.931-4.541,7.1-3.565,9.7-5.011c1.307-.713,2.379-1.339,3.127-1.78l1.178-.688.106.177-1.18.689c-.749.442-1.822,1.068-3.131,1.782-2.606,1.449-6.13,3.29-9.71,5.016s-7.2,3.364-9.938,4.546S386.662,213.208,386.662,213.208Z" transform="translate(-386.586 -195.174)" fill="#fff"/>
      <path id="Trazado_653451" data-name="Trazado 653451" d="M420.012,203.532a4.914,4.914,0,0,1,.047-1.56,12.119,12.119,0,0,1,1.518-4.044l.176.1A11.949,11.949,0,0,0,420.269,202a6.349,6.349,0,0,0-.083,1.1,2.78,2.78,0,0,0,.029.393Z" transform="translate(-400.233 -194.704)" fill="#fff"/>
      <path id="Trazado_653452" data-name="Trazado 653452" d="M411.341,211.772l.152-.14a3.2,3.2,0,0,0,.355.309,7.048,7.048,0,0,0,1.115.69,12.709,12.709,0,0,0,4.987,1.238l-.017.207a12.921,12.921,0,0,1-5.069-1.252A5.493,5.493,0,0,1,411.341,211.772Z" transform="translate(-396.704 -200.305)" fill="#fff"/>
      <path id="Trazado_653453" data-name="Trazado 653453" d="M395.175,219.194l.158-.132a3.673,3.673,0,0,0,.393.37,8.066,8.066,0,0,0,1.245.844,14.673,14.673,0,0,0,5.651,1.656l-.025.206a14.889,14.889,0,0,1-5.729-1.67A6.266,6.266,0,0,1,395.175,219.194Z" transform="translate(-390.097 -203.342)" fill="#fff"/>
      <path id="Trazado_653454" data-name="Trazado 653454" d="M402.089,210.412a7.311,7.311,0,0,1,.186-2.315,18.4,18.4,0,0,1,2.553-5.9l.17.112a18.174,18.174,0,0,0-2.513,5.843,9.468,9.468,0,0,0-.208,1.64,4.293,4.293,0,0,0,.015.594Z" transform="translate(-392.912 -196.448)" fill="#fff"/>
      <path id="Trazado_653455" data-name="Trazado 653455" d="M426.079,204.208l.145-.147a3.319,3.319,0,0,0,.892.543,7.763,7.763,0,0,0,2.965.6l-.007.209a8,8,0,0,1-3.055-.62A3.314,3.314,0,0,1,426.079,204.208Z" transform="translate(-402.729 -197.211)" fill="#fff"/>
    </g>
    <g id="Grupo_998130" data-name="Grupo 998130" transform="translate(238.983 152.64)">
      <path id="Trazado_653456" data-name="Trazado 653456" d="M411.855,243.868c-1.105-4.825-3.313-12.179-10.1-17.671s-15.2-1.666-15.2-1.666-1.511,9.1,5.626,14.254S406.967,244.113,411.855,243.868Z" transform="translate(-386.424 -223.235)" fill="#acd8d3"/>
      <path id="Trazado_653457" data-name="Trazado 653457" d="M386.561,225.447l.1-.136L407.71,241.4l-.1.137Z" transform="translate(-386.48 -224.084)" fill="#fff"/>
      <path id="Trazado_653458" data-name="Trazado 653458" d="M411.033,243.449a3.942,3.942,0,0,1,1.191-.519,9.564,9.564,0,0,1,3.613-.231l-.018.171a9.382,9.382,0,0,0-3.543.23,5.026,5.026,0,0,0-.856.323,2.284,2.284,0,0,0-.286.163Z" transform="translate(-396.483 -231.164)" fill="#fff"/>
      <path id="Trazado_653459" data-name="Trazado 653459" d="M404.363,239.131l.161.062a2.747,2.747,0,0,0-.1.381,6.072,6.072,0,0,0-.1,1.09,11.3,11.3,0,0,0,.868,4.168l-.16.063a11.464,11.464,0,0,1-.887-4.232A4.727,4.727,0,0,1,404.363,239.131Z" transform="translate(-393.669 -229.732)" fill="#fff"/>
      <path id="Trazado_653460" data-name="Trazado 653460" d="M392.562,230.129l.16.062a3.073,3.073,0,0,0-.112.436,6.853,6.853,0,0,0-.117,1.248,12.863,12.863,0,0,0,.986,4.771l-.16.063a13.042,13.042,0,0,1-1.007-4.833A5.326,5.326,0,0,1,392.562,230.129Z" transform="translate(-388.831 -226.053)" fill="#fff"/>
      <path id="Trazado_653461" data-name="Trazado 653461" d="M397.837,233.094a5.889,5.889,0,0,1,1.777-.766,14.369,14.369,0,0,1,5.395-.335l-.018.171a14.19,14.19,0,0,0-5.333.341,7.665,7.665,0,0,0-1.289.484,3.359,3.359,0,0,0-.43.245Z" transform="translate(-391.089 -226.773)" fill="#fff"/>
      <path id="Trazado_653462" data-name="Trazado 653462" d="M415.391,247.514l.16.062a2.839,2.839,0,0,0-.112.867,6.7,6.7,0,0,0,.516,2.456l-.159.063a6.872,6.872,0,0,1-.532-2.53A2.845,2.845,0,0,1,415.391,247.514Z" transform="translate(-398.212 -233.159)" fill="#fff"/>
    </g>
    <path id="Trazado_653463" data-name="Trazado 653463" d="M91.632,339.151s-.239-.336-1.6.274-4.52,4.771-5.453,6.995a22.946,22.946,0,0,0,3.157,2.4,16.264,16.264,0,0,1,1.819-1.327,38.787,38.787,0,0,1-.456,6.457,38.158,38.158,0,0,1-.993,3.874,17.1,17.1,0,0,0,9.71.9s.072-5.775.251-8,1.22-4.7.646-6.78-3.027-2.858-5.011-4.891Z" transform="translate(-24.062 -117.936)" fill="#f1b62b"/>
    <path id="Trazado_653464" data-name="Trazado 653464" d="M98.484,327.849a5.766,5.766,0,0,0-1.062-2.9c-.966-1.207-3.091-.773-3.961,1.063a6.25,6.25,0,0,0-.692,2.725.645.645,0,0,0-.835.025c-.647.441.333,2,1.32,1.728a3.417,3.417,0,0,0,.835,1,2.963,2.963,0,0,0,.257,1.591c.918,1.11,2,2.208,2.721,1.725s-.145-1.159-.387-1.545a.4.4,0,0,1,.066-.588C98.919,332.389,98.484,327.849,98.484,327.849Z" transform="translate(-26.984 -111.894)" fill="#ff9a5c"/>
    <path id="Trazado_653465" data-name="Trazado 653465" d="M97.35,325.529s-.565,2.117-1.825,2.583a2.571,2.571,0,0,0,.461-.61s-1.614,1.507-2.511,1.363c0,0-.574-.251-.753-2.26s1.937-3.157,1.937-3.157h2.4l1.686,1.937.174,1.363A1.813,1.813,0,0,1,97.35,325.529Z" transform="translate(-27.387 -111.557)" fill="#753519"/>
    <path id="Trazado_653466" data-name="Trazado 653466" d="M94.935,360.933s-7.449-1.287-10.146-2.781-2.366-2.822-1.992-3.776,1.535-2.988,1.535-2.988l2.639,1.888-.066.588-.451,1.028s.861.546,2.161,1.268,6.591,3.148,6.591,3.148S96.492,360.37,94.935,360.933Z" transform="translate(-23.232 -122.977)" fill="#ff9a5c"/>
    <path id="Trazado_653472" data-name="Trazado 653472" d="M177.388,400.259a4.376,4.376,0,0,0-.991,1.7c-.054.653.991,0,.991,0s.522.711,1.045.29,0-.927,0-.927l.232-1.061Z" transform="translate(-61.592 -142.953)" fill="#753519"/>
    <g id="Grupo_998134" data-name="Grupo 998134" transform="translate(139.261 237.512)">
      <g id="Grupo_998133" data-name="Grupo 998133" transform="translate(5.957 8.432)">
        <path id="Trazado_653473" data-name="Trazado 653473" d="M243.386,407.288l-.887.686-.785-1.056c-.488-.675-1.184-1.639-1.979-2.821-1.6-2.357-3.638-5.567-5.49-8.887s-3.519-6.74-4.662-9.357l-1.3-3.2-.442-1.233,1.055-.382s.158.442.435,1.214l1.286,3.151c1.128,2.583,2.766,5.972,4.611,9.253s3.851,6.471,5.439,8.8c.788,1.171,1.475,2.125,1.957,2.79Z" transform="translate(-227.837 -381.043)" fill="#108f6e"/>
      </g>
      <path id="Trazado_653474" data-name="Trazado 653474" d="M227.2,369.985a4.62,4.62,0,0,1-.155,3.031,3.365,3.365,0,0,1-1.964,1.966,3.194,3.194,0,0,1-2.794-.371,4.705,4.705,0,0,1-1.916-2.694,5.588,5.588,0,0,1-.187-.884,5.209,5.209,0,0,1,0-.876,4.541,4.541,0,0,1,.415-1.559,3.059,3.059,0,0,1,2.165-1.758,3.534,3.534,0,0,1,2.731.657,4.194,4.194,0,0,1,1.029,1.062,4.42,4.42,0,0,1,.37.672A4.475,4.475,0,0,1,227.2,369.985Z" transform="translate(-218.744 -366.782)" fill="#f1b62b"/>
      <path id="Trazado_653475" data-name="Trazado 653475" d="M224.58,373.36a7.888,7.888,0,0,0-.643-.977,7.3,7.3,0,0,0-.724-.813,3.621,3.621,0,0,0-.873-.679,3.588,3.588,0,0,0-.471,1.038,6.048,6.048,0,0,0-.161,1.088,8.209,8.209,0,0,0,.01,1.215,6.667,6.667,0,0,0-2.762-.383,5.252,5.252,0,0,0-1.194.209,6.879,6.879,0,0,0,4.424,3.791,5.412,5.412,0,0,0,2.372.111,6.392,6.392,0,0,0,1.761-1.608,7.783,7.783,0,0,0,1.523-5.147,5.782,5.782,0,0,0-1.128.433A6.066,6.066,0,0,0,224.58,373.36Z" transform="translate(-217.761 -368.462)" fill="#108f6e"/>
    </g>
    <path id="Trazado_653476" data-name="Trazado 653476" d="M182.471,403.846s-.783,1.535-.653,1.927.653,0,.653,0,.783.348,1.175.174a4.587,4.587,0,0,0,1.045-1.026h-1.444Z" transform="translate(-63.803 -144.419)" fill="#753519"/>
    <g id="Grupo_998135" data-name="Grupo 998135" transform="translate(221.649 250.007)">
      <rect id="Rectángulo_302487" data-name="Rectángulo 302487" width="24.39" height="1.4" transform="translate(0 22.762) rotate(-68.947)" fill="#fff"/>
    </g>
    <g id="Grupo_998136" data-name="Grupo 998136" transform="translate(230.411 250.007)">
      <rect id="Rectángulo_302488" data-name="Rectángulo 302488" width="1.4" height="24.39" transform="translate(0 0.503) rotate(-21.054)" fill="#fff"/>
    </g>
    <g id="Grupo_998137" data-name="Grupo 998137" transform="translate(227.411 259.048)">
      <rect id="Rectángulo_302489" data-name="Rectángulo 302489" width="7.571" height="1.399" fill="#fff"/>
    </g>
    <g id="Grupo_998138" data-name="Grupo 998138" transform="translate(225.67 264.051)">
      <rect id="Rectángulo_302490" data-name="Rectángulo 302490" width="10.973" height="1.399" transform="translate(0)" fill="#fff"/>
    </g>
    <path id="Trazado_653478" data-name="Trazado 653478" d="M356.455,265.826a11.088,11.088,0,0,0-2.477,3.762,3.1,3.1,0,0,0,2.11,4.174,18.132,18.132,0,0,1,.367,2.8,7.643,7.643,0,0,0,2.11.276,5.742,5.742,0,0,0,1.376-.367v-2.936a7.648,7.648,0,0,0,1.789-2.386c.413-1.146.78-3.945-.55-5.321S357.187,265.014,356.455,265.826Z" transform="translate(-134.097 -87.663)" fill="#ff9a5c"/>
    <path id="Trazado_653479" data-name="Trazado 653479" d="M321.557,251.329s-.049.206-1.107.533-1.813.025-2.115.882.3,2.518-.352,2.871a2.978,2.978,0,0,0-.856.6s1.66,2.115,2.215,3.021a3.263,3.263,0,0,0,1.008-1.662c.252-1.057,1.972-.549,2.367-.906a7.906,7.906,0,0,0,.814-.906S322.966,252.08,321.557,251.329Z" transform="translate(-119.116 -82.079)" fill="#179587" opacity="0.58"/>
    <path id="Trazado_653480" data-name="Trazado 653480" d="M360.865,266.262a7.259,7.259,0,0,1-2.275-2.489c-.429-1.2.086-2.311,1.138-2.185a10.143,10.143,0,0,1,1.609.3s.98-1.245,2.678.344a4.985,4.985,0,0,1,1.485,3.82,1.867,1.867,0,0,1,1.287,2.617,5.1,5.1,0,0,1-2.772,2.672s-.275,1.307-1,1.378a4.669,4.669,0,0,0-1.165.243l.135-2.447a1.282,1.282,0,0,0,1.073-.815c.386-.815-.815-.686-.815-.686s-.687-1.245-.387-1.717C361.852,267.291,360.779,266.863,360.865,266.262Z" transform="translate(-136.002 -86.204)" fill="#753519"/>
    <path id="Trazado_653481" data-name="Trazado 653481" d="M337.675,266.456a44.1,44.1,0,0,1-6.1-6.034c-2.805-3.441-4.523-5.9-4.523-5.9a7,7,0,0,0-.573-2.634,3.956,3.956,0,0,0-.973-1.431c-.344-.458-.342.372.092,1.18l.434.808s-1.124-1.794-1.538-1.735.079.65.3.966a2.476,2.476,0,0,1,.3.867s-.808-1.242-1.084-1.025.3.966.749,1.557a12.213,12.213,0,0,1,.808,2.011s3.9,10.125,9.462,14.474S337.675,266.456,337.675,266.456Z" transform="translate(-121.895 -81.667)" fill="#ff9a5c"/>
    <path id="Trazado_653482" data-name="Trazado 653482" d="M328.781,256.1a6.191,6.191,0,0,1,.169-.728c.047-.072.2-.618.314-.961s-.051-.673-.242-.508a2.079,2.079,0,0,0-.609,1.143A3.6,3.6,0,0,0,328.781,256.1Z" transform="translate(-123.729 -83.114)" fill="#ff9a5c"/>
    <path id="Trazado_653483" data-name="Trazado 653483" d="M372.9,288.9s2.49,3.02,3.442,3.5,3.464-1.616,4.76-4.02a36.341,36.341,0,0,0,1.967-4.228,7.535,7.535,0,0,0,2.159-2.383s.173-.52,0-.637-.669.728-.931,1.049c0,0,.757-1.312.641-1.6s-1.195,1.224-1.195,1.224.845-1.545.554-1.575-1.108,1.371-1.108,1.371-.029-.963-.32-.9-.2,1.137-.2,1.137-.292,1.341-.466,1.778a31.954,31.954,0,0,1-4.314,4.751s-1.487-2.1-2.857-2.507S372.9,288.9,372.9,288.9Z" transform="translate(-141.913 -93.891)" fill="#ff9a5c"/>
    <path id="Trazado_653484" data-name="Trazado 653484" d="M351.359,310s3.448,36.543,4.051,39.62c0,0,3.268.394,4.381,0,0,0-.245-22.25,0-24.538s2.218-13.965,1.508-15.543S351.359,310,351.359,310Z" transform="translate(-133.108 -105.626)" fill="#0e1a34"/>
    <path id="Trazado_653485" data-name="Trazado 653485" d="M365.274,309.51s1.227,14.618,1.836,16.856,7.216,11.7,7.216,11.7l-2.9,2.93s-6-6.075-7.732-8.285-4.734-11.44-4.734-11.44S360.7,307.222,365.274,309.51Z" transform="translate(-136.216 -105.757)" fill="#0e1a34"/>
    <path id="Trazado_653486" data-name="Trazado 653486" d="M229.344,155.831c-3.364-1.044-5.8-1.372-7.772-2.484s-3.944-1.935-5.453-1.871-4.64-.759-6.5,0-3.821,4.582-6.666,5.281-9.991-.809-11.986-2.085a4.573,4.573,0,0,1-1.989-5.1,10.759,10.759,0,0,0,.689-4.387c-.116-.834,2.9-2.47,3.944-3.565s2.031-4.666-.439-6.452a84.155,84.155,0,0,0-32.113,14.85,5.178,5.178,0,0,0,.768,1.99c.7,1.159-.42,1.856-.384,2.2s.657.308.115.966.009.542-.5,1.006a14.966,14.966,0,0,1-1.32,1.16c-.348.232-.232.928-.928,1.74s-1.972,1.508-1.972,2.784-1.972,3.016-2.2,3.712-2.2,3.364-2.32,5.1a30.617,30.617,0,0,0,0,4.64,10.9,10.9,0,0,1-.087,3.48,27.088,27.088,0,0,0-.609,4.756c-.116,2.32.812,3.364,3.016,4.06s6.374,2.668,7.421,4.176,1.627,3.364,2.439,3.6,1.508,2.668,4.176,4.524,7.656,2.091,9.86,4.468,6.264,8.168,7.308,11.363,2.784,4.371,4.64,5.929,4.176,3.3,5.916,3.413,2.45-.614,2.385-1.235-2.269-2.477-2.617-2.941-1.044-3.6-2.088-5.8-1.16-2.294-.812-3.351,1.044-3.373,2.088-3.955,1.856-.157,2.552-1.182a3.377,3.377,0,0,0,.877-2.241c-.064-.639-1.109-1.036-2.153-1.128s-1.392-1.02-2.784-1.252-3.364-.812-3.828-1.624a2.19,2.19,0,0,0-2.2-.928c-.7.116-2.784.464-4.176-.928s-1.508-4.06-1.74-5.452-.464-1.857-.116-2.9.348-1.863,1.972-2.613,4.292-1.338,5.916,0,4.872.293,5.568-.519,2.668-3.248,4.292-3.364,4.292,0,5.336-.928,4.988-2.885,5.684-4.459,3.364-6.138,3.364-7.626,4.872-4.388,6.264-3.924,3.248-1.74,3.944-1.74,2.784.348,3.944-1.044,2.088-2.327,3.016-3.658S232.708,156.875,229.344,155.831Z" transform="translate(-51.462 -34.596)" fill="#179587" opacity="0.49"/>
    <path id="Trazado_653487" data-name="Trazado 653487" d="M260.6,325.556a61.49,61.49,0,0,0-7.235-3.848c-3.323-1.4-5.772-6.351-6.646-7.373s-1.574-9.943,0-11.517a38.144,38.144,0,0,0,4.466-6.3c1.306-2.1,1.831-3.5,1.306-4.373s-.524-5.84,0-6.681,3.148-2.415,4.373-2.24,5.072-.9,6.646-.013,7.521,4.032,10.145,4.209,5.247,2.451,7.346,1.226,5.179.175,6.963,2.8a21.969,21.969,0,0,0,6.856,7.019c2.973,1.726,2.714,3.3,4.418,3.65a24.981,24.981,0,0,1,7.57,2.8c2.062,1.41,1.385,3.148-.317,5.247s-3.819,5.422-5.209,7.521-.884,5.247,0,6.122.184,4.548-1.041,5.6-3.848,2.8-4.9,4.722-.948,3.351-3.36,4.212-7.834,3.31-11.158,4.1-6.122.973-8.4,2.891-2.594,7.128-4.734,8.022-8.559,4.912-11.008,4.651-2.445-.749-1.048-2.516,4.935-4.877,6.927-7.713-.632-5.576,1.117-6.723,2.055-4.559,2.6-5.564S266.689,328.89,260.6,325.556Z" transform="translate(-89.955 -94.966)" fill="#179587" opacity="0.49"/>
    <path id="Trazado_653488" data-name="Trazado 653488" d="M346.977,198.885c.35.713,2.215,1.529,3.615,2.229s2.714-.377,3.281-2.229,3.016-2.2,4.3-1.5a5.587,5.587,0,0,0,3.615.816c.921-.23,2.707-.916,2.753-.934a84.746,84.746,0,0,0-24.416-32.995,18.193,18.193,0,0,1-2.474,2.8,8.753,8.753,0,0,0-2.287,3.26c-.395.817-1.561,4.314-1.1,5.83s.273,2.565,2,3.848,3.268,1.719,2.5,4.066-.186,4.855-1,6.108a4.207,4.207,0,0,0,1,5.334c1.913,1.632,4.362,1.283,4.945,1.4S346.627,198.172,346.977,198.885Z" transform="translate(-126.077 -46.493)" fill="#179587" opacity="0.49"/>
    <path id="Trazado_653489" data-name="Trazado 653489" d="M256.664,248.924a3.9,3.9,0,0,1-1.166,2.652c-1.166,1.049-2.332,2.915-1.166,3.148a25.274,25.274,0,0,1,4.2.93c.583.353,3.615,1.985,4.431,1.4s1.4-1.982,2.215-2.1,1.049-2.184,1.75-2.841,3.148-2.989,3.381-4.855.466-4.664,0-5.364-3.731-1.166-4.081-2.1-2.429-1.632-4.013-.7-2.283,3.032-2.517,4.548S256.548,246.271,256.664,248.924Z" transform="translate(-93.251 -76.9)" fill="#179587" opacity="0.49"/>
    <g id="Grupo_998140" data-name="Grupo 998140" transform="translate(212.59 82.552)">
      <g id="Grupo_998139" data-name="Grupo 998139" transform="translate(0 9.378)">
        <path id="Trazado_653490" data-name="Trazado 653490" d="M342.744,151.147l-.96-.722s.286-.378.757-1.117,1.12-1.8,1.838-3.121a74.219,74.219,0,0,0,4.465-10.086,87.96,87.96,0,0,0,3.076-10.614c.369-1.463.552-2.71.73-3.571l.257-1.359,1.184.2-.26,1.376c-.18.872-.367,2.133-.74,3.616a89.191,89.191,0,0,1-3.118,10.757,75.4,75.4,0,0,1-4.54,10.254c-.733,1.347-1.393,2.444-1.884,3.2S342.744,151.147,342.744,151.147Z" transform="translate(-341.784 -120.555)" fill="#179587"/>
      </g>
      <path id="Trazado_653491" data-name="Trazado 653491" d="M363.96,109.671c-.357,2.589-2.35,4.392-4.413,4.031a4.626,4.626,0,0,1,1.094-9C362.734,104.848,364.222,107.073,363.96,109.671Z" transform="translate(-347.746 -104.694)" fill="#f1b62b"/>
      <path id="Trazado_653492" data-name="Trazado 653492" d="M360.391,112.515a7.727,7.727,0,0,0-.185-1.275,5.15,5.15,0,0,0-1.032-2.145,5.138,5.138,0,0,0-1.431,1.845,9.751,9.751,0,0,0-.527,1.149,6.682,6.682,0,0,0-3.8-1.751,7.915,7.915,0,0,0,2.516,5.253,6.557,6.557,0,0,0,2.137,1.358,6.029,6.029,0,0,0,2.5-.561,7.645,7.645,0,0,0,3.979-4.7A7.048,7.048,0,0,0,360.391,112.515Z" transform="translate(-346.539 -106.493)" fill="#179587"/>
    </g>
    <path id="Trazado_653493" data-name="Trazado 653493" d="M310.126,71.553a11.889,11.889,0,0,0-2.975,1.353c-1.968,1.137-6.384,5.51-6.384,5.51a16.976,16.976,0,0,0,3.673,4.5,32.9,32.9,0,0,0,3.017-1.53s1.225,5.9-1.224,9.532a6.54,6.54,0,0,0,3.717,2.011c2.317.35,4.766.306,6.778,1.75s5.291,1.311,6.69,0a19.241,19.241,0,0,0,0-8.79,22.435,22.435,0,0,0-2.886-6.6l.744.568s2.536-2.755,2.667-4.9a28.679,28.679,0,0,0-5.029-4.154,7.007,7.007,0,0,0-6.132,0A7.722,7.722,0,0,1,310.126,71.553Z" transform="translate(-112.428 -8)" fill="#179587"/>
    <path id="Trazado_653494" data-name="Trazado 653494" d="M308.866,60.739a8.36,8.36,0,0,0,1.689,3.767c1.169,1.169,2.078.455,2.4.584s.52,1.039.52,1.689a1.2,1.2,0,0,0,2.013.585c.974-.714.455-4.026.455-4.026a4,4,0,0,0,.138-2.6,3.023,3.023,0,0,0,.147-1.949c-.351-.714-.87-.52-1.13,0,0,0-1.234-2.273-3.053-1.883S308.607,58.27,308.866,60.739Z" transform="translate(-115.728 -2.591)" fill="#ff9a5c"/>
    <path id="Trazado_653495" data-name="Trazado 653495" d="M314.28,56.784c-.585-.779-.2-2.792-.954-3.962a2.3,2.3,0,0,0-2.359-.779s-.39-1.754-1.884-1.494-2.858,2.273-2.858,2.273a4.866,4.866,0,0,0-2.208,0c-1.428.26-3.052,1.234-2.468,2.663s2.793,1.348,2.793,1.348-.585,2.808,1.466,2.029c.06-.023.112-.055.168-.082a6.433,6.433,0,0,1-.141-.632,3.044,3.044,0,0,1,1.738-3.344h0a6.089,6.089,0,0,1,1.444-.488c1.819-.39,3.053,1.883,3.053,1.883.26-.52.779-.714,1.13,0a3.023,3.023,0,0,1-.147,1.949,4.2,4.2,0,0,1,.053,1.978,1.3,1.3,0,0,0,.219.035C315.231,60.161,314.865,57.563,314.28,56.784Z" transform="translate(-112.699 0)" fill="#753519"/>
    <path id="Trazado_653496" data-name="Trazado 653496" d="M308.466,60.238s2.237-.945,2.4-4.294c0,0,.688,2.087,3.7,1.713,0,0-.236-2.788-2.716-3.487s-4.293,3.435-4.293,3.435A2.885,2.885,0,0,0,308.466,60.238Z" transform="translate(-115.187 -1.459)" fill="#753519"/>
    <path id="Trazado_653497" data-name="Trazado 653497" d="M315.24,144.622c-.469-3.935-1.246-7.863-1.255-7.9l.326-.065c.008.04.788,3.98,1.258,7.928Z" transform="translate(-117.832 -35.206)" fill="#fff"/>
    <path id="Trazado_653498" data-name="Trazado 653498" d="M110.757,360.628a9.455,9.455,0,0,1,1.079.081c.385.067.634.614.743.833s-.372.2-.613-.109-.291-.383-.291-.383a1.332,1.332,0,0,0-.572,0c-.208.076-.461-.169-.5-.341S110.757,360.628,110.757,360.628Z" transform="translate(-34.696 -126.745)" fill="#ff9a5c"/>
    <path id="Trazado_653499" data-name="Trazado 653499" d="M102.791,366.377a4.781,4.781,0,0,0,1.4,1.006c.058.5.348.716.511.7s.166-.775.166-.775c.145.348.716.7.793.484a1.262,1.262,0,0,0,0-.561s.232.309.406.309.387-.154.31-.542a3.747,3.747,0,0,0-.542-1.278c-.232-.31-.368-.619-.871-.736a8.327,8.327,0,0,0-1.258-.1,10.932,10.932,0,0,0-1.452,0Z" transform="translate(-31.289 -128.484)" fill="#ff9a5c"/>
    <path id="Trazado_653500" data-name="Trazado 653500" d="M103.5,364.934v-.313a6.549,6.549,0,0,1,1.7-.33c.281.1.546.494.7.643A12.942,12.942,0,0,1,103.5,364.934Z" transform="translate(-31.796 -128.246)" fill="#ff9a5c"/>
    <path id="Trazado_653502" data-name="Trazado 653502" d="M282.949,258.43a18.361,18.361,0,0,0-2.34,2.619c-.964,1.372,1.651.685,2.34.822s.825,1.132,2.2.772a7.754,7.754,0,0,0,1.376-.359,10.467,10.467,0,0,1,2.89-.413c1.239-.137,1-1.037,1.667-1.826a1.393,1.393,0,0,0,0-2.165c-.7-.688-1.117,1.376-2.493,0s-1.33-2.558-2.591-1.968-.934.8-1.511,1.315S282.949,258.43,282.949,258.43Z" transform="translate(-104.103 -83.888)" fill="#179587" opacity="0.49"/>
    <path id="Trazado_653503" data-name="Trazado 653503" d="M352.893,280.116a10.25,10.25,0,0,1-7.407-3.165,16.21,16.21,0,0,0-3.532,4.22,19.213,19.213,0,0,0,5.276,4.22s-1.268,10.661-.6,14.358c0,0,4.45.826,7.2,1.009a23.378,23.378,0,0,0,6.147-.688L359.2,286.9l.78.918s2.844-2.615,2.889-4.036c0,0-4.055-3.808-5.812-4.4S354.6,280.253,352.893,280.116Z" transform="translate(-129.264 -92.552)" fill="#ee4e5d"/>
    <path id="Trazado_653504" data-name="Trazado 653504" d="M365.489,335.3l-.332-.005c.005-.3.122-7.343.332-8.316.2-.955,1.427-7.6,1.44-7.669l.327.06c-.012.067-1.237,6.719-1.443,7.679C365.611,327.987,365.49,335.226,365.489,335.3Z" transform="translate(-138.748 -109.865)" fill="#fff"/>
    <path id="Trazado_653505" data-name="Trazado 653505" d="M270.9,412.214h-6.789s-3.719-24.884,0-30.14S275.625,378.608,270.9,412.214Z" transform="translate(-96.771 -134.606)" fill="#f1b62b"/>
    <path id="Trazado_653506" data-name="Trazado 653506" d="M248.34,423.825h-6.06s-7.949-2.479-11.757-8.539,1.84-8.63,5.972-6.037S248.34,423.825,248.34,423.825Z" transform="translate(-83.202 -146.217)" fill="#f1b62b"/>
    <path id="Trazado_653507" data-name="Trazado 653507" d="M255.76,416.819h-3.719s-8.814-8.7-9.917-19.227,7.3-7.106,11.019,2.136a59.188,59.188,0,0,1,4.132,17.091Z" transform="translate(-88.419 -139.212)" fill="#179587"/>
    <path id="Trazado_653508" data-name="Trazado 653508" d="M280.464,423.825h6.06s7.949-2.479,11.756-8.539-1.84-8.63-5.972-6.037S280.464,423.825,280.464,423.825Z" transform="translate(-104.13 -146.217)" fill="#f1b62b"/>
    <path id="Trazado_653509" data-name="Trazado 653509" d="M275.69,416.819h3.719s8.814-8.7,9.917-19.227-7.3-7.106-11.019,2.136a59.188,59.188,0,0,0-4.132,17.091Z" transform="translate(-101.559 -139.212)" fill="#179587"/>
    <path id="Trazado_653510" data-name="Trazado 653510" d="M311.586,247.331l.36-.735.468.671.735.36-.671.468-.36.735-.468-.671-.735-.36Z" transform="translate(-116.577 -80.144)" fill="#fff"/>
    <path id="Trazado_653511" data-name="Trazado 653511" d="M333.579,252.675l.219-.447.285.408.447.219-.408.285-.219.447-.285-.408-.447-.219Z" transform="translate(-125.674 -82.446)" fill="#fff"/>
    <path id="Trazado_653512" data-name="Trazado 653512" d="M337.1,242.5l.219-.447.285.408.447.219-.408.285-.219.447-.285-.408-.447-.219Z" transform="translate(-127.112 -78.286)" fill="#fff"/>
    <path id="Trazado_653513" data-name="Trazado 653513" d="M306.506,238.7l.219-.447.285.408.447.219-.408.285-.219.447-.285-.408-.447-.219Z" transform="translate(-114.608 -76.732)" fill="#fff"/>
    <path id="Trazado_653514" data-name="Trazado 653514" d="M311.072,266.593l.219-.447.285.408.447.219-.408.285-.219.447-.285-.409-.447-.219Z" transform="translate(-116.474 -88.135)" fill="#fff"/>
    <g id="Grupo_998141" data-name="Grupo 998141" transform="translate(144.115 77.138)">
      <path id="Trazado_653515" data-name="Trazado 653515" d="M233.867,95.917l-.135-.1c.131-.184.206-.283.206-.283l.132.1S234,95.736,233.867,95.917Z" transform="translate(-229.144 -95.538)" fill="#fff"/>
      <path id="Trazado_653516" data-name="Trazado 653516" d="M226.379,106.041l-.162-.035c.011-.049.022-.1.033-.147l.161.038C226.4,105.945,226.39,105.993,226.379,106.041Zm.2-.814-.16-.044q.091-.337.193-.668l.159.048Q226.671,104.893,226.581,105.228Zm.4-1.32-.157-.053c.075-.222.153-.44.234-.656l.156.058Q227.1,103.578,226.984,103.907Zm.482-1.295-.154-.062q.131-.326.268-.642l.153.066Q227.6,102.288,227.466,102.612Zm.55-1.269-.151-.07q.148-.321.3-.627l.149.073C228.214,100.923,228.114,101.131,228.016,101.344Zm.61-1.241-.147-.077q.165-.317.328-.613l.145.08C228.845,99.689,228.736,99.893,228.626,100.1Zm.665-1.213-.144-.083q.182-.315.354-.6l.142.086C229.529,98.482,229.411,98.68,229.291,98.889Zm.715-1.183-.14-.089c.137-.216.265-.411.38-.583l.138.092C230.27,97.3,230.143,97.491,230.006,97.706Z" transform="translate(-226.072 -96.149)" fill="#fff"/>
      <path id="Trazado_653517" data-name="Trazado 653517" d="M226.135,113.194l-.163-.03c.021-.115.043-.231.067-.345l.163.034Q226.167,113.023,226.135,113.194Z" transform="translate(-225.972 -102.602)" fill="#fff"/>
    </g>
    <g id="Grupo_998142" data-name="Grupo 998142" transform="translate(149.182 77.563)">
      <path id="Trazado_653518" data-name="Trazado 653518" d="M235.919,96.629l-.164-.031c.042-.222.067-.342.067-.342l.163.034S235.96,96.41,235.919,96.629Z" transform="translate(-235.038 -96.256)" fill="#fff"/>
      <path id="Trazado_653519" data-name="Trazado 653519" d="M234.555,105.659q-.011-.349-.013-.7h.166q0,.344.012.691Zm.156-1.388-.166,0q.005-.349.018-.694l.166.006Q234.716,103.923,234.711,104.272Zm.049-1.382-.166-.009q.02-.352.044-.693l.165.011Q234.779,102.539,234.76,102.889Zm.1-1.381-.166-.014c.021-.237.043-.468.066-.692l.166.017Q234.891,101.155,234.859,101.509Zm.144-1.376-.165-.02q.043-.361.088-.689l.165.022Q235.046,99.773,235,100.132Zm.185-1.371-.164-.025c.038-.253.075-.482.109-.686l.163.027C235.262,98.281,235.225,98.509,235.188,98.761Z" transform="translate(-234.542 -96.989)" fill="#fff"/>
      <path id="Trazado_653520" data-name="Trazado 653520" d="M234.695,113.191c-.011-.116-.02-.233-.029-.349l.166-.012q.013.174.029.347Z" transform="translate(-234.593 -103.03)" fill="#fff"/>
    </g>
    <path id="Trazado_653521" data-name="Trazado 653521" d="M230.194,109.124c-.008-.114-.015-.228-.021-.342l.166-.008c.005.112.012.225.02.338Zm-.041-1.009c0-.089,0-.178,0-.267,0-.134,0-.267,0-.4l.166,0q0,.2,0,.4,0,.132,0,.264Zm.193-1.325-.166-.008c.012-.225.027-.446.046-.666l.166.014Q230.363,106.457,230.346,106.791Zm.112-1.319-.165-.02q.039-.334.087-.661l.164.024Q230.5,105.139,230.457,105.471Zm.192-1.31-.164-.03c.039-.222.081-.44.124-.655l.163.033Q230.707,103.83,230.649,104.161Zm.264-1.3-.161-.037q.076-.331.158-.648l.161.042C231.016,102.428,230.964,102.644,230.913,102.862Zm.332-1.284-.16-.045q.093-.329.19-.639l.158.049C231.37,101.149,231.306,101.361,231.244,101.579Zm.394-1.266-.157-.053c.074-.219.148-.429.222-.629l.155.057Q231.749,99.986,231.638,100.313Zm.456-1.245-.155-.061c.089-.224.174-.43.253-.617l.153.065C232.266,98.64,232.182,98.845,232.094,99.068Zm.519-1.219-.151-.07c.178-.385.289-.595.294-.6l.147.078S232.789,97.468,232.613,97.848Z" transform="translate(-83.564 -19.069)" fill="#fff"/>
    <path id="Trazado_653522" data-name="Trazado 653522" d="M89.461,350.837c-.072-.044-.146-.082-.217-.127a26.063,26.063,0,0,0-3.557-2.159,1.54,1.54,0,0,1-.145-.082,13.665,13.665,0,0,0-.964,1.8,22.946,22.946,0,0,0,3.157,2.4s.795-.66,1.441-1.093A6.078,6.078,0,0,1,89.461,350.837Z" transform="translate(-24.062 -121.785)" fill="#f1b62b"/>
  </g>
</svg>
