<svg xmlns="http://www.w3.org/2000/svg" width="135.511" height="78.39" viewBox="0 0 135.511 78.39">
  <g id="Grupo_996945" data-name="Grupo 996945" transform="translate(0)">
    <path id="Trazado_652470" data-name="Trazado 652470" d="M121.155,397.751a6.013,6.013,0,0,1,1.918,7.919,7.314,7.314,0,0,1-7.978,3.439c-1.116,7.671-11.66,2.264-12.32-3.415-.212-1.753.947-3.533,2.81-5.074C109.8,397.166,117.622,395.056,121.155,397.751Z" transform="translate(-102.75 -340.99)" fill="#fff"/>
    <path id="Trazado_652471" data-name="Trazado 652471" d="M134.168,401.747c15.8-17.563,27.839,23.89,5.337,9.1-6.763,7.989-18.781,16.313-24.644,1.006C110.283,399.908,127.26,389.313,134.168,401.747Z" transform="translate(-69.529 -342.023)" fill="#f3f9ff"/>
    <path id="Trazado_652472" data-name="Trazado 652472" d="M203.441,411.779a10.821,10.821,0,0,1-1.254,1.863c-5.942,7.2-16.67,5.356-24.094,1.819-.456,22.031-37.007,16.71-41.417-.833-3.529,13.943-31.938,21.63-35.942,9.911-.986-2.924-.57-6.449.782-9.95,3.906-9.927,15.452-19.421,23.56-13.047,3.364-14.788,33.27-25.442,39.841-8.6,3.926-17.865,32.677-11.389,29.222,7.082C203.158,394.444,207.336,404.584,203.441,411.779Z" transform="translate(-69.389 -382.394)" fill="#fff"/>
  </g>
</svg>
