<svg id="Grupo_996944" data-name="Grupo 996944" xmlns="http://www.w3.org/2000/svg" xmlns:xlink="http://www.w3.org/1999/xlink" width="211.649" height="108.036" viewBox="0 0 211.649 108.036">
  <defs>
    <clipPath id="clip-path">
      <path id="Trazado_652461" data-name="Trazado 652461" d="M90.7,429.038a21.333,21.333,0,0,1,8.85-4.5v-.023a15.858,15.858,0,0,1,13.157,2.378c-5.085-14.277,17.83-22.428,23.945-9.176,3.057-12.222,28.008-15.279,29.828,3.537-9.852,4.7-16.69,15.535-10.06,27.022-6.531-2.547-16.71,7.121-10.1,16.285-10.689-6.622-16.293,3.061-15.268,8.154-6.626-15.271-29.03-10.182-23.426,8.143a12.839,12.839,0,0,0-12.328,2.488c-20.962-4.138-15.193-26.409-5.867-26.409C80.008,446.373,83.328,435.267,90.7,429.038Z" transform="translate(-80.999 -407.845)" fill="#fff"/>
    </clipPath>
    <clipPath id="clip-path-2">
      <path id="Trazado_652464" data-name="Trazado 652464" d="M279.647,481.247a23.172,23.172,0,0,1,1.56,13.31c-2.22,14.164-11.735,10.14-8.316,13a3.431,3.431,0,0,1-.44.153c-8.524,2.637-17.052-5.416-24.852-2.928-8.508,2.7-8.87,10.732-19.975,11.07-11.6.365-16.372-6.535-25.957-9.664-28.5,20.848-50.377,7.671-63.613-1.5-.02-.02-.039-.02-.059-.039-13.236-9.153-19.861,2.047-41.26,2.562A12.966,12.966,0,0,1,88,504.544c-6.378-5.109-6.19-16.447-1.081-23.167a13.832,13.832,0,0,1,2.087-2.24,12.839,12.839,0,0,1,12.328-2.488c-5.6-18.325,16.8-23.414,23.426-8.143-1.026-5.093,4.578-14.776,15.268-8.154-6.606-9.164,3.572-18.832,10.1-16.285-6.63-11.487.208-22.318,10.06-27.022,7.612-3.667,17.02-3.647,23.339,2.562,6.323-14.753,34.921-15.778,40.03,10.713,11.259-5.286,19.4-9.475,31.557-1.918,10.119,6.3,11.448,19.633,6.209,29.356,10.52-2.68,16.788,13.138,5.545,15.743C272.035,472.873,276.8,476.779,279.647,481.247Z" transform="translate(-83.145 -409.281)" fill="#f6f6f6"/>
    </clipPath>
  </defs>
  <g id="Grupo_996900" data-name="Grupo 996900" transform="translate(0 16.267)">
    <path id="Trazado_652459" data-name="Trazado 652459" d="M90.7,429.038a21.333,21.333,0,0,1,8.85-4.5v-.023a15.858,15.858,0,0,1,13.157,2.378c-5.085-14.277,17.83-22.428,23.945-9.176,3.057-12.222,28.008-15.279,29.828,3.537-9.852,4.7-16.69,15.535-10.06,27.022-6.531-2.547-16.71,7.121-10.1,16.285-10.689-6.622-16.293,3.061-15.268,8.154-6.626-15.271-29.03-10.182-23.426,8.143a12.839,12.839,0,0,0-12.328,2.488c-20.962-4.138-15.193-26.409-5.867-26.409C80.008,446.373,83.328,435.267,90.7,429.038Z" transform="translate(-80.999 -407.845)" fill="#fff"/>
    <g id="Grupo_996899" data-name="Grupo 996899" clip-path="url(#clip-path)">
      <path id="Trazado_652460" data-name="Trazado 652460" d="M163.909,417.621c56.79-16.148,109.6-5.439,117.939,23.917,8.343,29.321-30.928,66.214-87.71,82.378-56.8,16.148-109.608,5.435-117.947-23.909S107.126,433.78,163.909,417.621Z" transform="translate(-98.36 -401.241)" fill="#fff" style="mix-blend-mode: multiply;isolation: isolate"/>
    </g>
  </g>
  <g id="Grupo_996902" data-name="Grupo 996902" transform="translate(12.31)">
    <path id="Trazado_652462" data-name="Trazado 652462" d="M279.647,481.247a20.264,20.264,0,0,1,1.56,2.885c-6.8.507,3.641.657,0,15.309,6.083,10.745-11.735,5.256-8.316,8.121a3.431,3.431,0,0,1-.44.153c-8.524,2.637-17.052-5.416-24.852-2.928-8.508,2.7-8.87,10.732-19.975,11.07-11.6.365-16.372-6.535-25.957-9.664-28.5,20.848-50.377,7.671-63.613-1.5-.02-.02-.039-.02-.059-.039-13.236-9.153-19.861,2.047-41.26,2.562A12.966,12.966,0,0,1,88,504.544c-6.378-5.109-6.19-16.447-1.081-23.167a13.832,13.832,0,0,1,2.087-2.24,12.839,12.839,0,0,1,12.328-2.488c-5.6-18.325,16.8-23.414,23.426-8.143-1.026-5.093,4.578-14.776,15.268-8.154-6.606-9.164,3.572-18.832,10.1-16.285-6.63-11.487.208-22.318,10.06-27.022,7.612-3.667,17.02-3.647,23.339,2.562,6.323-14.753,34.921-15.778,40.03,10.713,11.259-5.286,19.4-9.475,31.557-1.918,10.119,6.3,11.448,19.633,6.209,29.356,10.52-2.68,16.788,13.138,5.545,15.743C272.035,472.873,276.8,476.779,279.647,481.247Z" transform="translate(-83.145 -409.281)" fill="#f6f6f6"/>
    <g id="Grupo_996901" data-name="Grupo 996901" clip-path="url(#clip-path-2)">
      <path id="Trazado_652463" data-name="Trazado 652463" d="M203.161,420.395c56.79-16.148,109.6-5.443,117.943,23.9s-30.928,66.234-87.714,82.386-109.608,5.439-117.943-23.909S146.374,436.546,203.161,420.395Z" transform="translate(8.22 -398.762)" fill="#f6f6f6" style="mix-blend-mode: multiply;isolation: isolate"/>
    </g>
  </g>
</svg>
