<svg xmlns="http://www.w3.org/2000/svg" xmlns:xlink="http://www.w3.org/1999/xlink" width="563.554" height="336.955" viewBox="0 0 563.554 336.955">
  <defs>
    <linearGradient id="linear-gradient" x1="0.31" y1="-0.626" x2="0.563" y2="1.068" gradientUnits="objectBoundingBox">
      <stop offset="0" stop-color="#68a5b3"/>
      <stop offset="1"/>
    </linearGradient>
    <linearGradient id="linear-gradient-2" x1="-0.181" y1="0.049" x2="0.336" y2="0.405" gradientUnits="objectBoundingBox">
      <stop offset="0.126" stop-color="#6e2b0e"/>
      <stop offset="0.346" stop-color="#b08a7b"/>
      <stop offset="0.451" stop-color="#c8aea3"/>
      <stop offset="0.571" stop-color="#dcccc5"/>
      <stop offset="0.78" stop-color="#f5f0ee"/>
      <stop offset="1" stop-color="#fff"/>
    </linearGradient>
    <linearGradient id="linear-gradient-3" x1="0.826" y1="-0.433" x2="0.582" y2="0.377" gradientUnits="objectBoundingBox">
      <stop offset="0" stop-color="#13bfbf"/>
      <stop offset="1" stop-color="#fff"/>
    </linearGradient>
    <clipPath id="clip-path">
      <path id="Trazado_652455" data-name="Trazado 652455" d="M329.418,478.551c.02.02.039.02.059.039l-.059.075c-14.3,1.254-27.246,8.072-41.374,11.471a158.525,158.525,0,0,1-32.453,4.232c-25.367.743-49.54-7.828-74.887-7.651-30.9.208-102.864,10.693-134.44-3.568-14.886-6.72-23.469-15.743-26.809-25.218-3.667-10.387-1.065-21.323,6.437-30.437,13.138-15.955,35.432-9.687,41.621,5.977l-.039.02c-17.091-11.066-22.231,21.893.743,16.9-.99,10.65,5.431,9.888,14.851,7.557,6.641-1.651,14.792-4.083,22.9-3.835,13.141.4,28.142-4.79,40.733-2.055,10.937,2.378,16.612,11.566,25.859,16.466,19.885,10.465,40.922-14.454,59.1,1.745,8.9,7.938,11.353,15.3,25.308,13.9,7.5-.758,15-4.083,22.463-5.734a12.966,12.966,0,0,0,8.736,2.676C309.556,480.6,316.182,469.4,329.418,478.551Z" transform="translate(-17.81 -418.192)" fill="url(#linear-gradient)" style="mix-blend-mode: screen;isolation: isolate"/>
    </clipPath>
    <radialGradient id="radial-gradient" cx="0.5" cy="0.5" r="0.486" gradientTransform="matrix(-0.016, -0.998, 1.029, -0.251, 179.139, -4.387)" gradientUnits="objectBoundingBox">
      <stop offset="0.181" stop-color="#648e86"/>
      <stop offset="0.742" stop-color="#1d2a27"/>
      <stop offset="1"/>
    </radialGradient>
    <radialGradient id="radial-gradient-2" cx="0.5" cy="0.5" r="0.409" gradientTransform="matrix(-0.045, -0.987, 1.223, -0.724, 339.598, 8.596)" xlink:href="#radial-gradient"/>
    <linearGradient id="linear-gradient-5" x1="-0.297" y1="21.916" x2="1.405" y2="-24.356" gradientUnits="objectBoundingBox">
      <stop offset="0" stop-color="#598c9c"/>
      <stop offset="1"/>
    </linearGradient>
    <linearGradient id="linear-gradient-6" x1="0.246" y1="4.704" x2="0.886" y2="-5.204" xlink:href="#linear-gradient-5"/>
    <linearGradient id="linear-gradient-7" x1="0.41" y1="2.028" x2="0.584" y2="-0.782" xlink:href="#linear-gradient-5"/>
  </defs>
  <g id="Grupo_1000269" data-name="Grupo 1000269" transform="translate(13055.553 12254.301)">
    <g id="Grupo_1000268" data-name="Grupo 1000268" transform="translate(-13055.553 -12254.301)">
      <g id="Grupo_996894" data-name="Grupo 996894" transform="translate(255.833 158.259)">
        <path id="Trazado_652439" data-name="Trazado 652439" d="M56.715,401.656,53.9,405.081c32.1,37.952,55.146,86.995,67.5,136.28l7.318.417C105.693,456.929,56.715,401.656,56.715,401.656Z" transform="translate(-13.417 -375.5)" fill="#785534"/>
        <path id="Trazado_652440" data-name="Trazado 652440" d="M56.715,401.656,53.9,405.081c32.1,37.952,55.146,86.995,67.5,136.28l7.318.417C105.693,456.929,56.715,401.656,56.715,401.656Z" transform="translate(-13.417 -375.5)" fill="url(#linear-gradient-2)" style="mix-blend-mode: multiply;isolation: isolate"/>
        <path id="Trazado_652441" data-name="Trazado 652441" d="M49.377,420.967c6.838-9.742,12.074-15.655,29-19.311C72.732,415.79,63.875,412.966,49.377,420.967Z" transform="translate(-35.076 -375.5)" fill="#548722"/>
        <path id="Trazado_652443" data-name="Trazado 652443" d="M61.427,401.616a46.311,46.311,0,0,1-4.5,35.429S45.685,418.492,61.427,401.616Z" transform="translate(-17.562 -375.692)" fill="#72b82e"/>
        <path id="Trazado_652444" data-name="Trazado 652444" d="M87.391,404.241c-28.684-12.329-40.486,15.8-40.486,15.8A351.265,351.265,0,0,0,87.391,404.241Z" transform="translate(-46.905 -378.085)" fill="#548722"/>
        <path id="Trazado_652445" data-name="Trazado 652445" d="M68.85,423.29c-8.747-10.645-17.483-26.156-17.483-26.156S67.67,400.294,68.85,423.29Z" transform="translate(-25.553 -397.135)" fill="#548722"/>
        <path id="Trazado_652446" data-name="Trazado 652446" d="M83.312,412.353c-26.428-23.009-34.967-8.3-34.967-8.3A190.958,190.958,0,0,1,83.312,412.353Z" transform="translate(-40.014 -386.197)" fill="#72b82e"/>
      </g>
      <g id="Grupo_996893" data-name="Grupo 996893" transform="translate(0 0)">
        <path id="Trazado_652338" data-name="Trazado 652338" d="M96.86,510.72c2.124-.931,3.2-3.153,2.409-4.965s-3.16-2.528-5.284-1.6-3.2,3.153-2.409,4.965S94.735,511.65,96.86,510.72Z" transform="translate(10.165 -431.28)" fill="#8e5649"/>
        <path id="Trazado_652339" data-name="Trazado 652339" d="M100.713,503.389c.868-2.152.083-4.5-1.752-5.235s-4.026.406-4.892,2.558-.085,4.5,1.752,5.234S99.846,505.541,100.713,503.389Z" transform="translate(12.272 -436.389)" fill="#8e5649"/>
        <path id="Trazado_652340" data-name="Trazado 652340" d="M123.6,508.706c-17.2-4.571-33.816-3.277-47.483-.109C70.9,506.289,41.3,496.455,41.3,496.455c29.309-14.409,69.5-6.379,84.765,10.307Z" transform="translate(-33.736 -444.251)" fill="#737f2e"/>
        <path id="Trazado_652341" data-name="Trazado 652341" d="M125.981,527.605c1.564-18.517-3.3-44.208-20.566-55.15-11.86-4.077-44.978,2.094-50.172,4.972,0,0,29.506,6.685,42.574,14.668,25.877,15.806,25.463,35.491,25.463,35.491Z" transform="translate(-21.5 -459.939)" fill="#737f2e"/>
        <path id="Trazado_652342" data-name="Trazado 652342" d="M201.42,643.84c63.247.036,80.279-5.063,80.79-12.157.494-6.856-7.064-7.327-5.99-8.894,4.447-6.486,29.461,9.263,61.084,9.881,21.758.424,27.112-29.923,27.112-29.923l17.791,54.234Z" transform="translate(106.819 -344.377)" fill="#c0ffff"/>
        <g id="Grupo_996874" data-name="Grupo 996874" transform="translate(252.094 212.081)">
          <path id="Trazado_652343" data-name="Trazado 652343" d="M176.415,578.1l3.433.227c1.823,3.519,5.906,14.416-7.254,27.249l-1.072-.815C182.91,590.923,176.475,578.2,176.415,578.1Z" transform="translate(-171.521 -578.097)" fill="#d38b63"/>
        </g>
        <path id="Trazado_652344" data-name="Trazado 652344" d="M126.492,643.764c-4.636-11.53-6.587-36.068,3.66-38.635s13.905,4.987,13.905,4.987,7.806-9.744,20.493-5.848,13.661,14.292,13.661,14.292,14.394-5.6,18.786,1.5,6.343,17.017,6.343,17.017Z" transform="translate(37.735 -343.848)" fill="#a0a047"/>
        <path id="Trazado_652345" data-name="Trazado 652345" d="M163.711,639.151c-4.295-9.072-6.1-27.617,3.391-28.551s12.882,5.07,12.882,5.07,7.233-6.537,18.987-2.4,12.657,12.007,12.657,12.007,13.335-2.8,17.4,2.935a44.265,44.265,0,0,1,5.876,13.342Z" transform="translate(70.651 -337.57)" fill="#a0a047"/>
        <path id="Trazado_652346" data-name="Trazado 652346" d="M404.03,635.8,86.809,613.987v29.138l317.221,3.817Z" transform="translate(6.209 -334.51)" fill="#ffce43"/>
        <path id="Trazado_652347" data-name="Trazado 652347" d="M75.619,660.489c-7.042-25.2-2.026-76.711,13.539-79.307s21.122,14.084,21.122,14.084,11.859-18.159,31.131-6.672,20.752,33.354,20.752,33.354,21.864-7.784,28.536,8.152,9.635,37.059,9.635,37.059Z" transform="translate(-6.355 -363.548)" fill="#a08120"/>
        <path id="Trazado_652348" data-name="Trazado 652348" d="M125.735,642.61c-25.878-17.4-39.94-43.16-35.1-61.657-.484.045-.976.107-1.48.19-15.565,2.595-20.581,54.106-13.539,79.306l124.715,6.67s-1-7.1-3.136-16.172C182.237,663.459,152.263,660.444,125.735,642.61Z" transform="translate(-6.355 -363.509)" fill="#8e6f17"/>
        <path id="Trazado_652349" data-name="Trazado 652349" d="M194.548,592.982l-.691.948c7.692,11.276,20.45,41.425,20.936,72.128l1.857.165C214.776,621.215,194.548,592.982,194.548,592.982Z" transform="translate(100.18 -352.949)" fill="#6d4438"/>
        <path id="Trazado_652350" data-name="Trazado 652350" d="M211.643,621.046l-1.255-.141.721,11.578,1.218.082Z" transform="translate(114.691 -328.437)" fill="#703a24"/>
        <path id="Trazado_652351" data-name="Trazado 652351" d="M228.888,622.588l.952.109-1.39,11.053-.937-.061Z" transform="translate(129.724 -326.96)" fill="#703a24"/>
        <path id="Trazado_652352" data-name="Trazado 652352" d="M244.434,618.141,210.334,613l3.216,19.349,32.076,3.158Z" transform="translate(114.644 -335.376)" fill="#935537"/>
        <path id="Trazado_652353" data-name="Trazado 652353" d="M229.793,633.606l15.426-4.03-.785-11.435L210.334,613l3.216,19.349,16.334,1.608Z" transform="translate(114.644 -335.376)" fill="#87462d"/>
        <path id="Trazado_652354" data-name="Trazado 652354" d="M232.128,622.954l.9.1-1.477,10.75-.889-.058Z" transform="translate(132.49 -326.638)" fill="#935537"/>
        <path id="Trazado_652355" data-name="Trazado 652355" d="M209.328,620.419l-1.3-.149.85,10.856,1.263.093Z" transform="translate(112.619 -328.994)" fill="#935537"/>
        <path id="Trazado_652356" data-name="Trazado 652356" d="M255.813,627.5l-48.731-5.18.015,1.262,48.662,4.5Z" transform="translate(111.79 -327.195)" fill="#935537"/>
        <path id="Trazado_652357" data-name="Trazado 652357" d="M207.462,629.906c7.571,2.661,34.6,4.405,44,.73-2.576-10.5-20.51-22.738-25.366-25C221.874,606.125,208.461,617.807,207.462,629.906Z" transform="translate(112.123 -341.842)" fill="#dd9b6f"/>
        <path id="Trazado_652358" data-name="Trazado 652358" d="M230.257,624.062c-6.631-4.358-10.88-10.48-11.656-15.918-5.046,4.606-10.516,12-11.139,19.56,7.571,2.661,34.6,4.405,44,.73-.051-.206-.116-.415-.18-.623C245.928,630.2,237.673,628.935,230.257,624.062Z" transform="translate(112.123 -339.639)" fill="#c17c56"/>
        <path id="Trazado_652359" data-name="Trazado 652359" d="M215.532,662.277c28.859-3.8,45.076-10.974,62.2-7.288s31.632-19.546,42.74-20.136c27.98-1.482,15.272-46.272,15.272-46.272l62.735,87.011Z" transform="translate(119.207 -356.813)" fill="#7df1f4"/>
        <path id="Trazado_652360" data-name="Trazado 652360" d="M219.205,670.184c29.418-4.854,40.345-13.883,57.646-10.555,17.021,3.273,37.4-18.681,48.176-18.53,39.16.55,52.149-55.2,52.149-55.2l19.188,91.678Z" transform="translate(122.431 -359.167)" fill="#58d1dd"/>
        <path id="Trazado_652361" data-name="Trazado 652361" d="M481.991,643.046,72.58,615.369v40.316l409.411,1.533Z" transform="translate(-6.281 -333.297)" fill="#eda44c"/>
        <path id="Trazado_652362" data-name="Trazado 652362" d="M229.536,626.777,72.58,623.812V613.683Z" transform="translate(-6.281 -334.777)" fill="#ffce43"/>
        <path id="Trazado_652363" data-name="Trazado 652363" d="M93.917,499.568,91.5,502.931c24.064,34.755,63.473,132.851,60.633,236.553l6.473.562C158.709,587.854,93.917,499.568,93.917,499.568Z" transform="translate(10.324 -434.951)" fill="#6d4438"/>
        <path id="Trazado_652364" data-name="Trazado 652364" d="M132.617,626.041l.745-10.188-11.735,1.359,1.352,8.114Z" transform="translate(36.774 -332.872)" fill="#a08120"/>
        <path id="Trazado_652365" data-name="Trazado 652365" d="M220.485,581.144l-118.431,6.062,4.346,62.759H230.175Z" transform="translate(19.592 -363.341)" fill="#b7745a"/>
        <path id="Trazado_652366" data-name="Trazado 652366" d="M150.377,642.127l74.629-28.866-4.522-32.117-118.431,6.062,4.346,62.759h47.01Z" transform="translate(19.592 -363.341)" fill="#9e543e"/>
        <path id="Trazado_652367" data-name="Trazado 652367" d="M166.8,601.339l-27.532-.877L138.6,614.19H169.54Z" transform="translate(51.67 -346.383)" fill="#4c2821"/>
        <path id="Trazado_652368" data-name="Trazado 652368" d="M132.482,601.162l-18.613,1.974-.029,27.117h21.494Z" transform="translate(29.938 -345.769)" fill="#4c2821"/>
        <path id="Trazado_652369" data-name="Trazado 652369" d="M92.358,648.856c34.575,7.162,129.443,1.457,155.5-9.3-18.194-52.243-80.364-96.181-95.805-100.38C144.105,543.813,99.253,574.46,92.358,648.856Z" transform="translate(11.081 -400.179)" fill="#f9b087"/>
        <path id="Trazado_652370" data-name="Trazado 652370" d="M160.18,604.057c-16.962-15.772-27.955-34.948-32.265-53.652C113.02,567.6,96.345,595.986,92.358,639c31.457,6.516,112.817,2.379,146.86-6.518C214.395,636.361,184.3,626.48,160.18,604.057Z" transform="translate(11.081 -390.325)" fill="#d38b63"/>
        <path id="Trazado_652371" data-name="Trazado 652371" d="M481.991,645.414,72.58,617.737v40.316l409.411,1.533Z" transform="translate(-6.281 -331.219)" fill="#eda44c"/>
        <path id="Trazado_652372" data-name="Trazado 652372" d="M256.341,630.581,72.58,616.948v40.316l159.266-3.97Z" transform="translate(-6.281 -331.912)" fill="#d17a39"/>
        <path id="Trazado_652373" data-name="Trazado 652373" d="M161.715,617.055h3.749l-.553,14.3h-1.948Z" transform="translate(71.964 -331.817)" fill="#703a24"/>
        <path id="Trazado_652374" data-name="Trazado 652374" d="M101.032,609.177l-2.8.458L104,635.423h2.409Z" transform="translate(16.235 -338.733)" fill="#703a24"/>
        <path id="Trazado_652375" data-name="Trazado 652375" d="M263.607,651.4c-35.846-4.773-43.243-23.358-36.413-25.653L361.9,631.5Z" transform="translate(127.433 -324.186)" fill="#d17a39"/>
        <path id="Trazado_652376" data-name="Trazado 652376" d="M174.57,608.7h3.749l-.553,45.6h-3.749Z" transform="translate(82.764 -339.151)" fill="#935537"/>
        <path id="Trazado_652377" data-name="Trazado 652377" d="M96.166,608.964H92.417l5.471,37.023h3.749Z" transform="translate(11.132 -338.92)" fill="#703a24"/>
        <path id="Trazado_652378" data-name="Trazado 652378" d="M261.125,617.637,90.284,616.21l.372,4.279,170.681-.416Z" transform="translate(9.26 -332.559)" fill="#703a24"/>
        <path id="Trazado_652379" data-name="Trazado 652379" d="M278.248,640.616c-6.3-.088-1.373,6.544-10.048,6.007-9.7-.6-9.25-4.005-22.431-7.417-15.261-3.951-11.151,6.411-23.9,4.55-14.467-2.115-24.333-9.091-37.292-11.194-14.45-2.346-14.031,4.969-20.177,6.186-18.358,3.634-45.352-19.845-81.357-11.93-15.242,3.35-12.23,25.94,79.733,29.523l149.992.477-.062-17.866C300.634,649.348,284.066,640.7,278.248,640.616Z" transform="translate(-3.207 -324.688)" fill="#7df1f4"/>
        <path id="Trazado_652380" data-name="Trazado 652380" d="M347.517,640.616c-6.3-.088-1.373,6.544-10.048,6.007-9.7-.6-9.25-4.005-22.431-7.417-15.261-3.951-11.151,6.411-23.9,4.55-14.467-2.115-24.333-9.091-37.294-11.194-14.448-2.346-14.029,4.969-20.175,6.186-18.358,3.634-45.352-19.845-81.357-11.93-15.242,3.35-12.23,25.94,79.733,29.523l149.992.477-.062-17.866C369.9,649.348,353.335,640.7,347.517,640.616Z" transform="translate(57.599 -324.688)" fill="#7df1f4"/>
        <g id="Grupo_996875" data-name="Grupo 996875" transform="translate(202.829 299.516)">
          <path id="Trazado_652381" data-name="Trazado 652381" d="M271.725,632.7l0-.184c-.255.22-.514.419-.776.623C271.209,632.993,271.468,632.85,271.725,632.7Z" transform="translate(-34.976 -617.764)" fill="#c0ffff"/>
          <path id="Trazado_652382" data-name="Trazado 652382" d="M256.577,633.451c-.259-.028-.507-.049-.736-.052-4.924-.07-2.988,3.971-6.056,5.479C256.284,638.951,254.857,635.286,256.577,633.451Z" transform="translate(-53.554 -616.987)" fill="#c0ffff"/>
          <path id="Trazado_652383" data-name="Trazado 652383" d="M243.286,642.943l52.783.168-.008-2.319Z" transform="translate(-59.259 -610.497)" fill="#c0ffff"/>
          <path id="Trazado_652384" data-name="Trazado 652384" d="M155.561,634.894c35.623-9.489,63.623,12.782,81.8,8.345,6.088-1.485,5.348-8.773,19.886-7.064,13.04,1.53,23.2,8.069,37.748,9.545,11.494,1.166,9.021-6.888,19.509-6.2-14.553-3.525-10.732,6.527-23.31,4.691-14.467-2.115-24.573-10.018-37.534-12.121-14.448-2.344-13.988,5.207-20.134,6.424-18.358,3.634-45.523-20.143-81.53-12.23-6.783,1.491-9.571,7.782-2.892,13.524C149.834,637.566,152.23,635.78,155.561,634.894Z" transform="translate(-145.286 -624.658)" fill="#c0ffff"/>
        </g>
        <path id="Trazado_652385" data-name="Trazado 652385" d="M381.7,634.1a21.064,21.064,0,0,1-12.55,5.033l.011,3.57c-121.515,8.837-175.1,8.321-223.489-11.992,3.746,7.909,25.8,18.429,86.1,20.778l149.992.477Z" transform="translate(57.88 -319.833)" fill="#4ecfdd"/>
        <path id="Trazado_652386" data-name="Trazado 652386" d="M544.717,587.257c-50.2-72.7-168.186-19.323-132.22-16.715,78.118,5.665,135.182,101.26,26.543,132.1C315.882,737.6,72.58,694.981,72.58,694.981v29.195H567.966S579.622,637.807,544.717,587.257Z" transform="translate(-6.281 -391.37)" fill="#7df1f4"/>
        <path id="Trazado_652387" data-name="Trazado 652387" d="M483.053,602.327c-50.2-72.7-175.585-39.855-139.619-37.247,78.118,5.665,135,108.5,25.8,137.287-62.795,16.551-175.486,12.934-253.727,7.609v8.738H498.9S517.958,652.876,483.053,602.327Z" transform="translate(31.404 -385.908)" fill="#4acfdd"/>
        <path id="Trazado_652388" data-name="Trazado 652388" d="M525.656,602.327c-50.2-72.7-175.585-39.855-139.619-37.247,78.118,5.665,135,108.5,25.8,137.287-102.843,27.1-339.514.122-339.514.122v16.224H541.507S560.561,652.876,525.656,602.327Z" transform="translate(-6.504 -385.908)" fill="#46bdd1"/>
        <path id="Trazado_652389" data-name="Trazado 652389" d="M361.435,617.882c-24.7-25.661-52.887-34.635-79.87-28.312,8.437,17.2,9.145,35.977-1.6,52.057,25.176,7.312,42.674,30.41,53.034,48.833h29.121S368.788,650.149,361.435,617.882Z" transform="translate(175.765 -357.655)" fill="#4ecfdd"/>
        <path id="Trazado_652390" data-name="Trazado 652390" d="M206.309,592.761c-2.98,4.33-10.739,10.57-25.927,10.982l9.787-7.677A41.677,41.677,0,0,0,206.309,592.761Z" transform="translate(88.351 -353.143)" fill="#82933b"/>
        <path id="Trazado_652391" data-name="Trazado 652391" d="M140.769,498.909c-39.228-5.453-74.171,11.678-103.495,32.772l48.61-3.294c21.028-11.378,37.329-22.048,54.3-26.416Z" transform="translate(-37.274 -436.427)" fill="#82933b"/>
        <g id="Grupo_996876" data-name="Grupo 996876" transform="translate(102.932 141.469)">
          <path id="Trazado_652392" data-name="Trazado 652392" d="M96.046,583.307l-3.958-3.759c.079-.193,11.01-21.978,52.093-39.053l.471.432C103.522,559.866,96.127,583.113,96.046,583.307Z" transform="translate(-92.088 -540.494)" fill="#dd9b6f"/>
        </g>
        <g id="Grupo_996877" data-name="Grupo 996877" transform="translate(319.005 269.703)">
          <path id="Trazado_652393" data-name="Trazado 652393" d="M208.268,620.445l-1.115-.753c.054-.084,4.912-7.782,11.472-10.91l.314.5C212.308,612.881,208.319,620.361,208.268,620.445Z" transform="translate(-207.153 -608.782)" fill="#c17c56"/>
        </g>
        <g id="Grupo_996878" data-name="Grupo 996878" transform="translate(317.912 275.462)">
          <path id="Trazado_652394" data-name="Trazado 652394" d="M207.833,625.632l-1.262-.466c.034-.1,2.931-8.724,8.563-13.318l.423.415C209.966,617.329,207.861,625.538,207.833,625.632Z" transform="translate(-206.571 -611.849)" fill="#c17c56"/>
        </g>
        <g id="Grupo_996879" data-name="Grupo 996879" transform="translate(321.376 265.75)">
          <path id="Trazado_652395" data-name="Trazado 652395" d="M209.438,615.381l-1.022-1.055c.071-.068,6.452-6.358,13.789-7.648l.233.586C214.947,609,209.5,615.311,209.438,615.381Z" transform="translate(-208.416 -606.677)" fill="#dd9b6f"/>
        </g>
        <g id="Grupo_996880" data-name="Grupo 996880" transform="translate(337.946 259.974)">
          <path id="Trazado_652396" data-name="Trazado 652396" d="M217.24,604.561l.657-.96c.066.043,5.966,4.009,8.131,9.509l-.419.276C223.076,607.834,217.3,604.6,217.24,604.561Z" transform="translate(-217.24 -603.601)" fill="#dd9b6f"/>
        </g>
        <g id="Grupo_996881" data-name="Grupo 996881" transform="translate(349.79 264.779)">
          <path id="Trazado_652397" data-name="Trazado 652397" d="M229.365,614.36l-.464.92a20.777,20.777,0,0,1-5.354-8.854l.289-.267A17.862,17.862,0,0,0,229.365,614.36Z" transform="translate(-223.547 -606.16)" fill="#dd9b6f"/>
        </g>
        <g id="Grupo_996882" data-name="Grupo 996882" transform="translate(333.65 274.29)">
          <path id="Trazado_652398" data-name="Trazado 652398" d="M219.136,623.052l-.883.943a26.032,26.032,0,0,1-3.294-12.55l.441-.22A22.423,22.423,0,0,0,219.136,623.052Z" transform="translate(-214.952 -611.225)" fill="#dd9b6f"/>
        </g>
        <g id="Grupo_996883" data-name="Grupo 996883" transform="translate(315.052 265.22)">
          <path id="Trazado_652399" data-name="Trazado 652399" d="M206.351,616.288l-.9.5a20.78,20.78,0,0,1,.577-10.334l.389-.058A17.877,17.877,0,0,0,206.351,616.288Z" transform="translate(-205.048 -606.395)" fill="#dd9b6f"/>
        </g>
        <g id="Grupo_996884" data-name="Grupo 996884" transform="translate(168.834 130.026)">
          <path id="Trazado_652400" data-name="Trazado 652400" d="M127.262,536.3l-.079-1.9c.175.036,18.9,4.852,35.72,22.429l-.368.55C144.615,540.124,127.433,536.332,127.262,536.3Z" transform="translate(-127.183 -534.4)" fill="#f9b087"/>
        </g>
        <g id="Grupo_996885" data-name="Grupo 996885" transform="translate(151.09 116.267)">
          <path id="Trazado_652401" data-name="Trazado 652401" d="M120.545,527.073l-2.806.261c-.019.148-.635,15.911,18.639,27.747l.976-.421C119.024,541.786,120.528,527.219,120.545,527.073Z" transform="translate(-117.734 -527.073)" fill="#f9b087"/>
        </g>
        <g id="Grupo_996886" data-name="Grupo 996886" transform="translate(127.159 145.557)">
          <path id="Trazado_652402" data-name="Trazado 652402" d="M108.622,617.221l-3.632-.083c.006-.372,2.244-40.357,29.837-74.468l1.2.871C109.472,580.1,108.627,616.855,108.622,617.221Z" transform="translate(-104.99 -542.671)" fill="#f9b087"/>
        </g>
        <g id="Grupo_996887" data-name="Grupo 996887" transform="translate(80.189 168.606)">
          <path id="Trazado_652403" data-name="Trazado 652403" d="M79.977,558.5l2.464-3.551c.24.252,19.417,22.714,15.7,44.5l-.836.18C98.93,577.688,80.21,558.729,79.977,558.5Z" transform="translate(-79.977 -554.945)" fill="#dd9b6f"/>
        </g>
        <path id="Trazado_652404" data-name="Trazado 652404" d="M99.217,580.758c-5.782,18.035-7.784,38.171-7.784,38.171l3.707.186C95.422,608.135,99.217,580.758,99.217,580.758Z" transform="translate(10.269 -363.68)" fill="#d38b63"/>
        <path id="Trazado_652405" data-name="Trazado 652405" d="M111.144,584.4c-2.389,18.788-.678,38.95-.678,38.95l3.679-.5C112.416,612.008,111.144,584.4,111.144,584.4Z" transform="translate(26.456 -360.483)" fill="#d38b63"/>
        <path id="Trazado_652406" data-name="Trazado 652406" d="M100.882,580.848c-2.389,18.786-.678,38.95-.678,38.95l3.677-.5C102.154,608.456,100.882,580.848,100.882,580.848Z" transform="translate(17.448 -363.601)" fill="#d38b63"/>
        <path id="Trazado_652407" data-name="Trazado 652407" d="M122.069,584.131c6.614,17.746,17.5,34.8,17.5,34.8l3.025-2.146C136.021,607.987,122.069,584.131,122.069,584.131Z" transform="translate(37.162 -360.719)" fill="#d38b63"/>
        <path id="Trazado_652408" data-name="Trazado 652408" d="M140.4,583.359c9.686,16.271,23.452,31.1,23.452,31.1l2.591-2.655C158.4,604.327,140.4,583.359,140.4,583.359Z" transform="translate(53.254 -361.396)" fill="#d38b63"/>
        <path id="Trazado_652409" data-name="Trazado 652409" d="M117.135,563.509c6.614,17.744,17.5,34.8,17.5,34.8l3.027-2.146C131.089,587.363,117.135,563.509,117.135,563.509Z" transform="translate(32.831 -378.822)" fill="#f9b087"/>
        <path id="Trazado_652410" data-name="Trazado 652410" d="M117.7,570.639c4.056,18.5,12.437,36.915,12.437,36.915l3.3-1.7C128.164,596.217,117.7,570.639,117.7,570.639Z" transform="translate(33.326 -372.563)" fill="#f9b087"/>
        <path id="Trazado_652411" data-name="Trazado 652411" d="M129.465,577.732c10.445,15.8,24.9,29.957,24.9,29.957l2.466-2.773C148.441,597.825,129.465,577.732,129.465,577.732Z" transform="translate(43.654 -366.336)" fill="#f9b087"/>
        <path id="Trazado_652412" data-name="Trazado 652412" d="M156.9,580.3c10.446,15.794,24.9,29.957,24.9,29.957l2.464-2.775C175.872,600.389,156.9,580.3,156.9,580.3Z" transform="translate(67.734 -364.084)" fill="#f9b087"/>
        <path id="Trazado_652413" data-name="Trazado 652413" d="M110.6,569.49c-15.579,31.074-21.961,50.168-21.961,50.168l3.035.892C94.739,609.676,110.6,569.49,110.6,569.49Z" transform="translate(7.813 -373.571)" fill="#d38b63"/>
        <path id="Trazado_652414" data-name="Trazado 652414" d="M315.405,536.063c-30.759-.37-28.906,12.97-28.906,12.97s-19.64-6.67-44.469,5.188-14.084,30.389-14.084,30.389c-15.194,10.747-14.3,25.85-9.263,34.464,14.082,24.089,36.235,12.119,44.1,6.3,18.529-13.712,12.42-51.034,57.071-49.659,43.393,1.337,80.046,33.724,95.219,74.986l21.043-14.874C410.647,555.7,346.164,536.434,315.405,536.063Z" transform="translate(119.082 -402.922)" fill="#7df1f4"/>
        <path id="Trazado_652415" data-name="Trazado 652415" d="M272.461,541.975a75.406,75.406,0,0,0-30.746,7.049c-25.907,11.859-14.692,30.389-14.692,30.389-15.853,10.747-14.921,25.85-9.667,34.464,10.824,17.746,35.463,25.307,55.135-3.66C287.3,588.414,283.95,560.119,272.461,541.975Z" transform="translate(117.792 -397.725)" fill="#b3fff9"/>
        <g id="Grupo_996888" data-name="Grupo 996888" transform="translate(476.313 215.568)">
          <path id="Trazado_652416" data-name="Trazado 652416" d="M309.9,579.954c19.443,21.086,28.045,85.227-18.972,117.237h68.5C357.766,652.065,347.9,607.4,309.9,579.954Z" transform="translate(-290.924 -579.954)" fill="#7df1f4"/>
        </g>
        <g id="Grupo_996889" data-name="Grupo 996889" transform="translate(418.5 246.046)">
          <path id="Trazado_652417" data-name="Trazado 652417" d="M329,596.184c1.4,21.079-10.343,64.554-68.858,86.76h68.5C343.186,651.64,341.83,610.88,329,596.184Z" transform="translate(-260.137 -596.184)" fill="#7df1f4"/>
        </g>
        <ellipse id="Elipse_5865" data-name="Elipse 5865" cx="3.582" cy="4.2" rx="3.582" ry="4.2" transform="translate(98.614 86.2)" fill="#6d4438"/>
        <path id="Trazado_652418" data-name="Trazado 652418" d="M115.449,497.794c-12.7,10.465-19.274,15.2-31.824,20.789C81.108,522.908,65.3,552.89,65.3,552.89c32.479-10.711,51.834-38.278,52.82-55.092Z" transform="translate(-12.672 -436.508)" fill="#82933b"/>
        <path id="Trazado_652419" data-name="Trazado 652419" d="M104.424,530.571c39.174-15.787,36.791-81.577-27.3-61.709,0,0,21.139,6.845,27.826,22.048,8.48,19.276-.883,37.859-.883,37.859Z" transform="translate(-2.296 -465.158)" fill="#9ead47"/>
        <path id="Trazado_652420" data-name="Trazado 652420" d="M128.189,519.991c-34.973.285-57.238-19.546-73.209-42.324l39.275,8.83c12.966,12.91,22.273,24.607,34.684,30.629Z" transform="translate(-21.731 -454.178)" fill="#9ead47"/>
        <path id="Trazado_652421" data-name="Trazado 652421" d="M204.4,599.068c-1.035-5.177-4.137-11.089-9.286-12.76-3.288-.394-12.17,2.267-13.624,3.142,0,0,8.452.28,12.42,1.59,8.264,2.73,9.665,8.172,9.665,8.172Z" transform="translate(89.328 -358.842)" fill="#737f2e"/>
        <path id="Trazado_652422" data-name="Trazado 652422" d="M209.985,595.011c-10.655-5.966-22.8-5.222-33.81-2.749l14.418,4.625c7.44-.742,13.43-1.827,18.853-1.1Z" transform="translate(84.658 -355.193)" fill="#82933b"/>
        <path id="Trazado_652423" data-name="Trazado 652423" d="M199.164,602.844c8.886-9.887.017-26.316-11.261-17.152,0,0,4.631-.071,7.224,3.294,3.992,5.181,3.7,13.111,3.7,13.111Z" transform="translate(94.953 -361.707)" fill="#9ead47"/>
        <path id="Trazado_652424" data-name="Trazado 652424" d="M193.053,596.969c6.623,5.076,16.48-1.283,10.195-7.891a6.1,6.1,0,0,1-1.713,4.683c-3.05,2.753-8.03,2.959-8.03,2.959Z" transform="translate(99.474 -356.376)" fill="#9ead47"/>
        <ellipse id="Elipse_5866" data-name="Elipse 5866" cx="3.582" cy="4.2" rx="3.582" ry="4.2" transform="translate(102.128 61.214)" fill="#6d4438"/>
        <path id="Trazado_652425" data-name="Trazado 652425" d="M284.679,645.682c-102.532.586-212.353-11.936-212.353-11.936V649.97H294.8Q289.625,647.895,284.679,645.682Z" transform="translate(-6.504 -317.165)" fill="#4ecfdd"/>
        <path id="Trazado_652426" data-name="Trazado 652426" d="M142.038,606.1h-2.085l-.556,4.517h2.085Z" transform="translate(52.373 -341.433)" fill="#9e543e"/>
        <path id="Trazado_652427" data-name="Trazado 652427" d="M152.7,599.358l-.927.093.1,6.425,2.031-.471Z" transform="translate(63.237 -347.352)" fill="#9e543e"/>
        <g id="Grupo_996890" data-name="Grupo 996890" transform="translate(156.846 204.178)">
          <path id="Trazado_652428" data-name="Trazado 652428" d="M167.1,581.208l1.788,4.141c-.357.073-30.827,4.679-48.084-10.621l.3-.839C139.645,587.418,166.759,581.287,167.1,581.208Z" transform="translate(-120.799 -573.888)" fill="#b57454"/>
        </g>
        <g id="Grupo_996891" data-name="Grupo 996891" transform="translate(163.235 168.067)">
          <path id="Trazado_652429" data-name="Trazado 652429" d="M147.295,587.8l-1.549,3.551c-.255-.182-21.019-16.591-21.544-36.391l.7-.3C127.3,574.229,147.049,587.638,147.295,587.8Z" transform="translate(-124.201 -554.658)" fill="#d38b63"/>
        </g>
        <path id="Trazado_652430" data-name="Trazado 652430" d="M216.864,624.4l7.021.408s-1.256-4.066-3.981-4.073S216.864,624.4,216.864,624.4Z" transform="translate(120.376 -328.59)" fill="#5b2c1b"/>
        <path id="Trazado_652431" data-name="Trazado 652431" d="M227.028,621.063l-2.656-.309-.618,5.374H227.4Z" transform="translate(126.425 -328.57)" fill="#5b2c1b"/>
        <path id="Trazado_652432" data-name="Trazado 652432" d="M328.722,554.309c0-6.909-28.072-20.568-50.4-19.086-12.814.851-25.754,7.081-25.754,13.99s10.411,12.508,23.253,12.508S328.722,561.216,328.722,554.309Z" transform="translate(151.718 -403.75)" fill="#b3fff9"/>
        <path id="Trazado_652433" data-name="Trazado 652433" d="M276.559,557.882c0-1.718-12.24-8.107-16.061-8.107s-9.509,3.7-9.509,8.253,5.69,8.253,9.509,8.253S276.559,559.6,276.559,557.882Z" transform="translate(150.332 -390.878)" fill="#b3fff9"/>
        <g id="Grupo_996892" data-name="Grupo 996892" transform="translate(331.847 159.849)">
          <path id="Trazado_652434" data-name="Trazado 652434" d="M219.962,559.933c.193-.139.379-.278.576-.415a14.642,14.642,0,0,1-.875-1.825A20.284,20.284,0,0,0,219.962,559.933Z" transform="translate(-209.014 -543.776)" fill="#7df1f4"/>
          <path id="Trazado_652435" data-name="Trazado 652435" d="M280.526,550.282c2.73,15.282.477,32.3-9.38,46.5-20.052,28.9-44.593,21.417-55.344,3.831a22.774,22.774,0,0,1-1.81-3.7,23.72,23.72,0,0,0,3.282,9.83c10.736,17.558,35.256,25.043,55.3-3.776C283.812,586.813,285.168,567.01,280.526,550.282Z" transform="translate(-213.992 -550.282)" fill="#7df1f4"/>
        </g>
        <path id="Trazado_652436" data-name="Trazado 652436" d="M220.691,556.024a19.891,19.891,0,0,0,2.315,11.346,37.318,37.318,0,0,0-4.511,3.581c7.836,5.682,31.752,7.725,32.667-15.256C247.828,575.645,224.674,575.172,220.691,556.024Z" transform="translate(121.809 -385.681)" fill="#7df1f4"/>
        <path id="Trazado_652437" data-name="Trazado 652437" d="M199.279,629.145c0-1.356-2.075-2.456-4.635-2.456s-4.636,1.1-4.636,2.456,2.077,2.458,4.636,2.458S199.279,630.5,199.279,629.145Z" transform="translate(96.801 -323.36)" fill="#c0ffff"/>
        <path id="Trazado_652438" data-name="Trazado 652438" d="M204.195,628.526c.417-1.164-.712-2.631-2.518-3.277s-3.611-.227-4.026.935.712,2.631,2.518,3.277S203.78,629.688,204.195,628.526Z" transform="translate(103.434 -324.891)" fill="#c0ffff"/>
      </g>
      <g id="Grupo_996938" data-name="Grupo 996938" transform="translate(0 251.555)">
        <path id="Trazado_652449" data-name="Trazado 652449" d="M31.365,429.266s13.747-23.3,29.03-8.473c14.682-5.011,31.14,12.434,34.677,27.1,1.839,7.486.3,14.222-6.531,16.9-9.42,2.33-15.841,3.093-14.851-7.557a30.768,30.768,0,0,1,.456-3.344,24.577,24.577,0,0,0-1.159-13.578C66.8,424.648,44.5,418.38,31.365,434.336c-7.5,9.113-10.1,20.05-6.437,30.437C5.027,443.107,23.219,424.287,31.365,429.266Z" transform="translate(-15.941 -415.856)" fill="#aeede1"/>
        <g id="Grupo_996895" data-name="Grupo 996895" transform="translate(0 0.001)">
          <path id="Trazado_652450" data-name="Trazado 652450" d="M31.365,429.266s13.747-23.3,29.03-8.473c14.682-5.011,31.14,12.434,34.677,27.1,1.839,7.486.3,14.222-6.531,16.9-9.42,2.33-15.841,3.093-14.851-7.557a30.768,30.768,0,0,1,.456-3.344,24.577,24.577,0,0,0-1.159-13.578C66.8,424.648,44.5,418.38,31.365,434.336c-7.5,9.113-10.1,20.05-6.437,30.437C5.027,443.107,23.219,424.287,31.365,429.266Z" transform="translate(-15.941 -415.857)" fill="url(#linear-gradient-3)" style="mix-blend-mode: multiply;isolation: isolate"/>
        </g>
        <path id="Trazado_652451" data-name="Trazado 652451" d="M329.418,478.551c.02.02.039.02.059.039l-.059.075c-14.3,1.254-27.246,8.072-41.374,11.471a158.525,158.525,0,0,1-32.453,4.232c-25.367.743-49.54-7.828-74.887-7.651-30.9.208-102.864,10.693-134.44-3.568-14.886-6.72-23.469-15.743-26.809-25.218-3.667-10.387-1.065-21.323,6.437-30.437,13.138-15.955,35.432-9.687,41.621,5.977l-.039.02c-17.091-11.066-22.231,21.893.743,16.9-.99,10.65,5.431,9.888,14.851,7.557,6.641-1.651,14.792-4.083,22.9-3.835,13.141.4,28.142-4.79,40.733-2.055,10.937,2.378,16.612,11.566,25.859,16.466,19.885,10.465,40.922-14.454,59.1,1.745,8.9,7.938,11.353,15.3,25.308,13.9,7.5-.758,15-4.083,22.463-5.734a12.966,12.966,0,0,0,8.736,2.676C309.556,480.6,316.182,469.4,329.418,478.551Z" transform="translate(-10.467 -409.015)" fill="#248c8e"/>
        <g id="Grupo_996897" data-name="Grupo 996897" transform="translate(7.342 9.177)">
          <path id="Trazado_652452" data-name="Trazado 652452" d="M329.418,478.551c.02.02.039.02.059.039l-.059.075c-14.3,1.254-27.246,8.072-41.374,11.471a158.525,158.525,0,0,1-32.453,4.232c-25.367.743-49.54-7.828-74.887-7.651-30.9.208-102.864,10.693-134.44-3.568-14.886-6.72-23.469-15.743-26.809-25.218-3.667-10.387-1.065-21.323,6.437-30.437,13.138-15.955,35.432-9.687,41.621,5.977l-.039.02c-17.091-11.066-22.231,21.893.743,16.9-.99,10.65,5.431,9.888,14.851,7.557,6.641-1.651,14.792-4.083,22.9-3.835,13.141.4,28.142-4.79,40.733-2.055,10.937,2.378,16.612,11.566,25.859,16.466,19.885,10.465,40.922-14.454,59.1,1.745,8.9,7.938,11.353,15.3,25.308,13.9,7.5-.758,15-4.083,22.463-5.734a12.966,12.966,0,0,0,8.736,2.676C309.556,480.6,316.182,469.4,329.418,478.551Z" transform="translate(-17.81 -418.192)" fill="url(#linear-gradient)" style="mix-blend-mode: screen;isolation: isolate"/>
          <g id="Grupo_996896" data-name="Grupo 996896" clip-path="url(#clip-path)">
            <path id="Trazado_652453" data-name="Trazado 652453" d="M79.954,426.919c26.086-1.639,47.563,2.315,47.968,8.822s-20.408,13.106-46.49,14.741-47.563-2.323-47.964-8.83S53.875,428.546,79.954,426.919Z" transform="translate(28.049 -393.708)" fill="url(#radial-gradient)" style="mix-blend-mode: screen;isolation: isolate"/>
            <path id="Trazado_652454" data-name="Trazado 652454" d="M84.379,431.033c14.077-2.307,25.906-1.623,26.424,1.525s-10.477,7.581-24.554,9.9-25.91,1.627-26.424-1.525S70.3,433.347,84.379,431.033Z" transform="translate(105.239 -384.573)" fill="url(#radial-gradient-2)" style="mix-blend-mode: screen;isolation: isolate"/>
          </g>
        </g>
        <g id="Grupo_996898" data-name="Grupo 996898" transform="translate(86.119 43.889)">
          <path id="Trazado_652456" data-name="Trazado 652456" d="M58.454,434.074a36.043,36.043,0,0,0,6.229,1.879,22.5,22.5,0,0,0,10.512-.8A63.092,63.092,0,0,1,58.454,434.074Z" transform="translate(22.497 -406.371)" fill="url(#linear-gradient-5)" style="mix-blend-mode: screen;isolation: isolate"/>
          <path id="Trazado_652457" data-name="Trazado 652457" d="M69.368,431.663c-2.378.413-4.838.263-7.239.444-7.459.582-14.957,2.055-17.853,8.52a6.1,6.1,0,0,0,1.792.589c6.166,1.065,10.85-1.544,16.333-3.89,6.83-2.92,14.58-3.851,21.767-1.6a47.021,47.021,0,0,1,4.629,1.753c-.362-.263-.735-.5-1.089-.778C81.665,431.895,77.051,430.327,69.368,431.663Z" transform="translate(-19.043 -414.775)" fill="url(#linear-gradient-6)" style="mix-blend-mode: screen;isolation: isolate"/>
          <path id="Trazado_652458" data-name="Trazado 652458" d="M184.474,458.673c-7.636-2.869-11.668-8.347-17.452-13.668-4.35-4-9.141-6.04-15.11-4.763-4.4.947-8.536,2.609-12.851,3.843-8.4,2.405-17.5,4.083-25.847.684-8.044-3.274-13.719-10.862-21.343-14.886-8.712-4.6-19.437-2.5-28.806-1.517a106.238,106.238,0,0,0-15.24,2.3c-11.137,2.857-14.045,7.172-3.03,5.82,6.123-.755,16.875-1.466,18.706,2.9.782,1.871-1.56,5.753-2.169,9,6.268-8.194,20.207-7.089,30.916-9.035,9.781-1.784,13.024,5.82,21.2,9.3,12.8,5.443,24.664,2.582,37.723,2.771a21.52,21.52,0,0,1,2.523-.122c7.655.153,12.658,5.388,19.248,8.5,8.316,3.926,17.429,4.6,26.035,1.1q1.208-.483,2.385-1.034A31.441,31.441,0,0,1,184.474,458.673Z" transform="translate(-37.855 -427.025)" fill="url(#linear-gradient-7)" style="mix-blend-mode: screen;isolation: isolate"/>
        </g>
      </g>
    </g>
  </g>
</svg>
