<svg xmlns="http://www.w3.org/2000/svg" width="426.033" height="326.948" viewBox="0 0 426.033 326.948">
  <g id="Grupo_901783" data-name="Grupo 901783" transform="translate(-29.944 -71.334)">
    <g id="Grupo_901746" data-name="Grupo 901746" transform="translate(29.944 71.334)">
      <path id="Trazado_650011" data-name="Trazado 650011" d="M293.219,177.687q-.895-4.519-1.392-9.53c-2.3-23.382-5.752-46.157-21.547-64.656-29.236-34.242-83.827-46.593-116.01-9.764-9.187,10.513-16.228,24.253-16.912,38.324-.886,18.24,7.44,35.655,6.48,53.958-1.624,30.966-34.618,36.389-59.079,42.5-25.221,6.3-48.671,22.519-53.872,49.576-5.389,28.045,12.934,51.273,40,57.271,35.575,7.881,68.7-16.751,98.276-32.615,27.4-14.7,51.564-8.942,75.07,10.189,33.41,27.193,75.585,65.926,122.28,65.056,39.282-.731,70.683-33.288,72.57-72.044l.072-2.028C440.667,218.386,308.267,253.659,293.219,177.687Z" transform="translate(-29.944 -71.334)" fill="#6b6f86"/>
      <g id="Grupo_901745" data-name="Grupo 901745" transform="translate(15.612 144.056)">
        <g id="Grupo_901743" data-name="Grupo 901743" transform="translate(278.451 25.567)">
          <path id="Trazado_650012" data-name="Trazado 650012" d="M409.991,379.6c-20.516,10.265-65.387,8.77-63.436-23.081,1.287-21,22.919-44.869,9.659-65.618a3.225,3.225,0,0,1-.546-3.2c2.635-.434,4.936.471,7.2,1.968,8.018,5.291,12.887,14.614,16.275,23.35,3.648-3.526,2.35-9.5,1.347-14.471-2-9.919-1.588-20.653,3.161-29.587s14.4-15.617,24.5-15c-7.674,1.514-11.4,10.469-11.747,18.284-.314,7.074,2,15.39,8.641,17.852,6.993,2.593,14.5-2.922,18.445-9.253s6.094-13.862,11.254-19.247a22.95,22.95,0,0,1,21.721-6.251c-8.893.714-13.758,11.073-13.938,19.993s2.4,18,.245,26.656c-2.084,8.37-8.342,15.095-15.213,20.312-4.165,3.161-29.088,15.113-20.25,22.72,4.77,4.106,14.635-4.714,18.218-7.5,4.335-3.373,8.6-6.532,12.827-10.02a59.334,59.334,0,0,1,7.12-5.094c2.439-1.249,7.945.108,8.743-.523-6.663,5.277-12.036,11.533-13.166,20.373C439.1,357.525,425.868,371.656,409.991,379.6Z" transform="translate(-346.493 -253.927)" fill="#f1b62b"/>
          <path id="Trazado_650013" data-name="Trazado 650013" d="M386.178,381.44c-10.1,5.053-32.188,4.317-31.228-11.362.634-10.339,11.282-22.088,4.755-32.3a1.587,1.587,0,0,1-.269-1.575,4.853,4.853,0,0,1,3.546.969c3.946,2.6,6.343,7.194,8.011,11.5,1.8-1.736,1.157-4.676.663-7.124-.985-4.883-.781-10.167,1.556-14.564s7.087-7.688,12.059-7.382c-3.778.745-5.612,5.154-5.783,9-.155,3.483.985,7.577,4.254,8.789,3.443,1.276,7.138-1.439,9.08-4.556s3-6.824,5.54-9.475a11.3,11.3,0,0,1,10.692-3.078c-4.377.352-6.772,5.451-6.861,9.842s1.182,8.86.121,13.122c-1.026,4.12-4.107,7.431-7.488,10-2.05,1.557-14.319,7.44-9.969,11.185,2.348,2.021,7.2-2.321,8.968-3.694,2.134-1.66,4.062-3.551,6.144-5.267a14.8,14.8,0,0,1,2.353-1.958c1.2-.615,5.234-.161,5.626-.472-3.279,2.6-5.924,5.678-6.481,10.03C400.506,370.573,393.994,377.529,386.178,381.44Z" transform="translate(-347.091 -258.59)" fill="#ffdf5a"/>
        </g>
        <g id="Grupo_901744" data-name="Grupo 901744">
          <path id="Trazado_650014" data-name="Trazado 650014" d="M151.853,342.633C146.267,364.882,115.889,397.94,93,375.7c-15.091-14.665-19.093-46.626-43.471-50.093a3.23,3.23,0,0,1-2.782-1.67c1.389-2.282,3.575-3.436,6.186-4.18,9.24-2.632,19.483-.248,28.318,2.875-.3-5.066-5.672-7.972-10.1-10.453-8.826-4.947-16.7-12.256-20.38-21.681s-2.461-21.1,4.592-28.352c-3.853,6.807.51,15.469,6.21,20.825,5.161,4.849,12.978,8.513,19.173,5.081,6.524-3.614,7.234-12.9,5-20.019s-6.542-13.658-7.263-21.081A22.95,22.95,0,0,1,87.907,226.4c-5.254,7.211-.569,17.652,6.079,23.6s15.215,9.909,20.376,17.187c4.99,7.036,6.011,16.166,5.49,24.776-.316,5.22-7.495,31.911,4.035,30.166,6.223-.942,5.963-14.172,6.183-18.708.267-5.485.648-10.777.761-16.259a59.262,59.262,0,0,1,.778-8.72c.643-2.664,5.261-5.955,5.3-6.972-.341,8.493.9,16.646,6.87,23.265C154.081,306.169,156.176,325.411,151.853,342.633Z" transform="translate(-46.75 -226.405)" fill="#f1b62b"/>
          <path id="Trazado_650015" data-name="Trazado 650015" d="M136.5,365.093c-2.75,10.953-17.7,27.226-28.971,16.278-7.429-7.218-9.4-22.952-21.4-24.659a1.591,1.591,0,0,1-1.369-.822,4.845,4.845,0,0,1,3.045-2.058c4.548-1.3,9.592-.123,13.94,1.415-.146-2.493-2.792-3.924-4.971-5.146-4.345-2.435-8.219-6.034-10.032-10.673S85.533,329.044,89,325.473c-1.9,3.351.251,7.615,3.057,10.251,2.541,2.387,6.389,4.191,9.437,2.5,3.212-1.779,3.562-6.351,2.464-9.854s-3.221-6.724-3.576-10.378a11.3,11.3,0,0,1,4.636-10.115c-2.587,3.55-.281,8.69,2.992,11.619s7.49,4.878,10.031,8.46c2.456,3.464,2.959,7.958,2.7,12.2-.156,2.57-3.69,15.709,1.986,14.85,3.063-.464,2.936-6.977,3.043-9.209.132-2.7-.046-5.4.009-8.094a14.894,14.894,0,0,1,.048-3.061c.317-1.312,3.289-4.073,3.31-4.573-.168,4.18.444,8.193,3.381,11.452C137.6,347.143,138.629,356.615,136.5,365.093Z" transform="translate(-49.45 -232.192)" fill="#ffdf5a"/>
        </g>
      </g>
    </g>
    <g id="Grupo_901782" data-name="Grupo 901782" transform="translate(47.116 124.13)">
      <g id="Grupo_901780" data-name="Grupo 901780" transform="translate(0 17.582)">
        <path id="Trazado_650016" data-name="Trazado 650016" d="M373.644,191.334a435.836,435.836,0,0,0,65.288-44.241s-22.16,24.017-43.844,36.432l62.667-30.178L413.436,179.7l62.9-21.46s-48.37,23.207-64.1,26.761l64.1-9.191-47.656,10.928h51.706l-78.631,6.883s32.883.134,54.8,5.159c0,0-56.7-1.5-80.532,1.763Z" transform="translate(-71.53 -147.093)" fill="#d2e1f1"/>
        <g id="Grupo_901779" data-name="Grupo 901779" transform="translate(0 6.254)">
          <path id="Trazado_650017" data-name="Trazado 650017" d="M214.648,248.855v2.829l-19.428,9.729-.5-3.987-.6-3.713,7.348-1.52a6.234,6.234,0,0,0,1.878-.6,5.959,5.959,0,0,0,1.535-1.443,65,65,0,0,0,4.5-6.124c1.014-1.564,2.036-3.247,3.683-4.117s4.121-.48,4.771,1.266c.455,1.223-.123,2.571-.743,3.721a41.751,41.751,0,0,1-2.919,4.644" transform="translate(-58.778 -159.908)" fill="#363f4c"/>
          <g id="Grupo_901760" data-name="Grupo 901760" transform="translate(164.983)">
            <g id="Grupo_901752" data-name="Grupo 901752" transform="translate(57.468)">
              <g id="Grupo_901748" data-name="Grupo 901748" transform="translate(0 32.385)">
                <g id="Grupo_901747" data-name="Grupo 901747" transform="translate(0 7.888)">
                  <path id="Trazado_650018" data-name="Trazado 650018" d="M373.649,243.967a8.743,8.743,0,0,1-4.781,5.957,10.93,10.93,0,0,1-4.077.687,26.276,26.276,0,0,1-11.906-2.722l-.077-.008a275.682,275.682,0,0,0-.729,32.06,72.811,72.811,0,0,0,1.854,14.567c.686,2.729,1.63,5.434,1.656,8.24-.575.12-1.158.241-1.733.369-5.957,1.245-12.018,2.541-18.163,2.55-7.6.008-15.047-1.941-22.6-2.8a76.534,76.534,0,0,0-7.922-.5c-.335-.017-.67-.017-1-.017a79.217,79.217,0,0,0-16.275,1.682c2.73-6.764,6.361-13.116,9.889-19.5,3.631-6.574,7.159-13.184,9.493-20.309l-.128-.24a38.445,38.445,0,0,0,3.64-2.326c.059-.044.128-.086.189-.137.318-.223.644-.447.961-.67q1.673-1.172,3.339-2.361c1.3-.919,2.575-1.846,3.854-2.781q2.639-1.931,5.253-3.889c1.288-.961,2.558-1.93,3.837-2.9.876-.669,1.751-1.347,2.619-2.017.395-.309.79-.609,1.184-.919.334-.266.678-.523,1.013-.79q1.892-1.48,3.76-2.962,4.442-3.541,8.8-7.124c-3.116-5.528-6.369-10.979-9.716-16.06q-7.481,4.674-14.584,9.914l-.121-.163a72.382,72.382,0,0,0-1.132-12.549,16.368,16.368,0,0,0-1.863-5.674,9.211,9.211,0,0,0-7.107-4.3,8.774,8.774,0,0,0-2.506.189l-.009-.043a19.456,19.456,0,0,0,3-4.121,35.477,35.477,0,0,0,2.721-5.124,41.159,41.159,0,0,1,6.867,1.417c5.812,1.553,11.622,3.107,17.4,4.78a30.762,30.762,0,0,0,.867,3.863,7.413,7.413,0,0,0,2.678,2.988l26.267,12.369a38.951,38.951,0,0,1,5.279,13.519A17.844,17.844,0,0,1,373.649,243.967Z" transform="translate(-287.889 -197.177)" fill="#ee4e5d"/>
                  <path id="Trazado_650019" data-name="Trazado 650019" d="M308.63,269.144c-.49,1.494-1.03,2.971-1.623,4.421q5.111.464,10.232.832c3.4.249,6.807.481,10.207.7,7.082.446,14.24.858,21.271.008q2.278-.258,4.532-.721.013-3.721.154-7.442l-.429-.018c-1.391.1-2.773.189-4.164.267q-11.536.644-23.089.163c-4.473-.18-8.945-.48-13.391-.909-.06.051-.129.094-.189.137a38.445,38.445,0,0,1-3.64,2.326Z" transform="translate(-289.247 -202.097)" fill="#ffdf5a"/>
                  <path id="Trazado_650020" data-name="Trazado 650020" d="M358.83,231.626c-.5,6.232-1.039,12.464-1.468,18.7-.334,4.713-.609,9.425-.764,14.138l-.429-.018c-1.391.1-2.773.189-4.164.267q1.931-15.632,2.687-31.4l-.052-.111c.524-.274,1.056-.523,1.605-.747.816-.334,1.666-.6,2.49-.918l.025.077A.279.279,0,0,0,358.83,231.626Z" transform="translate(-292.443 -199.617)" fill="#fef9eb"/>
                  <path id="Trazado_650021" data-name="Trazado 650021" d="M355.589,308.276c-.575.12-1.158.241-1.733.369-5.957,1.245-12.018,2.541-18.163,2.55-7.6.008-15.047-1.941-22.6-2.8a76.271,76.271,0,0,0-7.922-.5c-.335-.018-.67-.018-1-.018a79.217,79.217,0,0,0-16.275,1.682c.807-1.992,1.682-3.94,2.619-5.871l.111.051c4.626-.464,9.236-1.262,13.88-1.407,7.434-.249,14.8,1.15,22.172,2.077s15,1.339,22.112-.8a121.439,121.439,0,0,1-1.4-27.726l-.026-.18q2.278-.258,4.532-.721c-.026,3.494.025,6.987.189,10.481a72.811,72.811,0,0,0,1.854,14.567C354.619,302.765,355.563,305.469,355.589,308.276Z" transform="translate(-287.889 -202.704)" fill="#fef9eb"/>
                  <path id="Trazado_650022" data-name="Trazado 650022" d="M338.494,202.73q1.816.516,3.631,1.039a30.762,30.762,0,0,0,.867,3.863,7.426,7.426,0,0,0,2.652,2.971,28.644,28.644,0,0,1-.883,4.661,48.494,48.494,0,0,1-3.631-3.391,8.444,8.444,0,0,1-1.82-2.412,9.382,9.382,0,0,1-.618-2.876,27.271,27.271,0,0,1-.232-3.743Z" transform="translate(-291.481 -197.571)" fill="#fef9eb"/>
                </g>
                <path id="Trazado_650023" data-name="Trazado 650023" d="M359.558,228.292l1.049,1.813a1.114,1.114,0,0,0,.371.44,1.132,1.132,0,0,0,1.013-.121,36.621,36.621,0,0,0,6.846-3.9,14.877,14.877,0,0,0,4.893-6.079,1.1,1.1,0,0,0,.111-.48,1.168,1.168,0,0,0-.27-.575l-2.6-3.608a18.254,18.254,0,0,1-2.16-3.534,6.155,6.155,0,0,1-.385-4.052l-3.785-14.969a8.191,8.191,0,0,0-.431-2.734,2.767,2.767,0,0,0-1.981-1.776c-1.417-.228-2.623,1.044-3.288,2.317a19.635,19.635,0,0,0-1.4,3.805q-.895,3.18-1.5,6.431l3.518,27.026" transform="translate(-292.73 -188.686)" fill="#363f4c"/>
                <path id="Trazado_650024" data-name="Trazado 650024" d="M346.345,238.009l-5.745,9.058a85.862,85.862,0,0,1-17.619,20.04l-24.448,20.327c3.631-6.574,7.159-13.184,9.493-20.309l-.128-.24a38.445,38.445,0,0,0,3.64-2.326c.059-.044.128-.086.189-.137.318-.223.644-.447.961-.67q1.673-1.172,3.339-2.361,1.931-1.378,3.854-2.781,2.639-1.931,5.253-3.889c1.288-.961,2.558-1.93,3.837-2.9.876-.669,1.751-1.347,2.619-2.017.395-.309.79-.609,1.184-.919.334-.266.678-.523,1.013-.79q1.892-1.48,3.76-2.962Q341.989,241.592,346.345,238.009Z" transform="translate(-288.645 -192.19)" fill="#721019" style="mix-blend-mode: multiply;isolation: isolate"/>
              </g>
              <g id="Grupo_901751" data-name="Grupo 901751" transform="translate(14.333)">
                <g id="Grupo_901749" data-name="Grupo 901749">
                  <path id="Trazado_650025" data-name="Trazado 650025" d="M340.929,158.143a18.4,18.4,0,0,1,2.026-.541,83.136,83.136,0,0,1,5.983,12.378,2.565,2.565,0,0,1,.919-.36,3.454,3.454,0,0,1,2.086.1,1.922,1.922,0,0,1,1.193,1.614,3.016,3.016,0,0,1-.49,1.45c-2.541,1.117-5.262,2.249-7.983,3.391-2.1.884-4.215,1.759-6.318,2.652-.412-4-1.279-15.115-1.373-19.133a12.878,12.878,0,0,1,2.91-1.219C340.226,158.366,340.578,158.246,340.929,158.143Z" transform="translate(-305.708 -154.093)" fill="#ffdf5a"/>
                  <path id="Trazado_650026" data-name="Trazado 650026" d="M338.539,157.874c-.351.1-.7.223-1.047.334a12.878,12.878,0,0,0-2.91,1.219c.094,4.018.961,15.134,1.373,19.133-10.884,4.6-21.682,9.425-31.777,15.545l-.043-.069a5.739,5.739,0,0,1-.729-1.493,1.954,1.954,0,0,1,.18-1.6,3.182,3.182,0,0,1,1.03-.842,35.717,35.717,0,0,0,4-2.78l19.829-11.554a139.52,139.52,0,0,1-1.09-15.785c0-1.03.034-1.974.094-2.781a3.1,3.1,0,0,1,.593-1.914,3.206,3.206,0,0,1,1.253-.73,7.17,7.17,0,0,1,3.425-.7,5.558,5.558,0,0,1,1.974.73A12.742,12.742,0,0,1,338.539,157.874Z" transform="translate(-303.317 -153.825)" fill="#df383f"/>
                  <path id="Trazado_650027" data-name="Trazado 650027" d="M327.674,160.36a139.52,139.52,0,0,0,1.09,15.785L308.935,187.7c-.077-3.022-.729-6.087-1-9.194a20.764,20.764,0,0,1,.953-9.236,17.016,17.016,0,0,1,8.558-8.918,11.1,11.1,0,0,1,4.19-1.245,15.234,15.234,0,0,1,5.965,1.253Z" transform="translate(-303.636 -154.199)" fill="#89182b"/>
                </g>
                <g id="Grupo_901750" data-name="Grupo 901750" transform="translate(3.393 22.462)">
                  <path id="Trazado_650028" data-name="Trazado 650028" d="M345.182,183.514a19.624,19.624,0,0,1,.034,4.806,23.637,23.637,0,0,1-1.056,4.858l-.138-.043q-4.455-1.044-8.833-2.352a11.755,11.755,0,0,1-2.841-1.15,4.168,4.168,0,0,1-1.889-2.344,3.944,3.944,0,0,1,1.425-3.863,5.655,5.655,0,0,1,1.373-.85,9.224,9.224,0,0,1,2.627-.7,15.215,15.215,0,0,1,9.141,1.656Z" transform="translate(-308.631 -178.27)" fill="#9a6243"/>
                  <path id="Trazado_650029" data-name="Trazado 650029" d="M338.1,180.278q2.7-1.145,5.408-2.274l.026.059a12.711,12.711,0,0,1,1.872,5.185l-.155.017a15.215,15.215,0,0,0-9.141-1.656,9.225,9.225,0,0,0-2.627.7l-.026-.051Q335.771,181.257,338.1,180.278Z" transform="translate(-308.851 -178.004)" fill="#f6e6d0"/>
                  <path id="Trazado_650030" data-name="Trazado 650030" d="M343.573,193.239a21.03,21.03,0,0,1-5.073,8.42l-16.4-4.454a16.2,16.2,0,0,0,2.816-11.065l-.043-.094q3.863-1.778,7.776-3.459l.026.051a5.655,5.655,0,0,0-1.373.85,3.944,3.944,0,0,0-1.425,3.863,4.168,4.168,0,0,0,1.889,2.344,11.755,11.755,0,0,0,2.841,1.15q4.378,1.313,8.833,2.352Z" transform="translate(-308.044 -178.33)" fill="#f6e6d0"/>
                  <path id="Trazado_650031" data-name="Trazado 650031" d="M321.022,197.47a16.037,16.037,0,0,1-1.776,2.18,10.5,10.5,0,0,1-2.155,1.743,11.973,11.973,0,0,1-3.15,1.21,25.913,25.913,0,0,1-3.717.653,5.513,5.513,0,0,1-3.253-.386c.464-2.781.8-5.588,1-8.4l-.051-.095c5.15-2.944,10.472-5.579,15.871-8.06l.043.094A16.2,16.2,0,0,1,321.022,197.47Z" transform="translate(-306.97 -178.594)" fill="#292f3a"/>
                </g>
              </g>
              <path id="Trazado_650032" data-name="Trazado 650032" d="M322.05,215.593s1.9,8.686,1.666,14.678l14.584-9.914,1.511,2.189a9.335,9.335,0,0,0,3.286-4.854l-14.174,2.665Z" transform="translate(-290.316 -158.213)" fill="#721019" style="mix-blend-mode: multiply;isolation: isolate"/>
            </g>
            <g id="Grupo_901759" data-name="Grupo 901759" transform="translate(0 145.449)">
              <g id="Grupo_901755" data-name="Grupo 901755" transform="translate(74.747 0.018)">
                <g id="Grupo_901753" data-name="Grupo 901753" transform="translate(21.88 60.377)">
                  <path id="Trazado_650033" data-name="Trazado 650033" d="M372.55,420.826a1.944,1.944,0,0,0,.128-.2.7.7,0,0,1-.077.712,3.606,3.606,0,0,1-1.63,1.511c-9.992-.909-20.3-1.8-30.61-2.7a15.008,15.008,0,0,1-.412,2.438c-3.271-.447-6.593-.729-9.906-1.013.077-1.433.223-2.85.266-4.267l.189-.085C344.558,417.9,358.6,419.006,372.55,420.826Z" transform="translate(-330.043 -378.379)" fill="#292f3a"/>
                  <path id="Trazado_650034" data-name="Trazado 650034" d="M372.713,417.658a1.944,1.944,0,0,1-.128.2c-13.948-1.82-27.992-2.927-42.052-3.605,3.459-12.833,7.15-25.674,11.262-38.378l.086-.464c6.952,1.245,14.129,1.117,21.022,2.6l-.018.085q-4.042,9.722-7.382,19.709a38.257,38.257,0,0,1,16.24,14.171C372.816,413.693,373.734,415.959,372.713,417.658Z" transform="translate(-330.078 -375.409)" fill="#636363"/>
                </g>
                <g id="Grupo_901754" data-name="Grupo 901754">
                  <path id="Trazado_650035" data-name="Trazado 650035" d="M344.464,346.638a81.65,81.65,0,0,1-8.962-5.468c-2.936-2-5.837-4.061-8.644-6.241a89.66,89.66,0,0,1-8.128-7.073,54.362,54.362,0,0,1-12.24-17.441,76.271,76.271,0,0,1,7.922.5c7.554.858,15,2.807,22.6,2.8,6.145-.009,12.206-1.305,18.163-2.55l.008.044q4.61,4.067,9.21,8.137c3.073,2.721,6.326,5.743,7.091,9.777a18.646,18.646,0,0,1-.5,7.141c-2.506,12.524-5.022,25.065-8.5,37.425-.429-.1-.867-.206-1.3-.292-6.893-1.485-14.069-1.356-21.022-2.6-.369-.051-.73-.12-1.1-.2q2.639-11.872,5.288-23.751Z" transform="translate(-306.49 -310.415)" fill="#ee4e5d"/>
                  <path id="Trazado_650036" data-name="Trazado 650036" d="M369.543,322.871l-.018.018c-6.859,9.606-17.1,16.214-27.588,21.605l-.043.1c-1.494-.918-2.952-1.9-4.395-2.875-.97-.661-1.94-1.33-2.9-2.008l.026-.034a63.786,63.786,0,0,0,29.656-21.3l.172-.2c.644.575,1.3,1.142,1.94,1.717C367.456,320.846,368.547,321.824,369.543,322.871Z" transform="translate(-308.487 -310.966)" fill="#ffdf5a"/>
                </g>
              </g>
              <g id="Grupo_901758" data-name="Grupo 901758">
                <g id="Grupo_901756" data-name="Grupo 901756" transform="translate(0 43.073)">
                  <path id="Trazado_650037" data-name="Trazado 650037" d="M248.533,411.4a213.662,213.662,0,0,0,24.962,1.545,6.884,6.884,0,0,1,.034,1.623,1.229,1.229,0,0,1-.224.678,1.309,1.309,0,0,1-1.021.266q-12.954-.438-25.906-.867c-3.553-3.717-6.952-7.519-10.163-11.468a4.954,4.954,0,0,0-2.344.858c-2.687-3.4-5.356-7-7.845-10.7a41.755,41.755,0,0,1,3.211-3.2l.249-.1q2.317,2.923,4.635,5.854c1.623,2.06,3.253,4.112,4.962,6.094A86.831,86.831,0,0,0,248.533,411.4Z" transform="translate(-226.027 -359.126)" fill="#292f3a"/>
                  <path id="Trazado_650038" data-name="Trazado 650038" d="M280.463,372q-11.832,9.836-23.674,19.691c3.537,2.257,7.605,4.309,10.927,7.322s5.863,7.1,6.189,11.57h-.146a213.662,213.662,0,0,1-24.962-1.545,86.831,86.831,0,0,1-9.45-9.425c-1.708-1.982-3.339-4.034-4.962-6.094q-2.317-2.923-4.635-5.854a35.541,35.541,0,0,1,7.09-7.039q14.33-11.832,28.661-23.682l.205-.18Q272.712,364.732,280.463,372Z" transform="translate(-226.292 -356.763)" fill="#636363"/>
                </g>
                <g id="Grupo_901757" data-name="Grupo 901757" transform="translate(39.116)">
                  <path id="Trazado_650039" data-name="Trazado 650039" d="M324.134,334.928l-.111.146q-2,3.9-4.205,7.691-1.069,1.855-2.206,3.674a28.748,28.748,0,0,1-4.446,5.854,32.009,32.009,0,0,1-6.773,4.515q-11.33,6.206-22.644,12.421c-.189-.172-.378-.352-.558-.524q-7.75-7.288-14.756-15.236c-.1-.111-.205-.223-.3-.335a162.686,162.686,0,0,0,24.54-18.763l.018.008a27.432,27.432,0,0,1,2.618-5.769q.966-1.777,1.854-3.6a88.745,88.745,0,0,0,5.537-14.387c.017-.068.043-.137.06-.205V310.4h.163c.283,0,.558,0,.842.017a54.355,54.355,0,0,0,12.24,17.442A89.66,89.66,0,0,0,324.134,334.928Z" transform="translate(-268.134 -310.396)" fill="#ee4e5d"/>
                  <path id="Trazado_650040" data-name="Trazado 650040" d="M321.823,343.455l.164.095q-1.12,1.956-2.318,3.879c-.447.712-.9,1.433-1.373,2.129a86.207,86.207,0,0,1-21.177-19.451l-.017-.009c.085-.171.18-.334.266-.5.935-1.726,1.82-3.477,2.635-5.263h.008l.249.121A108.269,108.269,0,0,0,321.823,343.455Z" transform="translate(-270.192 -311.386)" fill="#ffdf5a"/>
                  <path id="Trazado_650041" data-name="Trazado 650041" d="M326.354,334.928l-.111.146q-2,3.9-4.205,7.691l-22.653-17.751a88.745,88.745,0,0,0,5.537-14.387l.223-.231c.283,0,.558,0,.842.017a54.355,54.355,0,0,0,12.24,17.442A89.66,89.66,0,0,0,326.354,334.928Z" transform="translate(-270.354 -310.396)" fill="#721019" style="mix-blend-mode: multiply;isolation: isolate"/>
                </g>
              </g>
            </g>
          </g>
          <g id="Grupo_901762" data-name="Grupo 901762" transform="translate(43.188 33.39)">
            <path id="Trazado_650042" data-name="Trazado 650042" d="M96.15,280.449l-1.231-10.227,34.606-4.166c41.908-4.659,85.307-18.623,114.311-28.723C297.075,218.8,337.4,204.354,337.8,204.21l3.474,9.7c-.4.144-40.767,14.6-94.052,33.155-29.474,10.262-73.62,24.458-116.514,29.226Z" transform="translate(-94.919 -190.794)" fill="#179587"/>
            <g id="Grupo_901761" data-name="Grupo 901761" transform="translate(237.008)">
              <path id="Trazado_650043" data-name="Trazado 650043" d="M382.123,205.094c-1.674.556-4.317,1.542-7.386,2.742l-.024-.057q-2.071-5.432-4.141-10.871a9.971,9.971,0,0,0-1.145-2.367l-.1-.177q4.292-2.348,8.634-4.6A97.124,97.124,0,0,1,382.123,205.094Z" transform="translate(-351.419 -189.768)" fill="#acb3bc"/>
              <path id="Trazado_650044" data-name="Trazado 650044" d="M374.3,208.131l.024.057c-1.723.669-3.572,1.4-5.47,2.156q-2.554-6.378-5.352-12.639,2.7-1.517,5.414-2.988l.1.177a9.972,9.972,0,0,1,1.145,2.367Q372.229,202.692,374.3,208.131Z" transform="translate(-351.005 -190.12)" fill="#c5ccd3"/>
              <path id="Trazado_650045" data-name="Trazado 650045" d="M367.9,210.573c-6.95,2.793-14.453,5.906-17.847,7.384l1.209-13.531q5.6-3.325,11.287-6.492Q365.348,204.191,367.9,210.573Z" transform="translate(-350.05 -190.348)" fill="#acb3bc"/>
            </g>
          </g>
          <g id="Grupo_901763" data-name="Grupo 901763" transform="translate(232.432 46.387)">
            <path id="Trazado_650046" data-name="Trazado 650046" d="M322.052,229.657q7.094-5.227,14.584-9.914c3.347,5.081,6.6,10.532,9.716,16.06-11.159,9.193-22.773,18.18-34.807,26.55a38.445,38.445,0,0,1-3.64,2.326,14.046,14.046,0,0,1-3.451,1.391,4.607,4.607,0,0,1-2.806-.018c-1.605-.626-2.3-2.49-2.609-4.18a39.314,39.314,0,0,1-.378-7.717,344.223,344.223,0,0,1,2.49-34.532c.4-3.3.935-6.789,3.047-9.356a9.33,9.33,0,0,1,5.125-3.107,8.774,8.774,0,0,1,2.506-.189,9.211,9.211,0,0,1,7.107,4.3,16.368,16.368,0,0,1,1.863,5.674,72.382,72.382,0,0,1,1.132,12.549Z" transform="translate(-298.634 -203.986)" fill="#e23545"/>
            <path id="Trazado_650047" data-name="Trazado 650047" d="M333.868,248.3l.1.128q-3.786,2.949-7.64,5.837-5.485-8.394-10.953-16.789,3.76-3.027,7.639-5.905l.009.008Q328.654,239.792,333.868,248.3Z" transform="translate(-299.823 -205.734)" fill="#fef9eb"/>
            <path id="Trazado_650048" data-name="Trazado 650048" d="M363.721,216.186l.1.025c1.158,1.785,1.029,4.129.446,6.18a9.465,9.465,0,0,1-6.309,7.168c-.824.318-1.674.583-2.49.918-.549.224-1.081.473-1.605.747a42.355,42.355,0,0,0-5.09,3.314c-2.481-4.377-5.047-8.687-7.674-12.79l.06-.043c3.381-2.824,4.326-7.579,4.781-11.957.2-1.837.4-3.838,1.682-5.176a2.1,2.1,0,0,1,2.231-.7,2.149,2.149,0,0,1,.944.987c1.434,2.626.258,6.163,1.829,8.721,2.154-.4,3.468-2.567,4.395-4.558a6.7,6.7,0,0,1,1.236-2.008,2.14,2.14,0,0,1,2.154-.6c1.151.447,1.348,2,1.151,3.228l.274.008C363.713,211.155,364.228,213.808,363.721,216.186Z" transform="translate(-301.651 -203.759)" fill="#363f4c"/>
          </g>
          <g id="Grupo_901776" data-name="Grupo 901776" transform="translate(0 4.417)">
            <g id="Grupo_901770" data-name="Grupo 901770" transform="translate(0 123.71)">
              <g id="Grupo_901766" data-name="Grupo 901766" transform="translate(0 10.172)">
                <g id="Grupo_901764" data-name="Grupo 901764" transform="translate(0 56.893)">
                  <path id="Trazado_650049" data-name="Trazado 650049" d="M100.283,413.274a3.044,3.044,0,0,1-.8,3.237c-9.167.567-18.566.858-27.974.85A32.873,32.873,0,0,1,63.88,410.6a7.058,7.058,0,0,0-2.231,1.417c-4.49-3.537-8.91-7.176-13.2-10.952l-.017-.009c.026-.051.051-.094.077-.146,1.081-1.4,2.18-2.79,3.271-4.179l.034-.026a93.712,93.712,0,0,0,21.313,16.918A220.458,220.458,0,0,1,100.283,413.274Z" transform="translate(-48.429 -366.269)" fill="#292f3a"/>
                  <path id="Trazado_650050" data-name="Trazado 650050" d="M100.541,410.947a220.458,220.458,0,0,0-27.158.352,93.712,93.712,0,0,1-21.313-16.918l-.009-.008c6.455-10.79,14.069-20.541,21.665-30.275l.06-.155q10.635,3.838,20.979,8.413l.008.008q-8.73,11.1-16.678,22.773a30.25,30.25,0,0,1,22.644,15.819C100.67,410.955,100.61,410.947,100.541,410.947Z" transform="translate(-48.687 -363.942)" fill="#636363"/>
                </g>
                <g id="Grupo_901765" data-name="Grupo 901765" transform="translate(23.425)">
                  <path id="Trazado_650051" data-name="Trazado 650051" d="M140.092,312.441v.069c-1.288,3.5-2.241,7.15-3.734,10.55-.386.883-.806,1.742-1.278,2.583-2.481,4.395-6.241,7.905-9.846,11.442-10.094,9.9-19.442,20.524-28.935,30.919q-11.15-4.919-22.653-9.022a418.365,418.365,0,0,0,28.447-36.6,2.152,2.152,0,0,1,.017-.232,17.017,17.017,0,0,1,1.185-4.223c.978-2.583,1.948-5.176,2.918-7.76.927-2.447,1.846-4.884,2.765-7.33L109,302.7c5.579,1.013,10.67,3.786,15.845,6.12C129.654,310.983,134.882,312.819,140.092,312.441Z" transform="translate(-73.645 -302.699)" fill="#ee4e5d"/>
                  <path id="Trazado_650052" data-name="Trazado 650052" d="M140.62,318.358a43.754,43.754,0,0,1-3.132,7.648l-.052-.026a96.533,96.533,0,0,1-30.927-9.751l-.051-.017c.816-2.154,1.622-4.318,2.438-6.472l.292.111A140.882,140.882,0,0,0,140.62,318.358Z" transform="translate(-75.976 -303.199)" fill="#ffdf5a"/>
                  <path id="Trazado_650053" data-name="Trazado 650053" d="M142.582,312.441v.069c-1.288,3.5-2.241,7.15-3.734,10.55L108.7,310.167c.927-2.447,1.846-4.884,2.765-7.33l.025-.137c5.579,1.013,10.67,3.786,15.845,6.12C132.144,310.983,137.372,312.819,142.582,312.441Z" transform="translate(-76.135 -302.699)" fill="#721019" style="mix-blend-mode: multiply;isolation: isolate"/>
                </g>
              </g>
              <g id="Grupo_901769" data-name="Grupo 901769" transform="translate(92.318)">
                <g id="Grupo_901767" data-name="Grupo 901767" transform="translate(18.421 69.528)">
                  <path id="Trazado_650054" data-name="Trazado 650054" d="M182.159,417.53a15.85,15.85,0,0,1-1.065,2.944c-4.377-.893-8.918-1.656-13.459-2.421a52.7,52.7,0,0,1,.687-5.33l.069-.094c14.472,2.137,28.944,4.283,43.554,6.351l-.026.189a26.948,26.948,0,0,1-1.442,2.971,194.041,194.041,0,0,1-28.189-4.61C182.185,417.547,182.159,417.539,182.159,417.53Z" transform="translate(-167.636 -369.864)" fill="#292f3a"/>
                  <path id="Trazado_650055" data-name="Trazado 650055" d="M205.453,402.286c4.309,3.039,7.373,8.214,6.841,13.467-.094-.017-.2-.025-.292-.043-14.61-2.069-29.081-4.215-43.554-6.351a375.791,375.791,0,0,1,6.584-42.713v-.052c4.918.052,17.193.283,23.279.7l-.008.128a183.761,183.761,0,0,0-7.5,30.5C195.762,398.053,201.136,399.238,205.453,402.286Z" transform="translate(-167.694 -366.594)" fill="#636363"/>
                </g>
                <g id="Grupo_901768" data-name="Grupo 901768">
                  <path id="Trazado_650056" data-name="Trazado 650056" d="M200.159,339.363q-.567,6.9-1.133,13.8l-.309,8.953c-5.1-.516-20.447-.8-25.571-.842.283-6.069.567-12.36-.343-18.54a18.143,18.143,0,0,1-4.335-4.524q-4.325-5.858-8.644-11.725-6.013-8.15-12.017-16.3c3.52-6.043,6.85-12.214,10.1-18.438a96.642,96.642,0,0,0,3.9,17.82c3.7-2.2,8.274-2.112,12.566-1.769,3.34.258,6.8.627,9.984.086l.034.18q1.391,2.072,2.78,4.146,4.983,7.442,9.974,14.884a14.573,14.573,0,0,1,3.014,12.266Z" transform="translate(-147.806 -291.749)" fill="#ee4e5d"/>
                  <path id="Trazado_650057" data-name="Trazado 650057" d="M186.244,310.969q2.344,3.5,4.688,7l-.155.1a66.676,66.676,0,0,1-27.21,13.237l-.241.18q-1.969-2.653-3.922-5.314l.318-.231A154.6,154.6,0,0,0,186.2,311Z" transform="translate(-148.63 -293.114)" fill="#ffdf5a"/>
                  <path id="Trazado_650058" data-name="Trazado 650058" d="M187.171,312.213c-13.313,9.244-22,12.91-27.348,14.275q-6.013-8.15-12.017-16.3c3.52-6.043,6.85-12.214,10.1-18.438a96.642,96.642,0,0,0,3.9,17.82c3.7-2.2,8.274-2.112,12.566-1.769,3.34.258,6.8.627,9.984.086l.034.18Q185.781,310.139,187.171,312.213Z" transform="translate(-147.806 -291.749)" fill="#721019" style="mix-blend-mode: multiply;isolation: isolate"/>
                </g>
              </g>
            </g>
            <g id="Grupo_901775" data-name="Grupo 901775" transform="translate(43.803)">
              <g id="Grupo_901771" data-name="Grupo 901771" transform="translate(0 35.641)">
                <path id="Trazado_650059" data-name="Trazado 650059" d="M180.08,291.65c1.219,2.893,2.781,5.7,3.193,8.807a14.484,14.484,0,0,1-2.626.7c-3.184.541-6.644.172-9.984-.086-4.292-.343-8.867-.429-12.566,1.769a96.642,96.642,0,0,1-3.9-17.82c-3.253,6.224-6.584,12.4-10.1,18.438-.231.421-.48.85-.729,1.271-.575.094-1.142.163-1.717.205-5.211.378-10.438-1.458-15.245-3.622-5.175-2.335-10.266-5.107-15.845-6.12-.172-.034-.352-.069-.523-.095-4.885-.79-10.2-.223-14.456-2.747,3.6-2.661,6.481-6.154,9.314-9.622,1.845-2.249,3.682-4.5,5.313-6.9a99.485,99.485,0,0,0,5.117-8.721c.824-1.5,1.639-3.013,2.454-4.515l.008-.008a48.957,48.957,0,0,1-6.936-3.227c-1.227-.9-.815-3-.231-4.541,4.472-11.735,9.013-23.434,13.922-34.988a38.123,38.123,0,0,1,4.575-8.575,13.406,13.406,0,0,1,7.932-5.262,9.026,9.026,0,0,1,2.962-.026l.018-.146a67.609,67.609,0,0,0,9.347-8.867q9.747,5.9,19.434,11.906c.231.137.231.661.1.627-.669,4.292.842,8.574,1.511,12.892.24,1.022.48,2.052.721,3.073q2.678,11.5,5.356,22.987a2.475,2.475,0,0,0,.369.953,2.444,2.444,0,0,0,2.223.618c2.652-.164,5.3-.334,7.949-.5l.678,4.9-10.859,23.013c.059,1.314.18,2.635.369,3.94A41.55,41.55,0,0,0,180.08,291.65Z" transform="translate(-95.581 -196.946)" fill="#ee4e5d"/>
                <path id="Trazado_650060" data-name="Trazado 650060" d="M174.027,209.63c.231.137.231.661.1.627-.669,4.292.842,8.574,1.511,12.892q.089.567.154,1.133a45.571,45.571,0,0,1,.077,7.579q-.6,11.961-2.395,23.82l-.069.249c-1.459-.429-2.918-.858-4.377-1.27l.034-.121q1.094-8.111,2.189-16.214c.369-2.739.739-5.486.927-8.241.249-3.433.2-6.978-1.1-10.163a23.84,23.84,0,0,1-1.733-4.378c-.472-2.549.669-5.1,1.768-7.45l.111-.189C172.163,208.472,173.1,209.055,174.027,209.63Z" transform="translate(-100.798 -197.724)" fill="#fef9eb"/>
                <path id="Trazado_650061" data-name="Trazado 650061" d="M158.745,255.562l-.051.18q-2.833,9.425-5.674,18.85l-.034.121c-3.8-1.014-7.666-1.966-11.537-2.842a134.357,134.357,0,0,1,5.408-19.056l.044-.2Q152.849,254.007,158.745,255.562Z" transform="translate(-98.839 -200.901)" fill="#fef9eb"/>
                <path id="Trazado_650062" data-name="Trazado 650062" d="M185.129,307.227c-3.184.541-6.644.172-9.984-.086-4.292-.343-8.867-.429-12.566,1.769a96.642,96.642,0,0,1-3.9-17.82q2.266-4.3,4.49-8.635l.24.12a126.066,126.066,0,0,0,1.743,20.24c6.867-2.128,14.592,1.785,21.365-.609a17.292,17.292,0,0,1,1.236,4.326A14.484,14.484,0,0,1,185.129,307.227Z" transform="translate(-100.063 -203.02)" fill="#fef9eb"/>
                <path id="Trazado_650063" data-name="Trazado 650063" d="M154.2,290.81c-3.253,6.224-6.584,12.4-10.1,18.438-.231.421-.48.85-.729,1.271-.575.094-1.142.163-1.717.205-5.211.378-10.438-1.458-15.245-3.622-5.175-2.335-10.266-5.107-15.845-6.12-.172-.034-.352-.069-.523-.095-4.885-.79-10.2-.223-14.456-2.747a36.241,36.241,0,0,0,4.644-4.189l.163.155c6.094.42,12.24,1.132,18,3.176,7.373,2.609,14.172,7.382,21.975,7.837,4.532-7.348,10.847-19.112,15.3-26.588,1.4.4,2.947.738,4.321,1.159l-.137.243-1.158,2.241Q156.461,286.5,154.2,290.81Z" transform="translate(-95.581 -202.741)" fill="#fef9eb"/>
                <path id="Trazado_650064" data-name="Trazado 650064" d="M149.772,213.477s-1.014,13.581-8.323,35.113l17.3,4.192-2.23-1.9a13.522,13.522,0,0,1-4.524-12.807C153.261,231.415,154.017,221.448,149.772,213.477Z" transform="translate(-98.839 -198.12)" fill="#721019" style="mix-blend-mode: multiply;isolation: isolate"/>
                <path id="Trazado_650065" data-name="Trazado 650065" d="M178.82,286.377a193.741,193.741,0,0,1-60.85-15.511l1.4-3.262.008-.008,47.108,12.635.464-.918,11.5,3.124C178.511,283.751,178.632,285.073,178.82,286.377Z" transform="translate(-97.171 -201.965)" fill="#721019" style="mix-blend-mode: multiply;isolation: isolate"/>
                <path id="Trazado_650066" data-name="Trazado 650066" d="M193.272,256.542l-5.648,7.657-11.3.868,1.339-6.6-3.923-1.176,1.837-15,.747-15.262.369.549q2.678,11.5,5.356,22.987a2.475,2.475,0,0,0,.369.953,2.444,2.444,0,0,0,2.223.618c2.652-.164,5.3-.334,7.949-.5Z" transform="translate(-101.133 -199.083)" fill="#721019" style="mix-blend-mode: multiply;isolation: isolate"/>
              </g>
              <g id="Grupo_901774" data-name="Grupo 901774" transform="translate(38.002)">
                <g id="Grupo_901772" data-name="Grupo 901772">
                  <path id="Trazado_650067" data-name="Trazado 650067" d="M170.548,163.106l.034.009c-.111.824-.18,1.656-.249,2.48-.326,3.768-.909,9.15-1.227,12.928L145.759,187.1a28.789,28.789,0,0,1,.592-11.476,19.63,19.63,0,0,1,5.872-9.906C157.132,161.468,164.523,160.695,170.548,163.106Z" transform="translate(-137.124 -158.805)" fill="#89182b"/>
                  <path id="Trazado_650068" data-name="Trazado 650068" d="M181.775,163.336l.008.043c-.978.172-1.94.326-2.849.49-.653,4.5-1.417,13.6-1.605,18.137q-3.838.786-7.648,1.682-5.511,1.288-10.979,2.833-9.233,2.588-18.292,5.837c-1.125.4-2.241.816-3.356,1.227-.36-.128-.515-.644-.549-1.065a2.583,2.583,0,0,1,.609-2.171,2.941,2.941,0,0,1,.867-.481c2.377-1,4.764-1.991,7.142-3L168.47,178.3c.318-3.777.9-9.16,1.227-12.928.069-.824.137-1.656.249-2.48a14.177,14.177,0,0,1,.807-3.331,13.929,13.929,0,0,1,4.283-.952,4.65,4.65,0,0,1,2.308.275,4.811,4.811,0,0,1,1.279.961A31.236,31.236,0,0,1,181.775,163.336Z" transform="translate(-136.488 -158.58)" fill="#ee4e5d"/>
                  <path id="Trazado_650069" data-name="Trazado 650069" d="M193.3,177.063a3.355,3.355,0,0,1,.919,2.875q-4.791.7-9.553,1.588-2.112.387-4.215.816c.189-4.541.952-13.639,1.605-18.137.909-.163,1.871-.318,2.849-.49.661-.12,1.33-.249,2-.4,1.356,3.915,2.8,8.343,3.889,12.859A2.937,2.937,0,0,1,193.3,177.063Z" transform="translate(-139.611 -158.916)" fill="#ffdf5a"/>
                </g>
                <g id="Grupo_901773" data-name="Grupo 901773" transform="translate(1.312 22.61)">
                  <path id="Trazado_650070" data-name="Trazado 650070" d="M184.35,189.789l.129.009a24.783,24.783,0,0,1-2.567,9.811l-.051-.026q-4.069-1.853-8.138-3.7a10.485,10.485,0,0,1-3.905-2.532,5.015,5.015,0,0,1-1.159-3.691,4.369,4.369,0,0,1,3.348-3.854,5.941,5.941,0,0,1,1.982-.163,12.787,12.787,0,0,1,3.374.824A39.525,39.525,0,0,1,184.35,189.789Z" transform="translate(-140.084 -183.111)" fill="#c88a68"/>
                  <path id="Trazado_650071" data-name="Trazado 650071" d="M177.618,186.275a12.787,12.787,0,0,0-3.374-.824,5.941,5.941,0,0,0-1.982.163l-.043-.2q3.811-.9,7.648-1.682,2.1-.425,4.215-.816l.051.283a23.01,23.01,0,0,1,.6,6.4l-.129-.009A39.525,39.525,0,0,0,177.618,186.275Z" transform="translate(-140.339 -182.919)" fill="#f6e6d0"/>
                  <path id="Trazado_650072" data-name="Trazado 650072" d="M160.142,188.441q5.458-1.545,10.979-2.833l.043.2a4.369,4.369,0,0,0-3.348,3.854,5.015,5.015,0,0,0,1.159,3.691,10.485,10.485,0,0,0,3.905,2.532q4.069,1.853,8.138,3.7l.051.026a23.356,23.356,0,0,1-7.185,8.61l-17.133-10.241c.077-.12.154-.249.231-.369a23.174,23.174,0,0,0,3.194-9.056Z" transform="translate(-139.24 -183.11)" fill="#f6e6d0"/>
                  <path id="Trazado_650073" data-name="Trazado 650073" d="M158.8,188.658l.034.111a23.174,23.174,0,0,1-3.194,9.056c-.077.12-.154.249-.231.369a13.992,13.992,0,0,1-5.391,5.176c-3.717,1.837-8.18,1.262-12.12-.034a47.258,47.258,0,0,1,2.772-8.386l-.163-.455Q149.562,191.249,158.8,188.658Z" transform="translate(-137.901 -183.327)" fill="#292f3a"/>
                </g>
              </g>
            </g>
          </g>
          <path id="Trazado_650074" data-name="Trazado 650074" d="M201.536,270.934l.043.069a8.206,8.206,0,0,1-.858,3.365,5.467,5.467,0,0,1-1.279,1.425A10.069,10.069,0,0,1,196.2,277.5l.018.043c-1.073,2.781-4.069,4.438-7.03,4.772s-5.914-.395-8.8-1.124q-4.75-1.211-9.485-2.413l-.206-.1c2.378-4.67,5.107-9.3,6.232-14.146l.309.069a14.138,14.138,0,0,0,9.725-2c1.563-.988,2.919-2.283,4.515-3.219a4.424,4.424,0,0,1,2.421-.73,1.988,1.988,0,0,1,1.88,1.459,3.09,3.09,0,0,1-.8,2.206c-1.029,1.476-2.069,2.952-3.1,4.429a2.23,2.23,0,0,0-.567,1.4,1.533,1.533,0,0,0,1.339,1.245,4.21,4.21,0,0,0,1.915-.283,58.161,58.161,0,0,0,7.382-2.919c.858-.4,2.138-.713,2.558.146a1.541,1.541,0,0,1-.018,1.142A6.432,6.432,0,0,1,201.536,270.934Z" transform="translate(-57.114 -161.271)" fill="#363f4c"/>
          <path id="Trazado_650075" data-name="Trazado 650075" d="M227.184,257.428a33.859,33.859,0,0,0-6.6-4.438,3.129,3.129,0,0,0-1.9-.485,2.883,2.883,0,0,0-1.563,1.054,1.912,1.912,0,0,0-.471.76,1.474,1.474,0,0,0,.272,1.16,6.261,6.261,0,0,0-2.635-.54,2.207,2.207,0,0,0-2.051,1.6,2.76,2.76,0,0,0,.821,2.156,5.661,5.661,0,0,0-2.02-.221,1.969,1.969,0,0,0-1.63,1.144,2.188,2.188,0,0,0,.211,1.7,7.214,7.214,0,0,0,2.25,2.419,22.4,22.4,0,0,0,2.964,1.873,5.7,5.7,0,0,0,3.539.859,2.355,2.355,0,0,0,2.031-2.609l-.229-.162a3.042,3.042,0,0,0,1.621.086,2.255,2.255,0,0,0,1.353-3.379l-.062-.049c.035.017.069.038.1.056a3.194,3.194,0,0,0,1.242.374,3.073,3.073,0,0,0,2.073-1.02,2.868,2.868,0,0,0,.831-1.127A1.281,1.281,0,0,0,227.184,257.428Z" transform="translate(-59.857 -160.833)" fill="#363f4c"/>
          <g id="Grupo_901777" data-name="Grupo 901777" transform="translate(117.155 31.887)">
            <path id="Trazado_650076" data-name="Trazado 650076" d="M180.662,193.3c0,1.419-.524,2.57-1.17,2.57s-1.17-1.151-1.17-2.57.524-2.57,1.17-2.57S180.662,191.879,180.662,193.3Z" transform="translate(-174.811 -188.334)" fill="#292f3a"/>
            <path id="Trazado_650077" data-name="Trazado 650077" d="M174.542,191.69a4.54,4.54,0,0,1,1.023-1.629,6.017,6.017,0,0,1,1.536-1.19,5.765,5.765,0,0,1,1.839-.64,4.82,4.82,0,0,1,1.923.035c-.61.223-1.191.38-1.746.61a12.425,12.425,0,0,0-1.6.747A18.074,18.074,0,0,0,174.542,191.69Z" transform="translate(-174.542 -188.15)" fill="#292f3a"/>
          </g>
          <g id="Grupo_901778" data-name="Grupo 901778" transform="translate(267.591 26.352)">
            <path id="Trazado_650078" data-name="Trazado 650078" d="M342.6,187.341c0,1.419-.524,2.57-1.17,2.57s-1.17-1.151-1.17-2.57.524-2.57,1.17-2.57S342.6,185.922,342.6,187.341Z" transform="translate(-336.75 -182.376)" fill="#292f3a"/>
            <path id="Trazado_650079" data-name="Trazado 650079" d="M336.481,185.732A4.541,4.541,0,0,1,337.5,184.1a6,6,0,0,1,1.536-1.19,5.78,5.78,0,0,1,1.839-.64,4.82,4.82,0,0,1,1.923.035c-.61.223-1.192.38-1.746.61a12.427,12.427,0,0,0-1.6.747A18.076,18.076,0,0,0,336.481,185.732Z" transform="translate(-336.481 -182.192)" fill="#292f3a"/>
          </g>
        </g>
      </g>
      <g id="Grupo_901781" data-name="Grupo 901781" transform="translate(308.641)">
        <path id="Trazado_650080" data-name="Trazado 650080" d="M387.486,216.22s12.082-1.4,29.85,30.811C417.336,247.031,416.853,219.164,387.486,216.22Z" transform="translate(-381.154 -134.421)" fill="#d2e1f1"/>
        <path id="Trazado_650081" data-name="Trazado 650081" d="M394.444,211.539s32.648,8.4,48.231,33.409C442.675,244.948,441.919,214.821,394.444,211.539Z" transform="translate(-381.648 -134.089)" fill="#d2e1f1"/>
        <path id="Trazado_650082" data-name="Trazado 650082" d="M380.67,172.473s36.124-9.646,30.214-44.306C410.884,128.167,408.683,152.036,380.67,172.473Z" transform="translate(-380.67 -128.167)" fill="#d2e1f1"/>
      </g>
    </g>
  </g>
</svg>
