<svg xmlns="http://www.w3.org/2000/svg" xmlns:xlink="http://www.w3.org/1999/xlink" width="760.91" height="652.036" viewBox="0 0 760.91 652.036">
  <defs>
    <filter id="Trazado_653885" x="0" y="0" width="298.955" height="283.287" filterUnits="userSpaceOnUse">
      <feOffset dx="2" dy="3" input="SourceAlpha"/>
      <feGaussianBlur stdDeviation="4.5" result="blur"/>
      <feFlood flood-opacity="0.29"/>
      <feComposite operator="in" in2="blur"/>
      <feComposite in="SourceGraphic"/>
    </filter>
    <filter id="Trazado_653886" x="0.955" y="366.146" width="298.955" height="283.287" filterUnits="userSpaceOnUse">
      <feOffset dx="2" dy="3" input="SourceAlpha"/>
      <feGaussianBlur stdDeviation="4.5" result="blur-2"/>
      <feFlood flood-opacity="0.29"/>
      <feComposite operator="in" in2="blur-2"/>
      <feComposite in="SourceGraphic"/>
    </filter>
    <filter id="Trazado_653887" x="461.955" y="0" width="298.955" height="283.287" filterUnits="userSpaceOnUse">
      <feOffset dx="2" dy="3" input="SourceAlpha"/>
      <feGaussianBlur stdDeviation="4.5" result="blur-3"/>
      <feFlood flood-opacity="0.29"/>
      <feComposite operator="in" in2="blur-3"/>
      <feComposite in="SourceGraphic"/>
    </filter>
    <filter id="Trazado_653888" x="461.955" y="368.749" width="298.955" height="283.287" filterUnits="userSpaceOnUse">
      <feOffset dx="2" dy="3" input="SourceAlpha"/>
      <feGaussianBlur stdDeviation="4.5" result="blur-4"/>
      <feFlood flood-opacity="0.29"/>
      <feComposite operator="in" in2="blur-4"/>
      <feComposite in="SourceGraphic"/>
    </filter>
    <filter id="Sustracción_4" x="207.699" y="148.947" width="172.756" height="176.002" filterUnits="userSpaceOnUse">
      <feOffset dy="4" input="SourceAlpha"/>
      <feGaussianBlur stdDeviation="4" result="blur-5"/>
      <feFlood flood-opacity="0.161"/>
      <feComposite operator="in" in2="blur-5"/>
      <feComposite in="SourceGraphic"/>
    </filter>
    <filter id="Sustracción_16" x="207.699" y="344.787" width="172.756" height="176.002" filterUnits="userSpaceOnUse">
      <feOffset dy="4" input="SourceAlpha"/>
      <feGaussianBlur stdDeviation="4" result="blur-6"/>
      <feFlood flood-opacity="0.161"/>
      <feComposite operator="in" in2="blur-6"/>
      <feComposite in="SourceGraphic"/>
    </filter>
    <filter id="Sustracción_8" x="394.122" y="148.947" width="172.756" height="176.002" filterUnits="userSpaceOnUse">
      <feOffset dy="4" input="SourceAlpha"/>
      <feGaussianBlur stdDeviation="4" result="blur-7"/>
      <feFlood flood-opacity="0.161"/>
      <feComposite operator="in" in2="blur-7"/>
      <feComposite in="SourceGraphic"/>
    </filter>
    <filter id="Sustracción_12" x="394.122" y="344.787" width="172.756" height="176.002" filterUnits="userSpaceOnUse">
      <feOffset dy="4" input="SourceAlpha"/>
      <feGaussianBlur stdDeviation="4" result="blur-8"/>
      <feFlood flood-opacity="0.161"/>
      <feComposite operator="in" in2="blur-8"/>
      <feComposite in="SourceGraphic"/>
    </filter>
  </defs>
  <g id="Grupo_1000268" data-name="Grupo 1000268" transform="translate(-421.545 -1639.053)">
    <g transform="matrix(1, 0, 0, 1, 421.55, 1639.05)" filter="url(#Trazado_653885)">
      <g id="Trazado_653885-2" data-name="Trazado 653885" transform="translate(11.5 10.5)" fill="#f8e3b3" opacity="0.6">
        <path d="M 241.7376251220703 254.2871246337891 L 30.21720314025879 254.2871246337891 C 26.40702438354492 254.2871246337891 22.71188163757324 253.5413360595703 19.23441696166992 252.0704803466797 C 15.87455940246582 250.6493835449219 12.85670280456543 248.6145477294922 10.2646312713623 246.0224761962891 C 7.67255973815918 243.4304046630859 5.637702941894531 240.4125213623047 4.216631412506104 237.0526580810547 C 2.745774030685425 233.5751953125 1.999988436698914 229.8800506591797 1.999988436698914 226.0698699951172 L 1.999988436698914 30.21726989746094 C 1.999988436698914 26.40709114074707 2.745774030685425 22.71191215515137 4.216631412506104 19.23444747924805 C 5.637702941894531 15.87459087371826 7.67255973815918 12.85673332214355 10.2646312713623 10.26466178894043 C 12.85670280456543 7.672590255737305 15.87455940246582 5.637733459472656 19.23441696166992 4.216661930084229 C 22.71188163757324 2.745804786682129 26.40702438354492 2.000019073486328 30.21720314025879 2.000019073486328 L 232.7843780517578 2.000019073486328 C 237.8032379150391 2.000019073486328 242.6709136962891 2.982518911361694 247.252197265625 4.920233249664307 C 251.6781616210938 6.792268753051758 255.653564453125 9.472697257995605 259.06787109375 12.88698291778564 C 262.482177734375 16.30130386352539 265.16259765625 20.27669715881348 267.0346374511719 24.70269775390625 C 268.9723510742188 29.28398323059082 269.954833984375 34.15166091918945 269.954833984375 39.1705207824707 L 269.954833984375 226.0698699951172 C 269.954833984375 229.8800506591797 269.2090454101562 233.5751953125 267.7381896972656 237.0526580810547 C 266.317138671875 240.4125213623047 264.2822875976562 243.4304046630859 261.6902160644531 246.0224761962891 C 259.09814453125 248.6145477294922 256.0802612304688 250.6493835449219 252.7204132080078 252.0704803466797 C 249.2429504394531 253.5413360595703 245.5478057861328 254.2871246337891 241.7376251220703 254.2871246337891 Z" stroke="none"/>
        <path d="M 30.21719360351562 3.999984741210938 C 26.6761474609375 3.999984741210938 23.24310302734375 4.692596435546875 20.01353454589844 6.058624267578125 C 16.89207458496094 7.378860473632812 14.087890625 9.269790649414062 11.6788330078125 11.67881774902344 C 9.269805908203125 14.08786010742188 7.378875732421875 16.89205932617188 6.05865478515625 20.01351928710938 C 4.692596435546875 23.24313354492188 4 26.67616271972656 4 30.21723937988281 L 4 226.0698547363281 C 4 229.6109313964844 4.692596435546875 233.0439453125 6.05865478515625 236.2735595703125 C 7.378875732421875 239.39501953125 9.269805908203125 242.1992034912109 11.6788330078125 244.6082458496094 C 14.087890625 247.0172882080078 16.89207458496094 248.908203125 20.01353454589844 250.2284393310547 C 23.24310302734375 251.594482421875 26.6761474609375 252.2870941162109 30.21719360351562 252.2870941162109 L 241.7376403808594 252.2870941162109 C 245.2786865234375 252.2870941162109 248.7117309570312 251.594482421875 251.9412994384766 250.2284393310547 C 255.0627593994141 248.908203125 257.866943359375 247.0172882080078 260.2760009765625 244.6082458496094 C 262.6850280761719 242.1992034912109 264.5759582519531 239.39501953125 265.8961791992188 236.2735595703125 C 267.2622375488281 233.0439453125 267.954833984375 229.6109313964844 267.954833984375 226.0698547363281 L 267.954833984375 39.17051696777344 C 267.954833984375 34.42074584960938 267.0254821777344 29.81521606445312 265.1925964355469 25.48178100585938 C 263.4214172363281 21.29417419433594 260.8849182128906 17.532470703125 257.6536560058594 14.30116271972656 C 254.4223327636719 11.06990051269531 250.6606903076172 8.533401489257812 246.4730682373047 6.76220703125 C 242.1396484375 4.9293212890625 237.5341186523438 3.999984741210938 232.7843780517578 3.999984741210938 L 30.21719360351562 3.999984741210938 M 30.21719360351562 -3.0517578125e-05 L 232.7843780517578 -3.0517578125e-05 C 254.4176025390625 -3.0517578125e-05 271.954833984375 17.53720092773438 271.954833984375 39.17051696777344 L 271.954833984375 226.0698547363281 C 271.954833984375 242.7583618164062 258.4261169433594 256.2870788574219 241.7376403808594 256.2870788574219 L 30.21719360351562 256.2870788574219 C 13.52871704101562 256.2870788574219 0 242.7583618164062 0 226.0698547363281 L 0 30.21723937988281 C 0 13.52870178222656 13.52871704101562 -3.0517578125e-05 30.21719360351562 -3.0517578125e-05 Z" stroke="none" fill="#fff"/>
      </g>
    </g>
    <g transform="matrix(1, 0, 0, 1, 421.55, 1639.05)" filter="url(#Trazado_653886)">
      <g id="Trazado_653886-2" data-name="Trazado 653886" transform="translate(12.45 376.65)" fill="#efb7bc" opacity="0.6">
        <path d="M 241.7375946044922 254.2867584228516 L 30.21720695495605 254.2867584228516 C 26.40703010559082 254.2867584228516 22.71188735961914 253.5409851074219 19.23442268371582 252.0701141357422 C 15.87456512451172 250.6490478515625 12.85670757293701 248.6141967773438 10.26463603973389 246.0221252441406 C 7.67256498336792 243.4300537109375 5.637707710266113 240.4121856689453 4.216636657714844 237.0523376464844 C 2.745779275894165 233.5748748779297 1.999993562698364 229.8797302246094 1.999993562698364 226.0695495605469 L 1.999993562698364 30.21722793579102 C 1.999993562698364 26.40705108642578 2.745779275894165 22.71190643310547 4.216636657714844 19.23444366455078 C 5.637707710266113 15.87458610534668 7.67256498336792 12.85672855377197 10.26463603973389 10.26465702056885 C 12.85670757293701 7.672585964202881 15.87456512451172 5.637728691101074 19.23442268371582 4.216657161712646 C 22.71188735961914 2.745800256729126 26.40703010559082 2.000014543533325 30.21720695495605 2.000014543533325 L 232.7843475341797 2.000014543533325 C 237.8032073974609 2.000014543533325 242.6708831787109 2.982514381408691 247.2521362304688 4.920228958129883 C 251.6781311035156 6.792264461517334 255.6534881591797 9.472657203674316 259.0678100585938 12.88697910308838 C 262.4821472167969 16.30130004882812 265.1625366210938 20.27665710449219 267.0345764160156 24.70265769958496 C 268.9722900390625 29.28390693664551 269.9547729492188 34.15158462524414 269.9547729492188 39.17044448852539 L 269.9547729492188 226.0695495605469 C 269.9547729492188 229.8797302246094 269.208984375 233.5748748779297 267.7381286621094 237.0523376464844 C 266.3170776367188 240.4121856689453 264.2821960449219 243.4300537109375 261.6901245117188 246.0221252441406 C 259.0981140136719 248.6141967773438 256.0802001953125 250.6490478515625 252.7203826904297 252.0701141357422 C 249.242919921875 253.5409851074219 245.5477752685547 254.2867584228516 241.7375946044922 254.2867584228516 Z" stroke="none"/>
        <path d="M 30.21719360351562 3.999984741210938 C 26.67611694335938 3.999984741210938 23.24311828613281 4.692596435546875 20.01350402832031 6.058609008789062 C 16.89204406738281 7.378875732421875 14.087890625 9.269790649414062 11.6788330078125 11.6788330078125 C 9.269805908203125 14.08787536621094 7.378875732421875 16.89205932617188 6.05865478515625 20.01348876953125 C 4.692626953125 23.24310302734375 4 26.6761474609375 4 30.21722412109375 L 4 226.0695190429688 C 4 229.610595703125 4.692626953125 233.0436096191406 6.058624267578125 236.2732238769531 C 7.378875732421875 239.3946838378906 9.269805908203125 242.1988677978516 11.6788330078125 244.60791015625 C 14.087890625 247.0169525146484 16.89207458496094 248.9078674316406 20.01350402832031 250.2281036376953 C 23.24311828613281 251.5941467285156 26.67611694335938 252.2867584228516 30.21719360351562 252.2867584228516 L 241.7375793457031 252.2867584228516 C 245.2786254882812 252.2867584228516 248.7116546630859 251.5941467285156 251.9412384033203 250.2281036376953 C 255.0626983642578 248.9078674316406 257.8668823242188 247.0169525146484 260.2759399414062 244.60791015625 C 262.6849670410156 242.1988677978516 264.5758972167969 239.3946838378906 265.8961181640625 236.2732238769531 C 267.2621459960938 233.0436096191406 267.9547729492188 229.610595703125 267.9547729492188 226.0695190429688 L 267.9547729492188 39.17045593261719 C 267.9547729492188 34.42071533203125 267.0254211425781 29.815185546875 265.1925354003906 25.48175048828125 C 263.4213562011719 21.29414367675781 260.8848876953125 17.53248596191406 257.653564453125 14.30117797851562 C 254.4223022460938 11.06991577148438 250.6606140136719 8.533416748046875 246.4730072021484 6.762222290039062 C 242.1396179199219 4.929336547851562 237.5340423583984 3.999984741210938 232.7843017578125 3.999984741210938 L 30.21719360351562 3.999984741210938 M 30.21719360351562 0 L 232.7843017578125 0 C 254.4175720214844 0 271.9547729492188 17.53721618652344 271.9547729492188 39.17045593261719 L 271.9547729492188 226.0695190429688 C 271.9547729492188 242.7580261230469 258.426025390625 256.2867431640625 241.7375793457031 256.2867431640625 L 30.21719360351562 256.2867431640625 C 13.5286865234375 256.2867431640625 0 242.7580261230469 0 226.0695190429688 L 0 30.21722412109375 C 0 13.5286865234375 13.5286865234375 0 30.21719360351562 0 Z" stroke="none" fill="#fff"/>
      </g>
    </g>
    <g transform="matrix(1, 0, 0, 1, 421.55, 1639.05)" filter="url(#Trazado_653887)">
      <g id="Trazado_653887-2" data-name="Trazado 653887" transform="translate(473.45 10.5)" fill="#acd8d3" opacity="0.6">
        <path d="M 241.7375946044922 254.2867584228516 L 30.21720695495605 254.2867584228516 C 26.40703010559082 254.2867584228516 22.71188735961914 253.5409851074219 19.23442268371582 252.0701141357422 C 15.87456512451172 250.6490478515625 12.85670757293701 248.6141967773438 10.26463603973389 246.0221252441406 C 7.67256498336792 243.4300537109375 5.637707710266113 240.4121856689453 4.216636657714844 237.0523376464844 C 2.745779275894165 233.5748748779297 1.999993562698364 229.8797302246094 1.999993562698364 226.0695495605469 L 1.999993562698364 39.17044448852539 C 1.999993562698364 34.15158462524414 2.98249363899231 29.28390693664551 4.920207977294922 24.70265769958496 C 6.792243480682373 20.27665710449219 9.472636222839355 16.30130004882812 12.88695812225342 12.88697910308838 C 16.30127906799316 9.472657203674316 20.27667236328125 6.792264461517334 24.70263671875 4.920228958129883 C 29.28392219543457 2.982514381408691 34.1515998840332 2.000014543533325 39.17045974731445 2.000014543533325 L 241.7375946044922 2.000014543533325 C 245.5477752685547 2.000014543533325 249.242919921875 2.745800256729126 252.7203826904297 4.216657161712646 C 256.0802001953125 5.637728691101074 259.0981140136719 7.672585964202881 261.6901245117188 10.26465702056885 C 264.2821960449219 12.85672855377197 266.3170776367188 15.87458610534668 267.7381286621094 19.23444366455078 C 269.208984375 22.71190643310547 269.9547729492188 26.40705108642578 269.9547729492188 30.21722793579102 L 269.9547729492188 226.0695495605469 C 269.9547729492188 229.8797302246094 269.208984375 233.5748748779297 267.7381286621094 237.0523376464844 C 266.3170776367188 240.4121856689453 264.2821960449219 243.4300537109375 261.6901245117188 246.0221252441406 C 259.0981140136719 248.6141967773438 256.0802001953125 250.6490478515625 252.7203826904297 252.0701141357422 C 249.242919921875 253.5409851074219 245.5477752685547 254.2867584228516 241.7375946044922 254.2867584228516 Z" stroke="none"/>
        <path d="M 39.17042541503906 3.999984741210938 C 34.42070007324219 3.999984741210938 29.81515502929688 4.929336547851562 25.48173522949219 6.762222290039062 C 21.29415893554688 8.533416748046875 17.532470703125 11.06991577148438 14.30120849609375 14.30117797851562 C 11.06988525390625 17.53245544433594 8.533416748046875 21.29414367675781 6.762237548828125 25.48175048828125 C 4.929351806640625 29.815185546875 4 34.42071533203125 4 39.17045593261719 L 4 226.0695190429688 C 4 229.610595703125 4.692626953125 233.0436096191406 6.058624267578125 236.2732238769531 C 7.378875732421875 239.3946838378906 9.269805908203125 242.1988677978516 11.6788330078125 244.60791015625 C 14.087890625 247.0169525146484 16.89207458496094 248.9078674316406 20.01350402832031 250.2281036376953 C 23.24311828613281 251.5941467285156 26.67611694335938 252.2867584228516 30.21719360351562 252.2867584228516 L 241.7375793457031 252.2867584228516 C 245.2786254882812 252.2867584228516 248.7116546630859 251.5941467285156 251.9412384033203 250.2281036376953 C 255.0626983642578 248.9078674316406 257.8668823242188 247.0169525146484 260.2759399414062 244.60791015625 C 262.6849670410156 242.1988677978516 264.5758972167969 239.3946838378906 265.8961181640625 236.2732238769531 C 267.2621459960938 233.0436096191406 267.9547729492188 229.610595703125 267.9547729492188 226.0695190429688 L 267.9547729492188 30.21722412109375 C 267.9547729492188 26.6761474609375 267.2621459960938 23.24313354492188 265.8961181640625 20.01351928710938 C 264.5758972167969 16.89205932617188 262.6849670410156 14.08787536621094 260.2759399414062 11.6788330078125 C 257.8668823242188 9.269790649414062 255.0626983642578 7.378875732421875 251.9412384033203 6.058609008789062 C 248.7116546630859 4.692596435546875 245.2786254882812 3.999984741210938 241.7375793457031 3.999984741210938 L 39.17042541503906 3.999984741210938 M 39.17042541503906 0 L 241.7375793457031 0 C 258.426025390625 0 271.9547729492188 13.5286865234375 271.9547729492188 30.21722412109375 L 271.9547729492188 226.0695190429688 C 271.9547729492188 242.7580261230469 258.426025390625 256.2867431640625 241.7375793457031 256.2867431640625 L 30.21719360351562 256.2867431640625 C 13.5286865234375 256.2867431640625 0 242.7580261230469 0 226.0695190429688 L 0 39.17045593261719 C 0 17.53721618652344 17.53720092773438 0 39.17042541503906 0 Z" stroke="none" fill="#fff"/>
      </g>
    </g>
    <g transform="matrix(1, 0, 0, 1, 421.55, 1639.05)" filter="url(#Trazado_653888)">
      <g id="Trazado_653888-2" data-name="Trazado 653888" transform="translate(473.45 379.25)" fill="#afb3c3" opacity="0.6">
        <path d="M 241.7375946044922 254.2867584228516 L 30.21720695495605 254.2867584228516 C 26.40703010559082 254.2867584228516 22.71188735961914 253.5409851074219 19.23442268371582 252.0701141357422 C 15.87456512451172 250.6490478515625 12.85670757293701 248.6141967773438 10.26463603973389 246.0221252441406 C 7.67256498336792 243.4300537109375 5.637707710266113 240.4121856689453 4.216636657714844 237.0523376464844 C 2.745779275894165 233.5748748779297 1.999993562698364 229.8797302246094 1.999993562698364 226.0695495605469 L 1.999993562698364 39.17044448852539 C 1.999993562698364 34.15158462524414 2.98249363899231 29.28390693664551 4.920207977294922 24.70265769958496 C 6.792243480682373 20.27665710449219 9.472636222839355 16.30130004882812 12.88695812225342 12.88697910308838 C 16.30127906799316 9.472657203674316 20.27667236328125 6.792264461517334 24.70263671875 4.920228958129883 C 29.28392219543457 2.982514381408691 34.1515998840332 2.000014543533325 39.17045974731445 2.000014543533325 L 241.7375946044922 2.000014543533325 C 245.5477752685547 2.000014543533325 249.242919921875 2.745800256729126 252.7203826904297 4.216657161712646 C 256.0802001953125 5.637728691101074 259.0981140136719 7.672585964202881 261.6901245117188 10.26465702056885 C 264.2821960449219 12.85672855377197 266.3170776367188 15.87458610534668 267.7381286621094 19.23444366455078 C 269.208984375 22.71190643310547 269.9547729492188 26.40705108642578 269.9547729492188 30.21722793579102 L 269.9547729492188 226.0695495605469 C 269.9547729492188 229.8797302246094 269.208984375 233.5748748779297 267.7381286621094 237.0523376464844 C 266.3170776367188 240.4121856689453 264.2821960449219 243.4300537109375 261.6901245117188 246.0221252441406 C 259.0981140136719 248.6141967773438 256.0802001953125 250.6490478515625 252.7203826904297 252.0701141357422 C 249.242919921875 253.5409851074219 245.5477752685547 254.2867584228516 241.7375946044922 254.2867584228516 Z" stroke="none"/>
        <path d="M 39.17042541503906 3.999984741210938 C 34.42070007324219 3.999984741210938 29.81515502929688 4.929336547851562 25.48173522949219 6.762222290039062 C 21.29415893554688 8.533416748046875 17.532470703125 11.06991577148438 14.30120849609375 14.30117797851562 C 11.06988525390625 17.53245544433594 8.533416748046875 21.29414367675781 6.762237548828125 25.48175048828125 C 4.929351806640625 29.815185546875 4 34.42071533203125 4 39.17045593261719 L 4 226.0695190429688 C 4 229.610595703125 4.692626953125 233.0436096191406 6.058624267578125 236.2732238769531 C 7.378875732421875 239.3946838378906 9.269805908203125 242.1988677978516 11.6788330078125 244.60791015625 C 14.087890625 247.0169525146484 16.89207458496094 248.9078674316406 20.01350402832031 250.2281036376953 C 23.24311828613281 251.5941467285156 26.67611694335938 252.2867584228516 30.21719360351562 252.2867584228516 L 241.7375793457031 252.2867584228516 C 245.2786254882812 252.2867584228516 248.7116546630859 251.5941467285156 251.9412384033203 250.2281036376953 C 255.0626983642578 248.9078674316406 257.8668823242188 247.0169525146484 260.2759399414062 244.60791015625 C 262.6849670410156 242.1988677978516 264.5758972167969 239.3946838378906 265.8961181640625 236.2732238769531 C 267.2621459960938 233.0436096191406 267.9547729492188 229.610595703125 267.9547729492188 226.0695190429688 L 267.9547729492188 30.21722412109375 C 267.9547729492188 26.6761474609375 267.2621459960938 23.24313354492188 265.8961181640625 20.01351928710938 C 264.5758972167969 16.89205932617188 262.6849670410156 14.08787536621094 260.2759399414062 11.6788330078125 C 257.8668823242188 9.269790649414062 255.0626983642578 7.378875732421875 251.9412384033203 6.058609008789062 C 248.7116546630859 4.692596435546875 245.2786254882812 3.999984741210938 241.7375793457031 3.999984741210938 L 39.17042541503906 3.999984741210938 M 39.17042541503906 0 L 241.7375793457031 0 C 258.426025390625 0 271.9547729492188 13.5286865234375 271.9547729492188 30.21722412109375 L 271.9547729492188 226.0695190429688 C 271.9547729492188 242.7580261230469 258.426025390625 256.2867431640625 241.7375793457031 256.2867431640625 L 30.21719360351562 256.2867431640625 C 13.5286865234375 256.2867431640625 0 242.7580261230469 0 226.0695190429688 L 0 39.17045593261719 C 0 17.53721618652344 17.53720092773438 0 39.17042541503906 0 Z" stroke="none" fill="#fff"/>
      </g>
    </g>
    <g transform="matrix(1, 0, 0, 1, 421.55, 1639.05)" filter="url(#Sustracción_4)">
      <path id="Sustracción_4-2" data-name="Sustracción 4" d="M82.576,172H57.245c.56-4.723,1.317-9.461,2.25-14.084a174.579,174.579,0,0,1,72.338-109.53A171.352,171.352,0,0,1,161.05,32.3a169.3,169.3,0,0,1,32.286-10.167c4.146-.861,8.407-1.578,12.665-2.129V46.248C142.774,55.907,92.02,107.618,82.574,172Z" transform="translate(162.45 136.95)" fill="#f1b62b"/>
    </g>
    <g transform="matrix(1, 0, 0, 1, 421.55, 1639.05)" filter="url(#Sustracción_16)">
      <path id="Sustracción_16-2" data-name="Sustracción 16" d="M25.332,0H0C.56,4.725,1.317,9.463,2.25,14.086A175.607,175.607,0,0,0,12.271,46.841,175.29,175.29,0,0,0,28.13,76.483a175.282,175.282,0,0,0,21,25.825,173.894,173.894,0,0,0,25.456,21.307A171.351,171.351,0,0,0,103.805,139.7a169.3,169.3,0,0,0,32.286,10.167c4.146.861,8.407,1.578,12.665,2.129V125.753C85.529,116.095,34.775,64.384,25.33,0Z" transform="translate(219.7 352.79)" fill="#ee4e5d"/>
    </g>
    <g transform="matrix(1, 0, 0, 1, 421.55, 1639.05)" filter="url(#Sustracción_8)">
      <path id="Sustracción_8-2" data-name="Sustracción 8" d="M25.332,0H0C.56,4.725,1.317,9.463,2.25,14.086A175.608,175.608,0,0,0,12.271,46.841,175.29,175.29,0,0,0,28.13,76.483a175.283,175.283,0,0,0,21,25.825,173.9,173.9,0,0,0,25.456,21.308,171.352,171.352,0,0,0,29.217,16.089,169.3,169.3,0,0,0,32.286,10.167c4.146.861,8.407,1.578,12.665,2.129V125.753C85.529,116.095,34.775,64.384,25.33,0Z" transform="translate(554.88 308.95) rotate(180)" fill="#179587"/>
    </g>
    <g transform="matrix(1, 0, 0, 1, 421.55, 1639.05)" filter="url(#Sustracción_12)">
      <path id="Sustracción_12-2" data-name="Sustracción 12" d="M25.332,152H0c.56-4.723,1.317-9.461,2.25-14.084A174.579,174.579,0,0,1,74.588,28.386,171.352,171.352,0,0,1,103.805,12.3,169.3,169.3,0,0,1,136.091,2.129C140.237,1.268,144.5.552,148.756,0V26.249C85.529,35.907,34.775,87.618,25.33,152Z" transform="translate(554.88 504.79) rotate(180)" fill="#222b5a"/>
    </g>
    <path id="Rectángulo_302568" data-name="Rectángulo 302568" d="M18,0H118a18,18,0,0,1,18,18V49a0,0,0,0,1,0,0H18A18,18,0,0,1,0,31V18A18,18,0,0,1,18,0Z" transform="translate(434 1646)" fill="#f1b62b"/>
    <path id="Rectángulo_302569" data-name="Rectángulo 302569" d="M18,0H118a18,18,0,0,1,18,18V49a0,0,0,0,1,0,0H18A18,18,0,0,1,0,31V18A18,18,0,0,1,18,0Z" transform="translate(434 2018)" fill="#ee4e5d"/>
    <text id="Grupo_1._Los_voluntarios_acreditados_y_activos_de_la_Defensa_civil_colombiana_regulada_a_partir_de_la_Ley_1523_de_2012_y_la_Ley_99_de_1993._" data-name="Grupo 1.
 
Los voluntarios acreditados y activos de la Defensa civil colombiana, regulada a partir de la Ley 1523 de 2012 y la Ley 99 de 1993.
" transform="translate(454.309 1662)" fill="#12263f" font-size="18" font-family="Roboto-Black, Roboto" font-weight="800"><tspan x="0" y="19">Grupo 1.</tspan><tspan x="0" y="44"> </tspan><tspan font-size="16" font-family="Roboto-Regular, Roboto" font-weight="400"><tspan x="0" y="69">Los voluntarios acreditados y </tspan><tspan x="0" y="94">activos de la Defensa civil </tspan><tspan x="0" y="119">colombiana, regulada a partir de </tspan><tspan x="0" y="144">la Ley 1523 de 2012 y la Ley 99 </tspan><tspan x="0" y="169">de 1993.</tspan><tspan x="0" y="194"></tspan></tspan></text>
    <text id="Grupo_2._Los_voluntarios_acreditados_y_activos_de_la_Cruz_Roja_colombiana_entidad_creada_por_medio_de_la_Ley_142_de_1937._" data-name="Grupo 2.

Los voluntarios acreditados y activos de la Cruz Roja colombiana, entidad creada por medio de la Ley 142 de 1937.
" transform="translate(456.383 2034)" fill="#12263f" font-size="18" font-family="Roboto-Black, Roboto" font-weight="800"><tspan x="0" y="19">Grupo 2.</tspan><tspan x="0" y="44"></tspan><tspan font-size="16" font-family="Roboto-Regular, Roboto" font-weight="400"><tspan x="0" y="69">Los voluntarios acreditados y </tspan><tspan x="0" y="94">activos de la Cruz Roja </tspan><tspan x="0" y="119">colombiana, entidad creada </tspan><tspan x="0" y="144">por medio de la Ley 142 de </tspan><tspan x="0" y="169">1937.</tspan><tspan x="0" y="194"></tspan></tspan></text>
    <path id="Rectángulo_302570" data-name="Rectángulo 302570" d="M18,0H118a18,18,0,0,1,18,18V31a18,18,0,0,1-18,18H0a0,0,0,0,1,0,0V18A18,18,0,0,1,18,0Z" transform="translate(1032 1646)" fill="#179587"/>
    <path id="Rectángulo_302571" data-name="Rectángulo 302571" d="M18,0H118a18,18,0,0,1,18,18V31a18,18,0,0,1-18,18H0a0,0,0,0,1,0,0V18A18,18,0,0,1,18,0Z" transform="translate(1032 2018)" fill="#222b5a"/>
    <text id="Grupo_3._Los_voluntarios_acreditados_y_activos_de_los_Cuerpos_de_bomberos_entidad_reglamentada_a_través_de_la_Ley_1575_de_2012._" data-name="Grupo 3.

Los voluntarios acreditados y activos de los Cuerpos de bomberos, entidad reglamentada a través de la Ley 1575 de 2012.
" transform="translate(909.549 1662)" fill="#fff" font-size="18" font-family="Roboto-Black, Roboto" font-weight="800"><tspan x="161.312" y="19">Grupo 3.</tspan><tspan fill="#12263f"><tspan x="231.141" y="44"></tspan></tspan><tspan fill="#12263f" font-size="16" font-family="Roboto-Regular, Roboto" font-weight="400"><tspan x="22.609" y="69">Los voluntarios acreditados y </tspan><tspan x="48.367" y="94">activos de los Cuerpos de </tspan><tspan x="98.664" y="119">bomberos, entidad </tspan><tspan x="6.062" y="144">reglamentada a través de la Ley </tspan><tspan x="129.633" y="169">1575 de 2012.</tspan><tspan x="231.141" y="194"></tspan></tspan></text>
    <text id="Grupo_4._Otras_entidades_autorizadas_por_el_Comité_nacional_para_la_prevención_y_atención_de_desastres._" data-name="Grupo 4.

Otras entidades autorizadas por el Comité nacional para la prevención y atención de desastres.
" transform="translate(928.575 2034)" fill="#fff" font-size="18" font-family="Roboto-Black, Roboto" font-weight="800"><tspan x="142.81" y="19">Grupo 4.</tspan><tspan fill="#12263f"><tspan x="212.64" y="44"></tspan></tspan><tspan fill="#12263f" font-size="16" font-family="Roboto-Regular, Roboto" font-weight="400"><tspan x="12.921" y="69">Otras entidades autorizadas </tspan><tspan x="1.413" y="94">por el Comité nacional para la </tspan><tspan x="36.21" y="119">prevención y atención de </tspan><tspan x="138.358" y="144">desastres.</tspan><tspan x="212.64" y="169"></tspan></tspan></text>
  </g>
</svg>
