<svg xmlns="http://www.w3.org/2000/svg" xmlns:xlink="http://www.w3.org/1999/xlink" width="294.072" height="427" viewBox="0 0 294.072 427">
  <defs>
    <linearGradient id="linear-gradient" x1="-409.431" y1="0.14" x2="-411.86" y2="1.459" gradientUnits="objectBoundingBox">
      <stop offset="0" stop-color="#f9b776"/>
      <stop offset="1" stop-color="#f47960"/>
    </linearGradient>
    <linearGradient id="linear-gradient-2" x1="-63.113" y1="0.968" x2="-60.869" y2="-0.531" gradientUnits="objectBoundingBox">
      <stop offset="0" stop-color="#2b3582"/>
      <stop offset="1" stop-color="#150e42"/>
    </linearGradient>
    <linearGradient id="linear-gradient-3" x1="-0.753" y1="-4.129" x2="2.748" y2="8.972" gradientUnits="objectBoundingBox">
      <stop offset="0" stop-color="#53d8ff"/>
      <stop offset="0.847" stop-color="#3c57f8"/>
      <stop offset="1" stop-color="#3840f7"/>
    </linearGradient>
    <linearGradient id="linear-gradient-4" x1="-238.563" y1="-0.843" x2="-239.07" y2="2.39" xlink:href="#linear-gradient"/>
    <linearGradient id="linear-gradient-5" x1="-0.209" y1="-3.193" x2="1.767" y2="6.782" xlink:href="#linear-gradient-3"/>
    <linearGradient id="linear-gradient-6" x1="-59.778" y1="0.794" x2="-57.695" y2="-0.625" xlink:href="#linear-gradient-2"/>
    <linearGradient id="linear-gradient-7" x1="-233.974" y1="-0.223" x2="-234.488" y2="2.539" xlink:href="#linear-gradient"/>
    <linearGradient id="linear-gradient-8" x1="-510.635" y1="0.429" x2="-506.924" y2="-1.257" gradientUnits="objectBoundingBox">
      <stop offset="0" stop-color="#53d8ff"/>
      <stop offset="1" stop-color="#3840f7"/>
    </linearGradient>
    <linearGradient id="linear-gradient-9" x1="-54.178" y1="0.5" x2="-53.178" y2="0.5" xlink:href="#linear-gradient"/>
    <linearGradient id="linear-gradient-10" x1="-99.826" y1="-0.222" x2="-100.645" y2="2.966" xlink:href="#linear-gradient"/>
    <linearGradient id="linear-gradient-11" x1="-150.111" y1="-55.803" x2="-151.675" y2="-54.429" xlink:href="#linear-gradient"/>
    <linearGradient id="linear-gradient-12" x1="-358.016" y1="-158.523" x2="-355.126" y2="-160.946" xlink:href="#linear-gradient"/>
    <linearGradient id="linear-gradient-13" x1="-993.993" y1="1.055" x2="-987.446" y2="-1.055" xlink:href="#linear-gradient-8"/>
    <linearGradient id="linear-gradient-14" x1="-56.507" y1="0.463" x2="-59.526" y2="2.307" xlink:href="#linear-gradient-2"/>
    <linearGradient id="linear-gradient-15" x1="-268.641" y1="355.008" x2="-269.56" y2="360.913" gradientUnits="objectBoundingBox">
      <stop offset="0" stop-color="#8d55d1"/>
      <stop offset="0.996" stop-color="#1c2873"/>
    </linearGradient>
    <linearGradient id="linear-gradient-16" x1="-247.404" y1="-0.882" x2="-243.416" y2="5.235" xlink:href="#linear-gradient"/>
  </defs>
  <g id="Grupo_1000276" data-name="Grupo 1000276" transform="translate(-952.301 -7573)">
    <g id="Grupo_1000275" data-name="Grupo 1000275">
      <g id="Background_Complete" data-name="Background Complete" transform="translate(974.508 7625.638)" opacity="0.38">
        <g id="Grupo_995656" data-name="Grupo 995656" transform="translate(0 0)">
          <g id="Grupo_995654" data-name="Grupo 995654" transform="translate(0 0)">
            <path id="Trazado_651735" data-name="Trazado 651735" d="M458.235,26.341,342.968,75.454a20.521,20.521,0,0,0-12.475,18.878v47.332A221.62,221.62,0,0,0,467.354,346.422c44.775-13.658,78.2-50.058,98.628-81.189A219.694,219.694,0,0,0,602.067,144.04V94.332a20.526,20.526,0,0,0-12.475-18.878L474.321,26.341A20.516,20.516,0,0,0,458.235,26.341Z" transform="translate(-330.493 -24.698)" fill="#e8e8e8"/>
            <g id="Grupo_995653" data-name="Grupo 995653" transform="translate(186.626 106.521)">
              <path id="Trazado_651736" data-name="Trazado 651736" d="M469.018,55.49a9.986,9.986,0,0,1,.218,2.179c.073,1.622.166,3.7.28,6.268.107,2.723.263,6.061.076,9.932s-.031,8.3-.6,13.146c-.467,4.857-.789,10.2-1.788,15.861-.46,2.83-.82,5.784-1.408,8.783q-.96,4.489-1.979,9.226a226.715,226.715,0,0,1-13.291,39.8,233.842,233.842,0,0,1-20.677,36.528c-3.84,5.193-7.382,10.209-11.184,14.519-1.868,2.179-3.563,4.376-5.39,6.32s-3.58,3.792-5.262,5.57c-3.266,3.629-6.625,6.511-9.423,9.185-2.785,2.7-5.352,4.829-7.483,6.531-2,1.612-3.622,2.916-4.888,3.933a9.889,9.889,0,0,1-1.778,1.277,9.8,9.8,0,0,1,1.55-1.557c1.2-1.083,2.75-2.47,4.656-4.186,2.055-1.778,4.549-3.975,7.254-6.732,2.723-2.733,6-5.663,9.188-9.33l5.148-5.615c1.785-1.955,3.446-4.158,5.276-6.345,3.726-4.324,7.2-9.34,10.973-14.519a241.591,241.591,0,0,0,20.393-36.313A233.607,233.607,0,0,0,462.2,120.5q1.048-4.686,2.041-9.143c.609-2.975,1-5.9,1.484-8.711,1.059-5.611,1.453-10.914,2-15.74.647-4.815.567-9.223.861-13.07s.228-7.175.228-9.894c.024-2.563.045-4.639.059-6.262A10.076,10.076,0,0,1,469.018,55.49Z" transform="translate(-384.44 -55.49)" fill="#e8e8e8"/>
            </g>
          </g>
          <g id="Grupo_995655" data-name="Grupo 995655" transform="translate(61.08 96.566)">
            <path id="Trazado_651737" data-name="Trazado 651737" d="M414.273,165.463l-66.124-52.57L366.495,89.82l44.339,35.251,64.748-72.458,21.979,19.641Z" transform="translate(-348.149 -52.612)" fill="#fff"/>
          </g>
        </g>
      </g>
      <g id="Grupo_995652" data-name="Grupo 995652" transform="translate(952.301 7573)">
        <g id="Grupo_995639" data-name="Grupo 995639" transform="translate(94.669 99.472)">
          <g id="Grupo_995638" data-name="Grupo 995638" transform="translate(0)">
            <g id="Grupo_995635" data-name="Grupo 995635" transform="translate(28.443 23.81)">
              <path id="Trazado_651707" data-name="Trazado 651707" d="M2537.372,1006.469c-1.5,1.928-13.155,9.463.732,20.342.686,1.206-1,4.451-2.27,4.092-19.881-12.6-2.272-29.824-.217-28.271S2539.116,1004.226,2537.372,1006.469Z" transform="translate(-2526.461 -1002.535)" fill="#f1b62b"/>
            </g>
            <g id="Grupo_995636" data-name="Grupo 995636" transform="translate(14.186 13.401)">
              <path id="Trazado_651708" data-name="Trazado 651708" d="M2523.827,1034.286c-.2,2.491-1.81,4.885-4,4.266-2.163-.61-30.676-23.286-.451-50.783a1.881,1.881,0,0,1,2.667.137c1.043,1.164,1.752,2.162,1.636,3.5C2497.186,1016.521,2524.029,1031.8,2523.827,1034.286Z" transform="translate(-2505.567 -987.281)" fill="#f1b62b"/>
            </g>
            <g id="Grupo_995637" data-name="Grupo 995637">
              <path id="Trazado_651709" data-name="Trazado 651709" d="M2509.407,1040.672c.416,1.749-.778,5.4-3.707,4.573-46.848-40.034-.666-78.864,1.3-77.572a4.426,4.426,0,0,1,1.531,5.184C2467.17,1007.576,2508.99,1038.923,2509.407,1040.672Z" transform="translate(-2484.779 -967.642)" fill="#f1b62b"/>
            </g>
          </g>
        </g>
        <g id="Grupo_995647" data-name="Grupo 995647" transform="translate(147.386 96.968)">
          <path id="Trazado_651710" data-name="Trazado 651710" d="M2584.929,1032.387s1.674-3.029,1.494-5.465,1.338-6.015-.278-5.75-1.949.049-2.387,2.972S2579.375,1037.853,2584.929,1032.387Z" transform="translate(-2568.373 -982.134)" fill="url(#linear-gradient)"/>
          <g id="Grupo_995640" data-name="Grupo 995640" transform="translate(84.079 311.836)">
            <path id="Trazado_651711" data-name="Trazado 651711" d="M2686.628,1425.278a5.927,5.927,0,0,1,5.9-4.324l2.7.085c14.217,3.409,21.626,11.648,24.548,15.7a.253.253,0,0,1-.186.4c-4.486.363-14.911,1.084-23.733.837-5.885-.164-9.027-.4-10.6-1.039A49,49,0,0,1,2686.628,1425.278Z" transform="translate(-2685.248 -1420.95)" fill="url(#linear-gradient-2)"/>
            <path id="Trazado_651712" data-name="Trazado 651712" d="M2695.752,1444.751c-5.886-.165-8.93-.858-10.5-1.5,0,.585,0,1.181.018,1.8a1.162,1.162,0,0,0,1.11,1.182l32.314-.209a1.476,1.476,0,0,0,1.187-2.148C2715.641,1444.222,2704.85,1445.006,2695.752,1444.751Z" transform="translate(-2685.248 -1428.033)" fill="url(#linear-gradient-3)"/>
          </g>
          <path id="Trazado_651713" data-name="Trazado 651713" d="M2702.29,1407.494l-2.257,10.865a1.777,1.777,0,0,1-1.518,1.461,15.023,15.023,0,0,1-3.5-.056,2.232,2.232,0,0,1-1.769-2.624l1.569-9.647Z" transform="translate(-2603.7 -1104.84)" fill="url(#linear-gradient-4)"/>
          <g id="Grupo_995641" data-name="Grupo 995641" transform="translate(27.551 311.843)">
            <path id="Trazado_651714" data-name="Trazado 651714" d="M2626.685,1444.751c5.885-.165,8.93-.858,10.5-1.5,0,.585,0,1.181-.018,1.8a1.162,1.162,0,0,1-1.11,1.182l-32.314-.209a1.476,1.476,0,0,1-1.187-2.148C2606.8,1444.222,2617.587,1445.006,2626.685,1444.751Z" transform="translate(-2602.409 -1428.039)" fill="url(#linear-gradient-5)"/>
            <path id="Trazado_651715" data-name="Trazado 651715" d="M2602.628,1436.793a1.578,1.578,0,0,1,.128-.244c2.854-3.988,10.122-11.928,24.485-15.372l6.89-.217s3.068,5.332,3.126,15.21c-1.573.643-4.618,1.336-10.5,1.5C2617.656,1437.926,2606.865,1437.143,2602.628,1436.793Z" transform="translate(-2602.479 -1420.96)" fill="url(#linear-gradient-6)"/>
          </g>
          <path id="Trazado_651716" data-name="Trazado 651716" d="M2646.511,1404.879c-.077.514-1.021,8.32-1.386,11.346a1.5,1.5,0,0,1-1.265,1.354,15.794,15.794,0,0,1-4.733-.073,2.038,2.038,0,0,1-1.544-2.046v-12.253Z" transform="translate(-2586.03 -1103.479)" fill="url(#linear-gradient-7)"/>
          <path id="Trazado_651717" data-name="Trazado 651717" d="M2651.171,1196.9s-16.619,63.158-16.319,142.635a3.076,3.076,0,0,0,2.441,3,35.853,35.853,0,0,0,7.7.892,2.854,2.854,0,0,0,2.72-2.384c2.33-13.665,15.7-90.648,23.322-103.146,0,0,5.013,68.564,3.41,104.136a1.686,1.686,0,0,0,1.488,1.753,28.318,28.318,0,0,0,6.185-.017,2.256,2.256,0,0,0,2.011-1.915c1.659-11.565,11.213-80.406,10.807-130-.023-2.8-7.4-14.956-7.4-14.956Z" transform="translate(-2585.161 -1037.952)" fill="#222b5a"/>
          <path id="Trazado_651718" data-name="Trazado 651718" d="M2734.137,1103.632c4.517-12.363,2.879-27.291,2.861-27.44l-1.245.142c.017.147,1.621,14.789-2.794,26.868Z" transform="translate(-2616.323 -999.614)" fill="url(#linear-gradient-8)"/>
          <g id="Grupo_995642" data-name="Grupo 995642" transform="translate(0.645 53.466)">
            <path id="Trazado_651719" data-name="Trazado 651719" d="M2564.353,1098.046c-3.729-20.29,1.319-55.724,1.319-55.724l8.033,7.933s.792,28.913,5.981,40.21A25.226,25.226,0,0,0,2564.353,1098.046Z" transform="translate(-2562.979 -1042.322)" fill="#179587"/>
            <path id="Trazado_651720" data-name="Trazado 651720" d="M2580.325,1092.63c.98,2.132,2.1,3.7,3.38,4.4,4.686,2.573,13.777-12.108,20.553-24.833,4.873-9.146,8.553-17.278,8.553-17.278,4.873-5.5,16.943-6.261,28.17-5.559a171.819,171.819,0,0,1,23.227,3.2.213.213,0,0,0,.046.008c5.38.709,10.05,1.3,13.427,1.731a16.105,16.105,0,0,1,10.159,5.458c10.315,11.937,32.957,44.629,6.307,77.571-3.407-1.894-8.257-4.927-11.547-8.444,2.948-8.312,3.189-18.931-2.986-31.96a31.518,31.518,0,0,1-.788,3.064,189.094,189.094,0,0,0-8.95,54.6,1.7,1.7,0,0,1-1.076,1.6c-11.2,4.491-32.786,1.817-40.021.741a2.439,2.439,0,0,1-2.043-2.768c2.16-15.648-3.735-37.433-9.77-54.5-35.413,35.094-48.061,21.843-51.975.555A25.225,25.225,0,0,1,2580.325,1092.63Z" transform="translate(-2563.619 -1044.487)" fill="#179587"/>
          </g>
          <path id="Trazado_651721" data-name="Trazado 651721" d="M2703.986,1188.638c3.075-1.726,15-9.133,19.8-22.645,3.291,3.513,8.138,6.548,11.548,8.441a95.9,95.9,0,0,1-21.106,18.769h0c-.323,7.021-5.72,9.62-6.955,11.894s.52,1.755-.26,4.613-8.966-4.548-10.915-6.238-.779-6.367-.779-6.367a26.533,26.533,0,0,0-.65-2.924C2694.146,1192.236,2703.947,1188.652,2703.986,1188.638Z" transform="translate(-2604.153 -1028.136)" fill="url(#linear-gradient-9)"/>
          <g id="Grupo_995644" data-name="Grupo 995644" transform="translate(68.349 10.151)">
            <path id="Trazado_651722" data-name="Trazado 651722" d="M2692.83,1024.15l2.161,22.07s-12.415,3.739-21.446-2.632l6.348-20.058Z" transform="translate(-2665.8 -993.039)" fill="url(#linear-gradient-10)"/>
            <g id="Grupo_995643" data-name="Grupo 995643">
              <path id="Trazado_651723" data-name="Trazado 651723" d="M2670.564,995.748c-.147.383-.771,27.508-.771,27.508l15.5.027,4.411-25.621S2673.033,989.337,2670.564,995.748Z" transform="translate(-2664.608 -983.445)" fill="url(#linear-gradient-11)"/>
              <path id="Trazado_651724" data-name="Trazado 651724" d="M2681.976,996.268a2.228,2.228,0,0,1,.7,1.834l-1.247,13.472a2.164,2.164,0,0,1-.139.594c-.413,1.054-2,4.3-5.294,2.5-2.811-1.537-5.415-2.91-7.531-2.977a2.224,2.224,0,0,0-2.278,2.192,82.938,82.938,0,0,0,.6,12.247,2.215,2.215,0,0,0,2.339,1.891,61.763,61.763,0,0,0,13.736-2.276,2.225,2.225,0,0,0,1.509-1.718c.656-3.556,2.537-13.516,3.5-16.246.9-2.536,4.375-3.414,6-3.69a2.239,2.239,0,0,0,1.5-.981c1.029-1.569,2.514-4.958-1.569-7.526a2.228,2.228,0,0,1-.69-3.026c1.107-1.842,1.9-4.683-1.326-7.114-3.267-2.461-6.432-1.3-8.37-.061a2.311,2.311,0,0,1-2.77-.165,1.474,1.474,0,0,0-1.428-.318,2.16,2.16,0,0,1-2.675-1.529,5.7,5.7,0,0,0-5.7-4.509c-6.861-.376-9.279,6.771-8.515,11.456s8.225,4.669,12.275,3.319C2677.58,992.644,2680.588,994.966,2681.976,996.268Z" transform="translate(-2662.196 -978.847)" fill="#12263f"/>
              <path id="Trazado_651725" data-name="Trazado 651725" d="M2698.034,1023.748s-.276-8,2.938-9.222,7.124.683,4.958,5.982C2703.236,1027.1,2698.034,1023.748,2698.034,1023.748Z" transform="translate(-2673.577 -990.066)" fill="url(#linear-gradient-12)"/>
            </g>
          </g>
          <g id="Grupo_995645" data-name="Grupo 995645" transform="translate(52.021 84.858)">
            <path id="Trazado_651726" data-name="Trazado 651726" d="M2639.983,1111.361a.41.41,0,0,0,.049,0,.389.389,0,0,0,.338-.435c-.021-.171-2.122-17.21-.982-22.119a.389.389,0,1,0-.759-.176c-1.172,5.043.879,21.685.967,22.392A.39.39,0,0,0,2639.983,1111.361Z" transform="translate(-2638.269 -1088.326)" fill="url(#linear-gradient-13)"/>
          </g>
          <g id="Grupo_995646" data-name="Grupo 995646" transform="translate(2.629)">
            <path id="Trazado_651727" data-name="Trazado 651727" d="M2565.892,967.375a3.221,3.221,0,0,1,3.623-3.378l23.7,3.023a1.823,1.823,0,0,1,1.592,1.836l-.889,60.934a.983.983,0,0,1-1.008.97l-20.482-.487a3.221,3.221,0,0,1-3.14-3.037Z" transform="translate(-2565.886 -963.971)" fill="url(#linear-gradient-14)"/>
            <path id="Trazado_651728" data-name="Trazado 651728" d="M2575.946,972.243a1.823,1.823,0,0,1,2.091-1.879l15.629,2.333a1.822,1.822,0,0,1,1.554,1.831l-.8,51.9a.985.985,0,0,1-1.063.967l-14.314-1.138a.985.985,0,0,1-.906-.942Z" transform="translate(-2569.081 -965.995)" fill="#f1b62b"/>
            <path id="Trazado_651729" data-name="Trazado 651729" d="M2588.6,969.643c-.02.186.25.366.6.4l5.2.562c.353.038.656-.081.676-.267l.02-.18c.02-.186-.25-.366-.6-.4l-5.205-.562c-.353-.038-.655.082-.675.267Z" transform="translate(-2573.1 -965.628)" fill="url(#linear-gradient-15)"/>
          </g>
          <path id="Trazado_651730" data-name="Trazado 651730" d="M2562.51,1019.493c1.8-.664,5.324-6.761,6-4.755s-.285,4.755,0,5.608,2.234,5.592,1.356,7.772a84.356,84.356,0,0,0-2.209,8.988c-.177.854-.273,1.967-1.146,1.967s-1.671-1.084-1.849-1.937C2564.592,1036.794,2560.709,1020.157,2562.51,1019.493Z" transform="translate(-2562.034 -979.967)" fill="url(#linear-gradient-16)"/>
        </g>
        <g id="Grupo_995651" data-name="Grupo 995651" transform="translate(0 0)">
          <g id="Grupo_995648" data-name="Grupo 995648">
            <path id="Rectángulo_302414" data-name="Rectángulo 302414" d="M0,0H68.221a0,0,0,0,1,0,0V48.97a14.8,14.8,0,0,1-14.8,14.8H14.962A14.962,14.962,0,0,1,0,48.806V0A0,0,0,0,1,0,0Z" transform="translate(9.57 48.81)" fill="#222b5a"/>
            <path id="Trazado_651731" data-name="Trazado 651731" d="M2475.687,838.135l44.212-50.078a3.024,3.024,0,0,1,4.664.156l38.757,50.329a2.282,2.282,0,0,1-1.808,3.673h-83.983A2.456,2.456,0,0,1,2475.687,838.135Z" transform="translate(-2475.067 -787.035)" fill="#222b5a"/>
          </g>
          <g id="Grupo_995650" data-name="Grupo 995650" transform="translate(12.107 48.389)">
            <g id="Grupo_995649" data-name="Grupo 995649">
              <ellipse id="Elipse_5847" data-name="Elipse 5847" cx="28.4" cy="28.4" rx="28.4" ry="28.4" transform="translate(3.905 3.905)" fill="#fff"/>
              <path id="Trazado_651732" data-name="Trazado 651732" d="M2525.115,922.557a32.3,32.3,0,1,1,32.3-32.3A32.342,32.342,0,0,1,2525.115,922.557Zm0-56.8a24.495,24.495,0,1,0,24.5,24.495A24.523,24.523,0,0,0,2525.115,865.757Z" transform="translate(-2492.81 -857.947)" fill="#f1b62b"/>
            </g>
            <path id="Trazado_651733" data-name="Trazado 651733" d="M2534.577,915.807c11.727-2.225,16.421-7.578,15.723-15.331-.643,2.878-2.536,4-5.244,3.987,3.329-4.445,4.6-8.464,3.917-12.079l-.75.607a17.355,17.355,0,0,1,.941-6.036c-3.3-.035-5.889,1.571-8.238,3.75,1.424-4.709-9.335-11.288-1.262-16.136-3.948-.379-8.154,1.04-12.53,3.649l1.109-1.813c-4.637,2.423-5.9,7.422-5.58,13.635-3.44.28-4.513-1.665-4.078-5.026-2.2,1.486-3.123,3.848-2.964,6.955l-1.073-1.088c-.714,5.013,1.283,9.582,5.027,13.176-2.5.839-4.346-.609-5.3-2.729-.283,8.936,6.2,13.6,18.085,14.851l.175-.027c-.077,0-.153,0-.231,0-4.17-.17-12.227-7.647-9.734-18.33.478,2.522,1.938,2,3.446,4.445.559-10.335,7.348-9.677,6.226-14.922,3.237,5.269,5.365,9.369,4.146,14.381,2.447-4.089,4.621-1.9,6.034-4.558C2543.166,905.831,2540.124,914.042,2534.577,915.807Z" transform="translate(-2499.625 -863.208)" fill="#f1b62b"/>
          </g>
        </g>
      </g>
    </g>
  </g>
</svg>
