<svg xmlns="http://www.w3.org/2000/svg" width="110" height="110" viewBox="0 0 110 110">
  <g id="Grupo_1000274" data-name="Grupo 1000274" transform="translate(-226.22 -7557)">
    <g id="Grupo_1000167" data-name="Grupo 1000167" transform="translate(226.22 7557)">
      <g id="Elipse_5480" data-name="Elipse 5480" transform="translate(0 0)" fill="#fff" stroke="#222b5a" stroke-width="3">
        <ellipse cx="55" cy="55" rx="55" ry="55" stroke="none"/>
        <ellipse cx="55" cy="55" rx="53.5" ry="53.5" fill="none"/>
      </g>
      <g id="deslizamiento-de-tierra" transform="translate(19.74 17.882)">
        <path id="Trazado_126699" data-name="Trazado 126699" d="M7.5,131.75h8.633l4.364,8.633,8.585,2.158,6.475,10.791,6.475,2.158,8.633,12.95L59.3,170.6l8.633,12.95H7.5Z" transform="translate(-6.459 -113.441)" fill="#535b82"/>
        <path id="Trazado_126700" data-name="Trazado 126700" d="M7.5,131.75h4.169v51.8H7.5Z" transform="translate(-6.459 -113.441)" fill="#222b5a"/>
        <path id="Trazado_126701" data-name="Trazado 126701" d="M42.881,393.207a4.317,4.317,0,0,1-4.316-4.317v-4.316a4.316,4.316,0,0,1,8.633,0v4.316A4.317,4.317,0,0,1,42.881,393.207Z" transform="translate(-33.206 -327.416)" fill="#f1b62b"/>
        <path id="Trazado_126702" data-name="Trazado 126702" d="M42.733,388.89v-4.316a4.315,4.315,0,0,1,2.232-3.78,4.317,4.317,0,0,0-6.4,3.78v4.317a4.317,4.317,0,0,0,6.4,3.78,4.315,4.315,0,0,1-2.232-3.78Z" transform="translate(-33.205 -327.415)" fill="#f1b62b"/>
        <path id="Trazado_126703" data-name="Trazado 126703" d="M136.068,366.454a4.316,4.316,0,0,1-4.316-4.316V353.5a4.316,4.316,0,1,1,8.633,0v8.634A4.317,4.317,0,0,1,136.068,366.454Z" transform="translate(-113.443 -300.663)" fill="#179587"/>
        <path id="Trazado_126704" data-name="Trazado 126704" d="M135.921,362.137V353.5a4.315,4.315,0,0,1,2.232-3.78,4.317,4.317,0,0,0-6.4,3.78v8.634a4.317,4.317,0,0,0,6.4,3.78A4.314,4.314,0,0,1,135.921,362.137Z" transform="translate(-113.443 -300.662)" fill="#2c9d90"/>
        <path id="Trazado_126705" data-name="Trazado 126705" d="M229.256,393.207a4.317,4.317,0,0,1-4.317-4.317v-4.316a4.317,4.317,0,0,1,8.633,0v4.316A4.317,4.317,0,0,1,229.256,393.207Z" transform="translate(-193.681 -327.416)" fill="#f1b62b"/>
        <path id="Trazado_126706" data-name="Trazado 126706" d="M229.108,388.89v-4.316a4.315,4.315,0,0,1,2.232-3.78,4.317,4.317,0,0,0-6.4,3.78v4.317a4.317,4.317,0,0,0,6.4,3.78A4.314,4.314,0,0,1,229.108,388.89Z" transform="translate(-193.681 -327.415)" fill="#f1b62b"/>
        <path id="Trazado_126707" data-name="Trazado 126707" d="M131.751,102.828v4.314l4.317,2.16,4.317-2.157v-4.316l-4.317-2.16Z" transform="translate(-113.442 -86.679)" fill="#535b82"/>
        <path id="Trazado_126708" data-name="Trazado 126708" d="M135.921,106.539v-3.112a.973.973,0,0,1,.538-.87l1.695-.848-2.084-1.043-4.316,2.16v4.314l4.316,2.16,2.086-1.042-1.7-.849A.972.972,0,0,1,135.921,106.539Z" transform="translate(-113.443 -86.678)" fill="#222b5a"/>
        <path id="Trazado_126709" data-name="Trazado 126709" d="M211.565,180.5l-2.158,4.3,4.317,2.158,4.316.017,2.158-4.317-2.158-4.317h-4.316Z" transform="translate(-180.307 -153.56)" fill="#535b82"/>
        <path id="Trazado_126710" data-name="Trazado 126710" d="M217.893,186.959l-3.445-1.723a.973.973,0,0,1-.434-1.306l1.721-3.429,2.158-2.158h-4.169l-2.158,2.158-2.158,4.3,4.316,2.158,4.316.017.008-.016Z" transform="translate(-180.307 -153.56)" fill="#222b5a"/>
        <path id="Trazado_126711" data-name="Trazado 126711" d="M335.815,287.061l-2.158,2.158v3.669l2.158,2.805h4.316l2.158-2.158v-4.316l-2.158-2.158Z" transform="translate(-287.291 -247.17)" fill="#535b82"/>
        <path id="Trazado_126712" data-name="Trazado 126712" d="M338.111,288.934l1.873-1.873h-4.169l-2.158,2.158v3.67l2.158,2.805h4.169l-1.956-2.543a.972.972,0,0,1-.2-.593v-2.936a.973.973,0,0,1,.285-.688Z" transform="translate(-287.291 -247.17)" fill="#222b5a"/>
        <path id="Trazado_126713" data-name="Trazado 126713" d="M442.375,411.32h4.315v4.315h-4.315Z" transform="translate(-380.901 -354.161)" fill="#535b82"/>
        <path id="Trazado_126714" data-name="Trazado 126714" d="M11.818,20.447A4.317,4.317,0,0,1,7.5,16.131V11.817a4.316,4.316,0,1,1,8.633,0V16.13A4.316,4.316,0,0,1,11.818,20.447Z" transform="translate(-6.459 -6.458)" fill="#179587"/>
        <path id="Trazado_126715" data-name="Trazado 126715" d="M11.671,16.129V11.816A4.315,4.315,0,0,1,13.9,8.036a4.317,4.317,0,0,0-6.4,3.78v4.314a4.317,4.317,0,0,0,6.4,3.78,4.314,4.314,0,0,1-2.232-3.78Z" transform="translate(-6.459 -6.457)" fill="#2c9d90"/>
        <g id="Grupo_881734" data-name="Grupo 881734" transform="translate(0 0)">
          <path id="Trazado_126716" data-name="Trazado 126716" d="M14.2,272.811H10.718v-2.333a5.368,5.368,0,0,0,4.316-5.257V260.9a5.359,5.359,0,1,0-10.718,0v4.316a5.368,5.368,0,0,0,4.317,5.257v2.333H2.084v-35.14a1.042,1.042,0,1,0-2.084,0v36.182A1.042,1.042,0,0,0,1.042,274.9H14.2a1.042,1.042,0,1,0,0-2.084Zm-7.8-7.59V260.9a3.274,3.274,0,1,1,6.549,0v4.316a3.28,3.28,0,0,1-2.232,3.1V260.9a1.042,1.042,0,1,0-2.084,0v7.421A3.28,3.28,0,0,1,6.4,265.221Z" transform="translate(0 -203.746)"/>
          <path id="Trazado_126717" data-name="Trazado 126717" d="M1.042,30.425a1.042,1.042,0,0,0,1.042-1.042V19.35H9.035L13,27.191v8.384a1.042,1.042,0,1,0,2.084,0v-7.3l6.871,1.727,6.1,10.173v4.029a1.042,1.042,0,0,0,2.084,0V41.337l4.764,1.588,3.362,5.043A1.042,1.042,0,1,0,40,46.811l-3.56-5.34a1.042,1.042,0,0,0-.538-.411L29.8,39.024l-6.277-10.46a1.042,1.042,0,0,0-.64-.474l-8.124-2.042-4.149-8.209a1.042,1.042,0,0,0-.93-.572H6.4V14.93a5.368,5.368,0,0,0,4.317-5.257V5.359A5.359,5.359,0,1,0,0,5.359V9.673A5.368,5.368,0,0,0,4.317,14.93v2.337H1.042A1.042,1.042,0,0,0,0,18.308V29.383a1.042,1.042,0,0,0,1.042,1.042ZM2.085,9.673V5.359a3.274,3.274,0,1,1,6.549,0V9.673a3.28,3.28,0,0,1-2.232,3.1V5.359a1.042,1.042,0,1,0-2.084,0v7.418a3.28,3.28,0,0,1-2.232-3.1Z" transform="translate(0 0)"/>
          <path id="Trazado_126718" data-name="Trazado 126718" d="M124.827,101.615l4.317,2.16a1.042,1.042,0,0,0,.932,0l4.317-2.157a1.042,1.042,0,0,0,.576-.932V96.369a1.042,1.042,0,0,0-.576-.932l-4.317-2.16a1.042,1.042,0,0,0-.933,0l-4.317,2.16a1.042,1.042,0,0,0-.576.932v4.314A1.043,1.043,0,0,0,124.827,101.615Zm1.509-4.6,3.274-1.638,3.274,1.638v3.028l-3.274,1.636-3.275-1.638Z" transform="translate(-106.985 -80.22)"/>
          <path id="Trazado_126719" data-name="Trazado 126719" d="M250.965,128.185a1.042,1.042,0,1,0,1.474-1.474l-2.158-2.157a1.042,1.042,0,0,0-1.473,1.474Z" transform="translate(-213.969 -106.983)"/>
          <path id="Trazado_126720" data-name="Trazado 126720" d="M202.524,179.274l4.317,2.158a1.042,1.042,0,0,0,.462.11l4.317.017h0a1.042,1.042,0,0,0,.932-.576l2.158-4.317a1.042,1.042,0,0,0,0-.932l-2.158-4.317a1.042,1.042,0,0,0-.932-.576h-4.317a1.043,1.043,0,0,0-.737.305l-2.158,2.158a1.047,1.047,0,0,0-.194.269l-2.158,4.3A1.042,1.042,0,0,0,202.524,179.274ZM206,174.66l1.734-1.734h3.241l1.637,3.274-1.636,3.272-3.426-.013-3.165-1.582Z" transform="translate(-173.89 -147.1)"/>
          <path id="Trazado_126721" data-name="Trazado 126721" d="M265.811,264.336a1.042,1.042,0,0,0-1.474,1.474l2.158,2.158a1.042,1.042,0,0,0,1.474-1.474Z" transform="translate(-227.341 -227.34)"/>
          <path id="Trazado_126722" data-name="Trazado 126722" d="M312.382,205.843l2.158-2.158a1.042,1.042,0,0,0-1.474-1.474l-2.158,2.158a1.033,1.033,0,0,0,0,1.474A1.176,1.176,0,0,0,312.382,205.843Z" transform="translate(-267.437 -173.848)"/>
          <path id="Trazado_126723" data-name="Trazado 126723" d="M326.157,282.762v3.669a1.042,1.042,0,0,0,.216.635l2.158,2.805a1.042,1.042,0,0,0,.826.407h4.317a1.043,1.043,0,0,0,.737-.305l2.158-2.158a1.042,1.042,0,0,0,.305-.737v-4.316a1.043,1.043,0,0,0-.305-.737l-2.158-2.158a1.042,1.042,0,0,0-.737-.305h-4.317a1.043,1.043,0,0,0-.737.305l-2.158,2.158A1.043,1.043,0,0,0,326.157,282.762Zm2.084.432,1.548-1.548h3.453l1.548,1.548v3.453l-1.548,1.548h-3.372l-1.629-2.118v-2.883Z" transform="translate(-280.833 -240.713)"/>
          <path id="Trazado_126724" data-name="Trazado 126724" d="M405.584,361.155l2.158-2.16a1.042,1.042,0,0,0-1.474-1.473l-2.158,2.159a1.039,1.039,0,0,0,0,1.474A1.171,1.171,0,0,0,405.584,361.155Z" transform="translate(-347.689 -307.576)"/>
          <path id="Trazado_126725" data-name="Trazado 126725" d="M435.917,410.22h4.315a1.042,1.042,0,0,0,1.042-1.042v-4.315a1.042,1.042,0,0,0-1.042-1.042h-4.315a1.042,1.042,0,0,0-1.042,1.042v4.315A1.042,1.042,0,0,0,435.917,410.22Zm1.042-4.315h2.231v2.231h-2.231Z" transform="translate(-374.443 -347.704)"/>
          <path id="Trazado_126726" data-name="Trazado 126726" d="M177.092,363.268h-8.076l-8.323-12.486a1.042,1.042,0,0,0-.615-.433l-8.243-2.06-2.329-3.493a1.042,1.042,0,0,0-1.734,1.156l2.553,3.828a1.042,1.042,0,0,0,.615.433l8.243,2.06,7.329,10.995H143.6v-2.333a5.368,5.368,0,0,0,4.317-5.257v-4.316a5.359,5.359,0,0,0-10.718,0v4.317a5.368,5.368,0,0,0,4.317,5.257v2.333H130.652v-2.333a5.368,5.368,0,0,0,4.317-5.257v-8.634a5.359,5.359,0,1,0-10.718,0v8.634a5.368,5.368,0,0,0,4.317,5.257v2.333h-2.84a1.042,1.042,0,0,0,0,2.084h51.364a1.042,1.042,0,1,0,0-2.084ZM129.61,350.319a1.042,1.042,0,0,0-1.042,1.042v7.421a3.28,3.28,0,0,1-2.232-3.1v-8.634a3.274,3.274,0,1,1,6.549,0v8.634a3.28,3.28,0,0,1-2.232,3.1v-7.421A1.042,1.042,0,0,0,129.61,350.319Zm12.95,0a1.042,1.042,0,0,0-1.042,1.042v7.421a3.28,3.28,0,0,1-2.232-3.1v-4.316a3.274,3.274,0,1,1,6.549,0v4.316a3.28,3.28,0,0,1-2.232,3.1v-7.421A1.042,1.042,0,0,0,142.56,350.319Z" transform="translate(-106.985 -294.203)"/>
        </g>
      </g>
    </g>
  </g>
</svg>
