<svg xmlns="http://www.w3.org/2000/svg" width="69" height="69" viewBox="0 0 69 69">
  <g id="Grupo_1000289" data-name="Grupo 1000289" transform="translate(-1328 -8566)">
    <g id="Elipse_5557" data-name="Elipse 5557" transform="translate(1328 8566)" fill="none" stroke="#222b5a" stroke-width="1">
      <circle cx="34.5" cy="34.5" r="34.5" stroke="none"/>
      <circle cx="34.5" cy="34.5" r="34" fill="none"/>
    </g>
    <g id="luz-de-ahorro-de-energia" transform="translate(1335.678 8573)">
      <path id="Trazado_126344" data-name="Trazado 126344" d="M12,58l.9,1.808a2.645,2.645,0,0,0,4.732,0l.9-1.808" transform="translate(-3.005 -11.398)" fill="#747574"/>
      <path id="Trazado_126345" data-name="Trazado 126345" d="M51.892,37.026V56.345H29V37.026L40.446,31Z" transform="translate(-6.107 -6.473)" fill="#179587"/>
      <path id="Trazado_126346" data-name="Trazado 126346" d="M31.024,36.155a19.316,19.316,0,0,0,19.3,18.555h1.938V37.026L40.815,31Z" transform="translate(-6.476 -6.473)" fill="#179587"/>
      <path id="Trazado_126347" data-name="Trazado 126347" d="M38,59.264V47h8.176V59.264" transform="translate(-7.748 -9.391)" fill="#222b5a"/>
      <path id="Trazado_126348" data-name="Trazado 126348" d="M38,52.025a19.3,19.3,0,0,0,8.176,4.829V47H38Z" transform="translate(-7.748 -9.391)" fill="#222b5a"/>
      <path id="Trazado_126349" data-name="Trazado 126349" d="M24,34.176,39.534,26l15.534,8.177v4.088L39.534,30.088,24,38.264Z" transform="translate(-5.194 -5.56)" fill="#ee4e5d"/>
      <path id="Trazado_126350" data-name="Trazado 126350" d="M43,26v4.089l15.534,8.176V34.176Z" transform="translate(-8.66 -5.56)" fill="#ee4e5d"/>
      <path id="Trazado_126351" data-name="Trazado 126351" d="M38,40h8.176v2.453H38Z" transform="translate(-7.748 -8.115)" fill="#684d42"/>
      <path id="Trazado_126352" data-name="Trazado 126352" d="M16.716,42.979v-.11a7.4,7.4,0,0,1,3.27-6.036,11.446,11.446,0,1,0-13.043.029,7.44,7.44,0,0,1,3.232,6.118" transform="translate(-1.181 -3.735)" fill="#f3c350"/>
      <path id="Trazado_126353" data-name="Trazado 126353" d="M19.986,31.446A11.446,11.446,0,0,0,7.22,20.073a11.14,11.14,0,0,0-2.347.535A11.413,11.413,0,0,0,6.945,37.591a7.44,7.44,0,0,1,3.23,6.118h2.4a7.774,7.774,0,0,1,2.5-2.876A11.422,11.422,0,0,0,19.986,31.446Z" transform="translate(-1.18 -4.466)" fill="#f1b62b"/>
      <path id="Trazado_126354" data-name="Trazado 126354" d="M15.777,45.952H14.141v-6.68a4.733,4.733,0,0,0-1.4-3.37l-2.453-2.453,1.156-1.156L13.9,34.746a6.356,6.356,0,0,1,1.875,4.526Z" transform="translate(-2.694 -6.709)" fill="#684d42"/>
      <path id="Trazado_126355" data-name="Trazado 126355" d="M12.845,34.864l-1.924-1.925-.628.628,2.453,2.453a4.733,4.733,0,0,1,1.4,3.37v6.68h.578V39.39A6.356,6.356,0,0,0,12.845,34.864Z" transform="translate(-2.694 -6.826)" fill="#886f65"/>
      <path id="Trazado_126356" data-name="Trazado 126356" d="M4.905,0V2.453A4.905,4.905,0,0,1,0,7.358V4.905A4.905,4.905,0,0,1,4.905,0Z" transform="translate(17.17 32.703) rotate(180)" fill="#66ab5d"/>
      <path id="Trazado_126357" data-name="Trazado 126357" d="M8,25a4.905,4.905,0,0,1,4.905,4.905v4.088A4.905,4.905,0,0,1,8,29.088Z" transform="translate(-2.276 -5.378)" fill="#66ab5d"/>
      <path id="Trazado_126358" data-name="Trazado 126358" d="M41.905,2,37,10.176l4.905,2.453v5.723l4.905-8.176L41.905,7.723Z" transform="translate(-7.566 -1.183)" fill="#f1b62b"/>
      <path id="Trazado_126359" data-name="Trazado 126359" d="M45.088,10.993l-2.453,7.358,4.905-8.176L42.635,7.723V2L41,9.358Z" transform="translate(-8.296 -1.183)" fill="#f3c350"/>
      <path id="Trazado_126360" data-name="Trazado 126360" d="M44,52h1.635v3.27H44Z" transform="translate(-8.843 -10.304)" fill="#f2ad95"/>
      <path id="Trazado_126361" data-name="Trazado 126361" d="M9,25.09v2.379A4.905,4.905,0,0,0,13.088,32.3V29.922A4.905,4.905,0,0,0,9,25.09Z" transform="translate(-2.458 -5.395)" fill="#7bb873"/>
      <path id="Trazado_126362" data-name="Trazado 126362" d="M18,36.088v2.453a4.906,4.906,0,0,0,1.332-.188,4.893,4.893,0,0,0,1.938-3.9V32a4.906,4.906,0,0,0-1.332.188A4.891,4.891,0,0,0,18,36.088Z" transform="translate(-4.1 -6.655)" fill="#7bb873"/>
      <path id="Trazado_126363" data-name="Trazado 126363" d="M11,49h8.176v7.358H11Z" transform="translate(-2.823 -9.756)" fill="#bcbdbc"/>
      <path id="Trazado_126364" data-name="Trazado 126364" d="M19.583,54.675V49H13.231A7.358,7.358,0,0,0,19.583,54.675Z" transform="translate(-3.23 -9.756)" fill="#dfe0df"/>
      <g id="Grupo_881688" data-name="Grupo 881688" transform="translate(6.542 40.879)">
        <path id="Trazado_126365" data-name="Trazado 126365" d="M9,51H20.446v1.635H9Z" transform="translate(-9 -51)" fill="#9d9e9d"/>
        <path id="Trazado_126366" data-name="Trazado 126366" d="M9,54H20.446v1.635H9Z" transform="translate(-9 -51.547)" fill="#9d9e9d"/>
        <path id="Trazado_126367" data-name="Trazado 126367" d="M13.5,58l.5.99a2.641,2.641,0,0,0,3.775,1.054,2.438,2.438,0,0,0,.14-.237l.9-1.807Z" transform="translate(-9.821 -52.277)" fill="#9d9e9d"/>
      </g>
      <path id="Trazado_126368" data-name="Trazado 126368" d="M51.253,31.444,35.719,23.268a.818.818,0,0,0-.762,0l-9.491,5c.028-.333.061-.665.061-1A12.264,12.264,0,1,0,6.3,37.351a6.641,6.641,0,0,1,2.826,4.637.818.818,0,0,0-.767.808v1.635H7.54v1.635h.818v.818H7.54v1.635h.818v1.635a.818.818,0,0,0,.818.818h.312l.678,1.356a3.463,3.463,0,0,0,6.2,0l.678-1.356h.312a.818.818,0,0,0,.818-.818V48.519h.818V46.884h-.818v-.818h.818V44.432h-.818V42.8a.818.818,0,0,0-.773-.809,6.7,6.7,0,0,1,2.876-4.669,12.234,12.234,0,0,0,1.33-1.087l1.472-.775V53.425a.818.818,0,0,0,.818.818H46.784a.818.818,0,0,0,.818-.818V35.458l2.889,1.521a.818.818,0,0,0,1.2-.723V32.168a.818.818,0,0,0-.437-.724ZM14.9,51.6a1.828,1.828,0,0,1-3.27,0l-.312-.625h3.895Zm1.635-2.26H9.993v-.818h6.541Zm0-2.453H9.993v-.818h6.541ZM9.993,44.432v-.818h6.541v.818Zm9.344-8.452a8.306,8.306,0,0,0-3.576,6h-1.68V37.008a5.723,5.723,0,0,0,4.905-5.658V28.9a.818.818,0,0,0-.818-.818,5.731,5.731,0,0,0-5.478,4.062c-.082-.1-.164-.193-.245-.288V28.08a5.73,5.73,0,0,0-5.723-5.723.818.818,0,0,0-.818.818v4.088a5.723,5.723,0,0,0,5.345,5.7,4.727,4.727,0,0,1,1.2,3.149v5.863H10.76A8.264,8.264,0,0,0,7.228,36.01a10.629,10.629,0,1,1,12.109-.027Zm-5.256-.623V33.8a4.094,4.094,0,0,1,3.27-4.006V31.35A4.094,4.094,0,0,1,14.081,35.356Zm-3.27-7.276v3.189a4.094,4.094,0,0,1-3.27-4.006V24.074a4.094,4.094,0,0,1,3.27,4.006Zm27.8,24.527H32.068V41.979h6.541Zm7.358,0H40.244V41.161a.818.818,0,0,0-.818-.818H31.25a.818.818,0,0,0-.818.818V52.607H24.71V34.6L35.338,29,45.967,34.6ZM50.055,34.9,35.719,27.356a.818.818,0,0,0-.762,0L24.029,33.108a12.28,12.28,0,0,0,1.115-2.827l10.194-5.366,14.716,7.743Z" transform="translate(-0.999 -3.553)"/>
      <path id="Trazado_126369" data-name="Trazado 126369" d="M37,39.818V42.27a.818.818,0,0,0,.818.818h8.176a.818.818,0,0,0,.818-.818V39.818A.818.818,0,0,0,45.993,39H37.818A.818.818,0,0,0,37,39.818Zm1.635.818h6.541v.818H38.635Z" transform="translate(-7.566 -7.932)"/>
      <path id="Trazado_126370" data-name="Trazado 126370" d="M44,52h1.635v3.27H44Z" transform="translate(-8.843 -10.304)"/>
      <path id="Trazado_126371" data-name="Trazado 126371" d="M36.452,10.729l4.453,2.222v5.218a.818.818,0,0,0,.6.788.836.836,0,0,0,.218.029.818.818,0,0,0,.7-.4l4.906-8.176a.818.818,0,0,0-.335-1.153L42.541,7.035V1.818A.818.818,0,0,0,41.022,1.4L36.117,9.572a.818.818,0,0,0,.335,1.153Zm4.453-5.96V7.541a.818.818,0,0,0,.452.732l4.116,2.058-2.933,4.887V12.446a.818.818,0,0,0-.452-.732L37.973,9.657Z" transform="translate(-7.383 -1)"/>
    </g>
  </g>
</svg>
