<svg xmlns="http://www.w3.org/2000/svg" width="110" height="110" viewBox="0 0 110 110">
  <g id="Grupo_1000270" data-name="Grupo 1000270" transform="translate(-231 -7037)">
    <g id="Grupo_1000163" data-name="Grupo 1000163" transform="translate(231 7037)">
      <g id="Elipse_5148" data-name="Elipse 5148" transform="translate(0 0)" fill="#fff" stroke="#222b5a" stroke-width="3">
        <ellipse cx="55" cy="55" rx="55" ry="55" stroke="none"/>
        <ellipse cx="55" cy="55" rx="53.5" ry="53.5" fill="none"/>
      </g>
      <g id="lapida-sepulcral" transform="translate(15.397 15.648)">
        <path id="Trazado_126304" data-name="Trazado 126304" d="M118.43,446h41.407v8.707H118.43Z" transform="translate(-100.042 -378.078)" fill="#ee4e5d"/>
        <path id="Trazado_126305" data-name="Trazado 126305" d="M87.273,398h51.1v7.463h-51.1Z" transform="translate(-73.729 -337.541)" fill="#e4e9ee"/>
        <path id="Trazado_126306" data-name="Trazado 126306" d="M110.195,10C95.818,10,84.163,21.973,84.163,36.743V70.327h52.063V36.743C136.226,21.973,124.571,10,110.195,10Z" transform="translate(-71.103 -8.445)" fill="#222b5a" opacity="0.65"/>
        <path id="Trazado_126307" data-name="Trazado 126307" d="M219.732,80.3h-5.109V75.168H208.4V80.3h-5.111v6.219H208.4V95.74h6.219V86.516h5.109Z" transform="translate(-172.422 -63.481)" fill="#f1b62b"/>
        <path id="Trazado_126308" data-name="Trazado 126308" d="M357.672,405.847a6.557,6.557,0,1,0-2.005-12.8,8.851,8.851,0,1,0-7.922,12.8Z" transform="translate(-287.65 -329.218)" fill="#179587"/>
        <g id="Grupo_881667" data-name="Grupo 881667" transform="translate(1.555 60.459)">
          <path id="Trazado_126309" data-name="Trazado 126309" d="M74.649,414.17a5.989,5.989,0,1,0-1.832-11.692,8.085,8.085,0,1,0-7.236,11.692Z" transform="translate(-50.136 -398)" fill="#179587"/>
          <ellipse id="Elipse_5030" data-name="Elipse 5030" cx="5.957" cy="5.957" rx="5.957" ry="5.957" transform="translate(0 4.256)" fill="#179587"/>
        </g>
        <g id="Grupo_881668" data-name="Grupo 881668" transform="translate(0)">
          <path id="Trazado_126310" data-name="Trazado 126310" d="M193.293,71.852v6.219a1.555,1.555,0,0,0,1.555,1.555H198.4v7.669a1.555,1.555,0,0,0,1.555,1.555h6.219a1.555,1.555,0,0,0,1.555-1.555V79.626h3.554a1.555,1.555,0,0,0,1.555-1.555V71.852a1.555,1.555,0,0,0-1.555-1.555h-3.554V66.723a1.555,1.555,0,0,0-1.555-1.555h-6.219a1.555,1.555,0,0,0-1.555,1.555V70.3h-3.556A1.555,1.555,0,0,0,193.293,71.852Zm3.11,1.555h3.556a1.555,1.555,0,0,0,1.555-1.555V68.278h3.11v3.574a1.555,1.555,0,0,0,1.555,1.555h3.554v3.11h-3.554a1.555,1.555,0,0,0-1.555,1.555V85.74h-3.11V78.071a1.555,1.555,0,0,0-1.555-1.555H196.4Z" transform="translate(-163.977 -55.036)"/>
          <path id="Trazado_126311" data-name="Trazado 126311" d="M243.8,256.748v12.439a1.555,1.555,0,0,0,3.11,0V256.748a1.555,1.555,0,1,0-3.11,0Z" transform="translate(-206.626 -216.396)"/>
          <path id="Trazado_126312" data-name="Trazado 126312" d="M166.313,259.98a4.887,4.887,0,0,0-4.97-4.787h-3.309a1.555,1.555,0,0,0-1.555,1.555v12.439a1.555,1.555,0,1,0,3.11,0v-3.521l4,4.548a1.555,1.555,0,1,0,2.334-2.054l-3.161-3.592A4.823,4.823,0,0,0,166.313,259.98Zm-4.97,1.678c-.407,0-1.1,0-1.755.006V258.3h1.755a1.687,1.687,0,1,1,0,3.356Z" transform="translate(-132.67 -216.396)"/>
          <path id="Trazado_126313" data-name="Trazado 126313" d="M287.953,256.8v12.439a1.555,1.555,0,1,0,3.11,0v-3.857c.692,0,1.449-.007,1.884-.007a5.065,5.065,0,1,0,0-10.13h-3.439A1.555,1.555,0,0,0,287.953,256.8Zm3.11,1.555h1.884a1.957,1.957,0,1,1,0,3.911c-.437,0-1.192,0-1.884.007Z" transform="translate(-244.124 -216.437)"/>
          <path id="Trazado_126314" data-name="Trazado 126314" d="M70.331,66.686a8,8,0,0,0-1.213.092,10.2,10.2,0,0,0-2.071-2.3V32.233A27.752,27.752,0,0,0,46.094,5.294a1.527,1.527,0,1,0-.749,2.96A24.694,24.694,0,0,1,63.8,29.146H60.918a1.527,1.527,0,1,0,0,3.053h3.075c0,.011,0,.022,0,.034V43.074h-.645L61.61,42.19a1.527,1.527,0,1,0-1.385,2.721l2.064,1.05a1.527,1.527,0,0,0,.693.166h1.012V62.759a10.27,10.27,0,0,0-3.411-.579,10.159,10.159,0,0,0-5.332,1.5H16.859a9.391,9.391,0,0,0-2.341.3V59.446h1.151a1.527,1.527,0,1,0,0-3.053H14.518V41.656h2.388a1.527,1.527,0,1,0,0-3.053H14.518s.006-6.919.015-7.193h4.161L21.1,32.787a1.527,1.527,0,1,0,1.517-2.65l-2.758-1.579a1.527,1.527,0,0,0-.759-.2H14.818a24.454,24.454,0,0,1,4.8-11.169A24.91,24.91,0,0,1,32.51,8.43a1.527,1.527,0,1,0-.831-2.938A27.983,27.983,0,0,0,17.2,15.329a27.525,27.525,0,0,0-5.733,16.9V65.382a9.494,9.494,0,0,0-2.542,2.611,7.376,7.376,0,1,0-1.38,14.622h62.79a7.965,7.965,0,1,0,0-15.93Zm-37.246,7.38H50.5a10.2,10.2,0,0,0,2.8,5.5H31.753a7.394,7.394,0,0,0,1.332-5.5Zm17.373-3.053H31.866a7.405,7.405,0,0,0-7.145-3.138,9.488,9.488,0,0,0-.892-1.137H52.078A10.154,10.154,0,0,0,50.458,71.012ZM3.218,75.24A4.323,4.323,0,0,1,9.11,71.212a1.527,1.527,0,0,0,1.938-.775A6.414,6.414,0,0,1,22.6,70.29a1.528,1.528,0,0,0,1.833.772,4.354,4.354,0,1,1,1.332,8.5H7.541A4.328,4.328,0,0,1,3.218,75.24Zm67.113,4.323H60.582A7.165,7.165,0,1,1,67,69.2a1.527,1.527,0,0,0,1.833.772,4.912,4.912,0,1,1,1.5,9.588Z" transform="translate(-0.164 -4.431)"/>
          <ellipse id="Elipse_5031" data-name="Elipse 5031" cx="1.555" cy="1.555" rx="1.555" ry="1.555" transform="translate(37.176)"/>
        </g>
      </g>
    </g>
  </g>
</svg>
