<svg xmlns="http://www.w3.org/2000/svg" width="132.136" height="132.136" viewBox="0 0 132.136 132.136">
  <g id="Grupo_1000272" data-name="Grupo 1000272" transform="translate(-1220.5 -4762)">
    <g id="Grupo_1000265" data-name="Grupo 1000265" transform="translate(1220.5 4762)">
      <ellipse id="Elipse_5516" data-name="Elipse 5516" cx="66.068" cy="66.068" rx="66.068" ry="66.068" transform="translate(0 0)" fill="#fff"/>
      <g id="deuda" transform="translate(29.378 29.267)">
        <path id="Trazado_126727" data-name="Trazado 126727" d="M15.267,3H50.841a1.227,1.227,0,0,1,1.227,1.227v68.7a1.227,1.227,0,0,1-1.227,1.227H4.227A1.227,1.227,0,0,1,3,72.922V15.267Z" transform="translate(-1.773 -1.773)" fill="#c9dfff"/>
        <path id="Trazado_126728" data-name="Trazado 126728" d="M10,41H34.534v6.133H10Z" transform="translate(-0.186 6.841)" fill="#f1b62b"/>
        <path id="Trazado_126729" data-name="Trazado 126729" d="M7,46H31.534v6.133H7Z" transform="translate(-0.867 7.975)" fill="#e39d10"/>
        <path id="Trazado_126730" data-name="Trazado 126730" d="M10,51H34.534v6.133H10Z" transform="translate(-0.186 9.108)" fill="#f1b62b"/>
        <path id="Trazado_126731" data-name="Trazado 126731" d="M7,56H31.534v6.133H7Z" transform="translate(-0.867 10.242)" fill="#f0be59"/>
        <path id="Trazado_126732" data-name="Trazado 126732" d="M49,3h4.907V7.907H49Z" transform="translate(8.655 -1.773)" fill="#ee4e5d"/>
        <path id="Trazado_126733" data-name="Trazado 126733" d="M15.267,14.04V3L3,15.267H14.04A1.227,1.227,0,0,0,15.267,14.04Z" transform="translate(-1.773 -1.773)" fill="#222b5a"/>
        <path id="Trazado_126734" data-name="Trazado 126734" d="M63.987,29H39.453A2.453,2.453,0,0,0,37,31.453V43.72H66.441V31.453A2.453,2.453,0,0,0,63.987,29Zm-2.453,9.814H41.907V33.907H61.534Z" transform="translate(5.934 4.121)" fill="#7d7d7d"/>
        <path id="Trazado_126735" data-name="Trazado 126735" d="M51.72,41H37V63.081a2.453,2.453,0,0,0,2.453,2.453H63.987a2.453,2.453,0,0,0,2.453-2.453V41Z" transform="translate(5.934 6.841)" fill="#ee4e5d"/>
        <path id="Trazado_126736" data-name="Trazado 126736" d="M41,33H60.627v4.907H41Z" transform="translate(6.841 5.028)" fill="#179587"/>
        <ellipse id="Elipse_5048" data-name="Elipse 5048" cx="11.185" cy="10.978" rx="11.185" ry="10.978" transform="translate(15.741 25.732)" fill="#f1b62b"/>
        <path id="Trazado_126737" data-name="Trazado 126737" d="M47,7h9.814V30.307H47Z" transform="translate(8.201 -0.867)" fill="#179587"/>
        <path id="Trazado_126738" data-name="Trazado 126738" d="M54,57.5h2.453v1.227H54Z" transform="translate(9.788 10.582)"/>
        <path id="Trazado_126739" data-name="Trazado 126739" d="M54,53.5h2.453v1.227H54Z" transform="translate(9.788 9.675)"/>
        <path id="Trazado_126740" data-name="Trazado 126740" d="M64.214,28H39.68A3.68,3.68,0,0,0,36,31.68V66.028a3.68,3.68,0,0,0,3.68,3.68H64.214a3.68,3.68,0,0,0,3.68-3.68V31.68A3.68,3.68,0,0,0,64.214,28ZM39.68,30.453H64.214a1.227,1.227,0,0,1,1.227,1.227V42.72H38.453V31.68A1.227,1.227,0,0,1,39.68,30.453Zm13.494,14.72H65.441v9.814H53.174ZM50.72,54.987H38.453V45.174H50.72ZM38.453,66.028V57.441H50.72v9.814H39.68A1.227,1.227,0,0,1,38.453,66.028Zm25.761,1.227H53.174V57.441H65.441v8.587A1.227,1.227,0,0,1,64.214,67.254Z" transform="translate(5.708 3.894)"/>
        <path id="Trazado_126741" data-name="Trazado 126741" d="M41.227,39.36H60.854a1.227,1.227,0,0,0,1.227-1.227V33.227A1.227,1.227,0,0,0,60.854,32H41.227A1.227,1.227,0,0,0,40,33.227v4.907A1.227,1.227,0,0,0,41.227,39.36Zm1.227-4.907H59.627v2.453H42.453Z" transform="translate(6.615 4.801)"/>
        <path id="Trazado_126742" data-name="Trazado 126742" d="M40,47.907h2.453V50.36h2.453V47.907H47.36V45.453H44.907V43H42.453v2.453H40Z" transform="translate(6.615 7.295)"/>
        <path id="Trazado_126743" data-name="Trazado 126743" d="M52,45h7.36v2.453H52Z" transform="translate(9.335 7.748)"/>
        <path id="Trazado_126744" data-name="Trazado 126744" d="M47.11,55.028l-1.735-1.735-1.735,1.735-1.735-1.735-1.735,1.735,1.735,1.735L40.172,58.5l1.735,1.735L43.641,58.5l1.735,1.735L47.11,58.5l-1.735-1.735Z" transform="translate(6.654 9.628)"/>
        <path id="Trazado_126745" data-name="Trazado 126745" d="M52,55h7.36v2.453H52Z" transform="translate(9.335 10.015)"/>
        <path id="Trazado_126746" data-name="Trazado 126746" d="M41.254,38.8a12.267,12.267,0,1,0-19.6,9.814H11.814a1.227,1.227,0,0,0-1.227,1.227v4.907H8.133a1.227,1.227,0,0,0-1.227,1.227v6.133a1.227,1.227,0,0,0,1.227,1.227h2.453v3.68H8.133a1.227,1.227,0,0,0-1.227,1.227v4.907H4.453V16.72h9.814a2.453,2.453,0,0,0,2.453-2.453V4.453H51.068V31.441h2.453V4.453A2.453,2.453,0,0,0,51.068,2H15.494v.011a1.218,1.218,0,0,0-.867.348L2.359,14.626a1.216,1.216,0,0,0-.348.867H2V73.149A2.453,2.453,0,0,0,4.453,75.6h36.8V73.149h-7.36v-3.68h2.453a1.227,1.227,0,0,0,1.227-1.227V62.108a1.227,1.227,0,0,0-1.227-1.227H33.894V57.2h2.453a1.227,1.227,0,0,0,1.227-1.227V49.841a1.227,1.227,0,0,0-1.227-1.227h-.032A12.242,12.242,0,0,0,41.254,38.8ZM14.267,6.188v8.079H6.188ZM9.36,73.149v-3.68H31.441v3.68Zm25.761-6.133H13.04v-3.68H35.121ZM11.814,60.882H9.36V57.2H31.441v3.68Zm23.307-9.814v3.68H13.04v-3.68ZM19.174,38.8a9.814,9.814,0,1,1,9.814,9.814A9.814,9.814,0,0,1,19.174,38.8Z" transform="translate(-2 -2)"/>
        <path id="Trazado_126747" data-name="Trazado 126747" d="M25.907,26H23.453v1.452a3.672,3.672,0,0,0,1.227,7.134,1.227,1.227,0,1,1,0,2.453H21v2.453h2.453V40.72h2.453V39.268a3.672,3.672,0,0,0-1.227-7.134,1.227,1.227,0,1,1,0-2.453h3.68V27.227H25.907Z" transform="translate(2.307 3.441)"/>
        <path id="Trazado_126748" data-name="Trazado 126748" d="M54.587,2H49.68a1.227,1.227,0,0,0-1.227,1.227v3.68H47.227A1.227,1.227,0,0,0,46,8.133V31.441h2.453V9.36h7.36V31.441h2.453V10.587H60.72V26.534h2.453V10.587A2.453,2.453,0,0,0,60.72,8.133H58.267A1.227,1.227,0,0,0,57.04,6.907H55.814V3.227A1.227,1.227,0,0,0,54.587,2Zm-3.68,2.453H53.36V6.907H50.907Z" transform="translate(7.975 -2)"/>
        <path id="Trazado_126749" data-name="Trazado 126749" d="M17,10H37.854v2.453H17Z" transform="translate(1.4 -0.186)"/>
        <path id="Trazado_126750" data-name="Trazado 126750" d="M6,16H47.708v2.453H6Z" transform="translate(-1.093 1.174)"/>
        <path id="Trazado_126751" data-name="Trazado 126751" d="M6,20H20.72v2.453H6Z" transform="translate(-1.093 2.081)"/>
        <path id="Trazado_126752" data-name="Trazado 126752" d="M31,20H42.04v2.453H31Z" transform="translate(4.574 2.081)"/>
      </g>
    </g>
  </g>
</svg>
