<svg xmlns="http://www.w3.org/2000/svg" width="115.771" height="115.771" viewBox="0 0 115.771 115.771">
  <g id="Grupo_1000269" data-name="Grupo 1000269" transform="translate(-251 -9367)">
    <g id="Elipse_5588" data-name="Elipse 5588" transform="translate(251 9367)" fill="#fff" stroke="#ee4e5d" stroke-width="3">
      <circle cx="57.885" cy="57.885" r="57.885" stroke="none"/>
      <circle cx="57.885" cy="57.885" r="56.385" fill="none"/>
    </g>
    <g id="satisfaccion" transform="translate(273 9392)">
      <path id="Trazado_126217" data-name="Trazado 126217" d="M76.563,37.106H64.213v3.021a1.192,1.192,0,0,1-1.19,1.186H28.741a5.553,5.553,0,0,1-2.235-.569l-5.524-3.009c-.315-.172-.456-.4-.426-.63H8.2a.7.7,0,0,0-.7.7V95.4a.7.7,0,0,0,.7.7H76.563a.7.7,0,0,0,.7-.7V37.808a.7.7,0,0,0-.7-.7Zm0,0" transform="translate(-6.447 -31.967)" fill="#e6e9ed"/>
      <path id="Trazado_126218" data-name="Trazado 126218" d="M215.2,311.454a7.961,7.961,0,1,1-7.96-8.044A8,8,0,0,1,215.2,311.454Zm0,0" transform="translate(-171.301 -260.89)" fill="#f1b62b"/>
      <path id="Trazado_126219" data-name="Trazado 126219" d="M72.652,311.454a7.961,7.961,0,1,1-7.961-8.044A8,8,0,0,1,72.652,311.454Zm0,0" transform="translate(-48.767 -260.89)" fill="#179587"/>
      <path id="Trazado_126220" data-name="Trazado 126220" d="M357.766,311.454a7.961,7.961,0,1,1-7.961-8.044A8,8,0,0,1,357.766,311.454Zm0,0" transform="translate(-293.859 -260.89)" fill="#ee4e5d"/>
      <g id="Grupo_881639" data-name="Grupo 881639" transform="translate(7.963 15.056)">
        <path id="Trazado_126221" data-name="Trazado 126221" d="M64.872,115.5a.422.422,0,0,1-.421.421h-7.3a.422.422,0,0,1-.421-.421v-7.328a.422.422,0,0,1,.421-.421h7.3a.423.423,0,0,1,.421.421Zm0,0" transform="translate(-56.731 -107.754)" fill="#f1b62b"/>
        <path id="Trazado_126222" data-name="Trazado 126222" d="M64.872,210.762a.423.423,0,0,1-.421.421h-7.3a.422.422,0,0,1-.421-.421v-7.328a.422.422,0,0,1,.421-.421h7.3a.422.422,0,0,1,.421.421Zm0,0" transform="translate(-56.731 -189.64)" fill="#f1b62b"/>
        <path id="Trazado_126223" data-name="Trazado 126223" d="M284.985,115.5a.422.422,0,0,1-.421.421h-7.3a.422.422,0,0,1-.421-.421v-7.328a.422.422,0,0,1,.421-.421h7.3a.423.423,0,0,1,.421.421Zm0,0" transform="translate(-245.946 -107.754)" fill="#f1b62b"/>
        <path id="Trazado_126224" data-name="Trazado 126224" d="M284.985,210.762a.423.423,0,0,1-.421.421h-7.3a.422.422,0,0,1-.421-.421v-7.328a.422.422,0,0,1,.421-.421h7.3a.422.422,0,0,1,.421.421Zm0,0" transform="translate(-245.946 -189.64)" fill="#f1b62b"/>
      </g>
      <path id="Trazado_126225" data-name="Trazado 126225" d="M142.948,8a1.192,1.192,0,0,1,1.19,1.186v5.921a1.192,1.192,0,0,1-1.19,1.187H108.667a5.545,5.545,0,0,1-2.235-.569l-5.524-3.009c-.575-.313-.575-.825,0-1.138l5.524-3.009A5.545,5.545,0,0,1,108.667,8Zm0,0" transform="translate(-86.372 -6.947)" fill="#f1b62b"/>
      <path id="Trazado_126226" data-name="Trazado 126226" d="M109.147,8h-.48a5.545,5.545,0,0,0-2.235.569l-5.524,3.009c-.575.313-.575.825,0,1.138l5.524,3.009a5.545,5.545,0,0,0,2.235.569h.48Zm0,0" transform="translate(-86.372 -6.947)" fill="#ffd5b3"/>
      <path id="Trazado_126227" data-name="Trazado 126227" d="M104.621,19.082,100.908,21.1c-.575.313-.575.825,0,1.138l3.713,2.023Zm0,0" transform="translate(-86.372 -16.474)" fill="#775436"/>
      <path id="Trazado_126228" data-name="Trazado 126228" d="M369.247,15.107V9.186A1.192,1.192,0,0,0,368.056,8h-5.713v8.294h5.713a1.192,1.192,0,0,0,1.19-1.187Zm0,0" transform="translate(-311.48 -6.947)" fill="#fb8276"/>
      <path id="Trazado_126229" data-name="Trazado 126229" d="M158.228,29.609h-3.86a1.053,1.053,0,1,0,0,2.106h3.509V88.606H103.553a1.053,1.053,0,0,0,0,2.106h54.675a1.757,1.757,0,0,0,1.755-1.755V31.364A1.756,1.756,0,0,0,158.228,29.609Zm0,0" transform="translate(-88.112 -25.523)"/>
      <path id="Trazado_126230" data-name="Trazado 126230" d="M10.388,63.583H2.106V6.691H13.415a2.059,2.059,0,0,0,.617.5L19.556,10.2a6.56,6.56,0,0,0,2.738.7H56.576A2.244,2.244,0,0,0,58.819,8.66V6.691h2.523a1.053,1.053,0,0,0,0-2.106H58.819V2.738A2.244,2.244,0,0,0,56.576.5H22.295a6.56,6.56,0,0,0-2.738.7L14.031,4.206a2.144,2.144,0,0,0-.508.38H1.755A1.756,1.756,0,0,0,0,6.34V63.934a1.757,1.757,0,0,0,1.755,1.755h8.633a1.053,1.053,0,1,0,0-2.106ZM51.916,2.605h4.66a.139.139,0,0,1,.138.133V8.66a.139.139,0,0,1-.138.134h-4.66Zm-28.089,0H49.81V4.647H23.827Zm0,4.147H49.81V8.794H23.827ZM19.3,3.733l1.262-.687a4.391,4.391,0,0,1,1.158-.377V8.73a4.423,4.423,0,0,1-1.159-.377L19.3,7.666ZM17.2,4.88V6.519l-1.5-.819Zm0,0" transform="translate(0 -0.5)"/>
      <path id="Trazado_126231" data-name="Trazado 126231" d="M200.788,314.107a8.98,8.98,0,0,0,8.611-6.4,1.053,1.053,0,0,0-2.013-.617,6.885,6.885,0,0,1-6.6,4.915,6.991,6.991,0,1,1,6.517-9.314,1.053,1.053,0,0,0,1.989-.692,9.031,9.031,0,1,0-8.506,12.112Zm0,0" transform="translate(-164.854 -254.446)"/>
      <path id="Trazado_126232" data-name="Trazado 126232" d="M226.45,340.693v-.828a1.053,1.053,0,1,0-2.106,0v.828a1.053,1.053,0,1,0,2.106,0Zm0,0" transform="translate(-192.852 -291.323)"/>
      <path id="Trazado_126233" data-name="Trazado 126233" d="M274.739,340.693v-.828a1.053,1.053,0,1,0-2.106,0v.828a1.053,1.053,0,0,0,2.106,0Zm0,0" transform="translate(-234.363 -291.323)"/>
      <path id="Trazado_126234" data-name="Trazado 126234" d="M232.916,373.926h4.667a1.053,1.053,0,1,0,0-2.106h-4.667a1.053,1.053,0,1,0,0,2.106Zm0,0" transform="translate(-199.316 -319.697)"/>
      <path id="Trazado_126235" data-name="Trazado 126235" d="M58.244,314.1a9.1,9.1,0,1,0-9.014-9.1A9.065,9.065,0,0,0,58.244,314.1Zm0-16.087a6.991,6.991,0,1,1-6.908,6.991A6.958,6.958,0,0,1,58.244,298.016Zm0,0" transform="translate(-42.32 -254.443)"/>
      <path id="Trazado_126236" data-name="Trazado 126236" d="M82.854,341.746a1.052,1.052,0,0,0,1.053-1.053v-.828a1.053,1.053,0,1,0-2.106,0v.828A1.053,1.053,0,0,0,82.854,341.746Zm0,0" transform="translate(-70.318 -291.323)"/>
      <path id="Trazado_126237" data-name="Trazado 126237" d="M131.143,341.746a1.053,1.053,0,0,0,1.053-1.053v-.828a1.053,1.053,0,1,0-2.106,0v.828A1.053,1.053,0,0,0,131.143,341.746Zm0,0" transform="translate(-111.829 -291.323)"/>
      <path id="Trazado_126238" data-name="Trazado 126238" d="M87.891,367.967a3.6,3.6,0,0,0,7.175,0,1.053,1.053,0,1,0-2.106,0,1.508,1.508,0,0,1-2.964,0,1.053,1.053,0,1,0-2.106,0Zm0,0" transform="translate(-75.553 -315.48)"/>
      <path id="Trazado_126239" data-name="Trazado 126239" d="M343.358,314.1a9.1,9.1,0,1,0-9.013-9.1A9.066,9.066,0,0,0,343.358,314.1Zm0-16.087a6.991,6.991,0,1,1-6.908,6.991A6.958,6.958,0,0,1,343.358,298.016Zm0,0" transform="translate(-287.411 -254.443)"/>
      <path id="Trazado_126240" data-name="Trazado 126240" d="M367.963,341.746a1.052,1.052,0,0,0,1.053-1.053v-.828a1.053,1.053,0,0,0-2.106,0v.828A1.053,1.053,0,0,0,367.963,341.746Zm0,0" transform="translate(-315.406 -291.323)"/>
      <path id="Trazado_126241" data-name="Trazado 126241" d="M416.256,341.746a1.052,1.052,0,0,0,1.053-1.053v-.828a1.053,1.053,0,0,0-2.106,0v.828A1.053,1.053,0,0,0,416.256,341.746Zm0,0" transform="translate(-356.92 -291.323)"/>
      <path id="Trazado_126242" data-name="Trazado 126242" d="M373,367.045a1.053,1.053,0,0,0,2.106,0,1.508,1.508,0,0,1,2.964,0,1.053,1.053,0,0,0,2.106,0,3.6,3.6,0,0,0-7.175,0Zm0,0" transform="translate(-320.641 -312.726)"/>
      <path id="Trazado_126243" data-name="Trazado 126243" d="M50.7,110.534H58a1.475,1.475,0,0,0,1.474-1.474v-6.077l.415-.418a1.052,1.052,0,0,0-.774-1.794A1.469,1.469,0,0,0,58,100.258H50.7a1.475,1.475,0,0,0-1.474,1.474v7.328a1.475,1.475,0,0,0,1.474,1.473Zm.632-8.171h5.789l-2.582,2.6-.85-.857A1.053,1.053,0,1,0,52.2,105.59l1.3,1.311a1.459,1.459,0,0,0,1.044.435h0a1.459,1.459,0,0,0,1.043-.434l1.785-1.8v3.325H51.336Zm0,0" transform="translate(-42.32 -86.255)"/>
      <path id="Trazado_126244" data-name="Trazado 126244" d="M139.35,119.184h12.544a1.053,1.053,0,1,0,0-2.106H139.35a1.053,1.053,0,0,0,0,2.106Zm0,0" transform="translate(-118.884 -100.714)"/>
      <path id="Trazado_126245" data-name="Trazado 126245" d="M139.35,143.747h7.143a1.053,1.053,0,0,0,0-2.106H139.35a1.053,1.053,0,0,0,0,2.106Zm0,0" transform="translate(-118.884 -121.829)"/>
      <path id="Trazado_126246" data-name="Trazado 126246" d="M49.23,204.314a1.475,1.475,0,0,0,1.474,1.474H58a1.476,1.476,0,0,0,1.474-1.474v-7.328A1.476,1.476,0,0,0,58,195.512H50.7a1.475,1.475,0,0,0-1.474,1.474Zm2.106-6.7h6.035v6.065H51.336Zm0,0" transform="translate(-42.32 -168.138)"/>
      <path id="Trazado_126247" data-name="Trazado 126247" d="M139.35,214.442h12.544a1.053,1.053,0,0,0,0-2.106H139.35a1.053,1.053,0,0,0,0,2.106Zm0,0" transform="translate(-118.884 -182.6)"/>
      <path id="Trazado_126248" data-name="Trazado 126248" d="M147.546,237.948a1.052,1.052,0,0,0-1.053-1.053H139.35a1.053,1.053,0,1,0,0,2.106h7.143A1.053,1.053,0,0,0,147.546,237.948Zm0,0" transform="translate(-118.884 -203.712)"/>
      <path id="Trazado_126249" data-name="Trazado 126249" d="M270.818,110.53h7.3a1.475,1.475,0,0,0,1.474-1.474v-7.328a1.476,1.476,0,0,0-1.474-1.474h-7.3a1.475,1.475,0,0,0-1.474,1.474v7.328A1.475,1.475,0,0,0,270.818,110.53Zm.632-8.171h6.035v6.065H271.45Zm0,0" transform="translate(-231.536 -86.251)"/>
      <path id="Trazado_126250" data-name="Trazado 126250" d="M358.406,118.131a1.053,1.053,0,0,0,1.053,1.053H372a1.053,1.053,0,1,0,0-2.106H359.459A1.053,1.053,0,0,0,358.406,118.131Zm0,0" transform="translate(-308.096 -100.714)"/>
      <path id="Trazado_126251" data-name="Trazado 126251" d="M359.459,143.747H366.6a1.053,1.053,0,1,0,0-2.106h-7.144a1.053,1.053,0,1,0,0,2.106Zm0,0" transform="translate(-308.096 -121.829)"/>
      <path id="Trazado_126252" data-name="Trazado 126252" d="M279.591,204.314v-7.328a1.476,1.476,0,0,0-1.474-1.474h-7.3a1.475,1.475,0,0,0-1.474,1.474v7.328a1.475,1.475,0,0,0,1.474,1.474h7.3A1.476,1.476,0,0,0,279.591,204.314Zm-2.106-.632h-6.035v-6.065h6.035Zm0,0" transform="translate(-231.535 -168.138)"/>
      <path id="Trazado_126253" data-name="Trazado 126253" d="M372.007,212.336H359.463a1.053,1.053,0,0,0,0,2.106h12.544a1.053,1.053,0,0,0,0-2.106Zm0,0" transform="translate(-308.1 -182.6)"/>
      <path id="Trazado_126254" data-name="Trazado 126254" d="M366.6,239a1.053,1.053,0,1,0,0-2.106h-7.144a1.053,1.053,0,1,0,0,2.106Zm0,0" transform="translate(-308.096 -203.712)"/>
    </g>
  </g>
</svg>
