<svg xmlns="http://www.w3.org/2000/svg" xmlns:xlink="http://www.w3.org/1999/xlink" width="419" height="436.316" viewBox="0 0 419 436.316">
  <defs>
    <linearGradient id="linear-gradient" x1="0.444" y1="1.781" x2="0.97" y2="0.501" gradientUnits="objectBoundingBox">
      <stop offset="0" stop-color="#5c3333"/>
      <stop offset="1"/>
    </linearGradient>
    <linearGradient id="linear-gradient-2" x1="0.214" y1="1.176" x2="0.751" y2="-0.037" xlink:href="#linear-gradient"/>
  </defs>
  <g id="Grupo_1000302" data-name="Grupo 1000302" transform="translate(-954.5 -12325.684)">
    <g id="Grupo_995634" data-name="Grupo 995634" transform="translate(808.783 12303.954)">
      <g id="Grupo_995629" data-name="Grupo 995629">
        <g id="Grupo_995628" data-name="Grupo 995628" transform="translate(159.217 41.046)">
          <g id="Grupo_995622" data-name="Grupo 995622" transform="translate(0 0)">
            <g id="Grupo_995619" data-name="Grupo 995619" transform="translate(0.276)">
              <path id="Trazado_651700" data-name="Trazado 651700" d="M162.508,41.046,159.4,126.459l21,9.55,4.646,12.038,37.638-15.322-5.153-12.143,7.192-22.418Z" transform="translate(-159.403 -41.046)" fill="#f5f5f5"/>
            </g>
            <g id="Grupo_995621" data-name="Grupo 995621" transform="translate(0 0)">
              <g id="Grupo_995620" data-name="Grupo 995620">
                <path id="Trazado_651701" data-name="Trazado 651701" d="M162.6,41.046C164.342,42.636,188.3,64.5,225,97.973l.124.113-.051.159c-2.28,7.124-4.684,14.638-7.176,22.423l-.009-.192,5.159,12.14.112.263-.268.109-19.211,7.824-18.426,7.5-.275.112-.107-.275-4.641-12.041.147.156L159.382,126.7l-.165-.074.007-.177c1.975-50,3.281-83.035,3.374-85.4-.079,2.365-1.176,35.409-2.837,85.424l-.156-.252,21.007,9.535.106.048.042.109q2.286,5.912,4.652,12.036l-.383-.164,18.423-7.5,19.214-7.818-.155.372c-1.773-4.183-3.519-8.3-5.149-12.145l-.04-.1.031-.1c2.5-7.782,4.918-15.293,7.209-22.413l.073.272Z" transform="translate(-159.217 -41.046)" fill="#e0e0e0"/>
              </g>
            </g>
          </g>
          <g id="Grupo_995623" data-name="Grupo 995623" transform="translate(16.496 45.269)">
            <path id="Trazado_651702" data-name="Trazado 651702" d="M194.317,79.076a12.18,12.18,0,0,1-6.694,16.067,12.623,12.623,0,0,1-16.35-6.686,12.179,12.179,0,0,1,6.694-16.066A12.621,12.621,0,0,1,194.317,79.076Z" transform="translate(-170.299 -71.458)" fill="#e0e0e0"/>
          </g>
          <g id="Grupo_995625" data-name="Grupo 995625" transform="translate(3.379)">
            <g id="Grupo_995624" data-name="Grupo 995624">
              <path id="Trazado_651703" data-name="Trazado 651703" d="M161.49,41.046c.147-.063,6,12.776,13.072,28.673s12.687,28.842,12.538,28.9-6-12.773-13.074-28.675S161.343,41.109,161.49,41.046Z" transform="translate(-161.487 -41.046)" fill="#e0e0e0"/>
            </g>
          </g>
          <g id="Grupo_995626" data-name="Grupo 995626" transform="translate(31.71 104.591)">
            <path id="Trazado_651704" data-name="Trazado 651704" d="M295.085,342.235h0a20.123,20.123,0,0,1-26.018-10.555L180.52,126.263l36.731-14.952,88.461,205.213A19.415,19.415,0,0,1,295.085,342.235Z" transform="translate(-180.52 -111.311)" fill="#e0e0e0"/>
          </g>
          <g id="Grupo_995627" data-name="Grupo 995627" transform="translate(22.485 88.336)">
            <path id="Trazado_651705" data-name="Trazado 651705" d="M223.807,115.209l-43.2,17.584-6.288-14.818,43.2-17.584Z" transform="translate(-174.323 -100.391)" fill="#e0e0e0"/>
          </g>
        </g>
      </g>
      <g id="Grupo_995633" data-name="Grupo 995633" transform="translate(-160 18)">
        <g id="Grupo_995630" data-name="Grupo 995630">
          <rect id="Rectángulo_302413" data-name="Rectángulo 302413" width="61.408" height="55.885" rx="8.925" transform="translate(645.498 172.46) rotate(1.679)" fill="#ebebeb"/>
        </g>
        <g id="Grupo_995631" data-name="Grupo 995631">
          <path id="Trazado_651706" data-name="Trazado 651706" d="M644.264,214.543l20.731-13.911a4.159,4.159,0,0,1,5.434.206l10.213,5.244,14.571-14.248a4.284,4.284,0,0,1,6.2.527l4.759,5.976-.229,24.485a7.011,7.011,0,0,1-7.231,6.941l-47.9-1.515a7.009,7.009,0,0,1-6.783-7.263Z" fill="#e0e0e0"/>
        </g>
        <g id="Grupo_995632" data-name="Grupo 995632">
          <circle id="Elipse_5846" data-name="Elipse 5846" cx="6.138" cy="6.138" r="6.138" transform="translate(659.108 188.374) rotate(-47.26)" fill="#e0e0e0"/>
        </g>
      </g>
    </g>
    <g id="Grupo_996099" data-name="Grupo 996099" transform="translate(-1 298)">
      <g id="Grupo_994980" data-name="Grupo 994980" transform="translate(935.8 12004.072)">
        <ellipse id="Elipse_5732" data-name="Elipse 5732" cx="10.398" cy="15.206" rx="10.398" ry="15.206" transform="translate(173.589 119.137) rotate(-15.62)" fill="#d78c74"/>
        <path id="Trazado_651475" data-name="Trazado 651475" d="M250.091,170.073h0c-11.826-.2-20.429,5.722-20.562,14.175l-4.947,38.067c-.133,8.455,12.521,10.074,24.347,10.277s22.348-1.823,22.48-10.277l-.846-35.719C270.7,178.141,261.917,170.275,250.091,170.073Z" transform="translate(-12.296 -12.594)" fill="#d78c74"/>
        <path id="Trazado_651476" data-name="Trazado 651476" d="M231.258,45.972s-.007-.091-.027-.245C231.247,45.884,231.258,45.972,231.258,45.972Z" transform="translate(-12.868 -1.902)" fill="#381911"/>
        <path id="Trazado_651477" data-name="Trazado 651477" d="M288.628,71.274c-3.078-18.931-56.49-27.878-72.226-1.88-5.013,12.058-13.171,34.56-15.887,56.909,0-.239.008-.382.008-.382s-14.544,59.445,38.351,63.142,58.785-24.2,56.535-58.956l0,.005C295.467,110.561,292.609,85.832,288.628,71.274Z" transform="translate(-10.07 -2.548)" fill="#e5a185"/>
        <g id="Grupo_994974" data-name="Grupo 994974" transform="translate(189.638 113.955)" opacity="0.38">
          <ellipse id="Elipse_5733" data-name="Elipse 5733" cx="20.712" cy="19.015" rx="20.712" ry="19.015" transform="translate(0 41.42) rotate(-89.212)" fill="#e5a185"/>
          <path id="Trazado_651478" data-name="Trazado 651478" d="M219.423,122.883c-10.435-.144-19.021,8.954-19.178,20.32s8.176,20.7,18.611,20.84,19.021-8.955,19.178-20.32S229.858,123.026,219.423,122.883Z" transform="translate(-199.841 -122.492)" fill="#e5a084"/>
          <path id="Trazado_651479" data-name="Trazado 651479" d="M219.432,123.024c-10.369-.143-18.9,8.9-19.057,20.193s8.125,20.566,18.494,20.709,18.9-8.9,19.057-20.192S229.8,123.167,219.432,123.024Z" transform="translate(-199.852 -122.504)" fill="#e59f83"/>
          <ellipse id="Elipse_5734" data-name="Elipse 5734" cx="20.323" cy="18.658" rx="20.323" ry="18.658" transform="translate(0.362 41.037) rotate(-89.213)" fill="#e49e83"/>
          <ellipse id="Elipse_5735" data-name="Elipse 5735" cx="20.194" cy="18.54" rx="20.194" ry="18.54" transform="translate(0.482 40.908) rotate(-89.212)" fill="#e49d82"/>
          <ellipse id="Elipse_5736" data-name="Elipse 5736" cx="20.065" cy="18.421" rx="20.065" ry="18.421" transform="translate(0.603 40.781) rotate(-89.212)" fill="#e49c81"/>
          <ellipse id="Elipse_5737" data-name="Elipse 5737" cx="19.935" cy="18.302" rx="19.935" ry="18.302" transform="matrix(0.014, -1, 1, 0.014, 0.724, 40.653)" fill="#e49b80"/>
          <path id="Trazado_651480" data-name="Trazado 651480" d="M219.479,123.732c-10.041-.138-18.3,8.616-18.454,19.554s7.868,19.915,17.909,20.053,18.3-8.616,18.454-19.553S229.52,123.871,219.479,123.732Z" transform="translate(-199.908 -122.565)" fill="#e49a80"/>
          <ellipse id="Elipse_5738" data-name="Elipse 5738" cx="19.676" cy="18.064" rx="19.676" ry="18.064" transform="translate(0.965 40.397) rotate(-89.212)" fill="#e3997f"/>
          <ellipse id="Elipse_5739" data-name="Elipse 5739" cx="19.547" cy="17.945" rx="19.547" ry="17.945" transform="translate(1.086 40.27) rotate(-89.213)" fill="#e3987e"/>
          <path id="Trazado_651481" data-name="Trazado 651481" d="M219.507,124.157c-9.844-.135-17.944,8.447-18.092,19.17s7.713,19.525,17.558,19.66,17.944-8.447,18.092-19.17S229.352,124.293,219.507,124.157Z" transform="translate(-199.942 -122.601)" fill="#e3977d"/>
          <path id="Trazado_651482" data-name="Trazado 651482" d="M219.516,124.3c-9.778-.134-17.824,8.391-17.971,19.043s7.662,19.394,17.441,19.53,17.824-8.392,17.971-19.043S229.3,124.433,219.516,124.3Z" transform="translate(-199.953 -122.613)" fill="#e3967c"/>
          <ellipse id="Elipse_5740" data-name="Elipse 5740" cx="19.158" cy="17.589" rx="19.158" ry="17.589" transform="matrix(0.014, -1, 1, 0.014, 1.447, 39.886)" fill="#e2957c"/>
          <ellipse id="Elipse_5741" data-name="Elipse 5741" cx="19.029" cy="17.47" rx="19.029" ry="17.47" transform="matrix(0.014, -1, 1, 0.014, 1.568, 39.758)" fill="#e2947b"/>
          <ellipse id="Elipse_5742" data-name="Elipse 5742" cx="18.9" cy="17.351" rx="18.9" ry="17.351" transform="translate(1.689 39.631) rotate(-89.213)" fill="#e2937a"/>
          <path id="Trazado_651483" data-name="Trazado 651483" d="M219.554,124.865c-9.517-.131-17.347,8.166-17.49,18.532s7.456,18.874,16.972,19.005,17.347-8.166,17.49-18.531S229.07,125,219.554,124.865Z" transform="translate(-199.998 -122.662)" fill="#e29279"/>
          <path id="Trazado_651484" data-name="Trazado 651484" d="M219.564,125.007c-9.451-.13-17.227,8.109-17.369,18.4s7.405,18.744,16.855,18.874,17.227-8.11,17.369-18.4S229.015,125.137,219.564,125.007Z" transform="translate(-200.009 -122.674)" fill="#e29179"/>
          <ellipse id="Elipse_5743" data-name="Elipse 5743" cx="18.511" cy="16.995" rx="18.511" ry="16.995" transform="translate(2.05 39.247) rotate(-89.21)" fill="#e19078"/>
          <ellipse id="Elipse_5744" data-name="Elipse 5744" cx="18.382" cy="16.876" rx="18.382" ry="16.876" transform="translate(2.171 39.119) rotate(-89.212)" fill="#e18f77"/>
          <ellipse id="Elipse_5745" data-name="Elipse 5745" cx="18.252" cy="16.757" rx="18.252" ry="16.757" transform="matrix(0.014, -1, 1, 0.014, 2.291, 38.991)" fill="#e18e76"/>
          <ellipse id="Elipse_5746" data-name="Elipse 5746" cx="18.123" cy="16.638" rx="18.123" ry="16.638" transform="translate(2.412 38.863) rotate(-89.211)" fill="#e18d75"/>
          <path id="Trazado_651485" data-name="Trazado 651485" d="M219.611,125.715c-9.123-.125-16.629,7.828-16.766,17.764s7.148,18.094,16.27,18.22,16.629-7.829,16.766-17.765S228.733,125.84,219.611,125.715Z" transform="translate(-200.065 -122.735)" fill="#e18c75"/>
          <ellipse id="Elipse_5747" data-name="Elipse 5747" cx="17.864" cy="16.4" rx="17.864" ry="16.4" transform="translate(2.653 38.608) rotate(-89.212)" fill="#e08b74"/>
          <ellipse id="Elipse_5748" data-name="Elipse 5748" cx="17.734" cy="16.282" rx="17.734" ry="16.282" transform="translate(2.774 38.48) rotate(-89.21)" fill="#e08a73"/>
          <ellipse id="Elipse_5749" data-name="Elipse 5749" cx="17.605" cy="16.163" rx="17.605" ry="16.163" transform="translate(2.895 38.352) rotate(-89.211)" fill="#e08972"/>
          <ellipse id="Elipse_5750" data-name="Elipse 5750" cx="17.476" cy="16.044" rx="17.476" ry="16.044" transform="translate(3.015 38.224) rotate(-89.21)" fill="#e08872"/>
          <ellipse id="Elipse_5751" data-name="Elipse 5751" cx="17.346" cy="15.925" rx="17.346" ry="15.925" transform="translate(3.136 38.097) rotate(-89.212)" fill="#df8771"/>
          <ellipse id="Elipse_5752" data-name="Elipse 5752" cx="17.217" cy="15.806" rx="17.217" ry="15.806" transform="translate(3.256 37.969) rotate(-89.211)" fill="#df8670"/>
          <ellipse id="Elipse_5753" data-name="Elipse 5753" cx="17.087" cy="15.687" rx="17.087" ry="15.687" transform="translate(3.377 37.841) rotate(-89.211)" fill="#df856f"/>
          <ellipse id="Elipse_5754" data-name="Elipse 5754" cx="16.958" cy="15.569" rx="16.958" ry="15.569" transform="matrix(0.014, -1, 1, 0.014, 3.497, 37.713)" fill="#df846f"/>
          <path id="Trazado_651486" data-name="Trazado 651486" d="M219.695,126.99c-8.531-.118-15.552,7.32-15.68,16.614s6.685,16.922,15.217,17.039,15.552-7.321,15.68-16.614S228.227,127.107,219.695,126.99Z" transform="translate(-200.165 -122.845)" fill="#df836e"/>
          <ellipse id="Elipse_5755" data-name="Elipse 5755" cx="16.699" cy="15.331" rx="16.699" ry="15.331" transform="matrix(0.014, -1, 1, 0.014, 3.739, 37.457)" fill="#de826d"/>
          <ellipse id="Elipse_5756" data-name="Elipse 5756" cx="16.569" cy="15.212" rx="16.569" ry="15.212" transform="translate(3.86 37.33) rotate(-89.212)" fill="#de816c"/>
          <ellipse id="Elipse_5757" data-name="Elipse 5757" cx="16.44" cy="15.093" rx="16.44" ry="15.093" transform="translate(3.98 37.202) rotate(-89.21)" fill="#de806b"/>
          <ellipse id="Elipse_5758" data-name="Elipse 5758" cx="16.311" cy="14.974" rx="16.311" ry="14.974" transform="translate(4.101 37.075) rotate(-89.213)" fill="#de7f6b"/>
          <ellipse id="Elipse_5759" data-name="Elipse 5759" cx="16.181" cy="14.855" rx="16.181" ry="14.855" transform="translate(4.221 36.946) rotate(-89.211)" fill="#de7e6a"/>
          <ellipse id="Elipse_5760" data-name="Elipse 5760" cx="16.052" cy="14.737" rx="16.052" ry="14.737" transform="translate(4.342 36.819) rotate(-89.211)" fill="#dd7d69"/>
          <ellipse id="Elipse_5761" data-name="Elipse 5761" cx="15.922" cy="14.618" rx="15.922" ry="14.618" transform="translate(4.462 36.69) rotate(-89.21)" fill="#dd7c68"/>
          <ellipse id="Elipse_5762" data-name="Elipse 5762" cx="15.793" cy="14.499" rx="15.793" ry="14.499" transform="translate(4.583 36.563) rotate(-89.212)" fill="#dd7b68"/>
          <ellipse id="Elipse_5763" data-name="Elipse 5763" cx="15.663" cy="14.38" rx="15.663" ry="14.38" transform="translate(4.704 36.435) rotate(-89.211)" fill="#dd7a67"/>
          <ellipse id="Elipse_5764" data-name="Elipse 5764" cx="15.534" cy="14.261" rx="15.534" ry="14.261" transform="matrix(0.014, -1, 1, 0.014, 4.824, 36.307)" fill="#dd7a66"/>
          <ellipse id="Elipse_5765" data-name="Elipse 5765" cx="15.404" cy="14.142" rx="15.404" ry="14.142" transform="matrix(0.014, -1, 1, 0.014, 4.945, 36.18)" fill="#dc7965"/>
          <ellipse id="Elipse_5766" data-name="Elipse 5766" cx="15.275" cy="14.024" rx="15.275" ry="14.024" transform="translate(5.066 36.052) rotate(-89.213)" fill="#dc7864"/>
          <ellipse id="Elipse_5767" data-name="Elipse 5767" cx="15.146" cy="13.905" rx="15.146" ry="13.905" transform="translate(5.186 35.924) rotate(-89.211)" fill="#dc7764"/>
          <ellipse id="Elipse_5768" data-name="Elipse 5768" cx="15.016" cy="13.786" rx="15.016" ry="13.786" transform="translate(5.307 35.796) rotate(-89.212)" fill="#dc7663"/>
          <ellipse id="Elipse_5769" data-name="Elipse 5769" cx="14.887" cy="13.667" rx="14.887" ry="13.667" transform="translate(5.427 35.668) rotate(-89.21)" fill="#db7562"/>
          <path id="Trazado_651487" data-name="Trazado 651487" d="M219.845,129.255c-7.481-.1-13.638,6.42-13.749,14.569s5.862,14.84,13.344,14.942,13.638-6.42,13.749-14.569S227.327,129.358,219.845,129.255Z" transform="translate(-200.344 -123.04)" fill="#db7461"/>
          <path id="Trazado_651488" data-name="Trazado 651488" d="M219.855,129.4c-7.415-.1-13.518,6.363-13.629,14.441s5.81,14.709,13.227,14.812,13.518-6.364,13.629-14.442S227.271,129.5,219.855,129.4Z" transform="translate(-200.356 -123.052)" fill="#db7361"/>
          <ellipse id="Elipse_5770" data-name="Elipse 5770" cx="14.498" cy="13.311" rx="14.498" ry="13.311" transform="translate(5.789 35.285) rotate(-89.212)" fill="#db7260"/>
          <ellipse id="Elipse_5771" data-name="Elipse 5771" cx="14.369" cy="13.192" rx="14.369" ry="13.192" transform="translate(5.91 35.157) rotate(-89.211)" fill="#db715f"/>
          <path id="Trazado_651489" data-name="Trazado 651489" d="M219.883,129.822c-7.219-.1-13.159,6.194-13.267,14.057s5.656,14.319,12.876,14.419,13.159-6.2,13.267-14.058S227.1,129.922,219.883,129.822Z" transform="translate(-200.389 -123.088)" fill="#da705e"/>
          <ellipse id="Elipse_5772" data-name="Elipse 5772" cx="14.11" cy="12.954" rx="14.11" ry="12.954" transform="translate(6.151 34.902) rotate(-89.211)" fill="#da6f5d"/>
          <ellipse id="Elipse_5773" data-name="Elipse 5773" cx="13.98" cy="12.835" rx="13.98" ry="12.835" transform="translate(6.272 34.774) rotate(-89.212)" fill="#da6e5d"/>
          <ellipse id="Elipse_5774" data-name="Elipse 5774" cx="13.851" cy="12.716" rx="13.851" ry="12.716" transform="translate(6.392 34.646) rotate(-89.211)" fill="#da6d5c"/>
          <ellipse id="Elipse_5775" data-name="Elipse 5775" cx="13.722" cy="12.597" rx="13.722" ry="12.597" transform="matrix(0.014, -1, 1, 0.014, 6.513, 34.519)" fill="#da6c5b"/>
          <ellipse id="Elipse_5776" data-name="Elipse 5776" cx="13.592" cy="12.479" rx="13.592" ry="12.479" transform="matrix(0.014, -1, 1, 0.014, 6.634, 34.391)" fill="#d96b5a"/>
          <path id="Trazado_651490" data-name="Trazado 651490" d="M219.94,130.672c-6.826-.094-12.442,5.856-12.544,13.291s5.348,13.537,12.173,13.632,12.442-5.857,12.544-13.292S226.765,130.765,219.94,130.672Z" transform="translate(-200.456 -123.161)" fill="#d96a5a"/>
          <ellipse id="Elipse_5777" data-name="Elipse 5777" cx="13.333" cy="12.241" rx="13.333" ry="12.241" transform="translate(6.875 34.135) rotate(-89.211)" fill="#d96959"/>
          <ellipse id="Elipse_5778" data-name="Elipse 5778" cx="13.204" cy="12.122" rx="13.204" ry="12.122" transform="matrix(0.014, -1, 1, 0.014, 6.996, 34.008)" fill="#d96858"/>
          <ellipse id="Elipse_5779" data-name="Elipse 5779" cx="13.074" cy="12.003" rx="13.074" ry="12.003" transform="translate(7.116 33.879) rotate(-89.212)" fill="#d86757"/>
          <path id="Trazado_651491" data-name="Trazado 651491" d="M219.977,131.238c-6.563-.09-11.963,5.631-12.061,12.78s5.142,13.017,11.7,13.108,11.963-5.632,12.061-12.781S226.54,131.328,219.977,131.238Z" transform="translate(-200.501 -123.21)" fill="#d86657"/>
          <path id="Trazado_651492" data-name="Trazado 651492" d="M219.987,131.38c-6.5-.09-11.844,5.575-11.941,12.652s5.09,12.887,11.588,12.976,11.844-5.575,11.941-12.652S226.484,131.469,219.987,131.38Z" transform="translate(-200.512 -123.222)" fill="#d86556"/>
          <ellipse id="Elipse_5780" data-name="Elipse 5780" cx="12.686" cy="11.647" rx="12.686" ry="11.647" transform="translate(7.478 33.496) rotate(-89.214)" fill="#d86455"/>
          <path id="Trazado_651493" data-name="Trazado 651493" d="M220.005,131.663c-6.366-.088-11.6,5.462-11.7,12.4s4.988,12.626,11.354,12.714,11.6-5.463,11.7-12.4S226.371,131.751,220.005,131.663Z" transform="translate(-200.534 -123.247)" fill="#d86354"/>
          <ellipse id="Elipse_5781" data-name="Elipse 5781" cx="12.427" cy="11.409" rx="12.427" ry="11.409" transform="matrix(0.014, -1, 1, 0.014, 7.719, 33.24)" fill="#d76253"/>
          <path id="Trazado_651494" data-name="Trazado 651494" d="M220.024,131.946c-6.234-.086-11.365,5.35-11.458,12.141s4.884,12.367,11.12,12.452,11.365-5.351,11.458-12.142S226.259,132.032,220.024,131.946Z" transform="translate(-200.557 -123.271)" fill="#d76153"/>
          <path id="Trazado_651495" data-name="Trazado 651495" d="M220.033,132.088c-6.169-.085-11.245,5.293-11.337,12.013s4.833,12.236,11,12.321,11.245-5.294,11.337-12.013S226.2,132.173,220.033,132.088Z" transform="translate(-200.568 -123.283)" fill="#d76052"/>
          <path id="Trazado_651496" data-name="Trazado 651496" d="M220.043,132.229c-6.1-.084-11.125,5.237-11.217,11.886s4.782,12.105,10.886,12.189,11.125-5.237,11.217-11.885S226.146,132.313,220.043,132.229Z" transform="translate(-200.579 -123.295)" fill="#d75f51"/>
          <path id="Trazado_651497" data-name="Trazado 651497" d="M220.052,132.371c-6.038-.083-11.006,5.181-11.1,11.758s4.731,11.975,10.769,12.059,11.006-5.182,11.1-11.758S226.09,132.454,220.052,132.371Z" transform="translate(-200.59 -123.307)" fill="#d75e50"/>
          <path id="Trazado_651498" data-name="Trazado 651498" d="M220.061,132.512c-5.972-.081-10.886,5.125-10.975,11.63s4.679,11.846,10.652,11.928,10.886-5.125,10.975-11.63S226.034,132.594,220.061,132.512Z" transform="translate(-200.602 -123.32)" fill="#d65d50"/>
          <path id="Trazado_651499" data-name="Trazado 651499" d="M220.072,132.654c-5.907-.081-10.767,5.068-10.856,11.5s4.628,11.716,10.535,11.8,10.766-5.069,10.855-11.5S225.978,132.735,220.072,132.654Z" transform="translate(-200.613 -123.332)" fill="#d65c4f"/>
          <path id="Trazado_651500" data-name="Trazado 651500" d="M220.081,132.8c-5.841-.08-10.647,5.012-10.735,11.374s4.576,11.585,10.418,11.666,10.646-5.012,10.734-11.374S225.921,132.876,220.081,132.8Z" transform="translate(-200.624 -123.344)" fill="#d65b4e"/>
          <path id="Trazado_651501" data-name="Trazado 651501" d="M220.09,132.937c-5.776-.079-10.528,4.956-10.614,11.247s4.525,11.454,10.3,11.534,10.528-4.956,10.614-11.246S225.865,133.016,220.09,132.937Z" transform="translate(-200.635 -123.356)" fill="#d65a4d"/>
          <path id="Trazado_651502" data-name="Trazado 651502" d="M220.1,133.079c-5.71-.079-10.408,4.9-10.494,11.119s4.474,11.325,10.183,11.4,10.408-4.9,10.494-11.119S225.809,133.158,220.1,133.079Z" transform="translate(-200.646 -123.368)" fill="#d5594c"/>
          <path id="Trazado_651503" data-name="Trazado 651503" d="M220.109,133.221c-5.644-.078-10.288,4.842-10.373,10.99s4.422,11.195,10.066,11.272,10.289-4.843,10.373-10.991S225.753,133.3,220.109,133.221Z" transform="translate(-200.657 -123.381)" fill="#d5584c"/>
          <path id="Trazado_651504" data-name="Trazado 651504" d="M220.118,133.362c-5.579-.077-10.168,4.787-10.252,10.863s4.371,11.064,9.949,11.141,10.169-4.787,10.252-10.863S225.7,133.439,220.118,133.362Z" transform="translate(-200.669 -123.393)" fill="#d5574b"/>
          <path id="Trazado_651505" data-name="Trazado 651505" d="M220.128,133.5c-5.513-.076-10.05,4.73-10.132,10.735s4.32,10.934,9.832,11.01,10.05-4.731,10.132-10.735S225.64,133.58,220.128,133.5Z" transform="translate(-200.68 -123.405)" fill="#d5564a"/>
          <path id="Trazado_651506" data-name="Trazado 651506" d="M220.137,133.645c-5.447-.075-9.93,4.674-10.011,10.608s4.268,10.8,9.715,10.879,9.93-4.674,10.011-10.607S225.585,133.72,220.137,133.645Z" transform="translate(-200.691 -123.417)" fill="#d55549"/>
          <path id="Trazado_651507" data-name="Trazado 651507" d="M220.146,133.787c-5.382-.074-9.81,4.618-9.891,10.479s4.216,10.675,9.6,10.749,9.81-4.618,9.891-10.48S225.528,133.861,220.146,133.787Z" transform="translate(-200.702 -123.429)" fill="#d45449"/>
          <path id="Trazado_651508" data-name="Trazado 651508" d="M220.156,133.929c-5.316-.073-9.69,4.561-9.77,10.351s4.165,10.544,9.481,10.617,9.69-4.562,9.77-10.352S225.472,134,220.156,133.929Z" transform="translate(-200.713 -123.441)" fill="#d45348"/>
          <path id="Trazado_651509" data-name="Trazado 651509" d="M220.165,134.07c-5.25-.072-9.571,4.505-9.649,10.224s4.114,10.413,9.364,10.486,9.571-4.505,9.649-10.224S225.415,134.142,220.165,134.07Z" transform="translate(-200.725 -123.454)" fill="#d45247"/>
        </g>
        <g id="Grupo_994975" data-name="Grupo 994975" transform="translate(231.818 107.07)" opacity="0.38">
          <circle id="Elipse_5782" data-name="Elipse 5782" cx="20.712" cy="20.712" r="20.712" transform="translate(0.145 35.652) rotate(-59.001)" fill="#e5a185"/>
          <circle id="Elipse_5783" data-name="Elipse 5783" cx="20.582" cy="20.582" r="20.582" transform="matrix(0.11, -0.994, 0.994, 0.11, 5.85, 46.766)" fill="#e5a084"/>
          <circle id="Elipse_5784" data-name="Elipse 5784" cx="20.453" cy="20.453" r="20.453" transform="translate(0 24.019) rotate(-35.958)" fill="#e59f83"/>
          <circle id="Elipse_5785" data-name="Elipse 5785" cx="20.323" cy="20.323" r="20.323" transform="matrix(0.185, -0.983, 0.983, 0.185, 4.829, 44.772)" fill="#e49e83"/>
          <circle id="Elipse_5786" data-name="Elipse 5786" cx="20.194" cy="20.194" r="20.194" transform="translate(0.42 23.722) rotate(-35.236)" fill="#e49d82"/>
          <circle id="Elipse_5787" data-name="Elipse 5787" cx="20.065" cy="20.065" r="20.065" transform="matrix(0.939, -0.344, 0.344, 0.939, 2.824, 16.625)" fill="#e49c81"/>
          <circle id="Elipse_5788" data-name="Elipse 5788" cx="19.935" cy="19.935" r="19.935" transform="translate(1.283 35.67) rotate(-59.596)" fill="#e49b80"/>
          <circle id="Elipse_5789" data-name="Elipse 5789" cx="19.806" cy="19.806" r="19.806" transform="matrix(0.575, -0.818, 0.818, 0.575, 0.971, 33.371)" fill="#e49a80"/>
          <circle id="Elipse_5790" data-name="Elipse 5790" cx="19.676" cy="19.676" r="19.676" transform="matrix(0.582, -0.813, 0.813, 0.582, 1.112, 33.107)" fill="#e3997f"/>
          <circle id="Elipse_5791" data-name="Elipse 5791" cx="19.547" cy="19.547" r="19.547" transform="translate(3.031 17.976) rotate(-22.476)" fill="#e3987e"/>
          <circle id="Elipse_5792" data-name="Elipse 5792" cx="19.417" cy="19.417" r="19.417" transform="matrix(0.847, -0.532, 0.532, 0.847, 1.796, 22.445)" fill="#e3977d"/>
          <circle id="Elipse_5793" data-name="Elipse 5793" cx="19.288" cy="19.288" r="19.288" transform="translate(3.382 39.045) rotate(-67.594)" fill="#e3967c"/>
          <circle id="Elipse_5794" data-name="Elipse 5794" cx="19.158" cy="19.158" r="19.158" transform="translate(4.056 17.016) rotate(-19.768)" fill="#e2957c"/>
          <circle id="Elipse_5795" data-name="Elipse 5795" cx="19.029" cy="19.029" r="19.029" transform="translate(1.654 28.565) rotate(-45)" fill="#e2947b"/>
          <circle id="Elipse_5796" data-name="Elipse 5796" cx="18.899" cy="18.899" r="18.899" transform="translate(5.282 41.691) rotate(-74.413)" fill="#e2937a"/>
          <circle id="Elipse_5797" data-name="Elipse 5797" cx="18.77" cy="18.77" r="18.77" transform="matrix(0.444, -0.896, 0.896, 0.444, 3.413, 37.05)" fill="#e29279"/>
          <path id="Trazado_651510" data-name="Trazado 651510" d="M275.707,125.782a18.64,18.64,0,1,0,18.382,18.9A18.64,18.64,0,0,0,275.707,125.782Z" transform="translate(-246.885 -115.855)" fill="#e29179"/>
          <circle id="Elipse_5798" data-name="Elipse 5798" cx="18.511" cy="18.511" r="18.511" transform="translate(6.163 15.02) rotate(-13.842)" fill="#e19078"/>
          <path id="Trazado_651511" data-name="Trazado 651511" d="M275.728,126.065A18.382,18.382,0,1,0,293.855,144.7,18.381,18.381,0,0,0,275.728,126.065Z" transform="translate(-246.91 -115.879)" fill="#e18f77"/>
          <path id="Trazado_651512" data-name="Trazado 651512" d="M275.738,126.207a18.252,18.252,0,1,0,18,18.5A18.252,18.252,0,0,0,275.738,126.207Z" transform="translate(-246.922 -115.892)" fill="#e18e76"/>
          <circle id="Elipse_5799" data-name="Elipse 5799" cx="18.123" cy="18.123" r="18.123" transform="matrix(0.995, -0.097, 0.097, 0.995, 8.776, 12.278)" fill="#e18d75"/>
          <circle id="Elipse_5800" data-name="Elipse 5800" cx="17.993" cy="17.993" r="17.993" transform="translate(3.468 24.367) rotate(-35.504)" fill="#e18c75"/>
          <circle id="Elipse_5801" data-name="Elipse 5801" cx="17.864" cy="17.864" r="17.864" transform="translate(8.67 44.134) rotate(-83.044)" fill="#e08b74"/>
          <circle id="Elipse_5802" data-name="Elipse 5802" cx="17.734" cy="17.734" r="17.734" transform="translate(9.741 45.138) rotate(-86.361)" fill="#e08a73"/>
          <circle id="Elipse_5803" data-name="Elipse 5803" cx="17.605" cy="17.605" r="17.605" transform="translate(3.911 25.096) rotate(-36.991)" fill="#e08972"/>
          <circle id="Elipse_5804" data-name="Elipse 5804" cx="17.476" cy="17.476" r="17.476" transform="matrix(0.071, -0.997, 0.997, 0.071, 9.892, 44.754)" fill="#e08872"/>
          <path id="Trazado_651513" data-name="Trazado 651513" d="M275.811,127.2a17.346,17.346,0,1,0,17.106,17.583A17.346,17.346,0,0,0,275.811,127.2Z" transform="translate(-247.007 -115.977)" fill="#df8771"/>
          <path id="Trazado_651514" data-name="Trazado 651514" d="M275.821,127.34A17.217,17.217,0,1,0,292.8,144.791,17.215,17.215,0,0,0,275.821,127.34Z" transform="translate(-247.019 -115.989)" fill="#df8670"/>
          <circle id="Elipse_5805" data-name="Elipse 5805" cx="17.087" cy="17.087" r="17.087" transform="translate(4.893 33.42) rotate(-56.588)" fill="#df856f"/>
          <circle id="Elipse_5806" data-name="Elipse 5806" cx="16.958" cy="16.958" r="16.958" transform="translate(4.583 28.565) rotate(-45)" fill="#df846f"/>
          <circle id="Elipse_5807" data-name="Elipse 5807" cx="16.828" cy="16.828" r="16.828" transform="translate(9.499 14.322) rotate(-8.238)" fill="#df836e"/>
          <circle id="Elipse_5808" data-name="Elipse 5808" cx="16.699" cy="16.699" r="16.699" transform="matrix(0.925, -0.38, 0.38, 0.925, 6.774, 19.463)" fill="#de826d"/>
          <circle id="Elipse_5809" data-name="Elipse 5809" cx="16.569" cy="16.569" r="16.569" transform="matrix(0.829, -0.559, 0.559, 0.829, 5.563, 24.097)" fill="#de816c"/>
          <circle id="Elipse_5810" data-name="Elipse 5810" cx="16.44" cy="16.44" r="16.44" transform="translate(7.93 39.276) rotate(-72.431)" fill="#de806b"/>
          <circle id="Elipse_5811" data-name="Elipse 5811" cx="16.311" cy="16.311" r="16.311" transform="translate(6.011 23.733) rotate(-32.907)" fill="#de7f6b"/>
          <circle id="Elipse_5812" data-name="Elipse 5812" cx="16.181" cy="16.181" r="16.181" transform="translate(5.682 28.565) rotate(-45)" fill="#de7e6a"/>
          <circle id="Elipse_5813" data-name="Elipse 5813" cx="16.052" cy="16.052" r="16.052" transform="translate(6.911 35.378) rotate(-62.463)" fill="#dd7d69"/>
          <path id="Trazado_651515" data-name="Trazado 651515" d="M275.925,128.756a15.922,15.922,0,1,0,15.7,16.14A15.921,15.921,0,0,0,275.925,128.756Z" transform="translate(-247.141 -116.111)" fill="#dd7c68"/>
          <path id="Trazado_651516" data-name="Trazado 651516" d="M275.936,128.9a15.793,15.793,0,1,0,15.574,16.009A15.794,15.794,0,0,0,275.936,128.9Z" transform="translate(-247.153 -116.123)" fill="#dd7b68"/>
          <circle id="Elipse_5814" data-name="Elipse 5814" cx="15.663" cy="15.663" r="15.663" transform="translate(8.833 18.501) rotate(-17.977)" fill="#dd7a67"/>
          <circle id="Elipse_5815" data-name="Elipse 5815" cx="15.534" cy="15.534" r="15.534" transform="matrix(0.953, -0.303, 0.303, 0.953, 9.052, 18.474)" fill="#dd7a66"/>
          <path id="Trazado_651517" data-name="Trazado 651517" d="M275.967,129.322a15.4,15.4,0,1,0,15.191,15.615A15.4,15.4,0,0,0,275.967,129.322Z" transform="translate(-247.19 -116.16)" fill="#dc7965"/>
          <circle id="Elipse_5816" data-name="Elipse 5816" cx="15.275" cy="15.275" r="15.275" transform="translate(11.957 42.378) rotate(-84.749)" fill="#dc7864"/>
          <circle id="Elipse_5817" data-name="Elipse 5817" cx="15.145" cy="15.145" r="15.145" transform="translate(13.42 13.42)" fill="#dc7764"/>
          <circle id="Elipse_5818" data-name="Elipse 5818" cx="15.016" cy="15.016" r="15.016" transform="translate(13.549 13.549)" fill="#dc7663"/>
          <path id="Trazado_651518" data-name="Trazado 651518" d="M276.008,129.889a14.887,14.887,0,1,0,14.681,15.089A14.885,14.885,0,0,0,276.008,129.889Z" transform="translate(-247.238 -116.208)" fill="#db7562"/>
          <path id="Trazado_651519" data-name="Trazado 651519" d="M276.019,130.03a14.757,14.757,0,1,0,14.553,14.959A14.758,14.758,0,0,0,276.019,130.03Z" transform="translate(-247.251 -116.22)" fill="#db7461"/>
          <circle id="Elipse_5819" data-name="Elipse 5819" cx="14.628" cy="14.628" r="14.628" transform="matrix(0.996, -0.09, 0.09, 0.996, 12.683, 15.31)" fill="#db7361"/>
          <path id="Trazado_651520" data-name="Trazado 651520" d="M276.04,130.313a14.5,14.5,0,1,0,14.3,14.7A14.5,14.5,0,0,0,276.04,130.313Z" transform="translate(-247.275 -116.245)" fill="#db7260"/>
          <circle id="Elipse_5820" data-name="Elipse 5820" cx="14.369" cy="14.369" r="14.369" transform="translate(11.478 17.567) rotate(-12.233)" fill="#db715f"/>
          <circle id="Elipse_5821" data-name="Elipse 5821" cx="14.239" cy="14.239" r="14.239" transform="translate(8.433 28.111) rotate(-43.708)" fill="#da705e"/>
          <path id="Trazado_651521" data-name="Trazado 651521" d="M276.071,130.738a14.11,14.11,0,1,0,13.914,14.3A14.111,14.111,0,0,0,276.071,130.738Z" transform="translate(-247.311 -116.281)" fill="#da6f5d"/>
          <circle id="Elipse_5822" data-name="Elipse 5822" cx="13.98" cy="13.98" r="13.98" transform="translate(8.885 26.667) rotate(-39.491)" fill="#da6e5d"/>
          <circle id="Elipse_5823" data-name="Elipse 5823" cx="13.851" cy="13.851" r="13.851" transform="translate(13.159 16.468) rotate(-6.86)" fill="#da6d5c"/>
          <path id="Trazado_651522" data-name="Trazado 651522" d="M276.1,131.163a13.722,13.722,0,1,0,13.531,13.909A13.721,13.721,0,0,0,276.1,131.163Z" transform="translate(-247.348 -116.318)" fill="#da6c5b"/>
          <circle id="Elipse_5824" data-name="Elipse 5824" cx="13.592" cy="13.592" r="13.592" transform="translate(11.182 36.77) rotate(-70.267)" fill="#d96b5a"/>
          <path id="Trazado_651523" data-name="Trazado 651523" d="M276.123,131.446A13.463,13.463,0,1,0,289.4,145.093,13.463,13.463,0,0,0,276.123,131.446Z" transform="translate(-247.372 -116.342)" fill="#d96a5a"/>
          <circle id="Elipse_5825" data-name="Elipse 5825" cx="13.333" cy="13.333" r="13.333" transform="translate(11.249 21.102) rotate(-21.684)" fill="#d96959"/>
          <circle id="Elipse_5826" data-name="Elipse 5826" cx="13.204" cy="13.204" r="13.204" transform="translate(9.892 28.565) rotate(-45)" fill="#d96858"/>
          <circle id="Elipse_5827" data-name="Elipse 5827" cx="13.074" cy="13.074" r="13.074" transform="translate(10.984 34.289) rotate(-63.032)" fill="#d86757"/>
          <circle id="Elipse_5828" data-name="Elipse 5828" cx="12.945" cy="12.945" r="12.945" transform="translate(11.292 22.5) rotate(-25.652)" fill="#d86657"/>
          <circle id="Elipse_5829" data-name="Elipse 5829" cx="12.815" cy="12.815" r="12.815" transform="matrix(0.942, -0.335, 0.335, 0.942, 12.198, 20.782)" fill="#d86556"/>
          <circle id="Elipse_5830" data-name="Elipse 5830" cx="12.686" cy="12.686" r="12.686" transform="translate(12.085 21.474) rotate(-21.719)" fill="#d86455"/>
          <circle id="Elipse_5831" data-name="Elipse 5831" cx="12.556" cy="12.556" r="12.556" transform="matrix(0.528, -0.849, 0.849, 0.528, 11.271, 32.595)" fill="#d86354"/>
          <circle id="Elipse_5832" data-name="Elipse 5832" cx="12.427" cy="12.427" r="12.427" transform="translate(12.889 36.51) rotate(-71.875)" fill="#d76253"/>
          <path id="Trazado_651524" data-name="Trazado 651524" d="M276.216,132.721a12.3,12.3,0,1,0,12.127,12.465A12.3,12.3,0,0,0,276.216,132.721Z" transform="translate(-247.482 -116.452)" fill="#d76153"/>
          <circle id="Elipse_5833" data-name="Elipse 5833" cx="12.168" cy="12.168" r="12.168" transform="matrix(0.772, -0.636, 0.636, 0.772, 11.437, 26.908)" fill="#d76052"/>
          <path id="Trazado_651525" data-name="Trazado 651525" d="M276.237,133a12.039,12.039,0,1,0,11.872,12.2A12.039,12.039,0,0,0,276.237,133Z" transform="translate(-247.506 -116.476)" fill="#d75f51"/>
          <circle id="Elipse_5834" data-name="Elipse 5834" cx="11.909" cy="11.909" r="11.909" transform="translate(12.705 34.233) rotate(-64.665)" fill="#d75e50"/>
          <circle id="Elipse_5835" data-name="Elipse 5835" cx="11.78" cy="11.78" r="11.78" transform="matrix(0.193, -0.981, 0.981, 0.193, 14.731, 37.846)" fill="#d65d50"/>
          <path id="Trazado_651526" data-name="Trazado 651526" d="M276.269,133.429a11.65,11.65,0,1,0,11.488,11.81A11.651,11.651,0,0,0,276.269,133.429Z" transform="translate(-247.543 -116.513)" fill="#d65c4f"/>
          <path id="Trazado_651527" data-name="Trazado 651527" d="M276.279,133.57a11.521,11.521,0,1,0,11.361,11.679A11.521,11.521,0,0,0,276.279,133.57Z" transform="translate(-247.555 -116.525)" fill="#d65b4e"/>
          <circle id="Elipse_5836" data-name="Elipse 5836" cx="11.391" cy="11.391" r="11.391" transform="matrix(0.982, -0.187, 0.187, 0.982, 15.244, 19.506)" fill="#d65a4d"/>
          <path id="Trazado_651528" data-name="Trazado 651528" d="M276.3,133.854a11.262,11.262,0,1,0,11.106,11.416A11.261,11.261,0,0,0,276.3,133.854Z" transform="translate(-247.579 -116.549)" fill="#d5594c"/>
          <path id="Trazado_651529" data-name="Trazado 651529" d="M276.31,133.995a11.133,11.133,0,1,0,10.978,11.285A11.134,11.134,0,0,0,276.31,133.995Z" transform="translate(-247.592 -116.561)" fill="#d5584c"/>
          <path id="Trazado_651530" data-name="Trazado 651530" d="M276.321,134.137a11,11,0,1,0,10.85,11.154A11,11,0,0,0,276.321,134.137Z" transform="translate(-247.604 -116.574)" fill="#d5574b"/>
          <circle id="Elipse_5837" data-name="Elipse 5837" cx="10.874" cy="10.874" r="10.874" transform="translate(16.419 37.996) rotate(-82.826)" fill="#d5564a"/>
          <circle id="Elipse_5838" data-name="Elipse 5838" cx="10.744" cy="10.744" r="10.744" transform="translate(17.029 38.454) rotate(-85.602)" fill="#d55549"/>
          <path id="Trazado_651531" data-name="Trazado 651531" d="M276.352,134.562a10.615,10.615,0,1,0,10.467,10.76A10.615,10.615,0,0,0,276.352,134.562Z" transform="translate(-247.64 -116.61)" fill="#d45449"/>
          <circle id="Elipse_5839" data-name="Elipse 5839" cx="10.485" cy="10.485" r="10.485" transform="translate(15.252 22.036) rotate(-18.875)" fill="#d45348"/>
          <path id="Trazado_651532" data-name="Trazado 651532" d="M276.372,134.845a10.356,10.356,0,1,0,10.212,10.5A10.356,10.356,0,0,0,276.372,134.845Z" transform="translate(-247.665 -116.635)" fill="#d45247"/>
        </g>
        <ellipse id="Elipse_5840" data-name="Elipse 5840" cx="15.206" cy="10.398" rx="15.206" ry="10.398" transform="matrix(0.296, -0.955, 0.955, 0.296, 277.475, 143.868)" fill="#e5a185"/>
        <path id="Trazado_651533" data-name="Trazado 651533" d="M307.592,146.8c-5.252,3.349-10.836,2.255-14.874-1.046a53.431,53.431,0,0,1-10.992,32.385c-7.737,10.405-24.434,13.824-36.831,13.35-29.577-1.132-37.344-10.183-43.405-22.394,4.151,13.389,14.367,25.792,37.624,27.418,43.095,3.011,54.987-14.949,56.7-40.5a7.349,7.349,0,0,0,1.6.829c5.406,1.945,11.939-2.935,14.59-10.9a21.461,21.461,0,0,0,1.1-6.064A13.366,13.366,0,0,1,307.592,146.8Z" transform="translate(-10.31 -9.997)" fill="#d78c74"/>
        <path id="Trazado_651534" data-name="Trazado 651534" d="M307.14,141.72l4.948.715c-.036-7.806,5.758-10.393,5.758-10.393C308.449,128.634,307.14,141.72,307.14,141.72Z" transform="translate(-19.395 -9.275)" fill="#d78c74"/>
        <path id="Trazado_651535" data-name="Trazado 651535" d="M277.191,121.143c-10.263-.915-13.932,9.465-13.932,9.465s1.7,6.913,12.481,7.127c12.476.25,12.539-6.159,12.539-6.159A11.8,11.8,0,0,0,277.191,121.143Z" transform="translate(-15.622 -8.382)" fill="#fff"/>
        <path id="Trazado_651536" data-name="Trazado 651536" d="M210.113,127.547s-1.741,6.461,9.986,7.069,12.777-3.066,12.777-3.066S221.7,110.113,210.113,127.547Z" transform="translate(-11.044 -8.35)" fill="#fff"/>
        <path id="Trazado_651537" data-name="Trazado 651537" d="M226.5,124.189c-2.442-.807-5.462,1.687-6.745,5.571a10.134,10.134,0,0,0-.412,5.006c.5.054.993.107,1.547.136a35.7,35.7,0,0,0,6.8-.206,11.319,11.319,0,0,0,.911-2.014C229.878,128.8,228.939,125,226.5,124.189Z" transform="translate(-11.833 -8.636)" fill="url(#linear-gradient)"/>
        <path id="Trazado_651538" data-name="Trazado 651538" d="M218.166,131.137l.381,1.665s6.959-.542,6.294-3.7S218.166,131.137,218.166,131.137Z" transform="translate(-11.744 -8.983)" fill="#fff" opacity="0.79"/>
        <path id="Trazado_651539" data-name="Trazado 651539" d="M277.365,138.038a11.645,11.645,0,0,0,2.907-4.644c1.284-3.884.346-7.687-2.1-8.494s-5.461,1.687-6.745,5.571a9.345,9.345,0,0,0,.375,6.978,19.9,19.9,0,0,0,4.6.6C276.743,138.057,277.042,138.04,277.365,138.038Z" transform="translate(-16.282 -8.697)" fill="url(#linear-gradient-2)"/>
        <path id="Trazado_651540" data-name="Trazado 651540" d="M269.768,133.064,269.6,134.8s7.283-.269,6.618-3.428S269.768,133.064,269.768,133.064Z" transform="translate(-16.167 -9.175)" fill="#fff" opacity="0.79"/>
        <path id="Trazado_651541" data-name="Trazado 651541" d="M220.834,117.547c-8.733-.009-10.712,9.728-10.712,9.728a13.264,13.264,0,0,1,10.152-4.98c7.176,0,12.612,8.984,12.612,8.984S232.262,117.56,220.834,117.547Z" transform="translate(-11.053 -8.077)" fill="#381911"/>
        <path id="Trazado_651542" data-name="Trazado 651542" d="M214.178,104.52l.716,4.083c8.124-4.792,25.638-6.334,25.638-6.334l.616-10.056C221.594,93.841,214.178,104.52,214.178,104.52Z" transform="translate(-11.402 -5.899)" fill="#422e26"/>
        <path id="Trazado_651543" data-name="Trazado 651543" d="M264.476,93.914l-2.218,8.927s20.576,4.176,27.132,9.221l1.588-3.876S283.47,96.8,264.476,93.914Z" transform="translate(-15.536 -6.045)" fill="#422e26"/>
        <path id="Trazado_651544" data-name="Trazado 651544" d="M276.242,119.592c-11.5-.564-12.983,10.885-12.983,10.885s3.088-7.026,13.261-5.951,11.756,7.3,11.756,7.3S287.738,120.155,276.242,119.592Z" transform="translate(-15.622 -8.252)" fill="#381911"/>
        <path id="Trazado_651545" data-name="Trazado 651545" d="M248.52,162.587c-20.745.315-23.176-4.225-23.176-4.225s-2.733,21.913,22.476,22.1c24.084.175,20.074-20.893,19.917-21.779C267.787,159.089,267.562,162.3,248.52,162.587Z" transform="translate(-12.354 -11.587)" fill="#6c332e"/>
        <path id="Trazado_651546" data-name="Trazado 651546" d="M263.91,174.777c-10.977-1.366-20.441-1.458-29.64,3.371,3.3,2.146,7.9,3.607,14.325,3.653,9.328.068,14.431-3.055,17.187-6.954A11.349,11.349,0,0,1,263.91,174.777Z" transform="translate(-13.129 -12.929)" fill="#7a3835"/>
        <path id="Trazado_651547" data-name="Trazado 651547" d="M271.725,158.663l.008.043A.316.316,0,0,0,271.725,158.663Z" transform="translate(-16.35 -11.613)" fill="#6c332e"/>
        <path id="Trazado_651548" data-name="Trazado 651548" d="M263.442,161.548a74.826,74.826,0,0,1-14.517,1.269c-9.675.147-15.364-.762-18.682-1.774-1.868,5.116,5.992,10.158,15.914,10.231C256.61,171.349,265.04,166.527,263.442,161.548Z" transform="translate(-12.759 -11.818)" fill="#fff"/>
        <path id="Trazado_651549" data-name="Trazado 651549" d="M258.992,167.3a12.16,12.16,0,0,1,1.153.492c2.664-1.752,4.024-3.977,3.3-6.24a74.825,74.825,0,0,1-14.517,1.269c-9.675.147-15.364-.762-18.682-1.774a4.829,4.829,0,0,0,1.084,4.876C239.912,161.82,250.262,164.221,258.992,167.3Z" transform="translate(-12.759 -11.818)" fill="#d6c0ba" opacity="0.28"/>
        <path id="Trazado_651550" data-name="Trazado 651550" d="M241.386,136.763s-7.765-5.69-10.553,4.22,16.966,15.868,22.43,5.521-8.64-29.73-8.64-29.73S247.38,128.69,241.386,136.763Z" transform="translate(-12.811 -8.011)" fill="#e5a185"/>
        <path id="Trazado_651551" data-name="Trazado 651551" d="M241.43,137.291s-7.541-5.355-10.349,3.551a70.391,70.391,0,0,0,12.339,1.915c2.5-5.931,3.292-12.377,3.534-19.367-.562-.159-1.125-.312-1.685-.477C245.422,127.1,244.879,132.647,241.43,137.291Z" transform="translate(-12.855 -8.539)" fill="#fff" opacity="0.2"/>
        <path id="Trazado_651552" data-name="Trazado 651552" d="M251.894,43.862C197.1,47.5,205.066,108.23,205.066,108.23c3.262-18.061,14.547-40.46,23.176-40.9a32.916,32.916,0,0,0,18.713,6.358c10.036.2,23.953-7.1,23.953-7.1,10.014-.233,21.466,30.763,22.8,55.743.306,5.714,5.27-.882,5.27-.882S305.589,40.3,251.894,43.862Z" transform="translate(-10.583 -1.732)" fill="#4f372d"/>
        <path id="Trazado_651553" data-name="Trazado 651553" d="M281.1,47.305c-16.2-24.724-69-17.546-69-17.546C206.983,57.815,226.6,64.139,226.6,64.139s45.71-8.147,52.626-3.265,20.422,44.112,20.422,44.112,11.687-40.946,3.071-56.007C296.393,37.925,281.1,47.305,281.1,47.305Z" transform="translate(-11.15 -0.445)" fill="#4f372d"/>
        <path id="Trazado_651554" data-name="Trazado 651554" d="M234.53,23.611c.189,3.715,3.392,7.49,3.392,7.49S293.285,68.714,283.1,46.86,234.53,23.611,234.53,23.611Z" transform="translate(-13.152)" fill="#4f372d"/>
        <path id="Trazado_651555" data-name="Trazado 651555" d="M295.534,40.093c-3.117.482-3.848,1.955-3.848,1.955,2.243-4.1.7-9.677.7-9.677-6.084,3.485-5.48,8.342-5.48,8.342-2.981-6.245-12.162-8.183-12.162-8.183.3,5.16,5.8,10.426,6.1,10.586l4.764,7.261,9.876-1.552-.975-4.407A5.412,5.412,0,0,0,295.534,40.093Z" transform="translate(-16.609 -0.753)" fill="#4f372d"/>
        <path id="Trazado_651556" data-name="Trazado 651556" d="M212.669,53.212c-16.1,4.9-11.439,69.037-11.439,69.037,3.262-18.061,18.034-53.665,26.663-54.109A56.873,56.873,0,0,1,212.669,53.212Z" transform="translate(-10.234 -2.545)" fill="#422e26"/>
        <path id="Trazado_651557" data-name="Trazado 651557" d="M282.358,48.536c.025,0,.085-.011-.008,0Z" transform="translate(-17.264 -2.143)" fill="#fff" opacity="0.12"/>
        <path id="Trazado_651558" data-name="Trazado 651558" d="M282.361,48h0Z" transform="translate(-17.264 -2.097)" fill="#fff" opacity="0.12"/>
        <path id="Trazado_651559" data-name="Trazado 651559" d="M296.489,44.246c-1.974.314-4.055.8-6.2,1.293-5.123,1.167-10.516,1.95-15.766,1.246-6.1-.819-11.456-3.546-16.875-6.285-2.735-1.383-5.463-2.789-8.281-4-6.036-2.587-13.156-5.126-19.812-4.907A27.929,27.929,0,0,0,220,33.951a20.587,20.587,0,0,0-6.821,4.56,19.138,19.138,0,0,0-1.852,2.167,33.979,33.979,0,0,0,.794,6.033c.208-.171.423-.345.654-.523a20.391,20.391,0,0,1,4.076-2.322,18.111,18.111,0,0,1,5.454-1.384c7.918-.607,15.271,2.571,22.422,5.524,2.928,1.209,5.9,2.617,9.054,3.923a97.87,97.87,0,0,0,9.838,3.653c5.768,1.759,12.811,2.3,18.683.664.793-.22,1.579-.4,2.341-.64a53.129,53.129,0,0,0,7.963-3.37c2.289-1.178,4.248-2.253,5.977-3.063a21.748,21.748,0,0,1,3.242-1.3A9.774,9.774,0,0,0,296.489,44.246Z" transform="translate(-11.156 -0.685)" fill="#e5912f" opacity="0.11"/>
        <path id="Trazado_651560" data-name="Trazado 651560" d="M282.221,48.54l.036,0h0Z" transform="translate(-17.252 -2.143)" fill="#fff" opacity="0.12"/>
        <path id="Trazado_651561" data-name="Trazado 651561" d="M200.946,128.744s-.443,25.423,16.363,27.389c0,0-1.834,26.66,28.682,26.354,28.269-.283,23.533-26.179,23.533-26.179s20.893,0,23.5-27.564l5.323.006s-4.991,16.033-2.276,25.572c0,0,7.662,42.544-48.945,43.448S194.325,155.652,200.946,128.744Z" transform="translate(-9.95 -9.04)" fill="#4f372d"/>
        <path id="Trazado_651562" data-name="Trazado 651562" d="M241.391,149.294s-7.262-1.047-18.214,2.263c-10.409,3.144-14.494,1.267-14.494,1.267s2.615,8.236,34.89,8.976c27.439.629,36.4-5.015,36.4-5.015S267.134,148.809,241.391,149.294Z" transform="translate(-10.929 -10.794)" fill="#4f372d"/>
        <path id="Trazado_651563" data-name="Trazado 651563" d="M241.391,149.294s-7.262-1.047-18.214,2.263c-10.409,3.144-14.494,1.267-14.494,1.267s2.615,8.236,34.89,8.976c27.439.629,36.4-5.015,36.4-5.015S267.134,148.809,241.391,149.294Z" transform="translate(-10.929 -10.794)" fill="#4f372d"/>
        <path id="Trazado_651564" data-name="Trazado 651564" d="M230.637,146.292c1.132,8.145,17.7,12.09,22.632,2.75a10.012,10.012,0,0,0,.719-1.788A49.227,49.227,0,0,1,230.637,146.292Z" transform="translate(-12.817 -10.549)" fill="#d78c74"/>
        <path id="Trazado_651565" data-name="Trazado 651565" d="M239.668,189.6s5.464,2.576,15.205.736c0,0,4.3,8.094-7.971,7.911S239.668,189.6,239.668,189.6Z" transform="translate(-13.505 -14.273)" opacity="0.16"/>
        <path id="Trazado_651566" data-name="Trazado 651566" d="M286.64,214.475s-.886,24.356,40.418,93.7c48.29,81.077,68.225,51.714,68.225,51.714l7.659-17.982s-41.392-76.963-61.628-100.624S286.64,214.475,286.64,214.475Z" transform="translate(-17.632 -16.412)" fill="#179587"/>
        <path id="Trazado_651567" data-name="Trazado 651567" d="M393.642,308.516s-12.926-21.156-17.065-20.542-27.441,41.545-18.244,65.307,55.8,33.429,54.713-13.217C412.07,298.223,393.985,308.157,393.642,308.516Z" transform="translate(-23.614 -22.731)" fill="#b6bdce"/>
        <path id="Trazado_651568" data-name="Trazado 651568" d="M147.951,241.4c-20.236,23.661-61.627,100.624-61.627,100.624l7.659,17.982s19.935,29.364,68.226-51.714c41.3-69.345,41.74-92.456,41.74-92.456S168.187,217.739,147.951,241.4Z" transform="translate(-0.407 -16.529)" fill="#179587"/>
        <path id="Trazado_651569" data-name="Trazado 651569" d="M280.951,476.967l-12.8,21.052H281.7l11.847-21.052Z" transform="translate(-16.042 -38.984)" fill="#3d4041"/>
        <path id="Trazado_651570" data-name="Trazado 651570" d="M169.252,475.912a110.609,110.609,0,0,0-1.2,21.719H300.483l.591-25.187Z" transform="translate(-7.423 -38.595)" fill="#363c42"/>
        <g id="Grupo_994976" data-name="Grupo 994976" transform="translate(158.465 457.991)">
          <path id="Trazado_651571" data-name="Trazado 651571" d="M165.7,499.9h3.116l-3.064-1.045C165.735,499.138,165.717,499.5,165.7,499.9Z" transform="translate(-165.698 -498.857)" fill="#363c42"/>
        </g>
        <g id="Grupo_994977" data-name="Grupo 994977" transform="translate(252.829 453.221)">
          <path id="Trazado_651572" data-name="Trazado 651572" d="M308.892,493.641l-39.953,5.812h42.5C311.3,495.567,310.575,493.548,308.892,493.641Z" transform="translate(-268.939 -493.638)" fill="#363c42"/>
        </g>
        <path id="Trazado_651573" data-name="Trazado 651573" d="M203.236,220.127v28.892h85.856l-2.666-31.375C260.68,210.031,228.163,209.7,203.236,220.127Z" transform="translate(-10.461 -16.208)" fill="#d78c74"/>
        <path id="Trazado_651574" data-name="Trazado 651574" d="M289.755,217.921c-2.235-.64-4.392,1.507-6.772.883-2.488,14.812-21.272,15.387-41.667,15.718-18.415.3-26.776-3.676-30.024-17.808-6.1,1.055-21.666,6.01-30.292,11.534V475.641H297.034V220.089A44.275,44.275,0,0,0,289.755,217.921Z" transform="translate(-8.549 -16.605)" fill="#dfe5ea"/>
        <path id="Trazado_651575" data-name="Trazado 651575" d="M229.318,241.151c-.782-3.856-12.4-15.005-14.863-25.7-11.05,0-33.081,8.987-39.822,15.575-14.425,14.1-14.6,48.69-15.969,98.965-1.438,52.662-1.489,48.928-7.975,145.543h66.332C214.7,395.655,228.218,252.454,229.318,241.151Z" transform="translate(-5.942 -16.496)" fill="#179587"/>
        <path id="Trazado_651576" data-name="Trazado 651576" d="M326.96,262.653c0-4.863.882-38.269-31.521-44.991-2.235-.64-12.5-3.332-14.878-3.956-2.135,12.717-7.3,10.165-22.487,26.986-1.395,13.984-11.984,123.173-10.909,234.69H329.9C325.228,416.81,326.829,312.72,326.96,262.653Z" transform="translate(-14.231 -16.346)" fill="#179587"/>
        <path id="Trazado_651577" data-name="Trazado 651577" d="M213.771,216.122h0s-5.6,25.2-.016,36.163c0,0,1.434-15.76,8.369-13.019,4.607,1.821,9.124,8.375,11.673,12.473.345-5.486.6-9.164.732-10.531-.759-3.737-11.673-14.323-14.585-24.711A32.524,32.524,0,0,0,213.771,216.122Z" transform="translate(-11.152 -16.552)" fill="#002a3d" opacity="0.08"/>
        <path id="Trazado_651578" data-name="Trazado 651578" d="M209.952,387.358c3.16-67.818,13.6-147.345,15.045-158.145-.309-.457-.611-.919-.912-1.387l-4.353-.6c-.118.863-11.864,87.068-15.257,159.873-1.764,37.871-1.7,68.595-1.23,89.441h5.482C208.257,455.818,208.19,425.185,209.952,387.358Z" transform="translate(-10.437 -17.509)" fill="#157d71"/>
        <path id="Trazado_651579" data-name="Trazado 651579" d="M266.517,387.968c.173-76.059,9.17-157.282,9.262-158.094l-3.317-.372c-.735.609-1.525,1.267-2.371,1.988-1.443,13.6-8.9,87.149-9.056,156.465-.085,37.494,1.024,67.694,2.18,88.785h5.49C267.547,455.737,266.432,425.535,266.517,387.968Z" transform="translate(-15.43 -17.704)" fill="#157d71"/>
        <path id="Trazado_651580" data-name="Trazado 651580" d="M285.339,216.122a30.943,30.943,0,0,0-4.341.152c-2.4,10.094-7.847,8.933-22.012,24.624-.168,1.691-.935,7.084-1.281,13.546,4.659-4.867,15.4-13.643,19.282-15.178,6.935-2.741,8.37,13.019,8.37,13.019,5.579-10.964-.016-36.161-.016-36.163Z" transform="translate(-15.144 -16.552)" fill="#002a3d" opacity="0.08"/>
        <g id="Grupo_994978" data-name="Grupo 994978" transform="translate(160.357 241.896)">
          <path id="Trazado_651581" data-name="Trazado 651581" d="M170.545,270.1l-2.777,5.775,47.779-8.037-.883-5.41Z" transform="translate(-167.768 -262.432)" fill="#157d71"/>
        </g>
        <path id="Trazado_651582" data-name="Trazado 651582" d="M226.144,203.585s-5.7,2.112-13.239,12.4-.686,31.567-.686,31.567,1.143-5.025,3.661-13.442c3.7-12.373,18.484,6.019,18.484,6.019a70.594,70.594,0,0,0-4.328-14.033C225.467,215.805,226.144,203.585,226.144,203.585Z" transform="translate(-10.988 -15.476)" fill="#157d71"/>
        <ellipse id="Elipse_5841" data-name="Elipse 5841" cx="3.672" cy="3.255" rx="3.672" ry="3.255" transform="translate(205.834 316.477)" fill="#b0b5c1"/>
        <path id="Trazado_651583" data-name="Trazado 651583" d="M216.7,398.008a3.279,3.279,0,1,0,3.672,3.255A3.483,3.483,0,0,0,216.7,398.008Z" transform="translate(-11.302 -32.194)" fill="#b0b5c1"/>
        <ellipse id="Elipse_5842" data-name="Elipse 5842" cx="3.672" cy="3.255" rx="3.672" ry="3.255" transform="translate(200.352 404.188)" fill="#b0b5c1"/>
        <path id="Trazado_651584" data-name="Trazado 651584" d="M215.2,483.475a3.278,3.278,0,1,0,3.672,3.255A3.482,3.482,0,0,0,215.2,483.475Z" transform="translate(-11.173 -39.543)" fill="#b0b5c1"/>
        <ellipse id="Elipse_5843" data-name="Elipse 5843" cx="3.672" cy="3.255" rx="3.672" ry="3.255" transform="translate(212.686 236.989)" fill="#b0b5c1"/>
        <ellipse id="Elipse_5844" data-name="Elipse 5844" cx="3.672" cy="3.255" rx="3.672" ry="3.255" transform="translate(209.007 273.782)" fill="#b0b5c1"/>
        <g id="Grupo_994979" data-name="Grupo 994979" transform="translate(254.14 240.815)">
          <rect id="Rectángulo_302412" data-name="Rectángulo 302412" width="5.481" height="45.288" transform="translate(0 5.368) rotate(-78.332)" fill="#157d71"/>
        </g>
        <path id="Trazado_651585" data-name="Trazado 651585" d="M273.888,205.5s.392,4.406-4.176,14.7c-3.01,6.781-9.593,11.649-10.657,20.316,0,0,20.426-18.607,24.128-6.234,2.518,8.417,3.66,13.442,3.66,13.442s6.852-21.278-.686-31.567S273.888,205.5,273.888,205.5Z" transform="translate(-15.26 -15.64)" fill="#157d71"/>
        <path id="Trazado_651586" data-name="Trazado 651586" d="M118.263,287.974c-4.14-.613-21.645,19.081-21.645,19.081s-13.667,2.082-14.969,32.154c-2.061,47.617,45.658,37.834,54.856,14.072S122.4,288.587,118.263,287.974Z" transform="translate(0 -22.731)" fill="#b6bdce"/>
        <path id="Trazado_651587" data-name="Trazado 651587" d="M226.981,203.585a17.252,17.252,0,0,0-3.816,2.37c-5.462,5.207-4.59,15.72-2.152,23.922,5.723-.25,14.187,10.254,14.187,10.254a70.594,70.594,0,0,0-4.328-14.033C226.3,215.805,226.981,203.585,226.981,203.585Z" transform="translate(-11.825 -15.476)" fill="#fff" opacity="0.12"/>
        <path id="Trazado_651588" data-name="Trazado 651588" d="M273.888,205.5s.392,4.406-4.177,14.7c-3.009,6.781-9.593,11.649-10.656,20.316,0,0,11.828-10.767,19.114-10.461,1.355-8.594,1.427-17.26-4.165-24.537Z" transform="translate(-15.26 -15.64)" fill="#fff" opacity="0.12"/>
        <path id="Trazado_651589" data-name="Trazado 651589" d="M161.336,279.464c-1.062,14.462-1.417,31.529-1.947,50.947-.1,3.566-.188,6.867-.275,9.965,6.592-84.561,24.507-113.679,29.943-120.015a32.51,32.51,0,0,0-9.939,3.663C172.341,233.227,166.123,254.694,161.336,279.464Z" transform="translate(-6.667 -16.918)" fill="#157d71"/>
        <path id="Trazado_651590" data-name="Trazado 651590" d="M331.123,374.185h0c-.914-17.366.1-34.588.164-50.761-5.956-64.648-17.287-92.1-24.006-104.28-.6-.248-1.988-1.484-8.419-2.431C298.844,216.711,323.811,266.332,331.123,374.185Z" transform="translate(-18.683 -16.605)" fill="#157d71"/>
        <path id="Trazado_651591" data-name="Trazado 651591" d="M167.429,342.8a8.523,8.523,0,0,0,4.058,7.9l7.859,4.8a6.717,6.717,0,0,0,7.1-.06l10.213-6.479a8.265,8.265,0,0,0,3.812-6.35l2.45-32.163H169.806Z" transform="translate(-7.38 -24.665)" fill="#157d71"/>
        <path id="Trazado_651592" data-name="Trazado 651592" d="M276.957,314.475V346.4a9.4,9.4,0,0,0,3.981,7.68l6.681,4.713a9.753,9.753,0,0,0,11.788-.414l9.815-8.009a11.8,11.8,0,0,0,4.333-9.538l-.881-26.352Z" transform="translate(-16.8 -25.011)" fill="#157d71"/>
        <path id="Trazado_651593" data-name="Trazado 651593" d="M127.138,165.976s-1.371-18.532-7.2-26c-1.541-1.975,5.638-9.173,12.91-1.9,7.769,7.769,6.531,25.592,6.531,25.592Z" transform="translate(-3.28 -9.569)" fill="#d58a73"/>
        <path id="Trazado_651594" data-name="Trazado 651594" d="M160.549,193.669a10.1,10.1,0,0,0,3.014-6.437,8.034,8.034,0,0,0-1.942-5.648c2.685-2.515,2.429-6.776.93-9.387s-5.337-3.96-5.337-3.96,1.313-3.329.558-5.632-5.376-4.116-13.268-3.1-22.688,4.964-23.608,8.526a13.607,13.607,0,0,0-.307,2.36c-.5,6.564-1.446,35.775-1.4,37-1.82,34.416-28.006,79.558-30.644,107.432-1.354,14.3.422,23.462,4.392,29.323.334,3.8,1.557,9.638,5.852,11.381s9.277-.29,12.17-1.884c12.139.837,26.65-11.086,31.874-28.248,4.319-14.189.514-74.735-1.27-99.484,14.51-4.772,11.528-15.865,11.528-15.865a14.72,14.72,0,0,0,6.941-3.437c2.644-2.672,4.113-6.041,3.358-8.344A15.469,15.469,0,0,0,160.549,193.669Z" transform="translate(-0.559 -11.661)" fill="#e5a185"/>
        <path id="Trazado_651595" data-name="Trazado 651595" d="M163.532,199.1c-.007-.051-.012-.1-.021-.154a4.021,4.021,0,0,0-.123-.5,8.222,8.222,0,0,0-.309-.789l-.01-.024c-.119-.263-.25-.522-.388-.774h0a17.839,17.839,0,0,0-2.131-3.012,10.1,10.1,0,0,0,3.014-6.437,8.034,8.034,0,0,0-1.942-5.648c2.685-2.515,2.429-6.776.93-9.387s-5.337-3.96-5.337-3.96,1.313-3.329.558-5.632a3.227,3.227,0,0,0-1.159-1.5c6.372,7.266-17.626,9.571-17.626,9.571l.513,1.824s20.565-4.189,21.555,2.742-18.966,7.922-18.966,7.922l.305,2.132s19.042-3.123,19.423,1.828-17.671,7.541-17.671,7.541l.457,1.9s15.948-2.9,16.681.457a5.231,5.231,0,0,1-2.122,5.252c-6.136,3.185-14.609,4.88-21.275,3.846-8.817-1.367-11.73-9.679-12.926-17.48-.862-5.625-3.307-17.575.163-23.932-2.326,1.078-3.941,2.216-4.226,3.319a13.607,13.607,0,0,0-.307,2.36c-.5,6.564-1.446,35.775-1.4,37C117.365,241.986,91.179,287.128,88.541,315c-1.354,14.3.422,23.462,4.392,29.323.334,3.8,1.557,9.638,5.852,11.381s9.277-.29,12.17-1.884c12.139.837,26.65-11.086,31.874-28.248,4.319-14.189.514-74.735-1.27-99.484,14.51-4.772,11.528-15.864,11.528-15.864a14.72,14.72,0,0,0,6.941-3.437,12.136,12.136,0,0,0,3.461-6.025c0-.026.006-.05.011-.076.027-.165.048-.329.06-.49,0-.052.007-.1.01-.154.006-.135.009-.268.005-.4,0-.058,0-.116-.005-.173C163.565,199.344,163.55,199.219,163.532,199.1Zm-27.308,90.043c-1.371,26.658-3.352,44.177-16.909,43.416s-12.8-17.671-9.293-31.382,13.685-41.345,16.135-52.922,2.416-20.391,6.715-19.282C138.184,230.337,137.595,262.48,136.224,289.139Z" transform="translate(-0.559 -11.838)" fill="#d58a73" opacity="0.55"/>
        <path id="Trazado_651596" data-name="Trazado 651596" d="M373.176,166.976s1.371-18.532,7.2-26c1.541-1.975-5.638-9.173-12.91-1.9-7.769,7.769-6.531,25.592-6.531,25.592Z" transform="translate(-24.015 -9.655)" fill="#d58a73"/>
        <path id="Trazado_651597" data-name="Trazado 651597" d="M334.511,194.669a10.1,10.1,0,0,1-3.013-6.437,8.036,8.036,0,0,1,1.941-5.648c-2.684-2.515-2.428-6.776-.929-9.387s5.337-3.96,5.337-3.96-1.313-3.329-.558-5.632,5.376-4.116,13.268-3.1,22.688,4.964,23.608,8.526a13.7,13.7,0,0,1,.307,2.36c.5,6.564,1.446,35.775,1.4,37,1.821,34.416,28.007,79.558,30.645,107.432,1.354,14.3-.422,23.462-4.392,29.323-.334,3.8-1.557,9.638-5.853,11.381s-9.276-.29-12.169-1.884c-12.139.837-26.65-11.086-31.874-28.248-4.32-14.189-.515-74.735,1.27-99.484-14.51-4.772-11.528-15.864-11.528-15.864a14.72,14.72,0,0,1-6.941-3.437c-2.644-2.672-4.113-6.041-3.358-8.344A15.448,15.448,0,0,1,334.511,194.669Z" transform="translate(-21.481 -11.747)" fill="#e5a185"/>
        <path id="Trazado_651598" data-name="Trazado 651598" d="M331.488,200.472c0,.057,0,.114-.005.173,0,.132,0,.264.005.4,0,.051.005.1.01.154q.019.241.06.49c0,.026.006.05.011.076a12.13,12.13,0,0,0,3.461,6.025,14.72,14.72,0,0,0,6.941,3.437S338.99,222.318,353.5,227.09c-1.784,24.749-5.589,85.295-1.27,99.484,5.224,17.162,19.735,29.086,31.874,28.248,2.893,1.594,7.86,3.633,12.169,1.884s5.52-7.583,5.853-11.381c3.97-5.862,5.745-15.021,4.392-29.323-2.638-27.874-28.824-73.016-30.645-107.432.044-1.225-.9-30.437-1.4-37a13.7,13.7,0,0,0-.307-2.36c-.285-1.1-1.9-2.241-4.226-3.319,3.469,6.357,1.025,18.307.163,23.932-1.2,7.8-4.109,16.112-12.926,17.48-6.667,1.034-15.14-.661-21.275-3.846a5.229,5.229,0,0,1-2.122-5.252c.733-3.357,16.681-.457,16.681-.457l.457-1.9s-18.052-2.589-17.672-7.541,19.423-1.828,19.423-1.828l.305-2.132s-19.957-.991-18.966-7.922,21.555-2.742,21.555-2.742l.513-1.824s-24-2.3-17.626-9.571a3.227,3.227,0,0,0-1.159,1.5c-.755,2.3.558,5.632.558,5.632s-3.838,1.349-5.337,3.96-1.756,6.872.929,9.387a8.036,8.036,0,0,0-1.941,5.648,10.1,10.1,0,0,0,3.013,6.437,17.839,17.839,0,0,0-2.132,3.012h0c-.138.252-.27.511-.388.774l-.01.024a8.233,8.233,0,0,0-.309.789,3.856,3.856,0,0,0-.123.5c-.009.051-.014.1-.021.154C331.51,200.219,331.5,200.344,331.488,200.472Zm30.7,29.5c4.3-1.109,4.266,7.7,6.715,19.282s12.632,39.212,16.135,52.922,4.266,30.619-9.293,31.382-15.538-16.757-16.909-43.416S356.876,231.337,362.188,229.968Z" transform="translate(-21.481 -11.924)" fill="#d58a73" opacity="0.55"/>
      </g>
      <line id="Línea_1059" data-name="Línea 1059" x1="419" transform="translate(955.5 12463.5)" fill="none" stroke="#707070" stroke-width="1"/>
    </g>
  </g>
</svg>
