<svg xmlns="http://www.w3.org/2000/svg" xmlns:xlink="http://www.w3.org/1999/xlink" width="399.13" height="401.753" viewBox="0 0 399.13 401.753">
  <defs>
    <linearGradient id="linear-gradient" x1="-0.051" y1="0.09" x2="0.96" y2="1.109" gradientUnits="objectBoundingBox">
      <stop offset="0" stop-color="#fdf53f"/>
      <stop offset="1" stop-color="#d93c65"/>
    </linearGradient>
    <linearGradient id="linear-gradient-2" x1="0.232" y1="-0.065" x2="0.633" y2="0.79" xlink:href="#linear-gradient"/>
    <linearGradient id="linear-gradient-3" y1="0.5" x2="1" y2="0.5" gradientUnits="objectBoundingBox">
      <stop offset="0" stop-color="#2b3582"/>
      <stop offset="0.51" stop-color="#2b3480"/>
      <stop offset="1" stop-color="#121d57"/>
    </linearGradient>
    <linearGradient id="linear-gradient-4" x1="0.443" y1="1.67" x2="0.516" y2="0.142" gradientUnits="objectBoundingBox">
      <stop offset="0" stop-color="#179587"/>
      <stop offset="1" stop-color="#ee4e5d"/>
    </linearGradient>
    <linearGradient id="linear-gradient-5" x1="-8.941" y1="9.101" x2="-7.818" y2="9.101" gradientUnits="objectBoundingBox">
      <stop offset="0" stop-color="#b37cff"/>
      <stop offset="1" stop-color="#f895e7"/>
    </linearGradient>
    <linearGradient id="linear-gradient-6" x1="-111.949" y1="154.259" x2="-110.987" y2="154.259" xlink:href="#linear-gradient-5"/>
    <linearGradient id="linear-gradient-7" x1="-137.273" y1="130.324" x2="-136.376" y2="130.324" xlink:href="#linear-gradient-5"/>
    <linearGradient id="linear-gradient-8" x1="-7.679" y1="11.023" x2="-6.562" y2="11.023" xlink:href="#linear-gradient-5"/>
    <linearGradient id="linear-gradient-9" x1="-135.606" y1="200.007" x2="-134.647" y2="200.007" xlink:href="#linear-gradient-5"/>
    <linearGradient id="linear-gradient-10" x1="-301.382" y1="207.705" x2="-300.514" y2="207.705" xlink:href="#linear-gradient-5"/>
    <linearGradient id="linear-gradient-11" x1="-19.749" y1="15.316" x2="-18.588" y2="15.316" xlink:href="#linear-gradient-5"/>
    <linearGradient id="linear-gradient-12" x1="-14.835" y1="29.164" x2="-13.762" y2="29.164" xlink:href="#linear-gradient-5"/>
    <linearGradient id="linear-gradient-13" x1="-206.867" y1="301.14" x2="-205.918" y2="301.14" xlink:href="#linear-gradient-5"/>
    <linearGradient id="linear-gradient-14" x1="0.878" y1="-0.071" x2="-1.173" y2="3.028" gradientUnits="objectBoundingBox">
      <stop offset="0" stop-color="#53d8ff"/>
      <stop offset="1" stop-color="#3840f7"/>
    </linearGradient>
    <linearGradient id="linear-gradient-15" x1="0.822" y1="0.039" x2="-3.031" y2="5.179" xlink:href="#linear-gradient-14"/>
    <linearGradient id="linear-gradient-16" x1="0.958" y1="-0.846" x2="-1.041" y2="5.105" xlink:href="#linear-gradient-14"/>
    <linearGradient id="linear-gradient-18" x1="0.822" y1="0.039" x2="-3.031" y2="5.179" xlink:href="#linear-gradient-14"/>
    <linearGradient id="linear-gradient-19" x1="0.958" y1="-0.846" x2="-1.041" y2="5.105" xlink:href="#linear-gradient-14"/>
    <linearGradient id="linear-gradient-23" x1="0.874" y1="-19.552" x2="0.74" y2="4.627" xlink:href="#linear-gradient-14"/>
    <linearGradient id="linear-gradient-24" x1="0.796" y1="-11.413" x2="0.685" y2="4.692" xlink:href="#linear-gradient-14"/>
    <linearGradient id="linear-gradient-25" x1="0.78" y1="-10.147" x2="0.671" y2="5.946" xlink:href="#linear-gradient-14"/>
    <linearGradient id="linear-gradient-26" x1="0.786" y1="-8.968" x2="0.671" y2="7.281" xlink:href="#linear-gradient-14"/>
    <linearGradient id="linear-gradient-27" x1="0.562" y1="0.232" x2="0.512" y2="1.303" gradientUnits="objectBoundingBox">
      <stop offset="0" stop-color="#fdf53f"/>
      <stop offset="1" stop-color="#b9680b"/>
    </linearGradient>
    <linearGradient id="linear-gradient-28" x1="1.003" y1="0.268" x2="1.316" y2="2.187" xlink:href="#linear-gradient"/>
    <linearGradient id="linear-gradient-29" x1="1.078" y1="0.276" x2="1.437" y2="2.187" xlink:href="#linear-gradient"/>
    <linearGradient id="linear-gradient-30" x1="0.595" y1="-0.742" x2="0.352" y2="2.433" xlink:href="#linear-gradient-14"/>
    <linearGradient id="linear-gradient-31" x1="1.024" y1="-7.57" x2="0.085" y2="7.103" xlink:href="#linear-gradient-14"/>
    <linearGradient id="linear-gradient-32" x1="-13.973" y1="-0.346" x2="-13.609" y2="0.297" gradientUnits="objectBoundingBox">
      <stop offset="0" stop-color="#2b3582"/>
      <stop offset="1" stop-color="#150e42"/>
    </linearGradient>
    <linearGradient id="linear-gradient-33" x1="-13.623" y1="-0.969" x2="-13.071" y2="0.108" gradientUnits="objectBoundingBox">
      <stop offset="0" stop-color="#f9b776"/>
      <stop offset="1" stop-color="#f47960"/>
    </linearGradient>
    <linearGradient id="linear-gradient-34" x1="-34.022" y1="1.602" x2="-32.987" y2="-1.187" xlink:href="#linear-gradient-33"/>
    <linearGradient id="linear-gradient-35" x1="-13.055" y1="1.698" x2="-12.592" y2="-1.193" xlink:href="#linear-gradient-33"/>
    <linearGradient id="linear-gradient-36" x1="-45.134" y1="1.857" x2="-44.88" y2="0.807" xlink:href="#linear-gradient-33"/>
    <linearGradient id="linear-gradient-37" x1="-33.077" y1="-1.348" x2="-31.543" y2="-3.602" xlink:href="#linear-gradient-33"/>
    <linearGradient id="linear-gradient-38" x1="-26.707" y1="-2.656" x2="-26.076" y2="-1.253" xlink:href="#linear-gradient-32"/>
    <linearGradient id="linear-gradient-39" x1="-123.553" y1="-5.033" x2="-117.76" y2="-12.174" xlink:href="#linear-gradient-33"/>
    <linearGradient id="linear-gradient-40" x1="-42.166" y1="-1.964" x2="-40.575" y2="1.042" xlink:href="#linear-gradient-33"/>
    <linearGradient id="linear-gradient-41" x1="0" y1="0.5" x2="1" y2="0.5" xlink:href="#linear-gradient-33"/>
    <linearGradient id="linear-gradient-42" x1="-18.715" y1="-7.732" x2="-19.455" y2="-5.27" xlink:href="#linear-gradient-32"/>
    <linearGradient id="linear-gradient-43" x1="-15.213" y1="0.133" x2="-15.611" y2="0.802" xlink:href="#linear-gradient-32"/>
    <linearGradient id="linear-gradient-44" x1="-107.918" y1="-0.758" x2="-109.133" y2="2.193" xlink:href="#linear-gradient-14"/>
    <linearGradient id="linear-gradient-45" x1="-0.799" y1="1.009" x2="1.025" y2="0.359" xlink:href="#linear-gradient-33"/>
  </defs>
  <g id="Grupo_1000268" data-name="Grupo 1000268" transform="translate(-872 -10958.083)">
    <g id="Grupo_898819" data-name="Grupo 898819" transform="translate(409.063 10525.703)">
      <path id="Trazado_648311" data-name="Trazado 648311" d="M810.849,816.193a142.142,142.142,0,0,1-21.768,18.261c-71.01,50.766-155.034,35.968-172.891,32.354-26.37-5.336-77.342-15.652-114.194-58.831-55.754-65.328-47.072-168.249-3.826-236.189,7.91-12.427,49.7-81.4,134.624-92.464,51.4-6.694,111.311,6.807,154.7,43.026C878.569,598.374,872.085,751.959,810.849,816.193Z" transform="translate(0 -38.844)" fill="#e8e8e8" opacity="0.3"/>
      <g id="Grupo_898767" data-name="Grupo 898767" transform="translate(465.072 457.609)" opacity="0.56">
        <path id="Trazado_648312" data-name="Trazado 648312" d="M480.9,610.545a1.074,1.074,0,0,1,2.075-.19c3.527,10.2,13.612,36.667,27.519,50.2,22.643,22.04,39.036,59.037,26.58,79.442C537.075,740,462.356,730.786,480.9,610.545Z" transform="translate(-477.943 -609.635)" fill="url(#linear-gradient)"/>
        <path id="Trazado_648313" data-name="Trazado 648313" d="M519.525,717.737c.047.246.122.553.188.837l.215.865.449,1.728.932,3.449q.959,3.442,2,6.862,2.054,6.844,4.356,13.609c3.1,9.006,6.433,17.932,10.242,26.656,1.923,4.352,3.864,8.7,5.986,12.956s4.342,8.466,6.724,12.581a151.241,151.241,0,0,0,16.3,23.367.213.213,0,0,1-.02.3.215.215,0,0,1-.3-.015,123.324,123.324,0,0,1-9.108-11.076c-2.81-3.874-5.392-7.906-7.865-12a228.288,228.288,0,0,1-12.9-25.6c-1.9-4.387-3.652-8.834-5.341-13.3s-3.276-8.977-4.735-13.526-2.866-9.113-4.138-13.716q-.947-3.454-1.823-6.927c-.287-1.159-.573-2.318-.842-3.482l-.39-1.749-.186-.878c-.057-.3-.121-.572-.167-.916a.211.211,0,0,1,.415-.068Z" transform="translate(-513.241 -702.163)" fill="#fff" opacity="0.43"/>
      </g>
      <g id="Grupo_898768" data-name="Grupo 898768" transform="translate(503.751 435.599)" opacity="0.75">
        <path id="Trazado_648314" data-name="Trazado 648314" d="M754.223,456.788a2.075,2.075,0,0,1,3.343-1.339c19.259,15.195,127.727,108.194,58.741,225.655C816.306,681.1,729.137,638.26,754.223,456.788Z" transform="translate(-749.688 -455)" fill="url(#linear-gradient-2)"/>
        <path id="Trazado_648315" data-name="Trazado 648315" d="M845.723,624.006a.36.36,0,0,1,.487.143c3.773,6.875,7.4,13.82,10.968,20.8s7.048,14,10.45,21.06c6.8,14.121,13.293,28.4,19.338,42.864s11.653,29.128,16.46,44.07q3.64,11.193,6.452,22.648a198.024,198.024,0,0,1,4.353,23.181.85.85,0,0,1-1.688.2v-.008a196.455,196.455,0,0,0-4.2-23.006q-2.725-11.392-6.305-22.576c-4.712-14.914-10.243-29.571-16.191-44.048s-12.368-28.768-19.091-42.911q-5.042-10.607-10.331-21.1c-3.528-6.989-7.118-13.952-10.847-20.831l0,0A.36.36,0,0,1,845.723,624.006Z" transform="translate(-831.893 -599.914)" fill="#fff" opacity="0.86"/>
      </g>
      <g id="Grupo_898769" data-name="Grupo 898769" transform="translate(464.194 509.946)">
        <path id="Trazado_648316" data-name="Trazado 648316" d="M471.776,998.908v193.411c0,15.911,11.44,28.922,25.79,29.332,63.738,1.822,286.663,6.239,347.337,5.247,10.428-.17,18.876-9.419,19.177-20.974,1.17-44.932,3.07-152.978-3.962-203.14-1.481-10.564-9.526-18.463-19.166-18.8-53.4-1.894-289.719-7.906-350.365-6.4C480.128,977.844,471.776,987.313,471.776,998.908Z" transform="translate(-471.776 -977.343)" fill="url(#linear-gradient-3)"/>
        <path id="Trazado_648317" data-name="Trazado 648317" d="M548.707,1043.246V1227c0,9.29,6.728,16.859,15.109,17l338.34,4.633c8.309.138,15.119-7.271,15.15-16.481l.566-182.112c.022-6.585-4.712-11.981-10.651-12.141l-346.4-7.756C554.18,1029.961,548.707,1035.881,548.707,1043.246Z" transform="translate(-537.757 -1022.622)" fill="url(#linear-gradient-4)"/>
        <path id="Trazado_648318" data-name="Trazado 648318" d="M917.02,2569.881h-.009l-371.146-7.009a.47.47,0,0,1-.461-.479.479.479,0,0,1,.479-.461l371.146,7.009a.47.47,0,0,1-.009.94Z" transform="translate(-534.924 -2336.392)" fill="#fff" opacity="0.65"/>
      </g>
      <rect id="Rectángulo_301867" data-name="Rectángulo 301867" width="34.877" height="0.47" transform="translate(655.129 575.824) rotate(-4.535)" fill="#fff"/>
      <path id="Trazado_648319" data-name="Trazado 648319" d="M1453.813,1608.654l-.468-.043,3.307-35.873a3.265,3.265,0,0,0-3.251-3.565h-55.794a3.269,3.269,0,0,0-3.265,3.266v11.139h-.47v-11.139a3.74,3.74,0,0,1,3.736-3.735H1453.4a3.736,3.736,0,0,1,3.72,4.078Z" transform="translate(-798.431 -974.586)" fill="#fff"/>
      <g id="Grupo_898770" data-name="Grupo 898770" transform="translate(591.328 560.269)">
        <path id="Trazado_648320" data-name="Trazado 648320" d="M1489.481,1533.986a68.952,68.952,0,1,1,68.952-68.952A69.03,69.03,0,0,1,1489.481,1533.986Zm0-130.382a61.431,61.431,0,1,0,61.431,61.43A61.5,61.5,0,0,0,1489.481,1403.6Z" transform="translate(-1412.624 -1386.804)" fill="#fff"/>
        <path id="Trazado_648321" data-name="Trazado 648321" d="M1675.557,1689.181a38.072,38.072,0,1,1,38.072-38.072A38.115,38.115,0,0,1,1675.557,1689.181Zm0-68.622a30.551,30.551,0,1,0,30.55,30.55A30.585,30.585,0,0,0,1675.557,1620.559Z" transform="translate(-1598.7 -1572.88)" fill="#fff"/>
        <circle id="Elipse_5591" data-name="Elipse 5591" cx="15.783" cy="15.783" r="15.783" transform="translate(61.074 62.446)" fill="#fff"/>
        <path id="Trazado_648322" data-name="Trazado 648322" d="M1890.245,1343.709h-7.777v-8.921a3.889,3.889,0,0,1,3.889-3.889h0a3.889,3.889,0,0,1,3.889,3.889Z" transform="translate(-1808.813 -1330.9)" fill="#fff"/>
        <path id="Trazado_648323" data-name="Trazado 648323" d="M1377.8,1848.379v7.777h-8.921a3.888,3.888,0,0,1-3.888-3.888h0a3.888,3.888,0,0,1,3.888-3.889Z" transform="translate(-1364.989 -1774.725)" fill="#fff"/>
        <path id="Trazado_648324" data-name="Trazado 648324" d="M2364.591,1856.156v-7.777h8.921a3.889,3.889,0,0,1,3.889,3.889h0a3.889,3.889,0,0,1-3.889,3.888Z" transform="translate(-2222.314 -1774.725)" fill="#fff"/>
      </g>
      <g id="Grupo_898779" data-name="Grupo 898779" transform="translate(492.177 449.157)">
        <g id="Grupo_898774" data-name="Grupo 898774" transform="translate(0 33.84)">
          <g id="Grupo_898771" data-name="Grupo 898771" transform="translate(42.215 53.165)" opacity="0.3">
            <path id="Trazado_648325" data-name="Trazado 648325" d="M1142.491,1161.553a1.878,1.878,0,0,1,2.124,1.34c.576,2.041,1.072,4.137,1.475,6.231a1.878,1.878,0,0,1-1.489,2.2l-.036.006a1.877,1.877,0,0,1-2.162-1.5c-.382-1.989-.853-3.98-1.4-5.919a1.877,1.877,0,0,1,1.49-2.361Zm2.66,16.139a1.9,1.9,0,0,1,.222-.025,1.878,1.878,0,0,1,1.975,1.775c.113,2.127.135,4.28.068,6.4a1.878,1.878,0,1,1-3.753-.119c.064-2.014.042-4.059-.065-6.08A1.878,1.878,0,0,1,1145.151,1177.692Zm-.959,16.323a1.878,1.878,0,0,1,2.169,2.171c-.362,2.094-.821,4.2-1.362,6.256a1.878,1.878,0,0,1-3.631-.956c.514-1.953.949-3.951,1.293-5.94A1.879,1.879,0,0,1,1144.192,1194.015Zm-4.586,15.7a1.878,1.878,0,0,1,2.049,2.577c-.823,1.962-1.74,3.911-2.726,5.794a1.878,1.878,0,1,1-3.326-1.742c.937-1.788,1.808-3.64,2.589-5.5A1.876,1.876,0,0,1,1139.606,1209.718ZM1131.634,1224a1.878,1.878,0,0,1,1.846,2.942c-1.234,1.726-2.56,3.423-3.94,5.044a1.877,1.877,0,1,1-2.859-2.434c1.312-1.541,2.572-3.154,3.745-4.794A1.872,1.872,0,0,1,1131.634,1224Zm-10.933,12.165a1.878,1.878,0,0,1,1.569,3.253c-1.588,1.412-3.256,2.775-4.958,4.048a1.878,1.878,0,0,1-2.249-3.007c1.618-1.21,3.2-2.5,4.711-3.846A1.864,1.864,0,0,1,1120.7,1236.167Zm-67.039,16.1a1.87,1.87,0,0,1,.793.035c1.952.51,3.952.942,5.945,1.283a1.877,1.877,0,0,1-.634,3.7c-2.1-.359-4.206-.814-6.261-1.351a1.878,1.878,0,0,1,.157-3.668Zm53.691-6.664a1.878,1.878,0,0,1,1.224,3.5c-1.862,1.024-3.792,1.98-5.735,2.841a1.878,1.878,0,1,1-1.521-3.433c1.846-.817,3.678-1.725,5.446-2.7A1.88,1.88,0,0,1,1107.352,1245.6Zm-37.5,8.991a1.9,1.9,0,0,1,.377-.027c2.018.061,4.065.034,6.084-.077a1.878,1.878,0,1,1,.206,3.749c-2.125.116-4.279.144-6.4.081a1.878,1.878,0,0,1-.265-3.727Zm22.38-2.776a1.878,1.878,0,0,1,.83,3.657c-2.042.581-4.137,1.081-6.226,1.486l-.039.008a1.877,1.877,0,0,1-.676-3.693c1.984-.385,3.974-.861,5.914-1.413C1092.1,1251.842,1092.166,1251.827,1092.231,1251.816Z" transform="translate(-1039.7 -1161.526)" fill="url(#linear-gradient-5)"/>
            <path id="Trazado_648326" data-name="Trazado 648326" d="M966.528,1767.435a1.866,1.866,0,0,1,1.112.149c.877.41,1.777.808,2.676,1.184a1.877,1.877,0,1,1-1.449,3.464c-.945-.4-1.892-.814-2.815-1.245a1.878,1.878,0,0,1,.477-3.552Z" transform="translate(-964.968 -1681.17)" fill="url(#linear-gradient-6)"/>
          </g>
          <g id="Grupo_898772" data-name="Grupo 898772" opacity="0.3">
            <path id="Trazado_648327" data-name="Trazado 648327" d="M697.509,1468.491a1.878,1.878,0,0,1,2.094,1.243c.313.916.651,1.841,1,2.748a1.878,1.878,0,1,1-3.5,1.361c-.371-.955-.727-1.929-1.057-2.894a1.877,1.877,0,0,1,1.46-2.458Z" transform="translate(-692.024 -1371.611)" fill="url(#linear-gradient-7)"/>
            <path id="Trazado_648328" data-name="Trazado 648328" d="M730.532,789.108q1.277-.22,2.571-.4a1.878,1.878,0,0,1,.514,3.721c-1.991.275-3.966.63-5.892,1.06a1.878,1.878,0,0,1-.819-3.665C728.1,789.559,729.317,789.318,730.532,789.108Zm12.46-1.079a1.888,1.888,0,0,1,.319-.027c2.095,0,4.213.082,6.3.255A1.877,1.877,0,1,1,749.3,792c-1.978-.163-3.99-.244-5.981-.242a1.877,1.877,0,0,1-.324-3.727Zm-25.557,4.614a1.878,1.878,0,0,1,.973,3.61c-1.859.693-3.713,1.474-5.511,2.325a1.878,1.878,0,1,1-1.6-3.4c1.894-.9,3.847-1.719,5.8-2.449A1.9,1.9,0,0,1,717.436,792.643ZM759,789.778a1.881,1.881,0,0,1,.728.019c2.043.457,4.09,1.006,6.086,1.633a1.877,1.877,0,0,1-1.126,3.582c-1.895-.6-3.839-1.117-5.779-1.551a1.878,1.878,0,0,1,.091-3.683ZM703.078,799.9a1.878,1.878,0,0,1,1.347,3.423c-1.66,1.084-3.3,2.255-4.865,3.48a1.877,1.877,0,1,1-2.311-2.959c1.651-1.29,3.374-2.522,5.122-3.664A1.869,1.869,0,0,1,703.078,799.9Zm-12.419,10.229a1.877,1.877,0,0,1,1.666,3.159c-1.387,1.426-2.729,2.926-3.991,4.459a1.878,1.878,0,1,1-2.9-2.385c1.328-1.614,2.741-3.193,4.2-4.693A1.868,1.868,0,0,1,690.659,810.127Zm-9.893,12.693a1.878,1.878,0,0,1,1.917,2.835c-1.044,1.695-2.029,3.451-2.925,5.222a1.878,1.878,0,0,1-3.35-1.7c.944-1.863,1.979-3.713,3.078-5.5A1.873,1.873,0,0,1,680.766,822.82Zm-6.889,14.548a1.878,1.878,0,0,1,2.092,2.462c-.648,1.881-1.223,3.81-1.709,5.735a1.877,1.877,0,1,1-3.641-.919c.512-2.028,1.117-4.06,1.8-6.039A1.877,1.877,0,0,1,673.877,837.368Zm-3.528,15.711a1.88,1.88,0,0,1,2.186,2.056c-.217,1.972-.353,3.98-.4,5.968a1.878,1.878,0,1,1-3.754-.1c.053-2.093.2-4.207.424-6.283A1.879,1.879,0,0,1,670.349,853.079Zm.009,16.092c.038-.007.076-.012.115-.016a1.877,1.877,0,0,1,2.072,1.66c.16,1.455.368,2.922.616,4.362q.135.782.286,1.557a1.877,1.877,0,0,1-1.484,2.2,1.857,1.857,0,0,1-2.2-1.483q-.159-.816-.3-1.637c-.261-1.514-.479-3.058-.648-4.588A1.877,1.877,0,0,1,670.358,869.17Z" transform="translate(-668.378 -788.001)" fill="url(#linear-gradient-8)"/>
            <path id="Trazado_648329" data-name="Trazado 648329" d="M1402.9,837.209a1.871,1.871,0,0,1,1.12.153c.919.435,1.846.9,2.755,1.374a1.878,1.878,0,0,1-1.744,3.325c-.864-.453-1.745-.892-2.617-1.305a1.877,1.877,0,0,1,.485-3.547Z" transform="translate(-1297.016 -830.181)" fill="url(#linear-gradient-9)"/>
          </g>
          <g id="Grupo_898773" data-name="Grupo 898773" transform="translate(18.462 19.012)">
            <path id="Trazado_648330" data-name="Trazado 648330" d="M886.713,931.481a.878.878,0,0,0-1.014-.1l-9.252,5.336a46.524,46.524,0,0,0-14.293-4.787l-4.175-9.823a.877.877,0,0,0-.869-.532l-12.78.894a.878.878,0,0,0-.786.648l-2.767,10.309a46.522,46.522,0,0,0-13.487,6.731l-9.9-4a.878.878,0,0,0-.99.238l-8.4,9.669a.877.877,0,0,0-.1,1.014l5.336,9.252a46.528,46.528,0,0,0-4.787,14.293l-9.823,4.175a.878.878,0,0,0-.532.869l.894,12.78a.877.877,0,0,0,.648.786L809.938,992a46.513,46.513,0,0,0,6.73,13.487l-4,9.9a.878.878,0,0,0,.238.99l9.669,8.4a.877.877,0,0,0,1.014.1l9.251-5.336a46.52,46.52,0,0,0,14.293,4.787l4.175,9.823a.878.878,0,0,0,.869.532l12.78-.894a.877.877,0,0,0,.786-.648l2.767-10.309A46.513,46.513,0,0,0,882,1016.113l9.9,4a.877.877,0,0,0,.991-.238l8.4-9.669a.878.878,0,0,0,.1-1.014l-5.336-9.252a46.522,46.522,0,0,0,4.787-14.293l9.823-4.175a.877.877,0,0,0,.532-.869l-.894-12.78a.878.878,0,0,0-.648-.786l-10.308-2.767a46.528,46.528,0,0,0-6.731-13.487l4-9.9a.878.878,0,0,0-.238-.991Z" transform="translate(-798.085 -921.575)" fill="#179587"/>
            <path id="Trazado_648331" data-name="Trazado 648331" d="M1115.686,1228.663a12.883,12.883,0,1,1-1.835.457A12.9,12.9,0,0,1,1115.686,1228.663Zm3.838,22.427a10.028,10.028,0,0,0,1.421-.354,9.839,9.839,0,1,0-1.421.354Z" transform="translate(-1061.306 -1184.795)" fill="#fff" opacity="0.56"/>
            <path id="Trazado_648332" data-name="Trazado 648332" d="M998.089,1098.5a32.288,32.288,0,0,1,3.23-.39h0q.515-.036,1.031-.056a31.86,31.86,0,0,1,5.066.212l.068.008.194.025c.126.016.252.034.377.052a.751.751,0,1,1-.213,1.487,30.2,30.2,0,0,0-30.832,15.505,29.977,29.977,0,0,0-3.57,16.457,30.584,30.584,0,0,0,.372,3.082,30.163,30.163,0,0,0,59.8-7.291,30.169,30.169,0,0,0-5.344-15.152.751.751,0,1,1,1.232-.86,31.573,31.573,0,0,1,5.225,12.713,31.669,31.669,0,0,1-28.99,36.989,31.672,31.672,0,0,1-33.4-26.142,32.373,32.373,0,0,1-.391-3.235,31.67,31.67,0,0,1,26.147-33.406Z" transform="translate(-947.129 -1072.918)" fill="#fff" opacity="0.56"/>
          </g>
        </g>
        <g id="Grupo_898778" data-name="Grupo 898778" transform="translate(108.008)">
          <g id="Grupo_898775" data-name="Grupo 898775" transform="translate(46.562 27.368)" opacity="0.3">
            <path id="Trazado_648333" data-name="Trazado 648333" d="M2065.869,742.546a1.159,1.159,0,0,1,1.237.632c.434.884.847,1.793,1.228,2.7a1.16,1.16,0,0,1-2.14.9c-.363-.866-.756-1.732-1.17-2.576a1.16,1.16,0,0,1,.53-1.552A1.187,1.187,0,0,1,2065.869,742.546Z" transform="translate(-2020.704 -742.529)" fill="url(#linear-gradient-10)"/>
            <path id="Trazado_648334" data-name="Trazado 648334" d="M1802.7,801.1a1.159,1.159,0,0,1,1.312.831,50.343,50.343,0,0,1,1.122,4.977q.091.527.171,1.06a1.2,1.2,0,0,1-.974,1.321,1.16,1.16,0,0,1-1.32-.973q-.077-.509-.163-1.013a48.19,48.19,0,0,0-1.069-4.747,1.16,1.16,0,0,1,.8-1.429C1802.621,801.119,1802.66,801.11,1802.7,801.1Zm1.795,11.906a1.209,1.209,0,0,1,.166-.017,1.16,1.16,0,0,1,1.192,1.127,50.3,50.3,0,0,1-.206,6.169,1.16,1.16,0,0,1-2.309-.22,48.033,48.033,0,0,0,.2-5.885A1.159,1.159,0,0,1,1804.493,813.01ZM1803.347,825a1.159,1.159,0,0,1,1.328,1.4,50.05,50.05,0,0,1-1.717,5.933,1.16,1.16,0,0,1-2.184-.782,47.588,47.588,0,0,0,1.637-5.657A1.161,1.161,0,0,1,1803.347,825Zm-4.058,11.338a1.159,1.159,0,0,1,1.231,1.665,50.238,50.238,0,0,1-3.116,5.331,1.16,1.16,0,0,1-1.926-1.293,47.824,47.824,0,0,0,2.971-5.083A1.157,1.157,0,0,1,1799.289,836.333Zm-6.7,10a1.16,1.16,0,0,1,1.075,1.9,50.725,50.725,0,0,1-4.315,4.411,1.16,1.16,0,0,1-1.556-1.72,48.288,48.288,0,0,0,4.117-4.209A1.157,1.157,0,0,1,1792.586,846.336Zm-8.927,8.071a1.16,1.16,0,0,1,.864,2.092,49.9,49.9,0,0,1-5.26,3.225,1.16,1.16,0,0,1-1.088-2.049,47.553,47.553,0,0,0,5.015-3.075A1.153,1.153,0,0,1,1783.659,854.407Zm-10.627,5.642a1.16,1.16,0,0,1,.609,2.227,50.273,50.273,0,0,1-5.893,1.837,1.16,1.16,0,0,1-.553-2.254,47.629,47.629,0,0,0,5.621-1.751A1.163,1.163,0,0,1,1773.032,860.049Zm-17.717,3.2a1.144,1.144,0,0,1,.2-.017,48.075,48.075,0,0,0,5.115-.25c.258-.025.511-.052.764-.083a1.16,1.16,0,0,1,.276,2.3c-.269.031-.538.062-.809.088a50.466,50.466,0,0,1-5.357.261,1.159,1.159,0,0,1-.193-2.3Z" transform="translate(-1754.354 -792.752)" fill="url(#linear-gradient-11)"/>
          </g>
          <g id="Grupo_898776" data-name="Grupo 898776" opacity="0.3">
            <path id="Trazado_648335" data-name="Trazado 648335" d="M1466.027,551.1a1.16,1.16,0,0,1,.409,2.283,47.987,47.987,0,0,0-5.618,1.4,1.16,1.16,0,0,1-.7-2.213,50.551,50.551,0,0,1,5.89-1.468Zm5.887-.731a1.215,1.215,0,0,1,.125-.015,50.758,50.758,0,0,1,6.072-.023,1.16,1.16,0,0,1-.13,2.316,48.473,48.473,0,0,0-5.794.021,1.16,1.16,0,0,1-.273-2.3Zm-17.181,4.288a1.159,1.159,0,0,1,.678,2.2,48.082,48.082,0,0,0-5.115,2.719,1.16,1.16,0,0,1-1.21-1.979,50.346,50.346,0,0,1,5.363-2.849A1.161,1.161,0,0,1,1454.733,554.655Zm29.009-3.614a1.163,1.163,0,0,1,.4,0,49.69,49.69,0,0,1,5.9,1.445,1.159,1.159,0,1,1-.688,2.215,47.626,47.626,0,0,0-5.627-1.377,1.16,1.16,0,0,1,.01-2.284Zm-39.107,9.794a1.16,1.16,0,0,1,.919,2.051,47.748,47.748,0,0,0-4.31,3.867,1.16,1.16,0,0,1-1.651-1.63,50.491,50.491,0,0,1,4.519-4.055A1.158,1.158,0,0,1,1444.635,560.836Zm-8.321,8.423a1.16,1.16,0,0,1,1.115,1.852,48.469,48.469,0,0,0-3.262,4.787,1.159,1.159,0,0,1-1.992-1.187,50.667,50.667,0,0,1,3.419-5.019A1.155,1.155,0,0,1,1436.314,569.259Zm-6.064,10.175a1.147,1.147,0,0,1,.665.083,1.159,1.159,0,0,1,.592,1.53,47.462,47.462,0,0,0-2.018,5.43,1.16,1.16,0,0,1-2.219-.674,50.147,50.147,0,0,1,2.116-5.695A1.16,1.16,0,0,1,1430.25,579.434Z" transform="translate(-1427.219 -550.25)" fill="url(#linear-gradient-12)"/>
            <path id="Trazado_648336" data-name="Trazado 648336" d="M1898.368,580.545a1.155,1.155,0,0,1,.673.086c.9.408,1.8.845,2.665,1.3a1.16,1.16,0,1,1-1.078,2.054c-.824-.433-1.679-.849-2.542-1.239a1.16,1.16,0,0,1,.281-2.2Z" transform="translate(-1830.481 -576.218)" fill="url(#linear-gradient-13)"/>
          </g>
          <g id="Grupo_898777" data-name="Grupo 898777" transform="translate(10.177 12.624)">
            <path id="Trazado_648337" data-name="Trazado 648337" d="M1558.026,645.573a.588.588,0,0,0-.679-.065l-6.191,3.571a31.128,31.128,0,0,0-9.564-3.2L1538.8,639.3a.587.587,0,0,0-.581-.356l-8.552.6a.588.588,0,0,0-.526.434l-1.851,6.9a31.132,31.132,0,0,0-9.025,4.5l-6.628-2.674a.587.587,0,0,0-.663.159l-5.624,6.47a.587.587,0,0,0-.065.679l3.571,6.191a31.134,31.134,0,0,0-3.2,9.564l-6.573,2.794a.587.587,0,0,0-.356.581l.6,8.552a.587.587,0,0,0,.433.526l6.9,1.852a31.125,31.125,0,0,0,4.5,9.025l-2.674,6.628a.588.588,0,0,0,.159.663l6.47,5.624a.588.588,0,0,0,.679.065l6.191-3.571a31.125,31.125,0,0,0,9.564,3.2l2.794,6.573a.587.587,0,0,0,.581.356l8.552-.6a.587.587,0,0,0,.526-.433l1.851-6.9a31.127,31.127,0,0,0,9.025-4.5l6.627,2.674a.587.587,0,0,0,.663-.159l5.624-6.47a.587.587,0,0,0,.066-.679l-3.571-6.191a31.124,31.124,0,0,0,3.2-9.564l6.573-2.794a.587.587,0,0,0,.356-.581l-.6-8.552a.587.587,0,0,0-.434-.526l-6.9-1.852a31.136,31.136,0,0,0-4.5-9.025l2.674-6.628a.587.587,0,0,0-.159-.663Z" transform="translate(-1498.72 -638.944)" fill="#222b5a"/>
            <path id="Trazado_648338" data-name="Trazado 648338" d="M1710.274,843.326a8.793,8.793,0,1,1-1.262.314A8.924,8.924,0,0,1,1710.274,843.326Zm2.566,15.008a6.549,6.549,0,0,0,.92-.229,6.453,6.453,0,0,0-4.025-12.262h0a6.453,6.453,0,0,0,3.105,12.49Z" transform="translate(-1673.899 -814.126)" fill="#fff" opacity="0.56"/>
            <path id="Trazado_648339" data-name="Trazado 648339" d="M1628.508,752.726q1.085-.187,2.205-.266a21.961,21.961,0,0,1,4.449.139l.2.028a1.159,1.159,0,1,1-.329,2.3,19.6,19.6,0,0,0-4.155-.149h0l-.228.018a19.337,19.337,0,0,0-9.053,3.079,19.635,19.635,0,0,0-3.977,3.438l-.029.032-.088.1a19.4,19.4,0,0,0-4.742,14.172,19.814,19.814,0,0,0,.241,1.995,19.527,19.527,0,1,0,35.255-14.528,1.16,1.16,0,0,1,.286-1.615,1.161,1.161,0,0,1,1.615.287,21.791,21.791,0,0,1,3.605,8.77,22.013,22.013,0,0,1,.267,2.2,21.846,21.846,0,0,1-43.314,5.281,22.3,22.3,0,0,1-.27-2.231A21.877,21.877,0,0,1,1628.508,752.726Z" transform="translate(-1594.497 -736.256)" fill="#fff" opacity="0.56"/>
          </g>
        </g>
      </g>
      <g id="Grupo_898783" data-name="Grupo 898783" transform="translate(736.613 623.188)">
        <g id="Grupo_898780" data-name="Grupo 898780" transform="translate(26.224 0)">
          <circle id="Elipse_5592" data-name="Elipse 5592" cx="25.708" cy="25.708" r="25.708" transform="translate(0 36.357) rotate(-45)" fill="url(#linear-gradient-14)"/>
          <path id="Trazado_648340" data-name="Trazado 648340" d="M2656.02,1999.175h-.025a.478.478,0,0,1-.453-.5,24.34,24.34,0,0,1,.352-3.041.478.478,0,1,1,.941.17,23.394,23.394,0,0,0-.338,2.921A.478.478,0,0,1,2656.02,1999.175Z" transform="translate(-2643.361 -1963.599)" fill="#fff"/>
          <path id="Trazado_648341" data-name="Trazado 648341" d="M2673.583,1872.3a.478.478,0,0,1-.427-.694,24.108,24.108,0,0,1,21.626-13.315,24.4,24.4,0,0,1,4.367.393.478.478,0,1,1-.171.941,23.462,23.462,0,0,0-4.2-.377,23.157,23.157,0,0,0-20.772,12.79A.478.478,0,0,1,2673.583,1872.3Z" transform="translate(-2658.425 -1846.146)" fill="#fff"/>
          <circle id="Elipse_5593" data-name="Elipse 5593" cx="21.759" cy="21.759" r="21.759" transform="translate(15.158 15.158)" fill="#fff" opacity="0.78"/>
          <path id="Trazado_648342" data-name="Trazado 648342" d="M2795.748,1936.606c0,3.684-2.987,7.662-6.671,7.662s-6.671-3.978-6.671-7.662a6.682,6.682,0,0,1,13.342,0Z" transform="translate(-2752.169 -1907.911)" fill="url(#linear-gradient-15)"/>
          <path id="Trazado_648343" data-name="Trazado 648343" d="M2743.282,2055.39h16.285a3.942,3.942,0,0,0,3.754-2.741l.876-2.739a3.938,3.938,0,0,0-2.379-4.9c-6.628-2.423-13.481-2.112-20.5.224a3.925,3.925,0,0,0-2.515,4.758l.675,2.488A3.942,3.942,0,0,0,2743.282,2055.39Z" transform="translate(-2714.653 -2004.848)" fill="url(#linear-gradient-16)"/>
        </g>
        <g id="Grupo_898781" data-name="Grupo 898781" transform="translate(0 44.505)">
          <circle id="Elipse_5594" data-name="Elipse 5594" cx="25.708" cy="25.708" r="25.708" transform="translate(0 36.357) rotate(-45)" fill="url(#linear-gradient-14)"/>
          <path id="Trazado_648344" data-name="Trazado 648344" d="M2471.778,2311.852h-.025a.479.479,0,0,1-.452-.5,24.378,24.378,0,0,1,.352-3.041.478.478,0,0,1,.942.17,23.465,23.465,0,0,0-.338,2.921A.478.478,0,0,1,2471.778,2311.852Z" transform="translate(-2459.119 -2276.276)" fill="#fff"/>
          <path id="Trazado_648345" data-name="Trazado 648345" d="M2489.341,2184.987a.478.478,0,0,1-.427-.694,24.108,24.108,0,0,1,21.626-13.315,24.418,24.418,0,0,1,4.367.393.478.478,0,1,1-.171.941,23.484,23.484,0,0,0-4.2-.377,23.157,23.157,0,0,0-20.772,12.789A.478.478,0,0,1,2489.341,2184.987Z" transform="translate(-2474.183 -2158.831)" fill="#fff"/>
          <circle id="Elipse_5595" data-name="Elipse 5595" cx="21.759" cy="21.759" r="21.759" transform="translate(15.158 15.158)" fill="#fff" opacity="0.78"/>
          <path id="Trazado_648346" data-name="Trazado 648346" d="M2611.505,2249.288c0,3.684-2.987,7.662-6.671,7.662s-6.671-3.978-6.671-7.662a6.682,6.682,0,0,1,13.342,0Z" transform="translate(-2567.926 -2220.593)" fill="url(#linear-gradient-18)"/>
          <path id="Trazado_648347" data-name="Trazado 648347" d="M2559.04,2368.073h16.285a3.942,3.942,0,0,0,3.754-2.74l.876-2.739a3.938,3.938,0,0,0-2.379-4.9c-6.627-2.423-13.48-2.113-20.5.223a3.926,3.926,0,0,0-2.516,4.759l.675,2.487A3.942,3.942,0,0,0,2559.04,2368.073Z" transform="translate(-2530.411 -2317.531)" fill="url(#linear-gradient-19)"/>
        </g>
        <g id="Grupo_898782" data-name="Grupo 898782" transform="translate(52.312 44.505)">
          <circle id="Elipse_5596" data-name="Elipse 5596" cx="25.708" cy="25.708" r="25.708" transform="translate(0 36.357) rotate(-45)" fill="url(#linear-gradient-14)"/>
          <path id="Trazado_648348" data-name="Trazado 648348" d="M2839.311,2311.852h-.025a.479.479,0,0,1-.453-.5,24.345,24.345,0,0,1,.352-3.041.478.478,0,1,1,.941.17,23.43,23.43,0,0,0-.338,2.921A.478.478,0,0,1,2839.311,2311.852Z" transform="translate(-2826.652 -2276.276)" fill="#fff"/>
          <path id="Trazado_648349" data-name="Trazado 648349" d="M2856.874,2184.987a.472.472,0,0,1-.215-.052.478.478,0,0,1-.211-.642,24.108,24.108,0,0,1,21.625-13.315,24.418,24.418,0,0,1,4.367.393.478.478,0,1,1-.171.941,23.48,23.48,0,0,0-4.2-.377,23.158,23.158,0,0,0-20.772,12.789A.477.477,0,0,1,2856.874,2184.987Z" transform="translate(-2841.716 -2158.831)" fill="#fff"/>
          <circle id="Elipse_5597" data-name="Elipse 5597" cx="21.759" cy="21.759" r="21.759" transform="translate(15.158 15.158)" fill="#fff" opacity="0.78"/>
          <path id="Trazado_648350" data-name="Trazado 648350" d="M2979.038,2249.288c0,3.684-2.987,7.662-6.671,7.662s-6.671-3.978-6.671-7.662a6.682,6.682,0,0,1,13.342,0Z" transform="translate(-2935.459 -2220.593)" fill="url(#linear-gradient-18)"/>
          <path id="Trazado_648351" data-name="Trazado 648351" d="M2926.573,2368.073h16.285a3.942,3.942,0,0,0,3.754-2.74l.876-2.739a3.938,3.938,0,0,0-2.379-4.9c-6.627-2.423-13.48-2.113-20.5.223a3.926,3.926,0,0,0-2.516,4.759l.675,2.487A3.942,3.942,0,0,0,2926.573,2368.073Z" transform="translate(-2897.944 -2317.531)" fill="url(#linear-gradient-19)"/>
        </g>
      </g>
      <g id="Grupo_898785" data-name="Grupo 898785" transform="translate(587.783 526.357)">
        <path id="Trazado_648352" data-name="Trazado 648352" d="M1803.864,2681.206c-.105-1.555-1.675-2.921-4.348-4.033,2.941-1.573,4.579-3.278,4.464-4.973-.347-5.128-16.532-8.208-36.151-6.88s-35.241,6.562-34.894,11.689c.105,1.555,1.675,2.92,4.349,4.033-2.941,1.573-4.579,3.278-4.464,4.973.105,1.555,1.675,2.92,4.349,4.033-2.941,1.573-4.579,3.278-4.464,4.973.105,1.555,1.675,2.921,4.348,4.033-2.941,1.573-4.579,3.278-4.464,4.973.154,2.268,3.409,4.134,8.685,5.4a45.391,45.391,0,0,0,.063,5.537c.645,9.449,11.167,16.987,25.21,17.167s26.327-9.754,26.587-19.221a47.712,47.712,0,0,0-.2-6.182c6.748-2.157,10.875-4.845,10.7-7.507-.105-1.555-1.675-2.921-4.348-4.033,2.941-1.573,4.579-3.278,4.464-4.973-.105-1.555-1.675-2.921-4.348-4.033C1802.341,2684.606,1803.979,2682.9,1803.864,2681.206Z" transform="translate(-1676.716 -2441.21)" fill="#222b5a"/>
        <g id="Grupo_898784" data-name="Grupo 898784" transform="translate(61.274 236.41)">
          <path id="Trazado_648353" data-name="Trazado 648353" d="M1816.458,2964.417a84.718,84.718,0,0,1-15.53-1.471.471.471,0,1,1,.188-.922c6.869,1.407,16.061,1.816,25.885,1.151a111.322,111.322,0,0,0,21.766-3.466.471.471,0,1,1,.252.907,112.284,112.284,0,0,1-21.954,3.5C1823.416,2964.361,1819.852,2964.461,1816.458,2964.417Z" transform="translate(-1796.284 -2930.358)" fill="url(#linear-gradient-23)"/>
          <path id="Trazado_648354" data-name="Trazado 648354" d="M1796.927,2886.79c-7.562-.1-14.311-.9-19.061-2.314a.471.471,0,1,1,.27-.9c6.767,2.021,17.7,2.762,29.237,1.981,11.415-.773,22.08-2.95,28.528-5.824a.471.471,0,1,1,.383.86c-6.544,2.917-17.328,5.124-28.847,5.9C1803.842,2886.737,1800.3,2886.833,1796.927,2886.79Z" transform="translate(-1776.54 -2861.743)" fill="url(#linear-gradient-24)"/>
          <path id="Trazado_648355" data-name="Trazado 648355" d="M1790.978,2823.521c-8.165-.1-15.3-1.032-20.089-2.68a.471.471,0,0,1,.306-.89c6.664,2.293,18,3.163,30.325,2.329,11.414-.772,22.079-2.95,28.528-5.824a.471.471,0,1,1,.383.86c-6.545,2.917-17.329,5.124-28.847,5.9C1797.935,2823.467,1794.368,2823.565,1790.978,2823.521Z" transform="translate(-1770.572 -2807.475)" fill="url(#linear-gradient-25)"/>
          <path id="Trazado_648356" data-name="Trazado 648356" d="M1811.008,2760.636a81.167,81.167,0,0,1-16.928-1.759.471.471,0,0,1,.216-.916c6.867,1.619,16.779,2.143,27.192,1.438,11.312-.766,21.922-2.919,28.382-5.76a.471.471,0,0,1,.379.862c-6.554,2.882-17.281,5.064-28.7,5.836C1817.945,2760.582,1814.4,2760.68,1811.008,2760.636Z" transform="translate(-1790.423 -2753.599)" fill="url(#linear-gradient-26)"/>
        </g>
        <path id="Trazado_648357" data-name="Trazado 648357" d="M1383.686,1286.092a66.277,66.277,0,0,0-11.57-23.325c-11.478-14.854-30.126-45-31.944-85.846-2.644-59.408,50.388-88.452,98.38-83.8s94.938,41.035,89.038,96.2c-3.63,33.94-22.982,59.47-37.334,74.091a78.65,78.65,0,0,0-19.31,33.206c-4.447,15.289-14.807,34.281-38.861,35.137C1400.959,1332.86,1388.413,1303.7,1383.686,1286.092Z" transform="translate(-1340.077 -1092.64)" fill="url(#linear-gradient-27)"/>
        <path id="Trazado_648358" data-name="Trazado 648358" d="M2043.133,2011.989l18.217-109.12c.376-2.254,1.508-3.757,2.526-3.356s1.54,2.553,1.164,4.808c-.01.06-.023.134-.034.193l-20.542,108.074c-.155.813-.575,1.322-.939,1.137S2043,2012.776,2043.133,2011.989Z" transform="translate(-1943.027 -1784.612)" fill="url(#linear-gradient-28)"/>
        <path id="Trazado_648359" data-name="Trazado 648359" d="M1804.923,2013.57l-15.4-109.552c-.318-2.263-1.41-3.794-2.439-3.42s-1.605,2.513-1.287,4.776c.008.06.02.135.029.194l17.755,108.566c.133.817.541,1.336.909,1.161S1805.033,2014.36,1804.923,2013.57Z" transform="translate(-1722.277 -1785.55)" fill="url(#linear-gradient-29)"/>
        <path id="Trazado_648360" data-name="Trazado 648360" d="M1873.9,1775.022a1.763,1.763,0,0,0-2.2-.6l-9.417,4.253-3.13-9.3a1.985,1.985,0,0,0-1.124-1.16,2.313,2.313,0,0,0-2.888.849l-.017.03-7.879,13.937-6.886-20.072-.011-.033a2.284,2.284,0,0,0-1.066-1.233,2.8,2.8,0,0,0-3.543.651l-10.952,14.677a1.3,1.3,0,0,0,.355,1.875,1.8,1.8,0,0,0,2.292-.219l9.611-10.448,8.286,19.117.006.015a1.509,1.509,0,0,0,.742.746,1.783,1.783,0,0,0,2.24-.549l8.4-13.105,3.013,6.722.026.06a1.384,1.384,0,0,0,.075.143,1.761,1.761,0,0,0,2.2.6l11.177-5.049A1.322,1.322,0,0,0,1873.9,1775.022Z" transform="translate(-1755.578 -1666.155)" fill="#fff"/>
        <path id="Trazado_648361" data-name="Trazado 648361" d="M2394.918,2102.833a.717.717,0,0,1-.57-1.152,125.49,125.49,0,0,0,8.042-11.88.717.717,0,0,1,1.233.733,126.812,126.812,0,0,1-8.134,12.016A.716.716,0,0,1,2394.918,2102.833Z" transform="translate(-2244.164 -1947.571)" fill="#fff"/>
        <path id="Trazado_648362" data-name="Trazado 648362" d="M2494.226,1543.552a.718.718,0,0,1-.654-1.012,104.146,104.146,0,0,0,8.664-53.976c-1.509-13.816-5.363-22.65-5.4-22.737a.717.717,0,0,1,1.312-.581c.039.089,3.97,9.083,5.509,23.1a105.578,105.578,0,0,1-8.775,54.779A.718.718,0,0,1,2494.226,1543.552Z" transform="translate(-2329.336 -1411.845)" fill="#fff"/>
      </g>
      <g id="Grupo_898808" data-name="Grupo 898808" transform="translate(470.448 586.718)">
        <rect id="Rectángulo_301868" data-name="Rectángulo 301868" width="168.358" height="97.469" rx="14.839" transform="translate(0.457 0.427)" fill="url(#linear-gradient-30)"/>
        <rect id="Rectángulo_301869" data-name="Rectángulo 301869" width="156.941" height="92.88" rx="14.514" transform="translate(5.957 3.334)" fill="#fff" opacity="0.41"/>
        <g id="Grupo_898796" data-name="Grupo 898796" transform="translate(14.822 28.211)">
          <g id="Grupo_898786" data-name="Grupo 898786" opacity="0.67">
            <rect id="Rectángulo_301870" data-name="Rectángulo 301870" width="11.094" height="64.011" fill="#fff"/>
          </g>
          <g id="Grupo_898787" data-name="Grupo 898787" transform="translate(14.9)" opacity="0.67">
            <rect id="Rectángulo_301871" data-name="Rectángulo 301871" width="11.094" height="64.011" fill="#fff"/>
          </g>
          <g id="Grupo_898788" data-name="Grupo 898788" transform="translate(29.045)" opacity="0.67">
            <rect id="Rectángulo_301872" data-name="Rectángulo 301872" width="11.094" height="64.011" fill="#fff"/>
          </g>
          <g id="Grupo_898789" data-name="Grupo 898789" transform="translate(43.945)" opacity="0.67">
            <rect id="Rectángulo_301873" data-name="Rectángulo 301873" width="11.094" height="64.011" fill="#fff"/>
          </g>
          <g id="Grupo_898790" data-name="Grupo 898790" transform="translate(58.533)" opacity="0.67">
            <rect id="Rectángulo_301874" data-name="Rectángulo 301874" width="11.094" height="64.011" fill="#fff"/>
          </g>
          <g id="Grupo_898791" data-name="Grupo 898791" transform="translate(73.433)" opacity="0.67">
            <rect id="Rectángulo_301875" data-name="Rectángulo 301875" width="11.094" height="64.011" fill="#fff"/>
          </g>
          <g id="Grupo_898792" data-name="Grupo 898792" transform="translate(88.282)" opacity="0.67">
            <rect id="Rectángulo_301876" data-name="Rectángulo 301876" width="11.094" height="64.011" fill="#fff"/>
          </g>
          <g id="Grupo_898793" data-name="Grupo 898793" transform="translate(103.181)" opacity="0.67">
            <rect id="Rectángulo_301877" data-name="Rectángulo 301877" width="11.094" height="64.011" fill="#fff"/>
          </g>
          <g id="Grupo_898794" data-name="Grupo 898794" transform="translate(117.77)" opacity="0.67">
            <rect id="Rectángulo_301878" data-name="Rectángulo 301878" width="11.094" height="64.011" fill="#fff"/>
          </g>
          <g id="Grupo_898795" data-name="Grupo 898795" transform="translate(132.669)" opacity="0.67">
            <rect id="Rectángulo_301879" data-name="Rectángulo 301879" width="11.094" height="64.011" fill="#fff"/>
          </g>
        </g>
        <path id="Trazado_648363" data-name="Trazado 648363" d="M684.548,1537.286v-14.161c0-3.365-2.394-6.406-5.325-6.406h-158c-2.931,0-5.513,3.04-5.513,6.406v14.161Z" transform="translate(-515.713 -1516.72)" fill="url(#linear-gradient-31)"/>
        <g id="Grupo_898807" data-name="Grupo 898807" transform="translate(14.889 27.871)">
          <g id="Grupo_898797" data-name="Grupo 898797" transform="translate(0 52.662)">
            <rect id="Rectángulo_301880" data-name="Rectángulo 301880" width="11.094" height="11.689" fill="#ee4e5d"/>
          </g>
          <g id="Grupo_898798" data-name="Grupo 898798" transform="translate(14.9 48.652)">
            <rect id="Rectángulo_301881" data-name="Rectángulo 301881" width="11.094" height="15.699" fill="#ee4e5d"/>
          </g>
          <g id="Grupo_898799" data-name="Grupo 898799" transform="translate(29.045 43.152)">
            <rect id="Rectángulo_301882" data-name="Rectángulo 301882" width="11.094" height="21.199" fill="#ee4e5d"/>
          </g>
          <g id="Grupo_898800" data-name="Grupo 898800" transform="translate(43.945 38.075)">
            <rect id="Rectángulo_301883" data-name="Rectángulo 301883" width="11.094" height="26.275" fill="#ee4e5d"/>
          </g>
          <g id="Grupo_898801" data-name="Grupo 898801" transform="translate(58.533 32.153)">
            <rect id="Rectángulo_301884" data-name="Rectángulo 301884" width="11.094" height="32.198" fill="#ee4e5d"/>
          </g>
          <g id="Grupo_898802" data-name="Grupo 898802" transform="translate(73.433 26.23)">
            <rect id="Rectángulo_301885" data-name="Rectángulo 301885" width="11.094" height="38.121" fill="#ee4e5d"/>
          </g>
          <g id="Grupo_898803" data-name="Grupo 898803" transform="translate(88.282 20.73)">
            <rect id="Rectángulo_301886" data-name="Rectángulo 301886" width="11.094" height="43.621" fill="#ee4e5d"/>
          </g>
          <g id="Grupo_898804" data-name="Grupo 898804" transform="translate(103.181 15.653)">
            <rect id="Rectángulo_301887" data-name="Rectángulo 301887" width="11.094" height="48.698" transform="translate(0)" fill="#ee4e5d"/>
          </g>
          <g id="Grupo_898805" data-name="Grupo 898805" transform="translate(117.77 6.346)">
            <rect id="Rectángulo_301888" data-name="Rectángulo 301888" width="11.094" height="58.005" fill="#ee4e5d"/>
          </g>
          <g id="Grupo_898806" data-name="Grupo 898806" transform="translate(132.669)">
            <rect id="Rectángulo_301889" data-name="Rectángulo 301889" width="11.094" height="64.351" fill="#ee4e5d"/>
          </g>
        </g>
      </g>
      <g id="Grupo_898812" data-name="Grupo 898812" transform="translate(507.162 636.541)">
        <path id="Trazado_648364" data-name="Trazado 648364" d="M942.65,1986.665s-4.037,1.964-4.779,4.219c-.6,1.81-5.059,2.043-5.5,5.6a4.084,4.084,0,0,1-3.418,3.59c-4.559.7-11.584,3.066-12.708,10.981-.858,6.042,2.222,8.332,5.454,9.125a4.578,4.578,0,0,1,3.471,5.288c-.461,2.3.226,4.956,4.209,7.058,8.925,4.709,17.837-11.157,17.837-11.157l1.827-27.7Z" transform="translate(-895.825 -1969.599)" fill="url(#linear-gradient-32)"/>
        <path id="Trazado_648365" data-name="Trazado 648365" d="M1208.764,1940.524s-17.819,28.185-39.008,33.629c0,0,4.129,11.76,7.316,13.105,0,0,26.069-21.751,32.768-42.73Z" transform="translate(-1113.378 -1930.025)" fill="url(#linear-gradient-33)"/>
        <path id="Trazado_648366" data-name="Trazado 648366" d="M783.8,3196.113l-.578,4.748a1.961,1.961,0,0,1-1.72,1.716,30.341,30.341,0,0,1-6.354.1,1.68,1.68,0,0,1-1.41-2.178,17.3,17.3,0,0,1,3.185-6.2h5.267A1.622,1.622,0,0,1,783.8,3196.113Z" transform="translate(-773.655 -3005.343)" fill="#f6f6f6"/>
        <path id="Trazado_648367" data-name="Trazado 648367" d="M1073.481,2816.325l.889,5.229s-2.977,30.153-3.506,42.214a9.448,9.448,0,0,0,1.4,5.371l5.176,8.406-13.155-7.763-.262-1.605,2.154-2.961-2.821-33.779a10.363,10.363,0,0,1,1.18-5.732l2.721-5.112Z" transform="translate(-1022.09 -2681.17)" fill="url(#linear-gradient-34)"/>
        <path id="Trazado_648368" data-name="Trazado 648368" d="M1076.3,3179.79h-4.2a2.527,2.527,0,0,1-2.006-.983c-1.309-1.7-4.02-5.018-5.317-5.1-1.745-.116-1.522,6.088-1.522,6.088h-.978l-1.239-7.71a4.564,4.564,0,0,1,2.4-4.771s.4,2.951,2.562,4.256,8.8,5.979,8.8,5.979a6,6,0,0,1,1.706.045A1.11,1.11,0,0,1,1076.3,3179.79Z" transform="translate(-1020.088 -2982.198)" fill="#f6f6f6"/>
        <path id="Trazado_648369" data-name="Trazado 648369" d="M818.142,2820.679s-17.439,33.081-20.211,40.633a72.549,72.549,0,0,0-3.781,14.45c-.058.932-1.218,1.826-4.414,1.826a3.067,3.067,0,0,1-2.853-1.3,1.863,1.863,0,0,1-.07-1.8c1.009-2.042,4.21-8.566,5.4-11.525,1.416-3.533,4.461-19.544,6.131-25.111s3.558-11.605,10.83-17.168C809.168,2820.679,814.16,2815.789,818.142,2820.679Z" transform="translate(-784.768 -2683.041)" fill="url(#linear-gradient-35)"/>
        <path id="Trazado_648370" data-name="Trazado 648370" d="M1043.965,2212.6c4.5-19.062-6.9-29.844-6.9-29.844,7.191-6.9,20.292-10.043,20.292-10.043s12.5,9.14,11.019,16.294c-.869,4.193-8.787,25.115-8.787,25.115A17.4,17.4,0,0,1,1043.965,2212.6Z" transform="translate(-999.575 -2129.166)" fill="#f1b62b"/>
        <path id="Trazado_648371" data-name="Trazado 648371" d="M951.761,2462.384c1.831-5.515,9.974-9.437,9.974-9.437a17.4,17.4,0,0,0,15.626,1.522,31.337,31.337,0,0,1,.509,12.109c-1.133,5.833-8.244,43.319-8.244,43.319-11.2,2.27-28.435-2.284-28.435-2.284C948.327,2494.943,949.93,2467.9,951.761,2462.384Z" transform="translate(-917.345 -2369.513)" fill="#179587"/>
        <path id="Trazado_648372" data-name="Trazado 648372" d="M1099.833,2074.771l-3.657,16.428c-.35,1.447.969,1.21,2.432.934,2.4-.452,5.484-1.382,6.516-3.246a1.772,1.772,0,0,0,.187-.619l1.571-11.392a2.047,2.047,0,0,0-1.2-2.151l-3.032-1.345A2.047,2.047,0,0,0,1099.833,2074.771Z" transform="translate(-1050.221 -2043.821)" fill="url(#linear-gradient-36)"/>
        <g id="Grupo_898809" data-name="Grupo 898809" transform="translate(42.369 9.641)">
          <path id="Trazado_648373" data-name="Trazado 648373" d="M1113.947,1975.464s3.894,2.636,5.567,9.348-1.046,9.12-3.833,8.973a12.933,12.933,0,0,1-10.33-5.825C1101.849,1983.144,1108.844,1972.243,1113.947,1975.464Z" transform="translate(-1099.699 -1969.131)" fill="url(#linear-gradient-37)"/>
          <path id="Trazado_648374" data-name="Trazado 648374" d="M1080.514,1950.616s-1.427-9.618,6.559-8.147l1.615,1.681s3.909-4.4-.417-7.729-10.328-2.475-13.649,3.582-4.526,10.314-1.743,14.078,4.877.536,4.877.536-1.277-3.258-.217-4.656,2.426.813,2.426.813Z" transform="translate(-1071.331 -1934.495)" fill="url(#linear-gradient-38)"/>
          <path id="Trazado_648375" data-name="Trazado 648375" d="M1103.267,2030.721s-.7-4.948-3.232-3.534.911,4.623,2.289,5.714Z" transform="translate(-1095.176 -2013.776)" fill="url(#linear-gradient-39)"/>
        </g>
        <g id="Grupo_898810" data-name="Grupo 898810" transform="translate(92.468 0)">
          <path id="Trazado_648376" data-name="Trazado 648376" d="M1426.112,1883.064c.054.581-2.108.983-2.8-1.5.189-1.076.525-5.788,1.35-6.521,4.394-3.9,12.23-8.285,12.23-8.285a1.6,1.6,0,0,1-.273,2.219l-3.912,2.64a15.826,15.826,0,0,1,1.071,4.089,4.579,4.579,0,0,1-1.156,3.2c-.778.89-1.826,2.038-2.771,2.91A4.523,4.523,0,0,1,1426.112,1883.064Z" transform="translate(-1423.316 -1866.763)" fill="url(#linear-gradient-40)"/>
          <path id="Trazado_648377" data-name="Trazado 648377" d="M1442.548,1919.289l-.6-.246c.079-.193,1.957-4.755,2.864-5.7a1.374,1.374,0,0,0,.5-.917.652.652,0,0,0-.2-.4l-3.165,1.693-1.4,2.189-.545-.349,1.489-2.331,3.707-1.982.167.136a1.406,1.406,0,0,1,.591,1.007,1.924,1.924,0,0,1-.674,1.4C1444.6,1914.5,1443.076,1918,1442.548,1919.289Z" transform="translate(-1437.627 -1904.909)" fill="url(#linear-gradient-41)"/>
        </g>
        <g id="Grupo_898811" data-name="Grupo 898811" transform="translate(47.077 64.137)">
          <path id="Trazado_648378" data-name="Trazado 648378" d="M1105.8,2505.959l.075,0,32.674-.036a1.447,1.447,0,1,0,0-2.894l-32.674.035a1.447,1.447,0,0,0-.072,2.892Z" transform="translate(-1104.407 -2476.606)" fill="url(#linear-gradient-42)"/>
          <path id="Trazado_648379" data-name="Trazado 648379" d="M1282.585,2317.374h-27.211a5.19,5.19,0,0,0-4.691,2.943l-12.58,26.393h33.817a3.152,3.152,0,0,0,2.931-1.972l9.755-24.423A2.153,2.153,0,0,0,1282.585,2317.374Z" transform="translate(-1219.074 -2317.374)" fill="url(#linear-gradient-43)"/>
          <ellipse id="Elipse_5598" data-name="Elipse 5598" cx="3.452" cy="2.142" rx="3.452" ry="2.142" transform="translate(43.267 16.79) rotate(-71.758)" fill="url(#linear-gradient-44)"/>
        </g>
        <path id="Trazado_648380" data-name="Trazado 648380" d="M988.181,2243.549c-4.458,4.5-10.115,24.44-7.308,27.771,2.471,3.877,10.885,9.156,18.9,9.163h11.82c-4.967-5.277-8.387-6.616-12.46-2.926-3.232-1.381-7.423-6.73-10.22-9.119a2.983,2.983,0,0,1-.623-3.781c2.222-3.762,5.009-7.63,5.9-11.376C994.372,2248.89,991.123,2243.866,988.181,2243.549Z" transform="translate(-950.736 -2189.92)" fill="url(#linear-gradient-45)"/>
      </g>
      <g id="Grupo_898818" data-name="Grupo 898818" transform="translate(650.903 432.38)">
        <g id="Grupo_898816" data-name="Grupo 898816" transform="translate(0 0)">
          <circle id="Elipse_5599" data-name="Elipse 5599" cx="74.658" cy="74.658" r="74.658" transform="translate(0 105.582) rotate(-45)" fill="#fff" opacity="0.57"/>
          <g id="Grupo_898813" data-name="Grupo 898813" transform="translate(39.234 39.234)">
            <circle id="Elipse_5600" data-name="Elipse 5600" cx="63.717" cy="63.717" r="63.717" transform="translate(2.631 2.631)" fill="#179587"/>
            <path id="Trazado_648381" data-name="Trazado 648381" d="M2125.54,840.721a66.348,66.348,0,1,1,66.348-66.348A66.423,66.423,0,0,1,2125.54,840.721Zm0-127.435a61.087,61.087,0,1,0,61.087,61.087A61.156,61.156,0,0,0,2125.54,713.286Z" transform="translate(-2059.192 -708.025)" fill="#fff"/>
          </g>
          <g id="Grupo_898814" data-name="Grupo 898814" transform="translate(50.646 50.646)">
            <circle id="Elipse_5601" data-name="Elipse 5601" cx="38.845" cy="38.845" r="38.845" transform="translate(0 54.935) rotate(-45)" fill="#222b5a"/>
            <path id="Trazado_648382" data-name="Trazado 648382" d="M2275.413,965.725a41.476,41.476,0,1,1,41.476-41.476A41.523,41.523,0,0,1,2275.413,965.725Zm0-77.69a36.215,36.215,0,1,0,36.215,36.214A36.256,36.256,0,0,0,2275.413,888.034Z" transform="translate(-2220.478 -869.313)" fill="#fff"/>
          </g>
          <g id="Grupo_898815" data-name="Grupo 898815" transform="translate(87.173 87.173)">
            <circle id="Elipse_5602" data-name="Elipse 5602" cx="15.05" cy="15.05" r="15.05" transform="translate(0 29.091) rotate(-75.128)" fill="#179587"/>
            <path id="Trazado_648383" data-name="Trazado 648383" d="M2418.8,1085.313a17.681,17.681,0,1,1,17.68-17.681A17.7,17.7,0,0,1,2418.8,1085.313Zm0-30.1a12.419,12.419,0,1,0,12.419,12.419A12.433,12.433,0,0,0,2418.8,1055.213Z" transform="translate(-2400.391 -1049.224)" fill="#fff"/>
          </g>
        </g>
        <g id="Grupo_898817" data-name="Grupo 898817" transform="translate(105.272 4.633)">
          <rect id="Rectángulo_301890" data-name="Rectángulo 301890" width="2.846" height="107.754" transform="translate(16.636 88.413) rotate(-135.001)" fill="#12263f"/>
          <path id="Trazado_648384" data-name="Trazado 648384" d="M2539.208,1036.888c1.154-1.154,6.6,4.288,5.442,5.442l-20.184,15.868a.8.8,0,0,1-1.125-1.126Z" transform="translate(-2523.16 -955.343)" fill="#f1b62b"/>
          <path id="Trazado_648385" data-name="Trazado 648385" d="M3046.362,551.086l10.25,1.019-14.072,14.072a21.754,21.754,0,0,1-17.534,6.265h0Z" transform="translate(-2953.577 -538.824)" fill="#f1b62b"/>
          <path id="Trazado_648386" data-name="Trazado 648386" d="M3031.583,475.183l-1.019-10.25L3016.492,479a21.754,21.754,0,0,0-6.265,17.534h0Z" transform="translate(-2940.81 -464.933)" fill="#f1b62b"/>
        </g>
      </g>
    </g>
  </g>
</svg>
