<svg xmlns="http://www.w3.org/2000/svg" width="113.325" height="113.324" viewBox="0 0 113.325 113.324">
  <g id="Grupo_1000270" data-name="Grupo 1000270" transform="translate(-251 -2752)">
    <g id="Grupo_1000184" data-name="Grupo 1000184" transform="translate(251 2752)">
      <g id="Elipse_5512" data-name="Elipse 5512" transform="translate(0 0)" fill="#fff" stroke="#222b5a" stroke-width="3">
        <ellipse cx="56.662" cy="56.662" rx="56.662" ry="56.662" stroke="none"/>
        <ellipse cx="56.662" cy="56.662" rx="55.162" ry="55.162" fill="none"/>
      </g>
      <g id="presupuesto" transform="translate(20.17 20.17)">
        <g id="Grupo_881635" data-name="Grupo 881635" transform="translate(1.177 1.177)">
          <g id="Grupo_881621" data-name="Grupo 881621" transform="translate(11.771)">
            <path id="Trazado_126140" data-name="Trazado 126140" d="M63.794,4.354V22.011l-.047.047-8.193,8.193H49.669a5.9,5.9,0,0,0-4.709,2.354H28.48V60.857h25.9v4.709H23.771V30.251A11.776,11.776,0,0,0,12,18.48V14.748a2.317,2.317,0,0,1,.212-.977h9.205a2.361,2.361,0,0,0,2.354-2.354V2.212A2.317,2.317,0,0,1,24.748,2H61.44a2.361,2.361,0,0,1,2.354,2.354Z" transform="translate(-12 -2)" fill="#e6e9ed"/>
          </g>
          <g id="Grupo_881622" data-name="Grupo 881622" transform="translate(28.251 30.606)">
            <path id="Trazado_126141" data-name="Trazado 126141" d="M48.66,47.776a6.415,6.415,0,0,1-1.424-1.566,6.634,6.634,0,0,1-.942-2h-.012L41.3,49.189l-1.177.471L35.77,51.4A1.979,1.979,0,0,1,33.1,49.189a2.013,2.013,0,0,1,.106-.353L35.417,43.3l1.177-1.177,7.063-7.063A2.361,2.361,0,0,1,41.3,32.709V31.531A5.816,5.816,0,0,1,42.48,28H26V56.251H51.9V50.366Z" transform="translate(-26 -28)" fill="#f1b62b"/>
          </g>
          <g id="Grupo_881623" data-name="Grupo 881623" transform="translate(28.251 4.709)">
            <path id="Trazado_126142" data-name="Trazado 126142" d="M26,6H56.606v4.709H26Z" transform="translate(-26 -6)" fill="#ee4e5d"/>
          </g>
          <g id="Grupo_881624" data-name="Grupo 881624" transform="translate(11.983 0.212)">
            <path id="Trazado_126143" data-name="Trazado 126143" d="M23.74,2.18v9.205a2.361,2.361,0,0,1-2.354,2.354H12.18a2.374,2.374,0,0,1,.483-.695L23.045,2.663A2.374,2.374,0,0,1,23.74,2.18Z" transform="translate(-12.18 -2.18)" fill="#179587"/>
          </g>
          <g id="Grupo_881625" data-name="Grupo 881625" transform="translate(37.669 35.314)">
            <path id="Trazado_126144" data-name="Trazado 126144" d="M44.594,32v9.558a6.684,6.684,0,0,0,.283,1.942h-.012L39.886,48.48,34,42.594l1.177-1.177,7.063-7.063A2.371,2.371,0,0,0,44.594,32Z" transform="translate(-34 -32)" fill="#ee4e5d"/>
          </g>
          <g id="Grupo_881626" data-name="Grupo 881626" transform="translate(50.464 18.834)">
            <path id="Trazado_126145" data-name="Trazado 126145" d="M57.972,19.177A4.162,4.162,0,0,1,63.81,25.11l-6.875,6.875-9.558,9.558V35.657a3.523,3.523,0,0,0-1.036-2.5,3.6,3.6,0,0,0-1.471-.883l4.862-4.862,8.193-8.193Z" transform="translate(-44.87 -18)" fill="#ee4e5d"/>
          </g>
          <g id="Grupo_881627" data-name="Grupo 881627" transform="translate(35.314 45.909)">
            <path id="Trazado_126146" data-name="Trazado 126146" d="M40.24,46.886l-1.177.471L34.707,49.1a1.979,1.979,0,0,1-2.672-2.213,2.013,2.013,0,0,1,.106-.353L34.354,41Z" transform="translate(-32 -41)" fill="#aab2bd"/>
          </g>
          <g id="Grupo_881628" data-name="Grupo 881628" transform="translate(54.149 49.44)">
            <path id="Trazado_126147" data-name="Trazado 126147" d="M60.949,44,63.3,58.126H48V47.531Z" transform="translate(-48 -44)" fill="#179587"/>
          </g>
          <g id="Grupo_881629" data-name="Grupo 881629" transform="translate(43.554 28.251)">
            <path id="Trazado_126148" data-name="Trazado 126148" d="M43.014,34.723a2.3,2.3,0,0,1-1.66.695A2.361,2.361,0,0,1,39,33.063V31.886a5.816,5.816,0,0,1,1.177-3.531A5.9,5.9,0,0,1,44.886,26h5.886L45.91,30.862a3.651,3.651,0,0,0-1.024-.153,1.181,1.181,0,0,0-1.177,1.177v1.177A2.3,2.3,0,0,1,43.014,34.723Z" transform="translate(-39 -26)" fill="#f0d0b4"/>
          </g>
          <g id="Grupo_881630" data-name="Grupo 881630" transform="translate(48.263 32.819)">
            <path id="Trazado_126149" data-name="Trazado 126149" d="M57.891,31.022A32.363,32.363,0,0,1,61.834,46.5L48.886,50.033l-3.237-2.59a6.415,6.415,0,0,1-1.424-1.566A7.092,7.092,0,0,1,43,41.934V31.2a1.181,1.181,0,0,1,1.177-1.177,3.652,3.652,0,0,1,1.024.153,3.6,3.6,0,0,1,1.471.883,3.523,3.523,0,0,1,1.036,2.5v5.886l9.558-9.558Z" transform="translate(-43 -29.88)" fill="#f0d0b4"/>
          </g>
          <g id="Grupo_881631" data-name="Grupo 881631" transform="translate(0 28.251)">
            <path id="Trazado_126150" data-name="Trazado 126150" d="M25.543,26V63.669a4.707,4.707,0,0,1-4.709,4.709H6.709A4.707,4.707,0,0,1,2,63.669V26a11.76,11.76,0,0,0,4.709,9.417v8.24a1.181,1.181,0,0,0,1.177,1.177H19.657a1.181,1.181,0,0,0,1.177-1.177v-8.24A11.76,11.76,0,0,0,25.543,26Z" transform="translate(-2 -26)" fill="#969faa"/>
          </g>
          <g id="Grupo_881632" data-name="Grupo 881632" transform="translate(4.738 51.801)">
            <path id="Trazado_126151" data-name="Trazado 126151" d="M19.036,60.085H7.2a1.178,1.178,0,0,1-1.177-1.177V47.183A1.178,1.178,0,0,1,7.2,46.006H19.035a1.178,1.178,0,0,1,1.177,1.177V58.907A1.175,1.175,0,0,1,19.036,60.085Z" transform="translate(-6.025 -46.006)" fill="#ee4e5d"/>
          </g>
          <g id="Grupo_881633" data-name="Grupo 881633" transform="translate(4.709 37.669)">
            <path id="Trazado_126152" data-name="Trazado 126152" d="M20.126,34v8.24a1.181,1.181,0,0,1-1.177,1.177H7.177A1.181,1.181,0,0,1,6,42.24V34a11.771,11.771,0,0,0,14.126,0Z" transform="translate(-6 -34)" fill="#222b5a"/>
          </g>
          <g id="Grupo_881634" data-name="Grupo 881634" transform="translate(0 16.48)">
            <path id="Trazado_126153" data-name="Trazado 126153" d="M25.543,27.771A11.771,11.771,0,1,1,13.771,16,11.76,11.76,0,0,1,25.543,27.771Z" transform="translate(-2 -16)" fill="#f1b62b"/>
          </g>
        </g>
        <g id="Grupo_881636" data-name="Grupo 881636" transform="translate(0 0)">
          <path id="Trazado_126154" data-name="Trazado 126154" d="M66.362,35.58l-.2-.372,6.26-6.26a5.316,5.316,0,0,0-5.5-8.807V4.531A3.536,3.536,0,0,0,63.389,1H26.7a3.51,3.51,0,0,0-2.5,1.035L13.806,12.427a3.506,3.506,0,0,0-1.035,2.5V17.54A12.961,12.961,0,0,0,1,30.429V68.1a5.892,5.892,0,0,0,5.886,5.886H21.011A5.892,5.892,0,0,0,26.9,68.1V66.92H73.019L70.448,51.495A33.6,33.6,0,0,0,66.362,35.58Zm1.707,15.146-11.476,3.13-2.767-2.214a5.862,5.862,0,0,1-2.208-4.6V36.314a2.357,2.357,0,0,1,2.354,2.354v8.24h2.354V45.042l8.092-8.092A31.211,31.211,0,0,1,68.069,50.726ZM51.617,33.96a2.357,2.357,0,0,0-2.354,2.354v1.177a1.177,1.177,0,0,1-2.354,0V36.314a4.713,4.713,0,0,1,4.709-4.709h3.044l-2.418,2.418a4.588,4.588,0,0,0-.626-.064Zm-12.891,20.1,1.549-3.875,3.361,3.361-3.876,1.55a.815.815,0,0,1-1.091-.74A.768.768,0,0,1,38.726,54.056Zm7.005-1.749L41.51,48.086l7.118-7.118a3.435,3.435,0,0,0,.634-.162v6.239a8.28,8.28,0,0,0,.16,1.57Zm-.961-13.638H31.606V33.96H44.966a7.034,7.034,0,0,0-.412,2.354v1.177A3.492,3.492,0,0,0,44.771,38.669ZM31.606,41.023H45.244l-4.709,4.709h-8.93Zm0,7.063h6.972l-1.883,4.709H31.606Zm0,7.063H36.43a3.14,3.14,0,0,0,4.207,2.129l2.74-1.1v3.676H31.606Zm14.126.091.662-.265,3.92-3.92c.042.077.081.154.127.23v8.573H45.732Zm7.063-1.409,2.354,1.883v4.144H52.794ZM71.629,25.174a2.966,2.966,0,0,1-.875,2.111L56.326,41.713V38.669a4.68,4.68,0,0,0-1.759-3.64L66.533,23.063a2.985,2.985,0,0,1,5.1,2.111ZM24.543,5.019v6.576a1.179,1.179,0,0,1-1.177,1.177H16.79ZM13.949,19.834A10.594,10.594,0,1,1,3.354,30.429,10.607,10.607,0,0,1,13.949,19.834ZM8.063,41.948a12.835,12.835,0,0,0,11.771,0v6.138H8.063ZM21.011,71.629H6.886A3.536,3.536,0,0,1,3.354,68.1V37.851A13.069,13.069,0,0,0,5.709,40.41v7.676A2.357,2.357,0,0,0,8.063,50.44H19.834a2.357,2.357,0,0,0,2.354-2.354V40.41a13.069,13.069,0,0,0,2.354-2.559V68.1A3.536,3.536,0,0,1,21.011,71.629ZM26.9,64.566V30.429A12.961,12.961,0,0,0,15.126,17.54V15.126h8.24A3.536,3.536,0,0,0,26.9,11.594V3.354H63.389a1.179,1.179,0,0,1,1.177,1.177V21.7l-7.55,7.55h-5.4a7.043,7.043,0,0,0-5.25,2.354H29.251V62.211h25.9v2.354Zm30.606,0V56.048L68.327,53.1l1.912,11.47Z" transform="translate(-1 -1)"/>
          <path id="Trazado_126155" data-name="Trazado 126155" d="M11.354,32.955V35.48h2.354V32.955a3.347,3.347,0,0,0,.5-6.194l-2.3-1.147a1.006,1.006,0,0,1,.45-1.906H12.7a1.006,1.006,0,0,1,1.005,1.005v1.349h2.354V24.714a3.354,3.354,0,0,0-2.354-3.189V19H11.354v2.525a3.347,3.347,0,0,0-.5,6.194l2.3,1.147a1.006,1.006,0,0,1-.45,1.906H12.36a1.006,1.006,0,0,1-1.005-1.005V28.417H9v1.349A3.354,3.354,0,0,0,11.354,32.955Z" transform="translate(0.417 2.189)"/>
          <path id="Trazado_126156" data-name="Trazado 126156" d="M19.126,45H7.354A2.357,2.357,0,0,0,5,47.354V59.126A2.357,2.357,0,0,0,7.354,61.48H19.126a2.357,2.357,0,0,0,2.354-2.354V47.354A2.357,2.357,0,0,0,19.126,45Zm0,4.709H16.771V47.354h2.354Zm-4.709,9.417H12.063V56.771h2.354Zm0-4.709H12.063V52.063h2.354Zm-4.709,0H7.354V52.063H9.709Zm2.354-4.709V47.354h2.354v2.354ZM9.709,47.354v2.354H7.354V47.354ZM7.354,56.771H9.709v2.354H7.354Zm9.417,2.354V52.063h2.355v7.063Z" transform="translate(-0.291 6.794)"/>
          <path id="Trazado_126157" data-name="Trazado 126157" d="M57.96,5H25v7.063H57.96ZM55.606,9.709H27.354V7.354H55.606Z" transform="translate(3.251 -0.291)"/>
          <path id="Trazado_126158" data-name="Trazado 126158" d="M25,13H57.96v2.354H25Z" transform="translate(3.251 1.126)"/>
          <path id="Trazado_126159" data-name="Trazado 126159" d="M25,17H57.96v2.354H25Z" transform="translate(3.251 1.834)"/>
          <path id="Trazado_126160" data-name="Trazado 126160" d="M25,21H43.834v2.354H25Z" transform="translate(3.251 2.543)"/>
        </g>
      </g>
    </g>
  </g>
</svg>
