<svg xmlns="http://www.w3.org/2000/svg" width="113.325" height="113.324" viewBox="0 0 113.325 113.324">
  <g id="Grupo_1000272" data-name="Grupo 1000272" transform="translate(-251 -3064)">
    <g id="Grupo_1000183" data-name="Grupo 1000183" transform="translate(251 3064)">
      <g id="Elipse_5513" data-name="Elipse 5513" transform="translate(0)" fill="#fff" stroke="#222b5a" stroke-width="3">
        <ellipse cx="56.662" cy="56.662" rx="56.662" ry="56.662" stroke="none"/>
        <ellipse cx="56.662" cy="56.662" rx="55.162" ry="55.162" fill="none"/>
      </g>
      <g id="asistencia-social" transform="translate(15.192 15.192)">
        <g id="Grupo_881706" data-name="Grupo 881706" transform="translate(1.62 26.964)">
          <path id="Trazado_126577" data-name="Trazado 126577" d="M25.537,202.485l-5.288-5.628a9.744,9.744,0,0,1-2.643-6.672V170.258a3.8,3.8,0,0,0-2.979-3.713h0A3.8,3.8,0,0,0,10,170.258v25.117a14.154,14.154,0,0,0,2.613,8.194l2.889,4.069,6.911,9.736,2.439,3.435H43.276l-2.654-12.65a22.362,22.362,0,0,0-9.408-13.965l-5.667-3.81a4.061,4.061,0,0,0-5.305.677h0a4.37,4.37,0,0,0,.092,5.9c3.1,3.288,7.72,8.2,7.72,8.2" transform="translate(-10 -166.453)" fill="#ffcdac"/>
          <path id="Trazado_126578" data-name="Trazado 126578" d="M314.321,202.485l5.288-5.628a9.744,9.744,0,0,0,2.643-6.672V170.257a3.8,3.8,0,0,1,2.979-3.713h0a3.8,3.8,0,0,1,4.627,3.713v25.117a14.154,14.154,0,0,1-2.613,8.194l-2.889,4.069-6.911,9.736-2.439,3.435H296.581l2.654-12.65a22.362,22.362,0,0,1,9.408-13.965l5.667-3.81a4.061,4.061,0,0,1,5.305.677h0a4.37,4.37,0,0,1-.092,5.9c-3.1,3.288-7.72,8.2-7.72,8.2" transform="translate(-250.157 -166.453)" fill="#ffcdac"/>
        </g>
        <g id="Grupo_881707" data-name="Grupo 881707" transform="translate(16.748 29.095)">
          <path id="Trazado_126579" data-name="Trazado 126579" d="M280.137,184.849a5.978,5.978,0,0,1,2.918-1.67l4.136-.991,0,0,0,0v-2.525h5.051V182.2h0l4.126.986a5.994,5.994,0,0,1,4.6,5.829v3.025h-9.145Z" transform="translate(-251.505 -179.654)" fill="#ee4e5d"/>
          <path id="Trazado_126580" data-name="Trazado 126580" d="M124.222,184.8a5.978,5.978,0,0,0-2.918-1.67l-4.136-.991,0,0,0,0v-2.525h-5.051v2.533h0l-4.126.986a5.994,5.994,0,0,0-4.6,5.829v3.025h9.145Z" transform="translate(-103.39 -179.611)" fill="#ee4e5d"/>
        </g>
        <path id="Trazado_126581" data-name="Trazado 126581" d="M171.387,211.07l-5.761,1.381a8.348,8.348,0,0,0-6.4,8.118v5.825h31.354v-5.82a8.348,8.348,0,0,0-6.408-8.12l-5.746-1.373" transform="translate(-133.43 -176.878)" fill="#179587"/>
        <path id="Trazado_126582" data-name="Trazado 126582" d="M241.348,189.357v3.529l-3.516,8-3.519-8.007v-3.517" transform="translate(-196.356 -158.683)" fill="#ffb487"/>
        <path id="Trazado_126583" data-name="Trazado 126583" d="M223.4,114.551v4.872a7.842,7.842,0,0,1-7.842,7.842h0a7.842,7.842,0,0,1-7.842-7.842v-4.872" transform="translate(-174.068 -95.995)" fill="#ffcdac"/>
        <path id="Trazado_126584" data-name="Trazado 126584" d="M215.558,64h0a7.842,7.842,0,0,0-7.842,7.842V73.73h3.834a8.615,8.615,0,0,0,6.6-3.082h0L223.4,73.73V71.842A7.842,7.842,0,0,0,215.558,64Z" transform="translate(-174.068 -53.633)" fill="#222b5a"/>
        <path id="Trazado_126585" data-name="Trazado 126585" d="M149.375,96.6V95.241a5.63,5.63,0,0,0-5.63-5.63h0a5.63,5.63,0,0,0-5.63,5.63V96.6H142a13.423,13.423,0,0,0,6.9-1.909h0" transform="translate(-115.742 -75.095)" fill="#f1b62b"/>
        <path id="Trazado_126586" data-name="Trazado 126586" d="M149.375,125.9v3.5a5.63,5.63,0,0,1-5.63,5.63h0a5.63,5.63,0,0,1-5.63-5.63v-3.5" transform="translate(-115.742 -105.509)" fill="#ffcdac"/>
        <path id="Trazado_126587" data-name="Trazado 126587" d="M304.5,96.648V95.292a5.63,5.63,0,0,1,5.63-5.63h0a5.63,5.63,0,0,1,5.63,5.63v1.355h-3.881a13.423,13.423,0,0,1-6.9-1.909h0" transform="translate(-255.174 -75.138)" fill="#f1b62b"/>
        <path id="Trazado_126588" data-name="Trazado 126588" d="M304.5,125.955v3.5a5.63,5.63,0,0,0,5.63,5.63h0a5.63,5.63,0,0,0,5.63-5.63v-3.5" transform="translate(-255.174 -105.551)" fill="#ffcdac"/>
        <path id="Trazado_126589" data-name="Trazado 126589" d="M79.565,471.474a1.62,1.62,0,1,0-2.642,1.875l2.439,3.435A1.62,1.62,0,1,0,82,474.909Z" transform="translate(-64.212 -394.527)"/>
        <path id="Trazado_126590" data-name="Trazado 126590" d="M33.828,199.445a23.856,23.856,0,0,0-10.089-14.977l-5.667-3.81a5.7,5.7,0,0,0-7.226.738V161.876a5.423,5.423,0,0,0-8.817-4.23A5.4,5.4,0,0,0,0,161.876v25.117a15.691,15.691,0,0,0,2.912,9.132L5.8,200.194a1.62,1.62,0,0,0,2.642-1.876l-2.889-4.069a12.468,12.468,0,0,1-2.314-7.256V161.876a2.183,2.183,0,1,1,4.366,0V181.8a11.319,11.319,0,0,0,2.919,7.6c.081.1.164.192.251.285,1.076,1.14,2.341,2.483,3.532,3.749l1.668,1.775.017.016,2.5,2.661a1.62,1.62,0,1,0,2.362-2.218c-.029-.031-1.926-2.051-4.091-4.352l-3.714-3.953-.027-.031a2.733,2.733,0,0,1,.053-3.582,2.449,2.449,0,0,1,3.189-.407l5.666,3.81a20.633,20.633,0,0,1,8.726,12.954l2.654,12.65a1.62,1.62,0,1,0,3.171-.665Z" transform="translate(-0.001 -131.107)"/>
        <path id="Trazado_126591" data-name="Trazado 126591" d="M58.823,442.255a1.62,1.62,0,0,0-2.637,1.882l.01.015a1.62,1.62,0,0,0,2.637-1.882Z" transform="translate(-46.831 -370.044)"/>
        <path id="Trazado_126592" data-name="Trazado 126592" d="M321.067,157.648a5.423,5.423,0,0,0-8.817,4.23V181.4a5.7,5.7,0,0,0-7.226-.738l-5.667,3.81a23.855,23.855,0,0,0-10.089,14.977l-2.654,12.65a1.62,1.62,0,1,0,3.171.665l2.654-12.65a20.633,20.633,0,0,1,8.726-12.953l5.667-3.81a2.449,2.449,0,0,1,3.189.407,2.734,2.734,0,0,1,.056,3.579l-.031.034-7.806,8.305a1.62,1.62,0,1,0,2.362,2.218c.022-.023,6.641-7.061,7.717-8.2.088-.093.171-.189.251-.285a11.319,11.319,0,0,0,2.919-7.6V161.878a2.183,2.183,0,1,1,4.366,0v25.117a12.468,12.468,0,0,1-2.314,7.256L305.3,211.491a1.62,1.62,0,1,0,2.642,1.876l12.239-17.24A15.691,15.691,0,0,0,323.1,187V161.878A5.4,5.4,0,0,0,321.067,157.648Z" transform="translate(-240.157 -131.11)"/>
        <path id="Trazado_126593" data-name="Trazado 126593" d="M135.409,96.388a1.62,1.62,0,0,0,1.62-1.62v-5.82c0-.2-.008-.4-.02-.6h7.465a1.62,1.62,0,0,0,1.62-1.62V83.7a7.589,7.589,0,0,0-5.844-7.4l-2.882-.688v-.517a7.245,7.245,0,0,0,3.1-5.94V65.407a7.244,7.244,0,0,0-11.954-5.51,9.458,9.458,0,0,0-17.53.013,7.244,7.244,0,0,0-11.969,5.5v3.747a7.245,7.245,0,0,0,3.1,5.94v.517l-2.882.688a7.589,7.589,0,0,0-5.844,7.4V86.73a1.62,1.62,0,0,0,1.62,1.62h7.444c-.012.2-.019.394-.019.593v5.825a1.62,1.62,0,0,0,1.62,1.62h9.737a1.62,1.62,0,0,0,0-3.24h-1.674V89.8a1.62,1.62,0,1,0-3.24,0v3.348h-3.2v-4.2a6.707,6.707,0,0,1,5.16-6.543l4.445-1.065,2.975,6.768a1.62,1.62,0,0,0,1.483.968h0a1.62,1.62,0,0,0,1.483-.968l2.972-6.758,4.431,1.059a6.706,6.706,0,0,1,5.165,6.544v4.2h-3.2V89.8a1.62,1.62,0,1,0-3.24,0v3.348h-1.836a1.62,1.62,0,0,0,0,3.24ZM114.6,76.735a7.6,7.6,0,0,0-1.3-.437l-2.894-.693v-.5a7.309,7.309,0,0,0,1.4-1.283A9.537,9.537,0,0,0,114.6,76.61Zm-12.343-7.581v-.772h2.261a15.048,15.048,0,0,0,5.76-1.147v1.918a4.01,4.01,0,0,1-8.021,0Zm11.275-.473V66.97h2.214a10.207,10.207,0,0,0,6.883-2.659l3.341,1.963v2.644a6.221,6.221,0,0,1-12.438-.237Zm11.344,8.059v-.11a9.533,9.533,0,0,0,2.81-2.8,7.308,7.308,0,0,0,1.392,1.269v.5l-2.894.693A7.622,7.622,0,0,0,124.874,76.74Zm4.334-7.586v-.236c0-.079.006-.157.006-.237V67.238a15.047,15.047,0,0,0,5.754,1.145h2.261v.772a4.01,4.01,0,1,1-8.021,0Zm4.01-7.757a4.015,4.015,0,0,1,4,3.746h-2.252a11.807,11.807,0,0,1-5.431-1.324A4.016,4.016,0,0,1,133.218,61.4ZM113.53,63.462a6.222,6.222,0,0,1,12.366-.989l-2.727-1.6a1.62,1.62,0,0,0-2.062.356,6.979,6.979,0,0,1-5.362,2.5H113.53v-.268ZM106.265,61.4a4.016,4.016,0,0,1,3.682,2.422,11.808,11.808,0,0,1-5.431,1.324h-2.252A4.016,4.016,0,0,1,106.265,61.4Zm3.814,17.853A9.935,9.935,0,0,0,103.2,85.11H96.63V83.7a4.359,4.359,0,0,1,3.357-4.254l4.126-.986a1.62,1.62,0,0,0,1.244-1.576v-.545a7.033,7.033,0,0,0,1.811,0v.462c0,.024,0,.048,0,.072a1.622,1.622,0,0,0,1.316,1.594l2.416.579Zm9.658,4.177-1.9-4.322V77.948a9.494,9.494,0,0,0,3.8.006v1.161Zm9.638-4.174-.813-.194,2.429-.582a1.622,1.622,0,0,0,1.323-1.6c0-.013,0-.025,0-.038v-.5a7.033,7.033,0,0,0,1.811,0v.545a1.62,1.62,0,0,0,1.244,1.576l4.126.986a4.36,4.36,0,0,1,3.357,4.254V85.11h-6.588A9.932,9.932,0,0,0,129.376,79.253Z" transform="translate(-78.262 -45.252)"/>
        <path id="Trazado_126594" data-name="Trazado 126594" d="M247.62,295.67a1.618,1.618,0,1,0,1.145.473A1.627,1.627,0,0,0,247.62,295.67Z" transform="translate(-206.15 -247.774)"/>
        <path id="Trazado_126595" data-name="Trazado 126595" d="M247.614,5.664a1.62,1.62,0,0,0,1.62-1.62V1.62a1.62,1.62,0,0,0-3.24,0V4.044A1.62,1.62,0,0,0,247.614,5.664Z" transform="translate(-206.145)"/>
        <path id="Trazado_126596" data-name="Trazado 126596" d="M193.774,23.676a1.62,1.62,0,1,0,2.29-2.292l-1.7-1.7a1.62,1.62,0,1,0-2.29,2.292Z" transform="translate(-160.562 -16.101)"/>
        <path id="Trazado_126597" data-name="Trazado 126597" d="M291.366,24.4a1.614,1.614,0,0,0,1.146-.475l1.686-1.688a1.62,1.62,0,1,0-2.292-2.29l-1.686,1.688a1.62,1.62,0,0,0,1.146,2.765Z" transform="translate(-242.81 -16.316)"/>
      </g>
    </g>
  </g>
</svg>
