<svg xmlns="http://www.w3.org/2000/svg" width="69" height="69" viewBox="0 0 69 69">
  <g id="Grupo_1000293" data-name="Grupo 1000293" transform="translate(-286 -8939)">
    <g id="Elipse_5561" data-name="Elipse 5561" transform="translate(286 8939)" fill="none" stroke="#222b5a" stroke-width="1">
      <circle cx="34.5" cy="34.5" r="34.5" stroke="none"/>
      <circle cx="34.5" cy="34.5" r="34" fill="none"/>
    </g>
    <g id="administracion" transform="translate(296 8944)">
      <g id="Grupo_881702" data-name="Grupo 881702" transform="translate(1.79 1.79)">
        <g id="Grupo_881693" data-name="Grupo 881693">
          <path id="Trazado_126493" data-name="Trazado 126493" d="M23.726,7.485A10.271,10.271,0,0,1,42.812,9.919c.095-.008.19-.016.285-.016a6.323,6.323,0,0,1,0,12.645H24.129v-.126a7.771,7.771,0,0,0-7.777-7.777H7.722a2.56,2.56,0,0,0-2.561,2.561,2.59,2.59,0,0,0,.269,1.138l.522,1.043L4.877,20.1A2.944,2.944,0,0,0,3.9,21.2a5.535,5.535,0,0,1,3.628-9.713,5.654,5.654,0,0,1,1.834.316,8.691,8.691,0,0,1,14.36-4.315Z" transform="translate(-2 -2)" fill="#222b5a"/>
        </g>
        <g id="Grupo_881694" data-name="Grupo 881694" transform="translate(25.29 4.742)">
          <path id="Trazado_126494" data-name="Trazado 126494" d="M46.645,12.742V15.9l-1.17.427c-.032.071-.055.15-.087.221l.522,1.122L43.674,19.91l-1.122-.522c-.071.032-.15.055-.221.087l-.427,1.17H38.742l-.427-1.17c-.071-.032-.15-.055-.221-.087l-1.122.522-2.237-2.237.522-1.122c-.032-.071-.055-.15-.087-.221L34,15.9V12.742l1.17-.427c.032-.071.055-.15.087-.221l-.522-1.122,2.237-2.237,1.122.522c.071-.032.15-.055.221-.087L38.742,8H41.9l.427,1.17c.071.032.15.055.221.087l1.122-.522,2.237,2.237-.522,1.122c.032.071.055.15.087.221Zm-3.161,1.581a3.161,3.161,0,1,0-3.161,3.161A3.16,3.16,0,0,0,43.484,14.323Z" transform="translate(-34 -8)" fill="#f1b62b"/>
        </g>
        <g id="Grupo_881695" data-name="Grupo 881695" transform="translate(1.581 12.645)">
          <path id="Trazado_126495" data-name="Trazado 126495" d="M13.484,24.323H11.9a3.16,3.16,0,0,0-3.161,3.161v1.581h-.79a2.361,2.361,0,0,0-1.928,1l-1.6-2.671a2.907,2.907,0,0,1-.095-2.837,2.944,2.944,0,0,1,.972-1.1l1.075-.711L5.849,21.7a2.59,2.59,0,0,1-.269-1.138A2.56,2.56,0,0,1,8.141,18h8.63a7.771,7.771,0,0,1,7.777,7.777V25.9a15.218,15.218,0,0,1-.561,4,2.361,2.361,0,0,0-1.81-.838h-.79v-.79A2.368,2.368,0,0,0,19.016,25.9H15.065A1.585,1.585,0,0,1,13.484,24.323Z" transform="translate(-4 -18)" fill="#b27946"/>
        </g>
        <g id="Grupo_881696" data-name="Grupo 881696" transform="translate(5.082 44.258)">
          <path id="Trazado_126496" data-name="Trazado 126496" d="M8.43,58H23.557l-.087.624a2.954,2.954,0,0,1-2.924,2.537h-9.1a2.954,2.954,0,0,1-2.924-2.537Z" transform="translate(-8.43 -58)" fill="#179587"/>
        </g>
        <g id="Grupo_881697" data-name="Grupo 881697" transform="translate(11.094 36.325)">
          <circle id="Elipse_5039" data-name="Elipse 5039" cx="1.554" cy="1.554" r="1.554" transform="translate(0 0)" fill="#69d6f4"/>
        </g>
        <g id="Grupo_881698" data-name="Grupo 881698" transform="translate(3.952 33.194)">
          <path id="Trazado_126497" data-name="Trazado 126497" d="M24.387,46.948a2.431,2.431,0,0,1-.032.419l-1.1,7.7H8.13l-1.1-7.7A2.431,2.431,0,0,1,7,46.948,2.948,2.948,0,0,1,9.948,44H21.439a2.941,2.941,0,0,1,2.948,2.948Z" transform="translate(-7 -44)" fill="#179587"/>
        </g>
        <g id="Grupo_881699" data-name="Grupo 881699" transform="translate(18.968 23.71)">
          <path id="Trazado_126498" data-name="Trazado 126498" d="M28.6,32.838a2.373,2.373,0,0,1-1.81,3.9H26V32h.79A2.361,2.361,0,0,1,28.6,32.838Z" transform="translate(-26 -32)" fill="#f0d0b4"/>
        </g>
        <g id="Grupo_881700" data-name="Grupo 881700" transform="translate(6.323 18.968)">
          <path id="Trazado_126499" data-name="Trazado 126499" d="M22.645,30.742v4.742A4.746,4.746,0,0,1,17.9,40.226H14.742A4.746,4.746,0,0,1,10,35.484V29.161A3.16,3.16,0,0,1,13.161,26h1.581a1.585,1.585,0,0,0,1.581,1.581h3.952a2.368,2.368,0,0,1,2.371,2.371Z" transform="translate(-10 -26)" fill="#f0d0b4"/>
        </g>
        <g id="Grupo_881701" data-name="Grupo 881701" transform="translate(3.161 23.71)">
          <path id="Trazado_126500" data-name="Trazado 126500" d="M9.161,32v4.742h-.79a2.371,2.371,0,0,1,0-4.742Z" transform="translate(-6 -32)" fill="#f0d0b4"/>
        </g>
      </g>
      <g id="Grupo_881703" data-name="Grupo 881703" transform="translate(1 1)">
        <path id="Trazado_126501" data-name="Trazado 126501" d="M15,49.371A2.371,2.371,0,1,0,17.371,47,2.374,2.374,0,0,0,15,49.371Zm2.371-.79a.79.79,0,1,1-.79.79A.791.791,0,0,1,17.371,48.581Z" transform="translate(-3.935 -10.645)"/>
        <path id="Trazado_126502" data-name="Trazado 126502" d="M47.368,43.483l2.57,1.713H32v1.581H49.938l-2.57,1.713.877,1.315,5.728-3.819-5.728-3.819Z" transform="translate(-7.5 -9.632)" fill="#ee4e5d"/>
        <path id="Trazado_126503" data-name="Trazado 126503" d="M45.065,56.083V52.371A2.374,2.374,0,0,0,42.694,50H34v1.581h8.694a.791.791,0,0,1,.79.79v3.712l-1.713-2.57-1.315.876,3.819,5.729,3.819-5.728-1.315-.876Z" transform="translate(-7.919 -11.274)" fill="#ee4e5d"/>
        <path id="Trazado_126504" data-name="Trazado 126504" d="M42.694,39.735H34v1.581h8.694a2.374,2.374,0,0,0,2.371-2.371V35.232l1.713,2.57,1.315-.876L44.274,31.2l-3.819,5.728,1.315.876,1.713-2.569v3.712A.791.791,0,0,1,42.694,39.735Z" transform="translate(-7.919 -7.332)" fill="#ee4e5d"/>
        <path id="Trazado_126505" data-name="Trazado 126505" d="M43.21,8.91a11.056,11.056,0,0,0-19.9-2.825A9.462,9.462,0,0,0,8.616,10.621a6.212,6.212,0,0,0-1.293-.137,6.317,6.317,0,0,0-4.556,10.7,3.663,3.663,0,0,0,.343,3.047l1.37,2.284a3.125,3.125,0,0,0-.319,1.358,3.164,3.164,0,0,0,3.161,3.161h.063a5.513,5.513,0,0,0,1.605,3.161h-.3a3.746,3.746,0,0,0-3.742,3.741,3.856,3.856,0,0,0,.037.53l1.189,8.322A3.76,3.76,0,0,0,9.882,50h9.105a3.762,3.762,0,0,0,3.705-3.213l1.189-8.325a3.743,3.743,0,0,0-3.7-4.269h-.3a5.522,5.522,0,0,0,1.605-3.161h.062a3.151,3.151,0,0,0,2.659-4.857,16.161,16.161,0,0,0,.471-3.047H42.887A7.113,7.113,0,0,0,43.21,8.91ZM5.742,27.871A1.582,1.582,0,0,1,7.323,26.29v3.161A1.582,1.582,0,0,1,5.742,27.871ZM18.989,48.419H9.882a2.167,2.167,0,0,1-2.074-1.581H21.062A2.168,2.168,0,0,1,18.989,48.419Zm1.189-12.645a2.164,2.164,0,0,1,2.161,2.161,2.3,2.3,0,0,1-.021.306l-1,7.017H7.557l-1-7.014a2.379,2.379,0,0,1-.021-.309,2.164,2.164,0,0,1,2.161-2.161H20.178Zm-.21-5.532a3.956,3.956,0,0,1-3.952,3.952H12.855A3.956,3.956,0,0,1,8.9,30.242V23.919a2.374,2.374,0,0,1,2.371-2.371H12.2a2.376,2.376,0,0,0,2.236,1.581h3.952a1.582,1.582,0,0,1,1.581,1.581Zm-1.581-8.694H14.435a.79.79,0,1,1,0-1.581h.79V18.387h-.79A2.376,2.376,0,0,0,12.2,19.968h-.925a3.956,3.956,0,0,0-3.952,3.952v.79a3.141,3.141,0,0,0-1.759.537l-1.1-1.831a2.129,2.129,0,0,1,.644-2.867l1.652-1.1-.832-1.665a1.767,1.767,0,0,1,1.581-2.557h8.635a6.993,6.993,0,0,1,6.985,6.985A14.617,14.617,0,0,1,22.856,25a3.136,3.136,0,0,0-1.307-.291,3.164,3.164,0,0,0-3.161-3.161Zm3.161,7.9V26.29a1.581,1.581,0,0,1,0,3.161Zm21.339-7.9H24.676a8.571,8.571,0,0,0-8.532-7.9H7.509a3.348,3.348,0,0,0-2.995,4.845l.209.417-.491.326a3.693,3.693,0,0,0-.616.522,4.732,4.732,0,0,1,5.278-7.417l.824.29.206-.849a7.9,7.9,0,0,1,14.3-2.444l1.325-.864a9.578,9.578,0,0,0-1.05-1.31A9.476,9.476,0,0,1,41.835,9.889l.15.638.775-.036c.043,0,.084-.006.126-.006a5.532,5.532,0,1,1,0,11.065Z" transform="translate(-1 -1)"/>
        <path id="Trazado_126506" data-name="Trazado 126506" d="M46.652,10.593,43.633,7.574l-1.006.47L42.248,7H37.978L37.6,8.044l-1.006-.47-3.019,3.019.471,1.006L33,11.978v4.269l1.044.379-.471,1.006,3.019,3.019,1.006-.47.38,1.045h4.269l.379-1.044,1.006.47,3.019-3.019-.471-1.006,1.046-.379V11.979L46.182,11.6ZM45.645,15.14l-.65.236-.35.161-.336.815.443.947L43.3,18.751l-.949-.444-.329.145c-.055.025-.113.047-.189.077l-.333.13-.36.987H39.086l-.379-.994-.334-.13c-.056-.022-.114-.044-.169-.069l-.329-.145-.949.444L35.475,17.3l.443-.947-.352-.854-.985-.359V13.085l.65-.236.349-.155.338-.821-.443-.947,1.453-1.452.949.444.85-.351.36-.988H41.14l.236.65.155.349.818.337.949-.444,1.453,1.452-.443.947.351.855.986.359Z" transform="translate(-7.71 -2.258)"/>
        <path id="Trazado_126507" data-name="Trazado 126507" d="M40.952,11A3.952,3.952,0,1,0,44.9,14.952,3.956,3.956,0,0,0,40.952,11Zm0,6.323a2.371,2.371,0,1,1,2.371-2.371A2.374,2.374,0,0,1,40.952,17.323Z" transform="translate(-8.548 -3.097)"/>
        <ellipse id="Elipse_5040" data-name="Elipse 5040" cx="0.823" cy="0.731" rx="0.823" ry="0.731" transform="translate(9.507 23.769)"/>
        <ellipse id="Elipse_5041" data-name="Elipse 5041" cx="0.823" cy="0.731" rx="0.823" ry="0.731" transform="translate(15.724 23.769)"/>
        <path id="Trazado_126508" data-name="Trazado 126508" d="M18.764,37.72a1.767,1.767,0,0,1-3.161,0l-.083-.167-1.414.707.083.166a3.348,3.348,0,0,0,5.989,0l.083-.167-1.414-.707Z" transform="translate(-3.748 -8.664)"/>
        <path id="Trazado_126509" data-name="Trazado 126509" d="M26.331,10.435l-.9,1.3a4.748,4.748,0,0,1,1.182,1.182l1.3-.9a6.3,6.3,0,0,0-1.576-1.575Z" transform="translate(-6.122 -2.978)"/>
        <path id="Trazado_126510" data-name="Trazado 126510" d="M14.332,13.517l1.514.45a4.77,4.77,0,0,1,4.546-3.387,4.7,4.7,0,0,1,1.355.2L22.2,9.262a6.328,6.328,0,0,0-7.867,4.254Z" transform="translate(-3.795 -2.677)"/>
      </g>
    </g>
  </g>
</svg>
