<svg xmlns="http://www.w3.org/2000/svg" width="69" height="69" viewBox="0 0 69 69">
  <g id="Grupo_1000287" data-name="Grupo 1000287" transform="translate(-1328 -8376)">
    <g id="Elipse_5555" data-name="Elipse 5555" transform="translate(1328 8376)" fill="none" stroke="#222b5a" stroke-width="1">
      <circle cx="34.5" cy="34.5" r="34.5" stroke="none"/>
      <circle cx="34.5" cy="34.5" r="34" fill="none"/>
    </g>
    <g id="Filled_outline" data-name="Filled outline" transform="translate(1339.374 8385.373)">
      <path id="Trazado_126388" data-name="Trazado 126388" d="M252.951,25.85a4.625,4.625,0,0,1,.925,2.775V32.2a2.538,2.538,0,0,0,.744,1.8,2.725,2.725,0,0,1-1.927,4.653h-9.967a2.725,2.725,0,0,1-1.927-4.653,2.538,2.538,0,0,0,.744-1.795V28.625A4.625,4.625,0,0,1,246.167,24h3.084a4.625,4.625,0,0,1,3.7,1.85Z" transform="translate(-218.415 -23.229)" fill="#bfbfbd"/>
      <path id="Trazado_126389" data-name="Trazado 126389" d="M281.251,54.938a4.625,4.625,0,0,1-4.625,4.625,4.677,4.677,0,0,1-1.047-.119A4.63,4.63,0,0,1,272,54.938V51.084a4.988,4.988,0,0,0,4.463-2.758l.163-.325c.069,0,.139,0,.207.009a2.612,2.612,0,0,1,2.405,2.6,2.667,2.667,0,0,1-.036.434l-.161.968a2.515,2.515,0,0,0,1.7,2.805A4,4,0,0,0,281.251,54.938Z" transform="translate(-247.332 -44.916)" fill="#fec9a3"/>
      <path id="Trazado_126390" data-name="Trazado 126390" d="M314.809,55.019a4.625,4.625,0,0,1-4.625,4.625,4.676,4.676,0,0,1-1.047-.119,6.915,6.915,0,0,0,2.121-4.992V51.45a6.9,6.9,0,0,0-.867-3.36,2.612,2.612,0,0,1,2.405,2.6,2.671,2.671,0,0,1-.036.434l-.161.968a2.515,2.515,0,0,0,1.7,2.805A4,4,0,0,0,314.809,55.019Z" transform="translate(-280.89 -44.998)" fill="#fec093"/>
      <path id="Trazado_126391" data-name="Trazado 126391" d="M269.105,179.084v13.1H256v-13.1A3.084,3.084,0,0,1,259.084,176h6.938a3.082,3.082,0,0,1,3.084,3.084Z" transform="translate(-232.874 -160.582)" fill="#ee4e5d"/>
      <path id="Trazado_126392" data-name="Trazado 126392" d="M269.105,181.722v13.1H256v-6.314a32.875,32.875,0,0,0,11.31-9.594A3.085,3.085,0,0,1,269.105,181.722Z" transform="translate(-232.874 -163.221)" fill="#cc6395"/>
      <path id="Trazado_126393" data-name="Trazado 126393" d="M153.251,28.625v3.084a4.624,4.624,0,0,1-4.53,4.623c-.031,0-.063,0-.1,0A4.625,4.625,0,0,1,144,31.709V28.625a4.625,4.625,0,0,1,9.251,0Z" transform="translate(-131.666 -23.229)" fill="#fec9a3"/>
      <path id="Trazado_126394" data-name="Trazado 126394" d="M185.962,28.618V31.7a4.623,4.623,0,0,1-4.53,4.623,6.9,6.9,0,0,0,1.172-3.856V29.385a6.916,6.916,0,0,0-2.032-4.906q-.179-.179-.372-.346a4.627,4.627,0,0,1,5.762,4.485Z" transform="translate(-164.378 -23.222)" fill="#fec093"/>
      <path id="Trazado_126395" data-name="Trazado 126395" d="M144,104l1.395,1.395a1.8,1.8,0,0,0,2.079.337,1.8,1.8,0,0,1,.806-.19h.691a1.8,1.8,0,0,1,.806.19,1.8,1.8,0,0,0,2.08-.337L153.251,104v3.854a3.084,3.084,0,0,1-3.084,3.084h-3.084A3.084,3.084,0,0,1,144,107.854Z" transform="translate(-131.666 -95.52)" fill="#92563a"/>
      <path id="Trazado_126396" data-name="Trazado 126396" d="M144,28.733a1.649,1.649,0,0,1,1.649-1.649h.274a1.649,1.649,0,0,1,.737.174l.846.423a1.649,1.649,0,0,0,.737.174h.828a1.648,1.648,0,0,0,.626-.123l1.279-.524a1.649,1.649,0,0,1,2.274,1.526V27.317A3.317,3.317,0,0,0,149.934,24h-2.617A3.317,3.317,0,0,0,144,27.317Z" transform="translate(-131.666 -23.229)" fill="#92563a"/>
      <path id="Trazado_126397" data-name="Trazado 126397" d="M133.1,179.083v13.1H120v-13.1A3.084,3.084,0,0,1,123.084,176h6.938a3.079,3.079,0,0,1,3.084,3.084Z" transform="translate(-109.979 -160.582)" fill="#179587"/>
      <path id="Trazado_126398" data-name="Trazado 126398" d="M133.1,180.891V194H120V185.69A33.006,33.006,0,0,0,131.1,178a3.086,3.086,0,0,1,2.007,2.891Z" transform="translate(-109.979 -162.39)" fill="#179587"/>
      <path id="Trazado_126399" data-name="Trazado 126399" d="M120,344h13.1v13.876H120Z" transform="translate(-109.979 -312.394)" fill="#f35244"/>
      <path id="Trazado_126400" data-name="Trazado 126400" d="M36.334,267.854v13.1h-8.48V270.167H24v-2.313A3.854,3.854,0,0,1,27.854,264H32.48a3.857,3.857,0,0,1,3.854,3.854Z" transform="translate(-23.229 -240.103)" fill="#222b5a"/>
      <path id="Trazado_126401" data-name="Trazado 126401" d="M72.48,276.538v13.1H64V280.48a28.063,28.063,0,0,0,7.13-6.87A3.84,3.84,0,0,1,72.48,276.538Z" transform="translate(-59.375 -248.787)" fill="#222b5a"/>
      <path id="Trazado_126402" data-name="Trazado 126402" d="M64,440h8.48v4.625H64Z" transform="translate(-59.375 -399.143)" fill="#7a432a"/>
      <path id="Trazado_126403" data-name="Trazado 126403" d="M35.563,335.709h-8.48A3.084,3.084,0,0,1,24,332.625V328h4.625v3.854h4.625l2.313-.771Z" transform="translate(-23.229 -297.936)" fill="#fec9a3"/>
      <path id="Trazado_126404" data-name="Trazado 126404" d="M364.334,300.043H352V280h9.251l.313,2.507,1.229,9.827Z" transform="translate(-319.623 -254.561)" fill="#179587"/>
      <path id="Trazado_126405" data-name="Trazado 126405" d="M364.334,323.556H352v-9.464a23.916,23.916,0,0,0,9.564-8.072l1.229,9.827Z" transform="translate(-319.623 -278.074)" fill="#179587"/>
      <path id="Trazado_126406" data-name="Trazado 126406" d="M315.854,280v10.021H312v-6.167A3.854,3.854,0,0,1,315.854,280Z" transform="translate(-283.477 -254.561)" fill="#feb784"/>
      <path id="Trazado_126407" data-name="Trazado 126407" d="M390.167,280v8.48H384v3.854h6.938a3.084,3.084,0,0,0,3.083-3.084v-5.4A3.854,3.854,0,0,0,390.167,280Z" transform="translate(-348.539 -254.561)" fill="#feb784"/>
      <path id="Trazado_126408" data-name="Trazado 126408" d="M65.251,164.625v2.313a4.625,4.625,0,0,1-4.625,4.625c-.07,0-.141,0-.21,0A4.625,4.625,0,0,1,56,166.938v-2.313A4.625,4.625,0,0,1,60.625,160q.2,0,.4.017A4.626,4.626,0,0,1,65.251,164.625Z" transform="translate(-52.146 -146.124)" fill="#fec9a3"/>
      <path id="Trazado_126409" data-name="Trazado 126409" d="M106.655,164.788V167.1a4.625,4.625,0,0,1-4.625,4.625c-.07,0-.141,0-.21,0a6.91,6.91,0,0,0,1.766-4.624v-3.084a6.9,6.9,0,0,0-1.154-3.833A4.626,4.626,0,0,1,106.655,164.788Z" transform="translate(-93.55 -146.287)" fill="#fec093"/>
      <path id="Trazado_126410" data-name="Trazado 126410" d="M56,171.854v-1.542A2.313,2.313,0,0,1,58.313,168Z" transform="translate(-52.146 -153.353)" fill="#804a32"/>
      <path id="Trazado_126411" data-name="Trazado 126411" d="M65.251,155.084V157.4l-3.084-2.313H58.313A2.313,2.313,0,0,1,56,152.771V152h6.167A3.084,3.084,0,0,1,65.251,155.084Z" transform="translate(-52.146 -138.895)" fill="#92563a"/>
      <path id="Trazado_126412" data-name="Trazado 126412" d="M434.313,184H432v3.084h2.313v3.084a3.084,3.084,0,0,0,3.084,3.084v-6.167A3.084,3.084,0,0,0,434.313,184Z" transform="translate(-391.914 -167.811)" fill="#f1b62b"/>
      <path id="Trazado_126413" data-name="Trazado 126413" d="M369.251,180.625v2.313a4.625,4.625,0,0,1-4.137,4.6,4.556,4.556,0,0,1-.488.026A4.625,4.625,0,0,1,360,182.938v-2.313A4.625,4.625,0,0,1,364.625,176c.113,0,.225,0,.335.013A4.625,4.625,0,0,1,369.251,180.625Z" transform="translate(-326.852 -160.582)" fill="#fec9a3"/>
      <path id="Trazado_126414" data-name="Trazado 126414" d="M415.77,180.743v2.313a4.625,4.625,0,0,1-4.137,4.6,6.906,6.906,0,0,0,1.357-4.121V180.45a6.9,6.9,0,0,0-1.51-4.32A4.625,4.625,0,0,1,415.77,180.743Z" transform="translate(-373.371 -160.7)" fill="#fec093"/>
      <path id="Trazado_126415" data-name="Trazado 126415" d="M360,174.167a8.325,8.325,0,0,0,6.167-3.084,5.265,5.265,0,0,0,3.084,3.084v-1.542a4.625,4.625,0,0,0-9.251,0Z" transform="translate(-326.852 -153.353)" fill="#f1b62b"/>
      <path id="Trazado_126416" data-name="Trazado 126416" d="M360,368h3.084v8.48H360Z" transform="translate(-326.852 -334.081)" fill="#fec9a3"/>
      <path id="Trazado_126417" data-name="Trazado 126417" d="M25.542,256h.771a1.542,1.542,0,0,1,1.542,1.542v1.542H24v-1.542A1.542,1.542,0,0,1,25.542,256Z" transform="translate(-23.229 -232.874)" fill="#fec9a3"/>
      <path id="Trazado_126418" data-name="Trazado 126418" d="M141.876,350.647H128l1.268-6.342.274-1.366v-3.854A3.083,3.083,0,0,1,132.625,336h4.625a3.074,3.074,0,0,1,2.181.9c.052.052.1.105.149.161a3.071,3.071,0,0,1,.754,2.02v3.854Z" transform="translate(-117.208 -305.165)" fill="#ee4e5d"/>
      <path id="Trazado_126419" data-name="Trazado 126419" d="M141.876,360.623H128l1.268-6.342a24.841,24.841,0,0,0,10.312-7.24,3.071,3.071,0,0,1,.754,2.02v3.854Z" transform="translate(-117.208 -315.141)" fill="#ee4e5d"/>
      <path id="Trazado_126420" data-name="Trazado 126420" d="M144.771,383.709h3.084L147.083,376H144Z" transform="translate(-131.666 -341.31)" fill="#fec9a3"/>
      <path id="Trazado_126421" data-name="Trazado 126421" d="M219.083,383.709H216l.771-7.709h3.084Z" transform="translate(-196.728 -341.31)" fill="#feb784"/>
      <path id="Trazado_126422" data-name="Trazado 126422" d="M120,255.709v-4.625A3.084,3.084,0,0,1,123.084,248H125.4v3.084h-2.313v1.542A3.084,3.084,0,0,1,120,255.709Z" transform="translate(-109.979 -225.644)" fill="#f57707"/>
      <path id="Trazado_126423" data-name="Trazado 126423" d="M161.251,228.625v1.542a4.625,4.625,0,0,1-9.251,0v-1.542a4.625,4.625,0,0,1,9.251,0Z" transform="translate(-138.895 -203.957)" fill="#fec9a3"/>
      <path id="Trazado_126424" data-name="Trazado 126424" d="M210.942,229.086v1.542a4.628,4.628,0,0,1-3.083,4.362,6.907,6.907,0,0,0,.689-3.017V228.89a6.909,6.909,0,0,0-1.557-4.38,4.626,4.626,0,0,1,3.952,4.576Z" transform="translate(-188.586 -204.418)" fill="#fec093"/>
      <path id="Trazado_126425" data-name="Trazado 126425" d="M161.251,221.4h-.676a4.071,4.071,0,0,1-3.949-3.084,4.071,4.071,0,0,1-3.949,3.084H152v-.771a4.625,4.625,0,0,1,9.251,0Z" transform="translate(-138.895 -196.728)" fill="#f98500"/>
      <path id="Trazado_126426" data-name="Trazado 126426" d="M281.251,204.625v1.542a4.625,4.625,0,0,1-4.3,4.614q-.162.012-.327.012A4.625,4.625,0,0,1,272,206.167v-1.542A4.625,4.625,0,0,1,276.625,200a4.451,4.451,0,0,1,.469.024A4.625,4.625,0,0,1,281.251,204.625Z" transform="translate(-247.332 -182.27)" fill="#fec9a3"/>
      <path id="Trazado_126427" data-name="Trazado 126427" d="M327.689,204.851v1.542a4.625,4.625,0,0,1-4.3,4.614,6.9,6.9,0,0,0,1.23-3.943V203.98a6.907,6.907,0,0,0-1.087-3.73,4.625,4.625,0,0,1,4.156,4.6Z" transform="translate(-293.77 -182.496)" fill="#fec093"/>
      <path id="Trazado_126428" data-name="Trazado 126428" d="M279.551,200.771a3.113,3.113,0,0,0,2.313,3.854,4.625,4.625,0,0,0-9.185-.772C273.294,203.842,278.109,203.655,279.551,200.771Z" transform="translate(-247.945 -182.27)" fill="#92563a"/>
      <path id="Trazado_126429" data-name="Trazado 126429" d="M261.876,315.083V317.4h-3.083v4.625h-7.709V317.4H248v-2.313A3.083,3.083,0,0,1,251.084,312h7.709a3.079,3.079,0,0,1,3.083,3.083Z" transform="translate(-225.644 -283.477)" fill="#f1b62b"/>
      <path id="Trazado_126430" data-name="Trazado 126430" d="M290.792,317.343v2.313h-3.084v4.625H280v-3.167a25.2,25.2,0,0,0,8.908-6.613A3.087,3.087,0,0,1,290.792,317.343Z" transform="translate(-254.561 -285.736)" fill="#f1b62b"/>
      <path id="Trazado_126431" data-name="Trazado 126431" d="M280,416h7.709v6.938H280Z" transform="translate(-254.561 -377.456)" fill="#7a432a"/>
      <path id="Trazado_126432" data-name="Trazado 126432" d="M248,368h3.084v8.48H248Z" transform="translate(-225.644 -334.081)" fill="#fec9a3"/>
      <path id="Trazado_126433" data-name="Trazado 126433" d="M296,96h1.542v1.542H296Z" transform="translate(-269.019 -88.291)"/>
      <path id="Trazado_126434" data-name="Trazado 126434" d="M168,88h1.542v1.542H168Z" transform="translate(-153.353 -81.062)"/>
      <path id="Trazado_126435" data-name="Trazado 126435" d="M200,88h1.542v1.542H200Z" transform="translate(-182.27 -81.062)"/>
      <path id="Trazado_126436" data-name="Trazado 126436" d="M80,216h1.542v1.542H80Z" transform="translate(-73.833 -196.728)"/>
      <path id="Trazado_126437" data-name="Trazado 126437" d="M112,216h1.542v1.542H112Z" transform="translate(-102.749 -196.728)"/>
      <path id="Trazado_126438" data-name="Trazado 126438" d="M62.253,41.439V35.272A3.854,3.854,0,0,0,58.4,31.418h-.851a5.4,5.4,0,0,0-3.774-1.542c-.07,0-.139,0-.208,0a3.5,3.5,0,0,0-.816-3.661,1.756,1.756,0,0,1-.518-1.25V21.4a5.43,5.43,0,0,0-1.079-3.238l0,0A5.422,5.422,0,0,0,46.835,16H43.752a5.422,5.422,0,0,0-4.314,2.155l0,0A5.43,5.43,0,0,0,38.356,21.4V20.088A4.088,4.088,0,0,0,34.268,16H31.651a4.088,4.088,0,0,0-4.088,4.088v8.246c0,.111.006.221.015.33a3.83,3.83,0,0,0-1.557-.33H19.854a.771.771,0,0,0-.771.771v.771a3.064,3.064,0,0,0,.414,1.541,3.076,3.076,0,0,0-.414,1.542v3.854a5.4,5.4,0,0,0,.229,1.553,2.276,2.276,0,0,0-.229-.011h-.771A2.315,2.315,0,0,0,16,40.668V42.21a.767.767,0,0,0,.135.435A4.609,4.609,0,0,0,16,43.752V50.69a3.859,3.859,0,0,0,3.854,3.854v6.938a.771.771,0,0,0,.771.771H60.711a.771.771,0,0,0,.756-.922l-1.43-7.152a3.85,3.85,0,0,0,2.216-3.489v-5.4a4.608,4.608,0,0,0-1.2-3.108,3.879,3.879,0,0,0,.432.025A.771.771,0,0,0,62.253,41.439Zm-8.48-10.021a3.855,3.855,0,0,1,3.854,3.854v.29a4.8,4.8,0,0,1-1.581-2.076.771.771,0,0,0-1.348-.219A6.662,6.662,0,0,1,51.929,35.4a7.892,7.892,0,0,1-.814.3,8.435,8.435,0,0,1-1,.239c-.061-.122-.126-.241-.2-.358v-.307a3.825,3.825,0,0,1,1.129-2.725c.047-.047.1-.1.154-.145a3.84,3.84,0,0,1,2.571-.984Zm-.848,15.418a3.861,3.861,0,0,0-3.777-3.084h-.083a5.424,5.424,0,0,0,1.049-1.433,5.438,5.438,0,0,0,1.473.972c.13.058.261.11.387.154a5.4,5.4,0,0,0,4.883-.664v4.054Zm3.931,1.542v.771H53v-.771ZM46.912,23.709h-.847v1.542H47.4a3.281,3.281,0,0,0,1.7,1.358,3.854,3.854,0,0,1-7.664-.587V22.887a5.721,5.721,0,0,0,4.3-2.978A1.842,1.842,0,0,1,47.11,22l-.161.967A3.28,3.28,0,0,0,46.912,23.709Zm2.236,8.48c.064,0,.127,0,.191.009a5.328,5.328,0,0,0-.818,1.836A5.394,5.394,0,0,0,39.9,38.356V34.5a2.315,2.315,0,0,1,2.313-2.313Zm-.257,4.786a1.963,1.963,0,0,1-.514-.929A3.854,3.854,0,0,1,48.891,36.975Zm-2.339-2.262c-1.044,1.271-3.125,1.836-4.756,2.024A3.85,3.85,0,0,1,46.552,34.713ZM41.439,39.9V38.356c0-.012,0-.025,0-.037a14.067,14.067,0,0,0,2.627-.456,8.136,8.136,0,0,0,2.838-1.348,3.5,3.5,0,0,0,2.243,2.407V39.9a3.854,3.854,0,0,1-7.709,0Zm.083,3.854h-.083a3.831,3.831,0,0,0-1.542.323V39.9A5.379,5.379,0,0,0,41.522,43.752Zm15.123-2.826a3.86,3.86,0,0,1-4.159,1.065c-.09-.031-.182-.068-.275-.109a3.884,3.884,0,0,1-1.313-.958,3.746,3.746,0,0,1-.257-.321c.03-.231.018-2.883-.036-3.189.262-.052.55-.121.855-.21v1.152H53V36.814h-.454A8.364,8.364,0,0,0,55.141,35.1a5.94,5.94,0,0,0,2.108,2.048c.124.069.251.132.38.191v1.019a3.844,3.844,0,0,1-.983,2.57Zm-5.41-14.133a3.35,3.35,0,0,0,.423.518,1.955,1.955,0,0,1-1.382,3.337H48.07a5.407,5.407,0,0,0,2.565-3.854ZM39.9,21.4a3.879,3.879,0,0,1,.769-2.31l0,0a3.872,3.872,0,0,1,3.084-1.542h3.084a3.872,3.872,0,0,1,3.084,1.542l0,0a3.878,3.878,0,0,1,.769,2.31V24.97c0,.094,0,.188.013.281H50.19a1.744,1.744,0,0,1-1.721-2.031l.161-.967a3.383,3.383,0,0,0-3.337-3.939.771.771,0,0,0-.69.426l-.163.325A4.2,4.2,0,0,1,40.668,21.4a.771.771,0,0,0-.771.771Zm-.969,5.914a3.288,3.288,0,0,0,.969-2.34v1.051a5.4,5.4,0,0,0,2.62,4.625H40.31a1.955,1.955,0,0,1-1.382-3.337Zm.33,4.716c-.045.054-.089.109-.132.165a3.879,3.879,0,0,0-.27-.32A3.454,3.454,0,0,0,39.258,32.026ZM37.493,30.76q.1.138.216.266-.159-.077-.325-.138C37.422,30.846,37.458,30.8,37.493,30.76Zm.862,3.741v2.62a5.389,5.389,0,0,0-8.48-1V32.188h6.167A2.315,2.315,0,0,1,38.356,34.5Zm-8.48,7.709v-.774A4.833,4.833,0,0,0,33.73,39.4a4.833,4.833,0,0,0,3.854,2.035v.774a3.854,3.854,0,0,1-7.709,0Zm.3,4.059q-.156.053-.307.119,0-.215,0-.41.149.152.308.292Zm-.3-6.373a3.854,3.854,0,1,1,7.709,0,3.3,3.3,0,0,1-3.107-2.5.771.771,0,0,0-1.5,0,3.3,3.3,0,0,1-3.107,2.5Zm8.48,5.09v.31a3.846,3.846,0,0,0-.6,1.17,3.842,3.842,0,0,0-.476-.2A5.437,5.437,0,0,0,38.356,44.986ZM30.239,17.969a2.538,2.538,0,0,1,1.412-.428h2.617a2.547,2.547,0,0,1,2.383,1.649,2.422,2.422,0,0,0-1.634.073l-1.279.524a.875.875,0,0,1-.333.066h-.828a.883.883,0,0,1-.393-.093l-.845-.423a2.433,2.433,0,0,0-1.082-.255h-.274a2.41,2.41,0,0,0-.716.108,2.541,2.541,0,0,1,.971-1.222ZM29.1,21.5a.879.879,0,0,1,.878-.878h.274a.883.883,0,0,1,.393.093l.845.423a2.433,2.433,0,0,0,1.082.255h.828a2.409,2.409,0,0,0,.918-.181l1.279-.524a.878.878,0,0,1,1.211.813V24.16l-1.169,1.169a1.03,1.03,0,0,1-1.19.193,2.587,2.587,0,0,0-1.15-.271h-.691a2.587,2.587,0,0,0-1.151.272,1.029,1.029,0,0,1-1.19-.193L29.1,24.16Zm0,4.837.079.079a2.569,2.569,0,0,0,2.969.482,1.037,1.037,0,0,1,.461-.109H33.3a1.037,1.037,0,0,1,.461.109,2.569,2.569,0,0,0,2.969-.482l.079-.079v1.993A2.315,2.315,0,0,1,34.5,30.647H31.418A2.315,2.315,0,0,1,29.1,28.334Zm-3.084,3.535a2.315,2.315,0,0,1,2.313,2.313v.771l-1.85-1.388a.771.771,0,0,0-.463-.154H22.167a1.544,1.544,0,0,1-1.542-1.542Zm2.353,9.369a5.437,5.437,0,0,0-.041.652v3.084a2.317,2.317,0,0,1-1.542,2.181V41.439a2.316,2.316,0,0,1,1.583-2.194Zm-7.75-4.53L21.7,32.924a3.1,3.1,0,0,0,.467.035h3.6l2.57,1.927v1.927a3.87,3.87,0,0,1-.1.871,3.866,3.866,0,0,0-2.884,2.885,3.87,3.87,0,0,1-2.081-.095l-.019-.006a3.86,3.86,0,0,1-2.625-3.654Zm-3.084,5.954a.772.772,0,0,1,.771-.771h.771a.772.772,0,0,1,.771.771v.771H17.542Zm0,3.084a3.073,3.073,0,0,1,.1-.771h2.986a.771.771,0,0,0,.771-.771v-.971a5.375,5.375,0,0,0,1.389.7l.022.007a5.38,5.38,0,0,0,1.673.265,5.441,5.441,0,0,0,.771-.056v3.91a.771.771,0,0,0,.771.771,3.834,3.834,0,0,0,2.309-.77c0,.53,0,1.068,0,1.542a3.843,3.843,0,0,0-.5.9l-1.937.646H22.167V46.064a.771.771,0,0,0-.771-.771H17.542ZM26.16,60.711H21.4V57.628h5.381Zm.925-4.625H21.4V54.544h6ZM27.563,53H19.854a2.315,2.315,0,0,1-2.313-2.313V46.835h3.084v3.084a.771.771,0,0,0,.771.771h4.625a.771.771,0,0,0,.244-.04l1.3-.433Zm.169,7.709.553-2.763.053.527a.771.771,0,0,0,.767.694h3.084a.771.771,0,0,0,.767-.848l-.771-7.709a.771.771,0,0,0-.767-.694H29.1a2.307,2.307,0,0,1,.576-1.527,2.519,2.519,0,0,1,.207-.207,2.309,2.309,0,0,1,1.53-.578h4.625a2.31,2.31,0,0,1,1.531.579l.011.01v1.723H36.043a.771.771,0,0,0-.767.694l-.771,7.709a.771.771,0,0,0,.767.848H39.42l.308,1.542Zm1.453-9.251H30.72l.617,6.167H29.8Zm8.4,0v6.167H36.124l.617-6.167Zm3.084,6.167H39.126V50.69h1.542Zm7.709,3.084H46.064V56.857H44.523v3.854H42.21v-5.4h6.167Zm0-6.938H42.21V47.606H40.668v1.542H39.126V47.606a2.315,2.315,0,0,1,2.313-2.313h7.709a2.315,2.315,0,0,1,2.313,2.313v1.542H49.919V47.606H48.377Zm3.084-3.084v6.938H49.919V50.69ZM49.919,60.711V59.169h2.313A.771.771,0,0,0,53,58.4V54.544h5.4c.046,0,.092,0,.138,0l1.234,6.171ZM60.711,50.69A2.31,2.31,0,0,1,58.4,53H53V50.69h4.625a.771.771,0,0,0,.771-.771V42.307a3.089,3.089,0,0,1,2.313,2.986Zm0-10.154a2.317,2.317,0,0,1-1.542-2.181V35.272a5.39,5.39,0,0,0-.514-2.3,2.311,2.311,0,0,1,2.056,2.3Z" transform="translate(-16 -16)"/>
      <path id="Trazado_126439" data-name="Trazado 126439" d="M416,232h1.542v1.542H416Z" transform="translate(-377.456 -211.186)"/>
      <path id="Trazado_126440" data-name="Trazado 126440" d="M296,256h1.542v1.542H296Z" transform="translate(-269.019 -232.874)"/>
      <path id="Trazado_126441" data-name="Trazado 126441" d="M328,256h1.542v1.542H328Z" transform="translate(-297.936 -232.874)"/>
      <path id="Trazado_126442" data-name="Trazado 126442" d="M176,280h1.542v1.542H176Z" transform="translate(-160.582 -254.561)"/>
      <path id="Trazado_126443" data-name="Trazado 126443" d="M208,280h1.542v1.542H208Z" transform="translate(-189.499 -254.561)"/>
    </g>
  </g>
</svg>
