<svg xmlns="http://www.w3.org/2000/svg" width="110" height="110" viewBox="0 0 110 110">
  <g id="Grupo_1000272" data-name="Grupo 1000272" transform="translate(-226.22 -7297)">
    <g id="Grupo_1000164" data-name="Grupo 1000164" transform="translate(226.22 7297)">
      <g id="Elipse_5478" data-name="Elipse 5478" transform="translate(0 0)" fill="#fff" stroke="#222b5a" stroke-width="3">
        <ellipse cx="55" cy="55" rx="55" ry="55" stroke="none"/>
        <ellipse cx="55" cy="55" rx="53.5" ry="53.5" fill="none"/>
      </g>
      <g id="busqueda-de-trabajo" transform="translate(16.622 11.215)">
        <g id="Grupo_881719" data-name="Grupo 881719" transform="translate(1.283 1.283)">
          <g id="Grupo_881717" data-name="Grupo 881717">
            <path id="Trazado_126609" data-name="Trazado 126609" d="M146.223,28.024c3.516,3.088,13.918,7.3,23.231,7.3h5.132v-7.3A20.588,20.588,0,0,0,154.061,7.5c-6.26,0-15.48,1.239-19.252,5.694-3.033,3.581-1.272,10.369-1.272,14.831v7.3h5.131a15.64,15.64,0,0,0,7.555-7.3Z" transform="translate(-116.966 -7.5)" fill="#eca883" fill-rule="evenodd"/>
            <path id="Trazado_126610" data-name="Trazado 126610" d="M196.787,134.8c-9.313,0-19.715-4.216-23.231-7.3A15.64,15.64,0,0,1,166,134.8v7.7a15.393,15.393,0,1,0,30.786,0v-7.7Z" transform="translate(-144.299 -106.976)" fill="#fbf2e1" fill-rule="evenodd"/>
            <path id="Trazado_126611" data-name="Trazado 126611" d="M159.484,170.206v7.7a15.332,15.332,0,0,1-.215,2.566h2.781a5.146,5.146,0,0,0,5.131-5.131v-2.566a2.573,2.573,0,0,0-2.566-2.566ZM128.7,177.9v-7.7h-5.131A2.573,2.573,0,0,0,121,172.772v2.566a5.146,5.146,0,0,0,5.131,5.131h2.781A15.331,15.331,0,0,1,128.7,177.9Z" transform="translate(-106.996 -142.377)" fill="#fbdfba" fill-rule="evenodd"/>
            <path id="Trazado_126612" data-name="Trazado 126612" d="M220.4,293.066a15.3,15.3,0,0,1-15.393,0l-1.236,4.625a8.932,8.932,0,0,0,17.865,0Z" transform="translate(-175.612 -244.224)" fill="#fbf2e1" fill-rule="evenodd"/>
            <path id="Trazado_126613" data-name="Trazado 126613" d="M133.209,320.111a8.932,8.932,0,0,1-17.865,0l-9.839,3.848c-3.288,1.286-6.478,2.771-8.406,5.084h54.355c-1.928-2.313-5.118-3.8-8.407-5.084Z" transform="translate(-87.182 -266.643)" fill="#179587" fill-rule="evenodd"/>
            <path id="Trazado_126614" data-name="Trazado 126614" d="M69.116,372.336v6.414h3.848a2.573,2.573,0,0,1,2.566,2.566v13.625h51.1V381.315a2.573,2.573,0,0,1,2.566-2.566h3.848v-6.414Z" transform="translate(-63.985 -309.936)" fill="#f1b62b" fill-rule="evenodd"/>
            <path id="Trazado_126615" data-name="Trazado 126615" d="M50.661,412.4a2.573,2.573,0,0,0-2.566-2.566H44.247a5.146,5.146,0,0,0-5.131,5.131v8.494a2.573,2.573,0,0,0,2.566,2.566h8.979Zm51.1,13.625h8.979a2.573,2.573,0,0,0,2.566-2.566v-8.494a5.146,5.146,0,0,0-5.131-5.131h-3.848a2.573,2.573,0,0,0-2.566,2.566v13.625Z" transform="translate(-39.116 -341.022)" fill="#fbf2e1" fill-rule="evenodd"/>
            <path id="Trazado_126616" data-name="Trazado 126616" d="M104.326,409.836h3.848a5.146,5.146,0,0,1,5.131,5.131v8.494a2.573,2.573,0,0,1-2.566,2.566h-3.848a2.573,2.573,0,0,0,2.566-2.566v-8.494A5.146,5.146,0,0,0,104.326,409.836Zm-56.231,0H44.247a5.146,5.146,0,0,0-5.131,5.131v8.494a2.573,2.573,0,0,0,2.566,2.566H45.53a2.573,2.573,0,0,1-2.566-2.566v-8.494A5.146,5.146,0,0,1,48.1,409.836Z" transform="translate(-39.116 -341.022)" fill="#fbdfba" fill-rule="evenodd"/>
            <path id="Trazado_126617" data-name="Trazado 126617" d="M69.116,372.336h3.848v6.414H69.116Z" transform="translate(-63.985 -309.936)" fill="#5ceaee" fill-rule="evenodd"/>
            <path id="Trazado_126618" data-name="Trazado 126618" d="M208.457,294.542a15.314,15.314,0,0,1-3.447-1.476l-1.236,4.625a8.9,8.9,0,0,0,2.223,5.9Z" transform="translate(-175.612 -244.224)" fill="#fbdfba" fill-rule="evenodd"/>
            <path id="Trazado_126619" data-name="Trazado 126619" d="M169.848,155.673A16.137,16.137,0,0,1,166,158.159v7.7a15.392,15.392,0,0,0,17.317,15.272,15.448,15.448,0,0,1-13.469-15.272Z" transform="translate(-144.298 -130.33)" fill="#fbdfba" fill-rule="evenodd"/>
            <path id="Trazado_126620" data-name="Trazado 126620" d="M137.964,26.321a11.023,11.023,0,0,0-3.155,2.475c-3.033,3.581-1.272,10.369-1.272,14.831v7.3h3.848v-7.3C137.385,39.564,135.935,30.6,137.964,26.321Z" transform="translate(-116.966 -23.102)" fill="#e68e5c" fill-rule="evenodd"/>
          </g>
          <g id="Grupo_881718" data-name="Grupo 881718" transform="translate(40.943 5.694)">
            <path id="Trazado_126621" data-name="Trazado 126621" d="M286.2,45.92h-2.566V43.355H286.2Zm-5.131-2.566H278.5V40.789h2.566Z" transform="translate(-278.5 -40.789)" fill="#fff"/>
          </g>
        </g>
        <g id="Grupo_881720" data-name="Grupo 881720" transform="translate(0 0)">
          <path id="Trazado_126622" data-name="Trazado 126622" d="M103.239,68.943V62.4H97.747c-2.149-2.3-5.351-3.758-8.516-5L80,53.792l-.821-3.072a16.728,16.728,0,0,0,7.043-10.064h1.732a6.421,6.421,0,0,0,6.414-6.414V31.677A3.854,3.854,0,0,0,91.8,28.049V23.559l2.146.743.84-2.424-3.008-1.042A21.657,21.657,0,0,0,89.415,11.9l2.723-1.179-1.02-2.354L88.1,9.671A21.988,21.988,0,0,0,83.991,5.1l3.468.373.275-2.551-8.64-.93A21.681,21.681,0,0,0,69.992,0,48.28,48.28,0,0,0,59.721,1.074l.564,2.5a45.64,45.64,0,0,1,9.707-1.012A19.268,19.268,0,0,1,89.141,19.923l-2.207-.765-.84,2.424,3.139,1.087v5.158H85.385c-8.941,0-19.063-4.069-22.384-6.985l-1.26-1.107L61,21.242a14.251,14.251,0,0,1-6.694,6.586H50.751V21.807c0-1.4-.13-2.877-.255-4.311q-.011-.128-.022-.255l3.73,1.07.708-2.466-4.635-1.33c-.12-2.636.074-5.094,1.443-6.71a13.1,13.1,0,0,1,6.115-3.568l-.781-2.444A16.77,16.77,0,0,0,50.466,5.4L47.481,3.893l-1.157,2.29,2.54,1.283a12.62,12.62,0,0,0-1.183,6.3l-2.905-.833L44.069,15.4l3.765,1.08q.05.619.106,1.236c.094,1.076.185,2.107.224,3.095l-4.058,1.032.632,2.487,3.447-.876v4.592a3.854,3.854,0,0,0-2.566,3.628v2.566a6.421,6.421,0,0,0,6.414,6.414h1.732A16.727,16.727,0,0,0,60.808,50.72l-.821,3.072L50.753,57.4c-3.165,1.238-6.367,2.7-8.516,5H36.745v6.543a6.425,6.425,0,0,0-5.131,6.285v8.494a3.853,3.853,0,0,0,3.848,3.848h51.1V85H45.725V72.662a3.853,3.853,0,0,0-3.848-3.848H39.311V64.965h61.362v3.848H98.108a3.853,3.853,0,0,0-3.848,3.848V85H89.128V87.57h15.393a3.853,3.853,0,0,0,3.848-3.848V75.228A6.425,6.425,0,0,0,103.239,68.943ZM41.877,71.379a1.284,1.284,0,0,1,1.283,1.283v2.08H39.311v2.566h3.848v2.566H39.311v2.566h3.848V85h-7.7a1.284,1.284,0,0,1-1.283-1.283V75.228a3.853,3.853,0,0,1,3.848-3.848ZM90.516,30.394A1.284,1.284,0,0,1,91.8,31.677v2.566a3.853,3.853,0,0,1-3.848,3.848H86.619q.049-.635.049-1.283V30.394Zm-38.483,7.7a3.853,3.853,0,0,1-3.848-3.848V31.677a1.284,1.284,0,0,1,1.283-1.283h3.848v6.414q0,.647.049,1.283Zm3.848-1.283v-6.9a16.891,16.891,0,0,0,5.558-4.57,10.269,10.269,0,0,0,5.231,6.026L67.8,29.062a7.621,7.621,0,0,1-3.925-4.5A47.015,47.015,0,0,0,84.1,30.37v6.438a14.11,14.11,0,1,1-28.221,0Zm14.11,16.676A16.58,16.58,0,0,0,76.862,52l.775,2.9a7.647,7.647,0,0,1-15.292,0l.775-2.9a16.582,16.582,0,0,0,6.87,1.482ZM46.262,62.4a30.85,30.85,0,0,1,5.426-2.607l8.253-3.228A10.211,10.211,0,0,0,63.233,62.4H46.262Zm33.78-5.835L88.3,59.793A30.845,30.845,0,0,1,93.722,62.4H76.752a10.211,10.211,0,0,0,3.291-5.835ZM105.8,83.722A1.284,1.284,0,0,1,104.521,85h-7.7V82.439h3.848V79.874H96.825V77.308h3.848V74.743H96.825V72.662a1.284,1.284,0,0,1,1.283-1.283h3.848a3.853,3.853,0,0,1,3.848,3.848Z" transform="translate(-31.614 0)"/>
          <path id="Trazado_126623" data-name="Trazado 126623" d="M0,0H2.566V4.625H0Z" transform="matrix(0.555, -0.832, 0.832, 0.555, 44.094, 34.039)"/>
          <path id="Trazado_126624" data-name="Trazado 126624" d="M0,0H4.625V2.566H0Z" transform="matrix(0.832, -0.555, 0.555, 0.832, 27.412, 34.446)"/>
          <path id="Trazado_126625" data-name="Trazado 126625" d="M0,0H2.566V7.658H0Z" transform="translate(25.943 9.591) rotate(-57.533)"/>
          <path id="Trazado_126626" data-name="Trazado 126626" d="M0,0H6.85V2.566H0Z" transform="translate(39.272 18.465) rotate(-23.078)"/>
          <path id="Trazado_126627" data-name="Trazado 126627" d="M231.228,250.2h2.566a3.853,3.853,0,0,0-3.848-3.848H226.1a3.853,3.853,0,0,0-3.848,3.848h2.566a1.284,1.284,0,0,1,1.283-1.283h3.848A1.284,1.284,0,0,1,231.228,250.2Z" transform="translate(-189.644 -204.217)"/>
          <path id="Trazado_126628" data-name="Trazado 126628" d="M170.035,416.771a2.911,2.911,0,0,0,1.429-.38,3.155,3.155,0,0,0,1.611-2.765v-8.673H170.51v8.673a.589.589,0,0,1-.291.521c-.332.185-.782-.235-.787-.239l.013.013-1.82,1.809A3.569,3.569,0,0,0,170.035,416.771Z" transform="translate(-144.362 -335.692)"/>
          <path id="Trazado_126629" data-name="Trazado 126629" d="M302.525,404.954h-3.969v11.813h4.438a3.778,3.778,0,0,0,2.454-6.645,3.41,3.41,0,0,0-2.923-5.168Zm-1.4,2.566h1.4a.846.846,0,0,1,0,1.692h-1.4Zm1.872,6.682h-1.872v-2.424h1.872a1.212,1.212,0,0,1,0,2.424Z" transform="translate(-252.899 -335.692)"/>
          <path id="Trazado_126630" data-name="Trazado 126630" d="M214.49,408.723a5.906,5.906,0,1,0,5.906-5.906A5.913,5.913,0,0,0,214.49,408.723Zm9.247,0a3.341,3.341,0,1,1-3.341-3.341A3.345,3.345,0,0,1,223.737,408.723Z" transform="translate(-183.212 -333.921)"/>
        </g>
      </g>
    </g>
  </g>
</svg>
