<svg xmlns="http://www.w3.org/2000/svg" width="169.912" height="169.912" viewBox="0 0 169.912 169.912">
  <g id="Grupo_1000277" data-name="Grupo 1000277" transform="translate(-716 -3888)">
    <g id="Grupo_897621" data-name="Grupo 897621" transform="translate(410.828 -541.622)">
      <ellipse id="Elipse_5191" data-name="Elipse 5191" cx="84.956" cy="84.956" rx="84.956" ry="84.956" transform="translate(305.172 4429.622)" fill="#179587"/>
    </g>
    <g id="Grupo_897650" data-name="Grupo 897650" transform="translate(747.421 3902.417)">
      <path id="Trazado_647284" data-name="Trazado 647284" d="M2101-929.436l36.314-52.754,28.553-.549,38.1,52.959Z" transform="translate(-2099.697 1030.244)" fill="#80543e"/>
      <g id="Grupo_897625" data-name="Grupo 897625" transform="translate(0 46.204)">
        <path id="Trazado_647285" data-name="Trazado 647285" d="M2099.394-929.737a1.3,1.3,0,0,1-.737-.229,1.3,1.3,0,0,1-.334-1.81l36.314-52.754a1.3,1.3,0,0,1,1.047-.563l28.553-.549a1.313,1.313,0,0,1,1.082.541l38.1,52.959a1.3,1.3,0,0,1-.3,1.817,1.3,1.3,0,0,1-1.817-.3l-37.7-52.4-27.2.523-35.935,52.2A1.3,1.3,0,0,1,2099.394-929.737Z" transform="translate(-2098.094 985.643)"/>
      </g>
      <g id="Grupo_897626" data-name="Grupo 897626" transform="translate(13.743 79.382)">
        <path id="Trazado_647286" data-name="Trazado 647286" d="M2130.062-897.23a1.293,1.293,0,0,1-.7-.206,1.3,1.3,0,0,1-.394-1.8l7.541-11.772a1.3,1.3,0,0,1,1.8-.394,1.3,1.3,0,0,1,.395,1.8l-7.541,11.772A1.3,1.3,0,0,1,2130.062-897.23Z" transform="translate(-2128.761 911.606)"/>
      </g>
      <g id="Grupo_897627" data-name="Grupo 897627" transform="translate(24.043 69.081)">
        <path id="Trazado_647287" data-name="Trazado 647287" d="M2153.047-926.324a1.3,1.3,0,0,1-.679-.192,1.3,1.3,0,0,1-.429-1.79l3.472-5.664a1.3,1.3,0,0,1,1.791-.429,1.3,1.3,0,0,1,.429,1.79l-3.472,5.664A1.3,1.3,0,0,1,2153.047-926.324Z" transform="translate(-2151.746 934.593)"/>
      </g>
      <g id="Grupo_897628" data-name="Grupo 897628" transform="translate(48.993 28.68)">
        <path id="Trazado_647288" data-name="Trazado 647288" d="M2208.723-1020.34a1.3,1.3,0,0,1-1.3-1.3,1.3,1.3,0,0,1,1.3-1.3,3.331,3.331,0,0,0,2.649-1.3,1.3,1.3,0,0,1,1.826-.231,1.3,1.3,0,0,1,.231,1.826A5.917,5.917,0,0,1,2208.723-1020.34Z" transform="translate(-2207.421 1024.748)"/>
      </g>
      <path id="Trazado_647289" data-name="Trazado 647289" d="M2197.229-1062.949a7.307,7.307,0,0,0,4.055,1.225,7.384,7.384,0,0,0,7.369-7.4,7.384,7.384,0,0,0-7.369-7.4,7.312,7.312,0,0,0-4.2,1.32,6.286,6.286,0,0,0,1.729-4.334,6.291,6.291,0,0,0-6.279-6.3,6.291,6.291,0,0,0-6.278,6.3,6.278,6.278,0,0,0,1.175,3.659l-4.184-2.2a4.67,4.67,0,0,0-4.661,4.68,4.674,4.674,0,0,0,4.178,4.656,4.671,4.671,0,0,0-3.907,4.613,4.67,4.67,0,0,0,4.661,4.679,4.652,4.652,0,0,0,3.9-2.118Z" transform="translate(-2142.517 1087.143)" fill="#b0c0d2"/>
      <g id="Grupo_897629" data-name="Grupo 897629" transform="translate(34.771 0)">
        <path id="Trazado_647290" data-name="Trazado 647290" d="M2181.919-1059.753a5.979,5.979,0,0,1-5.963-5.982,5.963,5.963,0,0,1,2.052-4.522,5.976,5.976,0,0,1-2.323-4.747,5.979,5.979,0,0,1,5.962-5.982,1.3,1.3,0,0,1,.606.15l1.156.609a7.635,7.635,0,0,1-.055-.914,7.6,7.6,0,0,1,7.581-7.606,7.6,7.6,0,0,1,7.58,7.606,7.594,7.594,0,0,1-.221,1.823,8.719,8.719,0,0,1,1.387-.111,8.7,8.7,0,0,1,8.671,8.7,8.7,8.7,0,0,1-8.671,8.7,8.608,8.608,0,0,1-4.776-1.442,1.3,1.3,0,0,1-.365-1.8,1.3,1.3,0,0,1,1.8-.365,6.014,6.014,0,0,0,3.336,1.007,6.09,6.09,0,0,0,6.067-6.1,6.089,6.089,0,0,0-6.067-6.1,6.01,6.01,0,0,0-3.452,1.086,1.3,1.3,0,0,1-1.731-.218,1.3,1.3,0,0,1,.041-1.744,4.987,4.987,0,0,0,1.373-3.439,5,5,0,0,0-4.977-5,5,5,0,0,0-4.976,5,4.973,4.973,0,0,0,.932,2.9,1.3,1.3,0,0,1-.08,1.612,1.3,1.3,0,0,1-1.587.3l-3.875-2.039a3.376,3.376,0,0,0-3.062,3.365,3.36,3.36,0,0,0,3.01,3.361,1.3,1.3,0,0,1,1.167,1.256,1.3,1.3,0,0,1-1.091,1.323,3.353,3.353,0,0,0-2.815,3.328,3.372,3.372,0,0,0,3.359,3.377,3.349,3.349,0,0,0,2.809-1.529,1.3,1.3,0,0,1,1.8-.377,1.3,1.3,0,0,1,.377,1.8A5.946,5.946,0,0,1,2181.919-1059.753Z" transform="translate(-2175.685 1088.746)"/>
      </g>
      <path id="Trazado_647291" data-name="Trazado 647291" d="M2180.446-980.425l-.868,29.393A3.028,3.028,0,0,0,2182.6-948a3.028,3.028,0,0,0,3.022-3.034v-9.936a2.5,2.5,0,0,1,2.5-2.507,2.5,2.5,0,0,1,2.5,2.507v15.98a3.871,3.871,0,0,0,3.863,3.879,3.871,3.871,0,0,0,3.863-3.879v-12.9a7.489,7.489,0,0,0,7.474-7.5v-15.2Z" transform="translate(-2143.062 1029.059)" fill="#f1b62b"/>
      <g id="Grupo_897630" data-name="Grupo 897630" transform="translate(35.214 47.166)">
        <path id="Trazado_647292" data-name="Trazado 647292" d="M2192.875-941.41a5.178,5.178,0,0,1-5.165-5.181v-15.98a1.2,1.2,0,0,0-1.194-1.205,1.2,1.2,0,0,0-1.2,1.205v9.936A4.335,4.335,0,0,1,2181-948.3a4.334,4.334,0,0,1-4.323-4.336c0-.013,0-.026,0-.038l.868-29.393a1.3,1.3,0,0,1,1.3-1.264h.039a1.3,1.3,0,0,1,1.263,1.339l-.867,29.372A1.728,1.728,0,0,0,2181-950.9a1.728,1.728,0,0,0,1.72-1.732v-9.936a3.808,3.808,0,0,1,3.8-3.809,3.808,3.808,0,0,1,3.8,3.809v15.98a2.572,2.572,0,0,0,2.561,2.577,2.572,2.572,0,0,0,2.561-2.577v-12.9a1.3,1.3,0,0,1,1.3-1.3,6.194,6.194,0,0,0,6.172-6.2v-15.2a1.3,1.3,0,0,1,1.3-1.3,1.3,1.3,0,0,1,1.3,1.3V-967a8.81,8.81,0,0,1-7.474,8.709v11.7A5.179,5.179,0,0,1,2192.875-941.41Z" transform="translate(-2176.673 983.496)"/>
      </g>
      <g id="Grupo_897631" data-name="Grupo 897631" transform="translate(55.763 58.402)">
        <path id="Trazado_647293" data-name="Trazado 647293" d="M2223.831-949.819a1.3,1.3,0,0,1-1.047-.527,1.3,1.3,0,0,1,.271-1.821,4.711,4.711,0,0,0,1.9-3.771v-1.183a1.3,1.3,0,0,1,1.3-1.3,1.3,1.3,0,0,1,1.3,1.3v1.183a7.325,7.325,0,0,1-2.951,5.863A1.3,1.3,0,0,1,2223.831-949.819Z" transform="translate(-2222.529 958.423)"/>
      </g>
      <g id="Grupo_897632" data-name="Grupo 897632" transform="translate(51.65 91.155)">
        <path id="Trazado_647294" data-name="Trazado 647294" d="M2214.651-876.375a1.3,1.3,0,0,1-1.3-1.3v-6.358a1.3,1.3,0,0,1,1.3-1.3,1.3,1.3,0,0,1,1.3,1.3v6.358A1.3,1.3,0,0,1,2214.651-876.375Z" transform="translate(-2213.349 885.336)"/>
      </g>
      <g id="Grupo_897633" data-name="Grupo 897633" transform="translate(41.258 82.336)">
        <path id="Trazado_647295" data-name="Trazado 647295" d="M2191.463-896.577a1.3,1.3,0,0,1-1.3-1.3v-5.834a1.3,1.3,0,0,1,1.3-1.3,1.3,1.3,0,0,1,1.3,1.3v5.834A1.3,1.3,0,0,1,2191.463-896.577Z" transform="translate(-2190.161 905.015)"/>
      </g>
      <g id="Grupo_897634" data-name="Grupo 897634" transform="translate(65.363 55.163)">
        <path id="Trazado_647296" data-name="Trazado 647296" d="M2245.252-944.579a1.3,1.3,0,0,1-1.3-1.3v-18.468a1.3,1.3,0,0,1,1.3-1.3,1.3,1.3,0,0,1,1.3,1.3v18.468A1.3,1.3,0,0,1,2245.252-944.579Z" transform="translate(-2243.95 965.651)"/>
      </g>
      <g id="Grupo_897635" data-name="Grupo 897635" transform="translate(65.363 81.097)">
        <path id="Trazado_647297" data-name="Trazado 647297" d="M2245.252-897.121a1.3,1.3,0,0,1-1.3-1.3v-8.055a1.3,1.3,0,0,1,1.3-1.3,1.3,1.3,0,0,1,1.3,1.3v8.055A1.3,1.3,0,0,1,2245.252-897.121Z" transform="translate(-2243.95 907.779)"/>
      </g>
      <g id="Grupo_897636" data-name="Grupo 897636" transform="translate(45.533 36.068)">
        <path id="Trazado_647298" data-name="Trazado 647298" d="M2201-998.857a1.3,1.3,0,0,1-1.3-1.3v-6.8a1.3,1.3,0,0,1,1.3-1.3,1.3,1.3,0,0,1,1.3,1.3v6.8A1.3,1.3,0,0,1,2201-998.857Z" transform="translate(-2199.701 1008.261)"/>
      </g>
      <g id="Grupo_897637" data-name="Grupo 897637" transform="translate(55.369 36.223)">
        <path id="Trazado_647299" data-name="Trazado 647299" d="M2222.952-1000.029a1.3,1.3,0,0,1-1.3-1.3v-5.283a1.3,1.3,0,0,1,1.3-1.3,1.3,1.3,0,0,1,1.3,1.3v5.283A1.3,1.3,0,0,1,2222.952-1000.029Z" transform="translate(-2221.65 1007.916)"/>
      </g>
      <g id="Grupo_897638" data-name="Grupo 897638" transform="translate(41.377 94.082)">
        <path id="Trazado_647300" data-name="Trazado 647300" d="M2191.727-870.775a1.3,1.3,0,0,1-1.3-1.3V-877.5a1.3,1.3,0,0,1,1.3-1.3,1.3,1.3,0,0,1,1.3,1.3v5.424A1.3,1.3,0,0,1,2191.727-870.775Z" transform="translate(-2190.425 878.803)"/>
      </g>
      <g id="Grupo_897639" data-name="Grupo 897639" transform="translate(60.538 29.851)">
        <path id="Trazado_647301" data-name="Trazado 647301" d="M2236.766-1018.264a1.3,1.3,0,0,1-.631-.164l-2.281-1.266a1.3,1.3,0,0,1-.506-1.77,1.3,1.3,0,0,1,1.77-.506l2.281,1.266a1.3,1.3,0,0,1,.506,1.77A1.3,1.3,0,0,1,2236.766-1018.264Z" transform="translate(-2233.184 1022.135)"/>
      </g>
      <g id="Grupo_897640" data-name="Grupo 897640" transform="translate(27.516 15.571)">
        <path id="Trazado_647302" data-name="Trazado 647302" d="M2163.689-1050.786a1.3,1.3,0,0,1-.271-.028l-2.89-.611a1.3,1.3,0,0,1-1-1.543,1.3,1.3,0,0,1,1.543-1l2.89.611a1.3,1.3,0,0,1,1,1.543A1.3,1.3,0,0,1,2163.689-1050.786Z" transform="translate(-2159.496 1054.001)"/>
      </g>
      <g id="Grupo_897641" data-name="Grupo 897641" transform="translate(61.412 1.523)">
        <path id="Trazado_647303" data-name="Trazado 647303" d="M2236.438-1080a1.3,1.3,0,0,1-1.077-.568,1.3,1.3,0,0,1,.342-1.809l4.031-2.749a1.3,1.3,0,0,1,1.809.342,1.3,1.3,0,0,1-.342,1.809l-4.03,2.748A1.294,1.294,0,0,1,2236.438-1080Z" transform="translate(-2235.135 1085.348)"/>
      </g>
      <g id="Grupo_897642" data-name="Grupo 897642" transform="translate(58.257 72.408)">
        <path id="Trazado_647304" data-name="Trazado 647304" d="M2229.4-921a1.3,1.3,0,0,1-1.3-1.3v-3.564a1.3,1.3,0,0,1,1.3-1.3,1.3,1.3,0,0,1,1.3,1.3v3.564A1.3,1.3,0,0,1,2229.4-921Z" transform="translate(-2228.094 927.17)"/>
      </g>
      <g id="Grupo_897643" data-name="Grupo 897643" transform="translate(58.257 80.059)">
        <path id="Trazado_647305" data-name="Trazado 647305" d="M2229.4-903.7a1.3,1.3,0,0,1-1.3-1.3v-3.792a1.3,1.3,0,0,1,1.3-1.3,1.3,1.3,0,0,1,1.3,1.3V-905A1.3,1.3,0,0,1,2229.4-903.7Z" transform="translate(-2228.094 910.096)"/>
      </g>
      <g id="Grupo_897644" data-name="Grupo 897644" transform="translate(58.257 86.999)">
        <path id="Trazado_647306" data-name="Trazado 647306" d="M2229.4-889.02a1.3,1.3,0,0,1-1.3-1.3v-2.985a1.3,1.3,0,0,1,1.3-1.3,1.3,1.3,0,0,1,1.3,1.3v2.985A1.3,1.3,0,0,1,2229.4-889.02Z" transform="translate(-2228.094 894.609)"/>
      </g>
      <g id="Grupo_897645" data-name="Grupo 897645" transform="translate(58.187 49.889)">
        <path id="Trazado_647307" data-name="Trazado 647307" d="M2229.24-970.032a1.3,1.3,0,0,1-1.3-1.3v-4.785a1.3,1.3,0,0,1,1.3-1.3,1.3,1.3,0,0,1,1.3,1.3v4.785A1.3,1.3,0,0,1,2229.24-970.032Z" transform="translate(-2227.938 977.42)"/>
      </g>
      <g id="Grupo_897646" data-name="Grupo 897646" transform="translate(50.316 38.521)">
        <path id="Trazado_647308" data-name="Trazado 647308" d="M2211.675-998.289a1.3,1.3,0,0,1-1.3-1.3v-1.895a1.3,1.3,0,0,1,1.3-1.3,1.3,1.3,0,0,1,1.3,1.3v1.895A1.3,1.3,0,0,1,2211.675-998.289Z" transform="translate(-2210.373 1002.788)"/>
      </g>
      <g id="Grupo_897647" data-name="Grupo 897647" transform="translate(37.118 31.326)">
        <path id="Trazado_647309" data-name="Trazado 647309" d="M2182.223-1012.748a1.3,1.3,0,0,1-.676-.19,1.3,1.3,0,0,1-.434-1.789l2.128-3.49a1.3,1.3,0,0,1,1.79-.433,1.3,1.3,0,0,1,.434,1.789l-2.129,3.49A1.3,1.3,0,0,1,2182.223-1012.748Z" transform="translate(-2180.923 1018.842)"/>
      </g>
      <g id="Grupo_897648" data-name="Grupo 897648" transform="translate(79.494 78.332)">
        <path id="Trazado_647310" data-name="Trazado 647310" d="M2280.314-906.22a1.3,1.3,0,0,1-1.073-.564l-3.526-5.125a1.3,1.3,0,0,1,.334-1.81,1.3,1.3,0,0,1,1.811.334l3.526,5.125a1.3,1.3,0,0,1-.335,1.811A1.3,1.3,0,0,1,2280.314-906.22Z" transform="translate(-2275.484 913.949)"/>
      </g>
      <g id="Grupo_897649" data-name="Grupo 897649" transform="translate(85.321 86.211)">
        <path id="Trazado_647311" data-name="Trazado 647311" d="M2296.061-884.434a1.3,1.3,0,0,1-1.081-.575l-6.273-9.329a1.3,1.3,0,0,1,.354-1.807,1.3,1.3,0,0,1,1.806.354l6.273,9.329a1.3,1.3,0,0,1-.354,1.807A1.3,1.3,0,0,1,2296.061-884.434Z" transform="translate(-2288.485 896.367)"/>
      </g>
    </g>
    <g id="Grupo_897651" data-name="Grupo 897651" transform="translate(745.629 3987.337)">
      <path id="Trazado_126345" data-name="Trazado 126345" d="M65.659,40.649V71.587H29V40.649L47.33,31Z" transform="translate(36.537 -24.452)" fill="#bcbdbc"/>
      <path id="Trazado_647324" data-name="Trazado 647324" d="M65.659,40.649V71.587H29V40.649L47.33,31Z" transform="translate(-22.454 -24.046)" fill="#bcbdbc"/>
      <path id="Trazado_126346" data-name="Trazado 126346" d="M31.024,39.255A30.933,30.933,0,0,0,61.93,68.968h3.1V40.649L46.7,31Z" transform="translate(37.163 -24.452)" fill="#dfe0df"/>
      <path id="Trazado_647325" data-name="Trazado 647325" d="M31.024,39.255A30.933,30.933,0,0,0,61.93,68.968h3.1V40.649L46.7,31Z" transform="translate(-21.828 -24.046)" fill="#dfe0df"/>
      <path id="Trazado_126347" data-name="Trazado 126347" d="M38,66.639V47H51.093V66.639" transform="translate(39.32 -19.504)" fill="#ee4e5d"/>
      <path id="Trazado_647327" data-name="Trazado 647327" d="M38,66.639V47H51.093V66.639" transform="translate(-19.671 -19.098)" fill="#222b5a"/>
      <path id="Trazado_126348" data-name="Trazado 126348" d="M38,55.047a30.9,30.9,0,0,0,13.093,7.732V47H38Z" transform="translate(39.32 -19.504)" fill="#ef5b69"/>
      <path id="Trazado_647328" data-name="Trazado 647328" d="M38,55.047a30.9,30.9,0,0,0,13.093,7.732V47H38Z" transform="translate(-19.67 -19.098)" fill="#303a6b"/>
      <path id="Trazado_126350" data-name="Trazado 126350" d="M43,26v6.548L67.876,45.639V39.093Z" transform="translate(40.866 -25.999)" fill="#ee4e5d" stroke="#000" stroke-width="1"/>
      <path id="Trazado_647329" data-name="Trazado 647329" d="M43,26v6.548L67.876,45.639V39.093Z" transform="translate(-18.124 -25.593)" fill="#ee4e5d" stroke="#000" stroke-width="1"/>
      <path id="Trazado_126351" data-name="Trazado 126351" d="M38,40H51.093v3.928H38Z" transform="translate(39.32 -21.669)" fill="#684d42"/>
      <path id="Trazado_647330" data-name="Trazado 647330" d="M38,40H51.093v3.928H38Z" transform="translate(-19.67 -21.263)" fill="#684d42"/>
      <path id="Trazado_126360" data-name="Trazado 126360" d="M44,52h2.619v5.237H44Z" transform="translate(41.176 -17.958)" fill="#f2ad95"/>
      <path id="Trazado_647333" data-name="Trazado 647333" d="M44,52h2.619v5.237H44Z" transform="translate(-17.815 -17.552)" fill="#f2ad95"/>
      <path id="Trazado_126369" data-name="Trazado 126369" d="M37,40.309v3.928a1.309,1.309,0,0,0,1.309,1.309H51.4a1.309,1.309,0,0,0,1.309-1.309V40.309A1.309,1.309,0,0,0,51.4,39H38.309A1.309,1.309,0,0,0,37,40.309Zm2.619,1.309H50.093v1.309H39.619Z" transform="translate(39.011 -21.978)"/>
      <path id="Trazado_647331" data-name="Trazado 647331" d="M37,40.309v3.928a1.309,1.309,0,0,0,1.309,1.309H51.4a1.309,1.309,0,0,0,1.309-1.309V40.309A1.309,1.309,0,0,0,51.4,39H38.309A1.309,1.309,0,0,0,37,40.309Zm2.619,1.309H50.093v1.309H39.619Z" transform="translate(-19.98 -21.572)"/>
      <path id="Trazado_126370" data-name="Trazado 126370" d="M44,52h2.619v5.237H44Z" transform="translate(41.176 -17.958)"/>
      <path id="Trazado_647334" data-name="Trazado 647334" d="M44,52h2.619v5.237H44Z" transform="translate(-17.815 -17.552)"/>
      <path id="Trazado_647312" data-name="Trazado 647312" d="M-7802.277-7040.667l-17.057,10.965v31.407h36.28l-.677-34.25Z" transform="translate(7885.231 7045.465)" fill="none" stroke="#000" stroke-width="1"/>
      <path id="Trazado_647326" data-name="Trazado 647326" d="M-7802.277-7040.667l-17.057,10.965v31.407h36.28l-.677-34.25Z" transform="translate(7826.241 7045.872)" fill="none" stroke="#000" stroke-width="1"/>
      <path id="Trazado_126349" data-name="Trazado 126349" d="M24,39.093,48.876,26,73.752,39.093v6.546L48.876,32.547,24,45.639Z" transform="translate(34.99 -25.999)" fill="#ee4e5d" stroke="#000" stroke-width="1"/>
      <path id="Trazado_647332" data-name="Trazado 647332" d="M24,39.093,48.876,26,73.752,39.093v6.546L48.876,32.547,24,45.639Z" transform="translate(-24 -25.593)" fill="#222b5a" stroke="#000" stroke-width="1"/>
      <path id="Trazado_647313" data-name="Trazado 647313" d="M65.659,40.649V71.587H29V40.649L47.33,31Z" transform="translate(2.423 -24.046)" fill="#bcbdbc"/>
      <path id="Trazado_647315" data-name="Trazado 647315" d="M31.024,39.255A30.933,30.933,0,0,0,61.93,68.968h3.1V40.649L46.7,31Z" transform="translate(3.049 -24.046)" fill="#dfe0df"/>
      <path id="Trazado_647316" data-name="Trazado 647316" d="M38,66.639V47H51.093V66.639" transform="translate(5.206 -19.098)" fill="#179587"/>
      <path id="Trazado_647317" data-name="Trazado 647317" d="M38,55.047a30.9,30.9,0,0,0,13.093,7.732V47H38Z" transform="translate(5.206 -19.098)" fill="#26b7a7"/>
      <path id="Trazado_647318" data-name="Trazado 647318" d="M43,26v6.548L67.876,45.639V39.093Z" transform="translate(6.752 -25.593)" fill="#ee4e5d" stroke="#000" stroke-width="1"/>
      <path id="Trazado_647319" data-name="Trazado 647319" d="M38,40H51.093v3.928H38Z" transform="translate(5.206 -21.263)" fill="#684d42"/>
      <path id="Trazado_647320" data-name="Trazado 647320" d="M44,52h2.619v5.237H44Z" transform="translate(7.062 -17.552)" fill="#f2ad95"/>
      <path id="Trazado_647321" data-name="Trazado 647321" d="M37,40.309v3.928a1.309,1.309,0,0,0,1.309,1.309H51.4a1.309,1.309,0,0,0,1.309-1.309V40.309A1.309,1.309,0,0,0,51.4,39H38.309A1.309,1.309,0,0,0,37,40.309Zm2.619,1.309H50.093v1.309H39.619Z" transform="translate(4.897 -21.572)"/>
      <path id="Trazado_647322" data-name="Trazado 647322" d="M44,52h2.619v5.237H44Z" transform="translate(7.062 -17.552)"/>
      <path id="Trazado_647314" data-name="Trazado 647314" d="M-7802.277-7040.667l-17.057,10.965v31.407h36.28l-.677-34.25Z" transform="translate(7851.117 7045.872)" fill="none" stroke="#000" stroke-width="1"/>
      <path id="Trazado_647323" data-name="Trazado 647323" d="M24,39.093,48.876,26,73.752,39.093v6.546L48.876,32.547,24,45.639Z" transform="translate(0.877 -25.593)" fill="#179587" stroke="#000" stroke-width="1"/>
    </g>
  </g>
</svg>
