<svg xmlns="http://www.w3.org/2000/svg" width="151.914" height="22.116" viewBox="0 0 151.914 22.116">
  <g id="Grupo_1000261" data-name="Grupo 1000261" transform="translate(0 0)" opacity="0.42">
    <g id="Grupo_876760" data-name="Grupo 876760" transform="translate(0 0.245)">
      <path id="Trazado_126014" data-name="Trazado 126014" d="M585.014,409.445h0a4.364,4.364,0,0,1,6.173,0l13.142,13.142a4.365,4.365,0,0,1,0,6.173h0a4.365,4.365,0,0,1-6.173,0l-13.142-13.142A4.366,4.366,0,0,1,585.014,409.445Z" transform="translate(-583.736 -408.166)" fill="#222b5a"/>
      <path id="Trazado_126015" data-name="Trazado 126015" d="M604.329,409.445h0a4.366,4.366,0,0,1,0,6.173L591.187,428.76a4.365,4.365,0,0,1-6.173,0h0a4.366,4.366,0,0,1,0-6.173l13.142-13.142A4.364,4.364,0,0,1,604.329,409.445Z" transform="translate(-583.736 -408.166)" fill="#222b5a"/>
    </g>
    <g id="Grupo_876767" data-name="Grupo 876767" transform="translate(35.814 0)">
      <g id="Grupo_876763" data-name="Grupo 876763" transform="translate(0 0)">
        <g id="Grupo_876761" data-name="Grupo 876761" transform="translate(31.495)">
          <ellipse id="Elipse_5013" data-name="Elipse 5013" cx="3.058" cy="3.058" rx="3.058" ry="3.058" transform="translate(0)" fill="#222b5a"/>
          <path id="Trazado_126016" data-name="Trazado 126016" d="M659.323,427.461a3.058,3.058,0,1,1-3.058-3.058A3.058,3.058,0,0,1,659.323,427.461Z" transform="translate(-653.207 -408.427)" fill="#222b5a"/>
          <ellipse id="Elipse_5014" data-name="Elipse 5014" cx="3.058" cy="3.058" rx="3.058" ry="3.058" transform="translate(15.559)" fill="#222b5a"/>
          <path id="Trazado_126017" data-name="Trazado 126017" d="M675.381,427.461a3.057,3.057,0,1,1-3.058-3.058A3.058,3.058,0,0,1,675.381,427.461Z" transform="translate(-653.707 -408.427)" fill="#222b5a"/>
        </g>
        <g id="Grupo_876762" data-name="Grupo 876762" transform="translate(0)">
          <ellipse id="Elipse_5015" data-name="Elipse 5015" cx="3.058" cy="3.058" rx="3.058" ry="3.058" transform="translate(0)" fill="#222b5a"/>
          <path id="Trazado_126018" data-name="Trazado 126018" d="M626.816,427.461a3.058,3.058,0,1,1-3.058-3.058A3.058,3.058,0,0,1,626.816,427.461Z" transform="translate(-620.7 -408.427)" fill="#222b5a"/>
          <ellipse id="Elipse_5016" data-name="Elipse 5016" cx="3.058" cy="3.058" rx="3.058" ry="3.058" transform="translate(15.559)" fill="#222b5a"/>
          <path id="Trazado_126019" data-name="Trazado 126019" d="M642.875,427.461a3.058,3.058,0,1,1-3.058-3.058A3.058,3.058,0,0,1,642.875,427.461Z" transform="translate(-621.2 -408.427)" fill="#222b5a"/>
        </g>
      </g>
      <g id="Grupo_876766" data-name="Grupo 876766" transform="translate(62.93)">
        <g id="Grupo_876764" data-name="Grupo 876764" transform="translate(31.495)">
          <ellipse id="Elipse_5017" data-name="Elipse 5017" cx="3.058" cy="3.058" rx="3.058" ry="3.058" transform="translate(0 0)" fill="#222b5a"/>
          <path id="Trazado_126020" data-name="Trazado 126020" d="M724.274,427.461a3.058,3.058,0,1,1-3.058-3.058A3.058,3.058,0,0,1,724.274,427.461Z" transform="translate(-718.158 -408.427)" fill="#222b5a"/>
          <path id="Trazado_126021" data-name="Trazado 126021" d="M740.333,410.972a3.058,3.058,0,1,1-3.058-3.058A3.058,3.058,0,0,1,740.333,410.972Z" transform="translate(-718.658 -407.914)" fill="#222b5a"/>
          <path id="Trazado_126022" data-name="Trazado 126022" d="M740.333,427.461a3.058,3.058,0,1,1-3.058-3.058A3.058,3.058,0,0,1,740.333,427.461Z" transform="translate(-718.658 -408.427)" fill="#222b5a"/>
        </g>
        <g id="Grupo_876765" data-name="Grupo 876765" transform="translate(0 0)">
          <ellipse id="Elipse_5018" data-name="Elipse 5018" cx="3.058" cy="3.058" rx="3.058" ry="3.058" transform="translate(0)" fill="#222b5a"/>
          <path id="Trazado_126023" data-name="Trazado 126023" d="M691.768,427.461a3.058,3.058,0,1,1-3.058-3.058A3.058,3.058,0,0,1,691.768,427.461Z" transform="translate(-685.652 -408.427)" fill="#222b5a"/>
          <ellipse id="Elipse_5019" data-name="Elipse 5019" cx="3.058" cy="3.058" rx="3.058" ry="3.058" transform="translate(15.559)" fill="#222b5a"/>
          <path id="Trazado_126024" data-name="Trazado 126024" d="M707.826,427.461a3.058,3.058,0,1,1-3.058-3.058A3.058,3.058,0,0,1,707.826,427.461Z" transform="translate(-686.152 -408.427)" fill="#222b5a"/>
        </g>
      </g>
    </g>
  </g>
</svg>
