<svg xmlns="http://www.w3.org/2000/svg" width="69" height="69" viewBox="0 0 69 69">
  <g id="Grupo_1000286" data-name="Grupo 1000286" transform="translate(-1328 -8281)">
    <g id="Elipse_5554" data-name="Elipse 5554" transform="translate(1328 8281)" fill="none" stroke="#222b5a" stroke-width="1">
      <circle cx="34.5" cy="34.5" r="34.5" stroke="none"/>
      <circle cx="34.5" cy="34.5" r="34" fill="none"/>
    </g>
    <g id="XMLID_1379_" transform="translate(1295.664 8285)">
      <circle id="XMLID_3174_" cx="7.983" cy="7.983" r="7.983" transform="translate(54.591 35.801)" fill="#ee4e5d"/>
      <g id="XMLID_1380_" transform="translate(59.278 40.488)">
        <path id="XMLID_1381_" d="M189.146,365.9a3.3,3.3,0,1,1,3.3-3.3A3.3,3.3,0,0,1,189.146,365.9Z" transform="translate(-185.85 -359.305)" fill="#ead2b1"/>
        <circle id="XMLID_3172_" cx="1.944" cy="1.944" r="1.944" transform="translate(1.352 1.352)" fill="#ffb229"/>
      </g>
      <g id="XMLID_1382_" transform="translate(70.376 31.44)">
        <circle id="XMLID_3170_" cx="4.361" cy="4.361" r="4.361" transform="translate(0)" fill="#179587"/>
        <path id="XMLID_1383_" d="M300.373,297.927a2.878,2.878,0,1,1,2.878-2.878A2.881,2.881,0,0,1,300.373,297.927Z" transform="translate(-296.012 -290.688)" fill="#179587"/>
        <circle id="XMLID_3166_" cx="1.526" cy="1.526" r="1.526" transform="translate(2.835 2.835)" fill="#179587"/>
      </g>
      <g id="XMLID_1384_" transform="translate(56.092 18.438)">
        <g id="XMLID_1386_" transform="translate(0)">
          <path id="XMLID_3164_" d="M158.916,176.707h0a2.829,2.829,0,0,0,2.829-2.829V166.46a2.829,2.829,0,0,0-2.829-2.829h0a1.341,1.341,0,0,0-1.341,1.341v10.395A1.341,1.341,0,0,0,158.916,176.707Z" transform="translate(-157.575 -163.631)" fill="#f1b62b"/>
          <path id="XMLID_1387_" d="M167.638,166.457v7.418a2.829,2.829,0,0,1-2.828,2.83,1.337,1.337,0,0,1-.593-.137,2.829,2.829,0,0,0,1.956-2.692v-7.418a2.829,2.829,0,0,0-1.956-2.692,1.337,1.337,0,0,1,.593-.137A2.829,2.829,0,0,1,167.638,166.457Z" transform="translate(-163.469 -163.627)" fill="#f1b62b"/>
        </g>
        <g id="XMLID_1388_" transform="translate(21.072 22.1)">
          <path id="XMLID_3159_" d="M347.4,372.828h0A2.829,2.829,0,0,1,344.576,370v-7.419a2.829,2.829,0,0,1,2.829-2.829h0a1.341,1.341,0,0,1,1.341,1.341v10.395A1.341,1.341,0,0,1,347.4,372.828Z" transform="translate(-344.576 -359.751)" fill="#f1b62b"/>
          <path id="XMLID_1392_" d="M348.027,372.671a1.33,1.33,0,0,1-.622.153,2.829,2.829,0,0,1-2.828-2.83v-7.418a2.829,2.829,0,0,1,2.828-2.83,1.33,1.33,0,0,1,.622.153,2.829,2.829,0,0,0-1.909,2.676v7.418A2.829,2.829,0,0,0,348.027,372.671Z" transform="translate(-344.577 -359.747)" fill="#f1b62b"/>
        </g>
      </g>
      <path id="XMLID_3153_" d="M170.54,27.332h0A1.465,1.465,0,0,0,172,25.867v-2.9A1.465,1.465,0,0,0,170.54,21.5h0a1.465,1.465,0,0,0-1.465,1.465v2.9A1.465,1.465,0,0,0,170.54,27.332Z" transform="translate(-111.687 -19.077)" fill="#222b5a"/>
      <path id="XMLID_3152_" d="M301.279,115.826h0a2.7,2.7,0,0,1-2.7-2.7v-4.583a2.7,2.7,0,0,1,2.7-2.7h0a2.7,2.7,0,0,1,2.7,2.7v4.583A2.7,2.7,0,0,1,301.279,115.826Z" transform="translate(-226.595 -93.909)" fill="#f1b62b"/>
      <circle id="XMLID_3151_" cx="2.72" cy="2.72" r="2.72" transform="translate(65.918 21.13)" fill="#179587"/>
      <circle id="XMLID_3148_" cx="2.025" cy="2.025" r="2.025" transform="translate(60.958 9.557)" fill="#222b5a"/>
      <g id="XMLID_1393_" transform="translate(43.204)">
        <path id="XMLID_1395_" d="M195.928,366.594a2.789,2.789,0,1,0-2.789,2.789A2.793,2.793,0,0,0,195.928,366.594Zm-3.888,0a1.1,1.1,0,1,1,1.1,1.1A1.1,1.1,0,0,1,192.039,366.594Z" transform="translate(-173.768 -322.81)"/>
        <path id="XMLID_1398_" d="M301.995,299.042a2.371,2.371,0,1,0,2.371-2.371A2.374,2.374,0,0,0,301.995,299.042Zm3.052,0a.681.681,0,1,1-.681-.681A.681.681,0,0,1,305.047,299.042Z" transform="translate(-272.833 -263.241)"/>
        <path id="XMLID_1401_" d="M163,39.693a3.678,3.678,0,0,0-3.674,3.674v.706h-.675V40.927a5.2,5.2,0,0,0,0-10.251V22.63a3.555,3.555,0,0,0,2.591-3.417V14.631a3.55,3.55,0,1,0-7.1,0v2.232h-7.663V14.41a2.869,2.869,0,0,0,0-5.655V.845a.845.845,0,0,0-1.69,0V4.494h-.619V3.888a2.31,2.31,0,1,0-4.62,0v2.9a2.31,2.31,0,1,0,4.62,0V6.184h.619V8.976a2.869,2.869,0,0,0,0,5.211v7.785h-.676v-.706a3.678,3.678,0,0,0-3.674-3.674,2.188,2.188,0,0,0-2.186,2.186v4.879a.845.845,0,1,0,1.69,0V19.779a.5.5,0,0,1,.5-.5,1.986,1.986,0,0,1,1.984,1.984v7.419a1.986,1.986,0,0,1-1.984,1.984.5.5,0,0,1-.5-.5V28.51a.845.845,0,0,0-1.69,0v1.664a2.188,2.188,0,0,0,2.186,2.186,3.678,3.678,0,0,0,3.674-3.674V28.1h.676v6.889a8.8,8.8,0,0,0-3.863,1.291.845.845,0,1,0,.893,1.435,7.142,7.142,0,1,1-2.4,2.47.845.845,0,1,0-1.459-.853,8.826,8.826,0,0,0,6.832,13.24v3.579a1.118,1.118,0,0,0,1.706.661l5.361-4.277,5.361,4.277a.842.842,0,0,0,.527.184l.03,0,.032,0a.845.845,0,0,0,.845-.845V50.2h.675v.582A3.678,3.678,0,0,0,163,54.46a2.188,2.188,0,0,0,2.186-2.186v-4.72a.845.845,0,0,0-1.69,0v4.72a.5.5,0,0,1-.5.5,1.986,1.986,0,0,1-1.984-1.984V43.367A1.986,1.986,0,0,1,163,41.384a.5.5,0,0,1,.5.5V43.7a.845.845,0,0,0,1.69,0V41.879A2.188,2.188,0,0,0,163,39.693Zm-20.52-32.9a.62.62,0,1,1-1.24,0v-2.9a.62.62,0,1,1,1.24,0Zm11.868,35.962a8.758,8.758,0,0,0-.325-1.554l1.118-.892a5.167,5.167,0,0,0,1.82.642v3.888Zm6.912-6.951a3.516,3.516,0,1,1-3.516-3.516A3.52,3.52,0,0,1,161.263,35.8Zm-14.78-.8V29.026l4.021,3.208-3.547,2.83C146.8,35.039,146.642,35.018,146.482,35Zm2.541-13.561a3.552,3.552,0,0,0-.879,3.063l-1.662,1.326V19.414Zm10.531-3.848h-3.719V16.517h3.719Zm-2.591,5.093v2.927L155.2,24.2c.012-.116.018-.234.018-.353a3.546,3.546,0,0,0-.77-2.208l.4-.319A3.555,3.555,0,0,0,156.963,22.686Zm-3.44,1.164a1.875,1.875,0,1,1-1.875-1.875A1.877,1.877,0,0,1,153.523,23.85Zm-6.333,3.578,1.684-1.343a3.56,3.56,0,0,0,5.706-.21l1.948,1.554-4.669,3.725Zm9.773,1.815v1.411a5.207,5.207,0,0,0-3.307,1.932l-.442-.353Zm.732-8.171a1.86,1.86,0,0,1-1.856-1.789h3.712A1.86,1.86,0,0,1,157.7,21.072Zm0-8.3a1.861,1.861,0,0,1,1.859,1.859v.2h-3.719v-.2A1.861,1.861,0,0,1,157.7,12.771Zm-3.517,6.919-1.114.889a3.553,3.553,0,0,0-2.548-.109l-2.4-1.917h6.032v.66A3.571,3.571,0,0,0,154.178,19.691Zm-7.006-8.108a1.18,1.18,0,1,1-1.18-1.18A1.181,1.181,0,0,1,147.173,11.582Zm-3.056,14.831v-2.75h.676v2.75Zm4.843,9.215,2.9-2.313.972.775a5.19,5.19,0,0,0,.982,5.115l-.468.373A8.883,8.883,0,0,0,148.96,35.628Zm5.38,9.278,2.188,1.746-4.669,3.725-.22-.175A8.811,8.811,0,0,0,154.339,44.906Zm-7.857,9.76v-2.1a8.766,8.766,0,0,0,3.781-1.3l.24.191Zm10.481-6.2v5.982l-3.749-2.991Zm1.69.047v-2.75h.675v2.75Z" transform="translate(-126.214)"/>
        <path id="XMLID_1423_" d="M262.208,204.151a.841.841,0,0,0-.84.845.848.848,0,1,0,.85-.845Z" transform="translate(-236.784 -181.146)"/>
        <path id="XMLID_1424_" d="M415.5,410.263l-1.069,0h0a.845.845,0,0,0,0,1.69l1.069,0h0a.845.845,0,0,0,0-1.69Z" transform="translate(-371.851 -364.03)"/>
        <path id="XMLID_1425_" d="M410.9,382.94l-.927.532a.845.845,0,1,0,.841,1.466l.928-.532a.845.845,0,0,0-.841-1.466Z" transform="translate(-368.262 -339.689)"/>
        <path id="XMLID_1426_" d="M411.606,433.6l-.924-.537a.845.845,0,1,0-.85,1.461l.924.537a.845.845,0,1,0,.85-1.461Z" transform="translate(-368.145 -384.158)"/>
        <path id="XMLID_1427_" d="M103.257,215.833h0l1.069,0a.845.845,0,0,0,0-1.69h0l-1.069,0a.845.845,0,0,0,0,1.69Z" transform="translate(-95.74 -190.01)"/>
        <path id="XMLID_1428_" d="M108.136,188.287l.928.532a.845.845,0,1,0,.841-1.466l-.928-.532a.845.845,0,0,0-.841,1.466Z" transform="translate(-100.442 -165.669)"/>
        <path id="XMLID_1429_" d="M109.216,236.938l-.924.537a.845.845,0,1,0,.849,1.461l.924-.537a.845.845,0,1,0-.849-1.461Z" transform="translate(-100.584 -210.137)"/>
        <path id="XMLID_1430_" d="M408.524,290.043a5.291,5.291,0,0,0,0-7.483.845.845,0,1,0-1.2,1.2,3.6,3.6,0,0,1,0,5.093.845.845,0,1,0,1.2,1.2Z" transform="translate(-366.078 -250.5)"/>
        <path id="XMLID_1431_" d="M433.908,273.845a.845.845,0,1,0-1.2,1.2,4.99,4.99,0,0,1,0,7.056.845.845,0,0,0,1.2,1.2,6.68,6.68,0,0,0,0-9.447Z" transform="translate(-388.601 -242.768)"/>
        <path id="XMLID_1432_" d="M382.013,291.206a.845.845,0,0,0,0,1.2,2.226,2.226,0,0,1,0,3.144.845.845,0,0,0,1.2,1.2,3.918,3.918,0,0,0,0-5.535A.846.846,0,0,0,382.013,291.206Z" transform="translate(-343.615 -258.172)"/>
        <path id="XMLID_1433_" d="M73.886,357.149a3.577,3.577,0,0,1,1.055-2.546.845.845,0,0,0-1.2-1.2,5.291,5.291,0,0,0,0,7.483.845.845,0,0,0,1.2-1.2A3.578,3.578,0,0,1,73.886,357.149Z" transform="translate(-68.929 -313.364)"/>
        <path id="XMLID_1434_" d="M44.894,349.417a4.957,4.957,0,0,1,1.461-3.528.845.845,0,0,0-1.2-1.2,6.68,6.68,0,0,0,0,9.447.845.845,0,1,0,1.2-1.2A4.957,4.957,0,0,1,44.894,349.417Z" transform="translate(-43.204 -305.632)"/>
        <path id="XMLID_1435_" d="M103.434,362.052a.845.845,0,0,0-1.2,0,3.914,3.914,0,0,0,0,5.535.845.845,0,0,0,1.2-1.2,2.223,2.223,0,0,1,0-3.144A.846.846,0,0,0,103.434,362.052Z" transform="translate(-94.57 -321.035)"/>
      </g>
    </g>
  </g>
</svg>
