<svg xmlns="http://www.w3.org/2000/svg" width="395.043" height="395.368" viewBox="0 0 395.043 395.368">
  <g id="Grupo_1000269" data-name="Grupo 1000269" transform="translate(-940.751 -2680.836)">
    <g id="Grupo_997050" data-name="Grupo 997050" transform="translate(27.971 233.297)">
      <g id="Grupo_997049" data-name="Grupo 997049" transform="translate(912.78 2447.54)">
        <g id="Grupo_996976" data-name="Grupo 996976" transform="translate(11.21 262.014)">
          <path id="Trazado_652584" data-name="Trazado 652584" d="M1984.638,685.747a2.523,2.523,0,0,1-.046-5.045,195.017,195.017,0,0,0,19.868-1.385,2.522,2.522,0,1,1,.609,5.008,199.863,199.863,0,0,1-20.383,1.421Zm-20.156-.65c-.071,0-.141,0-.212-.009a198.681,198.681,0,0,1-20.246-2.746,2.523,2.523,0,0,1,.937-4.958,193.472,193.472,0,0,0,19.728,2.676,2.523,2.523,0,0,1-.207,5.037Zm-39.6-7.481a2.528,2.528,0,0,1-.724-.107,196.964,196.964,0,0,1-19.255-6.871,2.523,2.523,0,0,1,1.94-4.658,191.853,191.853,0,0,0,18.76,6.7,2.523,2.523,0,0,1-.721,4.941Zm-37.209-15.5a2.511,2.511,0,0,1-1.2-.308,198.51,198.51,0,0,1-17.419-10.689,2.523,2.523,0,1,1,2.857-4.158,193.516,193.516,0,0,0,16.975,10.416,2.523,2.523,0,0,1-1.209,4.739ZM1854.459,639.3a2.517,2.517,0,0,1-1.634-.6,200.065,200.065,0,0,1-14.861-14.021,2.523,2.523,0,0,1,3.646-3.487,194.824,194.824,0,0,0,14.485,13.666,2.523,2.523,0,0,1-1.636,4.444Zm-27.844-29.114a2.519,2.519,0,0,1-1.994-.976,199.019,199.019,0,0,1-11.683-16.755,2.523,2.523,0,1,1,4.282-2.669,193.692,193.692,0,0,0,11.385,16.329,2.523,2.523,0,0,1-1.99,4.07ZM1805.315,576a2.523,2.523,0,0,1-2.269-1.417,197.5,197.5,0,0,1-7.992-18.8,2.523,2.523,0,1,1,4.74-1.73,192.24,192.24,0,0,0,7.787,18.319,2.524,2.524,0,0,1-2.266,3.629Z" transform="translate(-1794.901 -552.393)"/>
        </g>
        <g id="Grupo_996977" data-name="Grupo 996977" transform="translate(338.574 62.944)">
          <path id="Trazado_652585" data-name="Trazado 652585" d="M2246.656,537.236a2.522,2.522,0,0,1-2.078-3.949,193.543,193.543,0,0,0,10.4-16.983,2.523,2.523,0,1,1,4.433,2.41,198.869,198.869,0,0,1-10.671,17.427A2.52,2.52,0,0,1,2246.656,537.236Zm19.237-35.406a2.525,2.525,0,0,1-2.328-3.492,192.05,192.05,0,0,0,6.677-18.761,2.523,2.523,0,0,1,4.835,1.442,197.167,197.167,0,0,1-6.853,19.255A2.525,2.525,0,0,1,2265.893,501.83Zm11.521-38.617a2.526,2.526,0,0,1-2.482-2.989,193.386,193.386,0,0,0,2.661-19.738,2.523,2.523,0,1,1,5.028.415,198.439,198.439,0,0,1-2.731,20.255A2.523,2.523,0,0,1,2277.415,463.213Zm3.326-40.164a2.522,2.522,0,0,1-2.521-2.473,195.42,195.42,0,0,0-1.4-19.862,2.522,2.522,0,1,1,5.008-.613,200.4,200.4,0,0,1,1.439,20.377,2.523,2.523,0,0,1-2.473,2.572Zm-4.906-39.981a2.524,2.524,0,0,1-2.457-1.959,192.218,192.218,0,0,0-5.453-19.143,2.522,2.522,0,1,1,4.773-1.633,197.293,197.293,0,0,1,5.6,19.648,2.523,2.523,0,0,1-1.9,3.023A2.551,2.551,0,0,1,2275.835,383.067ZM2262.8,344.953a2.522,2.522,0,0,1-2.29-1.464,193.1,193.1,0,0,0-9.29-17.608,2.523,2.523,0,0,1,4.335-2.582,198.081,198.081,0,0,1,9.533,18.071,2.525,2.525,0,0,1-2.288,3.584Zm-20.614-34.615a2.518,2.518,0,0,1-2.024-1.016,194.676,194.676,0,0,0-12.7-15.335,2.522,2.522,0,1,1,3.714-3.414,199.483,199.483,0,0,1,13.034,15.734,2.522,2.522,0,0,1-2.021,4.03Z" transform="translate(-2226.795 -289.758)"/>
        </g>
        <g id="Grupo_996978" data-name="Grupo 996978" transform="translate(57.96 0)">
          <path id="Trazado_652586" data-name="Trazado 652586" d="M1859.1,267.4a2.523,2.523,0,0,1-1.767-4.323,199.5,199.5,0,0,1,15.3-13.541,2.523,2.523,0,0,1,3.146,3.944,194.623,194.623,0,0,0-14.912,13.2A2.514,2.514,0,0,1,1859.1,267.4Zm31.506-25.117a2.523,2.523,0,0,1-1.365-4.647,198.445,198.445,0,0,1,17.748-10.123,2.523,2.523,0,1,1,2.27,4.505,193.4,193.4,0,0,0-17.295,9.866A2.506,2.506,0,0,1,1890.607,242.284Zm35.979-18.122a2.523,2.523,0,0,1-.9-4.882,197.079,197.079,0,0,1,19.453-6.246,2.523,2.523,0,1,1,1.29,4.878A192.094,192.094,0,0,0,1927.481,224,2.513,2.513,0,0,1,1926.586,224.162Zm38.94-10.3a2.523,2.523,0,0,1-.386-5.016,199.47,199.47,0,0,1,20.323-2.1,2.523,2.523,0,1,1,.261,5.039,194.361,194.361,0,0,0-19.806,2.05A2.562,2.562,0,0,1,1965.526,213.857Zm60.317-.059a2.59,2.59,0,0,1-.387-.03,194.223,194.223,0,0,0-19.812-2.011,2.523,2.523,0,0,1,.251-5.04,199.576,199.576,0,0,1,20.33,2.064,2.523,2.523,0,0,1-.381,5.016Z" transform="translate(-1856.578 -206.715)"/>
        </g>
        <path id="Trazado_652587" data-name="Trazado 652587" d="M1847.4,420.682a146.25,146.25,0,1,1,146.251,146.251A146.251,146.251,0,0,1,1847.4,420.682Z" transform="translate(-1796.397 -223.105)" fill="#e8e8e8"/>
        <path id="Trazado_652588" data-name="Trazado 652588" d="M2076.33,521.458v-17.7h13.326v11.646Z" transform="translate(-1851.804 -278.609)" fill="#f1b62b"/>
        <g id="Grupo_996979" data-name="Grupo 996979" transform="translate(222.324 222.949)">
          <path id="Trazado_652589" data-name="Trazado 652589" d="M2075.627,522.957a2.2,2.2,0,0,1-2.2-2.2v-17.7a2.2,2.2,0,0,1,2.2-2.2h13.326a2.2,2.2,0,0,1,2.2,2.2V514.7a2.2,2.2,0,1,1-4.4,0v-9.444h-8.922v15.5A2.2,2.2,0,0,1,2075.627,522.957Z" transform="translate(-2073.425 -500.855)"/>
        </g>
        <g id="Grupo_996980" data-name="Grupo 996980" transform="translate(230.007 332.623)">
          <path id="Trazado_652590" data-name="Trazado 652590" d="M2117.21,700.383a2.2,2.2,0,0,1-1.58-.667l-27.214-28a2.2,2.2,0,0,1,.019-3.089l18.6-18.675h-21.27a2.2,2.2,0,0,1,0-4.4h26.571a2.2,2.2,0,0,1,1.56,3.756l-20.811,20.9,25.7,26.446a2.2,2.2,0,0,1-1.579,3.736Z" transform="translate(-2083.562 -645.549)"/>
        </g>
        <g id="Grupo_996981" data-name="Grupo 996981" transform="translate(176.594 332.623)">
          <path id="Trazado_652591" data-name="Trazado 652591" d="M2015.294,650.361a2.2,2.2,0,0,1-.021-4.4l42.277-.408h.021a2.2,2.2,0,0,1,.021,4.4l-42.277.407Z" transform="translate(-2013.093 -645.549)"/>
        </g>
        <g id="Grupo_996982" data-name="Grupo 996982" transform="translate(134.666 332.623)">
          <path id="Trazado_652592" data-name="Trazado 652592" d="M1985.919,649.953H1959.98a2.2,2.2,0,0,1,0-4.4h25.939a2.2,2.2,0,0,1,0,4.4Z" transform="translate(-1957.778 -645.549)"/>
        </g>
        <g id="Grupo_996983" data-name="Grupo 996983" transform="translate(250.33 332.041)">
          <path id="Trazado_652593" data-name="Trazado 652593" d="M2123.817,699.871a2.2,2.2,0,0,1-2.03-1.347l-11.239-26.663a2.2,2.2,0,0,1,.441-2.38l23.066-24.023a2.2,2.2,0,0,1,1.588-.677h56.986a2.2,2.2,0,0,1,1.56,3.756l-13.018,13.07a2.2,2.2,0,1,1-3.12-3.107l9.277-9.315h-50.746l-21.412,22.3,10.675,25.328a2.2,2.2,0,0,1-2.028,3.058Z" transform="translate(-2110.375 -644.781)"/>
        </g>
        <g id="Grupo_996984" data-name="Grupo 996984" transform="translate(137.434 332.623)">
          <path id="Trazado_652594" data-name="Trazado 652594" d="M1963.631,673.374a2.2,2.2,0,0,1-1.565-3.75l23.172-23.421a2.2,2.2,0,1,1,3.13,3.1L1965.2,672.721A2.193,2.193,0,0,1,1963.631,673.374Z" transform="translate(-1961.428 -645.549)"/>
        </g>
        <g id="Grupo_996985" data-name="Grupo 996985" transform="translate(153.527 333.03)">
          <path id="Trazado_652595" data-name="Trazado 652595" d="M1984.863,674.514a2.2,2.2,0,0,1-1.588-3.728l23.065-24.023a2.2,2.2,0,0,1,3.177,3.05l-23.066,24.024A2.2,2.2,0,0,1,1984.863,674.514Z" transform="translate(-1982.661 -646.086)"/>
        </g>
        <g id="Grupo_996986" data-name="Grupo 996986" transform="translate(277.603 332.623)">
          <path id="Trazado_652596" data-name="Trazado 652596" d="M2148.558,672.383a2.2,2.2,0,0,1-1.56-3.756l22.341-22.431a2.2,2.2,0,0,1,3.12,3.108l-22.341,22.431A2.192,2.192,0,0,1,2148.558,672.383Z" transform="translate(-2146.356 -645.549)"/>
        </g>
        <g id="Grupo_996987" data-name="Grupo 996987" transform="translate(207.701 332.624)">
          <path id="Trazado_652597" data-name="Trazado 652597" d="M2056.335,672.384a2.2,2.2,0,0,1-1.56-3.756l22.341-22.431a2.2,2.2,0,0,1,3.121,3.109l-22.341,22.43A2.2,2.2,0,0,1,2056.335,672.384Z" transform="translate(-2054.133 -645.549)"/>
        </g>
        <path id="Trazado_652598" data-name="Trazado 652598" d="M2069.235,615.756V548.415h55.013l7.581,7.811-19.008,19.1,23.219,23.31-16.572,16.2Z" transform="translate(-1850.087 -289.416)" fill="#ee4e5d"/>
        <g id="Grupo_996988" data-name="Grupo 996988" transform="translate(216.945 256.797)">
          <path id="Trazado_652599" data-name="Trazado 652599" d="M2068.531,617.255a2.2,2.2,0,0,1-2.2-2.2V547.712a2.2,2.2,0,0,1,2.2-2.2h55.014a2.206,2.206,0,0,1,1.581.668l7.58,7.811a2.2,2.2,0,0,1-.019,3.087l-17.46,17.544,21.672,21.757a2.2,2.2,0,0,1-.021,3.129l-16.571,16.2a2.2,2.2,0,1,1-3.079-3.149l14.983-14.65-21.651-21.735a2.2,2.2,0,0,1,0-3.108l17.48-17.564-5.425-5.589h-51.881v65.139A2.2,2.2,0,0,1,2068.531,617.255Z" transform="translate(-2066.329 -545.51)"/>
        </g>
        <path id="Trazado_652600" data-name="Trazado 652600" d="M2155.056,614.546l17.26-16.924-22.8-22.9,18.178-18.255-7.841-8.056h36.833V613.8Z" transform="translate(-1869.517 -289.416)" fill="#ee4e5d"/>
        <g id="Grupo_996989" data-name="Grupo 996989" transform="translate(277.794 256.796)">
          <path id="Trazado_652601" data-name="Trazado 652601" d="M2154.353,616.045a2.2,2.2,0,0,1-1.542-3.775l15.676-15.37-21.238-21.323a2.2,2.2,0,0,1,0-3.108L2163.9,555.75l-6.328-6.5a2.2,2.2,0,0,1,1.578-3.738h36.833a2.2,2.2,0,0,1,2.2,2.2v65.382a2.2,2.2,0,0,1-4.4,0v-63.18h-29.415l4.2,4.319a2.2,2.2,0,0,1-.018,3.089l-16.63,16.7,21.256,21.342a2.2,2.2,0,0,1-.019,3.126l-17.261,16.924A2.2,2.2,0,0,1,2154.353,616.045Z" transform="translate(-2146.608 -545.509)"/>
        </g>
        <path id="Trazado_652602" data-name="Trazado 652602" d="M2121.324,502.394l17.234-9.426L2212.422,535h-59.391Z" transform="translate(-1862.694 -275.997)" fill="#222b5a"/>
        <g id="Grupo_996990" data-name="Grupo 996990" transform="translate(256.428 214.77)">
          <path id="Trazado_652603" data-name="Trazado 652603" d="M2211.718,536.5h-59.39a2.2,2.2,0,0,1-1.579-.667l-31.707-32.606a2.2,2.2,0,0,1,.522-3.467l17.234-9.425a2.2,2.2,0,0,1,2.146.018l73.863,42.031a2.2,2.2,0,0,1-1.089,4.116Zm-58.46-4.4H2203.4l-65.562-37.307-13.615,7.446Z" transform="translate(-2118.419 -490.063)"/>
        </g>
        <path id="Trazado_652604" data-name="Trazado 652604" d="M2089.7,512.647l-49.575,27.115H2117.2Z" transform="translate(-1843.041 -280.76)" fill="#222b5a"/>
        <g id="Grupo_996991" data-name="Grupo 996991" transform="translate(194.88 229.685)">
          <path id="Trazado_652605" data-name="Trazado 652605" d="M2116.5,541.261H2039.42a2.2,2.2,0,0,1-1.056-4.134l49.575-27.115a2.2,2.2,0,0,1,2.6.364l27.505,27.115a2.2,2.2,0,0,1-1.545,3.77Zm-68.468-4.4h63.1l-22.516-22.2Z" transform="translate(-2037.218 -509.741)"/>
        </g>
        <g id="Grupo_996992" data-name="Grupo 996992" transform="translate(268.685 233.283)">
          <path id="Trazado_652606" data-name="Trazado 652606" d="M2144.9,530.749a2.2,2.2,0,0,1-.91-4.208,3.994,3.994,0,1,0-5.21-5.381,2.2,2.2,0,0,1-3.974-1.9,8.385,8.385,0,1,1,11,11.29A2.184,2.184,0,0,1,2144.9,530.749Z" transform="translate(-2134.59 -514.488)"/>
        </g>
        <rect id="Rectángulo_302424" data-name="Rectángulo 302424" width="24.114" height="24.211" transform="translate(229.854 279.126)" fill="#fff"/>
        <g id="Grupo_996993" data-name="Grupo 996993" transform="translate(227.652 276.924)">
          <path id="Trazado_652607" data-name="Trazado 652607" d="M2106.771,600.68h-24.115a2.2,2.2,0,0,1-2.2-2.2V574.267a2.2,2.2,0,0,1,2.2-2.2h24.115a2.2,2.2,0,0,1,2.2,2.2v24.211A2.2,2.2,0,0,1,2106.771,600.68Zm-21.912-4.4h19.71V576.469h-19.71Z" transform="translate(-2080.455 -572.065)"/>
        </g>
        <g id="Grupo_996994" data-name="Grupo 996994" transform="translate(240.108 276.924)">
          <path id="Trazado_652608" data-name="Trazado 652608" d="M2099.09,599.654a2.2,2.2,0,0,1-2.2-2.2V574.267a2.2,2.2,0,0,1,4.4,0v23.186A2.2,2.2,0,0,1,2099.09,599.654Z" transform="translate(-2096.888 -572.065)"/>
        </g>
        <g id="Grupo_996995" data-name="Grupo 996995" transform="translate(228.561 288.518)">
          <path id="Trazado_652609" data-name="Trazado 652609" d="M2106.948,591.764h-23.092a2.2,2.2,0,0,1,0-4.4h23.092a2.2,2.2,0,1,1,0,4.4Z" transform="translate(-2081.654 -587.36)"/>
        </g>
        <path id="Trazado_652610" data-name="Trazado 652610" d="M2166.318,593.758V574.971h24.114v24.211h-18.886Z" transform="translate(-1873.584 -295.844)" fill="#fff"/>
        <g id="Grupo_996996" data-name="Grupo 996996" transform="translate(290.532 276.925)">
          <path id="Trazado_652611" data-name="Trazado 652611" d="M2189.729,600.681h-18.887a2.2,2.2,0,0,1,0-4.4h16.685V576.47h-19.71v16.585a2.2,2.2,0,1,1-4.4,0V574.268a2.2,2.2,0,0,1,2.2-2.2h24.114a2.2,2.2,0,0,1,2.2,2.2v24.211A2.2,2.2,0,0,1,2189.729,600.681Z" transform="translate(-2163.413 -572.066)"/>
        </g>
        <g id="Grupo_996997" data-name="Grupo 996997" transform="translate(302.987 276.924)">
          <path id="Trazado_652612" data-name="Trazado 652612" d="M2182.047,599.654a2.2,2.2,0,0,1-2.2-2.2V574.267a2.2,2.2,0,0,1,4.4,0v23.186A2.2,2.2,0,0,1,2182.047,599.654Z" transform="translate(-2179.845 -572.065)"/>
        </g>
        <g id="Grupo_996998" data-name="Grupo 996998" transform="translate(291.439 288.518)">
          <path id="Trazado_652613" data-name="Trazado 652613" d="M2189.905,591.764h-23.093a2.2,2.2,0,0,1,0-4.4h23.093a2.2,2.2,0,0,1,0,4.4Z" transform="translate(-2164.61 -587.36)"/>
        </g>
        <path id="Trazado_652614" data-name="Trazado 652614" d="M1991.611,605.7l12.115,11.058-9.849,9.648-25.025.414V591.655h28.241l4.442,4.073Z" transform="translate(-1825.792 -299.882)" fill="#179587"/>
        <path id="Trazado_652615" data-name="Trazado 652615" d="M2044.075,591.655v34.138l-22.851.367,10.123-9.94-11.9-10.828,9.48-9.526-4.488-4.212Z" transform="translate(-1838.037 -299.882)" fill="#179587"/>
        <g id="Grupo_996999" data-name="Grupo 996999" transform="translate(184.602 289.57)">
          <path id="Trazado_652616" data-name="Trazado 652616" d="M2045.089,627.288a2.2,2.2,0,0,1-2.2-2.2V593.152H2025.86a2.2,2.2,0,0,1,0-4.4h19.229a2.2,2.2,0,0,1,2.2,2.2v34.136A2.2,2.2,0,0,1,2045.089,627.288Z" transform="translate(-2023.658 -588.748)"/>
        </g>
        <g id="Grupo_997000" data-name="Grupo 997000" transform="translate(140.861 289.569)">
          <path id="Trazado_652617" data-name="Trazado 652617" d="M1968.153,628.31a2.2,2.2,0,0,1-2.2-2.2V590.949a2.2,2.2,0,0,1,2.2-2.2h28.239a2.2,2.2,0,0,1,0,4.4h-26.037v32.957A2.2,2.2,0,0,1,1968.153,628.31Z" transform="translate(-1965.951 -588.747)"/>
        </g>
        <path id="Trazado_652618" data-name="Trazado 652618" d="M2039.6,582.962l-28.442-27.217-10.188,8.5,19.4,18.721Z" transform="translate(-1833.564 -291.191)" fill="#222b5a"/>
        <g id="Grupo_997001" data-name="Grupo 997001" transform="translate(165.201 262.352)">
          <path id="Trazado_652619" data-name="Trazado 652619" d="M2038.894,584.461h-19.229a2.2,2.2,0,0,1-1.53-.618l-19.4-18.721a2.2,2.2,0,0,1,.119-3.275l10.188-8.5a2.2,2.2,0,0,1,2.932.1l28.441,27.217a2.2,2.2,0,0,1-1.522,3.793Zm-18.34-4.4h12.854l-23.057-22.064-6.792,5.665Z" transform="translate(-1998.062 -552.839)"/>
        </g>
        <path id="Trazado_652620" data-name="Trazado 652620" d="M1968.856,586.909l14.119-12.359,14.12,12.964Z" transform="translate(-1825.792 -295.742)" fill="#222b5a"/>
        <g id="Grupo_997002" data-name="Grupo 997002" transform="translate(140.861 276.607)">
          <path id="Trazado_652621" data-name="Trazado 652621" d="M1996.393,589.013h-.048l-28.24-.6a2.2,2.2,0,0,1-1.4-3.858l14.119-12.359a2.2,2.2,0,0,1,2.94.035l14.12,12.964a2.2,2.2,0,0,1-1.489,3.824Zm-22.521-4.887,16.729.358-8.365-7.68Z" transform="translate(-1965.951 -571.646)"/>
        </g>
        <g id="Grupo_997003" data-name="Grupo 997003" transform="translate(154.981 276.609)">
          <path id="Trazado_652622" data-name="Trazado 652622" d="M1998.05,623.408a2.2,2.2,0,0,1-1.541-3.775l7.823-7.668-10.4-9.482a2.2,2.2,0,0,1-.076-3.181l8.309-8.342-16.873-15.488a2.2,2.2,0,0,1,2.978-3.245l18.563,17.039a2.2,2.2,0,0,1,.071,3.176l-8.3,8.337,10.421,9.5a2.2,2.2,0,0,1,.058,3.2l-9.488,9.3A2.192,2.192,0,0,1,1998.05,623.408Z" transform="translate(-1984.578 -571.648)"/>
        </g>
        <g id="Grupo_997004" data-name="Grupo 997004" transform="translate(164.679 271.257)">
          <path id="Trazado_652623" data-name="Trazado 652623" d="M2015.515,622.18a2.2,2.2,0,0,1-1.543-3.773l8.831-8.676-10.184-9.268a2.2,2.2,0,0,1-.078-3.183l7.886-7.919L1998.07,568.4a2.2,2.2,0,0,1,3.012-3.212L2025.1,587.7a2.2,2.2,0,0,1,.054,3.16l-7.862,7.9,10.2,9.285a2.2,2.2,0,0,1,.061,3.2l-10.493,10.308A2.193,2.193,0,0,1,2015.515,622.18Z" transform="translate(-1997.374 -564.587)"/>
        </g>
        <path id="Trazado_652624" data-name="Trazado 652624" d="M2043.567,416.447l61.423-89.228,48.294-.929,64.443,89.575Z" transform="translate(-1843.875 -235.656)" fill="#e6ddc8"/>
        <g id="Grupo_997005" data-name="Grupo 997005" transform="translate(197.491 88.433)">
          <path id="Trazado_652625" data-name="Trazado 652625" d="M2042.862,417.947a2.2,2.2,0,0,1-1.812-3.451l61.422-89.228a2.2,2.2,0,0,1,1.772-.953l48.294-.929a2.22,2.22,0,0,1,1.83.916l64.443,89.576a2.2,2.2,0,0,1-3.576,2.572l-63.767-88.637-46.01.885-60.781,88.3A2.2,2.2,0,0,1,2042.862,417.947Z" transform="translate(-2040.662 -323.386)"/>
        </g>
        <g id="Grupo_997006" data-name="Grupo 997006" transform="translate(220.736 144.552)">
          <path id="Trazado_652626" data-name="Trazado 652626" d="M2073.53,421.74a2.2,2.2,0,0,1-1.853-3.39l12.755-19.911a2.2,2.2,0,0,1,3.708,2.375l-12.755,19.911A2.2,2.2,0,0,1,2073.53,421.74Z" transform="translate(-2071.33 -397.424)"/>
        </g>
        <g id="Grupo_997007" data-name="Grupo 997007" transform="translate(238.158 127.128)">
          <path id="Trazado_652627" data-name="Trazado 652627" d="M2096.515,388.421a2.2,2.2,0,0,1-1.875-3.353l5.874-9.58a2.2,2.2,0,0,1,3.755,2.3l-5.874,9.58A2.2,2.2,0,0,1,2096.515,388.421Z" transform="translate(-2094.315 -374.437)"/>
        </g>
        <g id="Grupo_997008" data-name="Grupo 997008" transform="translate(280.358 58.793)">
          <path id="Trazado_652628" data-name="Trazado 652628" d="M2152.192,291.737a2.2,2.2,0,1,1,0-4.4,5.633,5.633,0,0,0,4.479-2.2,2.2,2.2,0,1,1,3.48,2.7A10.008,10.008,0,0,1,2152.192,291.737Z" transform="translate(-2149.99 -284.282)"/>
        </g>
        <path id="Trazado_652629" data-name="Trazado 652629" d="M2152.685,261.907a12.359,12.359,0,0,0,6.86,2.072,12.515,12.515,0,0,0,0-25.03,12.363,12.363,0,0,0-7.1,2.233,10.623,10.623,0,1,0-16.328-1.141l-7.077-3.725a7.918,7.918,0,0,0-.816,15.79,7.908,7.908,0,1,0,7.87,12.134Z" transform="translate(-1862.654 -210.702)" fill="#e8e8e8"/>
        <g id="Grupo_997009" data-name="Grupo 997009" transform="translate(256.303 10.284)">
          <path id="Trazado_652630" data-name="Trazado 652630" d="M2128.8,269.322a10.131,10.131,0,0,1-6.615-17.765,10.134,10.134,0,0,1,6.156-18.146,2.208,2.208,0,0,1,1.026.253l1.956,1.029a12.7,12.7,0,0,1-.092-1.546,12.821,12.821,0,1,1,25.268,3.084,14.72,14.72,0,1,1-5.732,26.807,2.2,2.2,0,0,1,2.435-3.669,10.173,10.173,0,0,0,5.642,1.7,10.313,10.313,0,0,0,0-20.627,10.162,10.162,0,0,0-5.838,1.837,2.2,2.2,0,0,1-2.859-3.32,8.42,8.42,0,1,0-12.936-.906,2.2,2.2,0,0,1-2.818,3.227l-6.553-3.449a5.717,5.717,0,0,0-.087,11.375,2.2,2.2,0,0,1,.128,4.364,5.706,5.706,0,1,0,5.671,8.756,2.2,2.2,0,0,1,3.687,2.41A10.057,10.057,0,0,1,2128.8,269.322Z" transform="translate(-2118.254 -220.283)"/>
        </g>
        <path id="Trazado_652631" data-name="Trazado 652631" d="M2123.615,328.718l-1.468,49.716a5.111,5.111,0,1,0,10.223,0V361.629a4.223,4.223,0,1,1,8.445,0v27.03a6.534,6.534,0,1,0,13.069,0V366.833a12.666,12.666,0,0,0,12.64-12.692v-25.7Z" transform="translate(-1862.894 -236.176)" fill="#f1b62b"/>
        <g id="Grupo_997010" data-name="Grupo 997010" transform="translate(257.051 90.06)">
          <path id="Trazado_652632" data-name="Trazado 652632" d="M2146.646,396.718a8.759,8.759,0,0,1-8.735-8.762v-27.03a2.021,2.021,0,1,0-4.042,0v16.806a7.313,7.313,0,1,1-14.626,0c0-.022,0-.043,0-.065l1.468-49.716a2.2,2.2,0,0,1,2.2-2.137h.066a2.2,2.2,0,0,1,2.135,2.266l-1.467,49.68a2.91,2.91,0,1,0,5.819-.028V360.926a6.425,6.425,0,1,1,12.849,0v27.03a4.332,4.332,0,1,0,8.664,0V366.13a2.2,2.2,0,0,1,2.2-2.2,10.477,10.477,0,0,0,10.439-10.49v-25.7a2.2,2.2,0,0,1,4.4,0v25.7a14.9,14.9,0,0,1-12.641,14.73v19.788A8.759,8.759,0,0,1,2146.646,396.718Z" transform="translate(-2119.242 -325.533)"/>
        </g>
        <g id="Grupo_997011" data-name="Grupo 997011" transform="translate(291.809 109.066)">
          <path id="Trazado_652633" data-name="Trazado 652633" d="M2167.3,365.159a2.2,2.2,0,0,1-1.313-3.971,7.969,7.969,0,0,0,3.209-6.378v-2a2.2,2.2,0,0,1,4.4,0v2a12.387,12.387,0,0,1-4.992,9.916A2.193,2.193,0,0,1,2167.3,365.159Z" transform="translate(-2165.098 -350.607)"/>
        </g>
        <g id="Grupo_997012" data-name="Grupo 997012" transform="translate(284.852 164.463)">
          <path id="Trazado_652634" data-name="Trazado 652634" d="M2158.121,438.85a2.2,2.2,0,0,1-2.2-2.2V425.895a2.2,2.2,0,0,1,4.4,0v10.753A2.2,2.2,0,0,1,2158.121,438.85Z" transform="translate(-2155.919 -423.693)"/>
        </g>
        <g id="Grupo_997013" data-name="Grupo 997013" transform="translate(267.275 149.547)">
          <path id="Trazado_652635" data-name="Trazado 652635" d="M2134.932,418.286a2.2,2.2,0,0,1-2.2-2.2v-9.868a2.2,2.2,0,0,1,4.4,0v9.868A2.2,2.2,0,0,1,2134.932,418.286Z" transform="translate(-2132.73 -404.014)"/>
        </g>
        <g id="Grupo_997014" data-name="Grupo 997014" transform="translate(308.046 103.586)">
          <path id="Trazado_652636" data-name="Trazado 652636" d="M2188.721,379.019a2.2,2.2,0,0,1-2.2-2.2V345.58a2.2,2.2,0,0,1,4.4,0v31.238A2.2,2.2,0,0,1,2188.721,379.019Z" transform="translate(-2186.519 -343.378)"/>
        </g>
        <g id="Grupo_997015" data-name="Grupo 997015" transform="translate(308.046 147.452)">
          <path id="Trazado_652637" data-name="Trazado 652637" d="M2188.721,419.278a2.2,2.2,0,0,1-2.2-2.2V403.452a2.2,2.2,0,0,1,4.4,0v13.625A2.2,2.2,0,0,1,2188.721,419.278Z" transform="translate(-2186.519 -401.25)"/>
        </g>
        <g id="Grupo_997016" data-name="Grupo 997016" transform="translate(274.506 71.289)">
          <path id="Trazado_652638" data-name="Trazado 652638" d="M2144.473,316.674a2.2,2.2,0,0,1-2.2-2.2v-11.5a2.2,2.2,0,0,1,4.4,0v11.5A2.2,2.2,0,0,1,2144.473,316.674Z" transform="translate(-2142.27 -300.768)"/>
        </g>
        <g id="Grupo_997017" data-name="Grupo 997017" transform="translate(291.143 71.551)">
          <path id="Trazado_652639" data-name="Trazado 652639" d="M2166.421,314.453a2.2,2.2,0,0,1-2.2-2.2v-8.936a2.2,2.2,0,0,1,4.4,0v8.936A2.2,2.2,0,0,1,2166.421,314.453Z" transform="translate(-2164.219 -301.113)"/>
        </g>
        <g id="Grupo_997018" data-name="Grupo 997018" transform="translate(267.475 169.415)">
          <path id="Trazado_652640" data-name="Trazado 652640" d="M2135.2,443.806a2.2,2.2,0,0,1-2.2-2.2v-9.175a2.2,2.2,0,0,1,4.4,0V441.6A2.2,2.2,0,0,1,2135.2,443.806Z" transform="translate(-2132.994 -430.227)"/>
        </g>
        <g id="Grupo_997019" data-name="Grupo 997019" transform="translate(299.885 60.773)">
          <path id="Trazado_652641" data-name="Trazado 652641" d="M2181.812,293.441a2.2,2.2,0,0,1-1.067-.277l-3.858-2.142a2.2,2.2,0,1,1,2.138-3.85l3.858,2.142a2.2,2.2,0,0,1-1.071,4.127Z" transform="translate(-2175.753 -286.894)"/>
        </g>
        <g id="Grupo_997020" data-name="Grupo 997020" transform="translate(244.031 36.62)">
          <path id="Trazado_652642" data-name="Trazado 652642" d="M2109.158,260.467a2.245,2.245,0,0,1-.458-.048l-4.888-1.034a2.2,2.2,0,1,1,.91-4.308l4.888,1.033a2.2,2.2,0,0,1-.453,4.357Z" transform="translate(-2102.064 -255.029)"/>
        </g>
        <g id="Grupo_997021" data-name="Grupo 997021" transform="translate(301.364 12.859)">
          <path id="Trazado_652643" data-name="Trazado 652643" d="M2179.908,232.734a2.2,2.2,0,0,1-1.242-4.022l6.817-4.649a2.2,2.2,0,0,1,2.481,3.638l-6.817,4.649A2.188,2.188,0,0,1,2179.908,232.734Z" transform="translate(-2177.704 -223.681)"/>
        </g>
        <g id="Grupo_997022" data-name="Grupo 997022" transform="translate(296.027 132.754)">
          <path id="Trazado_652644" data-name="Trazado 652644" d="M2172.865,392.292a2.2,2.2,0,0,1-2.2-2.2v-6.03a2.2,2.2,0,1,1,4.4,0v6.03A2.2,2.2,0,0,1,2172.865,392.292Z" transform="translate(-2170.663 -381.859)"/>
        </g>
        <g id="Grupo_997023" data-name="Grupo 997023" transform="translate(296.027 145.695)">
          <path id="Trazado_652645" data-name="Trazado 652645" d="M2172.865,409.751a2.2,2.2,0,0,1-2.2-2.2v-6.414a2.2,2.2,0,1,1,4.4,0v6.414A2.2,2.2,0,0,1,2172.865,409.751Z" transform="translate(-2170.663 -398.933)"/>
        </g>
        <g id="Grupo_997024" data-name="Grupo 997024" transform="translate(296.027 157.434)">
          <path id="Trazado_652646" data-name="Trazado 652646" d="M2172.865,423.873a2.2,2.2,0,0,1-2.2-2.2v-5.049a2.2,2.2,0,1,1,4.4,0v5.049A2.2,2.2,0,0,1,2172.865,423.873Z" transform="translate(-2170.663 -414.42)"/>
        </g>
        <g id="Grupo_997025" data-name="Grupo 997025" transform="translate(295.909 94.666)">
          <path id="Trazado_652647" data-name="Trazado 652647" d="M2172.709,344.106a2.2,2.2,0,0,1-2.2-2.2v-8.093a2.2,2.2,0,0,1,4.4,0V341.9A2.2,2.2,0,0,1,2172.709,344.106Z" transform="translate(-2170.507 -331.609)"/>
        </g>
        <g id="Grupo_997026" data-name="Grupo 997026" transform="translate(282.595 75.438)">
          <path id="Trazado_652648" data-name="Trazado 652648" d="M2155.144,313.85a2.2,2.2,0,0,1-2.2-2.2v-3.2a2.2,2.2,0,1,1,4.4,0v3.2A2.2,2.2,0,0,1,2155.144,313.85Z" transform="translate(-2152.942 -306.242)"/>
        </g>
        <g id="Grupo_997027" data-name="Grupo 997027" transform="translate(260.273 63.269)">
          <path id="Trazado_652649" data-name="Trazado 652649" d="M2125.691,300.5a2.2,2.2,0,0,1-1.877-3.35l3.6-5.9a2.2,2.2,0,0,1,3.76,2.294l-3.6,5.9A2.2,2.2,0,0,1,2125.691,300.5Z" transform="translate(-2123.492 -290.187)"/>
        </g>
        <g id="Grupo_997028" data-name="Grupo 997028" transform="translate(331.948 142.775)">
          <path id="Trazado_652650" data-name="Trazado 652650" d="M2226.222,408.153a2.2,2.2,0,0,1-1.816-.953l-5.964-8.669a2.2,2.2,0,1,1,3.628-2.5l5.965,8.668a2.2,2.2,0,0,1-1.812,3.45Z" transform="translate(-2218.053 -395.08)"/>
        </g>
        <g id="Grupo_997029" data-name="Grupo 997029" transform="translate(341.802 156.102)">
          <path id="Trazado_652651" data-name="Trazado 652651" d="M2243.869,432.845a2.2,2.2,0,0,1-1.829-.973l-10.611-15.779a2.2,2.2,0,0,1,3.655-2.458l10.61,15.779a2.2,2.2,0,0,1-1.825,3.431Z" transform="translate(-2231.054 -412.662)"/>
        </g>
        <path id="Trazado_652652" data-name="Trazado 652652" d="M1852.671,472.382h-.58a14.817,14.817,0,0,1-14.818-14.818V433.4a14.818,14.818,0,0,1,14.818-14.818h.58a14.818,14.818,0,0,1,14.817,14.818v24.166a14.817,14.817,0,0,1-14.817,14.818Z" transform="translate(-1793.946 -257.993)" fill="#179587"/>
        <g id="Grupo_997030" data-name="Grupo 997030" transform="translate(41.126 158.386)">
          <path id="Trazado_652653" data-name="Trazado 652653" d="M1851.968,473.881h-.58a17.039,17.039,0,0,1-17.02-17.02V432.7a17.039,17.039,0,0,1,17.02-17.019h.58a17.039,17.039,0,0,1,17.02,17.019v24.166A17.039,17.039,0,0,1,1851.968,473.881Zm-.58-53.8a12.63,12.63,0,0,0-12.616,12.616v24.166a12.63,12.63,0,0,0,12.616,12.616h.58a12.63,12.63,0,0,0,12.616-12.616V432.7a12.631,12.631,0,0,0-12.616-12.616Z" transform="translate(-1834.369 -415.676)"/>
        </g>
        <path id="Trazado_652654" data-name="Trazado 652654" d="M1806.263,491.458h-.346a8.861,8.861,0,0,1-8.862-8.862V468.143a8.861,8.861,0,0,1,8.862-8.862h.346a8.862,8.862,0,0,1,8.863,8.862V482.6a8.863,8.863,0,0,1-8.863,8.862Z" transform="translate(-1784.212 -267.844)" fill="#179587"/>
        <g id="Grupo_997031" data-name="Grupo 997031" transform="translate(10.641 189.236)">
          <path id="Trazado_652655" data-name="Trazado 652655" d="M1805.56,492.956h-.346a11.076,11.076,0,0,1-11.064-11.064V467.441a11.077,11.077,0,0,1,11.064-11.065h.346a11.077,11.077,0,0,1,11.064,11.065v14.451A11.076,11.076,0,0,1,1805.56,492.956Zm-.346-32.177a6.668,6.668,0,0,0-6.66,6.661v14.451a6.668,6.668,0,0,0,6.66,6.66h.346a6.668,6.668,0,0,0,6.66-6.66V467.441a6.668,6.668,0,0,0-6.66-6.661Z" transform="translate(-1794.15 -456.376)"/>
        </g>
        <path id="Trazado_652656" data-name="Trazado 652656" d="M1967.94,343.054c0,7.9-30.908,14.311-69.036,14.311s-69.035-6.408-69.035-14.311Z" transform="translate(-1792.154 -239.713)" fill="#f1b62b"/>
        <g id="Grupo_997032" data-name="Grupo 997032" transform="translate(35.513 101.139)">
          <path id="Trazado_652657" data-name="Trazado 652657" d="M1898.2,358.864c-18.585,0-36.08-1.5-49.262-4.238-14.787-3.065-21.975-7.08-21.975-12.275a2.2,2.2,0,1,1,4.4,0c0,1.43,3.86,4.936,18.466,7.963,12.9,2.674,30.074,4.146,48.368,4.146s35.472-1.472,48.369-4.146c14.605-3.027,18.465-6.533,18.465-7.963a2.2,2.2,0,1,1,4.4,0c0,5.2-7.188,9.21-21.975,12.275C1934.282,357.359,1916.787,358.864,1898.2,358.864Z" transform="translate(-1826.964 -340.149)" fill="#070707"/>
        </g>
        <path id="Trazado_652658" data-name="Trazado 652658" d="M1967.94,321.732c0,7.9-30.908,14.31-69.036,14.31s-69.035-6.406-69.035-14.31,30.909-14.311,69.035-14.311,69.036,6.408,69.036,14.311Z" transform="translate(-1792.154 -231.089)" fill="#f1b62b"/>
        <g id="Grupo_997033" data-name="Grupo 997033" transform="translate(35.513 74.13)">
          <path id="Trazado_652659" data-name="Trazado 652659" d="M1898.2,337.541c-18.585,0-36.08-1.5-49.262-4.237-14.787-3.065-21.975-7.08-21.975-12.275s7.188-9.21,21.975-12.275c13.183-2.732,30.677-4.238,49.262-4.238s36.081,1.505,49.263,4.238c14.787,3.065,21.975,7.081,21.975,12.275s-7.188,9.21-21.975,12.275C1934.283,336.036,1916.787,337.541,1898.2,337.541Zm0-28.62c-18.294,0-35.471,1.472-48.368,4.145-14.606,3.028-18.466,6.533-18.466,7.963s3.86,4.935,18.466,7.962c12.9,2.673,30.073,4.145,48.368,4.145s35.473-1.472,48.369-4.145c14.605-3.027,18.465-6.532,18.465-7.962s-3.86-4.935-18.465-7.963C1933.673,310.393,1916.5,308.921,1898.2,308.921Z" transform="translate(-1826.964 -304.516)" fill="#070707"/>
        </g>
        <path id="Trazado_652660" data-name="Trazado 652660" d="M1854.437,329.761c0-5.772,22.572-10.45,50.414-10.45s50.414,4.678,50.414,10.45Z" transform="translate(-1798.1 -233.967)" fill="#f1b62b"/>
        <g id="Grupo_997034" data-name="Grupo 997034" transform="translate(54.135 83.142)">
          <path id="Trazado_652661" data-name="Trazado 652661" d="M1954.561,331.26a2.2,2.2,0,0,1-2.2-2.2c0-.5-2.316-3.016-13.011-5.233-9.379-1.944-21.88-3.015-35.2-3.015s-25.822,1.071-35.2,3.015c-10.7,2.217-13.011,4.73-13.011,5.233a2.2,2.2,0,0,1-4.4,0c0-4.119,5.4-7.241,16.521-9.546,9.665-2,22.484-3.106,36.1-3.106s26.43,1.1,36.094,3.106c11.117,2.3,16.521,5.427,16.521,9.546A2.2,2.2,0,0,1,1954.561,331.26Z" transform="translate(-1851.532 -316.406)"/>
        </g>
        <path id="Trazado_652662" data-name="Trazado 652662" d="M1883.407,335.542c4.689-2.3,15.664-3.91,28.455-3.91,12.008,0,22.415,1.421,27.523,3.5Z" transform="translate(-1805.111 -236.949)" fill="#ff9b57"/>
        <g id="Grupo_997035" data-name="Grupo 997035" transform="translate(76.093 92.481)">
          <path id="Trazado_652663" data-name="Trazado 652663" d="M1882.705,337.042a2.2,2.2,0,0,1-.97-4.18c5.206-2.551,16.48-4.135,29.424-4.135,11.932,0,22.8,1.4,28.351,3.656a2.2,2.2,0,0,1-1.656,4.081c-4.988-2.025-15.467-3.334-26.7-3.334-13.791,0-23.741,1.851-27.486,3.686A2.2,2.2,0,0,1,1882.705,337.042Z" transform="translate(-1880.501 -328.727)"/>
        </g>
        <path id="Trazado_652664" data-name="Trazado 652664" d="M1969.664,365.179c0,7.064-27.623,12.789-61.7,12.789s-61.7-5.726-61.7-12.789Z" transform="translate(-1796.124 -245.068)" fill="#f1b62b"/>
        <g id="Grupo_997036" data-name="Grupo 997036" transform="translate(47.945 117.909)">
          <path id="Trazado_652665" data-name="Trazado 652665" d="M1907.265,379.467c-16.626,0-32.278-1.347-44.074-3.791-13.34-2.766-19.825-6.429-19.825-11.2a2.2,2.2,0,1,1,4.4,0c0,.975,2.931,4.113,16.316,6.887,11.51,2.386,26.845,3.7,43.179,3.7s31.668-1.314,43.179-3.7c13.384-2.774,16.315-5.912,16.315-6.887a2.2,2.2,0,1,1,4.4,0c0,4.771-6.485,8.434-19.825,11.2C1939.543,378.12,1923.89,379.467,1907.265,379.467Z" transform="translate(-1843.366 -362.274)" fill="#070707"/>
        </g>
        <path id="Trazado_652666" data-name="Trazado 652666" d="M1966.924,387.537c0,6.124-23.954,11.091-53.5,11.091s-53.5-4.966-53.5-11.091Z" transform="translate(-1799.427 -250.479)" fill="#f1b62b"/>
        <g id="Grupo_997037" data-name="Grupo 997037" transform="translate(58.291 134.856)">
          <path id="Trazado_652667" data-name="Trazado 652667" d="M1912.718,400.126c-14.436,0-28.03-1.17-38.278-3.294-11.726-2.431-17.425-5.7-17.425-10a2.2,2.2,0,1,1,4.4,0c0,.592,2.362,3.291,13.915,5.686,9.963,2.065,23.24,3.2,37.385,3.2s27.422-1.138,37.385-3.2c11.555-2.4,13.916-5.094,13.916-5.686a2.2,2.2,0,1,1,4.4,0c0,4.3-5.7,7.568-17.426,10C1940.749,398.956,1927.155,400.126,1912.718,400.126Z" transform="translate(-1857.015 -384.632)" fill="#070707"/>
        </g>
        <path id="Trazado_652668" data-name="Trazado 652668" d="M1965,410.465c0,4.546-17.783,8.232-39.719,8.232s-39.718-3.686-39.718-8.232Z" transform="translate(-1805.634 -256.029)" fill="#f1b62b"/>
        <g id="Grupo_997038" data-name="Grupo 997038" transform="translate(77.731 152.234)">
          <path id="Trazado_652669" data-name="Trazado 652669" d="M1924.582,420.2a147.544,147.544,0,0,1-28.531-2.457c-9.134-1.893-13.388-4.428-13.388-7.977a2.2,2.2,0,0,1,4.4-.092c.342.622,2.9,2.438,11.072,3.994a165.362,165.362,0,0,0,52.891,0c8.175-1.556,10.731-3.372,11.073-3.994a2.2,2.2,0,0,1,4.4.092c0,3.549-4.254,6.083-13.389,7.977A147.559,147.559,0,0,1,1924.582,420.2Z" transform="translate(-1882.662 -407.56)" fill="#070707"/>
        </g>
        <path id="Trazado_652670" data-name="Trazado 652670" d="M1926.965,434.517s15.066,12.442-6.456,23.405-26.018,18.166-8.37,37.683c0,0-10.872-23.694,14.206-21.889,31.915,2.3,43.926-17.627,43.926-17.627a35.394,35.394,0,0,0,4.915-23.408Z" transform="translate(-1809.428 -261.405)" fill="#f1b62b"/>
        <g id="Grupo_997039" data-name="Grupo 997039" transform="translate(89.607 169.072)">
          <path id="Trazado_652671" data-name="Trazado 652671" d="M1911.433,497.1a2.2,2.2,0,0,1-1.633-.725c-9.021-9.976-12.388-16.846-11.26-22.97,1.326-7.195,8.736-12.279,20.264-18.151,6.438-3.279,9.915-6.884,10.336-10.713.54-4.9-4.235-8.992-4.283-9.032a2.2,2.2,0,1,1,2.8-3.4c.272.225,6.662,5.594,5.857,12.91-.594,5.4-4.872,10.16-12.716,14.155-10.045,5.116-16.937,9.63-17.932,15.025-.573,3.109.7,6.849,4.068,11.676a14.789,14.789,0,0,1,2.217-9.483c2.971-4.285,8.568-6.162,16.64-5.583,30.214,2.179,41.77-16.38,41.883-16.568.028-.046.058-.092.089-.136a33.582,33.582,0,0,0,4.527-21.857,2.2,2.2,0,1,1,4.369-.558,34.573,34.573,0,0,1-15.866,35.191c-6.667,4.476-18.2,9.552-35.317,8.32-6.4-.462-10.677.781-12.7,3.691-3.082,4.433-.572,12.392.656,15.085a2.2,2.2,0,0,1-2,3.117Z" transform="translate(-1898.33 -429.774)" fill="#070707"/>
        </g>
        <path id="Trazado_652672" data-name="Trazado 652672" d="M1938.947,475.652a46.547,46.547,0,0,0,8.543-.136Z" transform="translate(-1818.554 -271.773)" fill="#ff9b57"/>
        <g id="Grupo_997040" data-name="Grupo 997040" transform="translate(118.191 201.541)">
          <path id="Trazado_652673" data-name="Trazado 652673" d="M1941.841,477.283q-1.856,0-3.756-.138a2.2,2.2,0,1,1,.317-4.392,44.7,44.7,0,0,0,8.141-.129,2.2,2.2,0,0,1,.487,4.377A47.017,47.017,0,0,1,1941.841,477.283Z" transform="translate(-1936.041 -472.611)"/>
        </g>
        <path id="Trazado_652674" data-name="Trazado 652674" d="M1965.942,464.835c8.307-4.254,11.781-10.017,11.781-10.017a26.413,26.413,0,0,0,3.657-9.312Z" transform="translate(-1825.087 -264.51)" fill="#ff9b57"/>
        <g id="Grupo_997041" data-name="Grupo 997041" transform="translate(138.652 178.795)">
          <path id="Trazado_652675" data-name="Trazado 652675" d="M1965.241,466.335a2.2,2.2,0,0,1-1.006-4.162,28.916,28.916,0,0,0,10.9-9.2c.025-.042.056-.089.085-.13a24.7,24.7,0,0,0,3.295-8.473,2.2,2.2,0,0,1,4.317.868,28.9,28.9,0,0,1-3.972,10.083c-.457.731-4.247,6.484-12.62,10.771A2.192,2.192,0,0,1,1965.241,466.335Z" transform="translate(-1963.036 -442.601)"/>
        </g>
        <g id="Grupo_997042" data-name="Grupo 997042" transform="translate(0 233.786)">
          <path id="Trazado_652676" data-name="Trazado 652676" d="M1914.918,519.556h-132.6a2.2,2.2,0,1,1,0-4.4h132.6a2.2,2.2,0,0,1,0,4.4Z" transform="translate(-1780.111 -515.152)"/>
        </g>
        <g id="Grupo_997043" data-name="Grupo 997043" transform="translate(144.973 233.786)">
          <path id="Trazado_652677" data-name="Trazado 652677" d="M1991.286,519.556h-17.709a2.2,2.2,0,1,1,0-4.4h17.709a2.2,2.2,0,1,1,0,4.4Z" transform="translate(-1971.375 -515.152)"/>
        </g>
        <g id="Grupo_997044" data-name="Grupo 997044" transform="translate(57.31 173.054)">
          <path id="Trazado_652678" data-name="Trazado 652678" d="M1857.923,500.164a2.2,2.2,0,0,1-2.2-2.2V437.229a2.2,2.2,0,1,1,4.4,0v60.733A2.2,2.2,0,0,1,1857.923,500.164Z" transform="translate(-1855.721 -435.027)"/>
        </g>
        <g id="Grupo_997045" data-name="Grupo 997045" transform="translate(19.484 207.685)">
          <path id="Trazado_652679" data-name="Trazado 652679" d="M1808.018,511.221a2.2,2.2,0,0,1-2.2-2.2v-26.1a2.2,2.2,0,1,1,4.4,0v26.1A2.2,2.2,0,0,1,1808.018,511.221Z" transform="translate(-1805.816 -480.717)"/>
        </g>
        <g id="Grupo_997046" data-name="Grupo 997046" transform="translate(49.719 177.281)">
          <path id="Trazado_652680" data-name="Trazado 652680" d="M1854.561,451.409a2.194,2.194,0,0,1-1.526-.615l-6.654-6.4a2.2,2.2,0,0,1,3.053-3.174l6.654,6.4a2.2,2.2,0,0,1-1.527,3.789Z" transform="translate(-1845.705 -440.605)"/>
        </g>
        <g id="Grupo_997047" data-name="Grupo 997047" transform="translate(57.887 192.389)">
          <path id="Trazado_652681" data-name="Trazado 652681" d="M1858.684,471.341a2.2,2.2,0,0,1-1.526-3.789l6.654-6.4a2.2,2.2,0,1,1,3.053,3.174l-6.654,6.4A2.2,2.2,0,0,1,1858.684,471.341Z" transform="translate(-1856.482 -460.536)"/>
        </g>
        <g id="Grupo_997048" data-name="Grupo 997048" transform="translate(132.115 182.277)">
          <path id="Trazado_652682" data-name="Trazado 652682" d="M1956.615,461.714a2.2,2.2,0,0,1-.918-4.2,14.593,14.593,0,0,0,8.085-8.656,2.2,2.2,0,1,1,4.266,1.089,18.993,18.993,0,0,1-10.517,11.57A2.19,2.19,0,0,1,1956.615,461.714Z" transform="translate(-1954.412 -447.196)"/>
        </g>
      </g>
    </g>
  </g>
</svg>
