<svg xmlns="http://www.w3.org/2000/svg" xmlns:xlink="http://www.w3.org/1999/xlink" width="452.215" height="337.23" viewBox="0 0 452.215 337.23">
  <defs>
    <linearGradient id="linear-gradient" x1="-63.318" y1="0.286" x2="-63.318" y2="2.76" gradientUnits="objectBoundingBox">
      <stop offset="0" stop-color="#3b4547"/>
      <stop offset="0.083" stop-color="#475153"/>
      <stop offset="0.237" stop-color="#6a7375"/>
      <stop offset="0.443" stop-color="#a1a9ab"/>
      <stop offset="0.597" stop-color="#cfd6d9"/>
    </linearGradient>
  </defs>
  <g id="Grupo_1000299" data-name="Grupo 1000299" transform="translate(-862 -10667.787)">
    <g id="Grupo_994865" data-name="Grupo 994865" transform="translate(862 10667.787)">
      <path id="Trazado_650804" data-name="Trazado 650804" d="M118.169,1366.84S58,1389.6,48.986,1436.153s-57.821-127.279-4.162-111.476S117.781,1350.916,118.169,1366.84Z" transform="translate(-18.682 -1299.85)" fill="#d3e8ef"/>
      <path id="Trazado_650805" data-name="Trazado 650805" d="M309.207,1326.068s43.058,67.662,61.578,74.222,80.2-65.557,107.259-35.294,62.966-52.6,15.112-67.118-38.151,36.828-85.073,21.191S279.548,1283.867,309.207,1326.068Z" transform="translate(-64.387 -1295.261)" fill="#d3e8ef"/>
      <path id="Trazado_650806" data-name="Trazado 650806" d="M18.422,1568.875H470.636s.878-115.084-80.565-103.147-99.631-116.807-157.8-129.54S101.852,1406.365,78.288,1452,18.422,1468.351,18.422,1568.875Z" transform="translate(-18.422 -1301.662)" fill="#d3e8ef"/>
      <path id="Trazado_650807" data-name="Trazado 650807" d="M28.521,1589.9S67.6,1519.909,129,1525.388s38.979-79.881,84.466-53.122,57.733,86.215,117.711,84.421,99.97,33.548,99.97,33.548Z" transform="translate(-20.054 -1323.022)" fill="#bdd9e0"/>
    </g>
    <g id="Grupo_994864" data-name="Grupo 994864" transform="translate(858.104 10550.687)">
      <g id="Grupo_994823" data-name="Grupo 994823">
        <path id="Trazado_650986" data-name="Trazado 650986" d="M420.289,207.6c.547-2.5,2.075-5.021,1.234-7.437-.691-1.983-2.735-3.1-4.2-4.606-2.484-2.568-3.269-6.35-3.306-9.922a26.78,26.78,0,0,0-.238-5.171c-.71-3.438-3.262-6.145-5.071-9.153a12.674,12.674,0,0,0-2.065-2.951,9.7,9.7,0,0,0-3.487-1.784q-4.164-1.441-8.391-2.7a6.7,6.7,0,0,0-4.2-.3,6.77,6.77,0,0,0-2.516,2.043l-4.358,4.9a5.135,5.135,0,0,0-2.482,3.219c-.527,2.09,0,4.282.426,6.4s.732,4.4-.182,6.352-2.948,3.331-3.406,5.437c-.446,2.056.755,4.067,1.837,5.872,1.858,3.1,3.559,6.655,2.832,10.194-.44,2.142-1.742,4.056-2.013,6.226a6.881,6.881,0,0,0,2.76,6.313c1.145.821,2.644,1.393,3.143,2.712.375.989.049,2.1.213,3.151.345,2.215,2.863,3.542,5.1,3.382s4.232-1.4,6.132-2.586,3.918-2.4,6.157-2.509c4.335-.205,8.512,3.77,12.583,2.266,3.294-1.218,4.4-5.385,4.135-8.887S419.538,211.035,420.289,207.6Z" fill="#191c3c"/>
        <rect id="Rectángulo_302370" data-name="Rectángulo 302370" width="17.69" height="20.348" transform="translate(393.308 202.581)" fill="#fff"/>
        <rect id="Rectángulo_302371" data-name="Rectángulo 302371" width="8.981" height="20.348" transform="translate(395.995 192.067)" fill="#fff"/>
        <path id="Trazado_650987" data-name="Trazado 650987" d="M404.975,197.154l-8.981,4.381v-9.467h8.981Z" fill="#191c3c" opacity="0.4"/>
        <path id="Trazado_650988" data-name="Trazado 650988" d="M391.712,199.492c-3.179,1.554-8.661-3.265-8.46-11.238a17.235,17.235,0,0,0-2.316-2.515s3.449-14.833,5.851-17.235c5.466-5.466,27.975,0,27.975,0v13.119C414.762,193.6,391.712,199.492,391.712,199.492Z" fill="#fff"/>
        <path id="Trazado_650989" data-name="Trazado 650989" d="M388.131,371.286s8.761,30.665,10.222,44.975l9.929-3.5s-3.1-13.885-1.168-27.79Z" fill="#fff"/>
        <path id="Trazado_650990" data-name="Trazado 650990" d="M398.353,416.261l-8.973,14.311-14.829,3.8v1.46l14.829,2.629s4.762,0,5.261-1.168l11.305-10.806H407.7v10.806h2.336s-1.46-8.762,0-10.514c0,0,3.505-4.965.877-12.85l-2.629-1.168Z" fill="#191c3c"/>
        <path id="Trazado_650991" data-name="Trazado 650991" d="M390.431,379.671l16.058,14.874a70.913,70.913,0,0,1,.625-9.578l-18.983-13.681S389.093,374.657,390.431,379.671Z" fill="#191c3c" opacity="0.3"/>
        <path id="Trazado_650992" data-name="Trazado 650992" d="M377.909,364.569,419.377,403l4.968-8.638-22.2-29.789Z" fill="#fff"/>
        <path id="Trazado_650993" data-name="Trazado 650993" d="M419.377,403l8.764,19.69-4.088,9.638,1.752,4.965,9.346-13.143a11.386,11.386,0,0,0,0-9.053l-2.629-9.93s-1.168-2.044,1.168-1.46,8.47,4.965,8.47,4.965v-2.336l-6.425-5.4-3.5-5.111s-5.841-3.505-7.885-1.46Z" fill="#191c3c"/>
        <path id="Trazado_650994" data-name="Trazado 650994" d="M412.079,291.557s4.965,15.187,0,26.868c-2.731,6.426-3.291,14.779-3.773,21.618-.472,6.7-.321,17,.823,23.633.759,4.4,1.039,5.012-3.833,5.227a23.923,23.923,0,0,1-9.963-1.694,9.194,9.194,0,0,0-2.993-.9,10.35,10.35,0,0,0-3.624.909,15.24,15.24,0,0,1-9.379.1,20.027,20.027,0,0,0-3.1-.913c-3.3-.475-6.31,2.387-9.385,1.979-2.7-.36-2.088-1.274-1.671-3.71.687-4.021,1.631-11.516,2.41-15.521,1.4-7.208,4.073-15.559,3.638-22.967l-.037-33.759s-1.6-8.263-2.842-12.017Z" fill="#222b5a"/>
        <g id="Grupo_994819" data-name="Grupo 994819" opacity="0.3">
          <path id="Trazado_650995" data-name="Trazado 650995" d="M367.809,364.68c.687-4.021,2.508-11.516,3.286-15.521,1.285-6.607,2.761-14.176,2.809-21.1a51.056,51.056,0,0,1,.5-6.146l3.794-29.483s-5.789-7.294-6.993-11.289l-2.858-.728c1.247,3.754,2.842,12.017,2.842,12.017l.037,33.759c.435,7.408-2.236,15.759-3.638,22.967-.779,4.005-1.723,11.5-2.41,15.521-.417,2.436-1.034,3.35,1.671,3.71a5.556,5.556,0,0,0,1.923-.133C366.921,367.824,367.435,366.868,367.809,364.68Z" fill="#717386"/>
        </g>
        <path id="Trazado_650996" data-name="Trazado 650996" d="M412.079,291.557,369.5,280.709l-.631,1.488c.643,2.425,1.426,5.994,2.058,9,6.631,4.083,20.716,10.25,42.807,7.883A50.851,50.851,0,0,0,412.079,291.557Z" fill="#191c3c" opacity="0.3"/>
        <path id="Trazado_650997" data-name="Trazado 650997" d="M393.159,202.688l-7.322-.15c-1.731-.036-8.073,1.176-9.461,2.21l-3.574,5.293c-.809.6-.149,17.85-.149,17.85l-.558,34.273a8.455,8.455,0,0,1-.67,3.167l-6.658,15.712s15.187,14.6,47.312,10.514V279.875L425.8,216.793l-12.266-11.682-17.523,6.133Z" fill="#ee4e5d"/>
        <path id="Trazado_650998" data-name="Trazado 650998" d="M411,218.7l5.413,41.268,9.395-43.175Z" fill="#191c3c" opacity="0.3"/>
        <g id="Grupo_994820" data-name="Grupo 994820" opacity="0.18">
          <path id="Trazado_650999" data-name="Trazado 650999" d="M411.894,294.087a16.316,16.316,0,0,1-2.867,13.223c-1.257,1.658-2.824,3.057-4.143,4.666a39,39,0,0,0-4.96,8.736c-1.518,3.33-3.045,6.981-2.2,10.543.486,2.048,1.714,3.828,2.607,5.734a18.721,18.721,0,0,1,.562,14.346c-1.19,3.164-3.225,5.949-4.5,9.079a12.373,12.373,0,0,0-.884,6.854,23.942,23.942,0,0,0,9.79,1.635c4.872-.215,4.592-.823,3.833-5.227-1.144-6.632-1.295-16.93-.823-23.633.482-6.839,1.042-15.192,3.773-21.618,4.036-9.5,1.509-21.311.423-25.4A3.888,3.888,0,0,0,411.894,294.087Z" fill="#191c3c"/>
          <path id="Trazado_651000" data-name="Trazado 651000" d="M411.765,295.936l.089-1.741A2.887,2.887,0,0,0,411.765,295.936Z" fill="#191c3c"/>
          <path id="Trazado_651001" data-name="Trazado 651001" d="M411.854,294.2c.012-.036.027-.072.04-.108-.011-.052-.015-.105-.027-.156Z" fill="#191c3c"/>
        </g>
        <path id="Trazado_651002" data-name="Trazado 651002" d="M412.079,279.875l2.929-13.46-29.505-.839v9.154l26.576,5.739Z" fill="#191c3c" opacity="0.3"/>
        <path id="Trazado_651003" data-name="Trazado 651003" d="M402.733,220.882a138.917,138.917,0,0,0-21.8,48.659s2.55-44.858,6.9-55.084l2.874-5.12,5.3,1.907,8.064,1.562Z" fill="#dfe2ec"/>
        <path id="Trazado_651004" data-name="Trazado 651004" d="M380.936,269.541s16.249-36.058,19.753-37.06l1.464,2.278,1.015-8.512,1.807,3.547,8.564-24.683S388.021,236.053,380.936,269.541Z" fill="#3e4154"/>
        <path id="Trazado_651005" data-name="Trazado 651005" d="M393.159,205.316l-5.32,5.052v6.717l2.66-6.133,2.66,7.885,6.07-2.629,3.118,7.986,11.192-19.084-1.46-3.8-16.063,12.558-1.375-7.593Z" fill="#191c3c" opacity="0.3"/>
        <path id="Trazado_651006" data-name="Trazado 651006" d="M379.559,270.244s-1.7,18.626,3.323,19.753c0,0-11.57-4.5-12.518-5.05S377.272,283.792,379.559,270.244Z" fill="#dfe2ec"/>
        <g id="Grupo_994821" data-name="Grupo 994821">
          <path id="Trazado_651007" data-name="Trazado 651007" d="M371.185,284.947c-.833-.486,5.118-1.015,8.131-10.3.075-2.56.243-4.4.243-4.4-2.287,13.548-10.142,14.149-9.195,14.7C371.167,285.415,371.185,284.947,371.185,284.947Z" fill="#3e4154"/>
        </g>
        <g id="Grupo_994822" data-name="Grupo 994822">
          <rect id="Rectángulo_302372" data-name="Rectángulo 302372" width="7.344" height="20.378" transform="translate(398.107 266.9) rotate(-96.078)" fill="#fff"/>
          <path id="Trazado_651008" data-name="Trazado 651008" d="M413.53,255.745l-34.753.988,9.258-43.652a7.77,7.77,0,0,0-6.3-9.4h0a7.77,7.77,0,0,0-8.936,6.357l-8.519,51.791a9.337,9.337,0,0,0,10.074,10.748l39.173-6.041Z" fill="#ee4e5d"/>
          <path id="Trazado_651009" data-name="Trazado 651009" d="M416.035,257.605A12.093,12.093,0,0,1,418,254.87c.307-.3.623-.592.937-.89a3.712,3.712,0,0,1,3.037-.989,10.2,10.2,0,0,0,2.952.113c1.4-.223,2.666-.946,4.155-.623a1.519,1.519,0,0,1,1.272,1.439c-.061.828-1.023,1.447-.906,2.268.083.583.691.976.8,1.553.151.773-.634,1.466-.585,2.252.042.689.7,1.171.966,1.807a2.165,2.165,0,0,1-.214,1.936,4.066,4.066,0,0,1-1.484,1.343,8.53,8.53,0,0,1-4.763.915c-1.593-.028-3.248-.662-4.855-.586a2.642,2.642,0,0,1-2.5-2.1c-.231-.928-.212-.357-.313-1.307C416.32,260.283,416.218,259.328,416.035,257.605Z" fill="#fff"/>
        </g>
        <path id="Trazado_651010" data-name="Trazado 651010" d="M382.882,256.616l-2.191.067c1.5-11.016,2.906-23.761,1.592-25.3l-2.48,1.087,3.867-7.651-3.47,1.954,10.982-22.205S392.508,225.939,382.882,256.616Z" fill="#3e4154"/>
        <path id="Trazado_651011" data-name="Trazado 651011" d="M393.159,202.688l-5.32,5.051v6.717l2.66-3.5,2.66,5.257h6.07l3.5,4.673,10.806-15.77-1.46-6.425-16.063,12.558-1.375-7.593Z" fill="#f5f7f9"/>
        <rect id="Rectángulo_302373" data-name="Rectángulo 302373" width="7.344" height="20.378" transform="matrix(0.106, -0.994, 0.994, 0.106, 380.662, 272.114)" fill="#fff"/>
        <path id="Trazado_651012" data-name="Trazado 651012" d="M385.5,263.116l34.753.989L411,220.453a7.77,7.77,0,0,1,6.3-9.4h0a7.77,7.77,0,0,1,8.936,6.357L434.75,269.2a9.337,9.337,0,0,1-10.075,10.748L385.5,273.91Z" fill="#ef3f4f"/>
        <path id="Trazado_651013" data-name="Trazado 651013" d="M383,264.977a12.125,12.125,0,0,0-1.962-2.735c-.307-.3-.623-.592-.937-.89a3.713,3.713,0,0,0-3.038-.989,10.189,10.189,0,0,1-2.951.113c-1.4-.223-2.667-.946-4.155-.623a1.517,1.517,0,0,0-1.272,1.439c.06.828,1.023,1.447.906,2.268-.084.583-.691.975-.8,1.553-.151.773.633,1.466.585,2.251-.043.69-.7,1.172-.967,1.808a2.168,2.168,0,0,0,.215,1.936,4.074,4.074,0,0,0,1.484,1.343,8.528,8.528,0,0,0,4.763.915c1.593-.028,3.247-.662,4.854-.586a2.641,2.641,0,0,0,2.5-2.1c.232-.927.213-.356.314-1.306C382.712,267.655,382.814,266.7,383,264.977Z" fill="#fff"/>
        <path id="Trazado_651014" data-name="Trazado 651014" d="M430.46,219.966a23.036,23.036,0,0,1-5.167-12.722c-.37-4.754,2.662-9.729,1.316-14.363-1-3.443-4.481-5.623-5.89-8.92-1.353-3.166-.591-6.8-1.063-10.213-1.63-11.789-16.556-13.431-26-11.863-2.9.481-9.917,1.6-11.047,5.034-1.51,4.585,5.557,6.759,8.732,5.128a22.392,22.392,0,0,1,2.774-1.552,4.032,4.032,0,0,1,5.207,4.842,12.138,12.138,0,0,0-.741,2.452c-.1,2.172,2.559,3.377,4.733,3.4a2.765,2.765,0,0,1,1.792.387,2.252,2.252,0,0,1,.614,1.1c1.87,6.007-2.413,9.81,2.535,14.7,3.454,3.413,11.509,9.474,8.035,15.2-.633,1.043-1.672,1.9-1.891,3.1-.316,1.737,1.221,3.241,2.742,4.137s3.3,1.686,4.027,3.294c.765,1.688-7.528,13.125-7.63,14.977-.308,5.6-12.817,14.736-9.459,17.668,2.441,2.133,26.992-11.441,26.61-8.411-.061.481-.029,1.142.447,1.231a.943.943,0,0,0,.615-.183,13.123,13.123,0,0,0,3.174-2.292,4.429,4.429,0,0,0,1.282-3.576c-.136-.854-.6-1.62-.811-2.46-.668-2.7,1.427-5.284,1.812-8.042C437.961,226.636,433.408,223.545,430.46,219.966Z" fill="#191c3c"/>
      </g>
      <ellipse id="Elipse_5728" data-name="Elipse 5728" cx="179.062" cy="17.75" rx="179.062" ry="17.75" transform="translate(71 418.832)" fill="#8fa9c9" opacity="0.35"/>
      <g id="Grupo_994824" data-name="Grupo 994824">
        <rect id="Rectángulo_302374" data-name="Rectángulo 302374" width="3.5" height="111.5" transform="translate(87.693 324.967)" fill="#fff"/>
        <rect id="Rectángulo_302375" data-name="Rectángulo 302375" width="5.906" height="3.104" rx="1.115" transform="translate(86.49 433.54)" fill="#fff"/>
        <rect id="Rectángulo_302376" data-name="Rectángulo 302376" width="3.5" height="110.396" transform="translate(412.289 324.967)" fill="#fff"/>
        <rect id="Rectángulo_302377" data-name="Rectángulo 302377" width="5.906" height="3.104" rx="1.115" transform="translate(411.086 433.54)" fill="#fff"/>
        <path id="Trazado_651015" data-name="Trazado 651015" d="M443.115,326.051H57.13a3.258,3.258,0,0,1-3.258-3.258h0a3.258,3.258,0,0,1,3.258-3.258H443.115a3.258,3.258,0,0,1,3.257,3.258h0A3.258,3.258,0,0,1,443.115,326.051Z" fill="#d19f9c"/>
      </g>
      <g id="Grupo_994826" data-name="Grupo 994826">
        <g id="Grupo_994825" data-name="Grupo 994825">
          <path id="Trazado_651016" data-name="Trazado 651016" d="M151.852,229.38l-24.414-20.368,9.228-32.2,16.479,12.42-7.056,21.954Z" fill="#fff"/>
          <path id="Trazado_651017" data-name="Trazado 651017" d="M135.174,184.367c-1.072,3.291-1.747,7.1-3.257,10.208-.469.969-1.284,3.455-2.458,3.792-1.547.443-2.178-1.989-2.232-3.018-.086-1.676-.987-3.2-1.344-4.836-.167-.765-.215-1.551-.35-2.322a44.855,44.855,0,0,0-1.7-5.357c-1.1-3.547.149-6.723,1.652-9.962.755-1.628,1.439-3.371,2.352-4.92,1.16-1.967,3.053-2.075,4.75-3.363,1.31-1,2.1-2.762,3.695-3.178,1.973-.515,4.159,1.365,5.974.437,1.887-.963,3.6-2.173,5.829-1.139a6.669,6.669,0,0,0,2.3.959,7.389,7.389,0,0,0,1.686-.294,8.255,8.255,0,0,1,3.322.306c1.033.239,2.208.592,2.63,1.564.252.582.173,1.28.491,1.828a2.449,2.449,0,0,0,2.093.948,6.075,6.075,0,0,1,2.363.295c1.163.548,1.736,3.811,1.3,4.9a3.531,3.531,0,0,1-3.289,1.845c-1.331.037-2.648-.316-3.98-.3a3.622,3.622,0,0,0-3.353,1.75,4.68,4.68,0,0,0-.306,1.187l-1.1,6.639c-.344,2.07-.744,4.26-2.142,5.824a6.193,6.193,0,0,1-5.927,1.768,7.466,7.466,0,0,1-4.858-3.981,8.4,8.4,0,0,0-1.288-2.3,1.73,1.73,0,0,0-2.359-.258A2.427,2.427,0,0,0,135.174,184.367Z" fill="#191c3c"/>
          <path id="Trazado_651018" data-name="Trazado 651018" d="M160.691,173.33l.812,10.43-1.254,1.466s3.265,3.852,3.374,8.178l-2.721.211.4,5.159a8.018,8.018,0,0,1-7.37,8.615l-1.021.079a11.2,11.2,0,0,1-12.036-10.3l-.349-4.478s-4.467-1.7-4.767-5.56c0,0-1.139-5.842,2.506-5.9,0,0,4.744-.6,5.271,3.24l5.231.048-.227-2.919a3.914,3.914,0,0,1,3.345-4.178h0l-.251-6.128S157.67,169.688,160.691,173.33Z" fill="#fff"/>
          <path id="Trazado_651019" data-name="Trazado 651019" d="M161.039,201.257c-.83-.381-1.074.843-1.106,1.395s-.157,1.208-.674,1.383a1.394,1.394,0,0,1-.688,0,3.921,3.921,0,0,1-1.834-.68c-.942-.579-1.745-1.174-1.79-2.323a2.758,2.758,0,0,1,1.284-2.857,6.237,6.237,0,0,1,2.989-.525c.778,0,1.919.308,2.412-.513a1.652,1.652,0,0,0-.109-1.433,2.352,2.352,0,0,0-.4-.732c-.546-.6-2.848-.212-3.648-.2a15.833,15.833,0,0,0-2.806.127,3.483,3.483,0,0,0-2.222,1.346c-.429.631-.627,1.5-1.317,1.825a1.874,1.874,0,0,1-.928.126,2.509,2.509,0,0,1-1.887-.878c-.618-.839-.352-2-.148-3.024.455-2.278,0-4.587.44-6.809.24-1.217.632-4.178-.441-5.12l-5.291.412c.744,2.411,1.707,6.735.922,9.134-1.372,4.192-4.288,10.246-.038,13.749a12.617,12.617,0,0,0,3.963,1.933,9.857,9.857,0,0,0,2.745.672c1.088.052,2.161-.256,3.249-.291,1.367-.044,2.767.34,4.087-.023a7.462,7.462,0,0,0,2.357-1.329,1.421,1.421,0,0,0,.4-.391,3.852,3.852,0,0,0,.214-.79,3.1,3.1,0,0,1,.273-.531,4.105,4.105,0,0,0,.479-2.52C161.445,201.737,161.329,201.391,161.039,201.257Z" fill="#191c3c"/>
        </g>
        <path id="Trazado_651020" data-name="Trazado 651020" d="M205.507,196.019a2,2,0,0,0-2.232-.571c-.107-.406-.3-.79-.643-.8-.75-.032-2.974,5.867-2.974,5.867h0a18.534,18.534,0,0,0-.838,3.008c-.75,2.687.395,6.062.395,7.343s-2.031,5.782-2.031,5.782l4.781,3.437s7.4-10,7.333-11.937S207.255,197.672,205.507,196.019Z" fill="#fff"/>
        <path id="Trazado_651021" data-name="Trazado 651021" d="M197.211,209.609l.645.722a.792.792,0,0,0,.334.24l4.2,1.64a.6.6,0,0,0,.816-.342l11.921-26.848c.083-.185.137-.572-.058-.744l-.856-.666-3.358,1.642Z" fill="#171733"/>
        <path id="Trazado_651022" data-name="Trazado 651022" d="M201.883,211.441l-4.213-1.472a.838.838,0,0,1-.533-1.11L208.5,183.227a1.226,1.226,0,0,1,1.257-.721l4.121.958a.62.62,0,0,1,.5.868L202.52,211.076A.62.62,0,0,1,201.883,211.441Z" fill="#3d3d72"/>
        <path id="Trazado_651023" data-name="Trazado 651023" d="M202.134,209.869l-3.5-1.182a.726.726,0,0,1-.406-.994L208.821,183.8a1.137,1.137,0,0,1,1.089-.708l3.441.715a.526.526,0,0,1,.386.774l-11.052,24.926A.574.574,0,0,1,202.134,209.869Z" fill="#cadaef"/>
        <path id="Trazado_651024" data-name="Trazado 651024" d="M209.84,196.394s-2.188-1.813-4.063-.813-4.375,6.375-4.5,8.875,3.6,5.321,3.6,5.321L200.99,218.6l2.225.733a25.981,25.981,0,0,1,2.812-4.692c1.313-1.5,4.75-4.745,7.063-8.933S211.39,197.257,209.84,196.394Z" fill="#fff"/>
        <path id="Trazado_651025" data-name="Trazado 651025" d="M203.9,218.894s-5.92,22.07-13.27,32.67c-5.73,8.25-8.9,11.23-19.32.65s-18.91-21-22-25.59c-1.82-2.7-1.57-7.65.6-10.77a6.149,6.149,0,0,1,7.22-2.51s7.05,3.09,15.1,13.37c7.85,10.01,8.58,11.08,9.58,10.83s5.79-8.8,8.8-13.04c3.25-4.59,6.33-9.24,6.33-9.24a15.74,15.74,0,0,1,1.75.14,6.175,6.175,0,0,1,2.25.66A12.835,12.835,0,0,1,203.9,218.894Z" fill="#f1b62b"/>
        <path id="Trazado_651026" data-name="Trazado 651026" d="M198.685,215.4c-5.78,6.77-13.52,26.17-16.64,26.32-3.25.17-6.16-5.66-11.16-11.09s-14.09-9.57-14.09-9.57l-6.89-5.21a6.149,6.149,0,0,1,7.22-2.51s7.05,3.09,15.1,13.37c7.85,10.01,8.58,11.08,9.58,10.83s5.79-8.8,8.8-13.04c3.25-4.59,6.33-9.24,6.33-9.24A15.74,15.74,0,0,1,198.685,215.4Z" fill="#db9e0f"/>
        <path id="Trazado_651027" data-name="Trazado 651027" d="M177.715,422.144l2.75,4.688,7.854-.167-1.687-6.05Z" fill="#fff"/>
        <path id="Trazado_651028" data-name="Trazado 651028" d="M145.934,411.956s-.969,3.479-1.344,5.281a12.652,12.652,0,0,0-.313,2.948l8.48-.256s1.657-4.345,1.953-5.048Z" fill="#fff"/>
        <path id="Trazado_651029" data-name="Trazado 651029" d="M162.465,292.269s11.25,26.25,13,47-16.447,67.262-20.7,76.541c0,0-6.567-1.479-9.379-3.041-.081-1.527-.084-2-.1-3.542-.141-10.6,5.513-38.58,11.347-49.167,0,0,.166-13.166-6.5-23.666s-14.04-30.453-16.187-37.227Z" fill="#33305b"/>
        <path id="Trazado_651030" data-name="Trazado 651030" d="M187.255,421.9a17.4,17.4,0,0,1-7.71,1.27,6.771,6.771,0,0,1-2.17-.52c-10.75-11.12-22.61-39.51-26.16-50.51-2.51-7.75,0-19.5-20.25-37.63s-19.17-34.23-19.17-34.23l13.83-.91,23.59-1.54c3.63,8.18,13.5,37.56,16.63,44.31s12,38.25,14.37,48.87S187.255,421.9,187.255,421.9Z" fill="#222b5a"/>
        <path id="Trazado_651031" data-name="Trazado 651031" d="M87.94,318.114a1.3,1.3,0,0,1-1,1.26H66.4s-2.52-.13-1.45-1.75c.05-.07.11-.15.17-.23,1.43-1.19,4.38-1.18,6.34-1.34a2.15,2.15,0,0,0,1.62-.93,12.973,12.973,0,0,1,1.36-1.79,3.343,3.343,0,0,0,.47-.25c.72-1.24,1.26-2.25,1.26-2.25l7.73.47-.88,1.73-.01.03a.732.732,0,0,0,.22.88,2.733,2.733,0,0,1,.84,1.75,1.256,1.256,0,0,0,1.23,1.08h1.64A1.412,1.412,0,0,1,87.94,318.114Z" fill="#fff"/>
        <path id="Trazado_651032" data-name="Trazado 651032" d="M83.9,311.3l-.88,1.73a60.649,60.649,0,0,1-6.86-.2l-.47.72s-.485.134-1.061,1c-.244.365-.819,1.225-1.009,1.485a2.229,2.229,0,0,1-1.61.87,33.645,33.645,0,0,0-7.06.72c.05-.07.11-.15.17-.23,1.43-1.19,4.38-1.18,6.34-1.34a2.15,2.15,0,0,0,1.62-.93,12.973,12.973,0,0,1,1.36-1.79,3.343,3.343,0,0,0,.47-.25c.72-1.24,1.26-2.25,1.26-2.25Z" fill="#f4f4f4"/>
        <path id="Trazado_651033" data-name="Trazado 651033" d="M180.1,426.2a10.232,10.232,0,0,0-1.391,9.843.7.7,0,0,0,.652.445h29.687c.325,0,.7-.253.7-.578v-.594a1.39,1.39,0,0,0-.9-1.3l-6.709-2.516c-.159-.059-.315-.124-.469-.193l-4.276-1.919a9.315,9.315,0,0,0-1.3-.473l-2.533-.524a10.535,10.535,0,0,1-2.107-.674l-3.276-1.581a18.575,18.575,0,0,1-4.206.587A24.8,24.8,0,0,1,180.1,426.2Z" fill="#1a1a47"/>
        <path id="Trazado_651034" data-name="Trazado 651034" d="M162.47,292.274c-19.26,9.85-45.22,8.43-49.92,8.07-.49-.03-.75-.06-.75-.06-9.5-20.44-16.33-61.56-13.16-73.06a16.019,16.019,0,0,1,1.3-3.28c4.7-9,16.9-12.3,23.53-13.47a10.833,10.833,0,0,1,1.88-.15,14.322,14.322,0,0,1,1.45.1c3.37.39,7.14,1.84,13.61,1.84,2.92,0,4.52-.85,6.21-1.2a8.355,8.355,0,0,1,1.02-.13,5.912,5.912,0,0,1,1.48.1c7.64,1.43,13.72,3.84,14.43,10.36,1.5,13.67-1.58,32.25-3.41,41.25S162.47,292.274,162.47,292.274Z" fill="#f1b62b"/>
        <path id="Trazado_651035" data-name="Trazado 651035" d="M112.545,300.344c-.49-.03-.75-.06-.75-.06-9.5-20.44-16.33-61.56-13.16-73.06a16.019,16.019,0,0,1,1.3-3.28,26.074,26.074,0,0,1,14.86,14.07s.7,13.339-3.01,25.5C107.09,278.894,111.775,295.4,112.545,300.344Z" fill="#ededed"/>
        <path id="Trazado_651036" data-name="Trazado 651036" d="M144.59,417.237a10.414,10.414,0,0,0-5.318,9.494,2.185,2.185,0,0,0,1.125,1.822c2.808,1.562,10.676,5.924,13.8,7.507a3.341,3.341,0,0,0,1.522.365H167.15a1.024,1.024,0,0,0,1.014-1.274c-.258-.864-1.216-2.014-4.149-2.953a4.334,4.334,0,0,1-1.38-.748c-1.3-1.036-4.156-3.289-5.483-4.213-1.75-1.218-4.317-7.511-4.317-7.511a20.906,20.906,0,0,1-4.511-.739A30.755,30.755,0,0,1,144.59,417.237Z" fill="#1a1a47"/>
        <path id="Trazado_651037" data-name="Trazado 651037" d="M100.484,222.961s-4.436,4.766-9.269,30.183S75.347,311.8,75.347,311.8a23.017,23.017,0,0,0,4.071.734,23.254,23.254,0,0,0,4.141-.031S96.048,290.56,98.715,284.56s6.333-14.964,7.583-17.982,7.417-21.351,8.334-25.851S113.113,218.913,100.484,222.961Z" fill="#f1b62b"/>
        <path id="Trazado_651038" data-name="Trazado 651038" d="M138.029,219.394s-2.189,29.437-1.439,40.875-.188,14.687,4.312,14.687S139.34,218.9,139.34,218.9Z" fill="#9e304f"/>
        <path id="Trazado_651039" data-name="Trazado 651039" d="M138.34,219.519s-1.415,44.224,1.792,56.737,5.6,16.388,7.031,17.263,6.469-11.875,6.969-17.625-10.156-55.235-10.839-57S138.34,219.519,138.34,219.519Z" fill="#d73e5c"/>
        <path id="Trazado_651040" data-name="Trazado 651040" d="M138.03,218.094l-1.15,1.14c-4.76-1.45-9.7-6.78-11.53-8.91a14.322,14.322,0,0,1,1.45.1C130.17,213.214,138.03,218.094,138.03,218.094Z" fill="#f4f4f4"/>
        <path id="Trazado_651041" data-name="Trazado 651041" d="M147.64,210.934a10.062,10.062,0,0,1-3.54,6.93l-.81-1.31a36.581,36.581,0,0,0,3.33-5.49A8.355,8.355,0,0,1,147.64,210.934Z" fill="#f4f4f4"/>
        <path id="Trazado_651042" data-name="Trazado 651042" d="M139.817,212.12a4.206,4.206,0,0,1,1.467-.081.726.726,0,0,1,.506.283c.6.795,2.423,3.339,2.638,5.279a2.372,2.372,0,0,1-1.164,2.33,3.751,3.751,0,0,1-2.211.576,10.794,10.794,0,0,1-3.77-.69c-1.414-.675.733-5.886,1.432-7.205C138.841,212.374,139.556,212.19,139.817,212.12Z" fill="#9e304f"/>
        <path id="Trazado_651043" data-name="Trazado 651043" d="M138.17,218.832a34.276,34.276,0,0,1-6.705-3.5A60.51,60.51,0,0,1,126,210.356a8.79,8.79,0,0,1,.739-2.033,4.914,4.914,0,0,1,1.1-1.348,1.071,1.071,0,0,1,.886-.275s4.812,1.2,6.456,1.787c1.08.386,4.464,1.816,4.464,1.816a.627.627,0,0,1,.477.707l-1.168,7.427A.541.541,0,0,1,138.17,218.832Z" fill="#fff"/>
        <path id="Trazado_651044" data-name="Trazado 651044" d="M146.359,208.206a7.524,7.524,0,0,1,.606,1.25,6.944,6.944,0,0,1,.2,1.529,9.911,9.911,0,0,1-1.511,4.138c-.757,1.047-2.21,2.842-2.21,2.842a.352.352,0,0,1-.609-.118l-2.139-6.87a.526.526,0,0,1,.287-.636l4.593-2.382A.665.665,0,0,1,146.359,208.206Z" fill="#fff"/>
      </g>
      <g id="_1" data-name="1">
        <g id="Grupo_994862" data-name="Grupo 994862">
          <g id="Grupo_994838" data-name="Grupo 994838">
            <g id="Grupo_994837" data-name="Grupo 994837">
              <g id="Grupo_994836" data-name="Grupo 994836">
                <g id="Grupo_994834" data-name="Grupo 994834">
                  <g id="Grupo_994827" data-name="Grupo 994827">
                    <path id="Trazado_651045" data-name="Trazado 651045" d="M240.49,327.95v-1.128c-7.483,0-13.154-2.13-16.857-6.331-5.96-6.763-4.783-16.688-4.77-16.787l-1.119-.142c-.054.427-1.251,10.534,5.043,17.675C226.713,325.691,232.669,327.95,240.49,327.95Z" fill="#ba7a6a"/>
                  </g>
                  <g id="Grupo_994828" data-name="Grupo 994828">
                    <path id="Trazado_651046" data-name="Trazado 651046" d="M245.627,327.95v-1.128c-7.482,0-13.154-2.13-16.857-6.331-5.96-6.763-4.781-16.688-4.769-16.787l-1.119-.142c-.054.427-1.251,10.534,5.042,17.675C231.851,325.691,237.807,327.95,245.627,327.95Z" fill="#ba7a6a"/>
                  </g>
                  <g id="Grupo_994830" data-name="Grupo 994830">
                    <path id="Trazado_651047" data-name="Trazado 651047" d="M237.216,316.169a.932.932,0,0,0,.948,1.114h23.118a1.374,1.374,0,0,0,1.309-1.114l5.42-33.349a3.445,3.445,0,0,0-.422-2.066l-.433-.684a5.847,5.847,0,0,0-.833-1.1,4.253,4.253,0,0,0-1.357-.15h-20.6a1.374,1.374,0,0,0-1.308,1.113Z" fill="#dedee2"/>
                    <path id="Trazado_651048" data-name="Trazado 651048" d="M239.439,316.169a.932.932,0,0,0,.948,1.114h23.12a1.373,1.373,0,0,0,1.307-1.114l5.845-36.239a.932.932,0,0,0-.949-1.113H246.592a1.373,1.373,0,0,0-1.308,1.113Z" fill="#fff"/>
                    <path id="Trazado_651049" data-name="Trazado 651049" d="M238.487,308.146H266.11l.635-4.023H239.156Z" opacity="0.5" fill="url(#linear-gradient)" style="mix-blend-mode: multiply;isolation: isolate"/>
                    <path id="Trazado_651050" data-name="Trazado 651050" d="M309.412,301.584c.043.947-3.852,2.539-6.392,2.539H210.936a2.991,2.991,0,0,1-2.951-2.817l-4.1-67.687a2.676,2.676,0,0,1,1.281-2.428c.407-.247,3.248-2.388,3.767-2.388l90.705,2a2.99,2.99,0,0,1,2.951,2.817Z" fill="#dedee2"/>
                    <g id="Grupo_994829" data-name="Grupo 994829">
                      <rect id="Rectángulo_302378" data-name="Rectángulo 302378" width="52.312" height="4.504" transform="translate(230.544 314.409)" fill="#dedee2"/>
                    </g>
                    <path id="Trazado_651051" data-name="Trazado 651051" d="M303.02,304.123H210.936a2.989,2.989,0,0,1-2.543-1.468h0l3.534-1.468,97.357-.868.128,1.266C309.455,302.531,305.56,304.123,303.02,304.123Z" fill="#4c4a55" opacity="0.3"/>
                  </g>
                  <rect id="Rectángulo_302379" data-name="Rectángulo 302379" width="42.025" height="4.504" transform="translate(246.229 314.409)" fill="#fff"/>
                  <g id="Grupo_994833" data-name="Grupo 994833">
                    <g id="Grupo_994832" data-name="Grupo 994832">
                      <path id="Trazado_651052" data-name="Trazado 651052" d="M307.531,295.123a1.212,1.212,0,0,0,1.226-1.284l-4.6-62.719a1.524,1.524,0,0,0-1.482-1.447h-91.6a3.044,3.044,0,0,0-1.958.8.6.6,0,0,0-.2.344l4.055,62.872a1.524,1.524,0,0,0,1.482,1.436Z" fill="#565fb7"/>
                      <g id="Grupo_994831" data-name="Grupo 994831" opacity="0.2" style="mix-blend-mode: multiply;isolation: isolate">
                        <path id="Trazado_651053" data-name="Trazado 651053" d="M212.334,232.934h88.69l4.317,58.926H216.135l-3.8-58.927Zm-1.25-3.262a3.046,3.046,0,0,0-1.958.8.6.6,0,0,0-.2.344l4.055,62.872a1.524,1.524,0,0,0,1.482,1.436h93.065a1.212,1.212,0,0,0,1.226-1.284l-4.6-62.719a1.524,1.524,0,0,0-1.482-1.447Z" fill="#495256"/>
                      </g>
                    </g>
                    <path id="Trazado_651054" data-name="Trazado 651054" d="M211.084,231.142h91.578a.119.119,0,0,1,.035.036l0,.032,0,.007,4.28,62.371-92.82-.023c.01,0-3.726-62.238-3.726-62.238a1.7,1.7,0,0,1,.653-.185Zm0-2.938c-1.552,0-3.692,1.129-3.622,2.678l4.057,68.954a2.988,2.988,0,0,0,2.947,2.818h93.065a2.678,2.678,0,0,0,2.693-2.818l-4.6-68.814a2.989,2.989,0,0,0-2.947-2.818Z" fill="#fff"/>
                  </g>
                </g>
                <g id="Grupo_994835" data-name="Grupo 994835">
                  <path id="Trazado_651055" data-name="Trazado 651055" d="M244.969,318.566h94.34v-3.978L317.418,312.4H244.969Z" fill="#fff"/>
                  <path id="Trazado_651056" data-name="Trazado 651056" d="M244.48,318.022h21.89v-3.434L244.48,312.4Z" fill="#dedee2"/>
                </g>
                <path id="Trazado_651057" data-name="Trazado 651057" d="M230.239,296.757a.6.6,0,0,0-.6.671l.192,1.945a.754.754,0,0,0,.734.67h1.949a.593.593,0,0,0,.6-.67l-.19-1.945a.752.752,0,0,0-.736-.671Z" fill="#6b757f"/>
                <path id="Trazado_651058" data-name="Trazado 651058" d="M313.154,328.3h-48.7c-2.138-2.131-9.618-9.5-13.432-11.491H316.9C315.68,320.883,314.222,325.532,313.154,328.3Z" fill="#a5685b" opacity="0.3" style="mix-blend-mode: multiply;isolation: isolate"/>
              </g>
            </g>
          </g>
          <g id="Grupo_994861" data-name="Grupo 994861">
            <g id="Grupo_994842" data-name="Grupo 994842">
              <g id="Grupo_994841" data-name="Grupo 994841">
                <path id="Trazado_651059" data-name="Trazado 651059" d="M302.969,232.051c-.566,1.813-3.286,7.48-3.626,10.426-.2,1.715,2.833,1.7,4.646,1.587Z" fill="#fff"/>
                <g id="Grupo_994840" data-name="Grupo 994840">
                  <path id="Trazado_651060" data-name="Trazado 651060" d="M367.05,298.11c1.378,1.577,1.938.4,3.41,3.017a135.613,135.613,0,0,1,6.047,12.549c1.97,5.912-1.379,10.838-8.275,10.641-8.472-.243-17.931-.789-17.931-.789l.393-13.6Z" fill="#e17855"/>
                  <g id="Grupo_994839" data-name="Grupo 994839">
                    <path id="Trazado_651061" data-name="Trazado 651061" d="M298.872,437.389c0,1.971,1.182,10.838-.2,12.611s-40.59-.394-40.59-.394-2.927-4.871,1.379-7.094c3.054-1.576,12.216-1.674,15.073-3.447,3.676-2.282,8.572-6.9,10.936-6.9C289.344,432.168,298.872,437.389,298.872,437.389Z" fill="#f6b229"/>
                    <path id="Trazado_651062" data-name="Trazado 651062" d="M257.239,447.753c.014.005.028.007.044.012,1.53.6,15.555.936,23.2,1.02s17.567-.508,18.779-.594a4.6,4.6,0,0,1-.591,2.206c-1.38,1.773-40.59-.394-40.59-.394A7.959,7.959,0,0,1,257.239,447.753Z" fill="#514637"/>
                    <path id="Trazado_651063" data-name="Trazado 651063" d="M294.257,437.424c-3.485-.34-6.47,2.837-8.755,2.04-3.655-1.275-2.125-5.1-2.89-5.525S294.257,437.424,294.257,437.424Z" fill="#fff"/>
                  </g>
                  <path id="Trazado_651064" data-name="Trazado 651064" d="M299.38,314.515c0,.656-9.33,8.2-9.33,8.2s-6.43,6.728-10.371,7.253-9.532.384-20.173-4.476a36.283,36.283,0,0,0-16.037-3.174c-2.163-.007-4.25,0-4.25,0s-1.023-2.52,1.191-3.74c2.776-1.53,28.561-2.16,32.895-.715,0,0,7.423-13.333,7.817-13.333Z" fill="#fff"/>
                  <path id="Trazado_651065" data-name="Trazado 651065" d="M348.9,361.016c0,4.729.526,16.026-9.457,16.026H310.678c-.8,0-2.661.821-3.416,4.466-2.252,10.86-5.709,45.572-7.855,55.584-.591,2.758-19.507.2-18.521-4.138,0,0,6.344-52.037,7.919-58.737s3.744-21.28,16.946-21.083,41.969,0,41.969,0Z" fill="#3d3d72"/>
                  <path id="Trazado_651066" data-name="Trazado 651066" d="M334.106,250.385c.2,4.137.591,16.157,1.576,16.157s-19.566,1.97-19.566,1.97l-.68-7.093s-11.675,1.773-13.054-7.29-1.915-30.626-1.97-32.531c-.2-6.9,3.94-14.121,25.024-12.02C343.165,211.346,334.106,250.385,334.106,250.385Z" fill="#fff"/>
                  <path id="Trazado_651067" data-name="Trazado 651067" d="M258.71,437.772c0,1.97,1.182,10.837-.2,12.61s-40.59-.394-40.59-.394-2.927-4.87,1.38-7.093c3.054-1.577,12.216-1.675,15.073-3.448,3.676-2.282,8.571-6.9,10.936-6.9C249.182,432.551,258.71,437.772,258.71,437.772Z" fill="#f6b229"/>
                  <path id="Trazado_651068" data-name="Trazado 651068" d="M219.3,442.895c3.054-1.577,12.216-1.675,15.073-3.448,2.449-1.52,5.435-4.069,7.857-5.606,1.03.13,1.748.225,1.748.225-1.53,1.445-8.319,6.583-10.2,7.14-2.295.68-12.495,1.36-13.43,2.975a7.049,7.049,0,0,0-.765,4.59c.15.4-.987.533-2.022.492C216.94,447.822,216.019,444.59,219.3,442.895Z" fill="#b5c7d8" opacity="0.1" style="mix-blend-mode: screen;isolation: isolate"/>
                  <path id="Trazado_651069" data-name="Trazado 651069" d="M217.076,448.135c.015.006.029.007.044.013,1.53.6,15.555.935,23.205,1.02s17.567-.508,18.779-.6a4.6,4.6,0,0,1-.592,2.206c-1.38,1.773-40.59-.394-40.59-.394A7.979,7.979,0,0,1,217.076,448.135Z" fill="#6b5f4c"/>
                  <path id="Trazado_651070" data-name="Trazado 651070" d="M254.1,437.806c-3.485-.34-6.47,2.837-8.755,2.04-3.655-1.275-2.125-5.1-2.89-5.525S254.1,437.806,254.1,437.806Z" fill="#fff"/>
                  <path id="Trazado_651071" data-name="Trazado 651071" d="M241.77,434.323c.255-.262,4.5.521,5.185.435,0,0,4.216.854,6.525,1.406.306-.1.741-.226,1.269-.366,2.257,1.1,3.961,2.057,3.961,2.057,0,2.018,1.182,11.1-.2,12.912-.36.474-3.3.672-7.447.708a2.061,2.061,0,0,1,.735-.182c1.984-.128,1.978-6.642,1.632-11.173-1.707-.456-6.527-2-8.942-2.926C241.77,436.15,241.515,434.584,241.77,434.323Z" fill="#808389" opacity="0.4" style="mix-blend-mode: multiply;isolation: isolate"/>
                  <path id="Trazado_651072" data-name="Trazado 651072" d="M356.259,361.016c0,4.729.525,16.026-9.458,16.026H273.24c-.8,0-2.66.821-3.416,4.466-2.251,10.86-8.073,45.572-10.219,55.584-.591,2.758-19.506.2-18.521-4.138,0,0,6.343-52.037,7.92-58.737s3.744-21.28,16.945-21.083,41.969,0,41.969,0Z" fill="#222b5a"/>
                  <path id="Trazado_651073" data-name="Trazado 651073" d="M251.445,433.012c2.146-10.012,5.929-44.724,8.179-55.584.756-3.645,3.063-4.466,7.936-4.466h48.51c8.419,0,6.644-8.034,6.733-13.388l33.456,1.442c0,4.729.525,16.026-9.458,16.026H273.24c-.8,0-2.66.821-3.416,4.466-2.251,10.86-8.073,45.572-10.219,55.584-.559,2.61-17.519.455-18.5-3.458C245.723,434.437,251.154,434.373,251.445,433.012Z" fill="#222b5a"/>
                  <path id="Trazado_651074" data-name="Trazado 651074" d="M324.793,369.652c-11.166,0-14.465-1.885-16.684-3.415-3.809-2.627-7.75-9.5-8.143-11.475a36.789,36.789,0,0,1-.255-4.188c5.141-.022,8.661-.046,8.661-.046l47.864,6.7c0,2.17.584,8.406-.261,11.616C352.578,370.163,332.558,369.652,324.793,369.652Z" fill="#204d5e"/>
                  <path id="Trazado_651075" data-name="Trazado 651075" d="M357.967,309.655c0,2.758.656,42.035,0,49.785-.186,2.185.419,4-2.169,5.615-2.364,1.478-23.442,1.084-31.459,1.084-11.166,0-14.465-1.885-16.684-3.415-3.809-2.628-7.75-8.145-8.143-10.115a45.335,45.335,0,0,1-.264-4.729V318.587l-6.7,8.013C289.4,329.1,273.9,315.172,276,311.888s20.074-38.184,23.742-43.571c3.049-4.477,15.732-5.365,28.39-5.44,10.681-.064,20.23-.17,24.31,6.29,4.484,7.1,15.98,26.86,20.107,35.3,0,0-1.182,7.684-16.354,10.837Z" fill="#179587"/>
                </g>
                <path id="Trazado_651076" data-name="Trazado 651076" d="M310.138,235.762c.255,2.805.085,7.65-3.06,7.4s5.185,2.975,6.2-.85c0,0,1.7-5.27,0-6.8A2.113,2.113,0,0,0,310.138,235.762Z" fill="#fff"/>
                <path id="Trazado_651077" data-name="Trazado 651077" d="M326.325,252.083c-6.262.048-11.6-1.3-14.515-5.513-2.654-3.829-.522-16.234-4.42-21.773-1.729-2.457-4.131-2.315-6.885-2.04-1.7.17-6.035-4.25-2.89-11.475.076-.174,2.4.62,5.185-.255,6.93-2.18,19.328-6.55,27.483-4.476,11.349,2.886,10.688,15.7,10.688,25.157s-3.683,20.2-8.154,20.2Z" fill="#825034"/>
                <path id="Trazado_651078" data-name="Trazado 651078" d="M310.223,235.9c-.227-2.38-.51-4.533-1.813-5.213-2.164-1.129-3.4,1.133-3.4,3.06,0,0-1.3.623-1.247-2.154.065-3.171.142-9.107-1.417-9.01-2,.126,4.137-3.116,5.837-1.53s4.42,2.834,4.873,4.76.907,3.514.454,4.76A47.523,47.523,0,0,1,310.223,235.9Z" fill="#825034"/>
                <path id="Trazado_651079" data-name="Trazado 651079" d="M299.248,337.677v-19.09c3.9-7.657,7.235-12.3,7.915-16.157C307.365,303.038,303.827,330.764,299.248,337.677Z" fill="#a7a9ac"/>
                <path id="Trazado_651080" data-name="Trazado 651080" d="M358.026,314.879c.012.975.026,2.056.04,3.225a26.544,26.544,0,0,1-.129-3.207c.113-5.78.68-25.727-1.814-31.96,0,0,11.171,23.046,13.025,26.646C367.02,311.474,363.571,313.489,358.026,314.879Z" fill="#a7a9ac"/>
              </g>
            </g>
            <g id="Grupo_994860" data-name="Grupo 994860">
              <g id="Grupo_994846" data-name="Grupo 994846">
                <g id="Grupo_994845" data-name="Grupo 994845">
                  <g id="Grupo_994843" data-name="Grupo 994843">
                    <path id="Trazado_651081" data-name="Trazado 651081" d="M372.591,452.112,358.6,385.967c-.245-1.647.535-2.7-1.13-2.7H323.147a3.725,3.725,0,0,0-3.523,3.038l-9.656,65.821h-3.511l9.089-66.174c.417-2.8,4.086-5.079,6.918-5.079h35.69a6.149,6.149,0,0,1,5.893,5.079l12.924,65.776-2.8.325Z" fill="#474d50"/>
                  </g>
                  <g id="Grupo_994844" data-name="Grupo 994844">
                    <path id="Trazado_651082" data-name="Trazado 651082" d="M371.181,452.182l2.43-.181L360.8,385.875a6.425,6.425,0,0,0-6.058-5H319.728a6.136,6.136,0,0,0-5.884,5.083l-9.663,65.82,2.368.348,9.663-65.82a3.716,3.716,0,0,1,3.516-3.037h35.009a3.988,3.988,0,0,1,3.708,3.059Z" fill="#828586"/>
                  </g>
                </g>
                <path id="Trazado_651083" data-name="Trazado 651083" d="M313.844,385.96a6.136,6.136,0,0,1,5.884-5.083h35.009a6.425,6.425,0,0,1,6.058,5l2.991,15.466h-2.438l-2.9-15.011a3.988,3.988,0,0,0-3.708-3.059H319.728a3.716,3.716,0,0,0-3.516,3.037l-2.207,15.033h-2.419Z" fill="#383e41" opacity="0.5"/>
              </g>
              <g id="Grupo_994859" data-name="Grupo 994859">
                <g id="Grupo_994849" data-name="Grupo 994849">
                  <g id="Grupo_994847" data-name="Grupo 994847">
                    <path id="Trazado_651084" data-name="Trazado 651084" d="M367.733,383.181c3.31,0,5.375-6.959,7.893-26.593.2-1.567.359-2.806.468-3.457l.2-1.18-2.361-.394-.2,1.181c-.116.7-.277,1.953-.481,3.545-.509,3.961-1.276,9.947-2.324,15.15-1.758,8.727-3.18,9.339-3.24,9.36-1.112-.005-3.38-.06-6.518-.134-8.219-.2-21.975-.523-40.362-.523h-1.2v2.393h1.2c18.359,0,32.1.327,40.3.523C364.268,383.127,366.547,383.181,367.733,383.181Z" fill="#424d56"/>
                  </g>
                  <g id="Grupo_994848" data-name="Grupo 994848">
                    <path id="Trazado_651085" data-name="Trazado 651085" d="M318.643,382.529h46.924c3.316,0,5.383-6.9,7.9-26.366.2-1.526.353-2.731.461-3.374l-2.362-.394c-.114.687-.272,1.911-.473,3.461-.508,3.925-1.275,9.858-2.326,15.021-1.761,8.652-3.181,9.243-3.241,9.264l-46.884-.006Z" fill="#828586"/>
                  </g>
                  <path id="Trazado_651086" data-name="Trazado 651086" d="M367.454,376.209a4.678,4.678,0,0,1,1.267,3.411c-.944,2.021-1.969,2.909-3.154,2.909h-1.2c-.09-.358-.137-.652-.137-.652s.206-.9.413-1.736h.888C365.571,380.125,366.348,379.8,367.454,376.209Z" fill="#383e41" opacity="0.5"/>
                </g>
                <path id="Trazado_651087" data-name="Trazado 651087" d="M263.057,384.489a21.1,21.1,0,0,0,10.6,2.907h59.8c11.8,0,31.25-.856,33.131-5.643s-94.607-3.053-94.607-3.053-6.536,1.173-7.22,1.686S263.057,384.489,263.057,384.489Z" fill="#383e41"/>
                <path id="Trazado_651088" data-name="Trazado 651088" d="M372.72,351.566l5.737-38.72c.133-.894,4.556-1.263,4.379-2.058-.635-2.848-3.351-7.372-10.473-7.372H329.656a9.018,9.018,0,0,0-8.626,7.442s-6.39,37.9-6.063,39c.593,1.993,1.336,3.279,3.218,3.279s54.221.482,54.221.482Z" fill="#eaa373"/>
                <g id="Grupo_994850" data-name="Grupo 994850">
                  <path id="Trazado_651089" data-name="Trazado 651089" d="M314.995,382.779h49.091a3.591,3.591,0,1,0,0-7.182H314.995a3.591,3.591,0,0,0,0,7.182Z" fill="#b57448"/>
                </g>
                <g id="Grupo_994851" data-name="Grupo 994851">
                  <path id="Trazado_651090" data-name="Trazado 651090" d="M256.629,388.6l.1-3.491a8.964,8.964,0,0,1,2.612-5.428c2.6-2.709,6.555-4.083,11.753-4.083h42.191a3.591,3.591,0,0,1,0,7.182H271.092c-5.1,0-6.916,1.782-7.21,2.885l-.281,3.326Zm7.269-3.125-.012.141a2.721,2.721,0,0,0,.025-.393C263.91,385.306,263.906,385.39,263.9,385.475Z" fill="#eaa373"/>
                </g>
                <rect id="Rectángulo_302380" data-name="Rectángulo 302380" width="41.367" height="3.627" transform="translate(267.949 380.177)" fill="#b57448"/>
                <path id="Trazado_651091" data-name="Trazado 651091" d="M364.086,382.779h-51.37c-1.983,0-1.311-1.608-1.311-3.59a3.591,3.591,0,0,1,3.59-3.592h1.18c1.529,3.945,12.751,4.936,29.867,4.936,21.936,0,20.415-.651,21.635-1.344A3.591,3.591,0,0,1,364.086,382.779Z" fill="#8e5935"/>
                <g id="Grupo_994854" data-name="Grupo 994854">
                  <g id="Grupo_994852" data-name="Grupo 994852">
                    <path id="Trazado_651092" data-name="Trazado 651092" d="M312.483,383.838h1.2c3.353,0,5.533-7.24,8.332-27.668.188-1.369.336-2.45.434-3.039l.2-1.18-2.361-.394-.2,1.181c-.1.623-.255,1.72-.445,3.108-.521,3.8-1.393,10.166-2.533,15.643-1.9,9.13-3.322,9.9-3.478,9.963h-1.2Z" fill="#424d56"/>
                  </g>
                  <g id="Grupo_994853" data-name="Grupo 994853">
                    <path id="Trazado_651093" data-name="Trazado 651093" d="M311.917,382.855c3.31,0,5.375-6.962,7.893-26.6.2-1.571.361-2.811.47-3.463l-2.362-.394c-.116.7-.277,1.957-.482,3.552-.508,3.963-1.275,9.952-2.324,15.157-1.758,8.729-3.18,9.341-3.239,9.363Z" fill="#828586"/>
                  </g>
                  <path id="Trazado_651094" data-name="Trazado 651094" d="M317.918,352.395l2.79.564c-.1.573-.23,1.6-.4,2.908l-2.741-1C317.758,353.393,317.808,353.054,317.918,352.395Z" fill="#424d56"/>
                  <path id="Trazado_651095" data-name="Trazado 651095" d="M371.412,353.359l2.361.393c-.1.573-.23,1.6-.4,2.908l-2.249-.808C371.315,354.378,371.3,354.017,371.412,353.359Z" fill="#383e41" opacity="0.5"/>
                </g>
                <g id="Grupo_994858" data-name="Grupo 994858">
                  <g id="Grupo_994857" data-name="Grupo 994857">
                    <g id="Grupo_994855" data-name="Grupo 994855">
                      <path id="Trazado_651096" data-name="Trazado 651096" d="M317.406,452.112l-9.385-68.425c-.246-1.647.534-3.3-1.131-3.3l-34.324.6a3.727,3.727,0,0,0-3.524,3.039l-9.655,68.1h-3.512l9.09-68.454c.417-2.8,4.189-4.976,7.021-4.976l35.588-.1a6.151,6.151,0,0,1,5.892,5.08l9.667,68.056-2.8.325Z" fill="#474d50"/>
                    </g>
                    <g id="Grupo_994856" data-name="Grupo 994856">
                      <path id="Trazado_651097" data-name="Trazado 651097" d="M255.969,452.123l9.682-68.1a3.689,3.689,0,0,1,3.5-3.035h35.007a3.687,3.687,0,0,1,3.5,3.035l9.682,68.1,2.37-.338-9.682-68.1a6.106,6.106,0,0,0-5.866-5.091H269.147a6.107,6.107,0,0,0-5.866,5.091l-9.682,68.1Z" fill="#828586"/>
                    </g>
                  </g>
                </g>
                <path id="Trazado_651098" data-name="Trazado 651098" d="M375.028,351.566l5.738-38.72c.132-.894,3.188-1.263,3.01-2.058-.636-2.848-6.2-5.384-9.431-5.384H331.639a9.017,9.017,0,0,0-8.627,7.442l-5.762,39.536,2.191,1.236h55.273Z" fill="#757d7f"/>
                <path id="Trazado_651099" data-name="Trazado 651099" d="M374.345,305.4H331.639a8.978,8.978,0,0,0-7.069,3.737.965.965,0,0,0,.456-.32c1.026-1.139,1.938,1.255,1.938,2.167,0,.719,39.1,3.788,53.338,4.988l.464-3.13c.132-.894,3.188-1.263,3.01-2.058C383.14,307.94,377.579,305.4,374.345,305.4Z" fill="#757d7f"/>
                <path id="Trazado_651100" data-name="Trazado 651100" d="M378.9,353.618l5.737-38.721a6.315,6.315,0,0,0-6.421-7.442H333.8a9.016,9.016,0,0,0-8.625,7.442l-5.737,38.721a262.128,262.128,0,0,0,35.753,2.85C372.976,356.468,378.9,353.618,378.9,353.618Z" fill="#424d56"/>
              </g>
              <path id="Trazado_651101" data-name="Trazado 651101" d="M317.406,351.309l1.4.362a261.126,261.126,0,0,0,36.387,3.1c15.1,0,22.483-2.61,24.018-3.228l-.308,2.078s-5.928,2.85-23.71,2.85a262.128,262.128,0,0,1-35.753-2.85l-2.255-.833Z" fill="#424d56" stroke="#424d56" stroke-linejoin="round" stroke-width="1.052"/>
            </g>
          </g>
        </g>
      </g>
      <g id="Grupo_994863" data-name="Grupo 994863">
        <path id="Trazado_651102" data-name="Trazado 651102" d="M24.044,306.071s-10.105,44.636,5.9,74.954l16,30.319S50.152,335.548,24.044,306.071Z" fill="#179587"/>
        <path id="Trazado_651103" data-name="Trazado 651103" d="M24.728,422.6c.972,5.474,2.218,10.995,4.926,15.85s7.085,9.022,12.488,10.33a28.686,28.686,0,0,0,7.521.517c2.764-.074,5.653-.249,8.036-1.653,3.106-1.829,4.735-5.36,6-8.736a101.869,101.869,0,0,0,4.835-17.622c.624-3.466,1.026-7.223-.592-10.35-2.191-4.236-7.327-5.941-12.034-6.709-7.823-1.276-18.595-1.929-26.09,1.257C23.272,408.264,23.667,416.623,24.728,422.6Z" fill="#f1b62b"/>
        <path id="Trazado_651104" data-name="Trazado 651104" d="M42.47,411.489c6.207.363,12.934-.589,16.842-2.694.781-.421,1.477-.961,1.107-1.476-.436-.609-2.089-.86-3.53-1.009-7.463-.77-15.727-1.118-23.03.121C23.158,408.245,36.79,411.156,42.47,411.489Z" fill="#524f63"/>
        <path id="Trazado_651105" data-name="Trazado 651105" d="M39.2,295.123s-5.053,85.06,6.737,116.221C45.941,411.344,53.521,335.548,39.2,295.123Z" fill="#0e7267"/>
        <path id="Trazado_651106" data-name="Trazado 651106" d="M44.452,410.721h2.736c4.025-16.839,16.066-71.383,9.7-96.84,0,0-20.213,71.585-15.16,87.587C42.965,405.665,43.835,408.624,44.452,410.721Z" fill="#179587"/>
      </g>
    </g>
  </g>
</svg>
