<svg xmlns="http://www.w3.org/2000/svg" width="541.548" height="345.056" viewBox="0 0 541.548 345.056">
  <g id="Grupo_1000298" data-name="Grupo 1000298" transform="translate(-821 -10152.61)">
    <g id="Grupo_994818" data-name="Grupo 994818" transform="translate(821 8926.072)">
      <g id="Bg" transform="translate(0 1251.261)">
        <rect id="Rectángulo_302347" data-name="Rectángulo 302347" width="480.5" height="320.333" fill="#fff" opacity="0"/>
      </g>
      <g id="BACKGROUND" transform="translate(0.149 1251.261)">
        <rect id="Rectángulo_302348" data-name="Rectángulo 302348" width="480.5" height="320.333" fill="#fff"/>
      </g>
      <g id="OBJECTS" transform="translate(6.193 1251.261)">
        <g id="Grupo_994817" data-name="Grupo 994817">
          <g id="Grupo_994728" data-name="Grupo 994728" transform="translate(83.14 -24.723)">
            <path id="Trazado_650804" data-name="Trazado 650804" d="M118.169,1366.84S58,1389.6,48.986,1436.153s-57.821-127.279-4.162-111.476S117.781,1350.916,118.169,1366.84Z" transform="translate(-18.682 -1299.85)" fill="#d3e8ef"/>
            <path id="Trazado_650805" data-name="Trazado 650805" d="M309.207,1326.068s43.058,67.662,61.578,74.222,80.2-65.557,107.259-35.294,62.966-52.6,15.112-67.118-38.151,36.828-85.073,21.191S279.548,1283.867,309.207,1326.068Z" transform="translate(-64.387 -1295.261)" fill="#d3e8ef"/>
            <path id="Trazado_650806" data-name="Trazado 650806" d="M18.422,1568.875H470.636s.878-115.084-80.565-103.147-99.631-116.807-157.8-129.54S101.852,1406.365,78.288,1452,18.422,1468.351,18.422,1568.875Z" transform="translate(-18.422 -1301.662)" fill="#d3e8ef"/>
            <path id="Trazado_650807" data-name="Trazado 650807" d="M28.521,1589.9S67.6,1519.909,129,1525.388s38.979-79.881,84.466-53.122,57.733,86.215,117.711,84.421,99.97,33.548,99.97,33.548Z" transform="translate(-20.054 -1323.022)" fill="#bdd9e0"/>
          </g>
          <g id="Grupo_994729" data-name="Grupo 994729" transform="translate(309.247 65.78)">
            <rect id="Rectángulo_302349" data-name="Rectángulo 302349" width="46.357" height="86.208" fill="#f1d2a9"/>
            <rect id="Rectángulo_302350" data-name="Rectángulo 302350" width="37.642" height="14.964" transform="translate(3.753 6.017)" fill="#fff"/>
            <rect id="Rectángulo_302351" data-name="Rectángulo 302351" width="37.642" height="14.965" transform="translate(3.753 31.21)" fill="#fff"/>
          </g>
          <g id="Grupo_994730" data-name="Grupo 994730" transform="translate(127.958 99.068)">
            <circle id="Elipse_5724" data-name="Elipse 5724" cx="30.228" cy="30.228" r="30.228" transform="translate(0 84.528) rotate(-81.571)" fill="#fff"/>
            <rect id="Rectángulo_302352" data-name="Rectángulo 302352" width="51.648" height="48.885" transform="translate(68.397)" fill="#fff"/>
          </g>
          <g id="Grupo_994746" data-name="Grupo 994746" transform="translate(210.154 99.047)">
            <g id="Grupo_994736" data-name="Grupo 994736" transform="translate(50.148)">
              <path id="Trazado_650808" data-name="Trazado 650808" d="M360.9,1413.906c2.75-3.074,3.63-6.774,1.965-8.263s-5.243-.2-7.993,2.869c-.021.023-.039.048-.06.071-2.612,2.96-3.492,6.469-2.051,8.034.049.052.092.109.146.157C354.567,1418.263,358.146,1416.98,360.9,1413.906Z" transform="translate(-323.386 -1375.154)" fill="#df7660"/>
              <path id="Trazado_650809" data-name="Trazado 650809" d="M347.094,1420.381c.428-1.921-15.816-4.48-12.75,7.115l0,.014a10.838,10.838,0,0,1,1.462,2.277,12.452,12.452,0,0,1,1.3,5.917c-.16,4.965,15,2.723,12.387-4.7-.447-1.268-.819-2.344-1.134-3.287a31.364,31.364,0,0,1-1.355-4.885A6.147,6.147,0,0,1,347.094,1420.381Z" transform="translate(-320.46 -1377.367)" fill="#d79081"/>
              <path id="Trazado_650810" data-name="Trazado 650810" d="M347.291,1424.2h0c-.132-.524-.225-.971-.283-1.364a6.147,6.147,0,0,1,.086-2.452c.428-1.921-15.816-4.48-12.75,7.115C334.345,1427.5,339.607,1429.8,347.291,1424.2Z" transform="translate(-320.46 -1377.367)" fill="#af695d"/>
              <path id="Trazado_650811" data-name="Trazado 650811" d="M323.51,1402.1a29.885,29.885,0,0,1,.854,8.649c-.374,3.9,4,9.984,7.741,11.746s11.265-2.349,13.988-5.286,4.485-10.3,4.538-13.614S345.4,1387.261,336,1389.023,321.695,1393.988,323.51,1402.1Z" transform="translate(-318.711 -1372.542)" fill="#efcdca"/>
              <path id="Trazado_650812" data-name="Trazado 650812" d="M328.544,1394.472s-2.862,3.868-6.276,3.865a20.07,20.07,0,0,1,1.278,6.488s-4.772-3.848-4.131-9.213c0,0-2.643-.32-1.041-4.245s9.85-12.492,18.659-10.571v-.561s-8.571-1.6-8.209-5.285,8.789-6.577,18.38-5.206c4.949.708,7.368,5.286,5.445,6.087,0,0,6.854,9.884-6.11,7.811,0,0,8.718,2.777,7.785,15.625l-4.545,3.022s-.387,5.625-2.079,7.463c0,0,.15-8.373-1.054-11.577a23.091,23.091,0,0,0-4.728-2.158s.16,1.037-4.724-.485A22.675,22.675,0,0,0,328.544,1394.472Z" transform="translate(-317.858 -1369.397)" fill="#e7aa46"/>
              <g id="Grupo_994735" data-name="Grupo 994735" transform="translate(4.959 27.307)">
                <g id="Grupo_994731" data-name="Grupo 994731">
                  <path id="Trazado_650813" data-name="Trazado 650813" d="M323.933,1406.785s.214-1.095,1.975-1.335c2.018-.275,2.269,1.389,2.589,1.175s-.248-2.269-2.317-2.483A1.959,1.959,0,0,0,323.933,1406.785Z" transform="translate(-323.773 -1402.316)" fill="#c4493a"/>
                  <path id="Trazado_650814" data-name="Trazado 650814" d="M335.657,1404.842s5.445-2.65,7.474-.834.686-.423-.347-1.335c-2.056-1.816-6.193.573-6.3-.481-.038-.371-2.135.935-2.109,1.842S334.519,1405.328,335.657,1404.842Z" transform="translate(-325.486 -1401.968)" fill="#c4493a"/>
                </g>
                <g id="Grupo_994732" data-name="Grupo 994732" transform="translate(1.432 4.631)">
                  <path id="Trazado_650815" data-name="Trazado 650815" d="M338.277,1409.865a.321.321,0,0,1-.3-.427c.066-.191.687-1.868,1.8-1.945.673-.044,1.332.508,1.951,1.7a.32.32,0,0,1-.569.294c-.466-.9-.932-1.374-1.336-1.359-.589.04-1.106,1.138-1.24,1.518A.322.322,0,0,1,338.277,1409.865Z" transform="translate(-327.497 -1407.491)" fill="#2c2636"/>
                  <path id="Trazado_650816" data-name="Trazado 650816" d="M325.788,1412.68a.2.2,0,0,1-.086,0,.345.345,0,0,1-.218-.38c.023-.2.254-1.93,1.122-2.144.525-.126,1.132.337,1.805,1.443a.363.363,0,0,1-.043.444.234.234,0,0,1-.362-.083c-.508-.835-.948-1.243-1.266-1.177-.459.112-.7,1.26-.745,1.653A.267.267,0,0,1,325.788,1412.68Z" transform="translate(-325.481 -1407.918)" fill="#2c2636"/>
                </g>
                <path id="Trazado_650817" data-name="Trazado 650817" d="M330.873,1414.619l.316-.039,1.5-.185.1-.012a.254.254,0,0,1,.287.215l.127,1.028a.253.253,0,0,1-.226.278l-.1.013s-.528.155-.565.507c0,0,.035.176-.569.25l-.29.036-1.151.067a.643.643,0,0,1-.739-.453l-.1.013h0a.255.255,0,0,1-.287-.216l.029-1.064a.473.473,0,0,1,.437-.287Z" transform="translate(-324.646 -1403.973)" fill="#ea344f"/>
                <g id="Grupo_994734" data-name="Grupo 994734" transform="translate(0.899 11.009)">
                  <path id="Trazado_650818" data-name="Trazado 650818" d="M330.873,1420.611a5.336,5.336,0,0,0,3.684-.641S333.035,1427.778,330.873,1420.611Z" transform="translate(-325.82 -1415.885)" fill="#c04336"/>
                  <g id="Grupo_994733" data-name="Grupo 994733">
                    <path id="Trazado_650819" data-name="Trazado 650819" d="M346.172,1419.967a2.932,2.932,0,1,1-.542-4.474A3.213,3.213,0,0,1,346.172,1419.967Z" transform="translate(-327.405 -1415.098)" fill="#df7660"/>
                    <path id="Trazado_650820" data-name="Trazado 650820" d="M328.216,1420.4c-.617-1.72-2.12-2.99-3.37-2.853a15.776,15.776,0,0,0,3.1,5.819A2.924,2.924,0,0,0,328.216,1420.4Z" transform="translate(-324.846 -1415.491)" fill="#df7660"/>
                  </g>
                </g>
              </g>
              <path id="Trazado_650821" data-name="Trazado 650821" d="M355.257,1415.944l-.045,0a.3.3,0,0,1-.257-.181c-.148-.368.491-1.185,1.561-2.487.336-.408.735-.894.912-1.165l-.636.169a.157.157,0,0,1-.2-.114.16.16,0,0,1,.114-.2l.751-.2c.044-.018.234-.1.338.045.143.194-.055.468-1.035,1.662-.55.668-1.571,1.911-1.511,2.166h.014c.444,0,2.514-1.29,4.428-3.1,1.692-1.6,2.593-2.971,2.537-3.867a1.262,1.262,0,0,0-.547-1.073c-.967-.62-2.885.112-2.9.119a.16.16,0,1,1-.117-.3c.086-.033,2.09-.8,3.193-.091a1.585,1.585,0,0,1,.7,1.324c.078,1.272-1.392,2.943-2.638,4.12C358.157,1414.438,355.935,1415.944,355.257,1415.944Zm2.371-3.891Z" transform="translate(-323.849 -1375.479)" fill="#c4493a"/>
              <path id="Trazado_650822" data-name="Trazado 650822" d="M345.236,1381.07c1.761-1.687,5.767-5.715,5.267-6.978a.775.775,0,0,0-.817-.449,3.266,3.266,0,0,0-.817.128,5.271,5.271,0,0,0-2.715,1.7,6.1,6.1,0,0,0-1.421-4.087c-.508-.615-.923-.9-1.305-.9a.725.725,0,0,0-.573.283c-1.027,1.249.041,7.581.475,9.9a23.5,23.5,0,0,0-2.6-.259v.561s6.293.869,9.507,2.845C350.235,1383.818,348.976,1382.072,345.236,1381.07Zm3.8-6.68a2.689,2.689,0,0,1,.653-.107c.155,0,.216.033.221.045.236.6-2.266,3.52-4.925,6.1.019-.24.053-.53.1-.845a10.965,10.965,0,0,0,.942-2.814A4.815,4.815,0,0,1,349.032,1374.391Zm-5.684-3.213c.041-.049.065-.049.078-.049.044,0,.286.032.812.667a5.732,5.732,0,0,1,1.174,4.771,9.2,9.2,0,0,0-.935,2.8c-.2.4-.389.738-.552,1C343.3,1376.96,342.672,1372,343.349,1371.178Z" transform="translate(-321.554 -1369.573)" fill="#d04964"/>
            </g>
            <g id="Grupo_994737" data-name="Grupo 994737" transform="translate(0.613 60.642)">
              <path id="Trazado_650823" data-name="Trazado 650823" d="M275.22,1539.6l-16.444,62.358h3.1l20.341-62.358Z" transform="translate(-258.777 -1457.542)" fill="#f1d2a9"/>
              <path id="Trazado_650824" data-name="Trazado 650824" d="M342.711,1539.6l16.444,62.358h-3.1L335.717,1539.6Z" transform="translate(-271.209 -1457.542)" fill="#f1d2a9"/>
              <path id="Trazado_650825" data-name="Trazado 650825" d="M369.07,1523.783H277.988v-7.367h51.36l21.376-74.689h34.949l.138.168a8.766,8.766,0,0,1,1.733,7.683Z" transform="translate(-261.881 -1441.727)" fill="#a0cad8"/>
              <path id="Trazado_650826" data-name="Trazado 650826" d="M385.673,1441.727l-22,72.553S362.662,1517.8,349,1517.8H324.42v5.98H277.988v-7.367h51.36l22.8-74.689Z" transform="translate(-261.881 -1441.727)" fill="#5ea4b7"/>
            </g>
            <g id="Grupo_994740" data-name="Grupo 994740" transform="translate(0 190.295)">
              <g id="Grupo_994738" data-name="Grupo 994738">
                <path id="Trazado_650827" data-name="Trazado 650827" d="M271.779,1604.076v-7.708l8.822,2.242-.628,5-3.388,7.524-7.436-2.349s-1.522-1.922-1.041-2.162S271.779,1604.076,271.779,1604.076Z" transform="translate(-259.656 -1596.368)" fill="#efcdca"/>
                <path id="Trazado_650828" data-name="Trazado 650828" d="M258.045,1612.525H282.1s-.3-6.113-3.832-7.524c0,0-3.526,3.645-7.171,3.174s-1.024-2.7-1.024-2.7S258.515,1604.413,258.045,1612.525Z" transform="translate(-258.045 -1597.763)" fill="#31547b"/>
              </g>
              <g id="Grupo_994739" data-name="Grupo 994739" transform="translate(27.086)">
                <path id="Trazado_650829" data-name="Trazado 650829" d="M303.968,1604.076v-7.708l8.823,2.242-.628,5-3.388,7.524-7.436-2.349s-1.522-1.922-1.041-2.162S303.968,1604.076,303.968,1604.076Z" transform="translate(-291.943 -1596.368)" fill="#efcdca"/>
                <path id="Trazado_650830" data-name="Trazado 650830" d="M290.351,1612.525H314.4s-.3-6.113-3.831-7.524c0,0-3.527,3.645-7.171,3.174s-1.024-2.7-1.024-2.7S290.821,1604.413,290.351,1612.525Z" transform="translate(-290.351 -1597.763)" fill="#31547b"/>
              </g>
            </g>
            <g id="Grupo_994742" data-name="Grupo 994742" transform="translate(9.253 116.987)">
              <path id="Trazado_650831" data-name="Trazado 650831" d="M357.813,1508.931s3.688,19.714-8.644,19.714-30.72.018-30.72.018l-9.762,59.548H295.776l1.014-52.18-14.249,52.855H269.081l13.461-66.95s5.4-12.923,33.293-12.923Z" transform="translate(-269.081 -1508.931)" fill="#f1b62b"/>
              <g id="Grupo_994741" data-name="Grupo 994741" transform="translate(2.453)">
                <path id="Trazado_650832" data-name="Trazado 650832" d="M285.136,1588.886l14.249-52.855s-1.948-18.785,2.149-21.3,26.01-5.8,26.01-5.8-27.518,2.274-29.281,6.758-1.441,18.953-1.441,18.953Z" transform="translate(-274.128 -1508.931)" fill="#843835"/>
                <path id="Trazado_650833" data-name="Trazado 650833" d="M327.9,1530.965a.33.33,0,0,1-.1-.015.32.32,0,0,1-.206-.4c.02-.064,2.045-6.385,1.959-9.021a.321.321,0,0,1,.309-.331.3.3,0,0,1,.331.31c.089,2.747-1.906,8.973-1.99,9.238A.321.321,0,0,1,327.9,1530.965Z" transform="translate(-280.987 -1510.913)" fill="#843835"/>
                <path id="Trazado_650834" data-name="Trazado 650834" d="M295.018,1524.393a.32.32,0,0,1-.2-.067c-3.75-2.9-9.077-.754-9.129-.731a.32.32,0,0,1-.245-.592c.231-.095,5.722-2.31,9.766.817a.32.32,0,0,1-.2.573Z" transform="translate(-274.146 -1511.068)" fill="#843835"/>
                <path id="Trazado_650835" data-name="Trazado 650835" d="M272.327,1590.708a.373.373,0,0,1-.06-.005.321.321,0,0,1-.255-.375l12.025-63.427a.32.32,0,1,1,.63.119l-12.025,63.427A.32.32,0,0,1,272.327,1590.708Z" transform="translate(-272.006 -1511.793)" fill="#843835"/>
                <path id="Trazado_650836" data-name="Trazado 650836" d="M302.9,1587.807h-.013a.32.32,0,0,1-.308-.332l2.348-63.105a.329.329,0,0,1,.332-.308.32.32,0,0,1,.309.332l-2.348,63.105A.322.322,0,0,1,302.9,1587.807Z" transform="translate(-276.946 -1511.376)" fill="#843835"/>
              </g>
            </g>
            <g id="Grupo_994744" data-name="Grupo 994744" transform="translate(30.237 48.361)">
              <path id="Trazado_650837" data-name="Trazado 650837" d="M341.285,1427.079s12.885,3.363,15.555,6.779,21.569,46.769,7.9,46.769h-5.766l2.882,15.077s-31.742,2.535-41.978.082v-15.159H296.19l-2.08-6.514,16.6-1.6,10.672-37.237,7.987-4.141s1.175,3.333,6.854,2.613C343.023,1432.889,341.285,1427.079,341.285,1427.079Z" transform="translate(-294.11 -1427.079)" fill="#222b5a"/>
              <g id="Grupo_994743" data-name="Grupo 994743" transform="translate(16.281 6.329)">
                <path id="Trazado_650838" data-name="Trazado 650838" d="M323.793,1476.481l35.342-5.659s-.538-22.953-3.717-29.094c0,0,2.587,21.662.88,26.446Z" transform="translate(-315.188 -1435.775)" fill="#203442"/>
                <path id="Trazado_650839" data-name="Trazado 650839" d="M329.432,1443.061l-.391,32.51,2.142-.547Z" transform="translate(-316.036 -1435.991)" fill="#203442"/>
                <path id="Trazado_650840" data-name="Trazado 650840" d="M376.635,1481.163a.319.319,0,0,1-.25-.119c-3.624-4.5-11.252-4.72-11.329-4.722a.32.32,0,0,1,.007-.64h.008c.324.007,8,.222,11.815,4.961a.32.32,0,0,1-.25.521Z" transform="translate(-321.804 -1441.262)" fill="#203442"/>
                <path id="Trazado_650841" data-name="Trazado 650841" d="M322.872,1481.889a.313.313,0,0,1-.118-.023c-5.1-2.012-8.741-.491-8.777-.476a.32.32,0,1,1-.254-.589c.158-.068,3.92-1.641,9.267.469a.32.32,0,0,1-.117.618Z" transform="translate(-313.529 -1441.988)" fill="#203442"/>
                <path id="Trazado_650842" data-name="Trazado 650842" d="M340.069,1452.349a.32.32,0,0,1-.319-.3c-.318-5.719.444-17.007.451-17.12a.321.321,0,0,1,.64.043c-.008.113-.766,11.361-.451,17.042a.319.319,0,0,1-.3.337Z" transform="translate(-317.753 -1434.628)" fill="#203442"/>
              </g>
            </g>
            <path id="Trazado_650843" data-name="Trazado 650843" d="M323.65,1489.693l-2.339-6.514a18.172,18.172,0,0,0-12.876,6.514Z" transform="translate(-266.188 -1387.783)" fill="#efcdca"/>
            <path id="Trazado_650844" data-name="Trazado 650844" d="M293.967,1489.693l-2.339-6.514a18.172,18.172,0,0,0-12.876,6.514Z" transform="translate(-261.391 -1387.783)" fill="#efcdca"/>
            <g id="Grupo_994745" data-name="Grupo 994745" transform="translate(46.902 142.698)">
              <path id="Trazado_650845" data-name="Trazado 650845" d="M382.525,1539.6l16.444,62.358h-3.1L375.532,1539.6Z" transform="translate(-323.931 -1539.598)" fill="#dd8374"/>
              <path id="Trazado_650846" data-name="Trazado 650846" d="M383.873,1539.6h2.557l13.887,62.358Z" transform="translate(-325.279 -1539.598)" fill="#f1d2a9"/>
              <path id="Trazado_650847" data-name="Trazado 650847" d="M330.43,1539.6l-16.444,62.358h3.1l20.341-62.358Z" transform="translate(-313.986 -1539.598)" fill="#dd8374"/>
              <path id="Trazado_650848" data-name="Trazado 650848" d="M330.43,1539.6h-2.557l-13.887,62.358Z" transform="translate(-313.986 -1539.598)" fill="#f1d2a9"/>
            </g>
          </g>
          <g id="Grupo_994763" data-name="Grupo 994763" transform="translate(54.646 110.619)">
            <g id="Grupo_994750" data-name="Grupo 994750" transform="translate(10.755)">
              <g id="Grupo_994747" data-name="Grupo 994747" transform="translate(24.169 30.858)">
                <path id="Trazado_650849" data-name="Trazado 650849" d="M115.559,1422.344c-.64-1.861,15.215-6.224,13.467,5.64l0,.014a10.831,10.831,0,0,0-1.2,2.427,12.442,12.442,0,0,0-.63,6.025c.716,4.916-14.6,4.388-12.835-3.279.3-1.31.551-2.422.759-3.395a31.194,31.194,0,0,0,.8-5.005A6.125,6.125,0,0,0,115.559,1422.344Z" transform="translate(-114.221 -1420.006)" fill="#d79081"/>
                <path id="Trazado_650850" data-name="Trazado 650850" d="M129.281,1427.984c1.747-11.864-14.107-7.5-13.467-5.64a6.125,6.125,0,0,1,.361,2.427,16.323,16.323,0,0,1-.208,1.927h0c8.061,3.754,13.311,1.3,13.312,1.3v0Z" transform="translate(-114.475 -1420.006)" fill="#af695d"/>
              </g>
              <path id="Trazado_650851" data-name="Trazado 650851" d="M99.582,1408.74c-1.457,1.256-1.053,4.185.807,6.97.111.166.228.33.349.494.206.281.422.559.658.833,2.693,3.124,6.248,4.473,7.94,3.015.054-.048.1-.1.148-.155a2.454,2.454,0,0,0,.542-.929c.6-1.775-.314-4.635-2.445-7.14-.021-.024-.039-.049-.06-.073-.223-.259-.454-.5-.687-.734C104.25,1408.431,101.133,1407.4,99.582,1408.74Z" transform="translate(-87.543 -1387.232)" fill="#de9595"/>
              <path id="Trazado_650852" data-name="Trazado 650852" d="M134.73,1401.689a29.862,29.862,0,0,0,.121,8.69c.808,3.831-2.859,10.37-6.375,12.54s-11.458-1.071-14.493-3.684-5.611-9.737-6.036-13.02,3.368-16.821,12.9-16.123S135.624,1393.421,134.73,1401.689Z" transform="translate(-89.032 -1384.31)" fill="#efcdca"/>
              <path id="Trazado_650853" data-name="Trazado 650853" d="M139.239,1403.605a2.641,2.641,0,0,1-.738-.311c-.314-.2-2.326.161-2.607,1.025s-.3,1.267.935,1.191a21.2,21.2,0,0,1,2.228-.044A1.4,1.4,0,0,0,139.239,1403.605Z" transform="translate(-93.528 -1386.438)" fill="#c4493a"/>
              <g id="Grupo_994748" data-name="Grupo 994748" transform="translate(26.493 16.427)">
                <path id="Trazado_650854" data-name="Trazado 650854" d="M126.3,1405.274s-5.181-1.329-7.032.123c-2.142,1.68-.474-.849-.367-.99,1.653-2.188,4.591-.925,6.114-1.593.342-.15,2.268.54,2.4,1.438S127.5,1405.552,126.3,1405.274Z" transform="translate(-117.183 -1402.793)" fill="#c4493a"/>
                <path id="Trazado_650855" data-name="Trazado 650855" d="M118.229,1420.451c1.579,1.966,4.06,3.135,5.543,2.611s1.405-2.54-.174-4.505-4.06-3.135-5.544-2.613S116.65,1418.485,118.229,1420.451Z" transform="translate(-116.992 -1404.898)" fill="#df7660"/>
                <path id="Trazado_650856" data-name="Trazado 650856" d="M133.112,1414.719l-.317-.034-1.5-.158-.1-.011a.254.254,0,0,0-.283.221l-.108,1.029a.254.254,0,0,0,.231.275l.1.01s.532.146.574.5c0,0-.032.176.574.24l.29.03,1.152.047a.643.643,0,0,0,.73-.465l.1.01h0a.254.254,0,0,0,.283-.22l-.048-1.063a.474.474,0,0,0-.442-.28Z" transform="translate(-119.223 -1404.688)" fill="#ea344f"/>
                <path id="Trazado_650857" data-name="Trazado 650857" d="M138.232,1410.727l-1.149-.142.3-2.422a.578.578,0,0,1,.645-.5h0a.578.578,0,0,1,.5.645Z" transform="translate(-120.238 -1403.579)" fill="#2c2636"/>
                <path id="Trazado_650858" data-name="Trazado 650858" d="M126.629,1410.105l-1.149-.142.3-2.421a.578.578,0,0,1,.645-.5h0a.58.58,0,0,1,.5.646Z" transform="translate(-118.363 -1403.479)" fill="#2c2636"/>
                <path id="Trazado_650859" data-name="Trazado 650859" d="M136.451,1420.092a2.925,2.925,0,0,0,.6,2.916,15.759,15.759,0,0,0,2.427-6.13C138.223,1416.882,136.871,1418.313,136.451,1420.092Z" transform="translate(-120.116 -1405.069)" fill="#df7660"/>
                <path id="Trazado_650860" data-name="Trazado 650860" d="M129.943,1420.533s2.3,2.522,4.325,0C134.268,1420.533,131.865,1425.137,129.943,1420.533Z" transform="translate(-119.084 -1405.66)" fill="#df7660"/>
              </g>
              <g id="Grupo_994749" data-name="Grupo 994749">
                <path id="Trazado_650861" data-name="Trazado 650861" d="M135.92,1424.607h0a13.379,13.379,0,0,1-3.763,3.893,3.831,3.831,0,0,1-.47.244,10.165,10.165,0,0,0-.987,1.884,12.837,12.837,0,0,1,6.472,1.843A64.785,64.785,0,0,1,135.92,1424.607Z" transform="translate(-92.714 -1389.891)" fill="#22364c"/>
                <path id="Trazado_650862" data-name="Trazado 650862" d="M96.983,1433.63c2.194-1.664,13.285-3.833,15.159-4.191l.006-.025a31.28,31.28,0,0,0,.8-5,11.466,11.466,0,0,1-.918-.7,12.7,12.7,0,0,1-2.467-3.191,2.455,2.455,0,0,1-.542.929c-.049.052-.094.107-.148.155-1.692,1.458-5.247.109-7.94-3.015-.236-.273-.452-.552-.658-.833a29.959,29.959,0,0,1-1.9,11.126c-.725,1.766-1.641,4.05-2.554,6.5A6.345,6.345,0,0,1,96.983,1433.63Z" transform="translate(-87.078 -1388.784)" fill="#22364c"/>
                <path id="Trazado_650863" data-name="Trazado 650863" d="M134.6,1400c-1.228-8.736-8.409-15.383-17.072-16.664s-17.951,6.727-19.232,13.454c0,0-.962-2.8-4.325-1.362S81.8,1407.041,87,1412.247c4.624,4.624,9.94,2.063,11.238-.569-1.86-2.784-2.265-5.714-.807-6.97,1.327-1.145,3.8-.552,6.108,1.264.029.077,3.089,8.079,4.336,8.963a65.594,65.594,0,0,1-2-7.179c.789.151,2.153,0,4.276-1.5,0,0,7.717.8,10.3-6.253,0,0,3.411-.221,4.8-5.8,0,0,2.908,7.944,5.706,7.583a1.587,1.587,0,0,0,.7-.269s2.722,6.966,1.441,10.263C133.1,1411.778,135.825,1408.737,134.6,1400Z" transform="translate(-85.393 -1383.2)" fill="#22364c"/>
                <path id="Trazado_650864" data-name="Trazado 650864" d="M108.6,1420.2c-.817,0-3.51-1.829-5.644-3.846-1.237-1.17-3.3-3.371-3.2-4.988a1.9,1.9,0,0,1,.829-1.584c1.331-.849,3.752.074,3.854.114a.16.16,0,0,1-.116.3c-.023-.009-2.374-.906-3.567-.143a1.6,1.6,0,0,0-.682,1.334c-.068,1.1,1.033,2.782,3.1,4.734,2.363,2.233,4.921,3.808,5.44,3.758.14-.283-1.135-1.835-1.821-2.669-1.162-1.415-1.418-1.766-1.26-1.98.11-.15.323-.065.393-.036l.9.235a.16.16,0,0,1-.081.309l-.859-.225a18.694,18.694,0,0,0,1.159,1.494c1.295,1.574,2.068,2.561,1.895,2.991a.324.324,0,0,1-.283.2A.362.362,0,0,1,108.6,1420.2Z" transform="translate(-87.713 -1387.438)" fill="#c4493a"/>
              </g>
            </g>
            <g id="Grupo_994751" data-name="Grupo 994751" transform="translate(0 49.069)">
              <path id="Trazado_650865" data-name="Trazado 650865" d="M202,1539.6l16.444,62.358h-3.1L195,1539.6Z" transform="translate(-92.35 -1457.542)" fill="#dd8374"/>
              <path id="Trazado_650866" data-name="Trazado 650866" d="M134.507,1539.6l-16.444,62.358h3.1L141.5,1539.6Z" transform="translate(-79.917 -1457.542)" fill="#dd8374"/>
              <path id="Trazado_650867" data-name="Trazado 650867" d="M91.468,1523.783h91.082v-7.367h-51.36l-21.376-74.689H74.864l-.719.876a6.944,6.944,0,0,0-1.373,6.087Z" transform="translate(-72.566 -1441.727)" fill="#bfe0ef"/>
              <path id="Trazado_650868" data-name="Trazado 650868" d="M75.307,1441.727l22,72.553s1.014,3.524,14.681,3.524H136.56v5.98h46.432v-7.367h-51.36l-22.8-74.689Z" transform="translate(-73.009 -1441.727)" fill="#78bad1"/>
            </g>
            <g id="Grupo_994752" data-name="Grupo 994752" transform="translate(65.916 166.682)">
              <path id="Trazado_650869" data-name="Trazado 650869" d="M162.741,1593.553l.958-11.545,9.824.961-.811,13.56S166,1604.51,162.741,1593.553Z" transform="translate(-153.053 -1582.008)" fill="#d89a93"/>
              <path id="Trazado_650870" data-name="Trazado 650870" d="M183.368,1610.736H164.424s-3.107-4.176-5.112,0H152.6s-2.807.468-.5-4.443,8.387-13.623,8.989-13.523,2.167,8.124,6.648,6.908c3.417-.928,3.233-3.412,3.233-3.412s2.681,6.519,7.192,7.923S183.368,1607.562,183.368,1610.736Z" transform="translate(-151.186 -1583.747)" fill="#b22849"/>
            </g>
            <g id="Grupo_994753" data-name="Grupo 994753" transform="translate(55.025 166.682)">
              <path id="Trazado_650871" data-name="Trazado 650871" d="M149.751,1593.553l.958-11.545,9.824.961-.812,13.56S153.01,1604.51,149.751,1593.553Z" transform="translate(-140.063 -1582.008)" fill="#ecc1ba"/>
              <path id="Trazado_650872" data-name="Trazado 650872" d="M170.377,1610.736H151.434s-3.107-4.176-5.112,0h-6.717s-2.806.468-.5-4.443,8.387-13.623,8.988-13.523,2.167,8.124,6.649,6.908c3.417-.928,3.233-3.412,3.233-3.412s2.681,6.519,7.191,7.923S170.377,1607.562,170.377,1610.736Z" transform="translate(-138.195 -1583.747)" fill="#d04964"/>
            </g>
            <g id="Grupo_994755" data-name="Grupo 994755" transform="translate(27.924 104.572)">
              <path id="Trazado_650873" data-name="Trazado 650873" d="M106.033,1508.851s-2.349,19.65,10.891,19.65h29.257l-4.057,47.2s5.125,6.193,13.24,0a9.661,9.661,0,0,0,10.037.214s18.793-43.992,20.074-49.972,2.562-9.166-12.6-14.736S106.033,1508.851,106.033,1508.851Z" transform="translate(-105.872 -1507.927)" fill="#30537b"/>
              <g id="Grupo_994754" data-name="Grupo 994754" transform="translate(0.422 0.842)">
                <path id="Trazado_650874" data-name="Trazado 650874" d="M172.375,1509.28q-1.586-.193-3.285-.349c7.79,3.274,7.915,7.589,7.718,10.523-.24,3.6-11.905,56.4-11.905,56.4l.987.565.027.013c.021-.092,11.214-50.181,12.334-56.662C179.115,1514.77,176.261,1511.53,172.375,1509.28Z" transform="translate(-115.832 -1508.931)" fill="#1b3651"/>
                <path id="Trazado_650875" data-name="Trazado 650875" d="M190.122,1522.584a.32.32,0,0,1-.114-.62c.267-.1,6.551-2.437,9.808.045a.32.32,0,1,1-.388.509c-2.974-2.265-9.13.022-9.192.045A.335.335,0,0,1,190.122,1522.584Z" transform="translate(-119.856 -1510.861)" fill="#1b3651"/>
                <path id="Trazado_650876" data-name="Trazado 650876" d="M109.4,1520.888a9.858,9.858,0,0,1-2.8-.413.32.32,0,0,1,.2-.609c.034.012,3.445,1.092,5.791-.472,1.305-.869,2.057-2.407,2.233-4.571a.321.321,0,0,1,.639.053c-.194,2.37-1.041,4.07-2.519,5.054A6.35,6.35,0,0,1,109.4,1520.888Z" transform="translate(-106.375 -1509.836)" fill="#1b3651"/>
                <path id="Trazado_650877" data-name="Trazado 650877" d="M155.816,1588.905c-4.206,0-5.221-2-5.273-2.109a.32.32,0,0,1,.577-.278c.022.042,1.607,2.978,9.193,1.134a.321.321,0,0,1,.152.623A19.869,19.869,0,0,1,155.816,1588.905Z" transform="translate(-113.507 -1521.439)" fill="#1b3651"/>
                <path id="Trazado_650878" data-name="Trazado 650878" d="M171.94,1587.031c-2.9,0-4.093-.851-4.153-.9a.32.32,0,0,1,.38-.516c.02.014,1.745,1.205,6.161.6a.317.317,0,0,1,.361.273.32.32,0,0,1-.273.361A18.148,18.148,0,0,1,171.94,1587.031Z" transform="translate(-116.277 -1521.313)" fill="#1b3651"/>
              </g>
            </g>
            <path id="Trazado_650879" data-name="Trazado 650879" d="M196.154,1442.97s-1.923-2.5.49-7.569,2.15-2.509,1.974-.806.26,3.861,2.515,1.726,8.787-8.1,7.055-5.156a17.578,17.578,0,0,1-3.982,4.65s8.352-6.756,6.691-3.9a20.315,20.315,0,0,1-5.351,5.332s5.316-3.293,4.524-1.618a15.511,15.511,0,0,1-3.207,3.745s4.547-2.312,2.979-.23S199.953,1448.363,196.154,1442.97Z" transform="translate(-92.419 -1390.822)" fill="#ecc1ba"/>
            <g id="Grupo_994759" data-name="Grupo 994759" transform="translate(5.785 40.602)">
              <path id="Trazado_650880" data-name="Trazado 650880" d="M176.3,1440.583l-20.821,17.128s-12.813-8.169-15.376-12.653c-1.818-3.182-6.142-8.618-11.206-11.453a12.837,12.837,0,0,0-6.472-1.843h0a5.192,5.192,0,0,1-.356.984c-.6,1.283-2.11,3.272-5.5,2.461-6.58-1.574-6.792-3.579-6.792-3.579l-.276.052c-1.875.358-12.965,2.527-15.159,4.191a6.349,6.349,0,0,0-1.161,1.754c-3.811,7.233-13.232,33.629-13.516,37.224-.32,4.057-1.655,6.514,11.158,6.514h8.969l-1.815,16.39s22.583,8.329,44.206,0c0,0-4.058-16.444-5.179-21.729a76.3,76.3,0,0,1-1.388-10.464s16.818,12.653,21.943,11.211,26.107-31.072,26.107-31.072ZM97.975,1469.8l3.363-6.167a66.125,66.125,0,0,0,.481,7.128Z" transform="translate(-79.465 -1431.628)" fill="#ee4e5d"/>
              <g id="Grupo_994756" data-name="Grupo 994756" transform="translate(21.873 10.44)">
                <path id="Trazado_650881" data-name="Trazado 650881" d="M127.761,1476.837l-21.726-3.977-.48-7.127,7.266-21.142-5.287,22,1.117,4.485Z" transform="translate(-105.554 -1444.162)" fill="#7c3243"/>
                <path id="Trazado_650882" data-name="Trazado 650882" d="M145.425,1467.572s1.175-7.9,0-11.639a121.177,121.177,0,0,0-5.248-11.853s6.038,9.29,6.657,13.027.833,9.876.833,9.876l6.242,6.382Z" transform="translate(-111.149 -1444.08)" fill="#7c3243"/>
              </g>
              <g id="Grupo_994757" data-name="Grupo 994757" transform="translate(6.497 3.268)">
                <path id="Trazado_650883" data-name="Trazado 650883" d="M99.227,1477.046a.321.321,0,0,1-.2-.068,11.669,11.669,0,0,0-11.37-.785.32.32,0,0,1-.252-.589,12.308,12.308,0,0,1,12.015.87.32.32,0,0,1-.2.572Z" transform="translate(-87.215 -1441.819)" fill="#7c3243"/>
                <path id="Trazado_650884" data-name="Trazado 650884" d="M167.057,1476.64a.322.322,0,0,1-.305-.222,15.186,15.186,0,0,1,2.467-13.953.321.321,0,0,1,.482.422,14.529,14.529,0,0,0-2.338,13.333.32.32,0,0,1-.207.4A.309.309,0,0,1,167.057,1476.64Z" transform="translate(-99.947 -1439.861)" fill="#7c3243"/>
                <path id="Trazado_650885" data-name="Trazado 650885" d="M129.881,1490.054a.32.32,0,0,1-.32-.32v-5.981a.32.32,0,0,1,.641,0v5.981A.32.32,0,0,1,129.881,1490.054Z" transform="translate(-94.058 -1443.267)" fill="#7c3243"/>
                <path id="Trazado_650886" data-name="Trazado 650886" d="M199.447,1448.585a.317.317,0,0,1-.2-.068l-4.8-3.737a.32.32,0,0,1,.393-.506l4.8,3.737a.321.321,0,0,1-.2.573Z" transform="translate(-104.523 -1436.929)" fill="#7c3243"/>
                <path id="Trazado_650887" data-name="Trazado 650887" d="M129.411,1446.1a.32.32,0,0,1-.316-.269,52.582,52.582,0,0,0-2.423-9.865.321.321,0,0,1,.6-.236,53.3,53.3,0,0,1,2.46,10,.321.321,0,0,1-.266.367A.334.334,0,0,1,129.411,1446.1Z" transform="translate(-93.587 -1435.526)" fill="#7c3243"/>
              </g>
              <g id="Grupo_994758" data-name="Grupo 994758" transform="translate(30.04 0.027)">
                <path id="Trazado_650888" data-name="Trazado 650888" d="M115.3,1431.66s6.729,3.359,8.651,3.737l-2.081,4.861Z" transform="translate(-115.295 -1431.66)" fill="#c0e2f0"/>
                <path id="Trazado_650889" data-name="Trazado 650889" d="M127.031,1435.241s3.069,5.358,3.076,5.037,0-8.491,0-8.491Z" transform="translate(-117.191 -1431.681)" fill="#c0e2f0"/>
              </g>
            </g>
            <path id="Trazado_650890" data-name="Trazado 650890" d="M132.041,1483.052v6.62h13.478S144.465,1483.052,132.041,1483.052Z" transform="translate(-82.176 -1399.335)" fill="#ecc1ba"/>
            <g id="Grupo_994762" data-name="Grupo 994762" transform="translate(2.459 131.126)">
              <g id="Grupo_994760" data-name="Grupo 994760">
                <path id="Trazado_650891" data-name="Trazado 650891" d="M91.942,1539.6,75.5,1601.956h3.1L98.936,1539.6Z" transform="translate(-75.498 -1539.598)" fill="#f1d2a9"/>
                <path id="Trazado_650892" data-name="Trazado 650892" d="M79.191,1601.956,102.3,1539.6h-2.77Z" transform="translate(-76.095 -1539.598)" fill="#dd8374"/>
              </g>
              <g id="Grupo_994761" data-name="Grupo 994761" transform="translate(53.906)">
                <path id="Trazado_650893" data-name="Trazado 650893" d="M146.788,1539.6l16.444,62.358h-3.1L139.794,1539.6Z" transform="translate(-139.794 -1539.598)" fill="#f1d2a9"/>
                <path id="Trazado_650894" data-name="Trazado 650894" d="M148.136,1539.6h2.557l13.887,62.358Z" transform="translate(-141.142 -1539.598)" fill="#dd8374"/>
              </g>
            </g>
          </g>
          <g id="Grupo_994765" data-name="Grupo 994765" transform="translate(40.867 200.956)">
            <path id="Trazado_650895" data-name="Trazado 650895" d="M447.467,1511.588v-6.407l-380.876.038v6.407l20.215,0L74.059,1596.4h1.495l14.421-84.772,59.061-.006,3.612,84.778h3.121v-84.778l232.631-.023-12.752,84.8h1.495l14.426-84.8,44.681,0,3.613,84.806h3.121v-84.807Z" transform="translate(-57.821 -1493.248)" fill="#f1d2a9"/>
            <rect id="Rectángulo_302353" data-name="Rectángulo 302353" width="396.174" height="11.959" fill="#80d1ed"/>
            <rect id="Rectángulo_302354" data-name="Rectángulo 302354" width="96.534" height="11.959" fill="#55acc4"/>
            <g id="Grupo_994764" data-name="Grupo 994764" transform="translate(8.77 11.934)">
              <path id="Trazado_650896" data-name="Trazado 650896" d="M151.793,1511.625v-3.218l295.674-3.226-293.111.008-87.765.03v6.407h8.517L71.5,1596.4h2.563l12.813-84.77h50.4l12.813,84.77h2.563l-3.612-84.77Z" transform="translate(-66.591 -1505.181)" fill="#ce7063"/>
              <path id="Trazado_650897" data-name="Trazado 650897" d="M493.464,1512.783l12.813,84.77h2.563l-3.63-85.209Z" transform="translate(-135.569 -1506.339)" fill="#ce7063"/>
              <path id="Trazado_650898" data-name="Trazado 650898" d="M432.155,1597.552h2.563l12.813-84.77-11.746-.439Z" transform="translate(-125.662 -1506.339)" fill="#ce7063"/>
            </g>
          </g>
          <g id="Grupo_994773" data-name="Grupo 994773" transform="translate(51.559 144.093)">
            <g id="Grupo_994767" data-name="Grupo 994767" transform="translate(304.15)">
              <rect id="Rectángulo_302355" data-name="Rectángulo 302355" width="82.311" height="48.163" rx="24.082" fill="#5aa0da"/>
              <path id="Trazado_650899" data-name="Trazado 650899" d="M482.456,1478.105v-32.847h-9.584v32.847h-5.711a5.46,5.46,0,0,0-5.46,5.46h31.926a5.46,5.46,0,0,0-5.46-5.46Z" transform="translate(-436.508 -1426.702)" fill="#2686c6"/>
              <g id="Grupo_994766" data-name="Grupo 994766" transform="translate(32.474 18.556)">
                <path id="Trazado_650900" data-name="Trazado 650900" d="M486.456,1445.258l3.867,29.607h-3.867Z" transform="translate(-472.983 -1445.258)" fill="#126593"/>
                <path id="Trazado_650901" data-name="Trazado 650901" d="M474.253,1445.258l-3.867,29.607h3.867Z" transform="translate(-470.386 -1445.258)" fill="#126593"/>
              </g>
            </g>
            <g id="Grupo_994768" data-name="Grupo 994768" transform="translate(54.45 24.082)">
              <rect id="Rectángulo_302356" data-name="Rectángulo 302356" width="43.779" height="3.63" transform="translate(0 29.15)" fill="#45637c"/>
              <path id="Trazado_650902" data-name="Trazado 650902" d="M180.441,1484.63l24.986-32.781H257.8l-27.068,32.781Z" transform="translate(-141.36 -1451.849)" fill="#6387aa"/>
              <path id="Trazado_650903" data-name="Trazado 650903" d="M205.427,1451.849h2.4l-25.066,32.781h-2.322Z" transform="translate(-141.36 -1451.849)" fill="#21334b"/>
            </g>
            <path id="Trazado_650904" data-name="Trazado 650904" d="M74.269,1474.574v1.55c-3.068.2-5.386,1.782-5.386,3.769,0,2,2.361,3.6,5.47,3.772a6.083,6.083,0,0,0,12.089-.963v-8.129Zm-4.1,5.32c0-1.244,1.822-2.308,4.1-2.482v4.965C71.789,1482.2,70.165,1481.01,70.165,1479.894Z" transform="translate(-68.883 -1431.439)" fill="#e2b97d"/>
            <g id="Grupo_994769" data-name="Grupo 994769" transform="translate(126.984 20.534)">
              <rect id="Rectángulo_302357" data-name="Rectángulo 302357" width="27.762" height="2.563" transform="translate(67.025 33.766)" fill="#a37446"/>
              <path id="Trazado_650905" data-name="Trazado 650905" d="M275.082,1447.618l14.526,36.328H233.977l-13.25-30.012a4.467,4.467,0,0,1,4.081-6.271Z" transform="translate(-220.341 -1447.618)" fill="#f1d2a9"/>
              <path id="Trazado_650906" data-name="Trazado 650906" d="M285.139,1447.618h-2.558l14.842,36.328h2.242Z" transform="translate(-230.399 -1447.618)" fill="#b59671"/>
            </g>
            <g id="Grupo_994772" data-name="Grupo 994772" transform="translate(141.368 43.672)">
              <g id="Grupo_994770" data-name="Grupo 994770" transform="translate(0 6.57)">
                <path id="Rectángulo_302358" data-name="Rectángulo 302358" d="M3.31,0H37.8a0,0,0,0,1,0,0V6.62a0,0,0,0,1,0,0H3.31A3.31,3.31,0,0,1,0,3.31v0A3.31,3.31,0,0,1,3.31,0Z" fill="#a37446"/>
                <rect id="Rectángulo_302359" data-name="Rectángulo 302359" width="35.664" height="3.844" transform="translate(2.136 1.495)" fill="#fff"/>
              </g>
              <g id="Grupo_994771" data-name="Grupo 994771" transform="translate(12.998)">
                <path id="Rectángulo_302360" data-name="Rectángulo 302360" d="M3.31,0h29.2a0,0,0,0,1,0,0V6.62a0,0,0,0,1,0,0H3.31A3.31,3.31,0,0,1,0,3.31v0A3.31,3.31,0,0,1,3.31,0Z" fill="#a0524a"/>
                <rect id="Rectángulo_302361" data-name="Rectángulo 302361" width="30.674" height="3.844" transform="translate(1.837 1.495)" fill="#fff"/>
              </g>
            </g>
          </g>
          <g id="Grupo_994791" data-name="Grupo 994791" transform="translate(319.309 69.495)">
            <g id="Grupo_994776" data-name="Grupo 994776" transform="translate(2.358 199.265)">
              <g id="Grupo_994774" data-name="Grupo 994774" transform="translate(0 0.375)">
                <path id="Trazado_650907" data-name="Trazado 650907" d="M420.944,1597.484l2.436-25.217H412.754l-1.383,25S417.123,1605.1,420.944,1597.484Z" transform="translate(-394.335 -1572.267)" fill="#ecc1ba"/>
                <path id="Trazado_650908" data-name="Trazado 650908" d="M391.051,1611.647h30.926l-.64-6.073a4.16,4.16,0,0,0-2.162-3.226l-1.326-.714s-7.111,4.277-9.574.221C408.274,1601.855,391.051,1600.928,391.051,1611.647Z" transform="translate(-391.051 -1577.012)" fill="#a0524a"/>
              </g>
              <g id="Grupo_994775" data-name="Grupo 994775" transform="translate(32.207)">
                <path id="Trazado_650909" data-name="Trazado 650909" d="M449.539,1597.037,447.1,1571.82h11.691l.319,25S453.361,1604.648,449.539,1597.037Z" transform="translate(-432.315 -1571.82)" fill="#ecc1ba"/>
                <path id="Trazado_650910" data-name="Trazado 650910" d="M429.465,1611.647h30.926l-.64-6.073a4.16,4.16,0,0,0-2.162-3.226l-1.326-.714s-7.111,4.277-9.574.221C446.688,1601.855,429.465,1600.928,429.465,1611.647Z" transform="translate(-429.465 -1576.638)" fill="#a0524a"/>
              </g>
            </g>
            <g id="Grupo_994783" data-name="Grupo 994783" transform="translate(19.237)">
              <g id="Grupo_994777" data-name="Grupo 994777" transform="translate(28.052 21.046)">
                <path id="Trazado_650911" data-name="Trazado 650911" d="M453.283,1368.07c2.127-3.534,2.3-7.333.387-8.484s-5.19.779-7.317,4.313c-.016.027-.029.055-.046.082-2.013,3.4-2.22,7.007-.512,8.274.058.043.112.091.173.127C447.881,1373.534,451.156,1371.6,453.283,1368.07Z" transform="translate(-444.642 -1359.253)" fill="#df7660"/>
                <path id="Trazado_650912" data-name="Trazado 650912" d="M448.031,1371.253a.286.286,0,0,1-.255-.131c-.215-.333.261-1.256,1.067-2.735.254-.464.556-1.016.679-1.315l-.594.284a.16.16,0,1,1-.138-.289l.7-.335c.039-.027.212-.138.34-.018.175.163.034.469-.708,1.827a8.513,8.513,0,0,0-1.078,2.41c.408-.048,2.224-1.716,3.784-3.875,1.363-1.886,1.991-3.4,1.77-4.274a1.264,1.264,0,0,0-.738-.952c-1.071-.431-2.813.649-2.83.66a.16.16,0,0,1-.17-.272c.078-.048,1.9-1.175,3.12-.686a1.584,1.584,0,0,1,.929,1.17c.315,1.235-.817,3.151-1.82,4.541-1.45,2.006-3.409,3.945-4.029,3.988Z" transform="translate(-445.14 -1359.604)" fill="#c4493a"/>
              </g>
              <g id="Grupo_994778" data-name="Grupo 994778" transform="translate(12.289 34.386)">
                <path id="Trazado_650913" data-name="Trazado 650913" d="M439.328,1377.314c.585-1.879-15.388-5.782-13.3,6.027l0,.014a10.835,10.835,0,0,1,1.267,2.391,12.457,12.457,0,0,1,.8,6c-.573,4.935,14.723,3.963,12.735-3.65-.34-1.3-.62-2.4-.856-3.37a31.169,31.169,0,0,1-.943-4.98A6.122,6.122,0,0,1,439.328,1377.314Z" transform="translate(-425.84 -1375.163)" fill="#d79081"/>
                <path id="Trazado_650914" data-name="Trazado 650914" d="M439.206,1381.133h0c-.088-.533-.143-.986-.169-1.383a6.122,6.122,0,0,1,.29-2.436c.585-1.879-15.388-5.782-13.3,6.027C426.029,1383.342,431.081,1386.078,439.206,1381.133Z" transform="translate(-425.84 -1375.163)" fill="#af695d"/>
              </g>
              <path id="Trazado_650915" data-name="Trazado 650915" d="M417.279,1357.247a29.861,29.861,0,0,1,.132,8.69c-.7,3.852,3.158,10.282,6.736,12.35s11.422-1.4,14.38-4.1,5.327-9.895,5.656-13.189-3.853-16.715-13.363-15.743S416.147,1349.008,417.279,1357.247Z" transform="translate(-412.143 -1335.936)" fill="#efcdca"/>
              <g id="Grupo_994782" data-name="Grupo 994782" transform="translate(5.293 20.145)">
                <g id="Grupo_994779" data-name="Grupo 994779" transform="translate(0.003)">
                  <path id="Trazado_650916" data-name="Trazado 650916" d="M417.618,1361.8s.161-1.123,1.937-1.216c2.033-.106,2.146,1.573,2.483,1.387s-.06-2.282-2.1-2.667A1.9,1.9,0,0,0,417.618,1361.8Z" transform="translate(-417.5 -1358.351)" fill="#c4493a"/>
                  <path id="Trazado_650917" data-name="Trazado 650917" d="M429.292,1360.822s5.648-2.187,7.518-.209.719-.364-.235-1.359c-1.9-1.98-6.219.056-6.239-1-.006-.373-2.206.754-2.254,1.66S428.118,1361.213,429.292,1360.822Z" transform="translate(-419.208 -1358.177)" fill="#c4493a"/>
                </g>
                <path id="Trazado_650918" data-name="Trazado 650918" d="M423.718,1370.163l.318-.012,1.509-.059.1,0a.254.254,0,0,1,.268.239l.04,1.034a.253.253,0,0,1-.248.259l-.1,0s-.539.111-.605.459c0,0,.02.178-.589.2l-.291.011-1.154-.028a.643.643,0,0,1-.7-.513l-.1,0h0a.253.253,0,0,1-.267-.239l.117-1.057a.476.476,0,0,1,.46-.251Z" transform="translate(-418.208 -1360.102)" fill="#ea344f"/>
                <g id="Grupo_994780" data-name="Grupo 994780" transform="translate(0 11.466)">
                  <path id="Trazado_650919" data-name="Trazado 650919" d="M438.65,1377.766c-1.806,1.834-4.19,2.415-5.324,1.3s-.591-3.51,1.215-5.344,4.189-2.416,5.324-1.3S440.456,1375.931,438.65,1377.766Z" transform="translate(-419.958 -1371.853)" fill="#df7660"/>
                  <path id="Trazado_650920" data-name="Trazado 650920" d="M420.616,1375.642c-.471-1.766-1.864-3.156-3.12-3.125a15.76,15.76,0,0,0,2.6,6.057A2.925,2.925,0,0,0,420.616,1375.642Z" transform="translate(-417.496 -1371.96)" fill="#df7660"/>
                </g>
                <g id="Grupo_994781" data-name="Grupo 994781" transform="translate(0.956 4.568)">
                  <path id="Trazado_650921" data-name="Trazado 650921" d="M433.555,1366.7l-1.149-.142.3-2.421a.579.579,0,0,1,.646-.5h0a.579.579,0,0,1,.5.645Z" transform="translate(-420.862 -1363.626)" fill="#2c2636"/>
                  <path id="Trazado_650922" data-name="Trazado 650922" d="M418.94,1367.528l1.149-.142-.3-2.422a.578.578,0,0,0-.645-.5h0a.578.578,0,0,0-.5.645Z" transform="translate(-418.637 -1363.76)" fill="#2c2636"/>
                </g>
                <path id="Trazado_650923" data-name="Trazado 650923" d="M422.19,1375.721s1.682,2.442,5.445,0C427.635,1375.721,424.272,1381.087,422.19,1375.721Z" transform="translate(-418.254 -1361.012)" fill="#c04336"/>
              </g>
              <path id="Trazado_650924" data-name="Trazado 650924" d="M441.977,1338.812c-2.576.149-8.221-.729-11.663-1.325a10.542,10.542,0,0,1-4.335-1.794c-4.82-3.443-9.718-.349-11.814,1.757-4.143,4.163-3.577,11.558-.693,16.844a3.413,3.413,0,0,0,2.194,1.776c.265,1.887,1.027,6.125,1.027,6.125V1356.2l0-.005c3.729.048,8.655-3.986,8.655-3.986,6,4.965,6.28.748,6.28.748,3.1,3.951,9.984,4.221,9.984,4.221,1.281,4.221-.943,10.522-.943,10.522,2.954-2.768,3.1-11.141,3.1-11.141,3.225-1.843,4.947-.666,4.947-.666C456.778,1349.119,447.71,1338.479,441.977,1338.812Z" transform="translate(-411.183 -1334.15)" fill="#a36172"/>
            </g>
            <g id="Grupo_994785" data-name="Grupo 994785" transform="translate(16.24 111.413)">
              <path id="Trazado_650925" data-name="Trazado 650925" d="M453.709,1467.036l-39,1.362-7.09,96.955a3.532,3.532,0,0,0,3.523,3.79h11.48a3.533,3.533,0,0,0,3.525-3.292l5.54-80.928,7.086,80.995a3.532,3.532,0,0,0,3.519,3.225h10.126a3.533,3.533,0,0,0,3.532-3.614Z" transform="translate(-407.608 -1467.036)" fill="#31547b"/>
              <g id="Grupo_994784" data-name="Grupo 994784" transform="translate(1.26 1.852)">
                <path id="Trazado_650926" data-name="Trazado 650926" d="M436.326,1487.922l7.086,80.995a3.514,3.514,0,0,0,1.091,2.251l-6.575-85.569Z" transform="translate(-413.509 -1471.888)" fill="#1b3651"/>
                <path id="Trazado_650927" data-name="Trazado 650927" d="M417.011,1586.97c-5.811,0-7.737-2.047-7.816-2.135a.32.32,0,0,1,.473-.432c.029.032,1.871,1.926,7.343,1.926,5.511,0,7.645-1.923,7.665-1.943a.321.321,0,0,1,.439.467C425.022,1584.94,422.807,1586.97,417.011,1586.97Z" transform="translate(-409.112 -1487.837)" fill="#1b3651"/>
                <path id="Trazado_650928" data-name="Trazado 650928" d="M453.324,1586.97c-5.81,0-7.736-2.047-7.815-2.135a.32.32,0,0,1,.473-.432c.03.032,1.871,1.926,7.342,1.926,5.512,0,7.645-1.923,7.666-1.943a.321.321,0,0,1,.439.467C461.337,1584.94,459.121,1586.97,453.324,1586.97Z" transform="translate(-414.98 -1487.837)" fill="#1b3651"/>
                <path id="Trazado_650929" data-name="Trazado 650929" d="M432.558,1475.182c-10.348,0-16.253-3.965-16.344-4.029a.32.32,0,0,1,.365-.526c.142.1,14.343,9.6,37.48-1.351a.32.32,0,0,1,.274.579A50.753,50.753,0,0,1,432.558,1475.182Z" transform="translate(-410.237 -1469.246)" fill="#1b3651"/>
                <path id="Trazado_650930" data-name="Trazado 650930" d="M461.477,1480.552a5.17,5.17,0,0,1-4.08-1.686c-2.2-2.5-1.665-6.851-1.642-7.035a.317.317,0,0,1,.36-.276.321.321,0,0,1,.277.359c-.006.042-.521,4.248,1.487,6.53a4.56,4.56,0,0,0,3.6,1.467.32.32,0,1,1,0,.641Z" transform="translate(-416.637 -1469.618)" fill="#1b3651"/>
                <path id="Trazado_650931" data-name="Trazado 650931" d="M436.087,1486.616a.323.323,0,0,1-.305-.223,27.763,27.763,0,0,1-.762-10.515.322.322,0,0,1,.311-.287l2.351-.057a.335.335,0,0,1,.231.091.324.324,0,0,1,.1.23v8.117a.32.32,0,0,1-.641,0v-7.79l-1.741.042a27.52,27.52,0,0,0,.765,9.973.321.321,0,0,1-.208.4A.33.33,0,0,1,436.087,1486.616Z" transform="translate(-413.27 -1470.262)" fill="#1b3651"/>
              </g>
            </g>
            <g id="Grupo_994788" data-name="Grupo 994788" transform="translate(1.528 42.077)">
              <path id="Trazado_650932" data-name="Trazado 650932" d="M462.485,1432.382c-3.133-12.689-7.033-37.314-12.6-39.888v-.013l-.283-.1c-.031-.01-.061-.03-.093-.038l-.037-.009-15.131-5.449c.22.865-2.771,4.978-7.018,5.211a5.077,5.077,0,0,1-5.359-3.075l-7.521,3.432c-2.524,1.082-4.873,5.591-6.053,11.374-1.637,8.023.7,29.412.7,29.412l-14.244-9.87-4.1,2.924a1.627,1.627,0,0,0-.4,2.246c2.955,4.314,12.416,17.77,16.063,18.781,2.135.592,4.056.519,5.613-1.254l-.149,9.383c15.3,8.409,39-1.362,39-1.362l-.351-7.47h0a14.991,14.991,0,0,0,4.6,1.144C461.525,1447.757,465.689,1445.355,462.485,1432.382Z" transform="translate(-390.061 -1384.747)" fill="#179587"/>
              <g id="Grupo_994786" data-name="Grupo 994786" transform="translate(3.406 7.008)">
                <path id="Trazado_650933" data-name="Trazado 650933" d="M408.494,1419.993c.184,8.814,1.25,18.594,1.25,18.594l-14.244-9.87-1.378.983c1.035,2.079,2.938,5.888,4.2,8.335,1.815,3.505,13.027,2.368,13.027,2.368l1.324,11.012.491-11.226a36.737,36.737,0,0,0,5.339.107c3.843-.107,3.416-4.058,3.416-4.058l28,16.764,1.6,6.433-.351-7.47h0l-29.253-18.63Z" transform="translate(-394.123 -1397.106)" fill="#89271a"/>
                <path id="Trazado_650934" data-name="Trazado 650934" d="M428.719,1415.9h-.013a.322.322,0,0,1-.308-.333c.4-9.5,3.743-22.5,3.776-22.633a.32.32,0,0,1,.62.161c-.034.129-3.361,13.073-3.755,22.5A.321.321,0,0,1,428.719,1415.9Z" transform="translate(-399.661 -1392.695)" fill="#89271a"/>
                <path id="Trazado_650935" data-name="Trazado 650935" d="M429.194,1423.83l25.94,10.778-3.864-29.944,1.922,27.469Z" transform="translate(-399.79 -1394.629)" fill="#89271a"/>
                <path id="Trazado_650936" data-name="Trazado 650936" d="M468.172,1447.877a.319.319,0,0,1-.269-.147,23.857,23.857,0,0,0-9.742-8.446.32.32,0,1,1,.242-.593,24.566,24.566,0,0,1,10.038,8.692.32.32,0,0,1-.269.494Z" transform="translate(-404.439 -1400.123)" fill="#89271a"/>
                <path id="Trazado_650937" data-name="Trazado 650937" d="M445.783,1427.728a8.05,8.05,0,0,1-5.432-2.205.318.318,0,0,1-.108-.24v-9.159a.32.32,0,0,1,.443-.3c.061.025,6.16,2.5,10.613.016a.32.32,0,0,1,.476.279v9.159a.318.318,0,0,1-.108.24A9.9,9.9,0,0,1,445.783,1427.728Zm-4.9-2.591c4.779,4.1,9.464.638,10.25,0v-8.483c-3.977,1.9-8.777.463-10.25-.062Z" transform="translate(-401.576 -1396.429)" fill="#89271a"/>
                <path id="Trazado_650938" data-name="Trazado 650938" d="M433.81,1469.192c-10.114,0-16.549-2.693-16.647-2.736a.32.32,0,0,1,.252-.589c.153.065,15.517,6.481,36.179-.755a.32.32,0,1,1,.211.6A60.321,60.321,0,0,1,433.81,1469.192Z" transform="translate(-397.815 -1404.394)" fill="#89271a"/>
                <path id="Trazado_650939" data-name="Trazado 650939" d="M412.369,1450.271h-.008a.321.321,0,0,1-.314-.328c.076-3.137-2.478-6.819-2.5-6.856a.321.321,0,0,1,.525-.368c.11.158,2.7,3.889,2.621,7.239A.321.321,0,0,1,412.369,1450.271Z" transform="translate(-396.605 -1400.756)" fill="#89271a"/>
              </g>
              <g id="Grupo_994787" data-name="Grupo 994787" transform="translate(29.998)">
                <path id="Trazado_650940" data-name="Trazado 650940" d="M433.272,1391.666s1.818,5.6,1.842,7.471c0,0,13-10.2,13.265-10.838l-7.635-3.962A12.08,12.08,0,0,1,433.272,1391.666Z" transform="translate(-427.041 -1384.336)" fill="#5ba1db"/>
                <path id="Trazado_650941" data-name="Trazado 650941" d="M432.071,1392.131l-4.326,7.1-1.9-10.144,1.258-1.866S429.884,1391.067,432.071,1392.131Z" transform="translate(-425.84 -1384.802)" fill="#5ba1db"/>
              </g>
            </g>
            <g id="Grupo_994789" data-name="Grupo 994789" transform="translate(0 60.454)">
              <path id="Trazado_650942" data-name="Trazado 650942" d="M390.193,1406.255h18.124a1.954,1.954,0,0,1,1.868,1.383l7.992,26.205a1.954,1.954,0,0,1-1.869,2.523H399.3a1.954,1.954,0,0,1-1.845-1.312l-9.107-26.205A1.953,1.953,0,0,1,390.193,1406.255Z" transform="translate(-388.238 -1406.255)" fill="#22374c"/>
              <path id="Trazado_650943" data-name="Trazado 650943" d="M418.286,1433.844l-7.992-26.205a1.954,1.954,0,0,0-1.868-1.383H390.3a1.923,1.923,0,0,0-1.387.593h18.813a1.873,1.873,0,0,1,1.8,1.337l8.242,27.629A1.94,1.94,0,0,0,418.286,1433.844Z" transform="translate(-388.348 -1406.255)" fill="#30537b"/>
              <path id="Trazado_650944" data-name="Trazado 650944" d="M405.337,1422.227c.963,2.072.867,4.159-.216,4.663s-2.742-.768-3.7-2.84-.867-4.16.215-4.664S404.373,1420.155,405.337,1422.227Z" transform="translate(-390.26 -1408.359)" fill="#30537b"/>
            </g>
            <g id="Grupo_994790" data-name="Grupo 994790" transform="translate(0.557 68.207)">
              <path id="Trazado_650945" data-name="Trazado 650945" d="M425.69,1425.692s-3.31-1.321-6.032-2.777a3.946,3.946,0,0,0-3.189-3.279l.66,2.163h0c-2.516-2.358-8.337-7.608-6.69-4.814a17.886,17.886,0,0,0,3.827,4.527c-1.118-.9-8.066-6.4-6.536-3.775a20.307,20.307,0,0,0,5.351,5.332s-5.317-3.293-4.525-1.618,3.708,3.333,3.708,3.333-4.611-2.214-3.043-.133c1.308,1.736,7.138,6.091,9.738,6.326V1431s2.517.823,4.6,1.47C425.958,1433.219,428.117,1428.733,425.69,1425.692Z" transform="translate(-391.909 -1415.613)" fill="#ecc1ba"/>
              <path id="Trazado_650946" data-name="Trazado 650946" d="M390.752,1416.953a19.517,19.517,0,0,0-1.346,12.4c1.671,6.429,7.119,3.292,5.757.3,0,0-1.2-1.844-.081-5.3s.849-4.372.3-3.432-.812,1.362-.812,1.362,2.222-5.206,1.04-3.9-1.942,2.223-1.942,2.223,3.435-5.145,2.288-4.906-3.489,3.163-3.489,3.163,2.563-3.423,1.722-3.343-3.123,2.263-3.123,2.263Z" transform="translate(-388.902 -1415.502)" fill="#ecc1ba"/>
            </g>
          </g>
          <g id="Grupo_994792" data-name="Grupo 994792" transform="translate(173.514)">
            <path id="Rectángulo_302362" data-name="Rectángulo 302362" d="M16.487,0h0A16.487,16.487,0,0,1,32.973,16.487v2.563a0,0,0,0,1,0,0H0a0,0,0,0,1,0,0V16.487A16.487,16.487,0,0,1,16.487,0Z" transform="translate(0 46.828)" fill="#5ea4b7"/>
            <rect id="Rectángulo_302363" data-name="Rectángulo 302363" width="1.281" height="54.672" transform="translate(15.846)" fill="#5ea4b7"/>
          </g>
          <g id="Grupo_994793" data-name="Grupo 994793" transform="translate(272.988)">
            <path id="Rectángulo_302364" data-name="Rectángulo 302364" d="M16.487,0h0A16.487,16.487,0,0,1,32.973,16.487v2.563a0,0,0,0,1,0,0H0a0,0,0,0,1,0,0V16.487A16.487,16.487,0,0,1,16.487,0Z" transform="translate(0 12.707)" fill="#5ea4b7"/>
            <rect id="Rectángulo_302365" data-name="Rectángulo 302365" width="1.281" height="22.231" transform="translate(15.846)" fill="#5ea4b7"/>
          </g>
          <g id="Grupo_994814" data-name="Grupo 994814" transform="translate(13.393 223.905)">
            <g id="Grupo_994803" data-name="Grupo 994803">
              <g id="Grupo_994794" data-name="Grupo 994794" transform="translate(9.492 7.822)">
                <path id="Trazado_650947" data-name="Trazado 650947" d="M54.5,1564.948H54.5a.321.321,0,0,1-.314-.326c.019-1.035.572-25.445,10.483-34.051a11.423,11.423,0,0,1,9.226-2.821.32.32,0,0,1-.078.636,10.8,10.8,0,0,0-8.728,2.669c-9.7,8.418-10.259,33.328-10.263,33.578A.32.32,0,0,1,54.5,1564.948Z" transform="translate(-37.834 -1527.65)" fill="#3578af"/>
                <path id="Trazado_650948" data-name="Trazado 650948" d="M51.872,1576.039h-.009a.321.321,0,0,1-.311-.33c.786-28.645-16.576-43.245-16.751-43.389a.32.32,0,0,1,.406-.5c.179.146,17.782,14.93,16.986,43.9A.321.321,0,0,1,51.872,1576.039Z" transform="translate(-34.683 -1528.313)" fill="#3578af"/>
              </g>
              <path id="Trazado_650985" data-name="Trazado 650985" d="M0,0H31.588V19.87A15.794,15.794,0,1,1,0,19.87Z" transform="translate(9.81 45.148)" fill="#f1b62b"/>
              <g id="Grupo_994796" data-name="Grupo 994796" transform="translate(19.989 18.135)">
                <path id="Trazado_650949" data-name="Trazado 650949" d="M55.615,1546.786s-4.331-6.5-7.185-2.954-1.133,19.294,9.5,22.1c0,0,11.024-5.119,8.318-17.522S56.058,1538.812,55.615,1546.786Z" transform="translate(-47.203 -1539.95)" fill="#179587"/>
                <g id="Grupo_994795" data-name="Grupo 994795" transform="translate(1.851 6.676)">
                  <path id="Trazado_650950" data-name="Trazado 650950" d="M59.347,1565.154a.16.16,0,0,1-.158-.14l-2.141-16.922a.161.161,0,0,1,.139-.179.164.164,0,0,1,.179.139l2.141,16.922a.161.161,0,0,1-.139.179Z" transform="translate(-50.644 -1547.912)" fill="#30537b"/>
                  <path id="Trazado_650951" data-name="Trazado 650951" d="M49.571,1556.9a.147.147,0,0,1-.034,0,.16.16,0,0,1-.123-.189c.014-.069,1.515-6.879,6.672-7.525a.166.166,0,0,1,.179.139.16.16,0,0,1-.138.179c-4.934.617-6.384,7.207-6.4,7.273A.161.161,0,0,1,49.571,1556.9Z" transform="translate(-49.411 -1548.117)" fill="#30537b"/>
                  <path id="Trazado_650952" data-name="Trazado 650952" d="M64.778,1560.1a.16.16,0,0,1-.15-.106c-.857-2.367-6.126-2.036-6.179-2.032a.151.151,0,0,1-.171-.149.16.16,0,0,1,.149-.17c.226-.016,5.564-.35,6.5,2.243a.158.158,0,0,1-.1.2A.153.153,0,0,1,64.778,1560.1Z" transform="translate(-50.844 -1549.482)" fill="#30537b"/>
                </g>
              </g>
              <g id="Grupo_994798" data-name="Grupo 994798" transform="translate(11.26 36.967)">
                <path id="Trazado_650953" data-name="Trazado 650953" d="M43.939,1566.83s2.8-4.2,4.645-1.908.732,12.47-6.14,14.283c0,0-7.126-3.308-5.376-11.325S43.654,1561.676,43.939,1566.83Z" transform="translate(-36.792 -1562.412)" fill="#179587"/>
                <g id="Grupo_994797" data-name="Grupo 994797" transform="translate(2.221 4.258)">
                  <path id="Trazado_650954" data-name="Trazado 650954" d="M43.636,1578.748l-.02,0a.16.16,0,0,1-.139-.178l1.384-10.938a.16.16,0,1,1,.318.04l-1.384,10.938A.16.16,0,0,1,43.636,1578.748Z" transform="translate(-40.093 -1567.49)" fill="#30537b"/>
                  <path id="Trazado_650955" data-name="Trazado 650955" d="M49.407,1573.412a.16.16,0,0,1-.157-.127c-.009-.042-.942-4.262-4.087-4.656a.16.16,0,0,1-.139-.178.162.162,0,0,1,.179-.139c3.372.422,4.322,4.724,4.361,4.907a.16.16,0,0,1-.124.19A.15.15,0,0,1,49.407,1573.412Z" transform="translate(-40.343 -1567.622)" fill="#30537b"/>
                  <path id="Trazado_650956" data-name="Trazado 650956" d="M39.6,1575.483a.154.154,0,0,1-.054-.009.161.161,0,0,1-.1-.205c.621-1.716,4.111-1.5,4.26-1.487a.16.16,0,0,1,.149.17.152.152,0,0,1-.171.149c-.033,0-3.4-.214-3.937,1.276A.159.159,0,0,1,39.6,1575.483Z" transform="translate(-39.442 -1568.504)" fill="#30537b"/>
                </g>
              </g>
              <g id="Grupo_994800" data-name="Grupo 994800" transform="translate(31.896)">
                <path id="Trazado_650957" data-name="Trazado 650957" d="M74.436,1525.855s-7.161-9.3-10.631-6.94-4.134,11,4.578,20.081,12.329,8.121,13.88,12.4c0,0,7.235-4.429,3.838-14.175s-11.59-20.554-13.731-18.693S74.436,1525.855,74.436,1525.855Z" transform="translate(-61.405 -1518.32)" fill="#179587"/>
                <g id="Grupo_994799" data-name="Grupo 994799" transform="translate(12.872 7.375)">
                  <path id="Trazado_650958" data-name="Trazado 650958" d="M84.951,1551.939a.156.156,0,0,1-.089-.027.16.16,0,0,1-.044-.222c5.632-8.343-7.885-24.15-8.022-24.31a.16.16,0,1,1,.242-.209c.567.655,13.814,16.152,8.045,24.7A.159.159,0,0,1,84.951,1551.939Z" transform="translate(-76.758 -1527.116)" fill="#30537b"/>
                  <path id="Trazado_650959" data-name="Trazado 650959" d="M79.227,1547.084a.159.159,0,0,1-.151-.107c-.028-.077-2.689-7.76,2.256-12.858a.16.16,0,1,1,.23.222c-4.8,4.953-2.211,12.453-2.185,12.528a.159.159,0,0,1-.1.2A.152.152,0,0,1,79.227,1547.084Z" transform="translate(-77.013 -1528.24)" fill="#30537b"/>
                  <path id="Trazado_650960" data-name="Trazado 650960" d="M89.7,1544.141a.159.159,0,0,1-.153-.112c-.979-3.125-4.376-4.056-4.41-4.065a.16.16,0,0,1,.081-.31c.036.01,3.6.983,4.634,4.279a.16.16,0,0,1-.1.2A.158.158,0,0,1,89.7,1544.141Z" transform="translate(-78.093 -1529.141)" fill="#30537b"/>
                </g>
              </g>
              <g id="Grupo_994802" data-name="Grupo 994802" transform="translate(0 4.309)">
                <path id="Trazado_650961" data-name="Trazado 650961" d="M33,1529.234s5.488-7.129,8.148-5.319,3.169,8.432-3.508,15.391-9.45,6.224-10.638,9.507c0,0-5.546-3.4-2.943-10.865s8.884-15.754,10.525-14.328S33,1529.234,33,1529.234Z" transform="translate(-23.362 -1523.459)" fill="#179587"/>
                <g id="Grupo_994801" data-name="Grupo 994801" transform="translate(0.699 5.615)">
                  <path id="Trazado_650962" data-name="Trazado 650962" d="M27.269,1549.258a.161.161,0,0,1-.132-.07c-4.437-6.573,5.734-18.472,6.169-18.975a.16.16,0,1,1,.242.209c-.1.121-10.446,12.216-6.146,18.587a.159.159,0,0,1-.044.222A.153.153,0,0,1,27.269,1549.258Z" transform="translate(-24.49 -1530.156)" fill="#30537b"/>
                  <path id="Trazado_650963" data-name="Trazado 650963" d="M32.618,1545.535a.15.15,0,0,1-.054-.009.16.16,0,0,1-.1-.2c.02-.058,2-5.783-1.667-9.563a.16.16,0,0,1,.231-.223c3.806,3.924,1.759,9.835,1.738,9.893A.16.16,0,0,1,32.618,1545.535Z" transform="translate(-25.256 -1531.018)" fill="#30537b"/>
                  <path id="Trazado_650964" data-name="Trazado 650964" d="M24.356,1543.28a.155.155,0,0,1-.048-.008.16.16,0,0,1-.106-.2,5.379,5.379,0,0,1,3.578-3.305.162.162,0,0,1,.2.115.16.16,0,0,1-.113.2,5.148,5.148,0,0,0-3.354,3.091A.16.16,0,0,1,24.356,1543.28Z" transform="translate(-24.195 -1531.709)" fill="#30537b"/>
                </g>
              </g>
            </g>
            <g id="Grupo_994813" data-name="Grupo 994813" transform="translate(394.898)">
              <g id="Grupo_994804" data-name="Grupo 994804" transform="translate(11.667 7.822)">
                <path id="Trazado_650965" data-name="Trazado 650965" d="M527.956,1564.948a.321.321,0,0,1-.32-.315c0-.25-.567-25.161-10.263-33.578a10.805,10.805,0,0,0-8.727-2.669.315.315,0,0,1-.357-.278.321.321,0,0,1,.278-.358,11.419,11.419,0,0,1,9.227,2.821c9.911,8.605,10.464,33.017,10.484,34.051a.322.322,0,0,1-.315.326Z" transform="translate(-508.286 -1527.649)" fill="#3578af"/>
                <path id="Trazado_650966" data-name="Trazado 650966" d="M531.062,1576.039a.321.321,0,0,1-.32-.312c-.8-28.972,16.808-43.756,16.985-43.9a.32.32,0,1,1,.407.5c-.176.143-17.539,14.743-16.751,43.389a.321.321,0,0,1-.312.33Z" transform="translate(-511.91 -1528.312)" fill="#3578af"/>
              </g>
              <path id="Rectángulo_302367" data-name="Rectángulo 302367" d="M15.794,0h0A15.794,15.794,0,0,1,31.588,15.794v19.87a0,0,0,0,1,0,0H0a0,0,0,0,1,0,0V15.794A15.794,15.794,0,0,1,15.794,0Z" transform="translate(47.689 80.812) rotate(180)" fill="#ee4e5d"/>
              <g id="Grupo_994806" data-name="Grupo 994806" transform="translate(18.04 18.135)">
                <path id="Trazado_650967" data-name="Trazado 650967" d="M526.946,1546.786s4.331-6.5,7.186-2.954,1.132,19.294-9.5,22.1c0,0-11.025-5.119-8.318-17.522S526.5,1538.812,526.946,1546.786Z" transform="translate(-515.887 -1539.95)" fill="#5a9fe0"/>
                <g id="Grupo_994805" data-name="Grupo 994805" transform="translate(3.525 6.675)">
                  <path id="Trazado_650968" data-name="Trazado 650968" d="M526.492,1565.154h-.02a.16.16,0,0,1-.138-.179l2.14-16.922a.157.157,0,0,1,.179-.139.16.16,0,0,1,.138.179l-2.14,16.922A.161.161,0,0,1,526.492,1565.154Z" transform="translate(-521.1 -1547.912)" fill="#30537b"/>
                  <path id="Trazado_650969" data-name="Trazado 650969" d="M535.421,1556.9a.16.16,0,0,1-.156-.127c-.014-.066-1.469-6.656-6.4-7.273a.16.16,0,0,1,.04-.318c5.157.646,6.658,7.456,6.672,7.525a.16.16,0,0,1-.123.189A.142.142,0,0,1,535.421,1556.9Z" transform="translate(-521.487 -1548.116)" fill="#30537b"/>
                  <path id="Trazado_650970" data-name="Trazado 650970" d="M520.251,1560.1a.161.161,0,0,1-.15-.215c.938-2.593,6.275-2.259,6.5-2.243a.16.16,0,0,1,.149.17c-.006.089-.095.169-.17.149-.053,0-5.322-.334-6.179,2.032A.161.161,0,0,1,520.251,1560.1Z" transform="translate(-520.091 -1549.481)" fill="#30537b"/>
                </g>
              </g>
              <g id="Grupo_994808" data-name="Grupo 994808" transform="translate(33.654 36.967)">
                <path id="Trazado_650971" data-name="Trazado 650971" d="M539.948,1566.83s-2.8-4.2-4.645-1.908-.731,12.47,6.14,14.283c0,0,7.126-3.308,5.377-11.325S540.234,1561.676,539.948,1566.83Z" transform="translate(-534.51 -1562.412)" fill="#5a9fe0"/>
                <g id="Grupo_994807" data-name="Grupo 994807" transform="translate(1.141 4.258)">
                  <path id="Trazado_650972" data-name="Trazado 650972" d="M542.349,1578.748a.16.16,0,0,1-.159-.14l-1.384-10.938a.161.161,0,0,1,.139-.179.158.158,0,0,1,.179.139l1.385,10.938a.161.161,0,0,1-.139.178Z" transform="translate(-536.668 -1567.49)" fill="#30537b"/>
                  <path id="Trazado_650973" data-name="Trazado 650973" d="M536.031,1573.412a.158.158,0,0,1-.034,0,.16.16,0,0,1-.123-.19c.038-.183.987-4.485,4.36-4.907a.158.158,0,0,1,.179.139.16.16,0,0,1-.139.178c-3.146.393-4.078,4.614-4.087,4.656A.16.16,0,0,1,536.031,1573.412Z" transform="translate(-535.871 -1567.622)" fill="#30537b"/>
                  <path id="Trazado_650974" data-name="Trazado 650974" d="M545.859,1575.483a.159.159,0,0,1-.15-.106c-.54-1.491-3.9-1.276-3.936-1.276a.155.155,0,0,1-.171-.149.16.16,0,0,1,.148-.171c.152-.01,3.64-.229,4.26,1.487a.16.16,0,0,1-.1.205A.152.152,0,0,1,545.859,1575.483Z" transform="translate(-536.797 -1568.504)" fill="#30537b"/>
                </g>
              </g>
              <g id="Grupo_994810" data-name="Grupo 994810">
                <path id="Trazado_650975" data-name="Trazado 650975" d="M506.942,1525.855s7.161-9.3,10.631-6.94,4.134,11-4.577,20.081-12.33,8.121-13.88,12.4c0,0-7.235-4.429-3.839-14.175s11.591-20.554,13.732-18.693S506.942,1525.855,506.942,1525.855Z" transform="translate(-494.37 -1518.32)" fill="#5a9fe0"/>
                <g id="Grupo_994809" data-name="Grupo 994809" transform="translate(0.961 7.375)">
                  <path id="Trazado_650976" data-name="Trazado 650976" d="M499.478,1551.939a.159.159,0,0,1-.133-.07c-5.768-8.545,7.479-24.042,8.045-24.7a.16.16,0,0,1,.243.209c-.138.159-13.654,15.967-8.023,24.31a.159.159,0,0,1-.133.249Z" transform="translate(-495.9 -1527.116)" fill="#30537b"/>
                  <path id="Trazado_650977" data-name="Trazado 650977" d="M506.456,1547.084a.152.152,0,0,1-.054-.01.16.16,0,0,1-.1-.2c.027-.075,2.62-7.574-2.185-12.528a.16.16,0,1,1,.23-.222c4.945,5.1,2.285,12.781,2.257,12.858A.161.161,0,0,1,506.456,1547.084Z" transform="translate(-496.899 -1528.24)" fill="#30537b"/>
                  <path id="Trazado_650978" data-name="Trazado 650978" d="M495.676,1544.141a.16.16,0,0,1-.153-.209c1.033-3.3,4.6-4.269,4.635-4.279a.16.16,0,0,1,.081.31c-.034.009-3.431.941-4.411,4.065A.159.159,0,0,1,495.676,1544.141Z" transform="translate(-495.516 -1529.141)" fill="#30537b"/>
                </g>
              </g>
              <g id="Grupo_994812" data-name="Grupo 994812" transform="translate(37.875 4.309)">
                <path id="Trazado_650979" data-name="Trazado 650979" d="M549.534,1529.234s-5.489-7.129-8.148-5.319-3.169,8.432,3.508,15.391,9.45,6.224,10.639,9.507c0,0,5.545-3.4,2.942-10.865s-8.884-15.754-10.525-14.328S549.534,1529.234,549.534,1529.234Z" transform="translate(-539.545 -1523.459)" fill="#5a9fe0"/>
                <g id="Grupo_994811" data-name="Grupo 994811" transform="translate(9.828 5.616)">
                  <path id="Trazado_650980" data-name="Trazado 650980" d="M557.585,1549.258a.155.155,0,0,1-.09-.028.16.16,0,0,1-.043-.222c4.3-6.37-6.042-18.465-6.146-18.587a.16.16,0,0,1,.242-.209c.435.5,10.606,12.4,6.169,18.975A.158.158,0,0,1,557.585,1549.258Z" transform="translate(-551.268 -1530.157)" fill="#30537b"/>
                  <path id="Trazado_650981" data-name="Trazado 650981" d="M553.2,1545.535a.159.159,0,0,1-.151-.106c-.021-.059-2.068-5.969,1.737-9.893a.16.16,0,0,1,.231.223c-3.666,3.779-1.686,9.505-1.666,9.563a.161.161,0,0,1-.1.2A.154.154,0,0,1,553.2,1545.535Z" transform="translate(-551.463 -1531.019)" fill="#30537b"/>
                  <path id="Trazado_650982" data-name="Trazado 650982" d="M561.228,1543.28a.159.159,0,0,1-.153-.112,5.148,5.148,0,0,0-3.354-3.091.16.16,0,0,1,.081-.31,5.379,5.379,0,0,1,3.578,3.305.159.159,0,0,1-.1.2A.156.156,0,0,1,561.228,1543.28Z" transform="translate(-552.291 -1531.709)" fill="#30537b"/>
                </g>
              </g>
            </g>
          </g>
          <g id="Grupo_994815" data-name="Grupo 994815" transform="translate(97.932 29.537)">
            <circle id="Elipse_5725" data-name="Elipse 5725" cx="22.129" cy="22.129" r="22.129" transform="translate(0 42.95) rotate(-76.033)" fill="#ef7598"/>
            <circle id="Elipse_5726" data-name="Elipse 5726" cx="19.78" cy="19.78" r="19.78" transform="translate(4.037 43.053) rotate(-80.481)" fill="#fff"/>
            <circle id="Elipse_5727" data-name="Elipse 5727" cx="1.681" cy="1.681" r="1.681" transform="translate(24.718 27.936) rotate(-73.083)" fill="#22364c"/>
            <path id="Trazado_650983" data-name="Trazado 650983" d="M173.6,1316H156.117a.32.32,0,0,1-.32-.32v-14.176a.32.32,0,0,1,.641,0v13.856H173.6a.32.32,0,1,1,0,.641Z" transform="translate(-129.301 -1288.865)" fill="#22364c"/>
          </g>
          <g id="Grupo_994816" data-name="Grupo 994816" transform="translate(56.591 256.011)">
            <path id="Rectángulo_302368" data-name="Rectángulo 302368" d="M19.6,0h9.231a0,0,0,0,1,0,0V48.092a0,0,0,0,1,0,0H0a0,0,0,0,1,0,0V19.6A19.6,19.6,0,0,1,19.6,0Z" fill="#7c4552"/>
            <path id="Rectángulo_302369" data-name="Rectángulo 302369" d="M0,0H.741a19.6,19.6,0,0,1,19.6,19.6V48.092a0,0,0,0,1,0,0H0a0,0,0,0,1,0,0V0A0,0,0,0,1,0,0Z" transform="translate(28.831)" fill="#a5677c"/>
          </g>
          <path id="Trazado_650984" data-name="Trazado 650984" d="M476.568,1614.492H8.028a.641.641,0,1,1,0-1.281H476.568a.641.641,0,1,1,0,1.281Z" transform="translate(-7.387 -1309.748)" fill="#132333"/>
        </g>
      </g>
    </g>
  </g>
</svg>
