<svg id="Grupo_1000269" data-name="Grupo 1000269" xmlns="http://www.w3.org/2000/svg" width="132.136" height="132.136" viewBox="0 0 132.136 132.136">
  <ellipse id="Elipse_5517" data-name="Elipse 5517" cx="66.068" cy="66.068" rx="66.068" ry="66.068" fill="#fff"/>
  <g id="seguro-de-vida" transform="translate(24.077 26.447)">
    <g id="Grupo_881661" data-name="Grupo 881661" transform="translate(1.362 1.362)">
      <g id="Grupo_881640" data-name="Grupo 881640" transform="translate(5.449 0)">
        <path id="Trazado_126255" data-name="Trazado 126255" d="M10.087,16.985a4,4,0,0,0-3.038,1.376l-.014-.014A11.694,11.694,0,0,1,6,13.566,11.564,11.564,0,0,1,17.566,2H24.4A11.581,11.581,0,0,1,35.97,13.566a11.694,11.694,0,0,1-1.035,4.782l-.014.014a.938.938,0,0,0-.15-.177,4.077,4.077,0,0,0-2.888-1.2H30.521V15.623c0-4.087-4.087-5.449-4.087-5.449a4.652,4.652,0,0,1-3.283,1.362H14.174a4.923,4.923,0,0,0-2.725,4.414v1.035Z" transform="translate(-6 -2)" fill="#656d78"/>
      </g>
      <g id="Grupo_881641" data-name="Grupo 881641" transform="translate(43.593)">
        <path id="Trazado_126256" data-name="Trazado 126256" d="M68.752,25.895a12.657,12.657,0,0,1,.668,4.087,12.938,12.938,0,0,1-3.937,9.3,19.128,19.128,0,0,0-5.027-3.2A19.621,19.621,0,0,0,55.8,34.7l-.654-3.283-.027-.082a9.5,9.5,0,0,0,6.13-8.9V15.623L61.2,14.261H57.718a25.551,25.551,0,0,1-11.457-2.725A5.978,5.978,0,0,0,42.174,17.2V22.72a9.238,9.238,0,0,0,6.1,8.691L47.623,34.7a19.621,19.621,0,0,0-4.659,1.39,19.33,19.33,0,0,0-5.027,3.2A13,13,0,0,1,34,29.981a12.657,12.657,0,0,1,.668-4.087l1.294-3.883a15.084,15.084,0,0,0,.763-4.741v-.286a14.985,14.985,0,0,1,29.97,0v.286a15.084,15.084,0,0,0,.763,4.741Z" transform="translate(-34 -2)" fill="#656d78"/>
      </g>
      <g id="Grupo_881642" data-name="Grupo 881642" transform="translate(8.174 70.839)">
        <path id="Trazado_126257" data-name="Trazado 126257" d="M22.1,54c1.526,2.452,6.457,5.64,10.422,7.942V64.9H8V54Z" transform="translate(-8 -54)" fill="#cf9e76"/>
      </g>
      <g id="Grupo_881643" data-name="Grupo 881643" transform="translate(8.174 64.341)">
        <path id="Trazado_126258" data-name="Trazado 126258" d="M22.1,55.728H8v-6.5a13.563,13.563,0,0,0,5.218,1.049h8.8a37.793,37.793,0,0,0-.4,4.087A2.574,2.574,0,0,0,22.1,55.728Z" transform="translate(-8 -49.23)" fill="#179587"/>
      </g>
      <g id="Grupo_881644" data-name="Grupo 881644" transform="translate(0 33.294)">
        <path id="Trazado_126259" data-name="Trazado 126259" d="M10.174,44.913H2A19.537,19.537,0,0,1,15.814,26.44L16.985,38.1l5.449-5.449,5.313,5.313a1.935,1.935,0,0,0-.191.559c-.463,2.493-1.321,7.193-2.1,11.852a2.209,2.209,0,0,0-.3-.014H15.623a5.448,5.448,0,0,1-5.449-5.449Z" transform="translate(-2 -26.44)" fill="#179587"/>
      </g>
      <g id="Grupo_881645" data-name="Grupo 881645" transform="translate(25.924 33.294)">
        <path id="Trazado_126260" data-name="Trazado 126260" d="M21.03,37.652,22.161,26.44A19.479,19.479,0,0,1,32.5,34.014a18.128,18.128,0,0,1-2.561,1.308,18.571,18.571,0,0,1-7.125,1.417,2.131,2.131,0,0,0-1.771.913Z" transform="translate(-21.03 -26.44)" fill="#179587"/>
      </g>
      <g id="Grupo_881646" data-name="Grupo 881646" transform="translate(20.434 32.695)">
        <path id="Trazado_126261" data-name="Trazado 126261" d="M22.313,38.124,17,32.811,21.087,26a19.076,19.076,0,0,1,2.534.6L22.49,37.811H22.5a1.076,1.076,0,0,0-.191.313Z" transform="translate(-17 -26)" fill="#ffc729"/>
      </g>
      <g id="Grupo_881647" data-name="Grupo 881647" transform="translate(13.814 32.695)">
        <path id="Trazado_126262" data-name="Trazado 126262" d="M14.674,26l4.087,6.811-5.449,5.449L12.14,26.6a20.138,20.138,0,0,1,2.534-.6Z" transform="translate(-12.14 -26)" fill="#ffc729"/>
      </g>
      <g id="Grupo_881648" data-name="Grupo 881648" transform="translate(40.869 64.927)">
        <path id="Trazado_126263" data-name="Trazado 126263" d="M65.812,56.839l1.607,9.631H32a11.019,11.019,0,0,0,5.245-1.321c4.577-2.479,13.827-7.86,13.827-10.939a37.792,37.792,0,0,0-.4-4.087h8.8a13.483,13.483,0,0,0,3.5-.463l.109.409A16.948,16.948,0,0,1,65.812,56.839Z" transform="translate(-32 -49.66)" fill="#ee4e5d"/>
      </g>
      <g id="Grupo_881649" data-name="Grupo 881649" transform="translate(53.606 40.869)">
        <path id="Trazado_126264" data-name="Trazado 126264" d="M43.925,36.509a2.179,2.179,0,0,0-2.152-1.785c-.136,0-.286,0-.422-.014A21,21,0,0,0,42.235,32H55.858a20.23,20.23,0,0,0,5.34,9.427l.109.109V42.9a5.448,5.448,0,0,1-5.449,5.449H46.322a2.207,2.207,0,0,0-.3.014c-.777-4.659-1.635-9.359-2.1-11.852Z" transform="translate(-41.35 -32)" fill="#ee4e5d"/>
      </g>
      <g id="Grupo_881650" data-name="Grupo 881650" transform="translate(21.797 38.144)">
        <path id="Trazado_126265" data-name="Trazado 126265" d="M49.81,35.436c.136.014.286.014.422.014a2.179,2.179,0,0,1,2.152,1.785c.463,2.493,1.321,7.193,2.1,11.852a4.086,4.086,0,0,0,.3,8.16h.967a37.793,37.793,0,0,1,.4,4.087c0,3.079-9.25,8.46-13.827,10.939a11.069,11.069,0,0,1-10.49,0c-.845-.463-1.853-1.022-2.929-1.635-3.964-2.3-8.9-5.49-10.422-7.942A2.574,2.574,0,0,1,18,61.333a37.794,37.794,0,0,1,.4-4.087h.967a4.086,4.086,0,0,0,.3-8.16c.777-4.659,1.635-9.359,2.1-11.852a1.934,1.934,0,0,1,.191-.559,1.075,1.075,0,0,1,.191-.313,2.131,2.131,0,0,1,1.771-.913,18.57,18.57,0,0,0,7.125-1.417A18.127,18.127,0,0,0,33.6,32.725,18.565,18.565,0,0,0,37.072,30a18.565,18.565,0,0,0,3.474,2.725,18.127,18.127,0,0,0,2.561,1.308,18.377,18.377,0,0,0,6.7,1.4Z" transform="translate(-18 -30)" fill="#222b5a"/>
      </g>
      <g id="Grupo_881651" data-name="Grupo 881651" transform="translate(32.695 53.129)">
        <path id="Trazado_126266" data-name="Trazado 126266" d="M42.347,46.449V51.9H36.9v5.449H31.449V51.9H26V46.449h5.449V41H36.9v5.449Z" transform="translate(-26 -41)" fill="#f1b62b"/>
      </g>
      <g id="Grupo_881652" data-name="Grupo 881652" transform="translate(29.575 14.985)">
        <path id="Trazado_126267" data-name="Trazado 126267" d="M28.505,14.376a4.005,4.005,0,0,1,1.049,2.711,4.081,4.081,0,0,1-4.087,4.087H23.71a9.48,9.48,0,0,0,.4-2.725V13h1.362a4.077,4.077,0,0,1,2.888,1.2A.938.938,0,0,1,28.505,14.376Z" transform="translate(-23.71 -13)" fill="#f0d0b4"/>
      </g>
      <g id="Grupo_881653" data-name="Grupo 881653" transform="translate(5.449 14.985)">
        <path id="Trazado_126268" data-name="Trazado 126268" d="M11.79,21.174h-1.7A4.093,4.093,0,0,1,6,17.087,4.124,4.124,0,0,1,10.087,13h1.362v5.735A8.506,8.506,0,0,0,11.79,21.174Z" transform="translate(-6 -13)" fill="#f0d0b4"/>
      </g>
      <g id="Grupo_881654" data-name="Grupo 881654" transform="translate(10.898 8.174)">
        <path id="Trazado_126269" data-name="Trazado 126269" d="M29.072,14.811v5.449A9.556,9.556,0,0,1,19.5,29.8H19.25a8.947,8.947,0,0,1-3.147-.559,9.2,9.2,0,0,1-5.762-6.253A8.506,8.506,0,0,1,10,20.547V13.776a4.923,4.923,0,0,1,2.725-4.414H21.7A4.652,4.652,0,0,0,24.985,8s4.087,1.362,4.087,5.449Z" transform="translate(-10 -8)" fill="#f0d0b4"/>
      </g>
      <g id="Grupo_881655" data-name="Grupo 881655" transform="translate(16.347 29.33)">
        <path id="Trazado_126270" data-name="Trazado 126270" d="M14.654,23.612a8.947,8.947,0,0,0,3.147.559h.245a9.408,9.408,0,0,0,3.46-.64l.668,3.365-4.087,6.811L14,26.895Z" transform="translate(-14 -23.53)" fill="#f0d0b4"/>
      </g>
      <g id="Grupo_881656" data-name="Grupo 881656" transform="translate(0 51.767)">
        <path id="Trazado_126271" data-name="Trazado 126271" d="M25.459,45.463a4.086,4.086,0,0,1-.3,8.16H15.391a13.563,13.563,0,0,1-5.218-1.049V52.56A13.372,13.372,0,0,1,2,40.232V40h8.174a5.448,5.448,0,0,0,5.449,5.449h9.536a2.208,2.208,0,0,1,.3.014Z" transform="translate(-2 -40)" fill="#f0d0b4"/>
      </g>
      <g id="Grupo_881657" data-name="Grupo 881657" transform="translate(52.557 29.33)">
        <path id="Trazado_126272" data-name="Trazado 126272" d="M58.072,28.284l-1.934,6.784H42.514L40.58,28.284a19.621,19.621,0,0,1,4.659-1.39l.654-3.283a8.947,8.947,0,0,0,3.147.559h.245a9.337,9.337,0,0,0,3.447-.64l.027.082.654,3.283A19.62,19.62,0,0,1,58.072,28.284Z" transform="translate(-40.58 -23.53)" fill="#f0d0b4"/>
      </g>
      <g id="Grupo_881658" data-name="Grupo 881658" transform="translate(44.343 34.085)">
        <path id="Trazado_126273" data-name="Trazado 126273" d="M42.765,27.02,44.7,33.8a21,21,0,0,1-.885,2.711,18.377,18.377,0,0,1-6.7-1.4A18.126,18.126,0,0,1,34.55,33.8a19.887,19.887,0,0,1,3.188-3.583,19.33,19.33,0,0,1,5.027-3.2Z" transform="translate(-34.55 -27.02)" fill="#f0d0b4"/>
      </g>
      <g id="Grupo_881659" data-name="Grupo 881659" transform="translate(54.492 34.085)">
        <path id="Trazado_126274" data-name="Trazado 126274" d="M69.246,44.934A13.38,13.38,0,0,1,55.854,58.325H46.087a4.086,4.086,0,0,1-.3-8.16,2.207,2.207,0,0,1,.3-.014h9.536A5.448,5.448,0,0,0,61.072,44.7V43.34l-.109-.109a20.229,20.229,0,0,1-5.34-9.427l1.934-6.784a19.724,19.724,0,0,1,7.057,5.258A19.581,19.581,0,0,1,69.246,44.934Z" transform="translate(-42 -27.02)" fill="#f0d0b4"/>
      </g>
      <g id="Grupo_881660" data-name="Grupo 881660" transform="translate(51.767 9.536)">
        <path id="Trazado_126275" data-name="Trazado 126275" d="M46.1,28.876A9.238,9.238,0,0,1,40,20.184V14.667A5.978,5.978,0,0,1,44.087,9a25.551,25.551,0,0,0,11.457,2.725h3.487l.041,1.362V19.9a9.5,9.5,0,0,1-6.13,8.9,9.337,9.337,0,0,1-3.447.64H49.25A8.947,8.947,0,0,1,46.1,28.876Z" transform="translate(-40 -9)" fill="#f0d0b4"/>
      </g>
    </g>
    <g id="Grupo_881662" data-name="Grupo 881662" transform="translate(0 0)">
      <path id="Trazado_126276" data-name="Trazado 126276" d="M85.462,54.354a20.856,20.856,0,0,0-6.1-14.774A14.316,14.316,0,0,0,82,25.82l-1.29-3.872a13.611,13.611,0,0,1-.7-4.308v-.293a16.348,16.348,0,0,0-32.7,0v.293a13.611,13.611,0,0,1-.7,4.308L45.328,25.82a14.324,14.324,0,0,0,2.646,13.769,21.2,21.2,0,0,0-1.578,1.8,17.3,17.3,0,0,1-2.2-1.845l-.963-.963-.963.963a17.427,17.427,0,0,1-2.2,1.845,20.709,20.709,0,0,0-12.026-7.5l-.283-1.414a10.979,10.979,0,0,0,5.132-5.592H33.7a5.431,5.431,0,0,0,4.587-8.367A12.882,12.882,0,0,0,26.223,1H19.372A12.936,12.936,0,0,0,6.449,13.921a12.8,12.8,0,0,0,.864,4.6,5.4,5.4,0,0,0-.864,2.918A5.455,5.455,0,0,0,11.9,26.884h.715a10.649,10.649,0,0,0,5.2,5.7l-.262,1.305A20.859,20.859,0,0,0,1,54.361,14.756,14.756,0,0,0,9.174,67.547V85.462H36.42v-1.99c.3.168.6.334.922.505a12.406,12.406,0,0,0,5.889,1.485H80.26L78.39,74.248a18.469,18.469,0,0,0-2.25-6.182,14.773,14.773,0,0,0,9.322-13.711ZM47.913,26.682,49.2,22.81a16.3,16.3,0,0,0,.839-5.17v-.293a13.623,13.623,0,0,1,27.246,0v.293a16.3,16.3,0,0,0,.839,5.17l1.29,3.87a11.588,11.588,0,0,1-2.1,11.1,20.884,20.884,0,0,0-8.408-3.888l-.283-1.414a10.9,10.9,0,0,0,5.938-9.682V15.985l-.091-2.725h-4.8a24.2,24.2,0,0,1-10.84-2.579l-.507-.256-.538.18a7.331,7.331,0,0,0-5.019,6.963v5.513a10.616,10.616,0,0,0,5.916,9.5l-.262,1.305a20.723,20.723,0,0,0-8.4,3.9,11.588,11.588,0,0,1-2.107-11.105ZM61.787,58.216c-.729-4.287-1.49-8.49-1.9-10.717a3.538,3.538,0,0,0-2.1-2.606c.031-.1.056-.2.086-.3H69.45a21.619,21.619,0,0,0,5.114,8.732v.8a4.092,4.092,0,0,1-4.087,4.087ZM69.45,41.869H57.882L56.567,37.26A18.492,18.492,0,0,1,59.8,36.4l.929-.154.552-2.761a10.6,10.6,0,0,0,2.1.21h.24a10.96,10.96,0,0,0,2.417-.277l.565,2.828.929.154a18.44,18.44,0,0,1,3.241.847Zm-5.831-10.9h-.24a7.9,7.9,0,0,1-7.888-7.889V17.568a4.6,4.6,0,0,1,2.665-4.182,26.951,26.951,0,0,0,11.513,2.6h2.169v6.809A8.207,8.207,0,0,1,63.619,30.97ZM54.056,38.4l1.387,4.848c-.119.435-.283.853-.43,1.279A17.074,17.074,0,0,1,48.748,42.8a18,18,0,0,1,5.307-4.4ZM37.714,42.8a17.168,17.168,0,0,1-7.644,1.794c-.063,0-.123.014-.184.016l.708-7.077A17.981,17.981,0,0,1,37.714,42.8ZM27.55,36.6c.131.029.262.054.391.086l-.764,7.641-2.665-2.665ZM33.7,24.159h-.1a10.749,10.749,0,0,0,.1-1.365V18.71a2.725,2.725,0,1,1,0,5.449Zm-21.8,0a2.725,2.725,0,0,1,0-5.449v4.372c0,.364.019.723.054,1.078Zm2.725-1.078V16.305a3.547,3.547,0,0,1,1.971-3.189l-1.219-2.437a6.249,6.249,0,0,0-3.455,5.306H11.9a5.378,5.378,0,0,0-2.366.564A10.151,10.151,0,0,1,19.371,3.725h6.851a10.154,10.154,0,0,1,9.841,12.823,5.406,5.406,0,0,0-2.368-.563c0-5.011-4.813-6.673-5.019-6.742l-.869,2.583c.129.044,3.163,1.129,3.163,4.159v6.809a8.207,8.207,0,0,1-8.22,8.176h-.24A7.9,7.9,0,0,1,14.623,23.081ZM22.511,33.7h.24a10.961,10.961,0,0,0,2.417-.277l.278,1.39L22.8,39.222l-2.648-4.414.264-1.323A10.648,10.648,0,0,0,22.511,33.7Zm-4.47,2.9,3.041,5.066-2.665,2.665-.766-7.648C17.781,36.643,17.911,36.618,18.041,36.591ZM15,37.534l1.278,12.78L22.8,43.8l3.767,3.767c-.413,2.246-1.167,6.412-1.887,10.654H15.985A4.092,4.092,0,0,1,11.9,54.129V47.318H9.174v5.449H3.8A18.114,18.114,0,0,1,15,37.534ZM3.782,55.492h5.53a6.823,6.823,0,0,0,6.674,5.449h9.536a2.725,2.725,0,1,1,0,5.449H15.754a12.043,12.043,0,0,1-11.972-10.9ZM15.754,69.115h7.262a25.905,25.905,0,0,0-.219,2.725H11.9V68.586A14.7,14.7,0,0,0,15.754,69.115ZM33.7,82.738H24.25a7.992,7.992,0,0,1,2.234-4.486l-1.926-1.926A10.569,10.569,0,0,0,22.8,78.677a10.538,10.538,0,0,0-1.761-2.351l-1.926,1.926a8,8,0,0,1,2.234,4.486H11.9V74.564H23.93c1.275,1.614,3.987,3.974,9.765,7.363Zm4.942-1.158c-10.374-5.614-13.116-8.826-13.116-9.74a25.81,25.81,0,0,1,.241-2.749,5.425,5.425,0,0,0,1.618-10.525c.718-4.226,1.467-8.367,1.873-10.573a.829.829,0,0,1,.821-.674,19.822,19.822,0,0,0,13.156-4.945,19.825,19.825,0,0,0,13.161,4.945.827.827,0,0,1,.816.673c.4,2.2,1.155,6.34,1.875,10.573A5.425,5.425,0,0,0,60.7,69.09a25.811,25.811,0,0,1,.241,2.749c0,.914-2.742,4.126-13.116,9.74a9.855,9.855,0,0,1-9.187,0ZM75.7,74.695l1.339,8.043H51.357c12.3-6.972,12.308-9.9,12.308-10.9a25.9,25.9,0,0,0-.219-2.725h7.262a14.75,14.75,0,0,0,2.727-.263A15.73,15.73,0,0,1,75.7,74.695Zm-4.994-8.3H60.941a2.725,2.725,0,0,1,0-5.449h9.536a6.819,6.819,0,0,0,6.811-6.811V52.2l-.515-.515a18.922,18.922,0,0,1-4.885-8.439l1.391-4.87a18.144,18.144,0,0,1,9.458,15.982A12.042,12.042,0,0,1,70.708,66.39Z" transform="translate(-1 -1)"/>
      <path id="Trazado_126277" data-name="Trazado 126277" d="M15.841,13.793h2.725c0-5.011-4.813-6.673-5.019-6.742l-.869,2.583C12.807,9.677,15.841,10.763,15.841,13.793Z" transform="translate(3.231 1.192)"/>
      <path id="Trazado_126278" data-name="Trazado 126278" d="M19.841,13.793h2.725c0-5.011-4.813-6.673-5.019-6.742l-.869,2.583C16.807,9.677,19.841,10.763,19.841,13.793Z" transform="translate(4.68 1.192)"/>
      <path id="Trazado_126279" data-name="Trazado 126279" d="M23.572,19.059l.143-.287-2.437-1.219-.143.289a3.046,3.046,0,0,1-5.449,0l-.143-.287-2.437,1.219.143.286a5.771,5.771,0,0,0,10.323,0Z" transform="translate(3.386 4.997)"/>
      <ellipse id="Elipse_5025" data-name="Elipse 5025" cx="1.726" cy="1.381" rx="1.726" ry="1.381" transform="translate(15.98 16.497)"/>
      <ellipse id="Elipse_5026" data-name="Elipse 5026" cx="1.035" cy="1.381" rx="1.035" ry="1.381" transform="translate(24.954 16.497)"/>
      <path id="Trazado_126280" data-name="Trazado 126280" d="M51.135,17.841a3.046,3.046,0,0,1-5.449,0l-.143-.287-2.437,1.219.143.286a5.771,5.771,0,0,0,10.323,0l.143-.287-2.437-1.219Z" transform="translate(14.255 4.997)"/>
      <ellipse id="Elipse_5027" data-name="Elipse 5027" cx="1.035" cy="1.381" rx="1.035" ry="1.381" transform="translate(57.398 16.497)"/>
      <ellipse id="Elipse_5028" data-name="Elipse 5028" cx="1.726" cy="1.381" rx="1.726" ry="1.381" transform="translate(64.991 16.497)"/>
      <path id="Trazado_126281" data-name="Trazado 126281" d="M38.623,59.072V53.623h5.449V45.449H38.623V40H30.449v5.449H25v8.174h5.449v5.449ZM27.725,50.9V48.174h5.449V42.725H35.9v5.449h5.449V50.9H35.9v5.449H33.174V50.9Z" transform="translate(7.695 13.129)"/>
    </g>
  </g>
</svg>
