<svg xmlns="http://www.w3.org/2000/svg" xmlns:xlink="http://www.w3.org/1999/xlink" width="581.256" height="401.915" viewBox="0 0 581.256 401.915">
  <defs>
    <clipPath id="clip-path">
      <rect id="Rectángulo_294088" data-name="Rectángulo 294088" width="581.256" height="401.915" fill="#fff" stroke="#707070" stroke-width="1"/>
    </clipPath>
  </defs>
  <g id="Enmascarar_grupo_82" data-name="Enmascarar grupo 82" opacity="0.097" clip-path="url(#clip-path)">
    <g id="Grupo_878665" data-name="Grupo 878665" transform="translate(-88.614 -73.726)">
      <g id="Grupo_878664" data-name="Grupo 878664">
        <ellipse id="Elipse_5153" data-name="Elipse 5153" cx="6.74" cy="6.74" rx="6.74" ry="6.74" transform="translate(420.605 202.323)" fill="#ffcf54"/>
        <ellipse id="Elipse_5154" data-name="Elipse 5154" cx="6.74" cy="6.74" rx="6.74" ry="6.74" transform="translate(406.175 216.753)" fill="#ffcf54"/>
        <circle id="Elipse_5155" data-name="Elipse 5155" cx="14.062" cy="14.062" r="14.062" transform="translate(617.406 313.554) rotate(135)" fill="#ffcf54"/>
        <path id="Trazado_618553" data-name="Trazado 618553" d="M391.814,151.4l-65.627,65.627a37.675,37.675,0,0,1-53.281,0h0a37.675,37.675,0,0,1,0-53.281l29.889-29.89a16.541,16.541,0,0,0,0-23.392h0a16.54,16.54,0,0,0-23.391,0l-6.5,6.5a34,34,0,0,1-48.083,0h0a34,34,0,0,1,0-48.083l26.641-26.641a7.352,7.352,0,0,0,0-10.4h0a7.352,7.352,0,0,0-10.4,0L176.088,96.817a29.406,29.406,0,0,1-41.585,0h0a29.406,29.406,0,0,1,0-41.585l17.544-17.544a6.433,6.433,0,0,0,0-9.1h0a6.432,6.432,0,0,0-9.1,0L141.5,30.045a78.808,78.808,0,0,1-111.451,0L0,0H486.681S385.966,145.549,391.814,151.4Z" transform="translate(220.018 72.674)" fill="#cef0e6"/>
        <g id="Grupo_878663" data-name="Grupo 878663" transform="translate(423.659 309.099)">
          <path id="Trazado_618554" data-name="Trazado 618554" d="M11.069,11.068h0a2.347,2.347,0,0,1-3.318,0L.687,4a2.347,2.347,0,0,1,0-3.318h0A2.347,2.347,0,0,1,4,.687L11.069,7.75A2.347,2.347,0,0,1,11.069,11.068Z" transform="translate(0 0)" fill="#31346b"/>
          <path id="Trazado_618555" data-name="Trazado 618555" d="M.687,11.068h0a2.347,2.347,0,0,1,0-3.318L7.751.687a2.347,2.347,0,0,1,3.318,0h0a2.347,2.347,0,0,1,0,3.318L4,11.068A2.347,2.347,0,0,1,.687,11.068Z" transform="translate(0 0)" fill="#31346b"/>
        </g>
        <ellipse id="Elipse_5156" data-name="Elipse 5156" cx="6.013" cy="6.013" rx="6.013" ry="6.013" transform="translate(615.943 8.683)" fill="#31346b"/>
        <ellipse id="Elipse_5157" data-name="Elipse 5157" cx="6.24" cy="6.24" rx="6.24" ry="6.24" transform="translate(408.097 145.61)" fill="#31346b"/>
        <line id="Línea_235" data-name="Línea 235" x1="103.487" y2="103.487" transform="translate(507.772 141.746)" fill="none" stroke="#fff" stroke-linecap="round" stroke-miterlimit="10" stroke-width="3"/>
        <line id="Línea_236" data-name="Línea 236" x1="92.757" y2="92.756" transform="translate(405.99 14.917)" fill="none" stroke="#fff" stroke-linecap="round" stroke-miterlimit="10" stroke-width="3"/>
        <line id="Línea_237" data-name="Línea 237" x1="92.757" y2="92.756" transform="translate(569.323 120.231)" fill="none" stroke="#fff" stroke-linecap="round" stroke-miterlimit="10" stroke-width="3"/>
        <ellipse id="Elipse_5158" data-name="Elipse 5158" cx="12.608" cy="12.608" rx="12.608" ry="12.608" transform="translate(456.883 302.735)" fill="#cef0e6"/>
        <ellipse id="Elipse_5159" data-name="Elipse 5159" cx="16.376" cy="16.376" rx="16.376" ry="16.376" transform="translate(525.062 145.362)" fill="#fff"/>
        <path id="Trazado_618556" data-name="Trazado 618556" d="M56.009,112.029A56.014,56.014,0,1,0,0,56.02,56.079,56.079,0,0,0,56.009,112.029Zm0-100.979A44.97,44.97,0,1,1,11.038,56.02,44.973,44.973,0,0,1,56.009,11.049Z" transform="translate(158.226 19.113)" fill="#b8e3db"/>
        <path id="Trazado_618557" data-name="Trazado 618557" d="M100.918,1.869c-1.133.378-43.928,43.638-60.3,60.214a8.885,8.885,0,0,1-12.608.035h0a8.891,8.891,0,0,1,0-12.573L41.465,36.092a4.459,4.459,0,0,0,0-6.307h0a4.459,4.459,0,0,0-6.307,0l-5.606,5.606a9.746,9.746,0,0,1-13.783,0h0a9.745,9.745,0,0,1,0-13.782h0a4.131,4.131,0,0,0,0-5.841L0,0H102.319" transform="translate(475.216 67.576)" fill="#b8e3db"/>
        <line id="Línea_238" data-name="Línea 238" x1="115.834" y2="115.834" transform="translate(245.055 62.838)" fill="none" stroke="#31346b" stroke-linecap="round" stroke-miterlimit="10" stroke-width="3"/>
        <line id="Línea_239" data-name="Línea 239" x1="115.834" y2="115.834" transform="translate(558.371)" fill="none" stroke="#31346b" stroke-linecap="round" stroke-miterlimit="10" stroke-width="3"/>
        <line id="Línea_240" data-name="Línea 240" x1="22.587" y2="22.587" transform="translate(265.072 110.372)" fill="none" stroke="#31346b" stroke-linecap="round" stroke-miterlimit="10" stroke-width="3"/>
        <rect id="Rectángulo_294087" data-name="Rectángulo 294087" width="600.471" height="400.314" transform="translate(0 75.327)" fill="none"/>
      </g>
    </g>
  </g>
</svg>
