<svg xmlns="http://www.w3.org/2000/svg" xmlns:xlink="http://www.w3.org/1999/xlink" width="585.916" height="316.941" viewBox="0 0 585.916 316.941">
  <defs>
    <linearGradient id="linear-gradient" x1="0.505" y1="91.658" x2="0.63" y2="2238.595" gradientUnits="objectBoundingBox">
      <stop offset="0" stop-color="#716558"/>
      <stop offset="0.052" stop-color="#8e857b"/>
      <stop offset="0.109" stop-color="#a9a29b"/>
      <stop offset="0.174" stop-color="#bfbbb6"/>
      <stop offset="0.248" stop-color="#d1cfcc"/>
      <stop offset="0.333" stop-color="#dfdedd"/>
      <stop offset="0.439" stop-color="#e9e9e9"/>
      <stop offset="0.588" stop-color="#efeff0"/>
      <stop offset="1" stop-color="#f1f1f2"/>
    </linearGradient>
    <linearGradient id="linear-gradient-2" x1="6.347" y1="165.036" x2="298.878" y2="8558.89" xlink:href="#linear-gradient"/>
    <linearGradient id="linear-gradient-3" x1="0.5" y1="2.124" x2="0.5" y2="-2.248" gradientUnits="objectBoundingBox">
      <stop offset="0" stop-color="#f0f0f0"/>
      <stop offset="0.138" stop-color="#ebecee"/>
      <stop offset="0.293" stop-color="#dde2ea"/>
      <stop offset="0.457" stop-color="#c7d1e2"/>
      <stop offset="0.627" stop-color="#a7b9d8"/>
      <stop offset="0.801" stop-color="#7f9bcb"/>
      <stop offset="0.976" stop-color="#4e76bc"/>
      <stop offset="1" stop-color="#4771ba"/>
    </linearGradient>
  </defs>
  <g id="Grupo_1000301" data-name="Grupo 1000301" transform="translate(-799 -11775.098)">
    <g id="Grupo_994973" data-name="Grupo 994973" transform="translate(-1 239)">
      <g id="background" transform="translate(800 11536.098)">
        <path id="Trazado_651107" data-name="Trazado 651107" d="M433.683,498.906c-75.989,74.328-30.376-21.979-146.575,56.243s-25.1,164.844,43.386,163.511,166.477-22.922,291.393-16.332S799.459,728,800.749,631.462,752.681,432.525,657.087,468.577,551.921,383.253,433.683,498.906Z" transform="translate(-231.421 -411.428)" fill="#d3e8ef"/>
        <circle id="Elipse_5729" data-name="Elipse 5729" cx="35.543" cy="35.543" r="35.543" transform="translate(110.567 93.509) rotate(-83.035)" fill="#d3e8ef"/>
        <circle id="Elipse_5730" data-name="Elipse 5730" cx="26.995" cy="26.995" r="26.995" transform="translate(364.302)" fill="#d3e8ef"/>
      </g>
      <g id="Grupo_994972" data-name="Grupo 994972" transform="translate(791.244 11474.496)">
        <path id="Trazado_651285" data-name="Trazado 651285" d="M131.534,385.307v.027h11.9l.011-.064Z" transform="translate(-8.566 -33.473)" fill="url(#linear-gradient)"/>
        <path id="Trazado_651286" data-name="Trazado 651286" d="M635.23,384.477h0l0,.011Z" transform="translate(-66.551 -33.382)" fill="url(#linear-gradient-2)"/>
        <path id="Trazado_651287" data-name="Trazado 651287" d="M569.966,405.024s-2.391-9.344-5.313-20.547H482.191v2.318s1.341,4.384,1.718,6.387c.292,1.559-.912,3.65-1.46,4.5h0l1.836.383-.878,5.86h-8.639v-1.854c0-1-2.085-.2-4.394.97-.115,1.268-.18,1.983-.18,1.983h-3.451c-.634.364-1.2.69-1.617.929-10.895,2.254-17.907-2.028-17.907-2.028l-4.848-3.355,1.968-2.006,1.5-1.751,9.121-.627s10.163-6.776,11.29-8.273a8.917,8.917,0,0,0,.738-3.436h-47.7v15.64H415.18v-15.64H399.952l-4.219,3.12v-1.971l-5.714,5.015c-1.677,1.472-13.032,3.019-15.96,3.459a24.01,24.01,0,0,1-6.008,0s-2.564-1.851-1.872-3.459c.465-1.076,4.385-3.8,7.332-6.164H357.37l-18.238.058c-.175.113-.333.214-.472.305-2.249,1.447-19.585,1.767-21.148.787a2.6,2.6,0,0,1-1.021-1.02l-4.1.014v15.5h-3.357V384.63l-23.878.075v15.412H281.8v-15.4l-69.853.221a4.713,4.713,0,0,1,.538,1.83s-8.115,6.809-16.865,7.368c-3.993.28-8.319.84-10.929-.839-.654-1.119-2.519-1.119-3.453-.188-.279,2.145-.875,2.557-.875,2.557l-1.348.19v4.262h-4.1V396.43l-6.263.877-4.1-6.623-8.736-2.862v1.524h1.367v10.4h-7.71v-10.4H122.854v10.4h-7.71V392.9h-.184l-1.281-3.555H88.53v10.4H80.819L58.3,410.84l536.511,1.085L572.07,397.307l0-.016c1.188,4.7,1.946,7.733,1.946,7.733Z" transform="translate(-0.135 -33.382)" fill="url(#linear-gradient-3)" style="mix-blend-mode: multiply;isolation: isolate"/>
        <path id="Trazado_651288" data-name="Trazado 651288" d="M447.773,302.69v-5.384h-1.8l.693.462.563,7.423h.543Z" transform="translate(-44.764 -23.346)" fill="#10181a"/>
        <path id="Trazado_651289" data-name="Trazado 651289" d="M445.422,332.1l.107.5v-.646Z" transform="translate(-44.701 -27.334)" fill="#475864"/>
        <path id="Trazado_651290" data-name="Trazado 651290" d="M445.242,352.3l-2.313,13.522h2.313Z" transform="translate(-44.414 -29.677)" fill="#475864"/>
        <path id="Trazado_651291" data-name="Trazado 651291" d="M419.342,371.808c.86-1.86,1.508-3.3,1.508-3.3h-5.323l.135-.935H397.69v4.231h-1.411v1.165h7.951v-1.165Z" transform="translate(-39.043 -31.436)" fill="#3a4144"/>
        <rect id="Rect치ngulo_302410" data-name="Rect치ngulo 302410" width="7.95" height="6.202" transform="translate(357.236 344.893)" fill="#3a4144"/>
        <path id="Trazado_651292" data-name="Trazado 651292" d="M442.908,367.577l-.159.935,1.442,3.3h14.193a31.99,31.99,0,0,1-4.9-4.231h-10.58Z" transform="translate(-44.393 -31.436)" fill="#253336"/>
        <path id="Trazado_651293" data-name="Trazado 651293" d="M479.838,376.633a15.886,15.886,0,0,1-3.576.373V383.4h7.947v-8.317C482.192,375.739,479.838,376.633,479.838,376.633Z" transform="translate(-48.251 -32.3)" fill="#253336"/>
        <path id="Trazado_651294" data-name="Trazado 651294" d="M444.89,373.522h.265v-1.164h-.775Z" transform="translate(-44.581 -31.987)" fill="#283336"/>
        <path id="Trazado_651295" data-name="Trazado 651295" d="M444.711,383.78l-.311.229h.756v-3.593Z" transform="translate(-44.583 -32.914)" fill="#283336"/>
        <path id="Trazado_651296" data-name="Trazado 651296" d="M484.837,285.6c2.5-.194,4.614-3.847,4.614-3.847l-2.3-12.641h-3.22v16.317C484.287,285.808,484.593,285.889,484.837,285.6Z" transform="translate(-49.134 -20.101)" fill="#334b9b"/>
        <path id="Trazado_651297" data-name="Trazado 651297" d="M500.333,204.86l3.1-9.058.975-2.842s-.577-4.593-2.694-6.132c-2.339-1.938-5.142,1.583-8.127,8.09l6.042,1.248Z" transform="translate(-50.246 -10.567)" fill="#334b9b"/>
        <path id="Trazado_651298" data-name="Trazado 651298" d="M474.593,256.258c0,.06.011.121.014.181h9.435l-.019-.106Z" transform="translate(-48.059 -18.621)" fill="#334b9b"/>
        <path id="Trazado_651299" data-name="Trazado 651299" d="M493.717,276.175V269.11h-6.145l2.3,12.64Z" transform="translate(-49.553 -20.101)" fill="#303638"/>
        <path id="Trazado_651300" data-name="Trazado 651300" d="M501.625,211.248l1.312,1.231-1.312,1.841s.271,1.135.565,2.414l4.831-17.322-2.707-2.373-3.1,9.058Z" transform="translate(-51.123 -11.804)" fill="#303638"/>
        <path id="Trazado_651301" data-name="Trazado 651301" d="M485.251,256.342l.019.106h8.539l0-.039Z" transform="translate(-49.286 -18.631)" fill="#303638"/>
        <path id="Trazado_651302" data-name="Trazado 651302" d="M448.007,302.691h12.036v-4.868c-6.77-.179-12.036-.517-12.036-.517Z" transform="translate(-44.998 -23.347)" fill="#496276"/>
        <path id="Trazado_651303" data-name="Trazado 651303" d="M497.138,256.435l0,.024h2.035l.013-.008Z" transform="translate(-50.654 -18.641)" fill="#496276"/>
        <path id="Trazado_651304" data-name="Trazado 651304" d="M487.414,293.482a60.14,60.14,0,0,1-9.569,1.037h0c-3.709.169-7.76.191-11.6.139v4.786h35.015l-2.476-30.335h-4.908l.459,17.45S494.339,291.175,487.414,293.482Z" transform="translate(-47.098 -20.101)" fill="#496276"/>
        <path id="Trazado_651305" data-name="Trazado 651305" d="M501.862,255.048l-.077.089.083-.024Z" transform="translate(-51.189 -18.482)" fill="#496276"/>
        <path id="Trazado_651306" data-name="Trazado 651306" d="M499.439,256.461H500.5l-.76-.006Z" transform="translate(-50.919 -18.644)" fill="#496276"/>
        <path id="Trazado_651307" data-name="Trazado 651307" d="M500.656,256.435l-.02.022h1.2l0-.044Z" transform="translate(-51.057 -18.639)" fill="#496276"/>
        <path id="Trazado_651308" data-name="Trazado 651308" d="M508.263,256.262l-1.357.028v.13h4.038V256.1Z" transform="translate(-51.779 -18.603)" fill="#54626a"/>
        <path id="Trazado_651309" data-name="Trazado 651309" d="M504.4,254.286l-1.887-.074-.646.74.006.065Z" transform="translate(-51.199 -18.386)" fill="#172226"/>
        <path id="Trazado_651310" data-name="Trazado 651310" d="M445.715,293.906l.187,2.406-3.632-3.441-2.86.059,5.809,3.865h1.8l12.037.2v-3.066l-11.763,2.343Z" transform="translate(-44.009 -22.836)" fill="#334b9b"/>
        <path id="Trazado_651311" data-name="Trazado 651311" d="M400.644,296.8h18.241l-.695-3.865-18.528,3.425A2.438,2.438,0,0,0,400.644,296.8Z" transform="translate(-39.433 -22.844)" fill="#334b9b"/>
        <path id="Trazado_651312" data-name="Trazado 651312" d="M477.844,296.57h0a5.436,5.436,0,0,0,3.8-5.075c-.635-2.714-1.36-3.693-4.148-4.575l-4.146,4.093-7.1,1.415v3.948l11.6.194Z" transform="translate(-47.098 -22.151)" fill="#334b9b"/>
        <path id="Trazado_651313" data-name="Trazado 651313" d="M252.708,187.693H240.361l.617,5.581h11.338Z" transform="translate(-21.094 -10.728)" fill="#ddd0c1"/>
        <path id="Trazado_651314" data-name="Trazado 651314" d="M250.567,201.826h-8.642l.828,7.49,8.727.039.209-2.961-2.05.147Z" transform="translate(-21.274 -12.355)" fill="#ddd0c1"/>
        <path id="Trazado_651315" data-name="Trazado 651315" d="M253.745,187.357l-.759-2.584h-13.1l-.867,2.584h14.73Z" transform="translate(-20.939 -10.392)" fill="#552b11"/>
        <path id="Trazado_651316" data-name="Trazado 651316" d="M250.828,199.181l1.3-1.3.267-2.045h0l-3.62-.553-7.807.355h0l.522,2.474,5.444.472-1.679,1.626-3.749.081.089.779v0h8.866Z" transform="translate(-21.164 -11.602)" fill="#51301b"/>
        <path id="Trazado_651317" data-name="Trazado 651317" d="M248.748,195.134l3.62.553.158-1.688H240.769l.172,1.49Z" transform="translate(-21.141 -11.454)" fill="#51301b"/>
        <path id="Trazado_651318" data-name="Trazado 651318" d="M145.689,380.681,145,384.741l-.011.064h8.464Z" transform="translate(-10.115 -32.945)" fill="#867164"/>
        <path id="Trazado_651319" data-name="Trazado 651319" d="M161.426,126.916s3.517,6.155,4.726,8.021,4.622,2.177,5.659,1.431,8.108-8.859,8.108-8.859l2.276-4.177-.265,1.069s.173.679.9.29,2.221-3,3.332-5.946c.257-.908-1-1.145-1-1.145l-2.914,2.137,1.166-4.08-.972-3.691-6.023,3.886-2.525-.777-6.412-7.383-2.525,1.555-.582,7.382-2.526.389-2.332-4.274-.972-2.331a1.422,1.422,0,0,0-1.749,1.164c-.222,1.472,1.077,6.315,1.36,7.189a1.64,1.64,0,0,0,1.36.972l1.534-1.9Zm14.384-4.527,4.97.552-.861,1.46.115-.811-4.757.046Zm-9.2-3.816,4.372,2.234-1.556,1.457-4.079-2.915H163.6Z" transform="translate(-11.472 -1.518)" fill="#fbc0a2"/>
        <path id="Trazado_651320" data-name="Trazado 651320" d="M169.865,152.937l5.039-13.33v-1.9l-3.109,3.845-6.8-1.166-5.245-10.3-.971.195v3.5Z" transform="translate(-11.702 -4.096)" fill="#fbc0a2"/>
        <path id="Trazado_651321" data-name="Trazado 651321" d="M95.318,190.033l8.74-7.02V179.96h3.851l1.932-7.954.745-3.171-3.807-4.351-1.008,1.426-4.273,4.274,2.166,1.852-3.332-.686-1.361,2.331L85.76,189.223l.777,1.555-2.138,1.36-4.659,11.657,7.471,4.7.831-4.173Z" transform="translate(-2.604 -8.056)" fill="#179587"/>
        <path id="Trazado_651322" data-name="Trazado 651322" d="M125.212,159.278a7.658,7.658,0,0,1,.308-1.051A4.87,4.87,0,0,0,125.212,159.278Z" transform="translate(-7.838 -7.336)" fill="#f26122"/>
        <path id="Trazado_651323" data-name="Trazado 651323" d="M145.136,139.343s3.917,2.985,4.29,5.223a12.045,12.045,0,0,0,2.425,4.664l-5.409-.56.373,3.357,1.68,3.171-.187,4.1,3.544,5.969v1.492l-2.612.466-1.305,4.652,1.026,3.649-1.22,2.815-1.684-.124-6.143-.452-2.425,1.306-.171.246,1.776,9.1-1.605,15.753.926.387v2.287l1.991,1.63,2.213,1.126v3.911l.162.283,42.649-2.5-2.138-19.8,3.3-25.062V159.06l.98,3.041.085,4.488-1.259,9.18,4.08,4.079,2.332.388v2.435l2.72,4.171,21.954,12.24h3.885l.439-3.062-1.993-1.288,1.733-6.282,1.349-.061.221-1.547L205.051,175.77l-1.166-3.5-4.278-4.2-2.239,2.8,2.239-4.477-1.161-.92-2.756,2.6,1.865-5.036-1.679-2.8-1.51-8.753-1.942-11.657-17.088-6.913-1.166,1.442-2.728,3.375v1.9l-5.039,13.33L155.315,133.8v-3.5l-6.445,1.243-18.031,2.914-2.145,3.036,5.251-.955Z" transform="translate(-8.239 -4.122)" fill="#179587"/>
        <path id="Trazado_651324" data-name="Trazado 651324" d="M170.315,123.679l1.556-1.457-4.372-2.234-3.011.777h1.748Z" transform="translate(-12.36 -2.934)" fill="#4d2910"/>
        <path id="Trazado_651325" data-name="Trazado 651325" d="M182.326,126.313l.861-1.46-4.971-.552-.532,1.247,4.757-.046Z" transform="translate(-13.879 -3.43)" fill="#4d2910"/>
        <path id="Trazado_651326" data-name="Trazado 651326" d="M65.637,209.763c1.643-1.361,3.523.056,5.534,3.338l6.184,1.9-2.484,1.656-1.213,1.252q.508,1.123,1.025,2.361l1.632-1.047,3.232-1.265,1.939-.89,2.953-2.793.049-.244-8.172-4.292-12.046-2.466-4.88,3.331-2.265,3.856,1.4,1.266,1.941-3.018L64,212.076A5.488,5.488,0,0,1,65.637,209.763Z" transform="translate(0 -12.982)" fill="#fbc0a2"/>
        <path id="Trazado_651327" data-name="Trazado 651327" d="M164.608,115.11l.582-7.382,2.525-1.555,6.412,7.383,2.525.777,6.023-3.886.972,3.691-1.166,4.08,2.914-2.137,2.72-9.909s-.528-8.634-7.965-10.686c-4.129-1.492-9.058-1.118-13.309,0s-6.7,5.246-6.7,5.246l-1.36,8.161,3.3,6.6Z" transform="translate(-11.702 0)" fill="#4d2910"/>
        <path id="Trazado_651328" data-name="Trazado 651328" d="M149.581,228.269l1.89,3.078,1.119,3.158h6.156l1.678,2.717,4.3-.279,2.7,1.4,2.12-.84,5.993,2.518,12.311-.317v-5.782l-1.778-11.942-41.45,2.381,2.4,4.188Z" transform="translate(-10.072 -14.675)" fill="#758995"/>
        <path id="Trazado_651329" data-name="Trazado 651329" d="M187.978,282.712v-13.6h-16.2v9.3A106.8,106.8,0,0,1,187.978,282.712Z" transform="translate(-13.198 -20.101)" fill="#758995"/>
        <path id="Trazado_651330" data-name="Trazado 651330" d="M190.971,256.085v-2.9l-16.252,2.526h-2.946v.371Z" transform="translate(-13.198 -18.268)" fill="#758995"/>
        <path id="Trazado_651331" data-name="Trazado 651331" d="M157.218,307.158a14.676,14.676,0,0,1,3.993,1.809l.108-1.053Z" transform="translate(-11.523 -24.481)" fill="#758995"/>
        <path id="Trazado_651332" data-name="Trazado 651332" d="M139.631,347.435v-1.942l3.107-1.245,7.383-10.412,8.4-5.906,1.117-1.088,7.225-4.079h2.878l5.028-3.426,1.2-3.156,2.941.336.738-.5-.509-1.324h-2.985l.186-1.492,3.544-.932-.932-.839H176.34L160.447,308.5l-1.226,1.507a20.136,20.136,0,0,1,2.258,2.087c3.3,3.525,0,4.084,0,4.084H141l.088,6.65-6.98,5.468-1.47,3.983-.972-2.525-2.519,2.052v4.7l8.736,13.262Z" transform="translate(-8.291 -24.636)" fill="#758995"/>
        <path id="Trazado_651333" data-name="Trazado 651333" d="M164.177,256.414l.037-.371h-22.48l0,.371Z" transform="translate(-9.74 -18.596)" fill="#758995"/>
        <path id="Trazado_651334" data-name="Trazado 651334" d="M153.942,275.971s3.65.462,8.687,1.317l.832-8.177H145.4l4.267,5.523s1.294.776,5.572,1.695C154.416,276.1,153.942,275.971,153.942,275.971Z" transform="translate(-10.163 -20.101)" fill="#758995"/>
        <path id="Trazado_651335" data-name="Trazado 651335" d="M144.506,355.366l1.166.911,1.169,1.368.971,1.748-3.108,2.331-.2,8.285,1.141-.2a6.159,6.159,0,0,1,.377-1.475c.839-1.958,3.639-7.836,8.826-10.368-.149-.207-.294-.42-.432-.639.093-1.584,2.052-2.984,2.052-2.984l.929-.619,1.369-1.985.625-1.5.463-.348V339.861l-.6-5.194,1.034-4.209h0l-8.4,5.906-7.383,10.412h0Z" transform="translate(-10.059 -27.163)" fill="#617781"/>
        <path id="Trazado_651336" data-name="Trazado 651336" d="M131.259,365.4l.405-2.2,6.217-9.794-8.737-13.261v9.15h2.114Z" transform="translate(-8.291 -28.278)" fill="#867164"/>
        <path id="Trazado_651337" data-name="Trazado 651337" d="M121.306,349.153h1.742V338.891l-9.06,1.163v13.21l2.719,7.384-1.36,10.3,3.262,9.05h2.7Z" transform="translate(-6.546 -28.134)" fill="#867164"/>
        <path id="Trazado_651338" data-name="Trazado 651338" d="M122.349,393.535v-3.555h-1.466l1.281,3.555Z" transform="translate(-7.34 -34.015)" fill="#867164"/>
        <path id="Trazado_651339" data-name="Trazado 651339" d="M171.921,140.291l5.838-7.219,1.166-1.442,2.736-3.385.626-2.525.265-1.069-2.276,4.177s-7.072,8.112-8.108,8.859-4.449.434-5.659-1.431-4.726-8.021-4.726-8.021l-.373-9.079-1.534,1.9v7.771l5.246,10.3Z" transform="translate(-11.829 -2.838)" fill="#4d2910"/>
        <path id="Trazado_651340" data-name="Trazado 651340" d="M253.237,197.952l-1.3,1.3-.372,1.892-.928,4.715,2.05-.147.97-.069,1.692-2.762.974-6.542-2.824-.432h0Z" transform="translate(-22.278 -11.674)" fill="#fbc0a2"/>
        <path id="Trazado_651341" data-name="Trazado 651341" d="M249.786,195.282l3.62.553h0Z" transform="translate(-22.179 -11.602)" fill="#fbc0a2"/>
        <path id="Trazado_651342" data-name="Trazado 651342" d="M231.671,202.213l1.992,1.288,1.689,1.094,6.031,2.266-.864-5.789v0l-.115-.779h.026l3.749-.081,1.679-1.626-5.444-.472-.522-2.474h0l7.807-.355-7.807.355-5.14.234-1.349.06Z" transform="translate(-20.094 -11.602)" fill="#fbc0a2"/>
        <path id="Trazado_651343" data-name="Trazado 651343" d="M285.194,142.764l1.151-3.948-.558,3.783,4.2,8.062,3.917,3.172s2.518.747,2.612,0-.094-1.213.327-1.726,1.352,1.026,2.332.233c.633-.512-.42-2.612-.42-2.612s1.413,1.446,2.065,1.12c1.633-.794.127-1.492.687-2.518l3.032-.094v-5.6l4.476-3.91,1.307-4.477-6.9-2.18-8.207,2.18-2.611,4.29v-3.917l-2.239-3.254h-2.611l-4.478,5.492-3.171,1.866-3.128,3.91-2.1,2.618,13.059,6.9,1.07-.779Zm3.484-5.44a1.506,1.506,0,1,1-1.306,1.492A1.407,1.407,0,0,1,288.678,137.324Z" transform="translate(-25.067 -4.243)" fill="#fbc0a2"/>
        <path id="Trazado_651344" data-name="Trazado 651344" d="M283.466,133.361l4.478-5.492h2.611l2.239,3.254v3.917l2.611-4.29,8.207-2.18,6.9,2.18a5.782,5.782,0,0,1,1.305,0c2.722.48.561,4.477,0,7.275a3.251,3.251,0,0,0,2.053,3.731s-2.518-1.864-.281-5.6,1.4-9.141,1.4-9.141l-5.784-6.343-5.968-9.512-10.447-1.12v-4.477s-.187-5.317-6.716-4.478-7.368,2.907-8.767,6.956-.746,4.424,1.866,6.848,8.394.187,8.394.187l-7.275,8.418-1.679,8.931,1.12,1.865-2.57,4.843,3.128-3.91Z" transform="translate(-25.265 -0.748)" fill="#f7dd23"/>
        <path id="Trazado_651345" data-name="Trazado 651345" d="M277.784,215.588c-2.858.1-4.638.119-4.638.119l-2.052-1.119c-4.787-5.471-4.476-36-4.476-36H265.5l-.187-13.369,3.234-4.725-2.321,5.229.019,11.374,14.489.061,1.554-9.2-.933,10.633s-.952,21.6-1.119,25.4a6.826,6.826,0,0,1,1.3.07l3.946-12.141,1.487.483.783,1.424-3.408,10.663c1.746.294,3.912.673,6.342,1.024V193.968l3.286-5.311.206-1.442.191.219c.58-1.905,1.51-5.531.794-7.171l-8.394-19.213-.746-7.089-14.738-6.9-3.171,5.223-5.784,5.969L258.248,175.1l6.516,27.142-2.624,1.74.373,1.647,2.251,1.306-2.251,2.238.56,5.115-1.492,20.442,4.872,6.181h3.1Z" transform="translate(-23.153 -6.05)" fill="#ee4e5d"/>
        <path id="Trazado_651346" data-name="Trazado 651346" d="M273.159,252.514h-3.136l.115.144H338.1l2.807-8.946-44.4-14.738-1.73-5.552c-4.6.419-9.047.677-12.6.835Z" transform="translate(-24.509 -14.841)" fill="#ee4e5d"/>
        <path id="Trazado_651347" data-name="Trazado 651347" d="M283.206,169.7l-1.554,9.2-14.489-.061-.019-11.374,2.321-5.229-3.234,4.726.187,13.369h15.856Z" transform="translate(-24.072 -7.797)" fill="#a85171"/>
        <path id="Trazado_651348" data-name="Trazado 651348" d="M330,208.762l2.425-2.769a2.349,2.349,0,0,0-.187-2.332,5.557,5.557,0,0,1-1.865,2.144c-1.305.872-4.385-.036-6.342,1.12l-8.208,4.85a44.3,44.3,0,0,1-5.784,1.118,77.592,77.592,0,0,1-16.415-.87c-2.43-.35-4.6-.73-6.342-1.024l-3.508,10.982c3.549-.158,7.995-.416,12.6-.835a133.64,133.64,0,0,0,14.975-2.1,19.848,19.848,0,0,1,4.477-.373l12.126.933,3.17-4.85V211.4l5.036-2.64,2.052-3.329-3.357,1.679Z" transform="translate(-26.091 -12.566)" fill="#fbc0a2"/>
        <path id="Trazado_651349" data-name="Trazado 651349" d="M281.323,208.087c.167-3.807,1.119-25.4,1.119-25.4H267.706s-.311,30.532,4.476,36l2.052,1.119s1.779-.02,4.638-.119l3.747-11.532A6.826,6.826,0,0,0,281.323,208.087Z" transform="translate(-24.242 -10.151)" fill="#fbc0a2"/>
        <path id="Trazado_651350" data-name="Trazado 651350" d="M298.187,192.759,294.9,198.07v6.069l.932,2.209,2.56.775,18.707-5.876,13.43-6.479,4.478-1.076,2.237,1.076h1.609l7.066-12.082h-6.436l-8.208,5.367-12.125,4.989-17.722,1.726-2.846-3.233-.191-.219Z" transform="translate(-27.373 -10.151)" fill="#f4b295"/>
        <path id="Trazado_651351" data-name="Trazado 651351" d="M337.951,269.751h-2.22l-10.652,4.477,1.306,2.986s-4.01,12.87-4.29,22.943,7.647,29.474,7.647,29.474l-2.317,4.534h0a133.185,133.185,0,0,1,11.982,11.709v-10.86a73.373,73.373,0,0,0-2.948-9.486c-2.612-6.061,1.493-46.449,1.493-46.449.092,1.938.7,5.839,1.456,10.371V271.038c-.175.6-.342,1.189-.492,1.772Z" transform="translate(-30.503 -20.174)" fill="#f4b295"/>
        <path id="Trazado_651352" data-name="Trazado 651352" d="M354.828,285.78l.688-9.5H345.454V319a82.763,82.763,0,0,0,5.96,8.223,27.738,27.738,0,0,0,6.015,5.393c5.783,2.891,5.411,0,5.411,0s-3.917-.28-4.666-2.052c-1.211-2.051-2.7-9.14-4.383-16.23s.466-20.7.466-20.7l.57-7.86Z" transform="translate(-33.193 -20.926)" fill="#f4b295"/>
        <path id="Trazado_651353" data-name="Trazado 651353" d="M356.96,255.3l.27-3.724-7.461-5.223-2.807,8.946Z" transform="translate(-33.366 -17.481)" fill="#f4b295"/>
        <path id="Trazado_651354" data-name="Trazado 651354" d="M355.787,271.722l.188-2.611H345.454v2.611Z" transform="translate(-33.193 -20.101)" fill="#f4b295"/>
        <path id="Trazado_651355" data-name="Trazado 651355" d="M350.154,358.86s-3.75,1.088-4.476-.838a3.357,3.357,0,0,1-.224-.452v1.854a7.208,7.208,0,0,0,1.234.642A4.107,4.107,0,0,0,350.154,358.86Z" transform="translate(-33.193 -30.284)" fill="#f4b295"/>
        <path id="Trazado_651356" data-name="Trazado 651356" d="M324.91,274.154l12-5.044h-5.876l-10.414.567Z" transform="translate(-30.334 -20.101)" fill="#b5597a"/>
        <path id="Trazado_651357" data-name="Trazado 651357" d="M341.406,332.83v-7.7l-1.953,3.353Z" transform="translate(-32.502 -26.55)" fill="#d30750"/>
        <path id="Trazado_651358" data-name="Trazado 651358" d="M346.3,332.148c3.388-.125,9.265,10.7,9.265,10.7a71.5,71.5,0,0,0,8.332-.559,8.213,8.213,0,0,0,2.678-1.168l-.078-1.91-3.655-1.026s.372,2.891-5.411,0a21.919,21.919,0,0,1-6.015-5.393,82.76,82.76,0,0,1-5.96-8.223v7.756A1.325,1.325,0,0,1,346.3,332.148Z" transform="translate(-33.193 -26.484)" fill="#d30750"/>
        <path id="Trazado_651359" data-name="Trazado 651359" d="M356,359.993l-5.846-.965a4.107,4.107,0,0,1-3.466,1.206,3.5,3.5,0,0,1-1.234-.531v5.543a32.191,32.191,0,0,0,5.074-.775A8.934,8.934,0,0,0,356,359.993Z" transform="translate(-33.193 -30.452)" fill="#bf0a54"/>
        <path id="Trazado_651360" data-name="Trazado 651360" d="M327.6,342.545h0l-4.024,5.913,3.544,6.343.809,8.954.808-8.643s-.778-2.924,1.834-3.2,8.736,11.6,8.736,11.6.1,0,.274,0v-9.251A133.188,133.188,0,0,0,327.6,342.545Z" transform="translate(-30.673 -28.554)" fill="#bf0a54"/>
        <path id="Trazado_651361" data-name="Trazado 651361" d="M338.434,202.147l-2.425,2.769,4.85-1.65,3.357-1.679,17.536-29.38-4.666-1.959-6.434,11.007-7.066,12.082Z" transform="translate(-32.105 -8.72)" fill="#c8d1d3"/>
        <path id="Trazado_651362" data-name="Trazado 651362" d="M290.3,141.084A1.506,1.506,0,1,0,289,139.591,1.408,1.408,0,0,0,290.3,141.084Z" transform="translate(-26.693 -5.019)" fill="#ef5e84"/>
        <path id="Trazado_651363" data-name="Trazado 651363" d="M287.689,139.785l-1.151,3.949,3.808,8.611.981-.714-4.2-8.062Z" transform="translate(-26.41 -5.213)" fill="#dda38a"/>
        <path id="Trazado_651364" data-name="Trazado 651364" d="M451.84,243.681l.681-2.514-.731-1.862,1.269-.131,9.776-36.149-2.9,4.482-3.677-8.012-4.074,7.387-1.832-5.285L440.3,234.206v7.5l.4-.047Z" transform="translate(-44.111 -12.087)" fill="#9ecbd2"/>
        <path id="Trazado_651365" data-name="Trazado 651365" d="M450.17,158.329a15.735,15.735,0,0,1,5.544.631,2.578,2.578,0,0,1,1.353.946c1.406,1.935-.543,5.378,0,6.926.574,1.165,1.335.507,2.064.826a.584.584,0,0,1,.5.413c.865,1.133,2.758,7.99,2.758,7.99l-.591-7.076,1.182-1.792a3.634,3.634,0,0,1,2.561-1.771c1.583-.073.676,6.311.466,6.948,0,0,.847,2.659-.466,2.9s-.787.2-.787.2l1.794,5.813.581-11.933-.288-2.87a26.563,26.563,0,0,0,.288-4.8,7.887,7.887,0,0,0-1.588-4.335s-3.307-1.85-3.743-2.955-3.9-5.048-10.638-4.334c-3.959.632-6.088.046-10.444,4.137s-5.7,7.361-7.092,8.611c0,.481.816,1.039,2.544.577,2.987-.8,3.368-1.7,3.368-1.7l1.576-1.182Z" transform="translate(-43.342 -6.385)" fill="#312d30"/>
        <path id="Trazado_651366" data-name="Trazado 651366" d="M449.606,192.376l1.549,2.841s-.876-1.741-1.322-2.549A1.893,1.893,0,0,1,449.606,192.376Z" transform="translate(-45.182 -11.267)" fill="#fbc0a2"/>
        <path id="Trazado_651367" data-name="Trazado 651367" d="M448.762,188.872a1.14,1.14,0,0,0,1.142.393c.719-.195.788-2.291.788-2.291s1.494,2.326,2.611,2.1,2.626-1.845,3.348-2.942,0-5.235,0-5.235.987,4.238,2.168,4.087,2.72-2.72,3.153-4.087l1.181-3.744s-1.894-6.858-2.758-7.99a1.291,1.291,0,0,0-.5-.413c-.729-.319-1.49.338-2.064-.826-.709-1.433,1.092-5.112,0-6.926a2.578,2.578,0,0,0-1.353-.946,18.009,18.009,0,0,0-5.544-.631l-9.062,2.169-1.576,1.182,1.18,10.221-.141-1.221,2.506-1.22.327,1.873-2.693.568,1.575,1.6v3.94l5.477,10.048C448.453,188.344,448.568,188.519,448.762,188.872Zm5.626-20.392,3.251,1.662-4.139-.4-3.94,1.105-1.446-1.182Z" transform="translate(-44.111 -7.471)" fill="#fbc0a2"/>
        <path id="Trazado_651368" data-name="Trazado 651368" d="M467.947,177.284c1.313-.243.466-2.9.466-2.9.21-.637,1.117-7.021-.466-6.948a3.634,3.634,0,0,0-2.561,1.771L464.2,171l.591,7.076v6.9l-8.766,7.377H454.55L457.9,195.8l12.215-8.753-2.956-9.57S466.637,177.529,467.947,177.284Z" transform="translate(-45.752 -8.396)" fill="#fbc0a2"/>
        <path id="Trazado_651369" data-name="Trazado 651369" d="M449.6,192.357h0l0,0a1.9,1.9,0,0,0,.227.292C449.635,192.3,449.521,192.125,449.6,192.357Z" transform="translate(-45.179 -11.253)" fill="#312d30"/>
        <path id="Trazado_651370" data-name="Trazado 651370" d="M455.489,193.73l8.767-7.377v-6.9l-1.181,3.744c-.433,1.367-1.972,3.939-3.153,4.087s-2.168-4.087-2.168-4.087.723,4.137,0,5.235-2.232,2.711-3.348,2.942-2.611-2.1-2.611-2.1-.07,2.1-.788,2.291a1.14,1.14,0,0,1-1.142-.393c.446.808,1.322,2.549,1.322,2.549h4.3Z" transform="translate(-45.212 -9.78)" fill="#312d30"/>
        <path id="Trazado_651371" data-name="Trazado 651371" d="M454.517,170.919l4.138.4-3.251-1.662-6.273,1.181,1.446,1.183Z" transform="translate(-45.128 -8.652)" fill="#312d30"/>
        <path id="Trazado_651372" data-name="Trazado 651372" d="M443.982,172l-2.506,1.221.141,1.221,2.693-.568Z" transform="translate(-44.246 -8.921)" fill="#312d30"/>
        <path id="Trazado_651373" data-name="Trazado 651373" d="M453.5,206.433l4.074-7.387-3.351-3.459h-2.554v5.56Z" transform="translate(-45.419 -11.637)" fill="#179587"/>
        <path id="Trazado_651374" data-name="Trazado 651374" d="M462.014,206.37l2.9-4.482h0l6.953-10.75-1.313-1.533-12.215,8.753Z" transform="translate(-46.188 -10.948)" fill="#179587"/>
        <path id="Trazado_651375" data-name="Trazado 651375" d="M439.3,210.22l10.054-14.633-16.979,4.282-.741,9.662H439.3Z" transform="translate(-43.114 -11.637)" fill="#222b5a"/>
        <path id="Trazado_651376" data-name="Trazado 651376" d="M440.3,233.756l10.054-32.608v-5.56L440.3,210.22Z" transform="translate(-44.111 -11.637)" fill="#8e8a81"/>
        <path id="Trazado_651377" data-name="Trazado 651377" d="M464.495,202.087l-9.776,36.149,5.679-.582,25.324-2.6,6.368-2.224-3.61,0-3.267,1.213-1.831-10.4.021-1.286-1.577-1.078.656-2.627-.656-3.108-.248,3.266-.865,2.412,2.019,1.441-.1,1.885.866,1.193.637,8.766-23.321,2.433-.239.257,14.548-36.677-1.51-2.335,2.166-1.126v-4.314l-4.335-1.409-6.953,10.75Z" transform="translate(-45.771 -11.147)" fill="#8e8a81"/>
        <path id="Trazado_651378" data-name="Trazado 651378" d="M473.45,198.369l1.51,2.334-14.309,36.421,23.321-2.433-.637-8.767-.865-1.192.1-1.885-2.019-1.441.865-2.412.249-3.266.656,3.108-.656,2.627,1.577,1.078-.021,1.287,1.832,10.4,3.267-1.213,3.61,0-6.368,2.225-25.324,2.6-5.679.581h0l-1.27.13.731,1.863,3.31,8.44,14.815.116,9.431.074,8.562.067,1.956.015,2.049.016,1.718-1.056.344-.1.077-.088.647-.74.853-.974-2.2-.425-3.963,2.529h-2.17l1.011-.983-3.4.511-.242-2.452,3.944-3.217,9.554-1.106.725.113.586-1.319-3.155-14.854,1.049-1.8a26.12,26.12,0,0,1-2.1-3.424c0-.216-.39-1.958-.748-3.5-.294-1.279-.565-2.414-.565-2.414l1.312-1.841-1.312-1.231-.415-5.152-.7-8.694-6.042-1.248-13.334-2.753v4.314Z" transform="translate(-45.606 -11.331)" fill="#222b5a"/>
        <path id="Trazado_651379" data-name="Trazado 651379" d="M499.777,256.453l.76.006.02-.022Z" transform="translate(-50.958 -18.642)" fill="#a39c8e"/>
        <path id="Trazado_651380" data-name="Trazado 651380" d="M451.84,249.166l-11.14-2.024-.4.047v6.2h5.987v1.788l9.543.212-2.953-6.034Z" transform="translate(-44.111 -17.572)" fill="#fbc0a2"/>
        <path id="Trazado_651381" data-name="Trazado 651381" d="M426.31,277.417l-6.5,10.835.5,2.767.695,3.865,3.338,18.588-6.171,43.594-.135.935H439.9l.159-.935,2.313-13.522,1.667-9.735-1.667-7.624-.107-.5.107-.149,3.044-4.185-1.408-18.583-.563-7.423-.693-.462-5.809-3.865,2.86-.059,3.632,3.441L443.254,292l1.576,2.365,11.763-2.343V276.279H429.177Z" transform="translate(-41.548 -20.926)" fill="#12263f"/>
        <path id="Trazado_651382" data-name="Trazado 651382" d="M459.266,271.722V269.11h-11.43l-6.582,2.611Z" transform="translate(-44.221 -20.101)" fill="#12263f"/>
        <path id="Trazado_651383" data-name="Trazado 651383" d="M466.249,290.377l7.1-1.415,4.145-4.093.345-.342-4.214-3.01-1.7-9.064-.391-3.343h-5.289Z" transform="translate(-47.098 -20.101)" fill="#12263f"/>
        <path id="Trazado_651384" data-name="Trazado 651384" d="M390.209,335.218l-3.217-8.348.854-2.39-.854-19.2v-4.021l-1.314-2.561-2.956-.951v-3.186l4.27,2.166-3.481-4.334h2.364l2.758,3.35,6.993-1.3,18.527-3.425-.5-2.767,6.5-10.835,2.867-1.138H372.655l-8.058,8.387,2.561,10.681,1.542,38.3.078,1.91.646,16.038h20.786Z" transform="translate(-35.396 -20.926)" fill="#12263f"/>
        <path id="Trazado_651385" data-name="Trazado 651385" d="M436.705,271.722l6.582-2.611H414.764l-13.023,2.611Z" transform="translate(-39.672 -20.101)" fill="#12263f"/>
        <path id="Trazado_651386" data-name="Trazado 651386" d="M383,381.275l7.881-3.547v-.26h-30.57c-3.417,1.562-8.059,2.687-9.229,3.807-1.014.971-1.367,1.793-1.021,2.525a2.6,2.6,0,0,0,1.021,1.02c1.563.98,18.9.66,21.148-.787.139-.091.3-.192.472-.305,2.675-1.722,9.313-6,9.313-6Z" transform="translate(-33.708 -32.575)" fill="#617a87"/>
        <path id="Trazado_651387" data-name="Trazado 651387" d="M390.451,361.4H375.28s-5.143,7.07-8.585,10.865h26.12V367.8Z" transform="translate(-35.638 -30.724)" fill="#617a87"/>
        <path id="Trazado_651388" data-name="Trazado 651388" d="M440.329,368.634H423.78s-.648,1.435-1.508,3.3c-.173.375-.356.765-.542,1.164h20.551l-.511-1.164Z" transform="translate(-41.973 -31.558)" fill="#758995"/>
        <path id="Trazado_651389" data-name="Trazado 651389" d="M440.747,380.077l.342-2.609H418.333c-.665,1.363-1.274,2.554-1.675,3.216a15.315,15.315,0,0,1-3.109,2.986c-2.948,2.366-6.868,5.088-7.332,6.164-.692,1.608,1.872,3.459,1.872,3.459a24.01,24.01,0,0,0,6.008,0c2.928-.44,14.283-1.987,15.96-3.459l5.714-5.015v1.971l4.219-3.12.312-.229Z" transform="translate(-40.174 -32.575)" fill="#758995"/>
        <path id="Trazado_651390" data-name="Trazado 651390" d="M474.317,281.518l4.214,3.01,4.055,2.9V269.11H472.227l.391,3.343Z" transform="translate(-47.787 -20.101)" fill="#a39c8e"/>
        <path id="Trazado_651391" data-name="Trazado 651391" d="M433.331,243.068V211.345H379.758v37.923h53.573Z" transform="translate(-37.142 -13.451)" fill="#f3e5c1"/>
        <path id="Trazado_651392" data-name="Trazado 651392" d="M226.218,253.125h-12.2v1.457h52l-.076-.975-1.488-.482H226.218Z" transform="translate(-18.062 -18.26)" fill="#363f3f"/>
        <path id="Trazado_651393" data-name="Trazado 651393" d="M288.434,198.234l-1.488-.483L283,209.891l-3.747,11.532-8.231,25.327,1.488.482Z" transform="translate(-24.624 -11.886)" fill="#363f3f"/>
        <path id="Trazado_651394" data-name="Trazado 651394" d="M263.576,249.622h3.136l9.028-28.256,3.508-10.982,3.407-10.663-.783-1.423-15.924,49,.076.975h-52l1.262,1.351Z" transform="translate(-18.062 -11.949)" fill="#cad0d6"/>
        <path id="Trazado_651395" data-name="Trazado 651395" d="M439.155,255.99V254.2H378.341v2h60.814Z" transform="translate(-36.978 -18.384)" fill="#e2cfa6"/>
        <path id="Trazado_651396" data-name="Trazado 651396" d="M373.076,233.982H360.728l.618,5.581h11.338Z" transform="translate(-34.951 -16.057)" fill="#ddd0c1"/>
        <path id="Trazado_651397" data-name="Trazado 651397" d="M372.376,248.111v0H362.29l.818,7.387h8.749Z" transform="translate(-35.131 -17.683)" fill="#ddd0c1"/>
        <path id="Trazado_651398" data-name="Trazado 651398" d="M374.11,233.646l-.757-2.584H360.248l-.866,2.584H374.11Z" transform="translate(-34.796 -15.721)" fill="#552b11"/>
        <path id="Trazado_651399" data-name="Trazado 651399" d="M372.243,247.211l.65-6.922H361.135l.8,6.924h10.308Z" transform="translate(-34.998 -16.783)" fill="#51301b"/>
        <path id="Trazado_651400" data-name="Trazado 651400" d="M585.726,329.928c-6.284-1.078-11.932-2.622-14.447-1.845-1.414.435-3.647,1.22-5.9,1.845h20.346Z" transform="translate(-58.51 -26.865)" fill="#ee4e5d"/>
        <path id="Trazado_651401" data-name="Trazado 651401" d="M534.52,329.659h19.41a12.959,12.959,0,0,1-3.051-3.946l-.812-.173c-3.163.536-14.539,2.518-15.37,3.409A1.108,1.108,0,0,0,534.52,329.659Z" transform="translate(-54.958 -26.597)" fill="#ee4e5d"/>
        <path id="Trazado_651402" data-name="Trazado 651402" d="M612.311,326.314c-.271-1.882-.872-4.043-2.2-4.377-.451-.114-2.805-.195-6.365-.25C605.7,324.489,610.068,325.8,612.311,326.314Z" transform="translate(-62.927 -26.153)" fill="#ee4e5d"/>
        <path id="Trazado_651403" data-name="Trazado 651403" d="M601.057,330.2a32.9,32.9,0,0,1-9.476.672c-1.584-.167-3.169-.4-4.715-.672H575.28v3.844s25.786-.2,29.124,0,8.662,4.422,9.684,7.287c1.4,3.917,6.206,22.043,10.081,36.9,2.922,11.2,5.313,20.547,5.313,20.547h4.045s-.758-3.028-1.946-7.733c-.888-3.519-2.018-7.975-3.248-12.8l0-.012c-4.178-16.392-9.539-37.045-10.679-39.739-1.414-3.54-3.967-4.66-5.265-5.732l-3.128-2.562Z" transform="translate(-59.65 -27.133)" fill="#d3d8df"/>
        <path id="Trazado_651404" data-name="Trazado 651404" d="M604.41,319.939h8.2l3.128,2.562s3.218-.317,3.75-2.562,18.606-78.469,18.606-78.469-6.007-2.386-10.081,5.077-14.9,62.878-15.4,66.114a24.615,24.615,0,0,0-.207,4.381c.834.188,1.368.264,1.368.264A62.789,62.789,0,0,1,604.41,319.939Z" transform="translate(-63.003 -16.877)" fill="#ee4e5d"/>
        <path id="Trazado_651405" data-name="Trazado 651405" d="M523.188,374.838c-.084-.489-.222-1.281-.4-2.31-.084.77-.169,1.541-.25,2.31Z" transform="translate(-53.578 -32.006)" fill="#d3d8df"/>
        <path id="Trazado_651406" data-name="Trazado 651406" d="M534.632,331.36c.184,1.252.6,2.972,1.04,4.762a11.656,11.656,0,0,1,5.806-2.084c3.338-.2,29.123,0,29.123,0V330.2h-8.76c-2.735.764-5.493,1.291-6.828.672a5.394,5.394,0,0,1-1.07-.672H536.625Z" transform="translate(-54.971 -27.133)" fill="#d3d8df"/>
        <path id="Trazado_651407" data-name="Trazado 651407" d="M523.33,407.439s.066-.715.181-1.983c-1.242.627-2.548,1.364-3.632,1.983Z" transform="translate(-53.272 -35.797)" fill="#d3d8df"/>
        <path id="Trazado_651408" data-name="Trazado 651408" d="M134.048,324.827v-7.649H119.87v7.649h14.178Z" transform="translate(-7.223 -25.634)" fill="#10181a"/>
        <path id="Trazado_651409" data-name="Trazado 651409" d="M128.578,347.649V338.5h0V325.822h-4.352v21.826Z" transform="translate(-7.725 -26.629)" fill="#363f3f"/>
        <path id="Trazado_651410" data-name="Trazado 651410" d="M130.466,381.329V350.488h-8.208v30.841h8.208Z" transform="translate(-7.498 -29.469)" fill="#475864"/>
        <path id="Trazado_651411" data-name="Trazado 651411" d="M130.751,389.446h32.956v-1.524l-7.866-2.579H126.9v4.1Z" transform="translate(-8.032 -33.481)" fill="#3a4144"/>
        <path id="Trazado_651412" data-name="Trazado 651412" d="M161.329,400.382h7.71v-10.4h-7.71Z" transform="translate(-11.996 -34.015)" fill="#3a4144"/>
        <path id="Trazado_651413" data-name="Trazado 651413" d="M85.3,389.446h36.811v-4.1H85.3Z" transform="translate(-3.243 -33.481)" fill="#253336"/>
        <path id="Trazado_651414" data-name="Trazado 651414" d="M91.46,389.979H83.75v10.4H91.46Z" transform="translate(-3.065 -34.015)" fill="#253336"/>
        <path id="Trazado_651415" data-name="Trazado 651415" d="M122.54,400.382h7.71v-10.4h-7.71v10.4Z" transform="translate(-7.531 -34.015)" fill="#283336"/>
        <path id="Trazado_651416" data-name="Trazado 651416" d="M77.225,292.846s2.052,3.544,4.477,3.732c.849,1.017,2.5-2.627,4.184-7.868a121.754,121.754,0,0,0,4.052-14.2L89.2,259.795c-1.815-6.178-4.911-13.325-6.846-19.526-2.3-7.38-4.644-14.324-6.9-19.739q-.515-1.237-1.025-2.361a44.738,44.738,0,0,0-2.487-4.811c-2.011-3.282-3.891-4.7-5.534-3.338a5.488,5.488,0,0,0-1.634,2.312,15.6,15.6,0,0,0-.978,3.637l.945,2.756,16.963,49.5Z" transform="translate(-0.768 -13.239)" fill="#636363"/>
        <path id="Trazado_651417" data-name="Trazado 651417" d="M73.275,288.634l3.731,5.41,4.477-24.623-16.964-49.5-2.624,2.3,9.515,34.137,1.865,17.908Z" transform="translate(-0.549 -14.438)" fill="#303638"/>
        <path id="Trazado_651418" data-name="Trazado 651418" d="M77.226,310.165c-6.718-2.241-6.718-6.716-6.718-6.716l1.12-42.345H68.27l-1.03,12.607-.1,1.249-3.347,40.988h49.621v-5.223S87.3,312.4,77.226,310.165Z" transform="translate(-0.768 -19.179)" fill="#496276"/>
        <path id="Trazado_651419" data-name="Trazado 651419" d="M62.229,274.879v-3.024H58.312v8.208h3.917v-5.184Z" transform="translate(-0.137 -20.417)" fill="#54626a"/>
        <path id="Trazado_651420" data-name="Trazado 651420" d="M62.739,275.523v1.167h4.272l.007-.09.1-1.249Z" transform="translate(-0.646 -20.819)" fill="#172226"/>
        <path id="Trazado_651421" data-name="Trazado 651421" d="M156.431,315.89s3.3-.558,0-4.084a20.135,20.135,0,0,0-2.258-2.087q-.617-.483-1.241-.888a14.676,14.676,0,0,0-3.993-1.809l-2.9-.532-43.813-.509a88.66,88.66,0,0,0-11.149.509c-4.2,1.045-5.049,1.794-5.783,4.923a5.272,5.272,0,0,0,3.689,4.923l26.9-.446h40.541Z" transform="translate(-3.243 -24.345)" fill="#636363"/>
        <path id="Trazado_651422" data-name="Trazado 651422" d="M129.529,243.5l-3.172-4.2L118.15,230.9l-13.217-17.627,10.792,18.467,8.457,7.834,3.854,5.6,5.188,2.375.315.143v.1l2.138,1.666Z" transform="translate(-5.504 -13.673)" fill="#2a293d"/>
        <path id="Trazado_651423" data-name="Trazado 651423" d="M136.447,181.127l-6.715-10.354,6.4,7.058,8.879,2.442,1.684.124,1.22-2.815-1.026-3.649,1.305-4.652,2.612-.466v-1.492l-3.544-5.969.187-4.1-1.68-3.171-.373-3.357-1.866-2.611-2.425.933-.933,5.036s-2.892.466-3.358,1.492,0,4.1,0,4.1l-2.8,1.119s-3.732-5.224-5.6-5.224-3.078.654-3.545,1.493a7.66,7.66,0,0,0-.308,1.051c-.1.444-.2.988-.309,1.588a38.7,38.7,0,0,1-1.434,6.128,31.286,31.286,0,0,1-3.171,5.6l7.275,5.983h0l1.119.92,5.6,7.089c.157-.473,2.041-3.2,2.626-4.044Zm7.7-24.81,1.911-.467.654,1.492h-2.333l-2.8,1.4Zm-16.4,10.757c-1.492-.747-2.3-4.7-2.3-4.7s-.81-4.254.653-5.084c.949-.54,2.565.607,2.565.607a2.911,2.911,0,0,0-2.194-.063c-.964.488-.372,4.166-.372,4.166s.995,4.172,2.487,4.6a3.446,3.446,0,0,0,2.643-.311v.84A5.2,5.2,0,0,1,127.741,167.075Z" transform="translate(-7.199 -6.171)" fill="#f9c5af"/>
        <path id="Trazado_651424" data-name="Trazado 651424" d="M113,168.883l5.223,1.305a31.287,31.287,0,0,0,3.171-5.6,38.7,38.7,0,0,0,1.434-6.128c.11-.6.213-1.144.309-1.588a4.87,4.87,0,0,1,.308-1.051c.467-.839,1.68-1.493,3.545-1.493s5.6,5.224,5.6,5.224l2.8-1.119s-.466-3.078,0-4.1,3.358-1.492,3.358-1.492l.933-5.036,2.425-.933,1.866,2.611,5.409.56a12.045,12.045,0,0,1-2.425-4.664c-.373-2.239-4.29-5.223-4.29-5.223l-11.192-2.8-5.251.955-.906.165-5.037,1.865h-4.1l-6.341,4.851-2.612,13.058,2.721,3.11,3.807,4.351Z" transform="translate(-5.767 -4.933)" fill="#312d30"/>
        <path id="Trazado_651425" data-name="Trazado 651425" d="M149.559,158.349l-.654-1.492-1.911.467-2.565,2.425,2.8-1.4Z" transform="translate(-10.051 -7.178)" fill="#312d30"/>
        <path id="Trazado_651426" data-name="Trazado 651426" d="M131.948,167.473a3.446,3.446,0,0,1-2.643.311c-1.492-.429-2.487-4.6-2.487-4.6s-.592-3.678.372-4.166a2.911,2.911,0,0,1,2.194.063s-1.616-1.147-2.565-.607c-1.463.83-.653,5.084-.653,5.084s.808,3.948,2.3,4.7a5.2,5.2,0,0,0,3.483.062Z" transform="translate(-7.922 -7.347)" fill="#c28083"/>
        <path id="Trazado_651427" data-name="Trazado 651427" d="M131.042,173.722l6.716,10.354,2.425-1.306,6.143.453-8.879-2.443Z" transform="translate(-8.509 -9.12)" fill="#746351"/>
        <path id="Trazado_651428" data-name="Trazado 651428" d="M84.031,227.945l7.5,27.642v0l.735,14.709.723,14.444,1.351-.781,21.4-12.369,26.862-8.028-4.267-5.522h-7.285V251.33h-3.73v-4.478h3.809v-3.8l-.315-.143-5.188-2.375-3.854-5.6-8.457-7.834-10.792-18.467,13.217,17.627,8.207,8.394,3.172,4.2,6.149,5.965,1.712,1.659h29.634l3.941-8.183V234.38l-5.993-2.518-2.12.84-2.7-1.4-4.3.279-1.678-2.717h-6.156l-1.119-3.158-1.89-3.078-2.565.28-2.4-4.188,0-.006-.162-.283v-3.911l-2.213-1.126-1.991-1.63v-2.287l-.926-.386-2.424-1.012,1.211-1.4V194.368l2.138-2.518-3.724-3.569-6.716-8.009h0l-7.276-5.982-5.222-1.305-1.932,7.954h-3.851v3.053l-8.74,7.02L88.536,205.3l-.831,4.173-.121.612-.049.244Z" transform="translate(-3.098 -9.035)" fill="#222b5a"/>
        <path id="Trazado_651429" data-name="Trazado 651429" d="M179.043,242.665v3.257l-3.941,8.183,16.252-2.526,6.755-1.052,1.244,1h5.1l10.571-2.115,3.607,2.115h3.108l-1.368-1.991-4.478-2.735,5.97,1.989,2.984,2.737h9.079l.87-1.991-8.581-9.2-10.446-1.12L200.6,241.449l-9.243.238L179.043,242Z" transform="translate(-13.582 -16.659)" fill="#f9c5af"/>
        <path id="Trazado_651430" data-name="Trazado 651430" d="M199.874,327.761l3.417-6.1,2.8-2.425,3.358-6.9a47.237,47.237,0,0,0,1.679-6.358c1.12-5.021-2.541-9.5-7.088-11.363-.5-.25-1.14-.6-1.917-1.027h0l-.006,0-.972-.537c-1.247-.683-3.512-1.911-5.793-3.075-.2-.1-.414-.209-.624-.312v46.761l.732-.767Z" transform="translate(-15.84 -22.466)" fill="#12263f"/>
        <path id="Trazado_651431" data-name="Trazado 651431" d="M147.229,302.965l2.9.532,4.1.756,2.36.434,15.893,2.923h2.612l.932.839-3.544.932-.186,1.492h2.985l.509,1.324.236.614-.974-.11-2.941-.336-1.2,3.156L168,323.183l-4.1,3.171-2.425,2.985v2.986l-2.391,4.475h-1.464l-1.741,2.8v.933l-1.119,2.612-.532.4-.463.348-.625,1.5-.619,1.485-.75.5-.929.619s-1.959,1.4-2.052,2.984c.138.219.283.432.432.639,5.163,6.975,17.937,7.552,18.4,7.573.25,0,.387,0,.387,0l.933-4.292v-2.237l1.865.186,1.119-2.24-.187-1.3,1.492-.934,1.119-2.052.187-2.425h1.492l2.611-4.1.034-.034.216-.338.326-.342V286.084c-6.536-2.605-24.681-7.657-29.7-9.038-4.278-.918-5.572-1.695-5.572-1.695l-26.862,8.028-21.4,12.368c-.61,3.747,3.868,6.665,3.868,6.665l3.874.044Z" transform="translate(-4.431 -20.819)" fill="#12263f"/>
        <path id="Trazado_651432" data-name="Trazado 651432" d="M201.141,292.7c.587.322.946.522.972.537l.006,0h0a49.683,49.683,0,0,0-7.4-6.548v2.615q.311.157.624.317C197.629,290.791,199.894,292.019,201.141,292.7Z" transform="translate(-15.84 -22.125)" fill="#192c3f"/>
        <path id="Trazado_651433" data-name="Trazado 651433" d="M169.848,279.3c-2.153-.426-4.226-.8-6.108-1.123-5.037-.855-8.687-1.317-8.687-1.317s.473.127,1.3.357c5.017,1.381,23.163,6.433,29.7,9.038V283.6A106.8,106.8,0,0,0,169.848,279.3Z" transform="translate(-11.274 -20.993)" fill="#192c3f"/>
        <path id="Trazado_651434" data-name="Trazado 651434" d="M199.093,359.635l1.772-3.171-1.772-3.171.84-1.68-.84-3.171H197.32l1.68-2.053v-2.611l1.043-.939.138-4.159-.307-1.152v-4.81l-4.418,7.889-.732.767v24.667a21.329,21.329,0,0,0,5.706-2.239Z" transform="translate(-15.84 -27.423)" fill="#192c3f"/>
        <path id="Trazado_651435" data-name="Trazado 651435" d="M181.89,361.134,180.583,363v5.6c.2.02.393.034.588.05a45.373,45.373,0,0,0,7.56-.108c.088-.01.173-.022.261-.032V347.362l-.326.342-.216.338-2.645,4.139h-1.492l-.187,2.425-1.119,2.052-1.492.934.187,1.3-.523,1.045Z" transform="translate(-14.213 -29.109)" fill="#192c3f"/>
        <path id="Trazado_651436" data-name="Trazado 651436" d="M176.484,376.1l.072-.459-3.171-6.526h-.013c-.459-.02-13.232-.6-18.4-7.573-5.187,2.533-7.987,8.41-8.826,10.368a6.16,6.16,0,0,0-.377,1.475,26.745,26.745,0,0,0-.09,5.054l.077.042,7.763,4.124h4.472l7.867,2.579,8.736,2.862A17.427,17.427,0,0,1,176.484,376.1Z" transform="translate(-10.185 -30.741)" fill="#212a58"/>
        <path id="Trazado_651437" data-name="Trazado 651437" d="M199.852,368.217a16.814,16.814,0,0,1-5.128,1.979v2.849h7.295A12.05,12.05,0,0,1,199.852,368.217Z" transform="translate(-15.84 -31.51)" fill="#222b5a"/>
        <path id="Trazado_651438" data-name="Trazado 651438" d="M188.693,371.26l-.261.028a45.369,45.369,0,0,1-7.56.108c-.039,0-.078,0-.118-.007,0,1.077.462,4.994,0,4.994-.195.274-.373.554-.542.833a17.427,17.427,0,0,0-1.887,11.946l4.1,6.623,6.263-.877Z" transform="translate(-13.914 -31.86)" fill="#222b5a"/>
        <path id="Trazado_651439" data-name="Trazado 651439" d="M225.768,383.16c-2.236.3-8.581,1.305-11.192.467-2.515-.808-4.944-3-9.116-6.16H194.724v17.581l1.348-.19s.6-.412.875-2.557c.934-.932,2.8-.932,3.453.188,2.61,1.679,6.936,1.119,10.929.839,8.75-.559,16.865-7.368,16.865-7.368a4.713,4.713,0,0,0-.538-1.83A1.79,1.79,0,0,0,225.768,383.16Z" transform="translate(-15.84 -32.575)" fill="#222b5a"/>
        <path id="Trazado_651440" data-name="Trazado 651440" d="M331.9,268.237H497.175l-.182-6.714H328.167v6.714Z" transform="translate(-31.202 -19.227)" fill="#dcd6cb"/>
        <path id="Trazado_651441" data-name="Trazado 651441" d="M461.609,373.153v25.661h4.106v-23.53A25.694,25.694,0,0,1,461.609,373.153Z" transform="translate(-46.564 -32.078)" fill="#c8d1d3"/>
        <path id="Trazado_651442" data-name="Trazado 651442" d="M461.609,275.454v75.532l4.105-.335V269.11h-4.105v6.344Z" transform="translate(-46.564 -20.101)" fill="#c8d1d3"/>
        <path id="Trazado_651443" data-name="Trazado 651443" d="M345.017,361.636V269.11H341.66V386.837h3.357v-25.2Z" transform="translate(-32.756 -20.101)" fill="#cad0d6"/>
        <path id="Trazado_651444" data-name="Trazado 651444" d="M370.451,275.794h77.787v-3.732H345.454v3.732h25Z" transform="translate(-33.193 -20.44)" fill="#b3bdbe"/>
        <path id="Trazado_651445" data-name="Trazado 651445" d="M433.5,373.674H345.454v3.357H448.238v-3.357H433.5Z" transform="translate(-33.193 -32.138)" fill="#babebe"/>
        <path id="Trazado_651446" data-name="Trazado 651446" d="M328.167,256.462v4.478H496.993l-.12-4.478H328.167Z" transform="translate(-31.202 -18.645)" fill="#ede7e5"/>
        <path id="Trazado_651447" data-name="Trazado 651447" d="M167.789,268.237H306.18v-6.714H137.172v6.714h30.617Z" transform="translate(-9.215 -19.227)" fill="#dcd6cb"/>
        <path id="Trazado_651448" data-name="Trazado 651448" d="M194.19,364.994V269.11h-4.1V386.837h4.1V364.994Z" transform="translate(-15.307 -20.101)" fill="#c8d1d3"/>
        <path id="Trazado_651449" data-name="Trazado 651449" d="M310.881,269.11V386.837h3.358V269.11Z" transform="translate(-29.212 -20.101)" fill="#cad0d6"/>
        <rect id="Rect치ngulo_302411" data-name="Rect치ngulo 302411" width="102.785" height="3.732" transform="translate(178.884 251.621)" fill="#b3bdbe"/>
        <path id="Trazado_651450" data-name="Trazado 651450" d="M194.724,373.674v3.357H297.509v-3.357H194.724Z" transform="translate(-15.841 -32.138)" fill="#babebe"/>
        <path id="Trazado_651451" data-name="Trazado 651451" d="M305.694,260.94v-4.478H132.956v4.478H305.694Z" transform="translate(-8.73 -18.645)" fill="#ede7e5"/>
        <path id="Trazado_651452" data-name="Trazado 651452" d="M495.126,248.4l-3.944,3.218.243,2.452,3.4-.512-1.011.983h2.17l3.963-2.529,2.2.425,2.789.541-1.757.507-2.527.73-.083.024-.345.1L498.5,255.4l-.013.008.3-.006.779-.016,1.173-.022,4.356-.086,1.357-.028,2.681-.164,3.883-.239,2.622.547-.1-3.617h-.47l.414-2.074-.01-.425-2.388,4.309-.295-5.022-7.387-1.151-.724-.113Z" transform="translate(-49.969 -17.59)" fill="#fbc0a2"/>
        <path id="Trazado_651453" data-name="Trazado 651453" d="M529.5,245.61c-.105-1.279-.126-2.034-.126-2.034A12.674,12.674,0,0,0,529.5,245.61Z" transform="translate(-54.365 -17.161)" fill="#203243"/>
        <path id="Trazado_651454" data-name="Trazado 651454" d="M528.035,227.793h0l-1.879,12.639,2.132-12.515Z" transform="translate(-53.995 -15.344)" fill="#203243"/>
        <path id="Trazado_651455" data-name="Trazado 651455" d="M519.414,277.544l20.747,1.807v0l-.173-1.692-3.56-6.986s.013.014.035.042a32.224,32.224,0,0,1-5.326-10.289,56.728,56.728,0,0,1-7.112-11.661,5.1,5.1,0,0,1,0-4.077l-2.813,5.115-.559-3.714-1.483,5.384h-.458l.1,3.617v.015l.12,4.477.181,6.714Z" transform="translate(-53.138 -17.289)" fill="#203243"/>
        <path id="Trazado_651456" data-name="Trazado 651456" d="M520.235,239.513l2.044-10.028-3.979,6.753.448,10.714Z" transform="translate(-53.09 -15.539)" fill="#203243"/>
        <path id="Trazado_651457" data-name="Trazado 651457" d="M518.636,249.5l.01.425.141-.7Z" transform="translate(-53.129 -17.812)" fill="#203243"/>
        <path id="Trazado_651458" data-name="Trazado 651458" d="M545,238.232l5.808-13.144-1.388.234-5.541,13.034,3.834,14.785,3.133,5.363-2.241-6.912Z" transform="translate(-56.035 -15.033)" fill="#528399"/>
        <path id="Trazado_651459" data-name="Trazado 651459" d="M565.911,225.152C565.818,229.516,551.149,270,551.149,270a5.629,5.629,0,0,1-4.643,1.827h0L548.5,280.4h8.727l24.357-8.2-9.732-41.5-6.979-13.848A25.045,25.045,0,0,1,565.911,225.152Z" transform="translate(-56.338 -14.084)" fill="#179587"/>
        <path id="Trazado_651460" data-name="Trazado 651460" d="M520.851,400.887c-2.754.773-6.28,4.108-6.28,4.108s-9.46,1.458-13.236,0a23.685,23.685,0,0,1-7.031-4.713l-1.968,2.006,4.848,3.355s7.013,4.282,17.907,2.028c.421-.239.982-.565,1.617-.929,1.083-.619,2.389-1.356,3.631-1.983,2.31-1.17,4.394-1.969,4.394-.97v1.854h8.639l.878-5.86-1.836-.383h0c-.156.241-.258.383-.258.383S523.607,400.112,520.851,400.887Z" transform="translate(-50.102 -35.1)" fill="#151e1a"/>
        <path id="Trazado_651461" data-name="Trazado 651461" d="M470.217,373.188c-5.354-.751-14.84-8.451-14.84-8.451l-1.5,1.5s.313.389.9,1.011a31.99,31.99,0,0,0,4.9,4.231c.339.238.691.473,1.053.7a25.69,25.69,0,0,0,4.106,2.131,21.052,21.052,0,0,0,3.7,1.127,31.4,31.4,0,0,0,5.159.373,15.884,15.884,0,0,0,3.576-.373s2.354-.894,4.371-1.555a13.257,13.257,0,0,1,2.672-.7c1.086.01-.1,2.015-.1,2.015l7.154,1.228s4.494-7.184,3.648-7.273c-8.529.256-8.056-.017-11.833,1.026C480.453,370.936,475.569,373.942,470.217,373.188Z" transform="translate(-45.674 -31.109)" fill="#19211f"/>
        <path id="Trazado_651462" data-name="Trazado 651462" d="M520.2,202.86c-2.141-2.926-4.831-6.78-4.832-7.675,0-1.486.214-3.162.214-3.842s-1.327-2.842-1.451-3.585c-.1-.583-.317-3.521-.43-4.945l-.065-.75c.579-.047,4.79,3.909,4.8,3.915l0,0a22.447,22.447,0,0,0,4.179,2.031c.057.021.119.042.18.063l.1.034a63.37,63.37,0,0,0,6.71,1.57s-5.5-2.344-6.591-3.338a2.058,2.058,0,0,1-.255-.188,2.167,2.167,0,0,1-.4-.373l-.005-.006a33.143,33.143,0,0,1-2.78-3.709s3.3,2.233,5.547,3.557a24.288,24.288,0,0,0,2.286,1.172c.183.078.378.156.585.235l.078.028,1.719.6c2.574.85,5.542,1.672,5.754,2.018a4.006,4.006,0,0,1,.373,3.156c1.238-1.3,1.3-4.827,1.3-4.827l.929-.929s.164-.3.386-.629c.362-.637.74-1.294,1.208-.888,1.18,1.026.995,7.151.263,8.139-1.849,2.339-2.786.619-2.786.619l-1.348,5.542-1.065,15.6,1.917,4.108,1.611,9.656.286,1.618.829-1.06,4.826-11.326,2.971-10.584,5.014-2.228,4.434,1.71L545.762,201.4l-2.6-15.807s-.185-10.212-6.128-13.74-11.2-2.724-12.626-2.229c-3.774,1.486-10.213,4.457-11.388,9.9-.719,3.335-.326,14.88.088,23.335h7.1Z" transform="translate(-52.437 -8.596)" fill="#201f2a"/>
        <path id="Trazado_651463" data-name="Trazado 651463" d="M518.088,246.087l.151-.271-.142.7-.413,2.073h.928L520.1,243.2l.559,3.714,2.813-5.115v0l1.271-2.309,1.879-12.64c-2.116-1.006-5.977-2.81-6.336-3.577a12.7,12.7,0,0,1-.743-2.476l.084-.5H514.96a11.215,11.215,0,0,1-1.088-.7l.956,16.008.576,9.766.295,5.023Zm3.681-17.74-2.044,10.027-1.486,7.441L517.79,235.1Z" transform="translate(-52.581 -14.401)" fill="#201f2a"/>
        <path id="Trazado_651464" data-name="Trazado 651464" d="M523.614,204.785l6.066,4.085,3.714,4.951,1.548,3.319,1.064-15.6L537.353,196s.936,1.719,2.786-.619c.732-.988.918-7.113-.263-8.139-.468-.406-.846.25-1.208.888a6.062,6.062,0,0,1-.386.629,3.813,3.813,0,0,1-.929.929s-.059,3.678-1.3,4.827a4.005,4.005,0,0,0-.373-3.156c-.212-.345-3.18-1.168-5.754-2.018-.639-.211-1.254-.424-1.8-.631-.207-.08-.4-.158-.585-.235-.263-.111-.5-.219-.7-.325a15.274,15.274,0,0,1-1.585-.848c-2.248-1.325-5.547-3.557-5.547-3.557a33.147,33.147,0,0,0,2.78,3.709,5.243,5.243,0,0,0,.4.38,2.058,2.058,0,0,0,.255.188c1.088.994,6.591,3.338,6.591,3.338a63.373,63.373,0,0,1-6.71-1.57l-.1-.034c-.062-.02-.123-.042-.18-.063a22.447,22.447,0,0,1-4.179-2.031h0c-.006-.006-4.217-3.962-4.8-3.915.01.084.034.361.066.75.113,1.424.333,4.362.43,4.945.124.742,1.451,2.9,1.451,3.585s-.214,2.356-.214,3.842c0,.895,2.692,4.748,4.832,7.675h1.642l.643-.867Z" transform="translate(-52.569 -10.273)" fill="#fbc0a2"/>
        <path id="Trazado_651465" data-name="Trazado 651465" d="M519.395,218.872l.165-.984-1.362-1.857.867-2.1s-1.889-.742-1.981-1.671a4.29,4.29,0,0,1,.865-2.228h1.61l.618-1.671,1.074-.427.511-.688h-9.878v8.665c0,.824.954,1.687,1.759,2.269a11.218,11.218,0,0,0,1.088.7Z" transform="translate(-52.352 -12.978)" fill="#e6e6e3"/>
        <path id="Trazado_651466" data-name="Trazado 651466" d="M527.319,225.435l.055-.327.969.838c.834.495,1.414,12.612,1.414,12.612l9.726-1.906-.271-1.539-.286-1.618-1.61-9.656-1.917-4.108-1.548-3.319-3.714-4.951-6.066-4.085-.991-1.115-.643.867-.511.688-1.074.427-.618,1.671h-1.61a4.29,4.29,0,0,0-.865,2.228c.092.928,1.981,1.671,1.981,1.671l-.867,2.1,1.362,1.857-.165.984-.084.5a12.707,12.707,0,0,0,.743,2.476c.358.766,4.22,2.571,6.336,3.577h0Z" transform="translate(-53.027 -12.866)" fill="#f7cdbf"/>
        <path id="Trazado_651467" data-name="Trazado 651467" d="M549.177,212.618,546.206,223.2l-4.826,11.326-.829,1.06.271,1.539-9.726,1.906-1.72.722s.02.756.126,2.034a128.785,128.785,0,0,0,2.864,14.687h0a32.224,32.224,0,0,0,5.326,10.289c.349.422,3.383,3.978,6.827,4.313h.016a5.63,5.63,0,0,0,4.643-1.827s14.669-40.48,14.762-44.843A25.045,25.045,0,0,0,562.9,216.1a6.031,6.031,0,0,0-.82-1.627,8.559,8.559,0,0,0-3.456-2.374h0l-4.434-1.71Zm-3.133,38.83-3.834-14.785,5.541-13.034,1.387-.234-5.807,13.144,3.605,13.359,2.241,6.913Z" transform="translate(-54.365 -13.341)" fill="#179587"/>
        <path id="Trazado_651468" data-name="Trazado 651468" d="M531.482,310.951l.436-.234s-.161.081-.442.226Z" transform="translate(-54.607 -24.89)" fill="#f9ab21"/>
        <path id="Trazado_651469" data-name="Trazado 651469" d="M543.4,278.409l-.017,0c-3.444-.334-6.478-3.891-6.827-4.313-.021-.028-.035-.043-.035-.043l3.56,6.986,0,0a11.083,11.083,0,0,1,.171,1.689v0c.038,1.55-.246,3.686-2,4.249-2.834.908-18.749,6.015-18.749,6.015l5.133,4.943,5.9,8.558s4.642,4.639,5.328,7.469,13.282,5.512,13.282,5.512-.3.048-.812.135l.812.173a12.96,12.96,0,0,0,3.051,3.946,5.394,5.394,0,0,0,1.07.672c1.334.619,4.093.093,6.828-.672,2.252-.625,4.485-1.41,5.9-1.845,2.515-.777,8.163.767,14.447,1.845,1.546.267,3.131.5,4.715.672a32.905,32.905,0,0,0,9.476-.672A62.791,62.791,0,0,0,604,321.1s-.534-.076-1.368-.264a.037.037,0,0,0-.015,0c-2.243-.51-6.614-1.826-8.568-4.626a5.725,5.725,0,0,1-.57-1.026l-12.59-29.658-3.958-6.217-22.808,7.678h-8.728Z" transform="translate(-53.229 -20.67)" fill="#f1b62b"/>
        <path id="Trazado_651470" data-name="Trazado 651470" d="M522.731,314.585l-.726.383a7.52,7.52,0,0,0-2.425,2.827c-1.584,3.115-2.362,7.754-3.077,10.369.139,5.345,4.16,28.98,5.59,37.248.179,1.029.317,1.821.4,2.31h11.075c.21-3.588,1.359-23.338,1.371-26.607a38.925,38.925,0,0,0-1.355-7.235c-.437-1.79-.856-3.51-1.04-4.762a7.394,7.394,0,0,1-.1-1.165,1.109,1.109,0,0,1,.176-.711c.832-.89,12.208-2.872,15.37-3.409.513-.088.812-.135.812-.135s-12.6-2.68-13.282-5.512-5.328-7.469-5.328-7.469l-.436.234C528.656,311.543,525.633,313.157,522.731,314.585Z" transform="translate(-52.884 -24.89)" fill="#f7cdbf"/>
        <path id="Trazado_651471" data-name="Trazado 651471" d="M508.621,299.492l-16.376,38.622,9.484,4.323c2.03-2.165,9.767-10.571,11.571-14.77a10.619,10.619,0,0,0,.411-1.259c.715-2.615,1.493-7.254,3.077-10.369a6.288,6.288,0,0,1,2.418-2.824l.008,0,.726-.383c2.608-1.372,5.857-3.045,7.022-3.641.281-.145.442-.227.442-.227l-5.9-8.558-5.133-4.943-5.469,1.5Z" transform="translate(-50.091 -23.134)" fill="#fbc0a2"/>
        <path id="Trazado_651472" data-name="Trazado 651472" d="M457.263,359.764l-1.691,2.442s9.486,7.7,14.84,8.451,10.236-2.253,12.959-3c3.778-1.042,3.3-.77,11.833-1.026a11.231,11.231,0,0,0,1.41-6.018c-.375-2.912-1.41-.659-.657-4.133a31.036,31.036,0,0,1,3.38-7.76l-1.831-.834-9.484-4.323-1.77-.807-4.378,8.263-13.717,7.856-3.14.258-4.106.335Z" transform="translate(-45.869 -28.578)" fill="#262e2e"/>
        <path id="Trazado_651473" data-name="Trazado 651473" d="M531.752,375.139H517.476s.058,4.768-.263,8.263a8.917,8.917,0,0,1-.738,3.436c-1.127,1.5-11.29,8.273-11.29,8.273l-9.121.627-1.5,1.751a23.684,23.684,0,0,0,7.031,4.713c3.776,1.458,13.236,0,13.236,0s3.526-3.334,6.28-4.108,11.306-1.1,11.306-1.1.1-.142.258-.383c.548-.85,1.752-2.941,1.46-4.5-.376-2-1.717-6.387-1.717-6.387v-8.265Z" transform="translate(-50.358 -32.307)" fill="#262e2e"/>
        <path id="Trazado_651474" data-name="Trazado 651474" d="M524.664,246.793a56.735,56.735,0,0,0,7.112,11.661h0a128.76,128.76,0,0,1-2.864-14.687,12.666,12.666,0,0,1-.126-2.034l1.72-.722-.54-7.79-.874-4.823-.969-.838-.055.327v0L525.934,240.4l-1.271,2.309v0A5.1,5.1,0,0,0,524.664,246.793Z" transform="translate(-53.776 -15.317)" fill="#f1b62b"/>
      </g>
    </g>
  </g>
</svg>
