<svg xmlns="http://www.w3.org/2000/svg" xmlns:xlink="http://www.w3.org/1999/xlink" width="445.955" height="274" viewBox="0 0 445.955 274">
  <defs>
    <linearGradient id="linear-gradient" x1="45.232" y1="-1.376" x2="45.466" y2="0.148" gradientUnits="objectBoundingBox">
      <stop offset="0" stop-color="#4042e2"/>
      <stop offset="1" stop-color="#4f52ff"/>
    </linearGradient>
    <linearGradient id="linear-gradient-2" x1="1.087" y1="-2.363" x2="1.398" y2="-0.333" xlink:href="#linear-gradient"/>
    <linearGradient id="linear-gradient-3" x1="0.316" y1="-1.273" x2="0.478" y2="0.409" xlink:href="#linear-gradient"/>
    <linearGradient id="linear-gradient-4" x1="123.656" y1="-0.883" x2="124.115" y2="1.082" xlink:href="#linear-gradient"/>
    <linearGradient id="linear-gradient-5" x1="53.257" y1="-0.654" x2="53.458" y2="1.729" xlink:href="#linear-gradient"/>
    <linearGradient id="linear-gradient-6" x1="0.973" y1="-1.317" x2="1.207" y2="0.206" xlink:href="#linear-gradient"/>
    <linearGradient id="linear-gradient-7" y1="0.5" x2="1" y2="0.5" gradientUnits="objectBoundingBox">
      <stop offset="0" stop-color="#53d8ff"/>
      <stop offset="1" stop-color="#3840f7"/>
    </linearGradient>
    <linearGradient id="linear-gradient-8" x1="-1.479" y1="0.443" x2="0.472" y2="0.499" gradientUnits="objectBoundingBox">
      <stop offset="0" stop-color="#dae3fe"/>
      <stop offset="1" stop-color="#e9effd"/>
    </linearGradient>
    <linearGradient id="linear-gradient-9" x1="-1.045" y1="-5.809" x2="0.478" y2="0.412" xlink:href="#linear-gradient-8"/>
    <linearGradient id="linear-gradient-10" x1="-1.044" y1="-6.66" x2="0.478" y2="0.4" xlink:href="#linear-gradient-8"/>
    <linearGradient id="linear-gradient-11" x1="-2.306" y1="5.343" x2="-1.928" y2="5.405" xlink:href="#linear-gradient-8"/>
    <linearGradient id="linear-gradient-12" x1="-1.766" y1="0.461" x2="0.468" y2="0.499" xlink:href="#linear-gradient-8"/>
    <linearGradient id="linear-gradient-21" x1="2.906" y1="-3.437" x2="1.961" y2="-1.878" gradientUnits="objectBoundingBox">
      <stop offset="0" stop-color="#fe7062"/>
      <stop offset="1" stop-color="#ff928e"/>
    </linearGradient>
    <linearGradient id="linear-gradient-22" x1="0" y1="0.5" x2="1" y2="0.5" xlink:href="#linear-gradient-8"/>
    <linearGradient id="linear-gradient-27" x1="-8.094" y1="0.373" x2="-10.888" y2="-1.403" xlink:href="#linear-gradient-7"/>
    <linearGradient id="linear-gradient-28" x1="-183.128" y1="-0.533" x2="-181.386" y2="0.313" xlink:href="#linear-gradient-21"/>
    <linearGradient id="linear-gradient-29" x1="0.157" y1="0.677" x2="4.298" y2="-3.748" gradientUnits="objectBoundingBox">
      <stop offset="0" stop-color="#09005d"/>
      <stop offset="1" stop-color="#1a0f91"/>
    </linearGradient>
    <linearGradient id="linear-gradient-30" x1="-188.379" y1="-0.653" x2="-187.397" y2="-0.653" gradientUnits="objectBoundingBox">
      <stop offset="0" stop-color="#ff928e"/>
      <stop offset="1" stop-color="#feb3b1"/>
    </linearGradient>
    <linearGradient id="linear-gradient-31" x1="-173.143" y1="-0.525" x2="-173.631" y2="-0.064" xlink:href="#linear-gradient-21"/>
    <linearGradient id="linear-gradient-32" x1="-160.67" y1="-0.493" x2="-161.085" y2="-0.097" xlink:href="#linear-gradient-21"/>
    <linearGradient id="linear-gradient-33" x1="-51.031" y1="-24.67" x2="-50.388" y2="-22.424" xlink:href="#linear-gradient-21"/>
    <linearGradient id="linear-gradient-34" x1="-48.73" y1="-15.784" x2="-47.943" y2="-15.784" xlink:href="#linear-gradient-29"/>
    <linearGradient id="linear-gradient-35" x1="-170.201" y1="-18.483" x2="-168.918" y2="-18.483" xlink:href="#linear-gradient-30"/>
    <linearGradient id="linear-gradient-36" x1="-97.779" y1="-18.58" x2="-98.806" y2="-16.979" xlink:href="#linear-gradient-21"/>
    <linearGradient id="linear-gradient-37" x1="-88.745" y1="-17.985" x2="-89.763" y2="-16.276" xlink:href="#linear-gradient-21"/>
    <linearGradient id="linear-gradient-38" x1="-71.538" y1="-1.202" x2="-73.329" y2="-2.136" xlink:href="#linear-gradient-29"/>
    <linearGradient id="linear-gradient-39" x1="0.475" y1="-0.009" x2="0.538" y2="1.285" xlink:href="#linear-gradient-30"/>
    <linearGradient id="linear-gradient-40" x1="0.801" y1="-0.198" x2="0.002" y2="1.289" xlink:href="#linear-gradient-30"/>
    <linearGradient id="linear-gradient-41" x1="-368.942" y1="-3.439" x2="-373.713" y2="-1.037" xlink:href="#linear-gradient-30"/>
    <linearGradient id="linear-gradient-42" x1="-166.497" y1="-0.746" x2="-167.24" y2="-0.157" xlink:href="#linear-gradient-21"/>
    <linearGradient id="linear-gradient-43" x1="-44.375" y1="-1.127" x2="-44.983" y2="0.542" xlink:href="#linear-gradient-21"/>
    <linearGradient id="linear-gradient-44" x1="-48.543" y1="-1.223" x2="-49.13" y2="0.427" xlink:href="#linear-gradient-21"/>
    <linearGradient id="linear-gradient-45" x1="-110.962" y1="-0.063" x2="-109.719" y2="-1.638" xlink:href="#linear-gradient-29"/>
    <linearGradient id="linear-gradient-46" x1="-91.225" y1="0.676" x2="-92.096" y2="0.452" xlink:href="#linear-gradient"/>
    <linearGradient id="linear-gradient-47" x1="-152.024" y1="-6.793" x2="-152.761" y2="-2.945" xlink:href="#linear-gradient-21"/>
    <linearGradient id="linear-gradient-48" x1="-206.369" y1="-0.73" x2="-206.974" y2="-0.322" xlink:href="#linear-gradient-21"/>
    <linearGradient id="linear-gradient-49" x1="-162.411" y1="-6.537" x2="-163.184" y2="-2.892" xlink:href="#linear-gradient-21"/>
    <linearGradient id="linear-gradient-50" x1="-8.16" y1="15.005" x2="-10.409" y2="16.301" xlink:href="#linear-gradient-29"/>
    <linearGradient id="linear-gradient-51" x1="-0.256" y1="16.705" x2="-2.627" y2="17.946" xlink:href="#linear-gradient-29"/>
    <linearGradient id="linear-gradient-52" x1="0.788" y1="-1.221" x2="0.608" y2="-0.144" xlink:href="#linear-gradient-29"/>
    <linearGradient id="linear-gradient-53" x1="1.534" y1="-21.153" x2="1.045" y2="-11.053" xlink:href="#linear-gradient-29"/>
    <linearGradient id="linear-gradient-54" x1="0.5" y1="0.242" x2="0.456" y2="2.109" xlink:href="#linear-gradient-29"/>
    <linearGradient id="linear-gradient-55" x1="0.435" y1="0.11" x2="1.257" y2="5.696" xlink:href="#linear-gradient-29"/>
    <linearGradient id="linear-gradient-56" x1="-0.89" y1="9.133" x2="0.191" y2="2.373" gradientUnits="objectBoundingBox">
      <stop offset="0" stop-color="#a22b25"/>
      <stop offset="1" stop-color="#c0423c"/>
    </linearGradient>
    <linearGradient id="linear-gradient-57" x1="1.275" y1="-0.542" x2="-0.876" y2="2.275" xlink:href="#linear-gradient-56"/>
    <linearGradient id="linear-gradient-58" x1="0.081" y1="3.312" x2="-1.072" y2="10.783" xlink:href="#linear-gradient-56"/>
    <linearGradient id="linear-gradient-59" x1="-0.606" y1="8.559" x2="0.418" y2="0.945" xlink:href="#linear-gradient-56"/>
    <linearGradient id="linear-gradient-60" x1="-4.44" y1="7.467" x2="-1.463" y2="3.29" xlink:href="#linear-gradient-56"/>
    <linearGradient id="linear-gradient-61" x1="1.037" y1="1.81" x2="-0.265" y2="-1.331" gradientUnits="objectBoundingBox">
      <stop offset="0" stop-color="#e1473d"/>
      <stop offset="1" stop-color="#e9605a"/>
    </linearGradient>
    <linearGradient id="linear-gradient-62" x1="0.816" y1="1.845" x2="0.048" y2="-1.387" xlink:href="#linear-gradient-61"/>
    <linearGradient id="linear-gradient-63" x1="1.006" y1="0.092" x2="-2.908" y2="2.804" xlink:href="#linear-gradient-30"/>
    <linearGradient id="linear-gradient-64" x1="1.192" y1="-0.353" x2="-0.123" y2="1.137" xlink:href="#linear-gradient-30"/>
    <linearGradient id="linear-gradient-65" x1="0.362" y1="0.521" x2="-0.658" y2="1.579" xlink:href="#linear-gradient"/>
    <linearGradient id="linear-gradient-66" x1="-0.16" y1="-0.191" x2="1.984" y2="2.225" xlink:href="#linear-gradient-30"/>
    <linearGradient id="linear-gradient-67" x1="2.58" y1="-4.058" x2="-0.86" y2="3.366" xlink:href="#linear-gradient-30"/>
    <linearGradient id="linear-gradient-68" x1="3.788" y1="-6.36" x2="0.301" y2="1.144" xlink:href="#linear-gradient-30"/>
    <linearGradient id="linear-gradient-69" x1="0.511" y1="1.753" x2="0.489" y2="-0.794" xlink:href="#linear-gradient-30"/>
    <linearGradient id="linear-gradient-70" x1="0.565" y1="-0.151" x2="0.474" y2="0.724" xlink:href="#linear-gradient-30"/>
    <linearGradient id="linear-gradient-71" x1="0.914" y1="-1.978" x2="0.327" y2="1.428" xlink:href="#linear-gradient-30"/>
    <linearGradient id="linear-gradient-72" x1="15.363" y1="-2.575" x2="16.616" y2="-0.138" xlink:href="#linear-gradient-61"/>
    <linearGradient id="linear-gradient-73" x1="95.16" y1="-25.444" x2="90.811" y2="-10.718" xlink:href="#linear-gradient-8"/>
    <linearGradient id="linear-gradient-74" x1="103.01" y1="-38.394" x2="99.304" y2="-23.932" xlink:href="#linear-gradient-8"/>
    <linearGradient id="linear-gradient-75" x1="-30.379" y1="-61.763" x2="-29.899" y2="-59.883" xlink:href="#linear-gradient-30"/>
    <linearGradient id="linear-gradient-76" x1="0.541" y1="-0.085" x2="0.468" y2="0.932" xlink:href="#linear-gradient-56"/>
    <linearGradient id="linear-gradient-77" x1="0.076" y1="1.286" x2="1.752" y2="-1.896" xlink:href="#linear-gradient-56"/>
    <linearGradient id="linear-gradient-78" x1="0.086" y1="1.147" x2="0.65" y2="0.354" xlink:href="#linear-gradient-30"/>
    <linearGradient id="linear-gradient-79" x1="-0.024" y1="1.02" x2="0.439" y2="0.577" xlink:href="#linear-gradient-30"/>
    <linearGradient id="linear-gradient-80" x1="0.369" y1="0.394" x2="1.883" y2="3.567" xlink:href="#linear-gradient-30"/>
    <linearGradient id="linear-gradient-81" x1="-94.476" y1="0.5" x2="-93.476" y2="0.5" xlink:href="#linear-gradient-30"/>
    <linearGradient id="linear-gradient-82" x1="-0.759" y1="-1.84" x2="-0.061" y2="-0.544" xlink:href="#linear-gradient-30"/>
  </defs>
  <g id="Grupo_1000272" data-name="Grupo 1000272" transform="translate(-271 -1785)">
    <g id="Grupo_901905" data-name="Grupo 901905" transform="translate(139.654 1657.026)">
      <g id="Grupo_901828" data-name="Grupo 901828" transform="translate(135.521 127.974)">
        <path id="Trazado_650126" data-name="Trazado 650126" d="M578.745,230.27c-3.276-3.1-6.9-5.884-9.55-9.523-6.29-8.624-6.016-20.316-4.447-30.874s4.155-21.388,1.6-31.751c-2.566-10.39-10.327-19.155-19.939-23.861s-20.882-5.53-31.342-3.265c-10.515,2.277-20.153,7.485-30.438,10.641s-22.194,4-31.151-1.96c-4.518-3.007-7.977-7.554-12.873-9.9-6.211-2.971-13.6-1.851-20.142.293-8.681,2.845-16.714,7.334-24.686,11.8-13.674,7.652-27.23,17.1-42.288,21.607-14.86,4.444-30.083,6.593-45.36,9.056-21.725,3.5-45.83-5.48-66.853-10.081-14.553-3.185-29.606-5.479-44.527-4.073-6.393.6-15.524,1.417-21.02,5.063-4.6,3.055-9,9.063-11.743,13.788-9.907,17.047-7.905,35.239-.722,52.745,5.884,14.341,13.578,28.565,13.848,44.064a111.4,111.4,0,0,1-2.237,22.969c-1.547,7.587-7.541,15.578-11.116,22.446a116.108,116.108,0,0,0-6.845,14.805c-5.8,16.429-9.273,44.139,11.086,51.874,9.37,3.56,17.424,1.307,26.73.073,21.33-2.828,40.606,4.223,61.489,6.221a198.4,198.4,0,0,0,85.862-10.662c10.242-3.692,20.981-7.6,30.726-12.464,8.526-4.254,18.522-3.652,27.992-3,22.158,1.534,43.56,8.057,65.037,13.262a548.344,548.344,0,0,0,80.032,13.22c5.734.516,11.659.92,17.119-.906,7.82-2.615,13.591-9.547,16.773-17.154,5.5-13.149,6.715-26.654,7.134-40.578.463-15.391,4.348-30.433,6.3-45.654,2.549-19.927,1.054-42.343-12.943-56.753C579.754,231.241,579.254,230.752,578.745,230.27Z" transform="translate(-152.426 -127.974)" fill="#fff"/>
      </g>
      <g id="Grupo_901830" data-name="Grupo 901830" transform="translate(447.151 189.735)">
        <g id="Grupo_901829" data-name="Grupo 901829" transform="translate(0 0)">
          <path id="Trazado_650127" data-name="Trazado 650127" d="M1784.95,534.532c1.468-13.224-3.914-28.122-6.855-41.925-1.555-7.3-2.431-14.568-1.547-22.019.878-7.408,4.018-15.508.535-22.714-7.018-14.518-22.025-7.181-30.33,4.293-9.637,13.315-11.567,34.518-14.773,50.914-1.933,9.884-5.033,20.067-5.859,30.094-1.369,16.61,2.828,27.935,11.045,35.368a23.947,23.947,0,0,0,28.563,2.669C1773.924,566.208,1782.582,555.865,1784.95,534.532Z" transform="translate(-1725.866 -439.808)" fill="#179587"/>
          <path id="Trazado_650128" data-name="Trazado 650128" d="M1835.349,644.286a.366.366,0,0,1-.207-.258,333.631,333.631,0,0,1-5.359-47.741,317.091,317.091,0,0,1,1.277-46.654,216.784,216.784,0,0,1,11.008-50.3.367.367,0,0,1,.691.248A216.054,216.054,0,0,0,1831.79,549.7a316.277,316.277,0,0,0-1.275,46.54,332.809,332.809,0,0,0,5.345,47.636.367.367,0,0,1-.511.409Z" transform="translate(-1808.939 -487.348)" fill="url(#linear-gradient)"/>
        </g>
      </g>
      <g id="Grupo_901832" data-name="Grupo 901832" transform="translate(473.359 234.683)">
        <g id="Grupo_901831" data-name="Grupo 901831" transform="translate(0 0)">
          <path id="Trazado_650129" data-name="Trazado 650129" d="M1902.556,737.877c1.1-9.929-2.938-21.114-5.147-31.478a50.25,50.25,0,0,1-1.161-16.532c.659-5.562,3.017-11.644.4-17.055-5.27-10.9-16.537-5.392-22.772,3.223-7.236,10-8.685,25.917-11.092,38.228-1.451,7.421-3.779,15.067-4.4,22.6-1.028,12.471,2.123,20.974,8.293,26.555a17.98,17.98,0,0,0,21.446,2C1894.277,761.66,1900.778,753.894,1902.556,737.877Z" transform="translate(-1858.194 -666.756)" fill="#12776c"/>
          <path id="Trazado_650130" data-name="Trazado 650130" d="M1940.4,820.283a.276.276,0,0,1-.156-.194,250.5,250.5,0,0,1-4.023-35.845,238,238,0,0,1,.958-35.029,162.767,162.767,0,0,1,8.266-37.766.275.275,0,1,1,.518.186,162.216,162.216,0,0,0-8.235,37.632,237.467,237.467,0,0,0-.957,34.943,249.882,249.882,0,0,0,4.013,35.766.275.275,0,0,1-.384.307Z" transform="translate(-1920.568 -702.451)" fill="url(#linear-gradient-2)"/>
        </g>
      </g>
      <g id="Grupo_901848" data-name="Grupo 901848" transform="translate(162.81 175.516)">
        <g id="Grupo_901833" data-name="Grupo 901833" transform="translate(218.724 10.74)">
          <path id="Trazado_650131" data-name="Trazado 650131" d="M1447.315,504.013c-.56-11.979-7.453-24.481-12.02-36.354a60.324,60.324,0,0,1-4.485-19.383c-.264-6.719,1.388-14.372-2.729-20.3-8.3-11.933-20.62-3.284-26.393,8.1-6.7,13.213-5.425,32.36-5.965,47.408-.325,9.072-1.647,18.574-.968,27.616,1.125,14.979,6.46,24.469,14.824,29.925a21.584,21.584,0,0,0,25.8-1.656C1441.97,533.767,1448.218,523.337,1447.315,504.013Z" transform="translate(-1394.564 -422.246)" fill="#179587"/>
          <path id="Trazado_650132" data-name="Trazado 650132" d="M1484.941,608.589a.991.991,0,0,0,1.048-1.336c-.258-.678-25.668-68.428-14.193-129.067a.99.99,0,1,0-1.946-.368c-11.58,61.2,14.028,129.458,14.288,130.141A.991.991,0,0,0,1484.941,608.589Z" transform="translate(-1452.529 -466.164)" fill="url(#linear-gradient-3)"/>
        </g>
        <g id="Grupo_901834" data-name="Grupo 901834" transform="translate(269.998 32.537)">
          <path id="Trazado_650133" data-name="Trazado 650133" d="M1676.158,640.046c-1.514-1.957-2.7-4.124-4.343-5.985-3.487-3.945-7.765-6.488-12.037-9.409-2.935-2.007-7.994-5.605-5.785-9.781,1.085-2.049,3.522-2.935,5.654-3.25,6.448-.951,9.114-.057,5.711-7.086-1.889-3.9-5.084-7-7.044-10.816-1.981-3.854-5.635-15.632-2.036-19.625,6.392-7.092,16.365,10.415,18.737,14.4a3.231,3.231,0,0,1,.233.493,1.161,1.161,0,0,0,2.228-.222,5.387,5.387,0,0,0,.077-1.913,26.61,26.61,0,0,0-3.389-7.3,83.4,83.4,0,0,0-5.978-8.579c-2.418-3.127-4.279-6.569-4.028-10.622.247-3.987,1.989-7.7,3.455-11.356,1.938-4.827,2.582-10.866,6.686-14.5,4.848-4.288,11.608-1.638,15.879,2.2,6.915,6.209,6.452,15.23,4.772,23.585-1.19,5.917-5.666,15.625-3.768,21.968a1.16,1.16,0,0,0,1.892.526,11.831,11.831,0,0,0,2.3-3.529c2.388-4.74,4.206-9.822,6.164-14.75,1.348-3.392,2.953-9.179,6.78-10.6,4.48-1.664,6.79,7.1,7.166,9.907,1.927,14.411-9.088,24.854-12.867,37.86-.778,2.679-2.691,7.7-1.612,10.4,2.076,5.213,7.046-2.531,9.676-4.2,3.651-2.315,10.623-4.239,12.164,1.215,1.791,6.337-2.2,13.3-7.4,16.764-4.167,2.778-9.261,4.729-13.025,8.046-3.443,3.034.133,6.783,3.79,4.48,1.51-.95,2.975-2.056,4.406-3.12,1.387-1.031,5.278-4.788,7.051-2.764,1.353,1.546.4,5.148.1,6.863-3.4,19.213-10.872,17.891-19.248,23.748a9.537,9.537,0,0,0-3.872,7.2c-.109,1.237,1.082,5.448-.1,6.178-1.627,1-5.1-1.994-6.143-2.839-1.935-1.563-4.1-2.794-6.033-4.361-3.335-2.7-8.651-6.592-9.417-11.158-.38-2.262,1.275-3.664,3.275-4.382,3.387-1.216,8.7-3.361,5.2-7.533C1679.686,644.143,1677.813,642.185,1676.158,640.046Z" transform="translate(-1653.45 -532.302)" fill="#a7d6d5"/>
          <path id="Trazado_650134" data-name="Trazado 650134" d="M1784.138,686.923a.5.5,0,0,0,.354-.606c-.059-.232-5.859-23.443-4.967-40.318.888-16.788-3.789-47.882-6.906-55.722-1.88-4.73-2.652-10.06-3.464-15.052a130.869,130.869,0,0,1-1.828-18.183,48.592,48.592,0,0,1,.338-7.71c.132-.947.846-2.409.824-3.257s-.9-1.373-1.328-.16a21,21,0,0,0-.646,4.5,63.191,63.191,0,0,0-.053,10.414,148.45,148.45,0,0,0,2.319,17.969,63.967,63.967,0,0,0,2.906,11.85c2.763,6.95,7.773,37.58,6.836,55.3-.9,17.027,4.937,40.382,5,40.616a.5.5,0,0,0,.608.363Z" transform="translate(-1743.929 -542.652)" fill="#7d97f4"/>
        </g>
        <g id="Grupo_901835" data-name="Grupo 901835" transform="translate(237.438 39.469)">
          <path id="Trazado_650135" data-name="Trazado 650135" d="M1527.621,616.24a25.8,25.8,0,0,1-2.671-9.422c-.6-8.491,4.339-16.311,7.966-23.622,3.333-6.719,5.81-16.732-5.436-15.841-8.96.71-19.492,9.638-20.694,18.949-1.422,11.019,3.943,24.915-2.418,34.925-8.9,14-15.316,10.794-15.316,34.424,0,10.1,5.593,15.667,12,18.734a26.808,26.808,0,0,0,30.223-4.911c7.117-6.887,11.349-16.789,9.917-26.729C1539.746,632.708,1531.871,625.095,1527.621,616.24Z" transform="translate(-1489.052 -567.3)" fill="#d2eaed"/>
          <path id="Trazado_650136" data-name="Trazado 650136" d="M1607.069,708.52a.518.518,0,0,1-.5-.392c-5.577-22.263-8.613-42.445-9.024-59.987-.329-14.055,1.018-26.461,4-36.874,5.107-17.819,13.145-23.56,13.485-23.8a.518.518,0,0,1,.591.85h0a23.368,23.368,0,0,0-4.663,5.03c-2.418,3.308-5.848,9.175-8.457,18.339-2.937,10.314-4.256,22.611-3.92,36.549.42,17.437,3.444,37.5,8.99,59.638a.518.518,0,0,1-.376.628A.524.524,0,0,1,1607.069,708.52Z" transform="translate(-1576.018 -583.402)" fill="#7d97f4"/>
        </g>
        <g id="Grupo_901836" data-name="Grupo 901836" transform="translate(335.75 61.78)">
          <path id="Trazado_650137" data-name="Trazado 650137" d="M2018.094,680.287c2.2.5,4.425,1.416,5.309,2.573,3.986,5.22-1.528,12.876-3.333,17.886-3.1,8.606-3.878,17.888-1.014,26.653,3.1,9.5,5.186,18.884,4.293,28.773-.46,5.094-1.909,10.535-5.607,14.723-6.988,7.912-25.983,4.366-30.047-4.093-3.241-6.746-2.518-14.238-.787-21.157,2.911-11.64,8.049-22.773,11.049-34.392,2.294-8.885.2-26.344,12.35-30.636A15.608,15.608,0,0,1,2018.094,680.287Z" transform="translate(-1985.437 -679.948)" fill="#d2eaed"/>
          <path id="Trazado_650138" data-name="Trazado 650138" d="M2060.43,802.6a.479.479,0,0,0,.173-.029.587.587,0,0,0,.334-.724c-8.774-29.393-5.674-56.26-1.527-73.624,4.5-18.831,11.16-30.86,11.227-30.98a.6.6,0,0,0-.172-.787.5.5,0,0,0-.72.191c-.067.121-6.8,12.265-11.338,31.25-4.189,17.521-7.323,44.635,1.536,74.309A.528.528,0,0,0,2060.43,802.6Z" transform="translate(-2040.633 -693.116)" fill="#7d97f4"/>
        </g>
        <g id="Grupo_901837" data-name="Grupo 901837" transform="translate(205.849 53.089)">
          <path id="Trazado_650139" data-name="Trazado 650139" d="M1373.37,706.6c1.476-9.723-2.058-20.886-3.822-31.168a49.476,49.476,0,0,1-.49-16.309c.868-5.446,3.427-11.335,1.067-16.761-4.754-10.93-16.055-5.956-22.528,2.273-7.512,9.549-9.565,25.152-12.418,37.167-1.72,7.243-4.311,14.673-5.219,22.054-1.5,12.227,1.262,20.716,7.111,26.449a17.7,17.7,0,0,0,21.017,2.817C1364.288,729.669,1370.989,722.286,1373.37,706.6Z" transform="translate(-1329.557 -636.067)" fill="#91b3fa"/>
          <path id="Trazado_650140" data-name="Trazado 650140" d="M1407.25,784.758a.666.666,0,0,1-.656-.556,243.341,243.341,0,0,1-2.55-35.484c-.06-18.917,1.969-46.659,11.973-71.394a.666.666,0,0,1,1.236.5c-9.919,24.527-11.933,52.074-11.876,70.864a242.045,242.045,0,0,0,2.532,35.292.667.667,0,0,1-.658.777Z" transform="translate(-1389.29 -668.819)" fill="#7d97f4"/>
        </g>
        <g id="Grupo_901839" data-name="Grupo 901839" transform="translate(1.276 59.167)">
          <g id="Grupo_901838" data-name="Grupo 901838">
            <path id="Trazado_650141" data-name="Trazado 650141" d="M296.84,737.877c-1.1-9.929,2.938-21.114,5.147-31.478a50.255,50.255,0,0,0,1.162-16.532c-.66-5.562-3.017-11.644-.4-17.055,5.27-10.9,16.537-5.392,22.772,3.223,7.236,10,8.685,25.917,11.092,38.228,1.451,7.421,3.779,15.067,4.4,22.6,1.028,12.471-2.123,20.974-8.293,26.555a17.98,17.98,0,0,1-21.446,2C305.119,761.66,298.619,753.894,296.84,737.877Z" transform="translate(-296.653 -666.756)" fill="#a7d6d5"/>
            <path id="Trazado_650142" data-name="Trazado 650142" d="M398.872,820.283a.274.274,0,0,0,.155-.194,250.446,250.446,0,0,0,4.024-35.845,238.008,238.008,0,0,0-.959-35.029,162.758,162.758,0,0,0-8.265-37.766.275.275,0,0,0-.519.186,162.226,162.226,0,0,1,8.235,37.632,237.464,237.464,0,0,1,.957,34.943,249.883,249.883,0,0,1-4.013,35.766.275.275,0,0,0,.384.307Z" transform="translate(-374.152 -702.451)" fill="#a7d6d5"/>
          </g>
        </g>
        <g id="Grupo_901840" data-name="Grupo 901840" transform="translate(148.524)">
          <path id="Trazado_650143" data-name="Trazado 650143" d="M1060.993,508.626c9.274.6,19.5-10.78,21.783-22.034,2.351-11.581-5.279-15.286-7.27-30.658-2.262-17.462,6.467-21.3,9.341-45.626.648-5.488,4.4-37.248-6.083-41.712-9.694-4.128-32.9,14.51-34.72,34.652-1.3,14.363,9.232,18.919,7.669,35.654-1.371,14.684-9.931,16.033-11.392,30.218C1038.543,486.392,1048.817,507.833,1060.993,508.626Z" transform="translate(-1040.12 -368.019)" fill="#179587"/>
          <path id="Trazado_650144" data-name="Trazado 650144" d="M1136.645,642.858c-4.938-18.48-4.049-48.124-2.434-69.737,1.749-23.4,4.7-42.691,4.731-42.883l.781.12c-.03.192-2.978,19.456-4.724,42.827-1.61,21.551-2.5,51.1,2.41,69.469Z" transform="translate(-1114.552 -498.109)" fill="url(#linear-gradient-4)"/>
        </g>
        <g id="Grupo_901842" data-name="Grupo 901842" transform="translate(108.552 6.581)">
          <g id="Grupo_901841" data-name="Grupo 901841">
            <path id="Trazado_650145" data-name="Trazado 650145" d="M838.547,495.97c-1.468-13.223,3.914-28.121,6.855-41.925,1.555-7.3,2.431-14.568,1.547-22.019-.878-7.408-4.018-15.508-.535-22.714,7.018-14.517,22.025-7.181,30.329,4.293,9.637,13.315,11.567,34.518,14.773,50.914,1.932,9.884,5.032,20.068,5.859,30.094,1.369,16.61-2.828,27.935-11.045,35.368a23.947,23.947,0,0,1-28.563,2.669C849.574,527.645,840.916,517.3,838.547,495.97Z" transform="translate(-838.298 -401.245)" fill="#91b3fa"/>
            <path id="Trazado_650146" data-name="Trazado 650146" d="M974.44,605.723a.367.367,0,0,0,.207-.259,333.57,333.57,0,0,0,5.359-47.741,317.023,317.023,0,0,0-1.277-46.654,216.781,216.781,0,0,0-11.008-50.3.367.367,0,0,0-.691.248A216.028,216.028,0,0,1,978,511.138a316.257,316.257,0,0,1,1.275,46.54,332.849,332.849,0,0,1-5.345,47.636.367.367,0,0,0,.511.409Z" transform="translate(-941.516 -448.785)" fill="#7d97f4"/>
          </g>
        </g>
        <g id="Grupo_901843" data-name="Grupo 901843" transform="translate(0 3.764)">
          <path id="Trazado_650147" data-name="Trazado 650147" d="M344.18,523.443c45.416-.113,65.808-15.964,67.277-43.716-3.521,9.28-10.365,12.126-19.379,10.771,13.219-13.213,19.381-25.994,18.832-38.362l-2.788,1.665c1.153-7.427,2.94-14.205,6.024-19.656-10.959-1.694-20.368,2.415-29.236,8.545,7-15-25.692-42.073,3.524-54.355-12.971-3.151-27.661-.441-43.489,6.155l4.564-5.509c-16.605,5.85-23.219,21.894-25.117,42.748-11.593-.717-14.237-7.708-11.178-18.7-8.038,3.9-12.248,11.324-13.206,21.75l-3.051-4.137c-4.779,16.357-.317,32.533,10.435,46.3-8.741,1.6-14.188-4.11-16.342-11.629C285.827,494.939,305.173,513.586,344.18,523.443Z" transform="translate(-290.212 -387.023)" fill="#f3d386"/>
          <path id="Trazado_650148" data-name="Trazado 650148" d="M352.5,536.724c53.845-7.937,57.975-18.646,65.834-35.646-6.993,6.059-14.994,8.035-21.032,3.8,1.891-7.5,12.85-13.877,12.2-34.37l-2.1,2.93a44.341,44.341,0,0,1,5.048-19.519c-8.3-1.39-16.628,1.55-24.978,7.672,8.695-10.746-14.445-37.854-2.894-58.01-25.342,13.935-47.72,5.066-47,46.762-14.1.558-17.19-6.811-18.054-15.779-5.938,7.613-7.864,17.151-6.039,28.489l-4.117-4.173c-2.9,13.684,11,22.511,11.127,34.066-6.66,3.912-13.42,1.118-18.605-4.139C304.369,521.745,328.474,529.221,352.5,536.724Z" transform="translate(-299.582 -400.306)" fill="#f1b62b"/>
          <path id="Trazado_650149" data-name="Trazado 650149" d="M444.268,665.338c23.222,3.339,41.139-27.016,43.265-61.676-6.045,8.623-12.186-.073-22.4,13.082,6.589-16.981,1.564-32.366-6.562-52.38,1.094,18.916-21.187,13.358-28.258,49.308-3.792-9.291-8.918-8.162-9.24-17.228C407.387,632.684,430.461,662.744,444.268,665.338Z" transform="translate(-391.798 -529.24)" fill="#e3a208"/>
          <path id="Trazado_650150" data-name="Trazado 650150" d="M510.545,815.844a25.242,25.242,0,0,0-10.838,7.423c-7.194,8.177-10.813,19.283-7.933,30,1.634,6.082,4.789,10.139,10.779,11.5,2.362.538,6.725,1.228,8.926.088,8.729-4.52,8.855-14.676,6.1-23.059-1.351-4.114-3.413-7.927-4.674-12.075-1.473-4.845-1.528-10.2,1.2-14.685A18.913,18.913,0,0,0,510.545,815.844Z" transform="translate(-451.058 -730.268)" fill="#fff"/>
        </g>
        <g id="Grupo_901844" data-name="Grupo 901844" transform="translate(18.779 30.261)">
          <path id="Trazado_650151" data-name="Trazado 650151" d="M414.5,651.42c-16.881-.737-32.868-22.864-28.834-34.362,2.725-7.769,12.823-5.648,17.457-14.546,5.917-11.361-7.067-21.5-7.874-42.124-.687-17.554,7.616-38.343,17.585-39.526,10.436-1.238,25.529,18.672,24.023,35.6-.98,11.007-8.47,15.02-6.378,23.856,2.428,10.252,13.768,10.151,18.049,19.19C456.214,615.742,436.827,652.4,414.5,651.42Z" transform="translate(-385.03 -520.806)" fill="#a7d6d5"/>
          <path id="Trazado_650152" data-name="Trazado 650152" d="M524.055,818.634a.611.611,0,0,1-.868-.563c.689-45.5-14.117-90.993-14.266-91.447a.61.61,0,1,1,1.159-.382c.15.456,15.019,46.148,14.327,91.847A.611.611,0,0,1,524.055,818.634Z" transform="translate(-484.358 -685.218)" fill="url(#linear-gradient-5)"/>
        </g>
        <g id="Grupo_901845" data-name="Grupo 901845" transform="translate(181.314 45.341)">
          <path id="Trazado_650153" data-name="Trazado 650153" d="M1248.1,662.7c-.45-9.633-5.993-19.687-9.666-29.235a48.509,48.509,0,0,1-3.606-15.587c-.212-5.4,1.116-11.558-2.2-16.321-6.672-9.6-16.582-2.641-21.225,6.515-5.388,10.625-4.363,26.023-4.8,38.125-.262,7.3-1.325,14.937-.779,22.208.905,12.046,5.2,19.677,11.921,24.065a17.357,17.357,0,0,0,20.75-1.332C1243.8,686.628,1248.824,678.241,1248.1,662.7Z" transform="translate(-1205.677 -596.946)" fill="#a7d6d5"/>
          <path id="Trazado_650154" data-name="Trazado 650154" d="M1278.357,746.8a.8.8,0,0,0,.842-1.074c-.208-.545-20.641-55.028-11.414-103.793a.8.8,0,1,0-1.565-.3c-9.313,49.215,11.281,104.108,11.49,104.657A.8.8,0,0,0,1278.357,746.8Z" transform="translate(-1252.291 -632.264)" fill="#a7d6d5"/>
        </g>
        <g id="Grupo_901847" data-name="Grupo 901847" transform="translate(61.734 12.054)">
          <g id="Grupo_901846" data-name="Grupo 901846">
            <path id="Trazado_650155" data-name="Trazado 650155" d="M665.857,531.4c1.589-14.312-4.236-30.435-7.419-45.375-1.683-7.9-2.631-15.767-1.674-23.831.951-8.018,4.349-16.784.579-24.583-7.6-15.712-23.837-7.772-32.825,4.646-10.43,14.41-12.519,37.358-15.988,55.1-2.092,10.7-5.447,21.719-6.341,32.57-1.482,17.977,3.061,30.234,11.954,38.278a25.917,25.917,0,0,0,30.913,2.888C653.923,565.68,663.294,554.486,665.857,531.4Z" transform="translate(-601.912 -428.88)" fill="#179587"/>
            <path id="Trazado_650156" data-name="Trazado 650156" d="M720.4,650.182a.4.4,0,0,1-.224-.28c-1.553-7.4-4.765-27.728-5.8-51.669a343.143,343.143,0,0,1,1.382-50.493A234.62,234.62,0,0,1,727.674,493.3a.4.4,0,0,1,.747.268,233.829,233.829,0,0,0-11.871,54.245,342.276,342.276,0,0,0-1.38,50.369,360.212,360.212,0,0,0,5.784,51.556.4.4,0,0,1-.553.443Z" transform="translate(-691.82 -480.332)" fill="url(#linear-gradient-6)"/>
          </g>
        </g>
      </g>
      <path id="Trazado_650157" data-name="Trazado 650157" d="M133.323,1130.551c66.174-81.967,313.664-93.932,420.69,4.435,4.988,4.584,1.214,12.1-6.068,12.07l-405.695-1.673C133.451,1145.345,128.288,1136.787,133.323,1130.551Z" transform="translate(0 -751.533)" fill="#636363"/>
      <g id="Grupo_901849" data-name="Grupo 901849" transform="translate(241.212 175.298)">
        <path id="Trazado_650158" data-name="Trazado 650158" d="M754.826,525.265c50.743-7.424,70.987-28.418,68.169-59.672-2.445,10.938-9.637,15.219-19.929,15.153,12.652-16.892,17.485-32.167,14.884-45.9l-2.848,2.309c.1-8.486,1-16.35,3.575-22.937-12.522-.132-22.377,5.972-31.3,14.248,5.41-17.895-35.477-42.9-4.8-61.318-15-1.437-30.987,3.953-47.618,13.868l4.216-6.891c-17.619,9.207-22.433,28.2-21.2,51.814-13.072,1.062-17.151-6.328-15.5-19.1-8.357,5.647-11.869,14.624-11.265,26.431l-4.075-4.134c-2.713,19.05,4.874,36.413,19.1,50.067-9.513,3.19-16.518-2.314-20.134-10.372C685.024,502.784,709.644,520.516,754.826,525.265Z" transform="translate(-686.069 -366.915)" fill="#f3d386"/>
        <path id="Trazado_650159" data-name="Trazado 650159" d="M767.113,543.878c58.906-17.524,61.8-30.157,67.854-50.421-6.842,7.9-15.468,11.39-22.9,7.632.908-8.688,12.133-17.575,8.117-40.375l-1.878,3.613a50.066,50.066,0,0,1,2.505-22.628c-9.5-.22-18.336,4.4-26.685,12.589,7.992-13.407-22.228-39.988-12.557-64.372-26.085,19.647-52.521,13.331-45.011,59.817-15.673,2.89-20.308-4.85-22.714-14.735-5.413,9.464-6.034,20.434-2.172,32.812l-5.273-4c-1.037,15.76,15.916,23.392,17.911,36.287-6.815,5.442-14.82,3.407-21.46-1.636C710.911,534.87,739.055,539.352,767.113,543.878Z" transform="translate(-699.53 -385.36)" fill="#f1b62b"/>
        <path id="Trazado_650160" data-name="Trazado 650160" d="M867.5,699.556c26.491,0,41.639-36.806,38.446-75.887-5.371,10.609-13.632,1.876-22.93,18.221,4.636-20.038-3.453-36.427-15.751-57.49,4.262,20.966-21.534,18.334-23.66,59.652-5.732-9.775-11.278-7.689-13.1-17.77C821.036,668.985,851.656,698.876,867.5,699.556Z" transform="translate(-800.474 -541.326)" fill="#e3a208"/>
        <path id="Trazado_650161" data-name="Trazado 650161" d="M951.726,869.071a28.5,28.5,0,0,0-10.921,10.038c-6.727,10.295-8.987,23.29-4.046,34.806,2.8,6.534,6.982,10.563,13.9,11.124,2.727.221,7.714.292,9.991-1.336,9.03-6.455,7.539-17.826,3.114-26.753-2.171-4.381-5.088-8.311-7.164-12.744-2.425-5.179-3.347-11.153-1.015-16.606A21.365,21.365,0,0,0,951.726,869.071Z" transform="translate(-884.971 -768.435)" fill="#fff" opacity="0.69"/>
      </g>
      <g id="Grupo_901858" data-name="Grupo 901858" transform="translate(149.008 129.536)">
        <g id="Grupo_901853" data-name="Grupo 901853" transform="translate(97.073 0)">
          <path id="Trazado_650162" data-name="Trazado 650162" d="M976.084,192.871l-7.2-4.468a.683.683,0,0,0-.5-.089l-9.369,1.915a.683.683,0,0,0-.32,1.176l5.61,5.049Z" transform="translate(-909.391 -177.914)" fill="#b0c0d2"/>
          <path id="Trazado_650163" data-name="Trazado 650163" d="M715.753,194.187s87.313-15.592,90.719-14.5,9.493,4.709,11.289,4.717,8.073,1.113,6.438,5.594-74.04,18.163-82.465,15.254-29.762-8.389-29.762-8.389S710.01,193.8,715.753,194.187Z" transform="translate(-711.451 -170.963)" fill="#727997"/>
          <path id="Trazado_650164" data-name="Trazado 650164" d="M740.225,154.893,727.671,147.9a4.815,4.815,0,0,1-1.871-1.878l-5.071-9.181a1.893,1.893,0,0,0-2.046-.937c-2.6.548-8.006,1.757-8.033,2.37-.035.808,2.584,21.088,2.584,21.088Z" transform="translate(-710.65 -135.861)" fill="#222b5a"/>
          <path id="Trazado_650165" data-name="Trazado 650165" d="M731.947,257.4l-1.049,4.275a2.365,2.365,0,0,0,.444,2.041,2.4,2.4,0,0,0,1.9.9l4.437.02a2.4,2.4,0,0,0,1.831-.795l7.932-9.009Z" transform="translate(-726.831 -231.272)" fill="#222b5a"/>
          <path id="Trazado_650166" data-name="Trazado 650166" d="M957.711,296.041a9.827,9.827,0,0,0,7.054,3.33c4.376.019,9.766-1.169,10.783-2.712s3.221-12.972-5.672-11.365S950.593,292.038,957.711,296.041Z" transform="translate(-906.883 -255.574)" fill="#b0c0d2"/>
          <path id="Trazado_650167" data-name="Trazado 650167" d="M894.992,265.94l20.75-3.58-17.488,22.319a1.423,1.423,0,0,1-1.006.541l-12.426,1a1.423,1.423,0,0,1-1.316-2.181Z" transform="translate(-849.093 -237.306)" fill="#222b5a"/>
          <g id="Grupo_901850" data-name="Grupo 901850" transform="translate(64.135 30.982)">
            <path id="Trazado_650168" data-name="Trazado 650168" d="M1037.861,302.705a.457.457,0,0,0,.156.007c.278-.036.557-.323.829-.852a9.705,9.705,0,0,0-.049-8.138h0a2.7,2.7,0,0,0-2.193-1.423,1.8,1.8,0,0,0-2.057,1.553c-.491,2.166,1.574,7.167,2.749,8.459A1.16,1.16,0,0,0,1037.861,302.705Zm-.971-9.984a2.351,2.351,0,0,1,1.573,1.18h0a9.434,9.434,0,0,1,.046,7.786c-.236.459-.439.637-.541.65-.013,0-.131.007-.393-.281-1.221-1.343-3.094-6.207-2.659-8.121a1.428,1.428,0,0,1,1.66-1.259A2.262,2.262,0,0,1,1036.89,292.722Z" transform="translate(-1034.473 -292.292)" fill="#7d97f4"/>
          </g>
          <path id="Trazado_650169" data-name="Trazado 650169" d="M713.106,172.326l2.154.009,1.959,13.76-2.267.519Z" transform="translate(-712.619 -165.104)" fill="#b0c0d2"/>
          <g id="Grupo_901852" data-name="Grupo 901852" transform="translate(35.813 11.449)">
            <g id="Grupo_901851" data-name="Grupo 901851" transform="translate(0 3.833)">
              <path id="Rectángulo_302139" data-name="Rectángulo 302139" d="M1.324,0h.757A1.324,1.324,0,0,1,3.4,1.324v0A1.324,1.324,0,0,1,2.08,2.648H1.324A1.324,1.324,0,0,1,0,1.324v0A1.324,1.324,0,0,1,1.324,0Z" transform="matrix(0.004, -1, 1, 0.004, 0, 10.756)" fill="#222b5a"/>
              <path id="Trazado_650170" data-name="Trazado 650170" d="M916.337,249.645a1.283,1.283,0,0,1,1.289-1.277h.081a1.283,1.283,0,0,1,1.277,1.289l0,.838a1.283,1.283,0,0,1-1.289,1.277h-.082a1.283,1.283,0,0,1-1.278-1.289Z" transform="translate(-911.409 -241.367)" fill="#222b5a"/>
              <path id="Trazado_650171" data-name="Trazado 650171" d="M941.19,244.025a1.283,1.283,0,0,1,1.289-1.277h.081a1.283,1.283,0,0,1,1.278,1.289l0,.838a1.283,1.283,0,0,1-1.289,1.277h-.082a1.283,1.283,0,0,1-1.277-1.289Z" transform="translate(-931.339 -236.86)" fill="#222b5a"/>
              <path id="Rectángulo_302140" data-name="Rectángulo 302140" d="M1.324,0h.757A1.324,1.324,0,0,1,3.4,1.324v0A1.324,1.324,0,0,1,2.08,2.648H1.323A1.323,1.323,0,0,1,0,1.324v0A1.324,1.324,0,0,1,1.324,0Z" transform="translate(14.383 8.549) rotate(-89.736)" fill="#222b5a"/>
              <path id="Rectángulo_302141" data-name="Rectángulo 302141" d="M1.324,0H2.08A1.324,1.324,0,0,1,3.4,1.324v0A1.324,1.324,0,0,1,2.08,2.648H1.324A1.324,1.324,0,0,1,0,1.324v0A1.324,1.324,0,0,1,1.324,0Z" transform="matrix(0.005, -1, 1, 0.005, 19.681, 7.816)" fill="#222b5a"/>
              <path id="Rectángulo_302142" data-name="Rectángulo 302142" d="M1.324,0H2.08A1.324,1.324,0,0,1,3.4,1.324v0A1.324,1.324,0,0,1,2.08,2.648H1.324A1.324,1.324,0,0,1,0,1.324v0A1.324,1.324,0,0,1,1.324,0Z" transform="translate(24.603 7.082) rotate(-89.75)" fill="#222b5a"/>
              <path id="Rectángulo_302143" data-name="Rectángulo 302143" d="M1.324,0H2.08A1.324,1.324,0,0,1,3.4,1.324v0A1.324,1.324,0,0,1,2.081,2.648H1.324A1.324,1.324,0,0,1,0,1.324v0A1.324,1.324,0,0,1,1.324,0Z" transform="matrix(0.004, -1, 1, 0.004, 29.525, 5.969)" fill="#222b5a"/>
              <path id="Rectángulo_302144" data-name="Rectángulo 302144" d="M1.324,0H2.08A1.324,1.324,0,0,1,3.4,1.324v0A1.324,1.324,0,0,1,2.08,2.648H1.324A1.324,1.324,0,0,1,0,1.324v0A1.324,1.324,0,0,1,1.324,0Z" transform="translate(34.066 5.61) rotate(-89.75)" fill="#222b5a"/>
              <path id="Rectángulo_302145" data-name="Rectángulo 302145" d="M1.324,0h.757A1.324,1.324,0,0,1,3.4,1.324v0A1.324,1.324,0,0,1,2.08,2.648H1.324A1.324,1.324,0,0,1,0,1.324v0A1.324,1.324,0,0,1,1.324,0Z" transform="translate(38.986 4.875) rotate(-89.736)" fill="#222b5a"/>
              <path id="Rectángulo_302146" data-name="Rectángulo 302146" d="M1.324,0H2.08A1.324,1.324,0,0,1,3.4,1.324v0A1.324,1.324,0,0,1,2.08,2.648H1.324A1.324,1.324,0,0,1,0,1.324v0A1.324,1.324,0,0,1,1.324,0Z" transform="translate(43.909 3.763) rotate(-89.75)" fill="#222b5a"/>
              <path id="Rectángulo_302147" data-name="Rectángulo 302147" d="M1.324,0H2.08A1.324,1.324,0,0,1,3.4,1.324v0A1.324,1.324,0,0,1,2.08,2.648H1.324A1.324,1.324,0,0,1,0,1.324v0A1.324,1.324,0,0,1,1.324,0Z" transform="translate(48.45 3.404) rotate(-89.75)" fill="#222b5a"/>
            </g>
            <path id="Trazado_650172" data-name="Trazado 650172" d="M1181.986,193.666l-8.638,2.358a1.4,1.4,0,0,0-1.023,1.463c.068.8.184,1.7.362,1.622.315-.133,13.855-3.509,13.855-3.509Z" transform="translate(-1116.696 -193.666)" fill="#222b5a"/>
          </g>
        </g>
        <g id="Grupo_901857" data-name="Grupo 901857" transform="translate(0 32.08)">
          <g id="Grupo_901854" data-name="Grupo 901854" transform="translate(35.271)" opacity="0.6">
            <path id="Trazado_650173" data-name="Trazado 650173" d="M398.963,319.711c1.754-.819,2.913-2.58,3.825-4.221,1.064-1.914.53-3.711,1.086-5.713a4.859,4.859,0,0,1,3.675-3.106,19.237,19.237,0,0,1,5.026-.2,9.5,9.5,0,0,0,4.908-.875c1.775-.994,2.9-2.931,4.727-3.822a7.518,7.518,0,0,1,2.957-.642c3.924-.182,7.714,1.441,11.549,2.082a22.159,22.159,0,0,0,15.235-3.03,15.248,15.248,0,0,1,2.155-1.242,11.355,11.355,0,0,1,4.026-.621l14.65-.477c1.517-.049,3.518.279,3.733,1.782.192,1.339-1.279,2.259-2.537,2.757a59.312,59.312,0,0,1-24.4,4.082,8.421,8.421,0,0,0-3.278.253,10.279,10.279,0,0,0-2.483,1.6,16.746,16.746,0,0,1-12.127,3.117c-2.108-.289-4.147-.983-6.259-1.241-3.713-.453-7.144.669-10.767,1.482a9.586,9.586,0,0,0-3.565,1.319c-.705.506-1.262,1.2-1.963,1.708-1.493,1.092-3.26,1.036-4.816,2.231a28.334,28.334,0,0,1-2.894,1.949,5.672,5.672,0,0,1-2.816.981Q398.79,319.792,398.963,319.711Z" transform="translate(-398.61 -297.835)" fill="#bdd0fb"/>
          </g>
          <g id="Grupo_901855" data-name="Grupo 901855" transform="translate(0 2.611)" opacity="0.6">
            <path id="Trazado_650174" data-name="Trazado 650174" d="M242.513,359.42c1.533-1.09,2.572-2.872,3.805-4.385a15.146,15.146,0,0,1,12.46-5.767c4.554.276,8.756,2.761,13.158,4.13,5.316,1.653,11.214,1.92,16.369-.257,1.455-.615,3.119-1.493,3.438-3.239a8.177,8.177,0,0,0-.19-2.615,6.479,6.479,0,0,1,.47-3.914c1.493-2.806,6.938-1.555,9.345-1.375,3.612.27,7.469.663,10.781-1.378,4.368-2.691,6.972-9.165,11.9-9.787a10.3,10.3,0,0,0,2.611-.351,12.608,12.608,0,0,0,2.273-1.6c3.154-2.2,7.17-.652,10.858-.622a2.939,2.939,0,0,0,1.824-.441c1.095-.811,1.186-2.691,2.165-3.678,1.458-1.469,3.823-.156,5.633-.953,2.654-1.168,2.565-5.85,4.849-7.8,1.117-.952,2.994-2.006,2.308-3.4a1.964,1.964,0,0,0-1.906-.815l-12.286-.159a5.909,5.909,0,0,0-3.791.824c-1.555,1.184-1.984,3.632-3.346,5.1-1.506,1.621-3.783,1.707-5.844,1.717-7.744.037-16.089.539-22.165,6.065-2.118,1.926-4.013,4.486-6.654,5.129a10.355,10.355,0,0,1-3.9-.054l-15.49-2.189c-4.965-.7-11-.883-13.818,3.878-.916,1.549-1.326,3.422-2.151,5.037-1.877,3.67-5.635,5.508-9.277,6.258s-7.4.657-11,1.655-7.207,3.416-8.487,7.412a7.446,7.446,0,0,1-1.084,2.648,3.387,3.387,0,0,1-1.615.948c-3.77,1.177-10.9-1.254-13.23,3.551,2.988.682,6.257-1.093,9.5-.357C234.025,359.549,238.611,362.2,242.513,359.42Z" transform="translate(-220.523 -311.016)" fill="#bdd0fb"/>
          </g>
          <g id="Grupo_901856" data-name="Grupo 901856" transform="translate(5.612 48.717)" opacity="0.6">
            <path id="Trazado_650175" data-name="Trazado 650175" d="M265.729,553.82c-.983,1.805-1.637,3.807-2.9,5.432-1.91,2.46-4.941,3.729-7.38,5.665-1.125.892-2.093,1.988-3.24,2.849-1.056.793-2.255,1.417-3.352,2.2a9.713,9.713,0,0,1,2.343-.8,17.7,17.7,0,0,0,2.576-1.306c1.827-1.032,3.587-2.18,5.322-3.358a32.045,32.045,0,0,0,3.922-3c.773-.722,1.483-1.514,2.315-2.166a14.79,14.79,0,0,1,7.576-2.586,53.318,53.318,0,0,0,8.032-1.044,32.194,32.194,0,0,0,5.217-2.089,6.574,6.574,0,0,0,2.68-1.863,13.79,13.79,0,0,0,.964-1.929,6.277,6.277,0,0,1,3.293-2.982,12.468,12.468,0,0,0,1.979-.768,1.822,1.822,0,0,0,.99-1.739,5.335,5.335,0,0,0-4.01-.256,35.573,35.573,0,0,1-3.972,1.1c-1.1.151-2.225.048-3.327.2-2.506.34-4.635,1.926-6.925,3a20.3,20.3,0,0,1-7.354,1.652C268.271,550.182,266.741,551.963,265.729,553.82Z" transform="translate(-248.86 -543.808)" fill="#bdd0fb"/>
          </g>
        </g>
      </g>
      <g id="Grupo_901884" data-name="Grupo 901884" transform="translate(335.011 290.899)">
        <g id="Grupo_901872" data-name="Grupo 901872">
          <path id="Trazado_650176" data-name="Trazado 650176" d="M1373.615,1338.558h-5.12c-1.2,0-2.529.715-2.529,1.917v1.866a2.605,2.605,0,0,0,2.529,2.293h5.12c.5,0,.779-.525.779-1.028v-4.395C1374.394,1338.707,1374.119,1338.558,1373.615,1338.558Z" transform="translate(-1325.106 -1261.719)" fill="url(#linear-gradient-7)"/>
          <rect id="Rectángulo_302148" data-name="Rectángulo 302148" width="13.34" height="7.194" rx="3.597" transform="translate(214.526 58.701)" fill="#222b5a"/>
          <g id="Grupo_901859" data-name="Grupo 901859" transform="translate(219.619 26.043)">
            <rect id="Rectángulo_302149" data-name="Rectángulo 302149" width="1.244" height="52.046" rx="0.622" transform="translate(2.774)" fill="#727997"/>
            <rect id="Rectángulo_302150" data-name="Rectángulo 302150" width="3.766" height="1.052" rx="0.526" transform="translate(0.252 6.044)" fill="#727997"/>
            <path id="Rectángulo_302151" data-name="Rectángulo 302151" d="M.526,0H3.24a.526.526,0,0,1,.526.526v0a.526.526,0,0,1-.526.526H.526A.526.526,0,0,1,0,.526v0A.526.526,0,0,1,.526,0Z" transform="translate(0 40.555)" fill="#727997"/>
          </g>
          <path id="Trazado_650298" data-name="Trazado 650298" d="M0,0H10.754V52.735H0Z" transform="translate(98.247 28.226)" fill="#222b5a"/>
          <path id="Trazado_650177" data-name="Trazado 650177" d="M1714.021,1061.169c-.106-5.214-2.948-9.5-6.417-9.5H1601.816c-1.454.01-2.614,1.836-2.614,4.021V1111.6h-23.108v9.766h134.977a3.539,3.539,0,0,0,2.906-1.828,8.206,8.206,0,0,0,1.14-4.483Z" transform="translate(-1493.617 -1031.651)" fill="#ee4e5d"/>
          <path id="Trazado_650178" data-name="Trazado 650178" d="M1261.16,1030.166h-18.838l2.281-5.952a3.282,3.282,0,0,1,3.325-1.887h8.223a2.831,2.831,0,0,1,2.616,1.816Z" transform="translate(-1225.951 -1008.119)" fill="#222b5a"/>
          <path id="Trazado_650179" data-name="Trazado 650179" d="M1264.115,1035.412h-16.622l2.013-4.906a3.187,3.187,0,0,1,2.933-2.011h7.256a2.5,2.5,0,0,1,2.308,1.6Z" transform="translate(-1230.098 -1013.066)" fill="#727997"/>
          <path id="Trazado_650180" data-name="Trazado 650180" d="M1259.035,1061.083c-.084-5.214-2.333-9.512-5.079-9.512H1176.58c-2.295,0-6.976,3.076-7.576,7.284l-9.269,33.127-.073,25.179c.1,2.392,1.147,4.381,2.41,4.381H1256.7c.867,0,1.7-.77,2.3-1.952a10.243,10.243,0,0,0,.9-4.552Z" transform="translate(-1159.662 -1031.571)" fill="#ee4e5d"/>
          <path id="Trazado_650181" data-name="Trazado 650181" d="M1327.575,1237.92a.316.316,0,0,1-.316-.317v-12.152a.316.316,0,0,1,.633,0V1237.6A.317.317,0,0,1,1327.575,1237.92Z" transform="translate(-1294.065 -1170.76)" fill="#fff"/>
          <g id="Grupo_901860" data-name="Grupo 901860" transform="translate(108.868 26.194)">
            <rect id="Rectángulo_302153" data-name="Rectángulo 302153" width="47.791" height="30.103" rx="10.976" fill="#be3e4a"/>
          </g>
          <g id="Grupo_901861" data-name="Grupo 901861" transform="translate(161.975 25.906)">
            <rect id="Rectángulo_302154" data-name="Rectángulo 302154" width="49.302" height="30.103" rx="10.976" fill="#be3e4a"/>
          </g>
          <g id="Grupo_901862" data-name="Grupo 901862" transform="translate(0 66.107)">
            <rect id="Rectángulo_302155" data-name="Rectángulo 302155" width="99.936" height="3.98" fill="#fff"/>
            <rect id="Rectángulo_302156" data-name="Rectángulo 302156" width="115.512" height="3.98" transform="translate(105.585)" fill="#fff"/>
            <rect id="Rectángulo_302157" data-name="Rectángulo 302157" width="115.617" height="3.98" transform="translate(105.585 5.919)" fill="#fff"/>
            <rect id="Rectángulo_302158" data-name="Rectángulo 302158" width="100.008" height="3.98" transform="translate(0 6.021)" fill="#fff"/>
          </g>
          <g id="Grupo_901863" data-name="Grupo 901863" transform="translate(40.887)">
            <rect id="Rectángulo_302159" data-name="Rectángulo 302159" width="3.663" height="11.507" transform="translate(169.336 8.641)" fill="url(#linear-gradient-8)"/>
            <rect id="Rectángulo_302160" data-name="Rectángulo 302160" width="152.952" height="3.383" fill="url(#linear-gradient-9)"/>
            <rect id="Rectángulo_302161" data-name="Rectángulo 302161" width="173" height="3.371" transform="translate(0 13.744)" fill="url(#linear-gradient-10)"/>
            <path id="Trazado_650182" data-name="Trazado 650182" d="M2149.7,959.2l-1.69,3.414-20.334-8.636,2.118-3.383Z" transform="translate(-1976.837 -950.591)" fill="url(#linear-gradient-11)"/>
            <rect id="Rectángulo_302162" data-name="Rectángulo 302162" width="3.289" height="17.115" fill="url(#linear-gradient-12)"/>
            <rect id="Rectángulo_302163" data-name="Rectángulo 302163" width="3.289" height="17.115" transform="translate(16.242)" fill="url(#linear-gradient-12)"/>
            <rect id="Rectángulo_302164" data-name="Rectángulo 302164" width="3.289" height="17.115" transform="translate(34.264)" fill="url(#linear-gradient-12)"/>
            <rect id="Rectángulo_302165" data-name="Rectángulo 302165" width="3.289" height="17.115" transform="translate(52.082)" fill="url(#linear-gradient-12)"/>
            <rect id="Rectángulo_302166" data-name="Rectángulo 302166" width="3.289" height="17.115" transform="translate(70.104)" fill="url(#linear-gradient-12)"/>
            <rect id="Rectángulo_302167" data-name="Rectángulo 302167" width="3.289" height="17.115" transform="translate(88.74)" fill="url(#linear-gradient-12)"/>
            <rect id="Rectángulo_302168" data-name="Rectángulo 302168" width="3.289" height="17.115" transform="translate(106.762)" fill="url(#linear-gradient-12)"/>
            <rect id="Rectángulo_302169" data-name="Rectángulo 302169" width="3.289" height="17.115" transform="translate(126.486)" fill="url(#linear-gradient-12)"/>
            <rect id="Rectángulo_302170" data-name="Rectángulo 302170" width="3.289" height="17.115" transform="translate(144.508)" fill="url(#linear-gradient-12)"/>
          </g>
          <path id="Trazado_650183" data-name="Trazado 650183" d="M2246.8,1296.005h-4.075c-2.024,0-3.922.958-3.922,2.225v5.234c0,.927,1.457,1.557,2.939,1.557h3.526c1.482,0,2.552-.63,2.552-1.557v-6.808C2247.819,1296.259,2247.435,1296.005,2246.8,1296.005Z" transform="translate(-2025.072 -1227.594)" fill="url(#linear-gradient-21)"/>
          <g id="Grupo_901865" data-name="Grupo 901865" transform="translate(17.25 70.601)">
            <g id="Grupo_901864" data-name="Grupo 901864" transform="translate(0 0)">
              <circle id="Elipse_5681" data-name="Elipse 5681" cx="12.071" cy="12.071" r="12.071" transform="matrix(0.267, -0.964, 0.964, 0.267, 0, 23.266)" fill="#222b5a"/>
              <circle id="Elipse_5682" data-name="Elipse 5682" cx="9.803" cy="9.803" r="9.803" transform="matrix(0.615, -0.788, 0.788, 0.615, 1.096, 16.549)" fill="#b0c0d2"/>
              <path id="Trazado_650184" data-name="Trazado 650184" d="M1312.944,1349.657a.211.211,0,0,1-.194-.293,8.472,8.472,0,0,0-11.937-10.689.211.211,0,1,1-.206-.368,8.894,8.894,0,0,1,12.531,11.221A.211.211,0,0,1,1312.944,1349.657Z" transform="translate(-1289.855 -1331.213)" fill="#7d97f4"/>
            </g>
            <path id="Trazado_650185" data-name="Trazado 650185" d="M1307.58,1363.861a4.5,4.5,0,1,1-4.5-4.5A4.5,4.5,0,0,1,1307.58,1363.861Z" transform="translate(-1288.323 -1349.006)" fill="#222b5a"/>
          </g>
          <g id="Grupo_901906" data-name="Grupo 901906" transform="translate(149.752 72.518)">
            <g id="Grupo_901864-2" data-name="Grupo 901864" transform="translate(0 0)">
              <circle id="Elipse_5681-2" data-name="Elipse 5681" cx="12.071" cy="12.071" r="12.071" transform="matrix(0.267, -0.964, 0.964, 0.267, 0, 23.266)" fill="#222b5a"/>
              <circle id="Elipse_5682-2" data-name="Elipse 5682" cx="9.803" cy="9.803" r="9.803" transform="matrix(0.615, -0.788, 0.788, 0.615, 1.096, 16.549)" fill="#b0c0d2"/>
              <path id="Trazado_650184-2" data-name="Trazado 650184" d="M1312.944,1349.657a.211.211,0,0,1-.194-.293,8.472,8.472,0,0,0-11.937-10.689.211.211,0,1,1-.206-.368,8.894,8.894,0,0,1,12.531,11.221A.211.211,0,0,1,1312.944,1349.657Z" transform="translate(-1289.855 -1331.213)" fill="#7d97f4"/>
            </g>
            <path id="Trazado_650185-2" data-name="Trazado 650185" d="M1307.58,1363.861a4.5,4.5,0,1,1-4.5-4.5A4.5,4.5,0,0,1,1307.58,1363.861Z" transform="translate(-1288.323 -1349.006)" fill="#222b5a"/>
          </g>
          <g id="Grupo_901907" data-name="Grupo 901907" transform="translate(177.708 72.44)">
            <g id="Grupo_901864-3" data-name="Grupo 901864" transform="translate(0 0)">
              <circle id="Elipse_5681-3" data-name="Elipse 5681" cx="12.071" cy="12.071" r="12.071" transform="matrix(0.267, -0.964, 0.964, 0.267, 0, 23.266)" fill="#222b5a"/>
              <circle id="Elipse_5682-3" data-name="Elipse 5682" cx="9.803" cy="9.803" r="9.803" transform="matrix(0.615, -0.788, 0.788, 0.615, 1.096, 16.549)" fill="#b0c0d2"/>
              <path id="Trazado_650184-3" data-name="Trazado 650184" d="M1312.944,1349.657a.211.211,0,0,1-.194-.293,8.472,8.472,0,0,0-11.937-10.689.211.211,0,1,1-.206-.368,8.894,8.894,0,0,1,12.531,11.221A.211.211,0,0,1,1312.944,1349.657Z" transform="translate(-1289.855 -1331.213)" fill="#7d97f4"/>
            </g>
            <path id="Trazado_650185-3" data-name="Trazado 650185" d="M1307.58,1363.861a4.5,4.5,0,1,1-4.5-4.5A4.5,4.5,0,0,1,1307.58,1363.861Z" transform="translate(-1288.323 -1349.006)" fill="#222b5a"/>
          </g>
          <g id="Grupo_901870" data-name="Grupo 901870" transform="translate(2.056 23.92)">
            <path id="Trazado_650190" data-name="Trazado 650190" d="M1361.915,1095.835c0,3.076-1.848,5.712-4.1,5.712h-21.2c-2.256,0-4.291-2.635-4.291-5.712V1077.16c0-3.076,2.035-5.8,4.291-5.8h21.2c2.256,0,4.1,2.721,4.1,5.8Z" transform="translate(-1300.18 -1071.363)" fill="url(#linear-gradient-22)"/>
            <path id="Trazado_650191" data-name="Trazado 650191" d="M1366.089,1083.7c0-2.568-1.611-4.422-3.494-4.422h-21.081c-1.883,0-3.256,1.854-3.256,4.422v18.512c0,2.568,1.373,4.506,3.256,4.506h21.081c1.883,0,3.494-1.938,3.494-4.506Z" transform="translate(-1304.942 -1077.712)" fill="#d2e1f1"/>
            <path id="Trazado_650192" data-name="Trazado 650192" d="M1523.624,1096.852c0,3.076-1.587,5.489-3.843,5.489h-21.2c-2.256,0-3.964-2.413-3.964-5.489v-18.675c0-3.076,1.708-5.824,3.964-5.824h21.2c2.256,0,3.843,2.748,3.843,5.824Z" transform="translate(-1430.333 -1072.157)" fill="url(#linear-gradient-22)"/>
            <path id="Trazado_650193" data-name="Trazado 650193" d="M1527,1084.718c0-2.568-1.35-4.448-3.233-4.448h-21.081c-1.883,0-3.125,1.88-3.125,4.448v18.512c0,2.568,1.242,4.479,3.125,4.479h21.081c1.883,0,3.233-1.911,3.233-4.479Z" transform="translate(-1434.301 -1078.506)" fill="#d2e1f1"/>
            <path id="Trazado_650194" data-name="Trazado 650194" d="M1177.4,1086.3h18.067a3.14,3.14,0,0,1,3.14,3.14v21.194a2.7,2.7,0,0,1-2.749,2.695l-25.815-.585Z" transform="translate(-1170.045 -1083.341)" fill="url(#linear-gradient-22)"/>
            <path id="Trazado_650195" data-name="Trazado 650195" d="M1178.407,1091.763l17.823-.083a2.985,2.985,0,0,1,3.069,2.894v19.53a2.566,2.566,0,0,1-2.687,2.483l-24.875-.727Z" transform="translate(-1171.403 -1087.656)" fill="#d2e1f1"/>
            <path id="Trazado_650196" data-name="Trazado 650196" d="M1362.513,1089.728a.922.922,0,0,1-.79.82h-27.58a.964.964,0,0,1-.833-.82v-.007c0-.428.52-.545.833-.545h27.58c.314,0,.79.117.79.545Z" transform="translate(-1300.974 -1085.648)" fill="url(#linear-gradient-22)"/>
            <path id="Trazado_650197" data-name="Trazado 650197" d="M1525.407,1093.91a.834.834,0,0,1-.725.793H1497.1c-.314,0-.506-.365-.506-.793v-.007c0-.428.193-.768.506-.768h27.58a.807.807,0,0,1,.725.768Z" transform="translate(-1431.92 -1088.823)" fill="url(#linear-gradient-22)"/>
          </g>
          <g id="Grupo_901871" data-name="Grupo 901871" transform="translate(19.125 43.958)">
            <path id="Trazado_650198" data-name="Trazado 650198" d="M1273.024,1210.206a.946.946,0,0,1-.9.737l-5.644-.026a1.408,1.408,0,0,1-1.173-.7l-3-5,1.63-.756,1.967,3.876a1.234,1.234,0,0,0,1.076.675l5.225.11a.874.874,0,0,1,.66.349A.892.892,0,0,1,1273.024,1210.206Z" transform="translate(-1261.105 -1198.135)" fill="#ee4e5d"/>
            <path id="Rectángulo_302171" data-name="Rectángulo 302171" d="M2.35,0h0A2.35,2.35,0,0,1,4.7,2.35v4.9A2.35,2.35,0,0,1,2.35,9.6h0A2.35,2.35,0,0,1,0,7.247V2.35A2.35,2.35,0,0,1,2.35,0Z" transform="matrix(1, -0.03, 0.03, 1, 0, 0.141)" fill="#ee4e5d"/>
          </g>
        </g>
        <path id="Trazado_650199" data-name="Trazado 650199" d="M2020.025,1254.005c-1.078-1.63-5.329-4.843-7.878-3.98a2.318,2.318,0,0,1,.651,1.609v2.536a2.3,2.3,0,0,1-.214.967,7,7,0,0,1,5.055,4.345,9.524,9.524,0,0,1,.433,2.589,21.552,21.552,0,0,1-3.247,12.417c-2.282,3.668-9.219,7.889-5.546,13.058,1.594,2.242,3.924,4.376.643,5.812-2.726,1.192-5.939,1.5-8.859,1.879a232.457,232.457,0,0,1-25.1,2.282c-6.013.112-13.46-.409-17.017-6.049a76.2,76.2,0,0,1-7.379-13.868c-.848-2.282-1.1-4.649-2.154-6.842a43.142,43.142,0,0,0-3.957-6.273c-1.034-1.451-2.079-3.978-3.978-4.37-1.6-.33-2.392.43-2.044,2.091.455,2.171,3.317,4.306,4.447,6.262,2.631,4.557,3.723,9.8,5.279,14.779a28.749,28.749,0,0,0,1.983,5.007,35.193,35.193,0,0,0,3.964,5.549c5.99,7.33,13.441,7.856,22.441,7.878,11.48.027,22.883-1.738,34.106-4.023,2.349-.478,5.235-1.585,5.311-3.982.046-1.46-1.045-2.664-1.841-3.888-3.382-5.2.352-8.635,2.775-13.049a32.057,32.057,0,0,0,4.025-12.255C2022.3,1260.88,2022.022,1257.026,2020.025,1254.005Z" transform="translate(-1784.931 -1190.604)" fill="#179587"/>
        <g id="Grupo_901883" data-name="Grupo 901883" transform="translate(107.944 33.586)">
          <g id="Grupo_901873" data-name="Grupo 901873" transform="translate(27.133 10.337)">
            <rect id="Rectángulo_302172" data-name="Rectángulo 302172" width="9.876" height="27.13" rx="4.938" transform="translate(0 4.404) rotate(-26.205)" fill="#179587"/>
            <rect id="Rectángulo_302173" data-name="Rectángulo 302173" width="3.555" height="2.435" rx="1.218" transform="matrix(0.922, -0.387, 0.387, 0.922, 2.117, 1.375)" fill="#179587"/>
          </g>
          <path id="Trazado_650200" data-name="Trazado 650200" d="M1731.574,1221.443c.522,3.722,1.809,4.23,3.652,5.747-.21,1.146-.129,2.78-1.341,4.121-3.983-3.649-4.093-9.868-4.093-9.868Z" transform="translate(-1724.818 -1201.385)" fill="url(#linear-gradient-27)"/>
          <g id="Grupo_901874" data-name="Grupo 901874" transform="translate(29.829 35.657)">
            <path id="Trazado_650201" data-name="Trazado 650201" d="M2011.984,1436.489a1.1,1.1,0,0,1,.565,1.1c-.192,1.825-.92,6.666-3.432,9.708a.415.415,0,0,1-.606.053,15.829,15.829,0,0,0,2.224-4.293C2012.01,1439.691,2012.128,1437.668,2011.984,1436.489Z" transform="translate(-1978.163 -1409.496)" fill="url(#linear-gradient-28)"/>
            <path id="Trazado_650202" data-name="Trazado 650202" d="M2003.324,1435.343a3.863,3.863,0,0,1,3.546-.243l.013.008c.144,1.179.026,3.2-1.25,6.572a15.825,15.825,0,0,1-2.223,4.293.483.483,0,0,1-.132-.192C2002.608,1444.029,2001.091,1439.133,2003.324,1435.343Z" transform="translate(-1973.062 -1408.115)" fill="url(#linear-gradient-29)"/>
            <path id="Trazado_650203" data-name="Trazado 650203" d="M1993.91,1429.622l1.739,1.406a.846.846,0,0,0,1.057.01,2.219,2.219,0,0,0,.732-1.077.851.851,0,0,0-.232-.884l-1.755-1.629a.849.849,0,0,0-1.343.254l-.43.892A.849.849,0,0,0,1993.91,1429.622Z" transform="translate(-1966.201 -1402.063)" fill="url(#linear-gradient-30)"/>
            <path id="Trazado_650204" data-name="Trazado 650204" d="M1864.207,1300.2s4.23,10.888,6.768,15.616a27.687,27.687,0,0,1,5.813,1.759c2.407,1.144,10.378,9.783,10.378,9.783s-1.212,3.115-2.737,3.624l-16.811-11.1-12.334-12.093.017-6.1Z" transform="translate(-1855.284 -1300.201)" fill="#12263f"/>
            <path id="Trazado_650205" data-name="Trazado 650205" d="M1992.606,1426.274a7.732,7.732,0,0,1-2.931,4.028l-1.271-.839a10.364,10.364,0,0,0,3.264-4.171Z" transform="translate(-1962.039 -1400.517)" fill="url(#linear-gradient-31)"/>
            <path id="Trazado_650206" data-name="Trazado 650206" d="M1983.361,1418.035a13.569,13.569,0,0,1-3.361,4.349l-1.145-.756a12.5,12.5,0,0,0,3.57-4.549Z" transform="translate(-1954.381 -1393.931)" fill="url(#linear-gradient-32)"/>
          </g>
          <g id="Grupo_901875" data-name="Grupo 901875" transform="translate(0 32.064)">
            <path id="Trazado_650207" data-name="Trazado 650207" d="M1715.9,1466.08a1.124,1.124,0,0,1-1.137.57c-1.87-.213-6.827-1-9.925-3.607a.425.425,0,0,1-.049-.621,16.228,16.228,0,0,0,4.382,2.319C1712.616,1466.079,1714.688,1466.217,1715.9,1466.08Z" transform="translate(-1704.676 -1426.7)" fill="url(#linear-gradient-33)"/>
            <path id="Trazado_650208" data-name="Trazado 650208" d="M1716.145,1457.411a3.962,3.962,0,0,1,.218,3.638s-.006.009-.008.013c-1.211.137-3.283,0-6.729-1.341a16.228,16.228,0,0,1-4.382-2.319.494.494,0,0,1,.2-.134C1707.244,1456.6,1712.278,1455.088,1716.145,1457.411Z" transform="translate(-1705.131 -1421.682)" fill="url(#linear-gradient-34)"/>
            <path id="Trazado_650209" data-name="Trazado 650209" d="M1748.591,1445.074l-.592,2.216a.868.868,0,0,0,.432.995,2.274,2.274,0,0,0,1.314.236.873.873,0,0,0,.732-.585l.794-2.324a.871.871,0,0,0-.8-1.152l-1.015-.031A.871.871,0,0,0,1748.591,1445.074Z" transform="translate(-1739.395 -1412.27)" fill="url(#linear-gradient-35)"/>
            <path id="Trazado_650210" data-name="Trazado 650210" d="M1761.619,1282.061l2.578,2.058s3.553,6.717-5.851,11.379-11.126,4.615-11.126,4.615c-.246.073,2.611,8.012-2.761,19.472a27.063,27.063,0,0,1-4.438-2.561l.962-17.916a3.518,3.518,0,0,1,2.411-3.869c4.1-1.922,11.565-5.852,12.5-6.74Z" transform="translate(-1733.019 -1282.061)" fill="#12263f"/>
            <path id="Trazado_650211" data-name="Trazado 650211" d="M1745.887,1443.424a16.63,16.63,0,0,1-5.279-2.52l.089-1.657a18.7,18.7,0,0,0,5.69,2.836A4.548,4.548,0,0,1,1745.887,1443.424Z" transform="translate(-1733.491 -1408.115)" fill="url(#linear-gradient-36)"/>
            <path id="Trazado_650212" data-name="Trazado 650212" d="M1747.268,1431.366a13.39,13.39,0,0,0,.424-1.448,24.328,24.328,0,0,1-6.305-2.839l-.081,1.5A38.331,38.331,0,0,0,1747.268,1431.366Z" transform="translate(-1734.051 -1398.358)" fill="url(#linear-gradient-37)"/>
          </g>
          <path id="Trazado_650213" data-name="Trazado 650213" d="M1787.012,1178.387c.15.646,2.278.7,4.752.127s4.357-1.568,4.207-2.214-2.278-.7-4.752-.127S1786.861,1177.741,1787.012,1178.387Z" transform="translate(-1770.698 -1164.762)" fill="url(#linear-gradient-38)"/>
          <g id="Grupo_901876" data-name="Grupo 901876" transform="translate(3.052 15.93)">
            <path id="Trazado_650214" data-name="Trazado 650214" d="M1722.491,1205.526a2.553,2.553,0,0,0,2.131-2.261s.124-.691-.8-.6c0,0,.132-2.081-.573-2.059a2.87,2.87,0,0,0-3.06,1.869A2.471,2.471,0,0,0,1722.491,1205.526Z" transform="translate(-1720.087 -1200.601)" fill="#222b5a"/>
            <path id="Trazado_650215" data-name="Trazado 650215" d="M1730.054,1211.486a.9.9,0,0,0,.379.29.791.791,0,0,0,.714-.1.216.216,0,0,0-.224-.369.358.358,0,0,1-.336.064.652.652,0,0,1-.3-.313l1.049-.4a.216.216,0,0,0-.155-.4l-1.257.485a.216.216,0,0,0-.128.265A1.6,1.6,0,0,0,1730.054,1211.486Z" transform="translate(-1727.867 -1208.33)" fill="#222b5a"/>
            <path id="Trazado_650216" data-name="Trazado 650216" d="M1763.487,1214.148s-6.43,9.35-9.25,7.469,3.451-14.13,3.451-14.13Z" transform="translate(-1746.89 -1206.124)" fill="#222b5a"/>
            <path id="Trazado_650217" data-name="Trazado 650217" d="M1731.675,1222.89s3.847,6.2,5.878,7.71c1.37,1.02.066,4.618-1.823,3.661-4.653-2.356-5.728-9.456-5.865-10.523a.13.13,0,0,1,.12-.144A2.731,2.731,0,0,0,1731.675,1222.89Z" transform="translate(-1727.928 -1218.476)" fill="#222b5a"/>
          </g>
          <path id="Trazado_650218" data-name="Trazado 650218" d="M1801.767,1168.5l2.95,4.733a.82.82,0,0,1-.04.929,4.114,4.114,0,0,1-4.488,1.385.764.764,0,0,1-.572-.575l-1.042-4.438Z" transform="translate(-1779.978 -1158.924)" fill="url(#linear-gradient-39)"/>
          <g id="Grupo_901877" data-name="Grupo 901877" transform="translate(15.943 4.184)">
            <path id="Trazado_650219" data-name="Trazado 650219" d="M1786.313,1141.3a21.923,21.923,0,0,0-1.14,5.329c.053,1.8-.234,2.99,1.864,3.173a4.411,4.411,0,0,0,4.544-2.856s1.244-2.87.817-3.966S1786.313,1141.3,1786.313,1141.3Z" transform="translate(-1785.172 -1141.295)" fill="url(#linear-gradient-40)"/>
            <path id="Trazado_650220" data-name="Trazado 650220" d="M1813.233,1158.123s.381-2.224,1.408-1.7-.3,2.481-1.076,2.63Z" transform="translate(-1807.675 -1153.364)" fill="url(#linear-gradient-41)"/>
          </g>
          <path id="Trazado_650221" data-name="Trazado 650221" d="M1884.585,1195.182a18.675,18.675,0,0,1-2.741,5.026,5.842,5.842,0,0,0-1.392-.864,17.461,17.461,0,0,0,2.523-5.006A12.366,12.366,0,0,1,1884.585,1195.182Z" transform="translate(-1845.638 -1179.648)" fill="url(#linear-gradient-42)"/>
          <g id="Grupo_901878" data-name="Grupo 901878" transform="translate(13.758 11.455)">
            <path id="Trazado_650222" data-name="Trazado 650222" d="M1774.37,1188.752c1.229-.622,8.753-4.312,14.654-4.514a18.643,18.643,0,0,1,10.977,3.415,36.456,36.456,0,0,0-3.039,4.609,9.319,9.319,0,0,0-4.4-1.745,125.6,125.6,0,0,0,7.5,17.057h0c1.278,2.373,3.111,7.233,4.095,9.706-4.215,3.271-19.362,2.7-28.87-2.988a.164.164,0,0,1,0-.282c2.076-1.228,8.988-5.506,9.967-6.252a1.071,1.071,0,0,0,.306-1.618l-8.337-10.006a11.9,11.9,0,0,1-2.425-4.826l-.646-2.293C1774.119,1188.9,1774.268,1188.8,1774.37,1188.752Z" transform="translate(-1774.143 -1182.998)" fill="#222b5a"/>
            <path id="Trazado_650223" data-name="Trazado 650223" d="M1821.55,1245.039c-5.057,2-9.91,3.66-14.009,4.108l1.677,2.013a57.331,57.331,0,0,0,13.254-3.912Z" transform="translate(-1800.926 -1231.762)" fill="url(#linear-gradient-43)"/>
            <path id="Trazado_650224" data-name="Trazado 650224" d="M1832.046,1259.818a39.663,39.663,0,0,1-12.953,3.927l1.313,1.576c3.717-.152,9.8-2.254,12.418-3.755Z" transform="translate(-1810.19 -1243.614)" fill="url(#linear-gradient-44)"/>
            <path id="Trazado_650225" data-name="Trazado 650225" d="M1797.139,1180.691l-.746-2.3a.561.561,0,0,0-.8-.32,16.5,16.5,0,0,1-7.848,1.975.375.375,0,0,0-.284.617l2.438,2.892C1793.745,1184.46,1795.816,1183.06,1797.139,1180.691Z" transform="translate(-1784.751 -1178.005)" fill="#222b5a"/>
          </g>
          <path id="Trazado_650226" data-name="Trazado 650226" d="M1816.027,1159.226c.317,1.388,1.313,2.535,3.131,4.058-.03.882.019,1.563-1.608,2.115-2.6-1.147-3.687-4.052-4.392-7.4Z" transform="translate(-1791.673 -1150.505)" fill="url(#linear-gradient-45)"/>
          <g id="Grupo_901879" data-name="Grupo 901879" transform="translate(34.246 30.518)">
            <path id="Trazado_650227" data-name="Trazado 650227" d="M1892.4,1280.264l-11.375-3.8-.6,1.973,10.509,5.575Z" transform="translate(-1879.865 -1276.023)" fill="#727997"/>
            <path id="Trazado_650228" data-name="Trazado 650228" d="M1877.853,1275.5c-.334.8-.356,1.557-.049,1.684s.825-.42,1.159-1.223.356-1.557.049-1.685S1878.186,1274.693,1877.853,1275.5Z" transform="translate(-1877.587 -1274.254)" fill="#7d97f4"/>
            <path id="Trazado_650229" data-name="Trazado 650229" d="M1931.124,1294.352a8.519,8.519,0,0,1-1.815,3.942.417.417,0,0,1-.5.114,12.5,12.5,0,0,1-2.969-1.786.184.184,0,0,1-.008-.271,5.335,5.335,0,0,0,1.769-3.217.3.3,0,0,1,.308-.263,6.7,6.7,0,0,1,3.014,1.053A.412.412,0,0,1,1931.124,1294.352Z" transform="translate(-1916.236 -1289.183)" fill="#b0c0d2"/>
          </g>
          <g id="Grupo_901880" data-name="Grupo 901880" transform="translate(35.254 15.102)">
            <path id="Trazado_650230" data-name="Trazado 650230" d="M1884.767,1218.613a6.389,6.389,0,0,1,2.363-2.387c.493-1.283,2.407-7.03-1.49-10.109a36.441,36.441,0,0,1,3.039-4.609c3.743,2.9,5.441,7.809-.046,15.355a4.641,4.641,0,0,1-.994,4.143C1887.38,1221.159,1884.313,1219.895,1884.767,1218.613Z" transform="translate(-1884.316 -1200.5)" fill="url(#linear-gradient-46)"/>
            <path id="Trazado_650231" data-name="Trazado 650231" d="M1885.525,1196.418l-2.85,4.793c3.345,1.848,3.645,6.3,1.955,11.272a4.073,4.073,0,0,0,2.576,1.632C1892.1,1205.218,1891.691,1199.29,1885.525,1196.418Z" transform="translate(-1882.675 -1196.418)" fill="#222b5a"/>
            <path id="Trazado_650232" data-name="Trazado 650232" d="M1902.1,1249.746a12.411,12.411,0,0,1-4.549.168l-.019.606a10.645,10.645,0,0,0,4.333-.019A3.615,3.615,0,0,0,1902.1,1249.746Z" transform="translate(-1894.591 -1239.184)" fill="url(#linear-gradient-47)"/>
            <path id="Trazado_650233" data-name="Trazado 650233" d="M1891.717,1199.72a11.919,11.919,0,0,1-2.837,5.063l.456.526a12.369,12.369,0,0,0,2.894-5.254A3.387,3.387,0,0,0,1891.717,1199.72Z" transform="translate(-1887.651 -1199.066)" fill="url(#linear-gradient-48)"/>
            <path id="Trazado_650234" data-name="Trazado 650234" d="M1901.16,1256.268a3.187,3.187,0,0,1-.274.808,11.328,11.328,0,0,1-4-.156,4.579,4.579,0,0,1,.091-.762A10.129,10.129,0,0,0,1901.16,1256.268Z" transform="translate(-1894.073 -1244.326)" fill="url(#linear-gradient-49)"/>
          </g>
          <g id="Grupo_901881" data-name="Grupo 901881" transform="translate(13.453 2.954)">
            <path id="Trazado_650235" data-name="Trazado 650235" d="M1776.418,1135.085l-.855,5.569-.1-.057-.714,2.52,2.064,2.708c-.512.091,2.964,1.048,3.549.964h0c.579.039,1.092-.543,1.3-1.514l1.183-5.452Z" transform="translate(-1774.326 -1135.085)" fill="#727997"/>
            <path id="Trazado_650236" data-name="Trazado 650236" d="M1778.855,1148.3l4.2,1.468a3.213,3.213,0,0,1-.061,2.4,1.066,1.066,0,0,1-1.374.47l-3.268-1.438Z" transform="translate(-1777.215 -1145.679)" fill="#b0c0d2"/>
            <path id="Trazado_650237" data-name="Trazado 650237" d="M1776.027,1172.871c.662,1.147.664,2.385.005,2.765s-1.73-.24-2.392-1.387-.664-2.385-.005-2.765S1775.365,1171.724,1776.027,1172.871Z" transform="translate(-1773.034 -1164.185)" fill="url(#linear-gradient-50)"/>
            <path id="Trazado_650238" data-name="Trazado 650238" d="M1774.511,1176.906c.524.908.627,1.83.23,2.06s-1.144-.321-1.669-1.229-.627-1.83-.23-2.06S1773.986,1176,1774.511,1176.906Z" transform="translate(-1772.6 -1167.596)" fill="url(#linear-gradient-51)"/>
            <path id="Trazado_650239" data-name="Trazado 650239" d="M1774.752,1177.256c.744,7.517,8.448,9.105,17.48-1.727.206-.423-.265-1.6-1.411.14-7.966,9.76-15.509,7.311-15.006,1.126C1775.312,1176.151,1774.79,1176.546,1774.752,1177.256Z" transform="translate(-1774.326 -1166.892)" fill="#727997"/>
          </g>
          <g id="Grupo_901882" data-name="Grupo 901882" transform="translate(13.686)">
            <path id="Trazado_650240" data-name="Trazado 650240" d="M1779.645,1124.663a6.309,6.309,0,0,1,5.15-4.47c3.116-.266,6.208,1.71,6.473,4.826a8.027,8.027,0,0,1-1.791,4.777A35.913,35.913,0,0,0,1779.645,1124.663Z" transform="translate(-1778.483 -1120.169)" fill="#222b5a"/>
            <path id="Trazado_650241" data-name="Trazado 650241" d="M1786.239,1143.323a43.307,43.307,0,0,1-11.379-5.226c-1.024,0-1.37.754-.826,1.3a53.417,53.417,0,0,0,11.536,5.355A.794.794,0,0,0,1786.239,1143.323Z" transform="translate(-1773.779 -1134.546)" fill="url(#linear-gradient-52)"/>
          </g>
        </g>
      </g>
      <g id="Grupo_901889" data-name="Grupo 901889" transform="translate(141.957 302.579)">
        <path id="Trazado_650242" data-name="Trazado 650242" d="M563.1,1020.847s5.25,13.588,11.416,26.111a107.725,107.725,0,0,0,10.425,16.582c-17.5.831-39.251.111-39.251.111Z" transform="translate(-474.235 -1018.612)" fill="#222b5a"/>
        <path id="Trazado_650243" data-name="Trazado 650243" d="M480.725,1039.989s21.4,47.779,27.918,55.022l-60.743,1.644S457.227,1084.566,480.725,1039.989Z" transform="translate(-395.816 -1033.963)" fill="#afafaf"/>
        <path id="Trazado_650244" data-name="Trazado 650244" d="M270.792,1101.663l-43.741.325s28.245-43.507,28.643-55.678c11.8-.32,48.654.46,48.654.46S274.986,1098.086,270.792,1101.663Z" transform="translate(-218.707 -1038.97)" fill="#afafaf"/>
        <path id="Trazado_650245" data-name="Trazado 650245" d="M337.682,1019.12s-3.533,11.806-7.945,23.191c-4.061,10.481-9.5,20.791-11.327,21.6-8.356,3.678-53.808-.437-53.808-.437s14.861-28.029,19.489-44.775C304.172,1019.491,337.682,1019.12,337.682,1019.12Z" transform="translate(-248.82 -1016.886)" fill="#222b5a"/>
        <path id="Trazado_650246" data-name="Trazado 650246" d="M595.776,1180.451s-12.947-29.149-13.265-34.325c-6.02,21.975-11.032,34.983-11.032,34.983Z" transform="translate(-494.919 -1119.079)" fill="#222b5a"/>
        <g id="Grupo_901885" data-name="Grupo 901885" transform="translate(71.774 27.079)">
          <path id="Trazado_650247" data-name="Trazado 650247" d="M547.568,1168.62l15.566-22.33c-2.317,13.472-11.032,34.983-11.032,34.983l-4.68-11.313A1.405,1.405,0,0,1,547.568,1168.62Z" transform="translate(-547.315 -1146.29)" fill="#e8e8e8"/>
          <path id="Trazado_650248" data-name="Trazado 650248" d="M643.691,1169.749l-3.243,10.866c-7.253-10.352-13.265-34.325-13.265-34.325l16.295,22.227A1.405,1.405,0,0,1,643.691,1169.749Z" transform="translate(-611.365 -1146.29)" fill="#e8e8e8"/>
        </g>
        <g id="Grupo_901886" data-name="Grupo 901886" transform="translate(53.067 0.691)">
          <path id="Trazado_650249" data-name="Trazado 650249" d="M453.227,1077.861a.357.357,0,0,0,.183-.057c5.3-3.411,10.5-8.921,15.445-16.377a136.618,136.618,0,0,0,11.293-21.392,209.91,209.91,0,0,0,9.323-26.533.357.357,0,1,0-.692-.18,209.243,209.243,0,0,1-9.291,26.44c-5.54,12.878-14.628,29.827-26.463,37.441a.358.358,0,0,0,.2.658Z" transform="translate(-452.859 -1013.055)" fill="#12263f"/>
        </g>
        <g id="Grupo_901887" data-name="Grupo 901887" transform="translate(87.962 0.719)">
          <path id="Trazado_650250" data-name="Trazado 650250" d="M674.31,1074.166a.358.358,0,0,0,.05-.71c-5.985-1.025-12.05-4.8-18.029-11.228A101.308,101.308,0,0,1,642.2,1041.8a193.932,193.932,0,0,1-12.454-28.362.357.357,0,1,0-.679.223,194.733,194.733,0,0,0,12.506,28.48,102.01,102.01,0,0,0,14.239,20.572c6.088,6.542,12.289,10.393,18.432,11.445A.363.363,0,0,0,674.31,1074.166Z" transform="translate(-629.045 -1013.194)" fill="#222b5a"/>
        </g>
        <g id="Grupo_901888" data-name="Grupo 901888" transform="translate(1.706)">
          <path id="Trazado_650251" data-name="Trazado 650251" d="M193.9,1074.806a.357.357,0,0,0,.221-.084c9.4-7.936,18.052-25.112,23.658-38.124,6.064-14.076,9.967-26.446,10.006-26.569a.357.357,0,0,0-.682-.214c-.039.123-3.933,12.463-9.983,26.507-7.994,18.555-16.107,31.644-23.46,37.854a.357.357,0,0,0,.24.63Z" transform="translate(-193.537 -1009.564)" fill="#222b5a"/>
        </g>
        <path id="Trazado_650252" data-name="Trazado 650252" d="M852.425,1296.067l.344-.009a1.028,1.028,0,0,1,1.109,1.147l-.413,3.628c-.015.139-.133.157-.274.161l-1.441.039c-.155,0-.189.037-.193-.118l-.1-3.813A.948.948,0,0,1,852.425,1296.067Z" transform="translate(-719.443 -1239.315)" fill="url(#linear-gradient-53)"/>
        <path id="Trazado_650253" data-name="Trazado 650253" d="M450.353,1313.948l.344-.009a1.305,1.305,0,0,1,1.116,1.395l-.41,3.751a.313.313,0,0,1-.27.284l-1.441.039c-.155,0-.166-.127-.17-.282l-.1-3.813C449.4,1314.712,449.753,1313.965,450.353,1313.948Z" transform="translate(-397.034 -1253.656)" fill="url(#linear-gradient-54)"/>
        <path id="Trazado_650254" data-name="Trazado 650254" d="M185.7,1315.325l.329-.1a1.088,1.088,0,0,1,1.389.873l.581,3.694a.28.28,0,0,1-.2.312l-1.38.417a.28.28,0,0,1-.349-.187l-1.1-3.652A1.088,1.088,0,0,1,185.7,1315.325Z" transform="translate(-184.922 -1254.65)" fill="url(#linear-gradient-55)"/>
      </g>
      <g id="Grupo_901904" data-name="Grupo 901904" transform="translate(193.895 322.863)">
        <g id="Grupo_901893" data-name="Grupo 901893" transform="translate(50.11 28.753)">
          <g id="Grupo_901890" data-name="Grupo 901890" transform="translate(11.767 26.118)">
            <path id="Trazado_650255" data-name="Trazado 650255" d="M759.584,1393.449l11.853-.713-.662,3.145-10.6-.96Z" transform="translate(-759.584 -1392.002)" fill="url(#linear-gradient-56)"/>
            <path id="Trazado_650256" data-name="Trazado 650256" d="M816.748,1389.764l2.2-.734-.745,3.08-2.119.8Z" transform="translate(-804.895 -1389.03)" fill="url(#linear-gradient-57)"/>
            <path id="Trazado_650257" data-name="Trazado 650257" d="M774.974,1389.03l-12.6.734-1.125.693,11.523-.693,2.2-.452Z" transform="translate(-760.919 -1389.03)" fill="url(#linear-gradient-58)"/>
          </g>
          <g id="Grupo_901891" data-name="Grupo 901891" transform="translate(0 27.534)">
            <path id="Trazado_650258" data-name="Trazado 650258" d="M721.206,1396.516l-11.344-.339.7,2.792,11.807-.91Z" transform="translate(-707.942 -1396.177)" fill="url(#linear-gradient-59)"/>
            <path id="Trazado_650259" data-name="Trazado 650259" d="M702.09,1396.177l-1.919.32.494,2.588,2.123-.116Z" transform="translate(-700.171 -1396.177)" fill="url(#linear-gradient-60)"/>
          </g>
          <g id="Grupo_901892" data-name="Grupo 901892" transform="translate(3.411)">
            <path id="Trazado_650260" data-name="Trazado 650260" d="M730.324,1284.743s-13.5,3.522-12.912-7.63c0,0-.117-5.282,1.643-7.63,0,0,.7,6.339,2.113,4.93s-2.249-5.987,2.691-10.212.479-7.043.479-7.043,10.565,1.291,9.626,9.626l-1.291,5.4s3.521.352,3.874-4.461,2.817,4.578,1.057,8.687c0,0-1.135,4.148-3.169,5.165a5.3,5.3,0,0,0,3.8-2.583C738.58,1281.573,735.607,1284.625,730.324,1284.743Z" transform="translate(-717.393 -1257.157)" fill="#f1b62b"/>
            <path id="Trazado_650261" data-name="Trazado 650261" d="M734.636,1326.283s-5.384-1.7-4.5-6.457c1.7,2,2.7,2.429,3.228,2.477-.352-.6-2.113-4.413-.176-6.233s3.58-3.991,3.4-6.808,2.641,1.585,2.524,5.693.47,4.7,2.935,2.054S746.535,1327.457,734.636,1326.283Z" transform="translate(-727.531 -1298.227)" fill="#e3a208"/>
            <path id="Trazado_650262" data-name="Trazado 650262" d="M810.433,1284.114s-.235-2.038.7-1.275S811.314,1286.446,810.433,1284.114Z" transform="translate(-791.985 -1277.616)" fill="url(#linear-gradient-61)"/>
            <path id="Trazado_650263" data-name="Trazado 650263" d="M723.9,1299.119s-.239-1.188.716-.743S724.8,1300.478,723.9,1299.119Z" transform="translate(-722.591 -1290.132)" fill="url(#linear-gradient-62)"/>
          </g>
        </g>
        <g id="Grupo_901898" data-name="Grupo 901898" transform="translate(0 1.731)">
          <g id="Grupo_901894" data-name="Grupo 901894" transform="translate(34.035 28.023)">
            <path id="Trazado_650264" data-name="Trazado 650264" d="M701.5,1264.809s1.127-3.036,3.538-2.542,3.39,1.507,2.229,2.229-2.871,1.992-3.727,1.7S701.482,1265.467,701.5,1264.809Z" transform="translate(-685.165 -1262.213)" fill="url(#linear-gradient-63)"/>
            <path id="Trazado_650265" data-name="Trazado 650265" d="M623.228,1270.093s7.833,8.153,12.789,0l1.439,2.238s-5.982,10.936-18.452.545Z" transform="translate(-619.005 -1268.532)" fill="url(#linear-gradient-64)"/>
          </g>
          <path id="Trazado_650266" data-name="Trazado 650266" d="M533.109,1145.354c-.046.087-2.93,2.209-2.93,2.209s.637,4.556,3.223,6.356c2.843,1.978,6.859-1.629,6.859-1.629s3.2.76,4.9-5.893c.39-1.526-1.861-1.655-4.577-1.374C537.077,1145.384,533.109,1145.354,533.109,1145.354Z" transform="translate(-513.737 -1140.114)" fill="url(#linear-gradient-65)"/>
          <path id="Trazado_650267" data-name="Trazado 650267" d="M498.111,1218.152a12.175,12.175,0,0,1,3.7-1.72c.5-.135,3.179.644,4.837.606,2.276-.052,4.593-1.088,6.469-.62a13.535,13.535,0,0,1,4.269,1.7c2.636,1.875,4.184,5.371,5.127,8.833a12.072,12.072,0,0,1-4.033,2.648l-.415,16.832-9.953,5.092-11.36-5.7.407-16.449s-3.607-1.68-3.872-2.291S494.928,1220.341,498.111,1218.152Z" transform="translate(-484.13 -1197.367)" fill="#f1b62b"/>
          <path id="Trazado_650268" data-name="Trazado 650268" d="M489.958,1270.358s-4.834,13.4,6.189,18.91c2.289-.3,1.409-4.105,1.409-4.105s-4.79-1.06-3.351-12.24A30.968,30.968,0,0,0,489.958,1270.358Z" transform="translate(-480.636 -1240.721)" fill="url(#linear-gradient-66)"/>
          <g id="Grupo_901895" data-name="Grupo 901895" transform="translate(33.644 53.415)">
            <path id="Trazado_650269" data-name="Trazado 650269" d="M632.737,1391.068c-2.5-.573-8.657-.348-8.657-.348l.152.719-.389,3.161a65.7,65.7,0,0,0,8.208.988,2.547,2.547,0,0,0,.76-.113c.083-.074.163-.151.24-.234A2.979,2.979,0,0,0,632.737,1391.068Z" transform="translate(-622.494 -1390.625)" fill="#222b5a"/>
            <path id="Trazado_650270" data-name="Trazado 650270" d="M617.346,1390.416l.978.042a1.883,1.883,0,0,1,1.373.71,2.318,2.318,0,0,1,.5,1.585,1.825,1.825,0,0,1-.529,1.206,1.482,1.482,0,0,1-1.144.434l-1.5-.106Z" transform="translate(-617.032 -1390.416)" fill="url(#linear-gradient-67)"/>
          </g>
          <g id="Grupo_901896" data-name="Grupo 901896" transform="translate(0 53.321)">
            <path id="Trazado_650271" data-name="Trazado 650271" d="M448.249,1390.177c2.511-.5,8.447-.044,8.447-.044l.046.676.31,3.171a65.641,65.641,0,0,1-8.229.736,2.554,2.554,0,0,1-.757-.137,3.348,3.348,0,0,1-.234-.242A2.975,2.975,0,0,1,448.249,1390.177Z" transform="translate(-447.162 -1389.944)" fill="#222b5a"/>
            <path id="Trazado_650272" data-name="Trazado 650272" d="M491.03,1390.421l-.978.012a1.87,1.87,0,0,0-1.391.668,2.305,2.305,0,0,0-.543,1.569,1.836,1.836,0,0,0,.5,1.221,1.49,1.49,0,0,0,1.133.469l1.5-.061Z" transform="translate(-480.006 -1390.327)" fill="url(#linear-gradient-68)"/>
          </g>
          <path id="Trazado_650273" data-name="Trazado 650273" d="M532.968,1332.647c-1.133-2.607-3.9-3.03-6.261-1.811-.041.054-14.974,7.708-28.144,11.062a14.313,14.313,0,0,1,.613,3.759q.012.422-.013.834c10.1-.519,21.06-3.887,30.478-6.847A5.206,5.206,0,0,0,532.968,1332.647Z" transform="translate(-488.383 -1288.697)" fill="#12263f"/>
          <path id="Trazado_650274" data-name="Trazado 650274" d="M489.118,1344.412a8.685,8.685,0,0,1,.85-4.069c.017-.057.038-.113.056-.169-.752-.233-1.724-.549-3-.981a143.959,143.959,0,0,1-23.3-10.152c-2.645-1.445-5.653-.476-6.5,2.653a4.9,4.9,0,0,0,3.423,6.018c7.537,2.508,3.613,1.811,6.074,2.6a103,103,0,0,0,22.406,4.415C489.128,1344.624,489.121,1344.518,489.118,1344.412Z" transform="translate(-455.088 -1287.255)" fill="#222b5a"/>
          <path id="Trazado_650275" data-name="Trazado 650275" d="M536.426,1199.449a5.768,5.768,0,0,0,5.889,4.268c4.973-.09,5.417-4.282,5.417-4.282l-3.249-.7-.272-3.62-4.887.362-.091,3.439Z" transform="translate(-518.747 -1180.385)" fill="url(#linear-gradient-69)"/>
          <path id="Trazado_650276" data-name="Trazado 650276" d="M545.589,1143.334s-5.6,10.848,1.043,13.48c4.686,1.857,7.624-7.2,6.747-9.658-1.355-3.794-2.247-3.344-2.247-3.344Z" transform="translate(-524.326 -1138.855)" fill="url(#linear-gradient-70)"/>
          <path id="Trazado_650277" data-name="Trazado 650277" d="M543.953,1124.213c2.767.76.4,6.761-3.763,5.342s-5.8-1.4-6.451-.255-.789,5.206-2.2,3.2c-1.544-2.2-2.4-6.619-.512-8.043,1.692-1.273,2.087-3.246,4.116-3.178,2.694.091,4.777-1.1,5.993-.242C542.535,1122.024,541.917,1123.653,543.953,1124.213Z" transform="translate(-513.551 -1120.721)" fill="#636363"/>
          <path id="Trazado_650278" data-name="Trazado 650278" d="M542.043,1166.721s-1.194-1.285-1.386.264.423,3.544,1.142,2.45A3.741,3.741,0,0,0,542.043,1166.721Z" transform="translate(-522.111 -1157.209)" fill="url(#linear-gradient-71)"/>
          <g id="Grupo_901897" data-name="Grupo 901897" transform="translate(15.032 30.516)">
            <path id="Trazado_650279" data-name="Trazado 650279" d="M534.707,1282.292a.111.111,0,0,0-.149-.014,3.966,3.966,0,0,1-2.149.988c.47-.752,4.865-6.777,6.037-8.382a.054.054,0,0,0-.08-.072,40.949,40.949,0,0,0-6.3,7.842l-7.468,8.618-1.482,2.026a.291.291,0,0,0,.073.413l.242.162a.291.291,0,0,0,.386-.056c1.06-1.281,6.832-8.216,8.3-9.08a12.166,12.166,0,0,0,2.588-2.3A.111.111,0,0,0,534.707,1282.292Z" transform="translate(-523.061 -1274.798)" fill="url(#linear-gradient-72)"/>
            <path id="Rectángulo_302174" data-name="Rectángulo 302174" d="M1.256,0h0A1.256,1.256,0,0,1,2.511,1.256v.251A1.255,1.255,0,0,1,1.256,2.762h0A1.255,1.255,0,0,1,0,1.507V1.256A1.256,1.256,0,0,1,1.256,0Z" transform="matrix(0.459, -0.888, 0.888, 0.459, 10.675, 3.896)" fill="url(#linear-gradient-73)"/>
            <path id="Trazado_650280" data-name="Trazado 650280" d="M570.56,1301.491a1.3,1.3,0,0,1-1.829.151l-.345-.26a1.3,1.3,0,0,1-.356-1.8l.077-.1a1.3,1.3,0,0,1,1.829-.151l.345.26a1.3,1.3,0,0,1,.356,1.8Z" transform="translate(-558.943 -1294.227)" fill="url(#linear-gradient-74)"/>
          </g>
          <path id="Trazado_650281" data-name="Trazado 650281" d="M516.745,1341.9s2.591,1.71,3.6,2.506,2.439,1.806,3.2-.047-.25-2.424-1.831-2.885C520.995,1341.268,516.866,1340.436,516.745,1341.9Z" transform="translate(-502.964 -1297.415)" fill="url(#linear-gradient-75)"/>
        </g>
        <g id="Grupo_901903" data-name="Grupo 901903" transform="translate(62.018)">
          <g id="Grupo_901899" data-name="Grupo 901899" transform="translate(20.485 40.496)">
            <path id="Trazado_650282" data-name="Trazado 650282" d="M889.84,1336.027l-26.115-7.221,4.878-12.36,23.832,6.744Z" transform="translate(-863.725 -1316.446)" fill="url(#linear-gradient-76)"/>
            <path id="Trazado_650283" data-name="Trazado 650283" d="M979.7,1355.859c0,3.609-3.425,6.535-7.651,6.535a6.535,6.535,0,0,1,0-13.069C976.279,1349.325,979.7,1352.251,979.7,1355.859Z" transform="translate(-945.364 -1342.813)" fill="url(#linear-gradient-77)"/>
          </g>
          <path id="Trazado_650284" data-name="Trazado 650284" d="M927.189,1127.6s0,.874,2.826.819c1.574-.031,4.493-.374,6.142,2.088a3.374,3.374,0,0,0,3.857,1.378c3.624-1.18,9.688-2.046,13.461,3.376,2.88,4.138,1.459,6.974-.631,8.761a3.783,3.783,0,0,0-.595,5.193c1.195,1.525,1.676,3.741-.481,6.773-4.834,6.793-17.31-1.6-17.31-1.6l-11.65-19.761Z" transform="translate(-890.62 -1124.51)" fill="#12263f"/>
          <path id="Trazado_650285" data-name="Trazado 650285" d="M993.389,1155.788a.24.24,0,0,1-.112-.028.045.045,0,1,1,.042-.08c.149.078.313-.115.386-.242a5.519,5.519,0,0,0-.535-5.952,5.183,5.183,0,0,0-3.031-2,8,8,0,0,0-2.462-.017c-1.35.143-2.707.354-4.034.627l-.329.068a11.961,11.961,0,0,1-2.4.335H980.9a3.833,3.833,0,0,1-2.57-.853,5.691,5.691,0,0,1-.944-1.219,4.464,4.464,0,0,0-1.179-1.388.045.045,0,1,1,.05-.075,4.537,4.537,0,0,1,1.2,1.414,5.617,5.617,0,0,0,.928,1.2,3.747,3.747,0,0,0,2.51.83h.014a11.879,11.879,0,0,0,2.379-.333l.329-.069c1.33-.274,2.69-.485,4.043-.628a8.123,8.123,0,0,1,2.49.018,5.274,5.274,0,0,1,3.085,2.03,5.611,5.611,0,0,1,.541,6.052A.532.532,0,0,1,993.389,1155.788Z" transform="translate(-933.431 -1138.428)" fill="#91b3fa"/>
          <path id="Trazado_650286" data-name="Trazado 650286" d="M1052.369,1174.149h-.008a.045.045,0,0,1-.036-.053,5.323,5.323,0,0,0-.257-3.122,3.324,3.324,0,0,0-2.316-1.972.045.045,0,0,1-.036-.053.044.044,0,0,1,.053-.036,3.416,3.416,0,0,1,2.382,2.024,5.415,5.415,0,0,1,.263,3.175A.046.046,0,0,1,1052.369,1174.149Z" transform="translate(-992.393 -1157.636)" fill="#91b3fa"/>
          <path id="Trazado_650287" data-name="Trazado 650287" d="M810.593,1309.52l9.75,3.984-7.191-9.724-4.334.37a1.621,1.621,0,0,0-1.3.862,99.285,99.285,0,0,0-8.261,23.786h0c-.008.043-.016.083-.023.121-.048.236-.1.471-.143.708-.069.144-.2.238-.522.4-.03,0-5.3,2.991-5.326,2.988l-1.341.952a17.078,17.078,0,0,0,9.689-.587l-.648-2.053a1.936,1.936,0,0,1,.347-1.172l.142-.182h0C804.649,1325.836,812.525,1314.854,810.593,1309.52Z" transform="translate(-785.641 -1265.793)" fill="url(#linear-gradient-78)"/>
          <path id="Trazado_650288" data-name="Trazado 650288" d="M794.388,1447.066a2.529,2.529,0,0,1,.617,1.685.966.966,0,0,1-.818.84c-1.9.316-8.116,1.288-10.563.874a.269.269,0,0,1-.162-.433,8.571,8.571,0,0,1,3.048-2.147l-.2.157a.33.33,0,0,0,.218.593A25.871,25.871,0,0,0,794.388,1447.066Z" transform="translate(-778.826 -1380.7)" fill="#222b5a"/>
          <g id="Grupo_901900" data-name="Grupo 901900" transform="translate(0 36.421)">
            <path id="Trazado_650289" data-name="Trazado 650289" d="M800.293,1309.681l-5.129-9.717-4.52-.618c-.551-.066-.339.189-.69.618-1.371,1.671-8.936,13.465-14,21.4h0c-3.889,2.5-6.352,4.1-6.363,4.095l-1.317.985a17.079,17.079,0,0,0,9.671-.827l-.7-2.036a1.322,1.322,0,0,1,.3-1.089c3.724-3.137,14.585-11.735,13.748-17.52Z" transform="translate(-766.697 -1298.65)" fill="url(#linear-gradient-79)"/>
            <path id="Trazado_650290" data-name="Trazado 650290" d="M771.187,1426.362a2.19,2.19,0,0,1,.672,1.578.967.967,0,0,1-.8.86c-1.888.363-8.082,1.489-10.538,1.136a.269.269,0,0,1-.173-.429,8.409,8.409,0,0,1,2.986-2.27l-.193.21a.33.33,0,0,0,.233.587C765.2,1427.884,768.964,1427.454,771.187,1426.362Z" transform="translate(-760.296 -1400.517)" fill="#222b5a"/>
            <path id="Trazado_650291" data-name="Trazado 650291" d="M841.924,1298.2l-19.619-2.283-.315-.038a1.62,1.62,0,0,0-1.447.582c-1.331,1.623-8.083,13.189-12.824,21.389.654.569,1.319,1.125,1.987,1.679,4.121-3.44,14.024-11.547,13.224-17.081l9.55,3.969Z" transform="translate(-798.327 -1295.871)" fill="#12263f"/>
          </g>
          <path id="Trazado_650292" data-name="Trazado 650292" d="M864.8,1298.735l-11.836.267-9.133.739,0,0-1.477.135h0l-2.856.235a1.617,1.617,0,0,0-1.3.858,99.1,99.1,0,0,0-8.042,21.556c1.135.47,2.594.649,3.681,1.224,3.76-4.813,9.556-12.859,7.911-17.4l3.183,1.067.011.032c5.069,2.243,12.027,3.918,21.658,2C870.278,1308.1,867.616,1303.458,864.8,1298.735Z" transform="translate(-816.313 -1261.747)" fill="#222b5a"/>
          <g id="Grupo_901901" data-name="Grupo 901901" transform="translate(28.496 8.101)">
            <path id="Trazado_650293" data-name="Trazado 650293" d="M915.29,1203.947a89.5,89.5,0,0,1-6.813-7.227,6.11,6.11,0,0,1-1.034-5.5,75.888,75.888,0,0,1,3.016-7.595c.255-.854,5.374-.819,5.374-.819s10.074,6.538,14.032,17.614l-4.445,1.384a51.935,51.935,0,0,0-5.229-7.219s4.5,5.941,4.656,8.373Z" transform="translate(-906.591 -1176.881)" fill="#ee4e5d"/>
            <path id="Trazado_650294" data-name="Trazado 650294" d="M920.572,1154.857c.053.177,1.39,4.607,1.494,4.7a7.476,7.476,0,0,0,4.261-.665l-2.715-6.006Z" transform="translate(-917.324 -1152.885)" fill="url(#linear-gradient-80)"/>
            <path id="Trazado_650295" data-name="Trazado 650295" d="M904.172,1276.982l3.431-3.733,3.962,1.067s4.619.716,7.263,0l2.644-.716,5.974-1.86.938,2.652a1.6,1.6,0,0,1-.583,1.834,10.523,10.523,0,0,1-1.509.94c-.787.344-18.124.109-18.124.109Z" transform="translate(-904.172 -1248.201)" fill="url(#linear-gradient-81)"/>
          </g>
          <g id="Grupo_901902" data-name="Grupo 901902" transform="translate(26.612)">
            <path id="Trazado_650296" data-name="Trazado 650296" d="M905.094,1128.515a8.483,8.483,0,0,0-.4,5.682c.8,3.532,2.638,4.017,3.906,3.292a6.77,6.77,0,0,0,3.457-5.157C912.56,1129.255,906.72,1125.806,905.094,1128.515Z" transform="translate(-902.487 -1124.455)" fill="url(#linear-gradient-82)"/>
            <path id="Trazado_650297" data-name="Trazado 650297" d="M901.943,1119.423s-1.6-4.833-4.986-2.263l-.359,1.167s-2.865-1.137-1.626-3.712,4.245-3.591,7.225-1.542,4.547,3.756,4.132,6.171-2.154,1.4-2.154,1.4-.171-1.824-1-2.228-.942.952-.942.952Z" transform="translate(-894.662 -1111.981)" fill="#12263f"/>
          </g>
        </g>
      </g>
    </g>
  </g>
</svg>
