<svg xmlns="http://www.w3.org/2000/svg" width="115.771" height="115.771" viewBox="0 0 115.771 115.771">
  <g id="Grupo_1000271" data-name="Grupo 1000271" transform="translate(-250.729 -9573)">
    <g id="Elipse_5485" data-name="Elipse 5485" transform="translate(250.729 9573)" fill="#fff" stroke="#ee4e5d" stroke-width="3">
      <circle cx="57.885" cy="57.885" r="57.885" stroke="none"/>
      <circle cx="57.885" cy="57.885" r="56.385" fill="none"/>
    </g>
    <g id="Mathematics-Calculator-Book-Hand-Maths" transform="translate(277.311 9599.321)">
      <path id="Trazado_648310" data-name="Trazado 648310" d="M2,0H56.359a2,2,0,0,1,2,2V45.85a2,2,0,0,1-2,2H2a2,2,0,0,1-2-2V2A2,2,0,0,1,2,0Z" transform="translate(1.118 1.118)" fill="#f1b62b"/>
      <path id="Trazado_126095" data-name="Trazado 126095" d="M32.043,7V46.651h-24A1.043,1.043,0,0,1,7,45.608V8.043A1.043,1.043,0,0,1,8.043,7Z" transform="translate(-1.783 -1.783)" fill="#f1f2f2"/>
      <path id="Trazado_126096" data-name="Trazado 126096" d="M56.043,8.043V45.608A1.043,1.043,0,0,1,55,46.651H31V7H55A1.043,1.043,0,0,1,56.043,8.043Z" transform="translate(-0.74 -1.783)" fill="#e6e7e8"/>
      <path id="Trazado_126097" data-name="Trazado 126097" d="M51.174,7v6.261l-2.087-2.087L47,13.261V7Z" transform="translate(-0.045 -1.783)" fill="#ee4e5d"/>
      <rect id="Rectángulo_294054" data-name="Rectángulo 294054" width="27.055" height="39.577" rx="2" transform="translate(34.434 21.913)" fill="#179587"/>
      <rect id="Rectángulo_294055" data-name="Rectángulo 294055" width="18.782" height="8.273" rx="1" transform="translate(40.695 28.173)" fill="#3d9ae2"/>
      <path id="Trazado_126098" data-name="Trazado 126098" d="M58.739,41h-16.7A1.043,1.043,0,0,0,41,42.043v16.7a1.043,1.043,0,0,0,1.043,1.043h16.7a1.043,1.043,0,0,0,1.043-1.043v-16.7A1.043,1.043,0,0,0,58.739,41Z" transform="translate(-0.305 -0.305)" fill="#3d9ae2"/>
      <path id="Trazado_126099" data-name="Trazado 126099" d="M51,45h6.261v6.261H51Z" transform="translate(0.129 -0.131)" fill="#222b5a"/>
      <path id="Trazado_126100" data-name="Trazado 126100" d="M57.261,51v5.217a1.043,1.043,0,0,1-1.043,1.043H51V51Z" transform="translate(0.129 0.129)" fill="#222b5a"/>
      <path id="Trazado_126101" data-name="Trazado 126101" d="M39,45h6.261v6.261H39Z" transform="translate(-0.392 -0.131)" fill="#222b5a"/>
      <path id="Trazado_126102" data-name="Trazado 126102" d="M45,39h6.261v6.261H45Z" transform="translate(-0.131 -0.392)" fill="#222b5a"/>
      <path id="Trazado_126103" data-name="Trazado 126103" d="M45.261,51v6.261H40.043A1.043,1.043,0,0,1,39,56.217V51Z" transform="translate(-0.392 0.129)" fill="#222b5a"/>
      <path id="Trazado_126104" data-name="Trazado 126104" d="M45,45h6.261v6.261H45Z" transform="translate(-0.131 -0.131)" fill="#222b5a"/>
      <path id="Trazado_126105" data-name="Trazado 126105" d="M45,51h6.261v6.261H45Z" transform="translate(-0.131 0.129)" fill="#222b5a"/>
      <path id="Trazado_126106" data-name="Trazado 126106" d="M57.261,40.043v5.217H51V39h5.217A1.043,1.043,0,0,1,57.261,40.043Z" transform="translate(0.129 -0.392)" fill="#222b5a"/>
      <path id="Trazado_126107" data-name="Trazado 126107" d="M45.261,39v6.261H39V40.043A1.043,1.043,0,0,1,40.043,39Z" transform="translate(-0.392 -0.392)" fill="#222b5a"/>
      <rect id="Rectángulo_294056" data-name="Rectángulo 294056" width="18.782" height="8.273" rx="1" transform="translate(38.682 26.161)" fill="#c2dff6"/>
      <path id="Trazado_126108" data-name="Trazado 126108" d="M25.771,53.435a2.087,2.087,0,1,1,4.174,0v9.391h-18.5L7.552,56.085a2.087,2.087,0,0,1,.762-2.859,2.052,2.052,0,0,1,1.033-.282A2.087,2.087,0,0,1,11.162,54l2.087,3.61V45.087a2.087,2.087,0,0,1,4.174,0v6.261a2.164,2.164,0,0,1,2.087-2.087A2.1,2.1,0,0,1,21.6,51.348v1.043a2.087,2.087,0,0,1,4.174,0Z" transform="translate(-1.771 -0.218)" fill="#ffc477"/>
      <path id="Trazado_126109" data-name="Trazado 126109" d="M56.782,38h-16.7A2.087,2.087,0,0,0,38,40.087v16.7a2.087,2.087,0,0,0,2.087,2.087h16.7a2.087,2.087,0,0,0,2.087-2.087v-16.7A2.087,2.087,0,0,0,56.782,38Zm0,6.261H52.608V40.087h4.174ZM46.348,50.521V46.348h4.174v4.174Zm4.174,2.087v4.174H46.348V52.608Zm-6.261-2.087H40.087V46.348h4.174Zm2.087-6.261V40.087h4.174v4.174Zm6.261,2.087h4.174v4.174H52.608Zm-8.348-6.261v4.174H40.087V40.087ZM40.087,52.608h4.174v4.174H40.087Zm12.521,4.174V52.608h4.174v4.174Z" transform="translate(-0.436 -0.436)"/>
      <path id="Trazado_126110" data-name="Trazado 126110" d="M62.52,23.057V5.13A3.14,3.14,0,0,0,59.39,2H5.13A3.14,3.14,0,0,0,2,5.13V48.955a3.14,3.14,0,0,0,3.13,3.13h7.3V55.5l-.136-.24a3.132,3.132,0,0,0-5.426,3.13l3.892,6.741,1.805-1.043L8.678,57.345a1.054,1.054,0,0,1,.386-1.43,1.033,1.033,0,0,1,1.419.386l2.087,3.61a1.066,1.066,0,0,0,1.179.49,1.043,1.043,0,0,0,.772-1.012V46.869a1.043,1.043,0,1,1,2.087,0V56.26a1.043,1.043,0,0,0,2.087,0v-3.13a1.121,1.121,0,0,1,1.043-1.043,1.043,1.043,0,0,1,1.043,1.043v3.13a1.043,1.043,0,0,0,2.087,0V54.173a1.043,1.043,0,1,1,2.087,0V57.3a1.043,1.043,0,0,0,2.087,0V55.216a1.043,1.043,0,0,1,2.087,0v9.391h2.087V55.216a3.14,3.14,0,0,0-3.13-3.13,3.062,3.062,0,0,0-1.534.407,2.572,2.572,0,0,0-.334-.407h9.172v9.391a3.14,3.14,0,0,0,3.13,3.13H61.477a3.14,3.14,0,0,0,3.13-3.13V26A3.141,3.141,0,0,0,62.52,23.057ZM33.3,4.087H59.39A1.043,1.043,0,0,1,60.433,5.13V22.869H58.347V8.261A2.093,2.093,0,0,0,56.26,6.174H33.3ZM52.086,8.261v2.7l-.3-.313s-1.07-.4-1.482,0l-.3.313v-2.7ZM31.217,50H18.7V47.912H31.217Zm0-35.477H29.13v2.087h2.087v4.174H29.13v2.087h2.087v4.174H29.13V29.13h2.087V33.3H29.13v2.087h2.087v4.174H29.13v2.087h2.087v4.174H18.507a3.118,3.118,0,0,0-5.885,0H8.261V8.261H31.217Zm0-8.348H8.261A2.093,2.093,0,0,0,6.174,8.261V45.825a2.093,2.093,0,0,0,2.087,2.087h4.174V50H5.13a1.043,1.043,0,0,1-1.043-1.043V5.13A1.043,1.043,0,0,1,5.13,4.087H31.217ZM35.391,50H33.3V47.912h2.087Zm0-4.174H33.3V41.651h2.087Zm0-6.261H33.3V35.391h2.087Zm0-6.261H33.3V29.13h2.087Zm0-7.3v1.043H33.3V22.869h2.087V20.782H33.3V16.608h2.087V14.521H33.3V8.261H47.912v5.217a1.03,1.03,0,0,0,.647.96,1.043,1.043,0,0,0,1.137-.219l1.346-1.356,1.346,1.356a1.051,1.051,0,0,0,.741.3.874.874,0,0,0,.4-.083,1.03,1.03,0,0,0,.647-.96V8.261H56.26V22.869H38.521A3.14,3.14,0,0,0,35.391,26ZM62.52,61.477a1.043,1.043,0,0,1-1.043,1.043H38.521a1.043,1.043,0,0,1-1.043-1.043V26a1.043,1.043,0,0,1,1.043-1.043H61.477A1.043,1.043,0,0,1,62.52,26Z" transform="translate(-2 -2)"/>
      <path id="Trazado_126111" data-name="Trazado 126111" d="M56.782,26h-16.7A2.087,2.087,0,0,0,38,28.087v6.261a2.087,2.087,0,0,0,2.087,2.087h16.7a2.087,2.087,0,0,0,2.087-2.087V28.087A2.087,2.087,0,0,0,56.782,26Zm0,8.348h-16.7V28.087h16.7Z" transform="translate(-0.436 -0.957)"/>
      <path id="Trazado_126112" data-name="Trazado 126112" d="M51,30h2.087v2.087H51Z" transform="translate(0.129 -0.783)"/>
      <path id="Trazado_126113" data-name="Trazado 126113" d="M47,30h2.087v2.087H47Z" transform="translate(-0.045 -0.783)"/>
      <path id="Trazado_126114" data-name="Trazado 126114" d="M43,30h2.087v2.087H43Z" transform="translate(-0.218 -0.783)"/>
      <path id="Trazado_126115" data-name="Trazado 126115" d="M10,26H24.608v2.087H10Z" transform="translate(-1.652 -0.957)"/>
      <path id="Trazado_126116" data-name="Trazado 126116" d="M10,34H24.608v2.087H10Z" transform="translate(-1.652 -0.609)"/>
      <path id="Trazado_126117" data-name="Trazado 126117" d="M10,38H24.608v2.087H10Z" transform="translate(-1.652 -0.436)"/>
      <path id="Trazado_126118" data-name="Trazado 126118" d="M10,30H20.435v2.087H10Z" transform="translate(-1.652 -0.783)"/>
      <path id="Trazado_126119" data-name="Trazado 126119" d="M22,30h2.087v2.087H22Z" transform="translate(-1.131 -0.783)"/>
      <path id="Trazado_126120" data-name="Trazado 126120" d="M13.306,24.057a1.043,1.043,0,0,0,.868.464,1.073,1.073,0,0,0,.153-.011,1.043,1.043,0,0,0,.846-.73l2.907-9.693H26.7V12H17.3a1.043,1.043,0,0,0-1,.744l-2.493,8.31-.857-1.286a1.043,1.043,0,0,0-.868-.464H10v2.087h1.529Z" transform="translate(-1.652 -1.565)"/>
      <path id="Trazado_126121" data-name="Trazado 126121" d="M23.367,16.465l-2.213,2.213L18.94,16.465,17.465,17.94l2.213,2.213-2.213,2.213,1.475,1.475,2.213-2.213,2.213,2.213,1.475-1.475-2.213-2.213,2.213-2.213Z" transform="translate(-1.328 -1.371)"/>
    </g>
  </g>
</svg>
