<svg xmlns="http://www.w3.org/2000/svg" width="132.136" height="132.136" viewBox="0 0 132.136 132.136">
  <g id="Grupo_1000271" data-name="Grupo 1000271" transform="translate(-896.5 -4762)">
    <g id="Grupo_1000264" data-name="Grupo 1000264" transform="translate(896.5 4762)">
      <ellipse id="Elipse_5519" data-name="Elipse 5519" cx="66.068" cy="66.068" rx="66.068" ry="66.068" transform="translate(0 0)" fill="#fff"/>
      <g id="agricultura" transform="translate(20.565 18.368)">
        <path id="Trazado_126511" data-name="Trazado 126511" d="M402.291,161.265l-19.6-5.346-.793,2.909,12.179,3.322-1.182,4.728,2.926.731,1.166-4.666,3.089.843-1.15,4.6,2.926.731,1.508-6.032A1.508,1.508,0,0,0,402.291,161.265Z" transform="translate(-312.928 -129.546)" fill="#045f9c"/>
        <path id="Trazado_126512" data-name="Trazado 126512" d="M160,127.084h7.54V135.7H160Z" transform="translate(-132.858 -106.146)" fill="#efd66a"/>
        <path id="Trazado_126513" data-name="Trazado 126513" d="M274.455,53.13H254.586L257.868,40h16.587Z" transform="translate(-209.615 -35.476)" fill="#b0c0d2"/>
        <path id="Trazado_126514" data-name="Trazado 126514" d="M195.016,35.6H192V17.508A1.508,1.508,0,0,1,193.508,16h4.524v3.016h-3.016Z" transform="translate(-158.826 -16)" fill="#0a4566"/>
        <path id="Trazado_126515" data-name="Trazado 126515" d="M191.206,122.095H152v-4.524l7.54-3.016v-4.524h-6.032v-1.681A4.351,4.351,0,0,1,157.859,104h33.347Z" transform="translate(-126.366 -87.413)" fill="#ee4e5d"/>
        <path id="Trazado_126516" data-name="Trazado 126516" d="M24,240h87.459v46.745H24Z" transform="translate(-22.492 -197.778)" fill="#f1b62b"/>
        <circle id="Elipse_5042" data-name="Elipse 5042" cx="4.487" cy="4.487" r="4.487" transform="translate(28.811 33.334)" fill="#222b5a"/>
        <circle id="Elipse_5043" data-name="Elipse 5043" cx="1.436" cy="1.436" r="1.436" transform="translate(31.682 36.205)" fill="#f6f6f6"/>
        <path id="Trazado_126517" data-name="Trazado 126517" d="M112.587,286.745,118.619,240H108.063L96,286.745Z" transform="translate(-80.921 -197.778)" fill="#d68029"/>
        <path id="Trazado_126518" data-name="Trazado 126518" d="M128.587,286.745,134.619,240H124.063L112,286.745Z" transform="translate(-93.905 -197.778)" fill="#179587"/>
        <path id="Trazado_126519" data-name="Trazado 126519" d="M286.619,286.745,274.555,240H264l6.032,46.745Z" transform="translate(-217.255 -197.778)" fill="#d68029"/>
        <path id="Trazado_126520" data-name="Trazado 126520" d="M302.619,286.745,290.555,240H280l6.032,46.745Z" transform="translate(-230.239 -197.778)" fill="#179587"/>
        <path id="Trazado_126521" data-name="Trazado 126521" d="M292.871,112A12.871,12.871,0,0,0,280,124.871v3.716h15.079V112Z" transform="translate(-230.239 -93.905)" fill="#89103c"/>
        <path id="Trazado_126522" data-name="Trazado 126522" d="M216,136h3.016v4.524H216Z" transform="translate(-178.302 -113.381)" fill="#af1e4b"/>
        <path id="Trazado_126523" data-name="Trazado 126523" d="M275.016,122.095H272v-3.716A14.379,14.379,0,0,1,286.379,104h9.748v3.016h-9.748a11.363,11.363,0,0,0-11.363,11.363Z" transform="translate(-223.747 -87.413)" fill="#c3e0ed"/>
        <path id="Trazado_126524" data-name="Trazado 126524" d="M248,136h3.016v4.524H248Z" transform="translate(-204.271 -113.381)" fill="#af1e4b"/>
        <path id="Trazado_126525" data-name="Trazado 126525" d="M267.622,56.375l-6.032-6.032-2.133,2.133,1.95,1.95-5.2,5.2-.208.833h3.64l3.9-3.9,1.95,1.95Z" transform="translate(-210.763 -43.87)" fill="#89103c"/>
        <path id="Trazado_126526" data-name="Trazado 126526" d="M184,48h6.032v6.032H184Z" transform="translate(-152.334 -41.968)" fill="#222b5a"/>
        <path id="Trazado_126527" data-name="Trazado 126527" d="M24,250.555,31.54,240h9.047L24,283.729Z" transform="translate(-22.492 -197.778)" fill="#179587"/>
        <path id="Trazado_126528" data-name="Trazado 126528" d="M403.687,254.9,393.047,240H384l17.731,46.745H403.6Z" transform="translate(-314.636 -197.778)" fill="#d68029"/>
        <path id="Trazado_126529" data-name="Trazado 126529" d="M416.587,250.555,409.048,240H400l16.587,43.73Z" transform="translate(-327.62 -197.778)" fill="#179587"/>
        <rect id="Rect치ngulo_294058" data-name="Rect치ngulo 294058" width="8.973" height="15.075" rx="4.487" transform="translate(1.532 19.695)" fill="#179587"/>
        <path id="Trazado_126530" data-name="Trazado 126530" d="M40,176h3.016v12.063H40Z" transform="translate(-35.476 -145.842)" fill="#d68029"/>
        <rect id="Rect치ngulo_294059" data-name="Rect치ngulo 294059" width="8.973" height="15.075" rx="4.487" transform="translate(10.505 19.695)" fill="#179587"/>
        <path id="Trazado_126531" data-name="Trazado 126531" d="M88,176h3.016v12.063H88Z" transform="translate(-74.429 -145.842)" fill="#d68029"/>
        <g id="Grupo_881704" data-name="Grupo 881704" transform="translate(6.032 46.745)">
          <path id="Trazado_126532" data-name="Trazado 126532" d="M236.524,407.54a1.508,1.508,0,0,1-1.43-1.031l-.554-1.663a2.673,2.673,0,0,0-2.539-1.83V400a5.685,5.685,0,0,1,4.524,2.235A5.685,5.685,0,0,1,241.048,400v3.016a2.673,2.673,0,0,0-2.539,1.83l-.554,1.663A1.508,1.508,0,0,1,236.524,407.54Z" transform="translate(-197.318 -374.366)" fill="#2d7a54"/>
          <path id="Trazado_126533" data-name="Trazado 126533" d="M236.524,351.54a1.508,1.508,0,0,1-1.43-1.031l-.554-1.663a2.673,2.673,0,0,0-2.539-1.83V344a5.685,5.685,0,0,1,4.524,2.235A5.685,5.685,0,0,1,241.048,344v3.016a2.673,2.673,0,0,0-2.539,1.83l-.554,1.663A1.508,1.508,0,0,1,236.524,351.54Z" transform="translate(-197.318 -328.921)" fill="#2d7a54"/>
          <path id="Trazado_126534" data-name="Trazado 126534" d="M236.524,463.54a1.508,1.508,0,0,1-1.43-1.031l-.554-1.663a2.672,2.672,0,0,0-2.539-1.83V456a5.685,5.685,0,0,1,4.524,2.235A5.685,5.685,0,0,1,241.048,456v3.016a2.673,2.673,0,0,0-2.539,1.83l-.554,1.663A1.508,1.508,0,0,1,236.524,463.54Z" transform="translate(-197.318 -419.81)" fill="#2d7a54"/>
          <path id="Trazado_126535" data-name="Trazado 126535" d="M52.524,455.54a1.508,1.508,0,0,1-1.43-1.031l-.554-1.663A2.673,2.673,0,0,0,48,451.016V448a5.685,5.685,0,0,1,4.524,2.235A5.685,5.685,0,0,1,57.047,448v3.016a2.673,2.673,0,0,0-2.539,1.83l-.554,1.663A1.508,1.508,0,0,1,52.524,455.54Z" transform="translate(-48 -413.318)" fill="#2d7a54"/>
          <path id="Trazado_126536" data-name="Trazado 126536" d="M76.524,391.54a1.508,1.508,0,0,1-1.43-1.031l-.554-1.663A2.673,2.673,0,0,0,72,387.016V384a5.685,5.685,0,0,1,4.524,2.235A5.685,5.685,0,0,1,81.047,384v3.016a2.673,2.673,0,0,0-2.539,1.83l-.554,1.663A1.508,1.508,0,0,1,76.524,391.54Z" transform="translate(-67.476 -361.381)" fill="#2d7a54"/>
          <path id="Trazado_126537" data-name="Trazado 126537" d="M420.524,455.54a1.508,1.508,0,0,1-1.43-1.031l-.554-1.663a2.673,2.673,0,0,0-2.539-1.83V448a5.685,5.685,0,0,1,4.524,2.235A5.685,5.685,0,0,1,425.047,448v3.016a2.672,2.672,0,0,0-2.539,1.83l-.554,1.663A1.508,1.508,0,0,1,420.524,455.54Z" transform="translate(-346.636 -413.318)" fill="#2d7a54"/>
          <path id="Trazado_126538" data-name="Trazado 126538" d="M396.524,391.54a1.508,1.508,0,0,1-1.43-1.031l-.554-1.663a2.673,2.673,0,0,0-2.539-1.83V384a5.685,5.685,0,0,1,4.524,2.235A5.685,5.685,0,0,1,401.047,384v3.016a2.673,2.673,0,0,0-2.539,1.83l-.554,1.663a1.508,1.508,0,0,1-1.43,1.031Z" transform="translate(-327.16 -361.381)" fill="#2d7a54"/>
          <path id="Trazado_126539" data-name="Trazado 126539" d="M238.425,303.933a1.5,1.5,0,0,1-1.066-.442l-3.016-3.016,2.133-2.133,1.95,1.95,1.95-1.95,2.133,2.133-3.016,3.016a1.5,1.5,0,0,1-1.066.442Z" transform="translate(-199.219 -291.87)" fill="#2d7a54"/>
          <path id="Trazado_126540" data-name="Trazado 126540" d="M94.425,335.933a1.5,1.5,0,0,1-1.066-.442l-3.016-3.016,2.133-2.133,1.95,1.95,1.95-1.95,2.133,2.133-3.016,3.016a1.5,1.5,0,0,1-1.066.442Z" transform="translate(-82.362 -317.838)" fill="#2d7a54"/>
          <path id="Trazado_126541" data-name="Trazado 126541" d="M382.425,335.933a1.5,1.5,0,0,1-1.066-.442l-3.016-3.016,2.133-2.133,1.95,1.95,1.949-1.95,2.133,2.133-3.016,3.016a1.5,1.5,0,0,1-1.066.442Z" transform="translate(-316.077 -317.838)" fill="#2d7a54"/>
          <path id="Trazado_126542" data-name="Trazado 126542" d="M128,264h3.016v3.016H128Z" transform="translate(-112.921 -264)" fill="#2d7a54"/>
          <path id="Trazado_126543" data-name="Trazado 126543" d="M112,296h3.016v3.016H112Z" transform="translate(-99.937 -289.968)" fill="#2d7a54"/>
          <path id="Trazado_126544" data-name="Trazado 126544" d="M248,264h3.016v3.016H248Z" transform="translate(-210.302 -264)" fill="#2d7a54"/>
          <path id="Trazado_126545" data-name="Trazado 126545" d="M368,264h3.016v3.016H368Z" transform="translate(-307.684 -264)" fill="#2d7a54"/>
          <path id="Trazado_126546" data-name="Trazado 126546" d="M384,296h3.016v3.016H384Z" transform="translate(-320.668 -289.968)" fill="#2d7a54"/>
        </g>
        <circle id="Elipse_5044" data-name="Elipse 5044" cx="9.153" cy="9.153" r="9.153" transform="translate(55.73 24.002)" fill="#222b5a"/>
        <circle id="Elipse_5045" data-name="Elipse 5045" cx="3.051" cy="3.051" r="3.051" transform="translate(61.832 30.104)" fill="#f6f6f6"/>
        <path id="Trazado_126547" data-name="Trazado 126547" d="M345.047,172.524a4.524,4.524,0,1,0-4.524,4.524A4.524,4.524,0,0,0,345.047,172.524Zm-6.032,0a1.508,1.508,0,1,1,1.508,1.508A1.508,1.508,0,0,1,339.016,172.524Z" transform="translate(-275.683 -139.35)"/>
        <path id="Trazado_126548" data-name="Trazado 126548" d="M216,136h3.016v4.524H216Z" transform="translate(-178.302 -113.381)"/>
        <path id="Trazado_126549" data-name="Trazado 126549" d="M248,136h3.016v4.524H248Z" transform="translate(-204.271 -113.381)"/>
        <path id="Trazado_126550" data-name="Trazado 126550" d="M105.364,47.719,89.7,43.448a10.555,10.555,0,0,0-12.656-4.125l1.085,2.814a7.55,7.55,0,1,1-2.274,1.382l-2-2.262a10.564,10.564,0,0,0-3.575,7.918H67.269V46.966A11.363,11.363,0,0,1,78.632,35.6H88.38V32.587H82.348V20.524a1.508,1.508,0,0,0-1.508-1.508H64.253a1.508,1.508,0,0,0-1.463,1.142L60.06,31.079H52.19V29.571H53.7a1.508,1.508,0,0,0,1.508-1.508V22.032A1.508,1.508,0,0,0,53.7,20.524H52.19V19.016h3.016V16H50.682a1.508,1.508,0,0,0-1.508,1.508v3.016H47.666a1.508,1.508,0,0,0-1.508,1.508v6.032a1.508,1.508,0,0,0,1.508,1.508h1.508v1.508H47.494a5.866,5.866,0,0,0-5.859,5.859v7.6l-.56.224a1.508,1.508,0,0,0-.948,1.4v4.524a1.508,1.508,0,0,0,1.508,1.508h1.7a6.023,6.023,0,0,0,.621,4.524H32.587V52a6.042,6.042,0,0,0,4.524-5.841V40.127a6.028,6.028,0,0,0-10.555-3.983A6.028,6.028,0,0,0,16,40.127v6.032A6.042,6.042,0,0,0,20.524,52v4.715H17.508v3.016h4.61L16.281,67.9l2.454,1.753,7.088-9.924H31.91L16.1,101.416l2.82,1.069L35.136,59.729h9.076L32.635,104.59l2.92.754L47.327,59.729H55l-5.812,45.045,2.991.386,5.862-45.43h6.4L70.3,105.16l2.991-.386L67.476,59.729h7.672l11.772,45.614,2.92-.754L78.263,59.729h9.076l16.218,42.756,2.82-1.069L90.565,59.729h6.087l7.088,9.924,2.454-1.753-5.837-8.171h4.61V56.714H88.217a10.533,10.533,0,0,0,2.946-9.741L97.146,48.6l-1.182,4.728,2.926.731,1.166-4.666,3.089.843L102,54.84l2.926.731,1.508-6.032a1.508,1.508,0,0,0-1.066-1.82Zm-84.84-1.561v2.608a3.016,3.016,0,0,1-1.508-2.608V40.127a3.016,3.016,0,1,1,6.032,0v6.032a3.016,3.016,0,0,1-1.508,2.608V46.158Zm9.047,10.555H23.54V52a6.039,6.039,0,0,0,3.016-1.858A6.039,6.039,0,0,0,29.571,52Zm0-10.555v2.608a3.016,3.016,0,0,1-1.508-2.608V40.127a3.016,3.016,0,1,1,6.032,0v6.032a3.016,3.016,0,0,1-1.508,2.608V46.158ZM65.431,22.032h13.9v9.047H66.386l2.391-2.391,1.95,1.95L72.859,28.5l-6.032-6.032-2.009,2.01Zm-.662,2.648,1.876,1.876-3.126,3.126ZM49.174,23.54H52.19v3.016H49.174ZM44.65,40.127h3.016v1.995L44.65,43.328Zm4.524,16.587A3.016,3.016,0,1,1,52.19,53.7a3.016,3.016,0,0,1-3.016,3.016Zm0-9.047a6.005,6.005,0,0,0-3.983,1.508H43.142V47.179l6.592-2.637a1.508,1.508,0,0,0,.948-1.4V38.619a1.508,1.508,0,0,0-1.508-1.508H44.65v-.173a2.846,2.846,0,0,1,2.843-2.843H72.215a14.4,14.4,0,0,0-7.962,12.871v2.208h-11.1a6.005,6.005,0,0,0-3.983-1.508ZM54.4,56.714a6.023,6.023,0,0,0,.621-4.524H70.727a10.565,10.565,0,0,0,2.737,4.524Z" transform="translate(-16 -16)"/>
        <path id="Trazado_126551" data-name="Trazado 126551" d="M236.524,402.235A5.685,5.685,0,0,0,232,400v3.016a2.673,2.673,0,0,1,2.539,1.83l.554,1.663a1.508,1.508,0,0,0,2.861,0l.554-1.663a2.673,2.673,0,0,1,2.539-1.83V400A5.685,5.685,0,0,0,236.524,402.235Z" transform="translate(-191.286 -327.62)"/>
        <path id="Trazado_126552" data-name="Trazado 126552" d="M236.524,346.235A5.685,5.685,0,0,0,232,344v3.016a2.673,2.673,0,0,1,2.539,1.83l.554,1.663a1.508,1.508,0,0,0,2.861,0l.554-1.663a2.673,2.673,0,0,1,2.539-1.83V344A5.685,5.685,0,0,0,236.524,346.235Z" transform="translate(-191.286 -282.176)"/>
        <path id="Trazado_126553" data-name="Trazado 126553" d="M236.524,458.235A5.685,5.685,0,0,0,232,456v3.016a2.672,2.672,0,0,1,2.539,1.83l.554,1.663a1.508,1.508,0,0,0,2.861,0l.554-1.663a2.673,2.673,0,0,1,2.539-1.83V456A5.685,5.685,0,0,0,236.524,458.235Z" transform="translate(-191.286 -373.065)"/>
        <path id="Trazado_126554" data-name="Trazado 126554" d="M52.524,450.235A5.685,5.685,0,0,0,48,448v3.016a2.673,2.673,0,0,1,2.539,1.83l.554,1.663a1.508,1.508,0,0,0,2.861,0l.554-1.663a2.673,2.673,0,0,1,2.539-1.83V448A5.685,5.685,0,0,0,52.524,450.235Z" transform="translate(-41.968 -366.573)"/>
        <path id="Trazado_126555" data-name="Trazado 126555" d="M81.047,387.016V384a5.685,5.685,0,0,0-4.524,2.235A5.685,5.685,0,0,0,72,384v3.016a2.673,2.673,0,0,1,2.539,1.83l.554,1.663a1.508,1.508,0,0,0,2.861,0l.554-1.663a2.673,2.673,0,0,1,2.539-1.83Z" transform="translate(-61.445 -314.636)"/>
        <path id="Trazado_126556" data-name="Trazado 126556" d="M420.524,450.235A5.686,5.686,0,0,0,416,448v3.016a2.672,2.672,0,0,1,2.539,1.83l.554,1.663a1.508,1.508,0,0,0,2.861,0l.554-1.663a2.672,2.672,0,0,1,2.539-1.83V448A5.685,5.685,0,0,0,420.524,450.235Z" transform="translate(-340.604 -366.573)"/>
        <path id="Trazado_126557" data-name="Trazado 126557" d="M397.954,390.509l.554-1.663a2.673,2.673,0,0,1,2.539-1.83V384a5.685,5.685,0,0,0-4.524,2.235A5.685,5.685,0,0,0,392,384v3.016a2.672,2.672,0,0,1,2.539,1.83l.554,1.663a1.508,1.508,0,0,0,2.861,0Z" transform="translate(-321.128 -314.636)"/>
        <path id="Trazado_126558" data-name="Trazado 126558" d="M234.343,300.476l3.016,3.016a1.508,1.508,0,0,0,2.133,0l3.016-3.016-2.133-2.133-1.95,1.95-1.95-1.95Z" transform="translate(-193.188 -245.124)"/>
        <path id="Trazado_126559" data-name="Trazado 126559" d="M92.476,330.343l-2.133,2.133,3.016,3.016a1.508,1.508,0,0,0,2.133,0l3.016-3.016-2.133-2.133-1.95,1.95Z" transform="translate(-76.33 -271.093)"/>
        <path id="Trazado_126560" data-name="Trazado 126560" d="M382.425,335.933a1.5,1.5,0,0,0,1.066-.442l3.016-3.016-2.133-2.133-1.95,1.95-1.95-1.95-2.133,2.133,3.016,3.016a1.5,1.5,0,0,0,1.066.442Z" transform="translate(-310.045 -271.093)"/>
        <path id="Trazado_126561" data-name="Trazado 126561" d="M128,264h3.016v3.016H128Z" transform="translate(-106.889 -217.255)"/>
        <path id="Trazado_126562" data-name="Trazado 126562" d="M112,296h3.016v3.016H112Z" transform="translate(-93.905 -243.223)"/>
        <path id="Trazado_126563" data-name="Trazado 126563" d="M248,264h3.016v3.016H248Z" transform="translate(-204.271 -217.255)"/>
        <path id="Trazado_126564" data-name="Trazado 126564" d="M368,264h3.016v3.016H368Z" transform="translate(-301.652 -217.255)"/>
        <path id="Trazado_126565" data-name="Trazado 126565" d="M384,296h3.016v3.016H384Z" transform="translate(-314.636 -243.223)"/>
      </g>
    </g>
  </g>
</svg>
