<svg xmlns="http://www.w3.org/2000/svg" width="467.099" height="467.102" viewBox="0 0 467.099 467.102">
  <g id="Grupo_1000303" data-name="Grupo 1000303" transform="translate(-190 -12837.295)">
    <g id="Grupo_996098" data-name="Grupo 996098" transform="translate(179.243 12821.334)">
      <g id="Background_Complete" data-name="Background Complete">
        <g id="Grupo_995870" data-name="Grupo 995870">
          <g id="Grupo_995674" data-name="Grupo 995674">
            <g id="Grupo_995673" data-name="Grupo 995673">
              <g id="Grupo_995672" data-name="Grupo 995672">
                <g id="Grupo_995671" data-name="Grupo 995671">
                  <g id="Grupo_995670" data-name="Grupo 995670">
                    <path id="Trazado_651755" data-name="Trazado 651755" d="M310.86,250.209l-118.118-1.136-35.8-.173-9.733.023-2.531.034a5.549,5.549,0,0,0-.863.047,5.24,5.24,0,0,0,.862.056l2.531.061,9.732.122,35.795.194,118.124.076c46.1-.005,87.852.056,118.075.279,15.112.109,27.341.252,35.793.415,4.226.082,7.508.167,9.732.254a17.734,17.734,0,0,1,3.393.257,17.893,17.893,0,0,1-3.395.221c-2.225.064-5.507.116-9.734.154-8.453.076-20.684.094-35.8.048C398.708,251.054,356.96,250.687,310.86,250.209Z" fill="#ebebeb"/>
                  </g>
                </g>
              </g>
            </g>
          </g>
          <g id="Grupo_995679" data-name="Grupo 995679">
            <g id="Grupo_995678" data-name="Grupo 995678">
              <g id="Grupo_995677" data-name="Grupo 995677">
                <g id="Grupo_995676" data-name="Grupo 995676">
                  <g id="Grupo_995675" data-name="Grupo 995675">
                    <path id="Trazado_651756" data-name="Trazado 651756" d="M309.941,260.617,193.436,241.13,158.1,235.4l-9.618-1.486-2.506-.358a5.212,5.212,0,0,0-.86-.085,5.253,5.253,0,0,0,.842.191l2.491.455,9.594,1.636,35.33,5.757L310.053,259.93c45.544,7.153,86.778,13.7,116.6,18.614,14.911,2.455,26.969,4.5,35.293,5.975,4.162.738,7.39,1.334,9.574,1.766a17.675,17.675,0,0,1,3.311.784,17.478,17.478,0,0,1-3.389-.3c-2.209-.282-5.459-.739-9.64-1.358-8.363-1.236-20.448-3.118-35.369-5.512C396.589,275.113,355.406,268.259,309.941,260.617Z" fill="#ebebeb"/>
                  </g>
                </g>
              </g>
            </g>
          </g>
          <g id="Grupo_995684" data-name="Grupo 995684">
            <g id="Grupo_995683" data-name="Grupo 995683">
              <g id="Grupo_995682" data-name="Grupo 995682">
                <g id="Grupo_995681" data-name="Grupo 995681">
                  <g id="Grupo_995680" data-name="Grupo 995680">
                    <path id="Trazado_651757" data-name="Trazado 651757" d="M307.4,270.753l-111.981-37.6L161.43,221.933l-9.265-2.982-2.418-.747a5.125,5.125,0,0,0-.836-.219,5.273,5.273,0,0,0,.8.322l2.388.842,9.216,3.128,33.983,11.25,112.323,36.56c43.851,14.235,83.539,27.188,112.214,36.741,14.338,4.773,25.924,8.691,33.911,11.461,3.994,1.384,7.088,2.481,9.176,3.253a17.317,17.317,0,0,1,3.145,1.3,17.432,17.432,0,0,1-3.3-.833c-2.137-.625-5.275-1.588-9.307-2.857-8.064-2.537-19.7-6.3-34.06-11.011C390.684,298.718,351.1,285.462,307.4,270.753Z" fill="#ebebeb"/>
                  </g>
                </g>
              </g>
            </g>
          </g>
          <g id="Grupo_995689" data-name="Grupo 995689">
            <g id="Grupo_995688" data-name="Grupo 995688">
              <g id="Grupo_995687" data-name="Grupo 995687">
                <g id="Grupo_995686" data-name="Grupo 995686">
                  <g id="Grupo_995685" data-name="Grupo 995685">
                    <path id="Trazado_651758" data-name="Trazado 651758" d="M303.3,280.352,198.629,225.611l-31.8-16.432-8.679-4.4-2.271-1.119a5.369,5.369,0,0,0-.791-.35,5.078,5.078,0,0,0,.742.444l2.226,1.206,8.61,4.538,31.789,16.456L303.62,279.738c41.063,20.961,78.217,40,105.032,53.945,13.408,6.97,24.235,12.661,31.687,16.651,3.726,1.995,6.61,3.564,8.551,4.654a17.8,17.8,0,0,1,2.9,1.773,17.633,17.633,0,0,1-3.126-1.344c-2.011-.955-4.958-2.4-8.739-4.289-7.564-3.776-18.465-9.322-31.9-16.237C381.151,321.067,344.14,301.749,303.3,280.352Z" fill="#ebebeb"/>
                  </g>
                </g>
              </g>
            </g>
          </g>
          <g id="Grupo_995694" data-name="Grupo 995694">
            <g id="Grupo_995693" data-name="Grupo 995693">
              <g id="Grupo_995692" data-name="Grupo 995692">
                <g id="Grupo_995691" data-name="Grupo 995691">
                  <g id="Grupo_995690" data-name="Grupo 995690">
                    <path id="Trazado_651759" data-name="Trazado 651759" d="M297.747,289.193l-94.831-70.431-28.841-21.2-7.884-5.707-2.068-1.461a5.247,5.247,0,0,0-.726-.468,5.28,5.28,0,0,0,.663.554l2.01,1.539,7.795,5.828,28.827,21.222,95.468,69.564c37.281,27.122,71,51.736,95.308,69.7,12.154,8.98,21.957,16.293,28.694,21.4,3.369,2.553,5.971,4.554,7.718,5.934a17.676,17.676,0,0,1,2.591,2.206,17.607,17.607,0,0,1-2.878-1.816c-1.837-1.257-4.522-3.146-7.962-5.6-6.88-4.912-16.78-12.093-28.971-21.023C368.274,341.575,334.737,316.71,297.747,289.193Z" fill="#ebebeb"/>
                  </g>
                </g>
              </g>
            </g>
          </g>
          <g id="Grupo_995699" data-name="Grupo 995699">
            <g id="Grupo_995698" data-name="Grupo 995698">
              <g id="Grupo_995697" data-name="Grupo 995697">
                <g id="Grupo_995696" data-name="Grupo 995696">
                  <g id="Grupo_995695" data-name="Grupo 995695">
                    <path id="Trazado_651760" data-name="Trazado 651760" d="M290.883,297.057,208.16,212.735,182.967,187.3l-6.9-6.864-1.815-1.764a5.175,5.175,0,0,0-.645-.576,5.153,5.153,0,0,0,.57.65l1.746,1.833,6.794,6.969L207.892,213l83.486,83.567c32.608,32.591,62.091,62.15,83.306,83.677,10.61,10.761,19.156,19.51,25.017,25.6,2.931,3.045,5.19,5.427,6.7,7.061a17.678,17.678,0,0,1,2.216,2.582,17.734,17.734,0,0,1-2.56-2.242c-1.619-1.528-3.977-3.811-6.993-6.772-6.033-5.922-14.7-14.557-25.349-25.274C352.4,359.771,323.143,329.992,290.883,297.057Z" fill="#ebebeb"/>
                  </g>
                </g>
              </g>
            </g>
          </g>
          <g id="Grupo_995704" data-name="Grupo 995704">
            <g id="Grupo_995703" data-name="Grupo 995703">
              <g id="Grupo_995702" data-name="Grupo 995702">
                <g id="Grupo_995701" data-name="Grupo 995701">
                  <g id="Grupo_995700" data-name="Grupo 995700">
                    <path id="Trazado_651761" data-name="Trazado 651761" d="M282.88,303.758,214.28,207.6c-8.825-12.244-15.969-22.156-20.931-29.039-2.482-3.392-4.415-6.031-5.748-7.853l-1.519-2.026a5.163,5.163,0,0,0-.547-.668,5.143,5.143,0,0,0,.461.73l1.439,2.083c1.306,1.842,3.2,4.511,5.627,7.941,4.957,6.886,12.094,16.8,20.911,29.053l69.472,95.535c27.144,37.266,51.67,71.051,69.279,95.615,8.806,12.281,15.888,22.253,20.73,29.182,2.421,3.465,4.283,6.168,5.522,8.018a17.645,17.645,0,0,1,1.786,2.9,17.674,17.674,0,0,1-2.179-2.612c-1.362-1.761-3.337-4.383-5.856-7.778-5.038-6.788-12.252-16.664-21.109-28.908C333.9,375.278,309.625,341.31,282.88,303.758Z" fill="#ebebeb"/>
                  </g>
                </g>
              </g>
            </g>
          </g>
          <g id="Grupo_995709" data-name="Grupo 995709">
            <g id="Grupo_995708" data-name="Grupo 995708">
              <g id="Grupo_995707" data-name="Grupo 995707">
                <g id="Grupo_995706" data-name="Grupo 995706">
                  <g id="Grupo_995705" data-name="Grupo 995705">
                    <path id="Trazado_651762" data-name="Trazado 651762" d="M273.931,309.129c-20.586-41.278-39.214-78.632-52.718-105.707l-16.134-31.955-4.451-8.655-1.184-2.237a5.189,5.189,0,0,0-.436-.746,5.114,5.114,0,0,0,.34.794c.261.542.624,1.3,1.1,2.282,1,2.024,2.452,4.956,4.315,8.724,3.819,7.576,9.318,18.488,16.111,31.966l53.683,105.22c20.984,41.051,39.928,78.254,53.479,105.27,6.779,13.506,12.214,24.463,15.912,32.064,1.85,3.8,3.265,6.763,4.2,8.784a17.489,17.489,0,0,1,1.311,3.14,17.558,17.558,0,0,1-1.746-2.921c-1.07-1.952-2.611-4.851-4.568-8.6-3.915-7.492-9.5-18.375-16.331-31.853C313.137,387.748,294.475,350.4,273.931,309.129Z" fill="#ebebeb"/>
                  </g>
                </g>
              </g>
            </g>
          </g>
          <g id="Grupo_995714" data-name="Grupo 995714">
            <g id="Grupo_995713" data-name="Grupo 995713">
              <g id="Grupo_995712" data-name="Grupo 995712">
                <g id="Grupo_995711" data-name="Grupo 995711">
                  <g id="Grupo_995710" data-name="Grupo 995710">
                    <path id="Trazado_651763" data-name="Trazado 651763" d="M264.249,313.03c-13.834-44-26.353-83.823-35.428-112.686-4.6-14.376-8.321-26.013-10.906-34.1-1.311-3.993-2.331-7.1-3.035-9.247-.352-1.032-.623-1.826-.818-2.4a4.967,4.967,0,0,0-.314-.805,5.283,5.283,0,0,0,.212.838c.171.577.411,1.381.722,2.426.671,2.157,1.641,5.28,2.889,9.294,2.579,8.084,6.292,19.724,10.88,34.1,9.339,28.779,22.224,68.482,36.462,112.356,14.265,43.84,27.121,83.561,36.253,112.372,4.569,14.4,8.212,26.08,10.668,34.169,1.228,4.044,2.16,7.192,2.765,9.334a17.517,17.517,0,0,1,.8,3.308,17.462,17.462,0,0,1-1.265-3.159c-.75-2.1-1.816-5.2-3.16-9.209-2.688-8.014-6.488-19.64-11.117-34.025C290.6,396.838,278.042,357.021,264.249,313.03Z" fill="#ebebeb"/>
                  </g>
                </g>
              </g>
            </g>
          </g>
          <g id="Grupo_995719" data-name="Grupo 995719">
            <g id="Grupo_995718" data-name="Grupo 995718">
              <g id="Grupo_995717" data-name="Grupo 995717">
                <g id="Grupo_995716" data-name="Grupo 995716">
                  <g id="Grupo_995715" data-name="Grupo 995715">
                    <path id="Trazado_651764" data-name="Trazado 651764" d="M254.071,315.358c-6.74-45.631-12.839-86.925-17.259-116.856l-5.4-35.386c-.666-4.151-1.184-7.38-1.541-9.61l-.43-2.495a5.169,5.169,0,0,0-.183-.844,5.317,5.317,0,0,0,.077.86c.079.6.19,1.429.333,2.51.323,2.235.79,5.472,1.391,9.632l5.379,35.39c4.694,29.89,11.17,71.127,18.327,116.694,7.188,45.539,13.632,86.788,18.117,116.677,2.246,14.944,4.007,27.047,5.16,35.422.577,4.187,1,7.442,1.262,9.653a17.551,17.551,0,0,1,.271,3.392,17.684,17.684,0,0,1-.751-3.319c-.411-2.188-.974-5.422-1.67-9.591-1.394-8.338-3.317-20.417-5.624-35.351C266.9,402.267,260.771,360.971,254.071,315.358Z" fill="#ebebeb"/>
                  </g>
                </g>
              </g>
            </g>
          </g>
          <g id="Grupo_995724" data-name="Grupo 995724">
            <g id="Grupo_995723" data-name="Grupo 995723">
              <g id="Grupo_995722" data-name="Grupo 995722">
                <g id="Grupo_995721" data-name="Grupo 995721">
                  <g id="Grupo_995720" data-name="Grupo 995720">
                    <path id="Trazado_651765" data-name="Trazado 651765" d="M243.652,316.066c.415-46.124.791-87.864,1.063-118.119.064-15.093.116-27.312.152-35.8-.013-4.2-.023-7.474-.029-9.733-.016-1.09-.028-1.929-.036-2.531a5.273,5.273,0,0,0-.048-.862,5.46,5.46,0,0,0-.055.862c-.014.6-.034,1.44-.059,2.53-.027,2.259-.066,5.529-.117,9.732-.04,8.485-.1,20.7-.171,35.8,0,30.257,0,72,0,118.124.033,46.1,0,87.852-.207,118.075-.1,15.112-.235,27.342-.393,35.794-.079,4.225-.162,7.507-.248,9.732a17.907,17.907,0,0,1-.254,3.392,17.89,17.89,0,0,1-.224-3.4c-.065-2.225-.119-5.507-.159-9.733-.082-8.454-.108-20.684-.071-35.8C242.861,403.914,243.2,362.166,243.652,316.066Z" fill="#ebebeb"/>
                  </g>
                </g>
              </g>
            </g>
          </g>
          <g id="Grupo_995729" data-name="Grupo 995729">
            <g id="Grupo_995728" data-name="Grupo 995728">
              <g id="Grupo_995727" data-name="Grupo 995727">
                <g id="Grupo_995726" data-name="Grupo 995726">
                  <g id="Grupo_995725" data-name="Grupo 995725">
                    <path id="Trazado_651766" data-name="Trazado 651766" d="M233.244,315.154c7.58-45.5,14.441-86.673,19.413-116.518,2.407-14.9,4.356-26.962,5.709-35.338.639-4.155,1.137-7.387,1.481-9.62.153-1.079.271-1.91.355-2.506a5.308,5.308,0,0,0,.086-.86,5.023,5.023,0,0,0-.191.843c-.108.592-.258,1.418-.454,2.491l-1.63,9.6c-1.359,8.375-3.317,20.435-5.735,35.334-4.7,29.889-11.182,71.124-18.347,116.69-7.124,45.549-13.642,86.786-18.54,116.61-2.447,14.913-4.483,26.973-5.953,35.3-.736,4.162-1.329,7.39-1.76,9.575a17.537,17.537,0,0,1-.783,3.311,17.623,17.623,0,0,1,.3-3.389c.28-2.209.736-5.46,1.351-9.641,1.232-8.363,3.105-20.45,5.49-35.372C218.8,401.81,225.631,360.624,233.244,315.154Z" fill="#ebebeb"/>
                  </g>
                </g>
              </g>
            </g>
          </g>
          <g id="Grupo_995734" data-name="Grupo 995734">
            <g id="Grupo_995733" data-name="Grupo 995733">
              <g id="Grupo_995732" data-name="Grupo 995732">
                <g id="Grupo_995731" data-name="Grupo 995731">
                  <g id="Grupo_995730" data-name="Grupo 995730">
                    <path id="Trazado_651767" data-name="Trazado 651767" d="M223.106,312.621c14.654-43.736,27.915-83.315,37.526-112,4.724-14.335,8.547-25.94,11.2-34,1.286-4,2.285-7.116,2.976-9.266.321-1.042.568-1.844.746-2.42a5.14,5.14,0,0,0,.218-.836,5.146,5.146,0,0,0-.321.8c-.2.568-.479,1.36-.841,2.388L271.49,166.5c-2.662,8.057-6.495,19.659-11.229,33.99-9.346,28.777-22.241,68.477-36.489,112.347C209.565,356.7,196.637,396.4,187.1,425.077c-4.765,14.342-8.675,25.93-11.44,33.919-1.382,3.994-2.477,7.089-3.247,9.178a17.47,17.47,0,0,1-1.3,3.146,17.425,17.425,0,0,1,.83-3.3c.624-2.137,1.585-5.276,2.851-9.309,2.532-8.065,6.285-19.706,10.99-34.066C195.194,395.921,208.425,356.324,223.106,312.621Z" fill="#ebebeb"/>
                  </g>
                </g>
              </g>
            </g>
          </g>
          <g id="Grupo_995739" data-name="Grupo 995739">
            <g id="Grupo_995738" data-name="Grupo 995738">
              <g id="Grupo_995737" data-name="Grupo 995737">
                <g id="Grupo_995736" data-name="Grupo 995736">
                  <g id="Grupo_995735" data-name="Grupo 995735">
                    <path id="Trazado_651768" data-name="Trazado 651768" d="M213.5,308.528l54.675-104.709c6.921-13.413,12.523-24.272,16.413-31.812l4.4-8.682,1.118-2.271a5.246,5.246,0,0,0,.349-.791,5.267,5.267,0,0,0-.443.742c-.287.529-.686,1.267-1.205,2.226-1.052,2-2.575,4.893-4.532,8.613-3.9,7.537-9.506,18.392-16.437,31.8-13.76,26.946-32.744,64.121-53.721,105.2-20.935,41.076-39.952,78.242-53.879,105.065-6.962,13.413-12.646,24.243-16.631,31.7-1.993,3.728-3.56,6.612-4.649,8.554a17.855,17.855,0,0,1-1.771,2.9,17.685,17.685,0,0,1,1.342-3.127c.954-2.011,2.4-4.959,4.284-8.742,3.771-7.565,9.31-18.47,16.217-31.911C172.839,386.4,192.133,349.378,213.5,308.528Z" fill="#ebebeb"/>
                  </g>
                </g>
              </g>
            </g>
          </g>
          <g id="Grupo_995744" data-name="Grupo 995744">
            <g id="Grupo_995743" data-name="Grupo 995743">
              <g id="Grupo_995742" data-name="Grupo 995742">
                <g id="Grupo_995741" data-name="Grupo 995741">
                  <g id="Grupo_995740" data-name="Grupo 995740">
                    <path id="Trazado_651769" data-name="Trazado 651769" d="M204.661,302.977,275.032,208.1l21.184-28.855,5.7-7.887,1.459-2.069a5.273,5.273,0,0,0,.468-.726,5.248,5.248,0,0,0-.553.663l-1.538,2.011-5.823,7.8-21.2,28.84-69.5,95.511c-27.1,37.3-51.691,71.035-69.641,95.351-8.972,12.16-16.28,21.968-21.382,28.708-2.551,3.37-4.55,5.974-5.928,7.722a17.7,17.7,0,0,1-2.205,2.592,17.66,17.66,0,0,1,1.815-2.879c1.256-1.838,3.143-4.524,5.6-7.965,4.908-6.884,12.083-16.788,21-28.985C152.322,373.537,177.167,339.985,204.661,302.977Z" fill="#ebebeb"/>
                  </g>
                </g>
              </g>
            </g>
          </g>
          <g id="Grupo_995749" data-name="Grupo 995749">
            <g id="Grupo_995748" data-name="Grupo 995748">
              <g id="Grupo_995747" data-name="Grupo 995747">
                <g id="Grupo_995746" data-name="Grupo 995746">
                  <g id="Grupo_995745" data-name="Grupo 995745">
                    <path id="Trazado_651770" data-name="Trazado 651770" d="M196.792,296.118l84.27-82.776,25.415-25.208,6.859-6.9,1.763-1.816a5.222,5.222,0,0,0,.576-.644,5.183,5.183,0,0,0-.65.569l-1.831,1.747-6.965,6.8L280.8,213.075l-83.515,83.538c-32.57,32.629-62.111,62.13-83.625,83.358C102.9,390.587,94.159,399.139,88.071,405c-3.044,2.933-5.424,5.194-7.057,6.707a17.713,17.713,0,0,1-2.581,2.217,17.725,17.725,0,0,1,2.24-2.561c1.527-1.62,3.809-3.98,6.769-7,5.918-6.036,14.547-14.7,25.258-25.364C134.117,357.679,163.877,328.4,196.792,296.118Z" fill="#ebebeb"/>
                  </g>
                </g>
              </g>
            </g>
          </g>
          <g id="Grupo_995754" data-name="Grupo 995754">
            <g id="Grupo_995753" data-name="Grupo 995753">
              <g id="Grupo_995752" data-name="Grupo 995752">
                <g id="Grupo_995751" data-name="Grupo 995751">
                  <g id="Grupo_995750" data-name="Grupo 995750">
                    <path id="Trazado_651771" data-name="Trazado 651771" d="M190.086,288.12l96.12-68.66,29.026-20.949,7.85-5.754,2.024-1.52a5.267,5.267,0,0,0,.668-.547,5.215,5.215,0,0,0-.73.461l-2.081,1.441-7.938,5.632-29.04,20.929-95.492,69.532c-37.248,27.166-71.018,51.714-95.572,69.338-12.275,8.814-22.242,15.9-29.168,20.748-3.464,2.424-6.166,4.287-8.015,5.527a17.648,17.648,0,0,1-2.9,1.789,17.611,17.611,0,0,1,2.612-2.182c1.76-1.363,4.381-3.339,7.774-5.86,6.785-5.042,16.656-12.263,28.9-21.128C118.6,339.182,152.55,314.888,190.086,288.12Z" fill="#ebebeb"/>
                  </g>
                </g>
              </g>
            </g>
          </g>
          <g id="Grupo_995759" data-name="Grupo 995759">
            <g id="Grupo_995758" data-name="Grupo 995758">
              <g id="Grupo_995757" data-name="Grupo 995757">
                <g id="Grupo_995756" data-name="Grupo 995756">
                  <g id="Grupo_995755" data-name="Grupo 995755">
                    <path id="Trazado_651772" data-name="Trazado 651772" d="M184.709,279.174,290.384,226.39c13.468-6.812,24.372-12.325,31.944-16.154l8.652-4.457,2.237-1.185a5.254,5.254,0,0,0,.745-.437,5.208,5.208,0,0,0-.794.341l-2.281,1.1-8.721,4.321-31.956,16.13L185.023,279.8c-41.037,21.01-78.229,39.977-105.236,53.545-13.5,6.787-24.455,12.229-32.054,15.932-3.8,1.852-6.761,3.27-8.781,4.2a17.576,17.576,0,0,1-3.139,1.313,17.635,17.635,0,0,1,2.92-1.747c1.951-1.072,4.849-2.614,8.594-4.574,7.49-3.92,18.369-9.508,31.843-16.351C106.115,318.429,143.449,299.743,184.709,279.174Z" fill="#ebebeb"/>
                  </g>
                </g>
              </g>
            </g>
          </g>
          <g id="Grupo_995764" data-name="Grupo 995764">
            <g id="Grupo_995763" data-name="Grupo 995763">
              <g id="Grupo_995762" data-name="Grupo 995762">
                <g id="Grupo_995761" data-name="Grupo 995761">
                  <g id="Grupo_995760" data-name="Grupo 995760">
                    <path id="Trazado_651773" data-name="Trazado 651773" d="M180.8,269.495l112.664-35.5,34.087-10.928,9.246-3.04,2.395-.819a5.352,5.352,0,0,0,.8-.314,5.082,5.082,0,0,0-.838.211l-2.425.724-9.293,2.9-34.1,10.9L181.015,270.158c-43.832,14.293-83.544,27.174-112.349,36.324-14.4,4.578-26.075,8.229-34.162,10.69-4.044,1.231-7.191,2.165-9.333,2.77a17.625,17.625,0,0,1-3.307.8,17.535,17.535,0,0,1,3.158-1.268c2.1-.751,5.2-1.819,9.206-3.165,8.013-2.693,19.636-6.5,34.019-11.138C97.011,295.894,136.82,283.315,180.8,269.495Z" fill="#ebebeb"/>
                  </g>
                </g>
              </g>
            </g>
          </g>
          <g id="Grupo_995769" data-name="Grupo 995769">
            <g id="Grupo_995768" data-name="Grupo 995768">
              <g id="Grupo_995767" data-name="Grupo 995767">
                <g id="Grupo_995766" data-name="Grupo 995766">
                  <g id="Grupo_995765" data-name="Grupo 995765">
                    <path id="Trazado_651774" data-name="Trazado 651774" d="M178.468,259.318l116.845-17.333,35.383-5.427,9.609-1.547,2.494-.431a5.216,5.216,0,0,0,.844-.184,5.272,5.272,0,0,0-.86.078l-2.51.334-9.631,1.4-35.387,5.4-116.682,18.4c-45.534,7.217-86.779,13.688-116.665,18.191-14.943,2.255-27.045,4.024-35.419,5.183-4.187.579-7.441,1.006-9.652,1.268a17.685,17.685,0,0,1-3.392.273,17.571,17.571,0,0,1,3.318-.754c2.188-.412,5.422-.977,9.59-1.676,8.337-1.4,20.415-3.329,35.348-5.646C91.566,272.206,132.859,266.047,178.468,259.318Z" fill="#ebebeb"/>
                  </g>
                </g>
              </g>
            </g>
          </g>
          <g id="Grupo_995774" data-name="Grupo 995774">
            <g id="Grupo_995773" data-name="Grupo 995773">
              <g id="Grupo_995772" data-name="Grupo 995772">
                <g id="Grupo_995771" data-name="Grupo 995771">
                  <g id="Grupo_995770" data-name="Grupo 995770">
                    <path id="Trazado_651775" data-name="Trazado 651775" d="M177.753,248.9l118.12.99,35.8.129,9.733-.035,2.531-.038a5.271,5.271,0,0,0,.862-.048,5.492,5.492,0,0,0-.862-.055l-2.531-.057-9.732-.111-35.8-.149-118.123.071c-46.1.062-87.852.053-118.076-.133-15.111-.09-27.341-.219-35.793-.371-4.226-.076-7.508-.158-9.733-.241a17.868,17.868,0,0,1-3.392-.253,17.852,17.852,0,0,1,3.394-.226c2.226-.066,5.508-.123,9.734-.166,8.453-.086,20.684-.12,35.8-.092C89.9,248.164,131.652,248.479,177.753,248.9Z" fill="#ebebeb"/>
                  </g>
                </g>
              </g>
            </g>
          </g>
          <g id="Grupo_995779" data-name="Grupo 995779">
            <g id="Grupo_995778" data-name="Grupo 995778">
              <g id="Grupo_995777" data-name="Grupo 995777">
                <g id="Grupo_995776" data-name="Grupo 995776">
                  <g id="Grupo_995775" data-name="Grupo 995775">
                    <path id="Trazado_651776" data-name="Trazado 651776" d="M178.659,238.491l116.53,19.339,35.342,5.686,9.62,1.475,2.507.354a5.2,5.2,0,0,0,.859.085,5.115,5.115,0,0,0-.842-.191l-2.491-.451-9.6-1.625-35.338-5.712-116.7-18.272c-45.553-7.1-86.8-13.587-116.622-18.467-14.914-2.436-26.976-4.464-35.3-5.93-4.163-.733-7.392-1.324-9.576-1.754a17.626,17.626,0,0,1-3.312-.78,17.521,17.521,0,0,1,3.389.3c2.209.279,5.46.732,9.642,1.346,8.364,1.225,20.452,3.092,35.376,5.467C91.993,224.1,133.184,230.907,178.659,238.491Z" fill="#ebebeb"/>
                  </g>
                </g>
              </g>
            </g>
          </g>
          <g id="Grupo_995784" data-name="Grupo 995784">
            <g id="Grupo_995783" data-name="Grupo 995783">
              <g id="Grupo_995782" data-name="Grupo 995782">
                <g id="Grupo_995781" data-name="Grupo 995781">
                  <g id="Grupo_995780" data-name="Grupo 995780">
                    <path id="Trazado_651777" data-name="Trazado 651777" d="M181.185,228.352l112.029,37.455,34.005,11.179,9.269,2.97,2.42.744a5.006,5.006,0,0,0,.836.218,5.27,5.27,0,0,0-.8-.321l-2.389-.839-9.22-3.117-34-11.206-112.37-36.417c-43.869-14.179-83.574-27.081-112.261-36.6C54.361,187.665,42.77,183.762,34.78,181c-4-1.379-7.091-2.473-9.18-3.242a17.444,17.444,0,0,1-3.147-1.294,17.344,17.344,0,0,1,3.3.827c2.138.623,5.277,1.582,9.311,2.846,8.067,2.526,19.71,6.272,34.074,10.968C97.867,200.493,137.473,213.7,181.185,228.352Z" fill="#ebebeb"/>
                  </g>
                </g>
              </g>
            </g>
          </g>
          <g id="Grupo_995789" data-name="Grupo 995789">
            <g id="Grupo_995788" data-name="Grupo 995788">
              <g id="Grupo_995787" data-name="Grupo 995787">
                <g id="Grupo_995786" data-name="Grupo 995786">
                  <g id="Grupo_995785" data-name="Grupo 995785">
                    <path id="Trazado_651778" data-name="Trazado 651778" d="M185.272,218.748c40.9,21.323,77.915,40.621,104.744,54.608l31.822,16.392,8.685,4.393,2.272,1.116a5.155,5.155,0,0,0,.791.348,5.342,5.342,0,0,0-.742-.442l-2.227-1.2L322,289.433l-31.81-16.416L184.955,219.362c-41.088-20.909-78.267-39.9-105.1-53.812C66.438,158.6,55.6,152.92,48.148,148.939c-3.729-1.99-6.614-3.556-8.557-4.643a17.661,17.661,0,0,1-2.906-1.77,17.888,17.888,0,0,1,3.127,1.341c2.012.953,4.961,2.395,8.745,4.278,7.568,3.766,18.476,9.3,31.922,16.2C107.373,178.132,144.408,197.4,185.272,218.748Z" fill="#ebebeb"/>
                  </g>
                </g>
              </g>
            </g>
          </g>
          <g id="Grupo_995794" data-name="Grupo 995794">
            <g id="Grupo_995793" data-name="Grupo 995793">
              <g id="Grupo_995792" data-name="Grupo 995792">
                <g id="Grupo_995791" data-name="Grupo 995791">
                  <g id="Grupo_995790" data-name="Grupo 995790">
                    <path id="Trazado_651779" data-name="Trazado 651779" d="M190.817,209.9l94.919,70.311L314.6,301.377l7.891,5.7,2.07,1.458a5.075,5.075,0,0,0,.727.467,5.493,5.493,0,0,0-.664-.552l-2.012-1.537-7.8-5.818L285.96,279.906,190.4,210.462c-37.315-27.075-71.068-51.646-95.395-69.581-12.166-8.964-21.979-16.266-28.722-21.363-3.372-2.549-5.976-4.547-7.726-5.924a17.758,17.758,0,0,1-2.593-2.2,17.623,17.623,0,0,1,2.88,1.812c1.839,1.256,4.526,3.141,7.969,5.592,6.886,4.9,16.8,12.073,29,20.987C120.225,157.606,153.792,182.43,190.817,209.9Z" fill="#ebebeb"/>
                  </g>
                </g>
              </g>
            </g>
          </g>
          <g id="Grupo_995799" data-name="Grupo 995799">
            <g id="Grupo_995798" data-name="Grupo 995798">
              <g id="Grupo_995797" data-name="Grupo 995797">
                <g id="Grupo_995796" data-name="Grupo 995796">
                  <g id="Grupo_995795" data-name="Grupo 995795">
                    <path id="Trazado_651780" data-name="Trazado 651780" d="M197.672,202.027,280.5,286.245l25.225,25.4,6.909,6.855,1.817,1.762a5.2,5.2,0,0,0,.645.575,5.2,5.2,0,0,0-.57-.649l-1.749-1.831-6.8-6.96L280.767,285.98l-83.59-83.463c-32.649-32.549-62.169-62.072-83.411-83.572C103.143,108.2,94.585,99.459,88.717,93.375c-2.935-3.042-5.2-5.421-6.711-7.053a17.669,17.669,0,0,1-2.219-2.579,17.57,17.57,0,0,1,2.562,2.238c1.621,1.526,3.983,3.807,7,6.764,6.04,5.914,14.714,14.538,25.381,25.242C136.071,139.391,165.37,169.132,197.672,202.027Z" fill="#ebebeb"/>
                  </g>
                </g>
              </g>
            </g>
          </g>
          <g id="Grupo_995804" data-name="Grupo 995804">
            <g id="Grupo_995803" data-name="Grupo 995803">
              <g id="Grupo_995802" data-name="Grupo 995802">
                <g id="Grupo_995801" data-name="Grupo 995801">
                  <g id="Grupo_995800" data-name="Grupo 995800">
                    <path id="Trazado_651781" data-name="Trazado 651781" d="M205.665,195.316l68.721,96.077L295.354,320.4l5.758,7.847,1.522,2.023a5.367,5.367,0,0,0,.547.668,5.073,5.073,0,0,0-.461-.73l-1.443-2.081-5.636-7.934c-4.966-6.88-12.115-16.788-20.948-29.027L205.1,195.724c-27.19-37.232-51.759-70.986-69.4-95.528-8.823-12.27-15.917-22.233-20.768-29.156-2.425-3.461-4.29-6.163-5.531-8.011a17.642,17.642,0,0,1-1.791-2.893,17.553,17.553,0,0,1,2.183,2.609c1.365,1.76,3.342,4.38,5.866,7.771,5.046,6.781,12.273,16.649,21.146,28.882C154.558,123.86,178.873,157.8,205.665,195.316Z" fill="#ebebeb"/>
                  </g>
                </g>
              </g>
            </g>
          </g>
          <g id="Grupo_995809" data-name="Grupo 995809">
            <g id="Grupo_995808" data-name="Grupo 995808">
              <g id="Grupo_995807" data-name="Grupo 995807">
                <g id="Grupo_995806" data-name="Grupo 995806">
                  <g id="Grupo_995805" data-name="Grupo 995805">
                    <path id="Trazado_651782" data-name="Trazado 651782" d="M214.607,189.934c20.639,41.251,39.315,78.581,52.852,105.64l16.175,31.934,4.462,8.65,1.187,2.236a5.256,5.256,0,0,0,.437.745,5.346,5.346,0,0,0-.341-.794c-.262-.542-.626-1.3-1.1-2.28l-4.327-8.719L267.8,295.4,213.986,190.248c-21.036-41.024-40.027-78.2-53.612-105.2-6.8-13.5-12.245-24.448-15.953-32.044-1.854-3.8-3.273-6.758-4.21-8.778a17.5,17.5,0,0,1-1.315-3.138A17.584,17.584,0,0,1,140.645,44c1.073,1.951,2.617,4.848,4.579,8.592,3.925,7.487,9.52,18.362,16.372,31.832C175.3,111.365,194.012,148.687,214.607,189.934Z" fill="#ebebeb"/>
                  </g>
                </g>
              </g>
            </g>
          </g>
          <g id="Grupo_995814" data-name="Grupo 995814">
            <g id="Grupo_995813" data-name="Grupo 995813">
              <g id="Grupo_995812" data-name="Grupo 995812">
                <g id="Grupo_995811" data-name="Grupo 995811">
                  <g id="Grupo_995810" data-name="Grupo 995810">
                    <path id="Trazado_651783" data-name="Trazado 651783" d="M224.285,186.021c13.89,43.985,26.46,83.788,35.572,112.64,4.616,14.37,8.353,26,10.949,34.081,1.316,3.992,2.339,7.1,3.046,9.243l.821,2.4a5.137,5.137,0,0,0,.315.8,5.283,5.283,0,0,0-.212-.838c-.173-.576-.414-1.38-.726-2.425l-2.9-9.29c-2.589-8.08-6.317-19.716-10.923-34.089l-36.605-112.31c-14.321-43.822-27.227-83.526-36.4-112.325-4.588-14.4-8.246-26.07-10.712-34.156-1.234-4.042-2.17-7.189-2.777-9.331a17.578,17.578,0,0,1-.8-3.306,17.481,17.481,0,0,1,1.269,3.157c.753,2.1,1.822,5.2,3.172,9.205,2.7,8.011,6.513,19.631,11.159,34.011C197.832,102.246,210.436,142.047,224.285,186.021Z" fill="#ebebeb"/>
                  </g>
                </g>
              </g>
            </g>
          </g>
          <g id="Grupo_995819" data-name="Grupo 995819">
            <g id="Grupo_995818" data-name="Grupo 995818">
              <g id="Grupo_995817" data-name="Grupo 995817">
                <g id="Grupo_995816" data-name="Grupo 995816">
                  <g id="Grupo_995815" data-name="Grupo 995815">
                    <path id="Trazado_651784" data-name="Trazado 651784" d="M234.46,183.68c6.8,45.622,12.948,86.908,17.407,116.834,2.3,14.917,4.158,26.993,5.45,35.379.671,4.149,1.192,7.378,1.553,9.608.186,1.074.33,1.9.433,2.494a5.079,5.079,0,0,0,.184.844,5.262,5.262,0,0,0-.078-.86c-.08-.6-.191-1.429-.336-2.509-.326-2.235-.8-5.472-1.4-9.631-1.286-8.387-3.137-20.464-5.424-35.383-4.732-29.884-11.26-71.112-18.475-116.671-7.246-45.529-13.742-86.77-18.265-116.653-2.264-14.942-4.041-27.043-5.205-35.416-.582-4.186-1.011-7.44-1.274-9.651a17.72,17.72,0,0,1-.275-3.392,17.513,17.513,0,0,1,.756,3.318c.413,2.188.981,5.421,1.682,9.589,1.4,8.336,3.343,20.412,5.669,35.344C221.517,96.786,227.7,138.075,234.46,183.68Z" fill="#ebebeb"/>
                  </g>
                </g>
              </g>
            </g>
          </g>
          <g id="Grupo_995824" data-name="Grupo 995824">
            <g id="Grupo_995823" data-name="Grupo 995823">
              <g id="Grupo_995822" data-name="Grupo 995822">
                <g id="Grupo_995821" data-name="Grupo 995821">
                  <g id="Grupo_995820" data-name="Grupo 995820">
                    <path id="Trazado_651785" data-name="Trazado 651785" d="M244.877,182.959c-.358,46.124-.681,87.865-.915,118.12-.045,15.093-.081,27.311-.107,35.8.018,4.2.032,7.474.041,9.732.017,1.091.03,1.93.039,2.532a5.478,5.478,0,0,0,.049.862,5.335,5.335,0,0,0,.055-.862c.013-.6.031-1.441.055-2.531.024-2.258.059-5.529.105-9.732.03-8.485.073-20.7.127-35.8-.038-30.256-.089-72-.146-118.124-.091-46.1-.108-87.852.058-118.075.081-15.112.2-27.342.349-35.794.073-4.226.153-7.508.235-9.733a17.719,17.719,0,0,1,.251-3.393,17.958,17.958,0,0,1,.228,3.4c.067,2.226.126,5.508.171,9.734.092,8.453.133,20.684.115,35.8C245.557,95.109,245.268,136.857,244.877,182.959Z" fill="#ebebeb"/>
                  </g>
                </g>
              </g>
            </g>
          </g>
          <g id="Grupo_995829" data-name="Grupo 995829">
            <g id="Grupo_995828" data-name="Grupo 995828">
              <g id="Grupo_995827" data-name="Grupo 995827">
                <g id="Grupo_995826" data-name="Grupo 995826">
                  <g id="Grupo_995825" data-name="Grupo 995825">
                    <path id="Trazado_651786" data-name="Trazado 651786" d="M255.287,183.858c-7.523,45.508-14.33,86.691-19.265,116.542-2.388,14.9-4.321,26.968-5.663,35.346-.634,4.155-1.128,7.388-1.468,9.621l-.353,2.507a5.256,5.256,0,0,0-.084.859,5.2,5.2,0,0,0,.19-.842c.107-.592.256-1.419.45-2.492.375-2.227.919-5.452,1.618-9.6,1.348-8.377,3.291-20.44,5.689-35.341,4.661-29.895,11.092-71.139,18.2-116.714,7.066-45.558,13.53-86.8,18.391-116.634,2.427-14.916,4.447-26.978,5.907-35.3.73-4.163,1.32-7.392,1.748-9.577a17.621,17.621,0,0,1,.778-3.312,17.493,17.493,0,0,1-.3,3.389c-.277,2.209-.729,5.461-1.339,9.643-1.221,8.365-3.079,20.453-5.445,35.379C269.616,97.182,262.841,138.378,255.287,183.858Z" fill="#ebebeb"/>
                  </g>
                </g>
              </g>
            </g>
          </g>
          <g id="Grupo_995834" data-name="Grupo 995834">
            <g id="Grupo_995833" data-name="Grupo 995833">
              <g id="Grupo_995832" data-name="Grupo 995832">
                <g id="Grupo_995831" data-name="Grupo 995831">
                  <g id="Grupo_995830" data-name="Grupo 995830">
                    <path id="Trazado_651787" data-name="Trazado 651787" d="M265.427,186.377,228.045,298.43c-4.7,14.341-8.513,25.951-11.158,34.013-1.28,4-2.276,7.119-2.963,9.27-.32,1.042-.566,1.845-.743,2.42a5.068,5.068,0,0,0-.217.837,5.262,5.262,0,0,0,.321-.8c.2-.568.476-1.36.837-2.388.722-2.141,1.767-5.24,3.111-9.223,2.651-8.06,6.468-19.667,11.184-34l36.344-112.394c14.15-43.877,27.027-83.591,36.525-112.284,4.745-14.347,8.641-25.941,11.395-33.933,1.377-4,2.468-7.092,3.236-9.182a17.45,17.45,0,0,1,1.292-3.148,17.31,17.31,0,0,1-.825,3.3c-.622,2.138-1.578,5.278-2.839,9.313-2.522,8.068-6.26,19.714-10.946,34.081C293.232,103.041,280.052,142.655,265.427,186.377Z" fill="#ebebeb"/>
                  </g>
                </g>
              </g>
            </g>
          </g>
          <g id="Grupo_995839" data-name="Grupo 995839">
            <g id="Grupo_995838" data-name="Grupo 995838">
              <g id="Grupo_995837" data-name="Grupo 995837">
                <g id="Grupo_995836" data-name="Grupo 995836">
                  <g id="Grupo_995835" data-name="Grupo 995835">
                    <path id="Trazado_651788" data-name="Trazado 651788" d="M275.034,190.458c-21.3,40.915-40.571,77.941-54.54,104.779-6.9,13.422-12.492,24.288-16.373,31.833-1.894,3.752-3.369,6.672-4.387,8.687-.48.98-.85,1.733-1.115,2.273a5.327,5.327,0,0,0-.347.791,5.146,5.146,0,0,0,.442-.742c.286-.529.684-1.268,1.2-2.228,1.049-2,2.569-4.9,4.521-8.618l16.4-31.821c13.725-26.964,32.661-64.163,53.586-105.27,20.883-41.1,39.851-78.294,53.745-105.135,6.944-13.422,12.614-24.259,16.59-31.719,1.988-3.73,3.552-6.616,4.637-8.56a17.872,17.872,0,0,1,1.768-2.907,17.628,17.628,0,0,1-1.338,3.128c-.951,2.014-2.392,4.963-4.273,8.748-3.761,7.571-9.286,18.482-16.175,31.933C315.6,112.533,296.353,149.58,275.034,190.458Z" fill="#ebebeb"/>
                  </g>
                </g>
              </g>
            </g>
          </g>
          <g id="Grupo_995844" data-name="Grupo 995844">
            <g id="Grupo_995843" data-name="Grupo 995843">
              <g id="Grupo_995842" data-name="Grupo 995842">
                <g id="Grupo_995841" data-name="Grupo 995841">
                  <g id="Grupo_995840" data-name="Grupo 995840">
                    <path id="Trazado_651789" data-name="Trazado 651789" d="M283.885,196c-27.432,37.082-52.256,70.64-70.251,94.964l-21.147,28.882-5.692,7.9-1.456,2.07a5.2,5.2,0,0,0-.467.727,5.178,5.178,0,0,0,.552-.664l1.536-2.013,5.812-7.806c5.018-6.842,12.243-16.7,21.168-28.867l69.383-95.6c27.051-37.332,51.6-71.1,69.52-95.439C361.8,87.974,369.1,78.157,374.188,71.41c2.547-3.373,4.542-5.979,5.919-7.729a17.6,17.6,0,0,1,2.2-2.594,17.755,17.755,0,0,1-1.811,2.88c-1.254,1.84-3.137,4.528-5.587,7.973-4.9,6.89-12.061,16.8-20.968,29.011C336.134,125.371,311.332,158.955,283.885,196Z" fill="#ebebeb"/>
                  </g>
                </g>
              </g>
            </g>
          </g>
          <g id="Grupo_995849" data-name="Grupo 995849">
            <g id="Grupo_995848" data-name="Grupo 995848">
              <g id="Grupo_995847" data-name="Grupo 995847">
                <g id="Grupo_995846" data-name="Grupo 995846">
                  <g id="Grupo_995845" data-name="Grupo 995845">
                    <path id="Trazado_651790" data-name="Trazado 651790" d="M291.763,202.847,207.6,285.729,182.215,310.97l-6.851,6.913L173.6,319.7a5.146,5.146,0,0,0-.574.645,5.38,5.38,0,0,0,.649-.571l1.829-1.749,6.956-6.807L207.863,286l83.409-83.644c32.529-32.67,62.032-62.208,83.519-83.464,10.741-10.63,19.474-19.193,25.554-25.066,3.041-2.936,5.417-5.2,7.049-6.715a17.636,17.636,0,0,1,2.578-2.22,17.766,17.766,0,0,1-2.237,2.563c-1.525,1.622-3.8,3.985-6.76,7.007-5.91,6.043-14.528,14.722-25.225,25.4C354.36,141.206,324.637,170.524,291.763,202.847Z" fill="#ebebeb"/>
                  </g>
                </g>
              </g>
            </g>
          </g>
          <g id="Grupo_995854" data-name="Grupo 995854">
            <g id="Grupo_995853" data-name="Grupo 995853">
              <g id="Grupo_995852" data-name="Grupo 995852">
                <g id="Grupo_995851" data-name="Grupo 995851">
                  <g id="Grupo_995850" data-name="Grupo 995850">
                    <path id="Trazado_651791" data-name="Trazado 651791" d="M298.479,210.836l-96.033,68.782-29,20.986-7.842,5.764-2.023,1.523a5.42,5.42,0,0,0-.668.548,5.158,5.158,0,0,0,.73-.462l2.08-1.444,7.93-5.642,29.014-20.966,95.4-69.653c37.214-27.214,70.952-51.8,95.483-69.46,12.264-8.83,22.222-15.93,29.143-20.785,3.46-2.428,6.16-4.295,8.007-5.537A17.8,17.8,0,0,1,433.6,112.7a17.491,17.491,0,0,1-2.608,2.185c-1.759,1.366-4.377,3.345-7.767,5.87-6.778,5.051-16.641,12.284-28.868,21.165C369.9,159.683,335.981,184.02,298.479,210.836Z" fill="#ebebeb"/>
                  </g>
                </g>
              </g>
            </g>
          </g>
          <g id="Grupo_995859" data-name="Grupo 995859">
            <g id="Grupo_995858" data-name="Grupo 995858">
              <g id="Grupo_995857" data-name="Grupo 995857">
                <g id="Grupo_995856" data-name="Grupo 995856">
                  <g id="Grupo_995855" data-name="Grupo 995855">
                    <path id="Trazado_651792" data-name="Trazado 651792" d="M303.867,219.775,198.26,272.7l-31.923,16.2-8.647,4.468-2.235,1.188a5.253,5.253,0,0,0-.745.437,5.011,5.011,0,0,0,.793-.342l2.28-1.1,8.716-4.332,31.935-16.171,105.118-53.884c41.01-21.063,78.178-40.077,105.167-53.68,13.494-6.8,24.44-12.261,32.034-15.974,3.8-1.856,6.756-3.278,8.776-4.216a17.61,17.61,0,0,1,3.137-1.317,17.577,17.577,0,0,1-2.917,1.751c-1.951,1.074-4.846,2.62-8.589,4.585-7.484,3.93-18.356,9.532-31.822,16.392C382.411,180.419,345.1,199.153,303.867,219.775Z" fill="#ebebeb"/>
                  </g>
                </g>
              </g>
            </g>
          </g>
          <g id="Grupo_995864" data-name="Grupo 995864">
            <g id="Grupo_995863" data-name="Grupo 995863">
              <g id="Grupo_995862" data-name="Grupo 995862">
                <g id="Grupo_995861" data-name="Grupo 995861">
                  <g id="Grupo_995860" data-name="Grupo 995860">
                    <path id="Trazado_651793" data-name="Trazado 651793" d="M307.786,229.45,195.168,265.094,161.1,276.066l-9.242,3.052-2.394.822a5.013,5.013,0,0,0-.8.316,5.279,5.279,0,0,0,.837-.213l2.425-.727,9.288-2.907,34.083-10.945,112.285-36.678c43.813-14.349,83.509-27.281,112.3-36.468,14.4-4.6,26.064-8.262,34.148-10.734,4.042-1.236,7.188-2.174,9.33-2.782a17.458,17.458,0,0,1,3.306-.807,17.561,17.561,0,0,1-3.156,1.271c-2.1.754-5.2,1.826-9.2,3.177-8.01,2.7-19.628,6.526-34,11.182C391.544,202.943,351.751,215.572,307.786,229.45Z" fill="#ebebeb"/>
                  </g>
                </g>
              </g>
            </g>
          </g>
          <g id="Grupo_995869" data-name="Grupo 995869">
            <g id="Grupo_995868" data-name="Grupo 995868">
              <g id="Grupo_995867" data-name="Grupo 995867">
                <g id="Grupo_995866" data-name="Grupo 995866">
                  <g id="Grupo_995865" data-name="Grupo 995865">
                    <path id="Trazado_651794" data-name="Trazado 651794" d="M310.134,239.623,193.311,257.105l-35.376,5.473-9.607,1.559-2.493.435a5.213,5.213,0,0,0-.845.184,5.281,5.281,0,0,0,.861-.078l2.508-.338,9.631-1.409,35.379-5.447,116.659-18.549c45.525-7.275,86.761-13.8,116.642-18.341,14.939-2.274,27.039-4.058,35.411-5.227,4.186-.585,7.44-1.016,9.651-1.28a17.6,17.6,0,0,1,3.391-.278,17.533,17.533,0,0,1-3.317.758c-2.187.415-5.42.984-9.587,1.689-8.335,1.409-20.411,3.355-35.341,5.691C397.019,226.624,355.734,232.836,310.134,239.623Z" fill="#ebebeb"/>
                  </g>
                </g>
              </g>
            </g>
          </g>
        </g>
        <g id="Grupo_995876" data-name="Grupo 995876">
          <g id="Grupo_995875" data-name="Grupo 995875">
            <g id="Grupo_995874" data-name="Grupo 995874">
              <g id="Grupo_995873" data-name="Grupo 995873">
                <g id="Grupo_995872" data-name="Grupo 995872">
                  <g id="Grupo_995871" data-name="Grupo 995871">
                    <path id="Trazado_651795" data-name="Trazado 651795" d="M357.455,72.361l1.049,1.744a11.943,11.943,0,0,0,4.938,4.548l1.824.9-1.743,1.05a11.93,11.93,0,0,0-4.548,4.938l-.9,1.824-1.049-1.743a11.945,11.945,0,0,0-4.939-4.548l-1.824-.9,1.744-1.049a11.942,11.942,0,0,0,4.547-4.939Z" fill="#e0e0e0"/>
                  </g>
                </g>
              </g>
            </g>
          </g>
        </g>
        <g id="Grupo_995882" data-name="Grupo 995882">
          <g id="Grupo_995881" data-name="Grupo 995881">
            <g id="Grupo_995880" data-name="Grupo 995880">
              <g id="Grupo_995879" data-name="Grupo 995879">
                <g id="Grupo_995878" data-name="Grupo 995878">
                  <g id="Grupo_995877" data-name="Grupo 995877">
                    <path id="Trazado_651796" data-name="Trazado 651796" d="M355.277,276.893l.642,1.067a7.3,7.3,0,0,0,3.021,2.782l1.116.552-1.066.642a7.306,7.306,0,0,0-2.783,3.021l-.551,1.116-.642-1.067a7.313,7.313,0,0,0-3.022-2.782l-1.115-.552,1.066-.642a7.3,7.3,0,0,0,2.782-3.021Z" fill="#e0e0e0"/>
                  </g>
                </g>
              </g>
            </g>
          </g>
        </g>
        <g id="Grupo_995888" data-name="Grupo 995888">
          <g id="Grupo_995887" data-name="Grupo 995887">
            <g id="Grupo_995886" data-name="Grupo 995886">
              <g id="Grupo_995885" data-name="Grupo 995885">
                <g id="Grupo_995884" data-name="Grupo 995884">
                  <g id="Grupo_995883" data-name="Grupo 995883">
                    <path id="Trazado_651797" data-name="Trazado 651797" d="M459.416,389.616l.642,1.066a7.306,7.306,0,0,0,3.021,2.783l1.116.551-1.067.642a7.3,7.3,0,0,0-2.782,3.021l-.552,1.116-.642-1.066a7.292,7.292,0,0,0-3.021-2.782l-1.116-.552,1.067-.642a7.306,7.306,0,0,0,2.782-3.022Z" fill="#e0e0e0"/>
                  </g>
                </g>
              </g>
            </g>
          </g>
        </g>
        <g id="Grupo_995894" data-name="Grupo 995894">
          <g id="Grupo_995893" data-name="Grupo 995893">
            <g id="Grupo_995892" data-name="Grupo 995892">
              <g id="Grupo_995891" data-name="Grupo 995891">
                <g id="Grupo_995890" data-name="Grupo 995890">
                  <g id="Grupo_995889" data-name="Grupo 995889">
                    <path id="Trazado_651798" data-name="Trazado 651798" d="M56.045,335.035l.642,1.067a7.3,7.3,0,0,0,3.021,2.782l1.116.552-1.066.641a7.309,7.309,0,0,0-2.783,3.022l-.552,1.116-.641-1.067a7.306,7.306,0,0,0-3.022-2.782l-1.116-.552,1.067-.642a7.3,7.3,0,0,0,2.782-3.021Z" fill="#e0e0e0"/>
                  </g>
                </g>
              </g>
            </g>
          </g>
        </g>
        <g id="Grupo_995900" data-name="Grupo 995900">
          <g id="Grupo_995899" data-name="Grupo 995899">
            <g id="Grupo_995898" data-name="Grupo 995898">
              <g id="Grupo_995897" data-name="Grupo 995897">
                <g id="Grupo_995896" data-name="Grupo 995896">
                  <g id="Grupo_995895" data-name="Grupo 995895">
                    <path id="Trazado_651799" data-name="Trazado 651799" d="M181.636,36.911l.642,1.066A7.306,7.306,0,0,0,185.3,40.76l1.116.552-1.067.641a7.307,7.307,0,0,0-2.782,3.022l-.552,1.115-.642-1.066a7.3,7.3,0,0,0-3.021-2.782l-1.116-.552,1.067-.642a7.3,7.3,0,0,0,2.782-3.021Z" fill="#e0e0e0"/>
                  </g>
                </g>
              </g>
            </g>
          </g>
        </g>
        <g id="Grupo_995906" data-name="Grupo 995906">
          <g id="Grupo_995905" data-name="Grupo 995905">
            <g id="Grupo_995904" data-name="Grupo 995904">
              <g id="Grupo_995903" data-name="Grupo 995903">
                <g id="Grupo_995902" data-name="Grupo 995902">
                  <g id="Grupo_995901" data-name="Grupo 995901">
                    <path id="Trazado_651800" data-name="Trazado 651800" d="M78.982,47.4l.642,1.066a7.3,7.3,0,0,0,3.021,2.782l1.116.552-1.067.642a7.3,7.3,0,0,0-2.782,3.021l-.552,1.116-.642-1.067A7.3,7.3,0,0,0,75.7,52.725l-1.116-.552,1.067-.641A7.307,7.307,0,0,0,78.43,48.51Z" fill="#e0e0e0"/>
                  </g>
                </g>
              </g>
            </g>
          </g>
        </g>
        <g id="Grupo_995912" data-name="Grupo 995912">
          <g id="Grupo_995911" data-name="Grupo 995911">
            <g id="Grupo_995910" data-name="Grupo 995910">
              <g id="Grupo_995909" data-name="Grupo 995909">
                <g id="Grupo_995908" data-name="Grupo 995908">
                  <g id="Grupo_995907" data-name="Grupo 995907">
                    <path id="Trazado_651801" data-name="Trazado 651801" d="M126.876,151.557l.642,1.067a7.3,7.3,0,0,0,3.021,2.782l1.116.552-1.066.641a7.309,7.309,0,0,0-2.783,3.022l-.552,1.116-.641-1.067a7.307,7.307,0,0,0-3.022-2.782l-1.116-.552,1.067-.642a7.3,7.3,0,0,0,2.782-3.021Z" fill="#e0e0e0"/>
                  </g>
                </g>
              </g>
            </g>
          </g>
        </g>
        <g id="Grupo_995918" data-name="Grupo 995918">
          <g id="Grupo_995917" data-name="Grupo 995917">
            <g id="Grupo_995916" data-name="Grupo 995916">
              <g id="Grupo_995915" data-name="Grupo 995915">
                <g id="Grupo_995914" data-name="Grupo 995914">
                  <g id="Grupo_995913" data-name="Grupo 995913">
                    <path id="Trazado_651802" data-name="Trazado 651802" d="M364.584,180.677l.641,1.067a7.307,7.307,0,0,0,3.022,2.782l1.115.552-1.066.642a7.3,7.3,0,0,0-2.782,3.021l-.552,1.116-.642-1.067a7.3,7.3,0,0,0-3.021-2.782l-1.116-.552,1.066-.642a7.307,7.307,0,0,0,2.783-3.021Z" fill="#e0e0e0"/>
                  </g>
                </g>
              </g>
            </g>
          </g>
        </g>
        <g id="Grupo_995924" data-name="Grupo 995924">
          <g id="Grupo_995923" data-name="Grupo 995923">
            <g id="Grupo_995922" data-name="Grupo 995922">
              <g id="Grupo_995921" data-name="Grupo 995921">
                <g id="Grupo_995920" data-name="Grupo 995920">
                  <g id="Grupo_995919" data-name="Grupo 995919">
                    <path id="Trazado_651803" data-name="Trazado 651803" d="M355.277,392.193l.642,1.066a7.3,7.3,0,0,0,3.021,2.782l1.116.552-1.066.642a7.312,7.312,0,0,0-2.783,3.021l-.551,1.116-.642-1.066a7.3,7.3,0,0,0-3.022-2.782l-1.115-.552,1.066-.642a7.3,7.3,0,0,0,2.782-3.021Z" fill="#e0e0e0"/>
                  </g>
                </g>
              </g>
            </g>
          </g>
        </g>
        <g id="Grupo_995930" data-name="Grupo 995930">
          <g id="Grupo_995929" data-name="Grupo 995929">
            <g id="Grupo_995928" data-name="Grupo 995928">
              <g id="Grupo_995927" data-name="Grupo 995927">
                <g id="Grupo_995926" data-name="Grupo 995926">
                  <g id="Grupo_995925" data-name="Grupo 995925">
                    <path id="Trazado_651804" data-name="Trazado 651804" d="M170.389,80.4l1.295,2.152a14.748,14.748,0,0,0,6.094,5.612l2.251,1.112-2.152,1.295a14.731,14.731,0,0,0-5.612,6.1l-1.113,2.25-1.294-2.151a14.737,14.737,0,0,0-6.1-5.612l-2.251-1.113,2.152-1.295a14.741,14.741,0,0,0,5.612-6.094Z" fill="#e0e0e0"/>
                  </g>
                </g>
              </g>
            </g>
          </g>
        </g>
        <g id="Grupo_995936" data-name="Grupo 995936">
          <g id="Grupo_995935" data-name="Grupo 995935">
            <g id="Grupo_995934" data-name="Grupo 995934">
              <g id="Grupo_995933" data-name="Grupo 995933">
                <g id="Grupo_995932" data-name="Grupo 995932">
                  <g id="Grupo_995931" data-name="Grupo 995931">
                    <path id="Trazado_651805" data-name="Trazado 651805" d="M449.966,69.693l1.294,2.151a14.734,14.734,0,0,0,6.094,5.612l2.251,1.113-2.151,1.295a14.737,14.737,0,0,0-5.613,6.094l-1.113,2.251-1.294-2.152a14.738,14.738,0,0,0-6.1-5.612l-2.25-1.113,2.151-1.294a14.731,14.731,0,0,0,5.612-6.1Z" fill="#e0e0e0"/>
                  </g>
                </g>
              </g>
            </g>
          </g>
        </g>
        <g id="Grupo_995942" data-name="Grupo 995942">
          <g id="Grupo_995941" data-name="Grupo 995941">
            <g id="Grupo_995940" data-name="Grupo 995940">
              <g id="Grupo_995939" data-name="Grupo 995939">
                <g id="Grupo_995938" data-name="Grupo 995938">
                  <g id="Grupo_995937" data-name="Grupo 995937">
                    <path id="Trazado_651806" data-name="Trazado 651806" d="M331.279,36.126l.752,1.249a8.547,8.547,0,0,0,3.538,3.258l1.307.646-1.249.752a8.55,8.55,0,0,0-3.259,3.538l-.646,1.307-.751-1.249a8.556,8.556,0,0,0-3.539-3.258l-1.306-.647,1.249-.752a8.554,8.554,0,0,0,3.258-3.538Z" fill="#e0e0e0"/>
                  </g>
                </g>
              </g>
            </g>
          </g>
        </g>
        <g id="Grupo_995948" data-name="Grupo 995948">
          <g id="Grupo_995947" data-name="Grupo 995947">
            <g id="Grupo_995946" data-name="Grupo 995946">
              <g id="Grupo_995945" data-name="Grupo 995945">
                <g id="Grupo_995944" data-name="Grupo 995944">
                  <g id="Grupo_995943" data-name="Grupo 995943">
                    <path id="Trazado_651807" data-name="Trazado 651807" d="M75,290.275l1.133,1.884a12.9,12.9,0,0,0,5.336,4.914l1.971.975-1.884,1.133a12.9,12.9,0,0,0-4.914,5.336l-.974,1.971L74.53,304.6a12.905,12.905,0,0,0-5.336-4.914l-1.971-.974,1.884-1.134a12.905,12.905,0,0,0,4.914-5.336Z" fill="#e0e0e0"/>
                  </g>
                </g>
              </g>
            </g>
          </g>
        </g>
        <g id="Grupo_995954" data-name="Grupo 995954">
          <g id="Grupo_995953" data-name="Grupo 995953">
            <g id="Grupo_995952" data-name="Grupo 995952">
              <g id="Grupo_995951" data-name="Grupo 995951">
                <g id="Grupo_995950" data-name="Grupo 995950">
                  <g id="Grupo_995949" data-name="Grupo 995949">
                    <path id="Trazado_651808" data-name="Trazado 651808" d="M404.167,399.543l1.133,1.884a12.9,12.9,0,0,0,5.336,4.914l1.971.975-1.884,1.133a12.914,12.914,0,0,0-4.914,5.337l-.974,1.97-1.134-1.884a12.9,12.9,0,0,0-5.336-4.913l-1.971-.975,1.884-1.134a12.9,12.9,0,0,0,4.914-5.336Z" fill="#e0e0e0"/>
                  </g>
                </g>
              </g>
            </g>
          </g>
        </g>
      </g>
      <g id="Desk">
        <g id="Grupo_995955" data-name="Grupo 995955">
          <path id="Trazado_651809" data-name="Trazado 651809" d="M477.555,478.217c0,.144-101.888.26-227.544.26-125.7,0-227.567-.116-227.567-.26s101.867-.26,227.567-.26C375.667,477.957,477.555,478.073,477.555,478.217Z" fill="#263238"/>
        </g>
      </g>
    </g>
    <g id="Grupo_996414" data-name="Grupo 996414" transform="translate(-1 298)">
      <g id="Grupo_996413" data-name="Grupo 996413" transform="translate(-296.998 12532.729)">
        <path id="Trazado_651903" data-name="Trazado 651903" d="M811.042,474.678l-1.065-1.61-129.417-4.41-16.55,43.661,154.916-.182Z" transform="translate(-16.415 -43.651)" fill="#179587"/>
        <path id="Trazado_651904" data-name="Trazado 651904" d="M811.042,474.678l-1.065-1.61-129.417-4.41-16.55,43.661,154.916-.182Z" transform="translate(-16.415 -43.651)" opacity="0.3"/>
        <g id="Grupo_996412" data-name="Grupo 996412" transform="translate(516.998 77.731)">
          <g id="Grupo_996364" data-name="Grupo 996364" transform="translate(154.131)">
            <g id="Grupo_996257" data-name="Grupo 996257">
              <path id="Trazado_651905" data-name="Trazado 651905" d="M876.084,311.668a5.9,5.9,0,0,0-2.788-4.628c-24.768-16.393-43.434-52.725-45.316-83.483-.05-1.752-.1-3.529-.163-5.32v-.022h0c-1.432-43.978-7.909-97.317-13.722-111.534-10.737-26.261-47.108-28.727-47.108-28.727-48.281-3.455-56.9,33.644-61.778,67.435-3.03,21.013-14.707,96.078-14.707,96.078l8.874,3.433c10.455,30.98,34,56.035,64.6,67.557,8.9,3.352,16.436,4.7,19.973,1.814a121.465,121.465,0,0,0,50.807,30.845c7.8,2.372,15.971,3.957,24.086,3.2,5.27-.493,10.827-2.233,13.968-6.493a12.109,12.109,0,0,0-10.384-19.281C864.25,316.607,876.29,318.352,876.084,311.668Z" transform="translate(-690.502 -77.731)" fill="#636363"/>
            </g>
            <g id="Grupo_996258" data-name="Grupo 996258" transform="translate(0.078)" opacity="0.3">
              <path id="Trazado_651906" data-name="Trazado 651906" d="M876.084,311.668a5.9,5.9,0,0,0-2.788-4.628c-24.768-16.393-43.434-52.725-45.316-83.483-.05-1.752-.1-3.529-.163-5.32v-.022h0c-1.432-43.978-7.909-97.317-13.722-111.534-10.737-26.261-47.108-28.727-47.108-28.727-48.281-3.455-56.9,33.644-61.778,67.435-3.03,21.013-14.707,96.078-14.707,96.078l8.874,3.433c10.455,30.98,34,56.035,64.6,67.557,8.9,3.352,16.436,4.7,19.973,1.814a121.465,121.465,0,0,0,50.807,30.845c7.8,2.372,15.971,3.957,24.086,3.2,5.27-.493,10.827-2.233,13.968-6.493a12.109,12.109,0,0,0-10.384-19.281C864.25,316.607,876.29,318.352,876.084,311.668Z" transform="translate(-690.502 -77.731)"/>
            </g>
            <g id="Grupo_996344" data-name="Grupo 996344" transform="translate(25.014 9.255)">
              <g id="Grupo_996259" data-name="Grupo 996259" transform="translate(13.629 1.746)">
                <path id="Trazado_651907" data-name="Trazado 651907" d="M778.269,92.993l-3.021-2.879-32.642,13.155a9.111,9.111,0,0,0-8.6,8.821l.287,106.356c-.042,7.212,1.4,13.458,5.758,19.207l4.584,6.053c10.453,13.8,31.955,12.664,40.231-2.542a11.578,11.578,0,0,0,1.154-2.75,21.368,21.368,0,0,0,.486-2.378c.972-8.557,1.027-15.977,1.027-15.977.582-9.394.774-13.25.776-13.162,0,0,19.992-2.3,25.4-27.961,2.688-12.763,2.182-30.322,1.426-47.6C814.081,107.418,797.493,92.969,778.269,92.993Z" transform="translate(-734.002 -90.114)" fill="#ffbf9d"/>
              </g>
              <g id="Grupo_996268" data-name="Grupo 996268" transform="translate(44.566 54.129)" opacity="0.82">
                <g id="Grupo_996267" data-name="Grupo 996267">
                  <g id="Grupo_996266" data-name="Grupo 996266">
                    <g id="Grupo_996265" data-name="Grupo 996265">
                      <g id="Grupo_996264" data-name="Grupo 996264">
                        <g id="Grupo_996263" data-name="Grupo 996263">
                          <g id="Grupo_996262" data-name="Grupo 996262">
                            <g id="Grupo_996261" data-name="Grupo 996261">
                              <g id="Grupo_996260" data-name="Grupo 996260">
                                <path id="Trazado_651908" data-name="Trazado 651908" d="M775.467,152.246a3.322,3.322,0,0,1-3.368,3.186,3.177,3.177,0,0,1-3.27-3.162,3.323,3.323,0,0,1,3.363-3.188A3.18,3.18,0,0,1,775.467,152.246Z" transform="translate(-768.829 -149.082)" fill="#636363"/>
                              </g>
                            </g>
                          </g>
                        </g>
                      </g>
                    </g>
                  </g>
                </g>
              </g>
              <g id="Grupo_996277" data-name="Grupo 996277" transform="translate(78.309 55.037)" opacity="0.82">
                <g id="Grupo_996276" data-name="Grupo 996276">
                  <g id="Grupo_996275" data-name="Grupo 996275">
                    <g id="Grupo_996274" data-name="Grupo 996274">
                      <g id="Grupo_996273" data-name="Grupo 996273">
                        <g id="Grupo_996272" data-name="Grupo 996272">
                          <g id="Grupo_996271" data-name="Grupo 996271">
                            <g id="Grupo_996270" data-name="Grupo 996270">
                              <g id="Grupo_996269" data-name="Grupo 996269">
                                <path id="Trazado_651909" data-name="Trazado 651909" d="M813.45,153.268a3.322,3.322,0,0,1-3.367,3.187,3.178,3.178,0,0,1-3.27-3.162,3.323,3.323,0,0,1,3.363-3.189A3.178,3.178,0,0,1,813.45,153.268Z" transform="translate(-806.813 -150.104)" fill="#636363"/>
                              </g>
                            </g>
                          </g>
                        </g>
                      </g>
                    </g>
                  </g>
                </g>
              </g>
              <g id="Grupo_996287" data-name="Grupo 996287" transform="translate(78.236 45.977)" opacity="0.82">
                <g id="Grupo_996286" data-name="Grupo 996286">
                  <g id="Grupo_996285" data-name="Grupo 996285">
                    <g id="Grupo_996284" data-name="Grupo 996284">
                      <g id="Grupo_996283" data-name="Grupo 996283">
                        <g id="Grupo_996282" data-name="Grupo 996282">
                          <g id="Grupo_996281" data-name="Grupo 996281">
                            <g id="Grupo_996280" data-name="Grupo 996280">
                              <g id="Grupo_996279" data-name="Grupo 996279">
                                <g id="Grupo_996278" data-name="Grupo 996278">
                                  <path id="Trazado_651910" data-name="Trazado 651910" d="M819.834,143.728c-.434.412-2.853-1.573-6.424-1.744-3.564-.22-6.276,1.485-6.641,1.029-.181-.2.278-.963,1.46-1.737a9.115,9.115,0,0,1,5.344-1.358,8.755,8.755,0,0,1,5.086,1.928C819.713,142.743,820.046,143.544,819.834,143.728Z" transform="translate(-806.73 -139.905)" fill="#636363"/>
                                </g>
                              </g>
                            </g>
                          </g>
                        </g>
                      </g>
                    </g>
                  </g>
                </g>
              </g>
              <g id="Grupo_996297" data-name="Grupo 996297" transform="translate(42.158 45.622)" opacity="0.82">
                <g id="Grupo_996296" data-name="Grupo 996296">
                  <g id="Grupo_996295" data-name="Grupo 996295">
                    <g id="Grupo_996294" data-name="Grupo 996294">
                      <g id="Grupo_996293" data-name="Grupo 996293">
                        <g id="Grupo_996292" data-name="Grupo 996292">
                          <g id="Grupo_996291" data-name="Grupo 996291">
                            <g id="Grupo_996290" data-name="Grupo 996290">
                              <g id="Grupo_996289" data-name="Grupo 996289">
                                <g id="Grupo_996288" data-name="Grupo 996288">
                                  <path id="Trazado_651911" data-name="Trazado 651911" d="M779.069,144.053c-.474.365-2.681-1.859-6.212-2.393-3.522-.586-6.4.831-6.712.34-.157-.221.371-.93,1.631-1.578a9.115,9.115,0,0,1,5.455-.8,8.758,8.758,0,0,1,4.861,2.441C779.047,143.061,779.3,143.893,779.069,144.053Z" transform="translate(-766.118 -139.506)" fill="#636363"/>
                                </g>
                              </g>
                            </g>
                          </g>
                        </g>
                      </g>
                    </g>
                  </g>
                </g>
              </g>
              <g id="Grupo_996306" data-name="Grupo 996306" transform="translate(67.394 46.331)" opacity="0.82">
                <g id="Grupo_996305" data-name="Grupo 996305">
                  <g id="Grupo_996304" data-name="Grupo 996304">
                    <g id="Grupo_996303" data-name="Grupo 996303">
                      <g id="Grupo_996302" data-name="Grupo 996302">
                        <g id="Grupo_996301" data-name="Grupo 996301">
                          <g id="Grupo_996300" data-name="Grupo 996300">
                            <g id="Grupo_996299" data-name="Grupo 996299">
                              <g id="Grupo_996298" data-name="Grupo 996298">
                                <path id="Trazado_651912" data-name="Trazado 651912" d="M794.713,170.131c-.006-.2,2.232-.475,5.852-.755.916-.049,1.788-.187,1.973-.8a4.646,4.646,0,0,0-.473-2.732q-1.121-3.374-2.349-7.077c-3.248-10.071-5.551-18.334-5.144-18.461s3.37,7.932,6.618,18q1.169,3.723,2.232,7.113c.294,1.053.828,2.258.294,3.6a2.3,2.3,0,0,1-1.566,1.259,6.223,6.223,0,0,1-1.559.137C796.964,170.431,794.717,170.335,794.713,170.131Z" transform="translate(-794.526 -140.303)" fill="#636363"/>
                              </g>
                            </g>
                          </g>
                        </g>
                      </g>
                    </g>
                  </g>
                </g>
              </g>
              <g id="Grupo_996314" data-name="Grupo 996314" transform="translate(33.748 107.551)" opacity="0.2">
                <g id="Grupo_996313" data-name="Grupo 996313">
                  <g id="Grupo_996312" data-name="Grupo 996312">
                    <g id="Grupo_996311" data-name="Grupo 996311">
                      <g id="Grupo_996310" data-name="Grupo 996310">
                        <g id="Grupo_996309" data-name="Grupo 996309">
                          <g id="Grupo_996308" data-name="Grupo 996308">
                            <g id="Grupo_996307" data-name="Grupo 996307">
                              <path id="Trazado_651913" data-name="Trazado 651913" d="M790.832,220.2a65.9,65.9,0,0,1-34.182-10.978s7.813,18.344,33.826,17.221Z" transform="translate(-756.65 -209.219)"/>
                            </g>
                          </g>
                        </g>
                      </g>
                    </g>
                  </g>
                </g>
              </g>
              <g id="Grupo_996322" data-name="Grupo 996322" transform="translate(54.874 81.998)">
                <g id="Grupo_996321" data-name="Grupo 996321">
                  <g id="Grupo_996320" data-name="Grupo 996320">
                    <g id="Grupo_996319" data-name="Grupo 996319">
                      <g id="Grupo_996318" data-name="Grupo 996318">
                        <g id="Grupo_996317" data-name="Grupo 996317">
                          <g id="Grupo_996316" data-name="Grupo 996316">
                            <g id="Grupo_996315" data-name="Grupo 996315">
                              <path id="Trazado_651914" data-name="Trazado 651914" d="M791.2,183.143a6.44,6.44,0,0,0-5.647-2.678,5.879,5.879,0,0,0-4.165,1.972,3.727,3.727,0,0,0-.5,4.242c.9,1.4,2.893,1.817,4.621,1.417a13.532,13.532,0,0,0,4.7-2.494,3.945,3.945,0,0,0,1.072-1.006,1.194,1.194,0,0,0,.062-1.328" transform="translate(-780.432 -180.454)" fill="#ee4e5d"/>
                            </g>
                          </g>
                        </g>
                      </g>
                    </g>
                  </g>
                </g>
              </g>
              <g id="Grupo_996330" data-name="Grupo 996330" transform="translate(54.874 81.59)" opacity="0.2">
                <g id="Grupo_996329" data-name="Grupo 996329" transform="translate(0 0)">
                  <g id="Grupo_996328" data-name="Grupo 996328">
                    <g id="Grupo_996327" data-name="Grupo 996327">
                      <g id="Grupo_996326" data-name="Grupo 996326">
                        <g id="Grupo_996325" data-name="Grupo 996325">
                          <g id="Grupo_996324" data-name="Grupo 996324">
                            <g id="Grupo_996323" data-name="Grupo 996323">
                              <path id="Trazado_651915" data-name="Trazado 651915" d="M791.2,183.143a6.44,6.44,0,0,0-5.647-2.678,5.879,5.879,0,0,0-4.165,1.972,3.727,3.727,0,0,0-.5,4.242c.9,1.4,2.893,1.817,4.621,1.417a13.532,13.532,0,0,0,4.7-2.494,3.945,3.945,0,0,0,1.072-1.006,1.194,1.194,0,0,0,.062-1.328" transform="translate(-780.432 -180.454)"/>
                            </g>
                          </g>
                        </g>
                      </g>
                    </g>
                  </g>
                </g>
              </g>
              <g id="Grupo_996335" data-name="Grupo 996335" transform="translate(42.232 30.96)" opacity="0.82">
                <g id="Grupo_996334" data-name="Grupo 996334">
                  <g id="Grupo_996333" data-name="Grupo 996333">
                    <g id="Grupo_996332" data-name="Grupo 996332">
                      <g id="Grupo_996331" data-name="Grupo 996331">
                        <path id="Trazado_651916" data-name="Trazado 651916" d="M781.881,129.309c-.7.759-3.812-1.053-7.872-2.217-4.038-1.245-7.631-1.429-7.8-2.448-.067-.481.831-1.094,2.457-1.43a14.22,14.22,0,0,1,11.944,3.555C781.782,127.938,782.2,128.943,781.881,129.309Z" transform="translate(-766.201 -123)" fill="#636363"/>
                      </g>
                    </g>
                  </g>
                </g>
              </g>
              <g id="Grupo_996340" data-name="Grupo 996340" transform="translate(76.813 38.059)" opacity="0.82">
                <g id="Grupo_996339" data-name="Grupo 996339">
                  <g id="Grupo_996338" data-name="Grupo 996338">
                    <g id="Grupo_996337" data-name="Grupo 996337">
                      <g id="Grupo_996336" data-name="Grupo 996336">
                        <path id="Trazado_651917" data-name="Trazado 651917" d="M817.316,134.218c-.562.859-3.084.215-6.039.409-2.962.091-5.409.977-6.05.177-.286-.392.044-1.233,1.075-2.086a8.764,8.764,0,0,1,9.742-.472C817.153,133,817.561,133.8,817.316,134.218Z" transform="translate(-805.128 -130.992)" fill="#636363"/>
                      </g>
                    </g>
                  </g>
                </g>
              </g>
              <g id="Grupo_996341" data-name="Grupo 996341" transform="translate(9.193)">
                <path id="Trazado_651918" data-name="Trazado 651918" d="M734.1,157.26s18.285,5.691,28.632-39.438c3.538-15.431,17.844-27.928,17.844-27.928l-5.8-1.746s-36.059,10.159-36.665,10.614-9.1,18.649-9.1,18.649Z" transform="translate(-729.009 -88.149)" fill="#636363"/>
              </g>
              <g id="Grupo_996342" data-name="Grupo 996342" transform="translate(0 60.039)">
                <path id="Trazado_651919" data-name="Trazado 651919" d="M737.447,163.126c.091-1.927-1.907-6.58-3.795-6.973-5.041-1.046-14.219-1.1-14.951,11.8-1,17.633,16.908,15,16.968,14.5C735.715,182.056,737.129,169.779,737.447,163.126Z" transform="translate(-718.66 -155.734)" fill="#ffbf9d"/>
              </g>
              <g id="Grupo_996343" data-name="Grupo 996343" transform="translate(4.487 65.626)" opacity="0.3">
                <path id="Trazado_651920" data-name="Trazado 651920" d="M731.225,176.166c-.075-.06-.32.2-.852.406a3.079,3.079,0,0,1-2.3-.083c-1.824-.79-3.225-3.836-3.13-7.019a10.153,10.153,0,0,1,1.109-4.35A3.552,3.552,0,0,1,728.5,162.9a1.568,1.568,0,0,1,1.765.943c.209.507.076.854.168.887.047.048.4-.273.295-1.008a1.963,1.963,0,0,0-.632-1.145,2.323,2.323,0,0,0-1.674-.545,4.323,4.323,0,0,0-3.363,2.552,10.452,10.452,0,0,0-1.343,4.854c-.089,3.56,1.541,6.988,4.048,7.869A3.3,3.3,0,0,0,730.6,177C731.169,176.592,731.285,176.2,731.225,176.166Z" transform="translate(-723.711 -162.024)"/>
              </g>
            </g>
            <g id="Grupo_996345" data-name="Grupo 996345" transform="translate(33.319 9.255)" opacity="0.3">
              <path id="Trazado_651921" data-name="Trazado 651921" d="M734.1,157.26s18.285,5.691,28.632-39.438c3.538-15.431,17.844-27.928,17.844-27.928l-5.8-1.746s-36.059,10.159-36.665,10.614-9.1,18.649-9.1,18.649Z" transform="translate(-729.009 -88.149)"/>
            </g>
            <g id="Grupo_996354" data-name="Grupo 996354" transform="translate(81.282 87.356)">
              <g id="Grupo_996353" data-name="Grupo 996353">
                <g id="Grupo_996352" data-name="Grupo 996352">
                  <g id="Grupo_996351" data-name="Grupo 996351">
                    <g id="Grupo_996350" data-name="Grupo 996350">
                      <g id="Grupo_996349" data-name="Grupo 996349">
                        <g id="Grupo_996348" data-name="Grupo 996348">
                          <g id="Grupo_996347" data-name="Grupo 996347">
                            <g id="Grupo_996346" data-name="Grupo 996346">
                              <path id="Trazado_651922" data-name="Trazado 651922" d="M782.685,176.068c.582-.005.4,3.871,3.575,6.787s7.325,2.7,7.328,3.241c.042.246-.958.707-2.7.667a9.663,9.663,0,0,1-6.129-2.486,8.41,8.41,0,0,1-2.749-5.678C781.941,176.97,782.421,176.031,782.685,176.068Z" transform="translate(-782.001 -176.067)" fill="#ff725e"/>
                            </g>
                          </g>
                        </g>
                      </g>
                    </g>
                  </g>
                </g>
              </g>
            </g>
            <g id="Grupo_996363" data-name="Grupo 996363" transform="translate(81.282 87.356)" opacity="0.3">
              <g id="Grupo_996362" data-name="Grupo 996362">
                <g id="Grupo_996361" data-name="Grupo 996361">
                  <g id="Grupo_996360" data-name="Grupo 996360">
                    <g id="Grupo_996359" data-name="Grupo 996359">
                      <g id="Grupo_996358" data-name="Grupo 996358">
                        <g id="Grupo_996357" data-name="Grupo 996357">
                          <g id="Grupo_996356" data-name="Grupo 996356">
                            <g id="Grupo_996355" data-name="Grupo 996355">
                              <path id="Trazado_651923" data-name="Trazado 651923" d="M782.685,176.068c.582-.005.4,3.871,3.575,6.787s7.325,2.7,7.328,3.241c.042.246-.958.707-2.7.667a9.663,9.663,0,0,1-6.129-2.486,8.41,8.41,0,0,1-2.749-5.678C781.941,176.97,782.421,176.031,782.685,176.068Z" transform="translate(-782.001 -176.067)" fill="#ee4e5d"/>
                            </g>
                          </g>
                        </g>
                      </g>
                    </g>
                  </g>
                </g>
              </g>
            </g>
          </g>
          <g id="Grupo_996385" data-name="Grupo 996385" transform="translate(286.403 51.979)">
            <g id="Grupo_996384" data-name="Grupo 996384">
              <g id="Grupo_996381" data-name="Grupo 996381">
                <g id="Grupo_996365" data-name="Grupo 996365" transform="translate(0 36.516)">
                  <path id="Trazado_651924" data-name="Trazado 651924" d="M927.6,177.349s23.572,47.424,27.574,57.385c3.466,8.627,22.615,49.039,16.695,60.251s-11.181,10.628-19.432,11.078-61.933-1.761-75.85-2.34c-17.713-.738-37.188-5.765-37.188-5.765l9.134-48.583,70.963,13.2h0l-11.991-77.1Z" transform="translate(-839.4 -177.349)" fill="#ffbf9d"/>
                </g>
                <g id="Grupo_996366" data-name="Grupo 996366" transform="translate(24.894)">
                  <path id="Trazado_651925" data-name="Trazado 651925" d="M930.866,173.111s-4.092-7.26-6.623-9-23.1-19.779-23.1-19.779-8.069-8.544-10.284-8.07S867.6,150.82,867.438,153.035s.95,3.481,2.216,3.8-.633,1.741,2.69,5.064c0,0-3.164-.158-3.006,2.848s0,7.121,2.057,7.279,8.545,2.057,8.861-1.424l.633-1.425a62.312,62.312,0,0,0,10.6,6.013c5.064,2.057,13.133,1.9,13.133,1.9a9.376,9.376,0,0,0,6.013,3.8C914.432,181.358,930.866,173.111,930.866,173.111Z" transform="translate(-867.423 -136.244)" fill="#ffbf9d"/>
                </g>
                <g id="Grupo_996368" data-name="Grupo 996368" transform="translate(55.532 23.87)" opacity="0.3">
                  <g id="Grupo_996367" data-name="Grupo 996367">
                    <path id="Trazado_651926" data-name="Trazado 651926" d="M903.177,163.117a4.015,4.015,0,0,0-1.1,2.379,10.056,10.056,0,0,0,.946,6.251,18.752,18.752,0,0,0,3.791,5.024c1.149,1.115,1.924,1.724,2,1.649s-.552-.84-1.579-2.042a24.536,24.536,0,0,1-3.479-4.986,10.841,10.841,0,0,1-1.11-5.805C902.811,164.054,903.3,163.18,903.177,163.117Z" transform="translate(-901.912 -163.114)"/>
                  </g>
                </g>
                <g id="Grupo_996370" data-name="Grupo 996370" transform="translate(47.097 22.948)" opacity="0.3">
                  <g id="Grupo_996369" data-name="Grupo 996369">
                    <path id="Trazado_651927" data-name="Trazado 651927" d="M892.433,167.181c-.04.03-.017.174.171.343a1.408,1.408,0,0,0,.976.27,3.928,3.928,0,0,0,2.679-1.58,4.578,4.578,0,0,0,.98-2.924c-.046-.806-.306-1.243-.4-1.213-.12.03-.076.492-.176,1.185a5.376,5.376,0,0,1-1.047,2.45,4.287,4.287,0,0,1-2.112,1.51C892.859,167.4,892.523,167.113,892.433,167.181Z" transform="translate(-892.416 -162.075)"/>
                  </g>
                </g>
                <g id="Grupo_996372" data-name="Grupo 996372" transform="translate(39.643 7.782)" opacity="0.3">
                  <g id="Grupo_996371" data-name="Grupo 996371">
                    <path id="Trazado_651928" data-name="Trazado 651928" d="M899.383,145.141a2.369,2.369,0,0,0-2.014.161,5.127,5.127,0,0,0-1.883,1.51c-.6.728-1.13,1.638-1.764,2.59a76.24,76.24,0,0,1-4.781,6.485c-.962,1.172-2.011,2.367-3.138,3.573a7.248,7.248,0,0,0-1.561,2.16,3.136,3.136,0,0,0,.3,2.848,9.375,9.375,0,0,0,1.806,2.026q.958.874,1.934,1.666a30.826,30.826,0,0,0,3.958,2.808,4.812,4.812,0,0,0,2.3.632,4.473,4.473,0,0,0,2.159-.644,7.622,7.622,0,0,0,2.77-2.744,3.715,3.715,0,0,0,.247-3.22,2.383,2.383,0,0,0-1.909-1.5,2.046,2.046,0,0,0-1.5.351c-.283.221-.358.4-.342.411a2.173,2.173,0,0,1,1.787-.449,2.041,2.041,0,0,1,1.537,1.36,3.247,3.247,0,0,1-.328,2.768,7.18,7.18,0,0,1-2.6,2.436,3.819,3.819,0,0,1-1.832.516,4.108,4.108,0,0,1-1.939-.577,31.787,31.787,0,0,1-3.807-2.764q-.953-.782-1.892-1.645a8.767,8.767,0,0,1-1.653-1.846,2.313,2.313,0,0,1-.25-2.134,6.6,6.6,0,0,1,1.39-1.911c1.131-1.227,2.181-2.447,3.137-3.644a65.744,65.744,0,0,0,4.683-6.649c.612-.986,1.1-1.907,1.636-2.617a5.059,5.059,0,0,1,1.664-1.508A4.232,4.232,0,0,1,899.383,145.141Z" transform="translate(-884.026 -145.004)"/>
                  </g>
                </g>
                <g id="Grupo_996374" data-name="Grupo 996374" transform="translate(51.244 23.031)" opacity="0.3">
                  <g id="Grupo_996373" data-name="Grupo 996373">
                    <path id="Trazado_651929" data-name="Trazado 651929" d="M897.119,162.179c-.09.051-.011.427.348.918a4.276,4.276,0,0,0,4.235,1.54c.59-.146.892-.384.856-.48-.075-.221-1.413.117-2.914-.454C898.127,163.176,897.319,162.057,897.119,162.179Z" transform="translate(-897.085 -162.17)"/>
                  </g>
                </g>
                <g id="Grupo_996376" data-name="Grupo 996376" transform="translate(31.955 5.066)" opacity="0.3">
                  <g id="Grupo_996375" data-name="Grupo 996375">
                    <path id="Trazado_651930" data-name="Trazado 651930" d="M890.137,141.948a7.1,7.1,0,0,0-1.21,1.25c-.737.839-1.783,2.068-3.061,3.6l-4.459,5.4-2.612,3.208a24.229,24.229,0,0,0-2.65,3.651,4.929,4.929,0,0,0-.335,4.62,9.807,9.807,0,0,0,3,3.048c2.123,1.579,3.911,3.1,5.666,4.179a5.775,5.775,0,0,0,2.652.855,3.886,3.886,0,0,0,2.054-.486c1.036-.615,1.157-1.366,1.124-1.348a3.891,3.891,0,0,1-1.27,1.065,3.726,3.726,0,0,1-1.881.313,5.479,5.479,0,0,1-2.383-.9c-1.608-1.07-3.418-2.675-5.5-4.276a9.343,9.343,0,0,1-2.743-2.812,4.15,4.15,0,0,1,.34-3.881,24.666,24.666,0,0,1,2.552-3.531l2.574-3.238,4.323-5.513c1.221-1.577,2.2-2.861,2.86-3.761A7.179,7.179,0,0,0,890.137,141.948Z" transform="translate(-875.372 -141.946)"/>
                  </g>
                </g>
                <g id="Grupo_996378" data-name="Grupo 996378" transform="translate(27.959 6.689)" opacity="0.3">
                  <g id="Grupo_996377" data-name="Grupo 996377">
                    <path id="Trazado_651931" data-name="Trazado 651931" d="M882.771,143.777c-.2-.141-2.789,3.848-7.132,7.681a25.485,25.485,0,0,0-2.956,2.931,8.215,8.215,0,0,0-1.617,3.064c-.515,1.978.151,3.2.216,3.131a8.735,8.735,0,0,1,.337-2.963,8.424,8.424,0,0,1,1.643-2.751,31.135,31.135,0,0,1,2.922-2.8,33.666,33.666,0,0,0,5.032-5.586A9.171,9.171,0,0,0,882.771,143.777Z" transform="translate(-870.873 -143.773)"/>
                  </g>
                </g>
                <g id="Grupo_996380" data-name="Grupo 996380" transform="translate(29.918 28.86)" opacity="0.3">
                  <g id="Grupo_996379" data-name="Grupo 996379">
                    <path id="Trazado_651932" data-name="Trazado 651932" d="M873.079,169.116c0,.29,2.323.009,4.827.851a6.669,6.669,0,0,1,2.744,1.843c.566.648.785,1.17.905,1.131.094-.02.071-.642-.441-1.473a5.775,5.775,0,0,0-2.931-2.269,8.75,8.75,0,0,0-3.636-.436C873.623,168.845,873.07,169.009,873.079,169.116Z" transform="translate(-873.079 -168.731)"/>
                  </g>
                </g>
              </g>
              <g id="Grupo_996383" data-name="Grupo 996383" transform="translate(80.269 121.255)">
                <g id="Grupo_996382" data-name="Grupo 996382">
                  <path id="Trazado_651933" data-name="Trazado 651933" d="M929.773,272.742a8.435,8.435,0,0,0,1.091,2.7,33.185,33.185,0,0,0,8.978,10.739,8.428,8.428,0,0,0,2.469,1.554c.153-.2-3.449-2.8-6.9-6.968C931.918,276.632,930,272.627,929.773,272.742Z" transform="translate(-929.759 -272.739)" opacity="0.3"/>
                </g>
              </g>
            </g>
            <path id="Trazado_651934" data-name="Trazado 651934" d="M871.006,312.7l8.04-48.624,5.5,1.023-6.338,48.211Z" transform="translate(-842.929 -150.517)" opacity="0.2"/>
          </g>
          <g id="Grupo_996406" data-name="Grupo 996406" transform="translate(0 33.05)">
            <g id="Grupo_996405" data-name="Grupo 996405">
              <g id="Grupo_996402" data-name="Grupo 996402">
                <g id="Grupo_996386" data-name="Grupo 996386" transform="translate(0 36.516)">
                  <path id="Trazado_651935" data-name="Trazado 651935" d="M562.395,156.04s-23.572,47.424-27.574,57.385c-3.466,8.628-22.616,49.039-16.695,60.252s11.181,10.628,19.432,11.078,61.933-1.761,75.85-2.341c17.713-.738,37.188-5.764,37.188-5.764l-9.134-48.584-70.963,13.2h0l11.991-77.1Z" transform="translate(-516.998 -156.04)" fill="#ffbf9d"/>
                </g>
                <g id="Grupo_996387" data-name="Grupo 996387" transform="translate(45.26)">
                  <path id="Trazado_651936" data-name="Trazado 651936" d="M567.947,151.8s4.092-7.26,6.623-9,23.1-19.779,23.1-19.779,8.07-8.544,10.285-8.07,23.259,14.557,23.418,16.773-.949,3.481-2.215,3.8.632,1.74-2.69,5.063c0,0,2.23-.06,3.006,2.848.744,2.789.887,5.619-2.057,7.279-2.232,1.26-7.569,2.523-9.434-2.715l-.06-.133a62.229,62.229,0,0,1-10.6,6.012c-5.063,2.057-13.132,1.9-13.132,1.9a9.38,9.38,0,0,1-6.013,3.8C584.38,160.049,567.947,151.8,567.947,151.8Z" transform="translate(-567.947 -114.935)" fill="#ffbf9d"/>
                </g>
                <g id="Grupo_996389" data-name="Grupo 996389" transform="translate(71.159 23.871)" opacity="0.3">
                  <g id="Grupo_996388" data-name="Grupo 996388">
                    <path id="Trazado_651937" data-name="Trazado 651937" d="M602.743,141.809a4.01,4.01,0,0,1,1.1,2.379,10.05,10.05,0,0,1-.947,6.25,18.721,18.721,0,0,1-3.791,5.024c-1.149,1.115-1.924,1.724-2,1.65s.552-.841,1.579-2.043a24.486,24.486,0,0,0,3.479-4.986,10.841,10.841,0,0,0,1.11-5.805C603.108,142.745,602.618,141.872,602.743,141.809Z" transform="translate(-597.101 -141.806)"/>
                  </g>
                </g>
                <g id="Grupo_996391" data-name="Grupo 996391" transform="translate(81.674 22.948)" opacity="0.3">
                  <g id="Grupo_996390" data-name="Grupo 996390">
                    <path id="Trazado_651938" data-name="Trazado 651938" d="M613.748,145.872c.04.03.016.174-.172.343a1.411,1.411,0,0,1-.976.27,3.928,3.928,0,0,1-2.679-1.58,4.571,4.571,0,0,1-.98-2.924c.046-.8.306-1.243.4-1.213.12.029.076.491.176,1.185a5.381,5.381,0,0,0,1.047,2.45,4.29,4.29,0,0,0,2.112,1.509C613.322,146.094,613.659,145.8,613.748,145.872Z" transform="translate(-608.938 -140.767)"/>
                  </g>
                </g>
                <g id="Grupo_996393" data-name="Grupo 996393" transform="translate(78.003 7.782)" opacity="0.3">
                  <g id="Grupo_996392" data-name="Grupo 996392">
                    <path id="Trazado_651939" data-name="Trazado 651939" d="M605.4,123.832a2.367,2.367,0,0,1,2.013.161,5.156,5.156,0,0,1,1.884,1.51c.6.728,1.13,1.639,1.764,2.59a76.218,76.218,0,0,0,4.781,6.485c.961,1.172,2.011,2.368,3.138,3.573a7.245,7.245,0,0,1,1.561,2.16,3.136,3.136,0,0,1-.3,2.848,9.374,9.374,0,0,1-1.806,2.026q-.958.874-1.934,1.667a30.967,30.967,0,0,1-3.958,2.807,4.812,4.812,0,0,1-2.3.633,4.49,4.49,0,0,1-2.16-.644,7.632,7.632,0,0,1-2.77-2.745,3.714,3.714,0,0,1-.248-3.219,2.384,2.384,0,0,1,1.91-1.5,2.043,2.043,0,0,1,1.5.352c.283.22.358.4.341.41a2.175,2.175,0,0,0-1.786-.449,2.044,2.044,0,0,0-1.538,1.36,3.25,3.25,0,0,0,.329,2.768,7.168,7.168,0,0,0,2.6,2.436,3.83,3.83,0,0,0,1.832.517,4.128,4.128,0,0,0,1.939-.577,31.9,31.9,0,0,0,3.807-2.764q.953-.784,1.891-1.646a8.757,8.757,0,0,0,1.653-1.845,2.313,2.313,0,0,0,.251-2.134,6.611,6.611,0,0,0-1.39-1.912c-1.131-1.226-2.181-2.446-3.137-3.644a65.644,65.644,0,0,1-4.683-6.649c-.612-.986-1.1-1.906-1.636-2.617a5.046,5.046,0,0,0-1.664-1.507A4.231,4.231,0,0,0,605.4,123.832Z" transform="translate(-604.805 -123.695)"/>
                  </g>
                </g>
                <g id="Grupo_996395" data-name="Grupo 996395" transform="translate(76.878 23.031)" opacity="0.3">
                  <g id="Grupo_996394" data-name="Grupo 996394">
                    <path id="Trazado_651940" data-name="Trazado 651940" d="M608.98,140.87c.091.051.012.427-.347.919a4.273,4.273,0,0,1-4.235,1.539c-.59-.146-.892-.384-.856-.48.076-.221,1.414.117,2.914-.454C607.972,141.868,608.781,140.749,608.98,140.87Z" transform="translate(-603.539 -140.861)"/>
                  </g>
                </g>
                <g id="Grupo_996397" data-name="Grupo 996397" transform="translate(86.707 5.066)" opacity="0.3">
                  <g id="Grupo_996396" data-name="Grupo 996396">
                    <path id="Trazado_651941" data-name="Trazado 651941" d="M614.774,120.639a7.092,7.092,0,0,1,1.21,1.25c.737.839,1.783,2.068,3.061,3.6l4.459,5.4,2.611,3.208a24.233,24.233,0,0,1,2.651,3.65,4.926,4.926,0,0,1,.334,4.62,9.786,9.786,0,0,1-3,3.048c-2.123,1.579-3.911,3.1-5.666,4.18a5.774,5.774,0,0,1-2.653.855,3.884,3.884,0,0,1-2.053-.486c-1.036-.615-1.157-1.365-1.125-1.348a3.91,3.91,0,0,0,1.271,1.066,3.727,3.727,0,0,0,1.881.312,5.476,5.476,0,0,0,2.383-.895c1.608-1.07,3.417-2.676,5.5-4.276a9.376,9.376,0,0,0,2.743-2.812,4.15,4.15,0,0,0-.341-3.882,24.716,24.716,0,0,0-2.551-3.531l-2.574-3.238L618.6,125.85c-1.221-1.578-2.2-2.862-2.86-3.762A7.153,7.153,0,0,1,614.774,120.639Z" transform="translate(-614.604 -120.637)"/>
                  </g>
                </g>
                <g id="Grupo_996399" data-name="Grupo 996399" transform="translate(93.731 6.689)" opacity="0.3">
                  <g id="Grupo_996398" data-name="Grupo 996398">
                    <path id="Trazado_651942" data-name="Trazado 651942" d="M622.52,122.469c.2-.142,2.788,3.847,7.132,7.68a25.634,25.634,0,0,1,2.956,2.931,8.217,8.217,0,0,1,1.617,3.065c.515,1.977-.151,3.2-.216,3.13a8.725,8.725,0,0,0-.338-2.963,8.407,8.407,0,0,0-1.643-2.751,31.141,31.141,0,0,0-2.922-2.8,33.714,33.714,0,0,1-5.032-5.587A9.2,9.2,0,0,1,622.52,122.469Z" transform="translate(-622.51 -122.465)"/>
                  </g>
                </g>
                <g id="Grupo_996401" data-name="Grupo 996401" transform="translate(95.624 29.182)" opacity="0.3">
                  <g id="Grupo_996400" data-name="Grupo 996400">
                    <path id="Trazado_651943" data-name="Trazado 651943" d="M633.161,148.17c0,.289-2.323.009-4.827.851a6.688,6.688,0,0,0-2.744,1.842c-.566.649-.785,1.171-.905,1.132-.094-.02-.071-.642.441-1.473a5.77,5.77,0,0,1,2.932-2.269,8.73,8.73,0,0,1,3.635-.436C632.618,147.9,633.17,148.063,633.161,148.17Z" transform="translate(-624.641 -147.784)"/>
                  </g>
                </g>
              </g>
              <g id="Grupo_996404" data-name="Grupo 996404" transform="translate(40.772 121.255)">
                <g id="Grupo_996403" data-name="Grupo 996403">
                  <path id="Trazado_651944" data-name="Trazado 651944" d="M575.437,251.433a8.436,8.436,0,0,1-1.091,2.705,33.2,33.2,0,0,1-8.978,10.74,8.45,8.45,0,0,1-2.469,1.554c-.153-.2,3.448-2.8,6.9-6.969C573.292,255.324,575.209,251.318,575.437,251.433Z" transform="translate(-562.895 -251.43)" opacity="0.3"/>
                </g>
              </g>
            </g>
            <path id="Trazado_651945" data-name="Trazado 651945" d="M640.146,290.715l-9.184-48.855-5.247.976,6.274,48.724Z" transform="translate(-529.137 -129.107)" opacity="0.2"/>
          </g>
          <g id="Grupo_996411" data-name="Grupo 996411" transform="translate(101.274 135.401)">
            <g id="Grupo_996408" data-name="Grupo 996408">
              <g id="Grupo_996407" data-name="Grupo 996407">
                <path id="Trazado_651946" data-name="Trazado 651946" d="M674.83,413.186s-11.532-78.358-11.5-89.7c.01-4.48-2.383-33.9-2.383-33.9l-19.874,1.786L631,237.824s39.49-7.085,50.107-7.646c10.578-.558,41.389,7.646,41.389,7.646l23.985,16.9,44.506-9.6s17.6,2.814,17.417,2.643l44.03,11.392-8.286,50.109-26.215-1.017.165,31.692c-.342,2.4,1.713,14.38-14.038,33.556l-2.65,33.376L813.226,467.6h-145.9Z" transform="translate(-631.002 -230.15)" fill="#f1b62b"/>
              </g>
            </g>
            <g id="Grupo_996409" data-name="Grupo 996409" transform="translate(90.747 3.39)" opacity="0.3">
              <path id="Trazado_651947" data-name="Trazado 651947" d="M787.506,243.2c.137.077-.213.987-1.26,2.351a21.923,21.923,0,0,1-5.39,4.857,28.572,28.572,0,0,1-10.016,4.018c-1.006.157-2.034.37-3.093.486-1.062.075-2.147.2-3.252.228-1.1-.009-2.229,0-3.37-.034l-3.468-.352a31.7,31.7,0,0,1-12.432-4.534,29.61,29.61,0,0,1-7.886-7.357,27.28,27.28,0,0,1-3.531-6.3c-.61-1.594-.747-2.545-.6-2.59s.569.776,1.408,2.2a39.108,39.108,0,0,0,4,5.673,31.173,31.173,0,0,0,7.725,6.561,31.719,31.719,0,0,0,11.645,4.058,40.367,40.367,0,0,0,12.452-.133,29.84,29.84,0,0,0,9.569-3.324,28.255,28.255,0,0,0,5.566-4.059C786.781,243.824,787.369,243.115,787.506,243.2Z" transform="translate(-733.156 -233.967)"/>
            </g>
            <g id="Grupo_996410" data-name="Grupo 996410" transform="translate(120.281 96.112)" opacity="0.3">
              <path id="Trazado_651948" data-name="Trazado 651948" d="M791.2,338.345c.248-.074,1.468,2.977,1.737,8.226a37.111,37.111,0,0,1-.72,9.171,37.772,37.772,0,0,1-10.664,19.646,37.125,37.125,0,0,1-7.3,5.6c-4.548,2.634-7.771,3.272-7.844,3.024-.138-.351,2.829-1.529,6.963-4.4A41.039,41.039,0,0,0,791.3,346.582C791.457,341.551,790.829,338.42,791.2,338.345Z" transform="translate(-766.402 -338.344)"/>
            </g>
          </g>
        </g>
      </g>
    </g>
  </g>
</svg>
