<svg xmlns="http://www.w3.org/2000/svg" width="69" height="69" viewBox="0 0 69 69">
  <g id="Grupo_1000291" data-name="Grupo 1000291" transform="translate(-286 -8749)">
    <g id="Elipse_5563" data-name="Elipse 5563" transform="translate(286 8749)" fill="none" stroke="#222b5a" stroke-width="1">
      <circle cx="34.5" cy="34.5" r="34.5" stroke="none"/>
      <circle cx="34.5" cy="34.5" r="34" fill="none"/>
    </g>
    <g id="proteger" transform="translate(295.442 8757.5)">
      <path id="Trazado_126161" data-name="Trazado 126161" d="M83.335,283.916l-9.8,6.56-2.921-.164-.114-1.15a3.732,3.732,0,0,0-3.191-3.326l-10.363-.908a20.022,20.022,0,0,1-4.826-2.234,10.658,10.658,0,0,0-5.212-1.416l-5.269-.044v12.88l14.914,5.648a4.053,4.053,0,0,0,1.734.115h.01l15.015-2.164a6.645,6.645,0,0,0,3.152-1.412l9.7-8.728a2.317,2.317,0,0,0-2.831-3.656Zm0,0" transform="translate(-37.561 -253.256)" fill="#fae0c1"/>
      <path id="Trazado_126162" data-name="Trazado 126162" d="M86.542,312.505a2.313,2.313,0,0,0-.212-.267l-9.87,7.248a6.644,6.644,0,0,1-3.152,1.412l-15.015,2.164-.01,0a4.059,4.059,0,0,1-1.734-.115L41.636,317.3v4.783l14.914,5.648a4.054,4.054,0,0,0,1.734.115l.01,0,15.015-2.164a6.645,6.645,0,0,0,3.152-1.412l9.7-8.728A2.318,2.318,0,0,0,86.542,312.505Zm0,0" transform="translate(-37.561 -281.225)" fill="#efd0af"/>
      <path id="Trazado_126163" data-name="Trazado 126163" d="M14.7,265.228H8.5a1.014,1.014,0,0,1-1.014-1.014V245.3A1.014,1.014,0,0,1,8.5,244.285h6.2a1.014,1.014,0,0,1,1.014,1.014v18.915A1.014,1.014,0,0,1,14.7,265.228Zm0,0" transform="translate(-6.755 -219.923)" fill="#ee4e5d"/>
      <path id="Trazado_126164" data-name="Trazado 126164" d="M46.479,244.285h-3.76v20.943h3.76a1.014,1.014,0,0,0,1.014-1.014V245.3A1.014,1.014,0,0,0,46.479,244.285Zm0,0" transform="translate(-38.537 -219.923)" fill="#cf3735"/>
      <path id="Trazado_126165" data-name="Trazado 126165" d="M146.677,14.536a7.171,7.171,0,0,1-4.392-6,.709.709,0,0,0-.712-.644l-7.444.044h-.151l-7.444.044a.714.714,0,0,0-.705.663,7.172,7.172,0,0,1-4.327,6.042,1.023,1.023,0,0,0-.614,1.049c.342,3.268,2.332,14.395,13.182,19.4a.337.337,0,0,0,.145.031.343.343,0,0,0,.144-.033c10.79-5.131,12.649-16.28,12.953-19.552a1.028,1.028,0,0,0-.633-1.045Zm0,0" transform="translate(-109.048 -6.671)" fill="#f1b62b"/>
      <path id="Trazado_126166" data-name="Trazado 126166" d="M247.229,14.536a7.171,7.171,0,0,1-4.392-6,.709.709,0,0,0-.712-.644l-4.1.024a7.171,7.171,0,0,0,4.414,6.615,1.034,1.034,0,0,1,.638,1.047c-.281,3.034-1.9,12.838-10.736,18.34a22.331,22.331,0,0,0,2.277,1.214.344.344,0,0,0,.145.031.337.337,0,0,0,.144-.033c10.79-5.131,12.65-16.28,12.953-19.552a1.029,1.029,0,0,0-.633-1.045Zm0,0" transform="translate(-209.601 -6.671)" fill="#f1b62b"/>
      <path id="Trazado_126167" data-name="Trazado 126167" d="M160.94,57.565c-7.424-4.029-9.577-11.5-10.194-15.17a.392.392,0,0,1,.179-.4,9.6,9.6,0,0,0,4.155-5.457.394.394,0,0,1,.377-.282l11.1-.065a.394.394,0,0,1,.38.278,9.6,9.6,0,0,0,4.219,5.408.392.392,0,0,1,.184.4c-.574,3.674-2.638,11.173-10.015,15.289a.4.4,0,0,1-.381,0Zm0,0" transform="translate(-135.985 -32.198)" fill="#179587"/>
      <path id="Trazado_126168" data-name="Trazado 126168" d="M244.624,41.877a9.6,9.6,0,0,1-4.219-5.408.394.394,0,0,0-.38-.278l-4.475.026a9.6,9.6,0,0,0,4.292,5.66.391.391,0,0,1,.183.4c-.513,3.284-2.217,9.624-7.842,13.873a18.776,18.776,0,0,0,2.228,1.419.4.4,0,0,0,.381,0c7.377-4.116,9.441-11.614,10.015-15.289a.392.392,0,0,0-.184-.4Zm0,0" transform="translate(-209.456 -32.198)" fill="#179587"/>
      <path id="Trazado_126169" data-name="Trazado 126169" d="M32.8,393.531a1.863,1.863,0,1,1-1.863-1.863A1.863,1.863,0,0,1,32.8,393.531Zm0,0" transform="translate(-26.228 -352.88)" fill="#ededed"/>
      <path id="Trazado_126170" data-name="Trazado 126170" d="M216.855,99.086a.741.741,0,0,0,1.118-.127l4.886-7.374a.734.734,0,1,0-1.224-.811l-4.4,6.645L214.785,95.1a.734.734,0,1,0-1.011,1.065Zm0,0" transform="translate(-192.643 -81.141)"/>
      <path id="Trazado_126171" data-name="Trazado 126171" d="M127.006,29.142a1.088,1.088,0,0,0,.45.1h.006a1.074,1.074,0,0,0,.455-.1c11.163-5.309,13.055-16.764,13.369-20.148A1.755,1.755,0,0,0,140.2,7.2a6.416,6.416,0,0,1-3.942-5.384A1.45,1.45,0,0,0,134.823.5h-.009L119.774.588a1.438,1.438,0,0,0-1.432,1.34,6.417,6.417,0,0,1-3.885,5.423,1.749,1.749,0,0,0-1.055,1.8c.353,3.38,2.379,14.812,13.6,19.99ZM115.035,8.7a7.878,7.878,0,0,0,4.77-6.645l15-.088a7.88,7.88,0,0,0,4.84,6.586.3.3,0,0,1,.184.3c-.294,3.172-2.056,13.866-12.371,18.877C117.079,22.841,115.194,12.167,114.862,9a.289.289,0,0,1,.173-.3Zm0,0" transform="translate(-102.293)"/>
      <path id="Trazado_126172" data-name="Trazado 126172" d="M143.8,38.3a.774.774,0,0,0,.9.516.735.735,0,0,0,.516-.9c-.187-.689-.344-1.388-.468-2.08a10.325,10.325,0,0,0,4.2-5.5l10.6-.062a10.324,10.324,0,0,0,4.265,5.455c-.115.694-.264,1.395-.444,2.087a.734.734,0,1,0,1.422.368c.21-.812.382-1.636.509-2.45a1.122,1.122,0,0,0-.529-1.139,8.86,8.86,0,0,1-3.9-4.994,1.135,1.135,0,0,0-1.079-.8h-.007l-11.1.065a1.136,1.136,0,0,0-1.076.809,8.86,8.86,0,0,1-3.837,5.04,1.122,1.122,0,0,0-.516,1.145c.137.812.317,1.633.537,2.442Zm0,0" transform="translate(-129.227 -25.527)"/>
      <path id="Trazado_126173" data-name="Trazado 126173" d="M178.161,147.589a.734.734,0,0,0-.959.4,18.492,18.492,0,0,1-7.985,9.3,18.5,18.5,0,0,1-8.1-9.216.734.734,0,0,0-1.351.575,19.915,19.915,0,0,0,8.914,10.022,1.124,1.124,0,0,0,1.089-.006,19.909,19.909,0,0,0,8.79-10.11.733.733,0,0,0-.4-.958Zm0,0" transform="translate(-144.075 -132.642)"/>
      <path id="Trazado_126174" data-name="Trazado 126174" d="M24.183,384.273a2.6,2.6,0,1,0,2.6,2.6A2.6,2.6,0,0,0,24.183,384.273Zm0,3.726a1.129,1.129,0,1,1,1.129-1.129A1.13,1.13,0,0,1,24.183,388Zm0,0" transform="translate(-19.473 -346.209)"/>
      <path id="Trazado_126175" data-name="Trazado 126175" d="M49.59,244.13a3.058,3.058,0,0,0-4.223-.817l-9.6,6.423-2.049-.115-.052-.525a4.455,4.455,0,0,0-3.819-3.98l-.039,0-10.341-.906c-.35-.055-1.47-.376-4.547-2.141a11.42,11.42,0,0,0-5.232-1.505v-1.921a1.749,1.749,0,0,0-1.748-1.748h-6.2A1.75,1.75,0,0,0,0,238.639v18.915A1.75,1.75,0,0,0,1.748,259.3h6.2a1.75,1.75,0,0,0,1.748-1.748v-.521l9.04,3.423a5.055,5.055,0,0,0,2.1.155l15.02-2.165.011,0a7.385,7.385,0,0,0,3.5-1.568l.027-.023,9.7-8.725a3.058,3.058,0,0,0,.5-4Zm-1.475,2.9-9.69,8.716a5.916,5.916,0,0,1-2.785,1.244L20.63,259.157l-.013,0H20.61a3.3,3.3,0,0,1-1.39-.089l-9.529-3.608v-8.384a.734.734,0,0,0-1.468,0v10.475a.28.28,0,0,1-.28.279h-6.2a.28.28,0,0,1-.28-.279V238.639a.28.28,0,0,1,.28-.28h6.2a.28.28,0,0,1,.28.28v5.124a.734.734,0,1,0,1.468,0v-1.734a9.944,9.944,0,0,1,4.5,1.31c3.712,2.129,4.748,2.275,5.089,2.324l.039,0,10.342.906a2.991,2.991,0,0,1,2.545,2.669l.039.391-13.846.855-.028,0a1.673,1.673,0,0,1-1.142-.6.734.734,0,0,0-1.128.94,3.179,3.179,0,0,0,2.139,1.12c.453.047,14.812-.894,14.812-.894l2.878.162a.732.732,0,0,0,.449-.123l9.8-6.56a1.583,1.583,0,0,1,1.93,2.5Zm0,0" transform="translate(0 -213.253)"/>
    </g>
  </g>
</svg>
